<svg id="Layer_1" data-name="Layer 1" xmlns="http://www.w3.org/2000/svg" viewBox="0 0 417 189"><defs><style>.cls-1{fill:#fff;}.cls-2{fill:#59595c;}.cls-3{fill:#221f1f;}.cls-4{fill:#1b75ba;}.cls-5,.cls-8{fill:#f9ae42;}.cls-6{fill:#bc202e;}.cls-7{fill:#9d2063;}.cls-8{opacity:0.8;}.cls-9{fill:#f59120;}.cls-10{fill:#2b1143;}</style></defs><title>Artboard 5 copy 4</title><rect class="cls-1" width="417" height="189"/><path class="cls-2" d="M203.35,143.93h1.05v8.22a8.21,8.21,0,0,1-.18,1.74,4,4,0,0,1-.66,1.47,3.33,3.33,0,0,1-1.3,1,6.19,6.19,0,0,1-3.85.12,3.6,3.6,0,0,1-1.17-.64,2.76,2.76,0,0,1-.7-.85,2.23,2.23,0,0,1-.25-.87h1.12a2.07,2.07,0,0,0,.39.83,1.88,1.88,0,0,0,.62.51,2.89,2.89,0,0,0,.8.26,6.71,6.71,0,0,0,.91.07,3.51,3.51,0,0,0,1.72-.37,2.5,2.5,0,0,0,1-1,3.82,3.82,0,0,0,.43-1.35,11.19,11.19,0,0,0,.08-1.54,3.31,3.31,0,0,1-1.4,1.27,4.15,4.15,0,0,1-1.85.43,3.79,3.79,0,0,1-1.8-.4,3.58,3.58,0,0,1-1.26-1.05,4.34,4.34,0,0,1-.75-1.54,6.84,6.84,0,0,1-.25-1.82,7.56,7.56,0,0,1,.23-1.88,4.21,4.21,0,0,1,.73-1.52,3.63,3.63,0,0,1,1.27-1,4.47,4.47,0,0,1,1.88-.37,3.62,3.62,0,0,1,.9.13,4.14,4.14,0,0,1,.88.35,3.15,3.15,0,0,1,.79.58,3,3,0,0,1,.59.79h0Zm0,4.58a5.34,5.34,0,0,0-.21-1.53,3.5,3.5,0,0,0-.58-1.23,2.75,2.75,0,0,0-1-.82,2.78,2.78,0,0,0-1.31-.3,3.07,3.07,0,0,0-1.23.24,2.85,2.85,0,0,0-1,.69,3.18,3.18,0,0,0-.65,1.12,4.41,4.41,0,0,0-.24,1.52,5.52,5.52,0,0,0,.14,1.6,3.79,3.79,0,0,0,.56,1.31,3,3,0,0,0,1,.89,3,3,0,0,0,1.43.32,2.67,2.67,0,0,0,1.29-.31,2.92,2.92,0,0,0,1-.82,3.93,3.93,0,0,0,.61-1.21A5,5,0,0,0,203.35,148.51Z"/><path class="cls-2" d="M207.7,148.72a4.93,4.93,0,0,0,.19,1.4,3.39,3.39,0,0,0,.57,1.14,2.89,2.89,0,0,0,1,.77,3,3,0,0,0,1.34.29,2.91,2.91,0,0,0,1.77-.54,2.63,2.63,0,0,0,1-1.55h1.18a5.42,5.42,0,0,1-.51,1.2,3.73,3.73,0,0,1-.79,1,3.29,3.29,0,0,1-1.13.64,4.55,4.55,0,0,1-1.5.23,4.32,4.32,0,0,1-1.88-.37,3.54,3.54,0,0,1-1.3-1,4.38,4.38,0,0,1-.76-1.51,7,7,0,0,1-.24-1.87,5.83,5.83,0,0,1,.29-1.88,4.89,4.89,0,0,1,.82-1.53,3.8,3.8,0,0,1,1.31-1,4,4,0,0,1,1.76-.38A3.61,3.61,0,0,1,213.7,145a5.65,5.65,0,0,1,1.06,3.75Zm5.93-.87a4.26,4.26,0,0,0-.18-1.26,2.93,2.93,0,0,0-.54-1,2.72,2.72,0,0,0-.91-.68,2.89,2.89,0,0,0-1.24-.26,2.7,2.7,0,0,0-1.24.27,2.88,2.88,0,0,0-.92.7,3.43,3.43,0,0,0-.6,1,4.82,4.82,0,0,0-.3,1.23Z"/><path class="cls-2" d="M217.43,150.18a2.65,2.65,0,0,0,.88,1.66,3,3,0,0,0,1.84.48,3.31,3.31,0,0,0,1-.14,1.9,1.9,0,0,0,.69-.38,1.49,1.49,0,0,0,.41-.53,1.38,1.38,0,0,0,.14-.63,1.17,1.17,0,0,0-.43-1,3.39,3.39,0,0,0-1.08-.51c-.43-.12-.9-.22-1.4-.31a6.7,6.7,0,0,1-1.4-.4,2.63,2.63,0,0,1-1.08-.75,2,2,0,0,1-.43-1.39,2.36,2.36,0,0,1,.83-1.87,3.51,3.51,0,0,1,2.36-.73,4.05,4.05,0,0,1,2.4.66,3,3,0,0,1,1.11,2.21H222.2a2,2,0,0,0-.8-1.49,3,3,0,0,0-1.66-.43,2.39,2.39,0,0,0-1.52.43,1.38,1.38,0,0,0-.53,1.14,1.08,1.08,0,0,0,.43.93,3.4,3.4,0,0,0,1.08.53,12.4,12.4,0,0,0,1.4.36,6.84,6.84,0,0,1,1.41.45,3.06,3.06,0,0,1,1.08.78,2,2,0,0,1,.43,1.37,2.42,2.42,0,0,1-.28,1.15,2.47,2.47,0,0,1-.78.83,3.51,3.51,0,0,1-1.16.5,6.29,6.29,0,0,1-1.49.17,4,4,0,0,1-1.43-.24,3.17,3.17,0,0,1-1.06-.66,2.93,2.93,0,0,1-.68-1,3.25,3.25,0,0,1-.28-1.21Z"/><path class="cls-2" d="M228.78,153.06a4.37,4.37,0,0,0-.51.12,2.53,2.53,0,0,1-.7.09,1.64,1.64,0,0,1-1.2-.4,1.89,1.89,0,0,1-.41-1.41v-6.65h-1.28v-.88H226V141.4h1v2.53h1.7v.88H227V151c0,.22,0,.42,0,.58a.9.9,0,0,0,.1.4.5.5,0,0,0,.28.23,1.39,1.39,0,0,0,.51.07,3.11,3.11,0,0,0,.43,0l.43-.09Z"/><path class="cls-2" d="M234.08,153.27a4.69,4.69,0,0,1-1.64-.32,3.62,3.62,0,0,1-1.33-.89,4.33,4.33,0,0,1-.9-1.49,5.84,5.84,0,0,1-.34-2.09,6.26,6.26,0,0,1,.27-1.87,4.16,4.16,0,0,1,.79-1.52,3.71,3.71,0,0,1,1.31-1,4.26,4.26,0,0,1,1.84-.38,4.33,4.33,0,0,1,1.87.38,3.77,3.77,0,0,1,1.31,1,4.21,4.21,0,0,1,.78,1.52,6.67,6.67,0,0,1,.26,1.88,6,6,0,0,1-.3,2,4.36,4.36,0,0,1-.85,1.51,3.84,3.84,0,0,1-1.34,1A4.21,4.21,0,0,1,234.08,153.27Zm3.09-4.79A6.08,6.08,0,0,0,237,147a3.68,3.68,0,0,0-.54-1.22,2.68,2.68,0,0,0-1-.82,3.09,3.09,0,0,0-1.43-.3,2.83,2.83,0,0,0-1.41.33,2.74,2.74,0,0,0-1,.86,3.83,3.83,0,0,0-.54,1.23,5.66,5.66,0,0,0-.17,1.43,5.44,5.44,0,0,0,.2,1.55,3.55,3.55,0,0,0,.59,1.22,2.55,2.55,0,0,0,1,.79,3.3,3.3,0,0,0,2.75,0,2.87,2.87,0,0,0,1-.87,4,4,0,0,0,.54-1.23A5.58,5.58,0,0,0,237.17,148.48Z"/><path class="cls-2" d="M241.33,153h-1.05v-9.09h1.05v1.7h0a3.09,3.09,0,0,1,1.13-1.52,3.5,3.5,0,0,1,1.84-.43v1.15a3,3,0,0,0-1.48.28,2.47,2.47,0,0,0-.92.8,3,3,0,0,0-.47,1.21,7.48,7.48,0,0,0-.14,1.44Z"/><path class="cls-2" d="M245.39,143l2-2.44h1.35L246.28,143Zm.79,10.07v-9.09h1V153Z"/><path class="cls-2" d="M254.15,147.72l.71-.1a2.51,2.51,0,0,0,.68-.2.56.56,0,0,0,.32-.41,2.61,2.61,0,0,0,.06-.53,1.79,1.79,0,0,0-.52-1.33,2.41,2.41,0,0,0-1.74-.52,4.4,4.4,0,0,0-1,.1,2.05,2.05,0,0,0-.8.33,1.8,1.8,0,0,0-.56.63,2.56,2.56,0,0,0-.29,1h-1.07a3.19,3.19,0,0,1,.36-1.38,3,3,0,0,1,.82-.93,3.34,3.34,0,0,1,1.16-.53,5.71,5.71,0,0,1,1.4-.17,5.43,5.43,0,0,1,1.29.15,3,3,0,0,1,1,.48,2.1,2.1,0,0,1,.7.87,3.09,3.09,0,0,1,.26,1.33v5q0,.61.21.78c.15.11.45.09.89-.08V153l-.36.1a1.51,1.51,0,0,1-.46.07,1.86,1.86,0,0,1-.48,0,.8.8,0,0,1-.42-.17,1,1,0,0,1-.25-.31,1.32,1.32,0,0,1-.14-.41,3.33,3.33,0,0,1,0-.46,4.48,4.48,0,0,1-1.53,1.12,4.43,4.43,0,0,1-1.86.39,4,4,0,0,1-1.15-.16,2.69,2.69,0,0,1-1-.49,2.33,2.33,0,0,1-.67-.82,2.54,2.54,0,0,1-.25-1.15q0-2.31,3.18-2.73Zm1.77.53a5,5,0,0,1-1.35.37c-.46.06-.91.1-1.37.14a3.93,3.93,0,0,0-1.89.54,1.57,1.57,0,0,0-.67,1.39,1.54,1.54,0,0,0,.16.73,1.8,1.8,0,0,0,.44.51,2,2,0,0,0,.64.29,2.55,2.55,0,0,0,.72.1,4.51,4.51,0,0,0,1.23-.16,3,3,0,0,0,1.06-.48,2.56,2.56,0,0,0,.75-.82,2.38,2.38,0,0,0,.28-1.19Z"/><path class="cls-2" d="M271.05,146.79a3,3,0,0,0-1-1.59,2.64,2.64,0,0,0-1.74-.57A2.68,2.68,0,0,0,267,145a2.73,2.73,0,0,0-.94.88,4,4,0,0,0-.55,1.25,5.51,5.51,0,0,0-.17,1.39,6,6,0,0,0,.16,1.41,3.6,3.6,0,0,0,.54,1.23,2.74,2.74,0,0,0,.95.87,2.87,2.87,0,0,0,1.4.32,2.68,2.68,0,0,0,1.89-.65,3,3,0,0,0,.9-1.79h1.12a5.44,5.44,0,0,1-.44,1.38,3.86,3.86,0,0,1-.79,1.07,3.33,3.33,0,0,1-1.15.69,4.89,4.89,0,0,1-3.41-.12,3.62,3.62,0,0,1-1.3-1,4.16,4.16,0,0,1-.75-1.52,6.68,6.68,0,0,1-.25-1.88,6.06,6.06,0,0,1,.27-1.81,5,5,0,0,1,.8-1.54,3.88,3.88,0,0,1,1.31-1.06,4,4,0,0,1,1.8-.4,4.07,4.07,0,0,1,2.55.76,3.48,3.48,0,0,1,1.22,2.35Z"/><path class="cls-2" d="M280.53,143.93h1.06V153h-1.06v-1.26l-.47.51a3.69,3.69,0,0,1-.61.48,3.12,3.12,0,0,1-.8.37,3.32,3.32,0,0,1-1,.15,4.22,4.22,0,0,1-1.53-.25,2.45,2.45,0,0,1-1-.72,2.73,2.73,0,0,1-.54-1.06,5,5,0,0,1-.17-1.32v-6h1.06v6a2.69,2.69,0,0,0,.54,1.8,2.28,2.28,0,0,0,1.79.62,2.64,2.64,0,0,0,1.17-.25,2.59,2.59,0,0,0,.87-.71,3.58,3.58,0,0,0,.54-1.09,4.72,4.72,0,0,0,.19-1.39Z"/><path class="cls-2" d="M284.29,153V140.38h1V153Z"/><path class="cls-2" d="M291.22,153.06a4.37,4.37,0,0,0-.51.12,2.53,2.53,0,0,1-.7.09,1.64,1.64,0,0,1-1.2-.4,1.89,1.89,0,0,1-.41-1.41v-6.65h-1.28v-.88h1.28V141.4h1.05v2.53h1.7v.88h-1.7V151c0,.22,0,.42,0,.58a.9.9,0,0,0,.1.4.5.5,0,0,0,.28.23,1.39,1.39,0,0,0,.51.07,3.11,3.11,0,0,0,.43,0l.43-.09Z"/><path class="cls-2" d="M299.07,143.93h1.05V153h-1.05v-1.26l-.47.51a3.69,3.69,0,0,1-.61.48,3.29,3.29,0,0,1-.8.37,3.32,3.32,0,0,1-1.05.15,4.22,4.22,0,0,1-1.53-.25,2.45,2.45,0,0,1-1-.72,2.73,2.73,0,0,1-.54-1.06,4.59,4.59,0,0,1-.17-1.32v-6h1v6a2.64,2.64,0,0,0,.55,1.8,2.28,2.28,0,0,0,1.79.62,2.57,2.57,0,0,0,1.16-.25,2.41,2.41,0,0,0,.87-.71,3.39,3.39,0,0,0,.55-1.09,4.72,4.72,0,0,0,.19-1.39Z"/><path class="cls-2" d="M303.77,153h-1v-9.09h1v1.7h0a3.09,3.09,0,0,1,1.13-1.52,3.53,3.53,0,0,1,1.84-.43v1.15a3,3,0,0,0-1.48.28,2.47,2.47,0,0,0-.92.8,3,3,0,0,0-.47,1.21,7.48,7.48,0,0,0-.14,1.44Z"/><path class="cls-2" d="M312.69,147.72l.71-.1a2.51,2.51,0,0,0,.68-.2.56.56,0,0,0,.32-.41,2.67,2.67,0,0,0,.07-.53,1.83,1.83,0,0,0-.52-1.33,2.46,2.46,0,0,0-1.75-.52,4.46,4.46,0,0,0-1,.1,2.12,2.12,0,0,0-.8.33,1.9,1.9,0,0,0-.56.63,2.74,2.74,0,0,0-.29,1h-1.07a3.19,3.19,0,0,1,.37-1.38,2.81,2.81,0,0,1,.81-.93,3.42,3.42,0,0,1,1.16-.53,5.77,5.77,0,0,1,1.4-.17,5.43,5.43,0,0,1,1.29.15,3,3,0,0,1,1.05.48,2.1,2.1,0,0,1,.7.87,3.09,3.09,0,0,1,.26,1.33v5c0,.41.07.67.22.78s.44.09.88-.08V153l-.36.1a1.47,1.47,0,0,1-.46.07,1.83,1.83,0,0,1-.47,0,.8.8,0,0,1-.43-.17,1,1,0,0,1-.25-.31,1.1,1.1,0,0,1-.13-.41,2.25,2.25,0,0,1,0-.46,4.45,4.45,0,0,1-1.52,1.12,4.51,4.51,0,0,1-1.87.39,4,4,0,0,1-1.15-.16,2.78,2.78,0,0,1-1-.49,2.44,2.44,0,0,1-.67-.82,2.54,2.54,0,0,1-.24-1.15c0-1.54,1.06-2.45,3.17-2.73Zm1.78.53a5.19,5.19,0,0,1-1.36.37c-.45.06-.91.1-1.37.14a3.92,3.92,0,0,0-1.88.54,1.58,1.58,0,0,0-.68,1.39,1.54,1.54,0,0,0,.17.73,1.66,1.66,0,0,0,.44.51,1.82,1.82,0,0,0,.63.29,2.57,2.57,0,0,0,.73.1,4.61,4.61,0,0,0,1.23-.16,3.2,3.2,0,0,0,1.06-.48,2.42,2.42,0,0,0,.74-.82,2.38,2.38,0,0,0,.29-1.19Z"/><path class="cls-2" d="M318.43,153V140.38h1.06V153Z"/><path class="cls-3" d="M42,125.35V96.46h7.45v28c0,2.19.43,2.82,2.68,2.82H53v6.16a31.1,31.1,0,0,1-3.63.19C44.53,133.62,42,131.76,42,125.35Z"/><path class="cls-3" d="M55.71,125.59c0-7.64,5.35-9.45,17.34-9.45h1.1c-.05-2.44-.67-3.68-5.35-3.68A15.6,15.6,0,0,0,61,114.65l-3.73-5.49a24.17,24.17,0,0,1,12.37-3.29c9.75,0,11.75,3.1,11.75,10.74v8.22c0,2.15.15,2.48,2.34,2.48v6.12a14.76,14.76,0,0,1-3.15.19c-2.87,0-4.11-.58-5.16-2.68-1.38,1.87-4.39,3-9.5,3C57.53,134,55.71,130.32,55.71,125.59Zm18.44-3.29v-1h-.62c-9.55,0-10.7.77-10.7,3.68,0,2,1.1,3,4.54,3C72.1,127.93,74.15,126.26,74.15,122.3Z"/><path class="cls-3" d="M97.27,120c0-7.55,2.48-14.09,14-14.09,11.89,0,12.28,7.92,12,16.95H104.53c.43,3.25,2,5.16,6.83,5.16,4.15,0,6.49-1,8.5-2.48l3.77,4.87c-3.48,2.63-6.92,3.68-12.27,3.68C99.66,134.05,97.27,127.65,97.27,120Zm7.26-2.49h12c-.19-3.1-.81-5.35-5.45-5.35S104.91,114.18,104.53,117.47Z"/><path class="cls-3" d="M125.54,130.56l3.83-5.49a18.63,18.63,0,0,0,9.55,2.82c3.77,0,4.87-.39,4.87-2.25,0-1.58-1.1-1.91-4.78-2.39-6.68-.9-11.79-1.86-11.79-8.93,0-5.49,3.24-8.45,11.79-8.45,4.35,0,8.55.86,11.42,2.48l-3.58,5.83a17.52,17.52,0,0,0-7.6-1.77c-3.82,0-4.58.67-4.58,2,0,1.53,1,1.86,4.44,2.34,6.88,1,12,1.77,12,8.5,0,6.21-3.34,8.74-12.66,8.74C133.81,134,129.17,133,125.54,130.56Z"/><path class="cls-3" d="M154.06,120c0-7.84,2.53-14.09,14.19-14.09,4.87,0,8.5,1.62,11,4.39l-5.25,5a7.21,7.21,0,0,0-5.73-2.49c-5.35,0-6.64,2.92-6.64,7.41s1.19,7.5,6.69,7.5a8.05,8.05,0,0,0,6.11-2.63l4.78,4.59c-3.16,2.91-5.83,4.34-11.28,4.34C156.74,134,154.06,127.89,154.06,120Z"/><path class="cls-3" d="M182.82,120.91V106.49h7.5v14.57c0,3.77.09,6.4,5.44,6.4s5.4-2.68,5.4-6.45V106.49h7.35v14.37c0,9.27-2.48,13.09-12.8,13.09S182.82,130.18,182.82,120.91Z"/><path class="cls-3" d="M212.48,125.59c0-7.64,5.35-9.45,17.34-9.45h1.1c0-2.44-.67-3.68-5.35-3.68a15.67,15.67,0,0,0-7.84,2.19L214,109.16a24.14,24.14,0,0,1,12.37-3.29c9.74,0,11.75,3.1,11.75,10.74v8.22c0,2.15.14,2.48,2.34,2.48v6.12a14.83,14.83,0,0,1-3.15.19c-2.87,0-4.11-.58-5.16-2.68-1.39,1.87-4.4,3-9.51,3C214.29,134,212.48,130.32,212.48,125.59Zm18.44-3.29v-1h-.63c-9.55,0-10.69.77-10.69,3.68,0,2,1.09,3,4.53,3C228.86,127.93,230.92,126.26,230.92,122.3Z"/><path class="cls-3" d="M243.48,119.86c0-7.74,2.53-14,12-14,4.92,0,7.26,1.09,8.4,2.53V96.46h7.5v36.78l-5.73.52-.76-2.72c-1.63,1.91-4.44,3-9.65,3C245.91,134.05,243.48,127.65,243.48,119.86Zm20.39,0c0-5.11-1.43-7.26-6.87-7.26-4.92,0-5.93,3-5.93,7.26s1,7.74,5.93,7.74C262.15,127.6,263.87,125.07,263.87,119.86Z"/><path class="cls-3" d="M277.3,106.92l5.82-.43.77,3c1.14-1.72,4.44-3.11,8.64-3.25v7.17c-6.35,0-7.73,2.53-7.73,6.78v13.37h-7.5Z"/><path class="cls-3" d="M293.82,125.59c0-7.64,5.35-9.45,17.34-9.45h1.1c-.05-2.44-.67-3.68-5.35-3.68a15.6,15.6,0,0,0-7.83,2.19l-3.73-5.49a24.17,24.17,0,0,1,12.37-3.29c9.75,0,11.75,3.1,11.75,10.74v8.22c0,2.15.15,2.48,2.34,2.48v6.12a14.76,14.76,0,0,1-3.15.19c-2.86,0-4.11-.58-5.16-2.68-1.38,1.87-4.39,3-9.5,3C295.64,134,293.82,130.32,293.82,125.59Zm18.44-3.29v-1h-.62c-9.55,0-10.7.77-10.7,3.68,0,2,1.1,3,4.54,3C310.21,127.93,312.26,126.26,312.26,122.3Z"/><polygon class="cls-4" points="323.92 96.85 372.47 96.85 357.65 76.7 323.92 96.85"/><polygon class="cls-5" points="373.51 32.26 323.92 32.26 323.92 32.26 356.58 53.81 373.51 32.26"/><polygon class="cls-6" points="357.65 76.7 375 65.96 356.58 53.81 348.43 64.55 357.65 76.7"/><polygon class="cls-4" points="348.43 64.55 323.92 96.85 323.92 96.85 357.65 76.7 348.43 64.55"/><polygon class="cls-7" points="348.43 64.55 323.92 96.85 323.92 96.85 357.65 76.7 348.43 64.55"/><polygon class="cls-8" points="356.58 53.81 323.92 32.26 348.43 64.55 356.58 53.81"/><polygon class="cls-9" points="356.58 53.81 323.92 32.26 348.43 64.55 356.58 53.81"/><polygon class="cls-4" points="323.92 32.26 323.92 96.85 348.43 64.55 323.92 32.26"/><polygon class="cls-8" points="323.92 32.26 323.92 96.85 348.43 64.55 323.92 32.26"/><polygon class="cls-10" points="323.92 32.26 323.92 96.85 348.43 64.55 323.92 32.26"/></svg>