<svg id="Layer_1" data-name="Layer 1" xmlns="http://www.w3.org/2000/svg" xmlns:xlink="http://www.w3.org/1999/xlink" viewBox="0 0 417 189"><defs><style>.cls-1{fill:none;}.cls-2{fill:#fff;}.cls-3{fill:#0a2240;}.cls-4{fill:#bb883f;}.cls-5{opacity:0.4;}.cls-6{clip-path:url(#clip-path);}.cls-7{fill:#cfae80;}.cls-8{fill:#d3a973;}.cls-9{fill:#c69b5e;}.cls-10{fill:#ceae81;}.cls-11{fill:#b79d80;}.cls-12{fill:#d5ac80;}.cls-13{fill:#d1aa7d;}.cls-14{fill:#ac9c7c;}.cls-15{fill:#d3ac6c;}.cls-16{fill:#d0b280;}.cls-17{fill:#c89a68;}.cls-18{fill:#be8e63;}.cls-19{fill:#cda76a;}.cls-20{fill:#bd9a72;}.cls-21{fill:#d6aa75;}.cls-22{fill:#bf935b;}.cls-23{fill:#bf9864;}.cls-24{fill:#cdab80;}.cls-25{fill:#c99e76;}.cls-26{fill:#c3aa94;}.cls-27{fill:#d7a76a;}.cls-28{fill:#d5ad7c;}.cls-29{fill:#d6a469;}.cls-30{fill:#dca957;}.cls-31{fill:#d3a66d;}.cls-32{fill:#cbb897;}.cls-33{fill:#c89455;}.cls-34{fill:#cda067;}.cls-35{fill:#cb9e65;}.cls-36{fill:#ad9f6c;}.cls-37{fill:#cba577;}.cls-38{fill:#d7a568;}.cls-39{fill:#d7ab6e;}.cls-40{fill:#cfa56b;}.cls-41{fill:#cda376;}.cls-42{fill:#c28f54;}.cls-43{fill:#d6a66b;}.cls-44{fill:#c79762;}.cls-45{fill:#dea76c;}.cls-46{fill:#d1a353;}.cls-47{fill:#d7aa70;}.cls-48{fill:#ceaa73;}.cls-49{fill:#d1ac74;}.cls-50{fill:#bf9461;}.cls-51{fill:#d3a57a;}.cls-52{fill:#c59759;}.cls-53{clip-path:url(#clip-path-2);}.cls-54{fill:#ad7c49;}.cls-55{fill:#a77643;}.cls-56{fill:#9c6c3e;}.cls-57{fill:#a5723d;}.cls-58{fill:#b17439;}.cls-59{fill:#b17f4b;}.cls-60{clip-path:url(#clip-path-3);}.cls-61{fill:#a27447;}.cls-62{fill:#b7824c;}.cls-63{fill:#a97b43;}.cls-64{fill:#867e73;}.cls-65{fill:#7e664e;}.cls-66{fill:#ac7644;}.cls-67{fill:#a7743f;}.cls-68{fill:#ac7a45;}.cls-69{fill:#a3713b;}.cls-70{fill:#a6743f;}.cls-71{fill:#aa7843;}.cls-72{fill:#a3713c;}.cls-73{fill:#ab7a45;}.cls-74{fill:#a67537;}.cls-75{fill:#b07d47;}.cls-76{fill:#a06d38;}.cls-77{fill:#ae7c46;}.cls-78{fill:#b17336;}.cls-79{fill:#986d3b;}.cls-80{fill:#b5783d;}.cls-81{fill:#b37639;}.cls-82{fill:#ac7944;}.cls-83{fill:#af7235;}.cls-84{fill:#b3804d;}.cls-85{fill:#af7d48;}.cls-86{clip-path:url(#clip-path-4);}.cls-87{fill:#eecb9b;}.cls-88{fill:#f1d399;}.cls-89{fill:#dfc18b;}.cls-90{fill:#edc486;}.cls-91{fill:#f4cd8c;}.cls-92{fill:#efcd83;}.cls-93{fill:#e6ba7d;}.cls-94{fill:#f2bc73;}.cls-95{clip-path:url(#clip-path-5);}.cls-96{fill:#f4d095;}.cls-97{fill:#efca8e;}.cls-98{fill:#f4d399;}.cls-99{fill:#ebc389;}.cls-100{fill:#f3cd95;}.cls-101{fill:#f2cc91;}.cls-102{fill:#edc378;}.cls-103{fill:#f5d298;}.cls-104{fill:#e3c899;}.cls-105{fill:#f5d29b;}.cls-106{fill:#edc08b;}.cls-107{fill:#edc58a;}.cls-108{fill:#efc789;}.cls-109{fill:#eec77b;}.cls-110{fill:#efbf7c;}.cls-111{fill:#eac183;}.cls-112{clip-path:url(#clip-path-6);}.cls-113{fill:#b6875a;}.cls-114{fill:#b5916b;}.cls-115{fill:#b68252;}.cls-116{fill:#be8f64;}.cls-117{fill:#c89b70;}.cls-118{fill:#b08a5d;}.cls-119{fill:#ab8563;}.cls-120{fill:#bb8d58;}.cls-121{fill:#c0905d;}.cls-122{fill:#ac8560;}.cls-123{fill:#aa8661;}.cls-124{fill:#b08c6d;}.cls-125{fill:#bd9774;}.cls-126{fill:#c7a889;}.cls-127{fill:#ca9862;}.cls-128{fill:#c5a179;}.cls-129{fill:#d09c68;}.cls-130{fill:#c59567;}.cls-131{fill:#b7804c;}.cls-132{fill:#ac7d4a;}.cls-133{fill:#c28951;}.cls-134{fill:#cb9865;}.cls-135{fill:#c59664;}.cls-136{fill:#d2a97e;}.cls-137{fill:#c7945b;}.cls-138{fill:#ba884e;}.cls-139{fill:#b18b64;}.cls-140{fill:#b98552;}.cls-141{fill:#b98c5e;}.cls-142{fill:#bf8d62;}.cls-143{fill:#c38e60;}.cls-144{fill:#bd9570;}.cls-145{fill:#d4975c;}.cls-146{fill:#bf8d5a;}.cls-147{fill:#b2804f;}.cls-148{fill:#b78044;}.cls-149{fill:#c4925d;}.cls-150{fill:#c3905d;}.cls-151{fill:#d89a5c;}.cls-152{fill:#d29f68;}.cls-153{fill:#bf8d57;}.cls-154{fill:#d7a36f;}.cls-155{fill:#b6864e;}.cls-156{fill:#b18354;}.cls-157{fill:#bc885a;}.cls-158{fill:#b27c43;}.cls-159{fill:#b1895d;}.cls-160{fill:#c4905d;}.cls-161{fill:#c68d55;}.cls-162{fill:#d39a5f;}.cls-163{fill:#b98359;}.cls-164{fill:#bc874e;}.cls-165{fill:#b6804d;}.cls-166{fill:#cd8f51;}.cls-167{fill:#ce9967;}.cls-168{fill:#c98e52;}.cls-169{fill:#b9814c;}.cls-170{fill:#b08663;}.cls-171{clip-path:url(#clip-path-7);}.cls-172{fill:#dcc4a4;}.cls-173{fill:#dab993;}.cls-174{fill:#e2b379;}.cls-175{fill:#e0b076;}.cls-176{fill:#c6b2a0;}.cls-177{fill:#e0b887;}.cls-178{fill:#deb685;}.cls-179{fill:#d9b180;}.cls-180{fill:#d7ae7f;}.cls-181{fill:#e5b57d;}.cls-182{fill:#deb784;}.cls-183{fill:#dfb173;}.cls-184{fill:#e7b377;}.cls-185{fill:#e2b270;}.cls-186{fill:#d9aa70;}.cls-187{fill:#e5a968;}.cls-188{fill:#e5b57b;}.cls-189{clip-path:url(#clip-path-8);}.cls-190{fill:#f1e0bb;}.cls-191{fill:#f0d4a5;}.cls-192{fill:#f5dfaf;}.cls-193{fill:#f5dda3;}.cls-194{fill:#f9d89d;}.cls-195{fill:#f8d797;}.cls-196{fill:#f7dca7;}.cls-197{fill:#f5deaa;}.cls-198{clip-path:url(#clip-path-9);}.cls-199{fill:#efc286;}.cls-200{fill:#eec085;}.cls-201{fill:#ebbf80;}.cls-202{fill:#f0c991;}.cls-203{fill:#e9c884;}.cls-204{fill:#eacc99;}.cls-205{fill:#ecbf83;}.cls-206{fill:#eeba79;}.cls-207{fill:#eebe7a;}.cls-208{fill:#e8bc80;}.cls-209{fill:#e8bb80;}.cls-210{fill:#f9edc4;}.cls-211{fill:#f3c686;}.cls-212{fill:#f0c480;}.cls-213{fill:#f1c588;}.cls-214{clip-path:url(#clip-path-10);}.cls-215{fill:#b58650;}.cls-216{fill:#b78850;}.cls-217{fill:#ae895d;}.cls-218{fill:#bb8a52;}.cls-219{fill:#ab804d;}.cls-220{fill:#907953;}.cls-221{fill:#bc8a48;}.cls-222{fill:#b28344;}.cls-223{fill:#af8b49;}.cls-224{fill:#b98c40;}.cls-225{fill:#b08042;}.cls-226{fill:#b18741;}.cls-227{fill:#b1824a;}.cls-228{fill:#bd8b4b;}.cls-229{fill:#b0824a;}.cls-230{fill:#ad814b;}.cls-231{fill:#b08044;}.cls-232{clip-path:url(#clip-path-11);}.cls-233{fill:#a67b46;}.cls-234{fill:#ac7c3f;}.cls-235{fill:#ac8667;}.cls-236{fill:#ac803c;}.cls-237{fill:#a2804c;}.cls-238{fill:#b47f52;}.cls-239{fill:#aa8165;}.cls-240{fill:#93724c;}.cls-241{fill:#ad7b3b;}.cls-242{fill:#b18149;}.cls-243{fill:#a97633;}.cls-244{fill:#aa7830;}.cls-245{fill:#b98542;}.cls-246{fill:#a7823f;}.cls-247{fill:#a98552;}.cls-248{clip-path:url(#clip-path-12);}.cls-249{fill:#d3b688;}.cls-250{fill:#e3b27e;}.cls-251{fill:#d7af7c;}.cls-252{fill:#deb077;}.cls-253{fill:#e3b378;}.cls-254{fill:#e2b57a;}.cls-255{fill:#e5b075;}.cls-256{fill:#dda96e;}.cls-257{fill:#d9b16d;}.cls-258{fill:#e1b776;}.cls-259{fill:#e4bb75;}.cls-260{fill:#d5aa71;}.cls-261{fill:#e0b06b;}.cls-262{fill:#beb098;}.cls-263{fill:#e4a86a;}.cls-264{fill:#d9a36c;}.cls-265{fill:#ca9c62;}.cls-266{fill:#dbb36e;}.cls-267{fill:#dda97b;}.cls-268{fill:#dcae68;}.cls-269{fill:#ecba84;}.cls-270{fill:#deb36f;}.cls-271{fill:#e2af85;}.cls-272{fill:#e1b37f;}.cls-273{fill:#deb680;}.cls-274{fill:#e2ab7d;}.cls-275{fill:#e3aa7d;}.cls-276{clip-path:url(#clip-path-13);}.cls-277{fill:#dab681;}.cls-278{fill:#d3b58b;}.cls-279{fill:#d8c8ae;}.cls-280{fill:#dfb175;}.cls-281{fill:#e0b67e;}.cls-282{fill:#dfb370;}.cls-283{fill:#d5b997;}</style><clipPath id="clip-path"><path class="cls-1" d="M215.87,137.09c-2.06,7.7-8,13.25-17,13.25-11.58,0-17.8-8.78-17.8-19.6s6.5-19.6,17.8-19.6c12,0,15,5.32,15,10.92s-5.8,9.27-17.69,9.27l-.07-1.32s7.6-1.24,7.6-9c0-7.13-2.67-8-4.31-8-3.36,0-5.22,3.71-5.22,18,0,14.17,6.46,15.42,10.4,15.42,7.1,0,9.85-7,9.85-9.54Z"/></clipPath><clipPath id="clip-path-2"><path class="cls-1" d="M265.68,106.56a6.49,6.49,0,1,0-6.49-6.49,6.48,6.48,0,0,0,6.49,6.49"/></clipPath><clipPath id="clip-path-3"><path class="cls-1" d="M272.08,149.21v-38s-3.69,2.67-10.59,2.67h-5.1V115h2.8v34.17H257v1.12h17.37v-1.12Z"/></clipPath><clipPath id="clip-path-4"><path class="cls-1" d="M94.27,106.56a6.49,6.49,0,1,0-6.49-6.49,6.48,6.48,0,0,0,6.49,6.49"/></clipPath><clipPath id="clip-path-5"><path class="cls-1" d="M100.67,149.21v-38s-3.69,2.67-10.58,2.67H85V115h2.8v34.17H85.54v1.12h17.37v-1.12Z"/></clipPath><clipPath id="clip-path-6"><path class="cls-1" d="M298,111.05c-12.43,0-19.26,8.33-19.26,19.67,0,11.11,6,19.62,18.94,19.62s19.21-8.8,19.21-19.62S310,111.05,298,111.05m-.27,38.13c-5.41,0-5.9-8.29-5.9-18.46s.55-18.42,5.95-18.42c5.18,0,5.94,8.25,5.94,18.42s-.7,18.46-6,18.46"/></clipPath><clipPath id="clip-path-7"><path class="cls-1" d="M178.53,112.39v-1.13h-5.6V100.21h-1.15s-1.1,6.72-9.77,6.72h-2v4.33h-3.92v1.13h3.92v36.83h-2.24v1.12h17.36v-1.12h-2.24V112.39Z"/></clipPath><clipPath id="clip-path-8"><path class="cls-1" d="M124.83,111.25s-3.68,2.67-10.58,2.67h-5.1V115H112v34.17h-2.24v1.13h17.37v-1.13h-2.25Z"/></clipPath><clipPath id="clip-path-9"><path class="cls-1" d="M147.73,149.25V123.48A12,12,0,0,0,135.5,111.3a12.76,12.76,0,0,0-9.06,4.08V117a5,5,0,0,1,3.71-1.75c3.06,0,4.69,2.5,4.69,5.51v28.53H132.6v1.12H150v-1.12Z"/></clipPath><clipPath id="clip-path-10"><path class="cls-1" d="M235.67,111.25s-3.69,2.67-10.59,2.67H220V115h2.8v34.17h-2.24v1.13h17.37v-1.13h-2.24Z"/></clipPath><clipPath id="clip-path-11"><path class="cls-1" d="M237.35,116v2.12a2.92,2.92,0,0,1,2.6-1.66,3.36,3.36,0,0,1,3.22,3.52,3.65,3.65,0,0,1-2.57,3.79c0,4.2,11,4.49,11-3.12,0-6.8-9.78-9.47-14.26-4.65"/></clipPath><clipPath id="clip-path-12"><path class="cls-1" d="M337.06,111.25s-3.69,2.67-10.59,2.67h-5.1V115h2.8v34.17h-2.24v1.13H339.3v-1.13h-2.24Z"/></clipPath><clipPath id="clip-path-13"><path class="cls-1" d="M338.74,116v2.12a2.92,2.92,0,0,1,2.6-1.66,3.36,3.36,0,0,1,3.22,3.52,3.65,3.65,0,0,1-2.57,3.79c0,4.2,11,4.49,11-3.12,0-6.8-9.78-9.47-14.26-4.65"/></clipPath></defs><title>Artboard 5</title><rect class="cls-2" width="417" height="189"/><path class="cls-3" d="M98.8,71.36c-2.06,7.71-8,13.25-17,13.25C70.23,84.61,64,75.83,64,65s6.5-19.6,17.81-19.6c12,0,15,5.32,15,10.92S91,65.59,79.15,65.59l-.07-1.31s7.6-1.25,7.6-9.06c0-7.12-2.67-8-4.32-8-3.36,0-5.22,3.72-5.22,18,0,14.17,6.47,15.42,10.41,15.42,7.1,0,9.85-7,9.85-9.55Z"/><path class="cls-3" d="M109.84,52.29c0-6.07,6.68-5.7,6.68-5.7l-.35-1.17c-3.87,0-15.29,1.15-15.29,12.71,0,12.79,20.67,11.42,20.67,19.91,0,5.49-6.4,5.49-6.4,5.49l.39,1c1.9,0,16-.23,16-12.4,0-14-21.72-11-21.72-19.83"/><path class="cls-3" d="M128.39,54.31h.68l-1.36-9c-.77,1.16-1.55,1.29-3.95.81a29.75,29.75,0,0,0-6.12-.75l.44,1.25a13,13,0,0,1,10.31,7.65"/><path class="cls-3" d="M101.65,71.38H101V84.59c1-1.92,3-1.21,5.45-.73a47.31,47.31,0,0,0,7.51.66l-.38-1.06c-7.77-.65-11.5-7.15-11.9-12.08"/><path class="cls-3" d="M217.85,76s.25,4.21-2.86,4.21c-2.92,0-2.86-3-2.86-4.34,0-6.7.11-15.43.11-18.78,0-3.62-3.05-11.7-16.15-11.7,0,0-.47,1.24-.45,1.25a5.65,5.65,0,0,1,3.62,5.27V73a20.93,20.93,0,0,0,.5,5.14c-.37,1.16-1.52,3.86-4.38,3.86-3.28,0-4.92-1.78-4.92-8.42,0-7.13,4.92-9.39,6.65-9.39l-.18-.73s-18,0-18,11c0,7.42,6.59,10.27,12.28,10.27a10,10,0,0,0,8.91-5.51c1.06,2.93,3.46,5.49,8.94,5.49,9.54,0,9.79-8.43,9.79-8.43Z"/><path class="cls-3" d="M192,56.77a3.9,3.9,0,0,1-4.46-4.18,6.3,6.3,0,0,1,5.95-6.27l.24-.87S181,45.28,181,53.64c0,7.57,11,7.31,11,3.13"/><path class="cls-3" d="M253.12,71.12c0,2.56-2.75,9.54-9.85,9.54-3.94,0-10.41-1.24-10.41-15.41,0-14.33,1.73-18,5.14-18.66a7,7,0,0,1,1.12-.14l-.24-1-1.35,0c-11.3,0-17.8,8.78-17.8,19.61s6.22,19.6,17.8,19.6c9,0,14.93-5.54,17-13.25Z"/><path class="cls-3" d="M247.14,52.59a3.9,3.9,0,0,1-4.46,4.18c0,4.18,11,4.44,11-3.13,0-8.36-12.75-8.19-12.75-8.19l.24.86a6.31,6.31,0,0,1,5.95,6.28"/><path class="cls-3" d="M265.68,40.75a6.49,6.49,0,1,0-6.49-6.49,6.49,6.49,0,0,0,6.49,6.49"/><path class="cls-3" d="M272.08,83.4v-38s-3.69,2.68-10.59,2.68h-5.1v1.12h2.8V83.4H257v1.12h17.37V83.4Z"/><path class="cls-3" d="M156.62,45.41a10,10,0,0,0-7.78,3.18V45.44a20.29,20.29,0,0,1-10.62,2.67h-5.06v1.12H136v51h-2.24v1.12h17.36V100.2h-2.24V52.43c.66-2.49,3-5.3,5.47-5.3,3.67,0,7,5,7,18.12,0,18.12-5.55,18.85-9.81,16.72l-.39,1.19a10.73,10.73,0,0,0,5.53,1.45c11.58,0,17.8-8.78,17.8-19.6s-6.5-19.6-17.8-19.6"/><path class="cls-3" d="M298,45.34c-12.43,0-19.26,8.33-19.26,19.67,0,11.11,6,19.61,18.94,19.61S316.92,75.83,316.92,65,310,45.34,298,45.34m-.27,38.13c-5.41,0-5.9-8.29-5.9-18.46s.55-18.42,5.95-18.42c5.18,0,5.94,8.25,5.94,18.42s-.7,18.46-6,18.46"/><path class="cls-4" d="M215.87,137.09c-2.06,7.7-8,13.25-17,13.25-11.58,0-17.8-8.78-17.8-19.6s6.5-19.6,17.8-19.6c12,0,15,5.32,15,10.92s-5.8,9.27-17.69,9.27l-.07-1.32s7.6-1.24,7.6-9c0-7.13-2.67-8-4.31-8-3.36,0-5.22,3.71-5.22,18,0,14.17,6.46,15.42,10.4,15.42,7.1,0,9.85-7,9.85-9.54Z"/><path class="cls-4" d="M265.68,106.56a6.49,6.49,0,1,0-6.49-6.49,6.48,6.48,0,0,0,6.49,6.49"/><path class="cls-4" d="M272.08,149.21v-38s-3.69,2.67-10.59,2.67h-5.1V115h2.8v34.17H257v1.12h17.37v-1.12Z"/><path class="cls-4" d="M94.27,106.56a6.49,6.49,0,1,0-6.49-6.49,6.48,6.48,0,0,0,6.49,6.49"/><path class="cls-4" d="M100.67,149.21v-38s-3.69,2.67-10.58,2.67H85V115h2.8v34.17H85.54v1.12h17.37v-1.12Z"/><path class="cls-4" d="M298,111.05c-12.43,0-19.26,8.33-19.26,19.67,0,11.11,6,19.62,18.94,19.62s19.21-8.8,19.21-19.62S310,111.05,298,111.05m-.27,38.13c-5.41,0-5.9-8.29-5.9-18.46s.55-18.42,5.95-18.42c5.18,0,5.94,8.25,5.94,18.42s-.7,18.46-6,18.46"/><path class="cls-4" d="M178.53,112.39v-1.13h-5.6V100.21h-1.15s-1.1,6.72-9.77,6.72h-2v4.33h-3.92v1.13h3.92v36.83h-2.24v1.12h17.36v-1.12h-2.24V112.39Z"/><path class="cls-4" d="M124.83,111.25s-3.68,2.67-10.58,2.67h-5.1V115H112v34.17h-2.24v1.13h17.37v-1.13h-2.25Z"/><path class="cls-4" d="M147.73,149.25V123.48A12,12,0,0,0,135.5,111.3a12.76,12.76,0,0,0-9.06,4.08V117a5,5,0,0,1,3.71-1.75c3.06,0,4.69,2.5,4.69,5.51v28.53H132.6v1.12H150v-1.12Z"/><path class="cls-4" d="M235.67,111.25s-3.69,2.67-10.59,2.67H220V115h2.8v34.17h-2.24v1.13h17.37v-1.13h-2.24Z"/><path class="cls-4" d="M237.35,116v2.12a2.92,2.92,0,0,1,2.6-1.66,3.36,3.36,0,0,1,3.22,3.52,3.65,3.65,0,0,1-2.57,3.79c0,4.2,11,4.49,11-3.12,0-6.8-9.78-9.47-14.26-4.65"/><path class="cls-4" d="M337.06,111.25s-3.69,2.67-10.59,2.67h-5.1V115h2.8v34.17h-2.24v1.13H339.3v-1.13h-2.24Z"/><path class="cls-4" d="M338.74,116v2.12a2.92,2.92,0,0,1,2.6-1.66,3.36,3.36,0,0,1,3.22,3.52,3.65,3.65,0,0,1-2.57,3.79c0,4.2,11,4.49,11-3.12,0-6.8-9.78-9.47-14.26-4.65"/><g class="cls-5"><g class="cls-6"><path class="cls-7" d="M183.07,138.79c-2.52-5.64-2.1-11.28.06-16.91l.31.29a4.19,4.19,0,0,1,.42,2.06c0,.57,0,1.14,0,1.72,0,.3,0,.6,0,.89.21,2.91-.29,5.81,0,8.72C183.86,136.7,184.14,137.92,183.07,138.79Z"/><path class="cls-8" d="M191,148.67l-1-.12a1.28,1.28,0,0,1-.66-.71c-.22-.74-.92-.88-1.48-1.18a1.49,1.49,0,0,1-.61-.88,1.56,1.56,0,0,1,.23-1.09c.83-.43,2-.56,1.83-1.92a1.79,1.79,0,0,1,.58-1c2.69,0,3.21,1.92,3.49,4-.6.94-.28,2.28-1.31,3.05A1.16,1.16,0,0,1,191,148.67Z"/><path class="cls-9" d="M203.19,130.91l-1.64-.14c-.27-1.66-.36-3.25,1.76-3.81a16.63,16.63,0,0,1,2.74-.27,1.06,1.06,0,0,1,.81.78c.27.82-1.14,1.38-.34,2.28l-1.74,1Z"/><path class="cls-10" d="M183.13,121.88c1-2.73,2.24-5.26,4.92-6.75l.35.1a1.25,1.25,0,0,1,.5.94,1.07,1.07,0,0,1-.43.57,2.94,2.94,0,0,0-1.32,1.1c-.3.6-.76,1.1-1.08,1.69a9.67,9.67,0,0,1-.48.9,11.18,11.18,0,0,0-.68,1.59,1.54,1.54,0,0,1-.66.31,1.37,1.37,0,0,1-1-.36Z"/><path class="cls-11" d="M210.33,144.64a4,4,0,0,0,.13-.46c1.88-.62,1.94-2.79,3.29-3.85a1,1,0,0,1,.42,1c.18,1-.68,1.52-1,2.3-.53,1-.57,2.4-2.18,2.38A1.48,1.48,0,0,1,210.33,144.64Z"/><path class="cls-12" d="M187.63,144.69l0,1.16c-.58.3-.79-.25-1.12-.5-1.2-.84-1.4-2.29-2.11-3.43a1.78,1.78,0,0,1,2-.31,3.57,3.57,0,0,1,1.6,1.92A1.37,1.37,0,0,1,187.63,144.69Z"/><path class="cls-13" d="M183.07,138.79c0-1.18.07-2.36.11-3.54,1.18-1.32,1.48-.19,1.7.68a11.7,11.7,0,0,1,.14,3.78,2.28,2.28,0,0,1-.8,1.79A3,3,0,0,1,183.07,138.79Z"/><path class="cls-14" d="M214.17,141.31l-.42-1c-.4-1.38,1.07-2.13,1.13-3.35,1-.65,1.3,0,1.33.8a3.62,3.62,0,0,1-1.48,3.53Z"/><path class="cls-15" d="M184.22,141.5l.06-1.79c2.55-.59,2.86-.29,2.22,2.24l-2.12,0A.49.49,0,0,1,184.22,141.5Z"/><path class="cls-16" d="M189.86,113.07a2,2,0,0,1,.54.05c.49,1.94-.1,2.8-2.17,2.17l-.18-.16Z"/><path class="cls-17" d="M197,111.45a15.37,15.37,0,0,1,11.29,1.43c-.72,1.67-2.14,1.4-3.51,1.27a4.76,4.76,0,0,0-3.43-.48c-.93.09-1.87.06-2.8.07a6.92,6.92,0,0,0-2,0C195.18,112.72,195.92,112.05,197,111.45Z"/><path class="cls-18" d="M213.28,117.39a8.19,8.19,0,0,1-.12,8.41.93.93,0,0,1-1.1.18c-.06-.06-.18-.14-.17-.2.29-2.62-.94-5.41.83-7.87A1.28,1.28,0,0,1,213.28,117.39Z"/><path class="cls-19" d="M197,111.45c-.34.67-1.2,1.21-.52,2.13a1.07,1.07,0,0,1,.09,1.26l-1.2,2.63a1.18,1.18,0,0,1-1.05.36c-.85-.25-.81-.87-.57-1.5a2.94,2.94,0,0,0-.52-2.77,1.88,1.88,0,0,1-.28-.67c0-.81,1-.52,1.27-1.08A3.47,3.47,0,0,1,197,111.45Z"/><path class="cls-20" d="M212.08,125.81h1.08a8.5,8.5,0,0,1-6.64,4c-1.18-.75,0-1.51,0-2.26,1-.68,2.43-.41,3.31-1.4A3.37,3.37,0,0,1,212.08,125.81Z"/><path class="cls-21" d="M188.23,115.29c1.53.08,2-.94,2.17-2.17l.93-.17a1.9,1.9,0,0,1,1.82.06l0,0c1.09,3.15.48,3.87-3.42,4a1.81,1.81,0,0,1-1-.69Z"/><path class="cls-22" d="M204.27,113.57c1.39,0,2.82.26,4-.69l1,.21a3.75,3.75,0,0,0,1.56,2c.9.5,1.73,1.33,1.12,2.62a2.1,2.1,0,0,1-1.92.13c-2.09-.89-3.47-3-5.88-3.34C203.54,113.79,203.54,113.79,204.27,113.57Z"/><path class="cls-23" d="M212.08,117.47c-.6-.77-.92-2.1-2-2.11-2.69,0-1-1.36-.84-2.27,1.86.94,3.42,2.16,4,4.3l-.16.17A.75.75,0,0,1,212.08,117.47Z"/><path class="cls-16" d="M193.15,113l-1.82-.06a4.56,4.56,0,0,1,2.92-1.14Z"/><path class="cls-24" d="M194.27,117.47h1.13c-.32,5.41-.89,10.8-.59,16.24a12.39,12.39,0,0,0,.64,3.78c0,2.12,1.23,3.79,2.11,5.59-.18.45-.15,1-.77,1.22a.91.91,0,0,1-.64-.34c-1-1-1-2.54-2.21-3.38-.52-1.28-.22-2.75-.88-4,.38-1.8-.29-3.57-.19-5.36a2.19,2.19,0,0,1-.22-.73c.8-2-.82-4.14.14-6.17a3.81,3.81,0,0,0,.79-2.48v-1.59a10.33,10.33,0,0,1,.09-1.67A2.09,2.09,0,0,1,194.27,117.47Z"/><path class="cls-25" d="M202.13,126.39l1-.73a1.25,1.25,0,0,1,.07,1.82c-2,.36-.49,2.5-1.63,3.29l-1,.12c-1.41.34-2.54.37-1.77-1.64C199.91,128.33,201.45,127.87,202.13,126.39Z"/><path class="cls-26" d="M198.75,129.25c-.21,1.41.72,1.59,1.77,1.64a3.18,3.18,0,0,1-1.27.4c-.9-.09-2.34.62-2.55-.74C196.51,129.36,198,129.69,198.75,129.25Z"/><path class="cls-16" d="M198.17,113.07l-.58,1-1,.77-.09-1.26Z"/><path class="cls-27" d="M193.19,124.16c-.3,2.22.6,4.44,0,6.66-2.74,1.1-3.52.73-4.06-1.95a2.67,2.67,0,0,0-.52-1.54c-2.45-.78-3.1-.39-2.56,1.86.42,1.78,0,4.38,3.07,4.41a1.8,1.8,0,0,1,1.05.68c.69,1.53.4,3.14.36,4.72-.11,1-.74,1.89-.67,2.94v1.12c-.64.58-1.25,1.26-2.21.55-.34-.58-1.2-.8-1.12-1.66.25-1.73-.48-2.48-2.22-2.24,0-1.29,0-2.58,0-3.87,0-.94-.55-.75-1.1-.59V126.4c.55-.2.47-.41,0-.63v-1.6c.81-.53.33-1.69,1.09-2.25h.53c.33-.4.1-1.1.71-1.36,1-.8,2.06-1.26,3.24-.29a1.48,1.48,0,0,0,1.16,1.63,1.77,1.77,0,0,1,.34.53c.45.66.5-.22.78-.23a2.38,2.38,0,0,1,1.17-.25,1.76,1.76,0,0,1,1.16.54A1.4,1.4,0,0,1,193.19,124.16Z"/><path class="cls-28" d="M184.28,121.92c-.49.69,1,2.34-1.09,2.25,0-.73,0-1.47,0-2.2Z"/><path class="cls-28" d="M183.19,125.77c.4,0,.93-.46,1.05.29a2.87,2.87,0,0,1-.21,1l-.85-.63C183.19,126.19,183.19,126,183.19,125.77Z"/><path class="cls-29" d="M189.84,141.94c-2.26-.74.12-1.49,0-2.23.95-.79.22-2.16,1-3,.72-.53,1.44-1,2.33-.34,2.16,1,.64,3,1.1,4.43s1.74,2.07,2.21,3.36h0c-.3,1.39-1.3.66-1.93.75.88.39,1.92-.22,2.92,0a1.44,1.44,0,0,1,1.19,1c.13.67-.51.87-1,1.08a17.5,17.5,0,0,1-3.73.68,1.67,1.67,0,0,1-.8-.07c-.33-.55-.79-1.07-.55-1.8C192.56,143.92,191.86,142.45,189.84,141.94Z"/><path class="cls-30" d="M187.62,143.61l2.21-.55c.27,1.88-.51,2.38-2.2,1.63C187.63,144.33,187.62,144,187.62,143.61Z"/><path class="cls-31" d="M192.62,145.83l.56,1.67a.94.94,0,0,1,.1,1.17.66.66,0,0,1-.8,0h-.21l-.2-.08C192.53,147.73,191.85,146.63,192.62,145.83Z"/><path class="cls-32" d="M189.77,147.59a2.16,2.16,0,0,1-1.64-1.18C189,146.4,189.84,146.34,189.77,147.59Z"/><path class="cls-33" d="M209.88,126.39c-.61,1.92-2.09,1.19-3.36,1.1l-.56-.56c-1.18.54-2,.35-2-1.12a1.32,1.32,0,0,1,.42-.67c1.18,1.23,1.48-1,2.46-.62.4.15.64,0,.67-.4a1.2,1.2,0,0,1,1.09-.26C209.53,124.43,210.2,125.15,209.88,126.39Z"/><path class="cls-34" d="M204.3,125.28c-.13,1.24.44,1.77,1.66,1.65-.78.92-1.84.41-2.78.55,0-.6-.05-1.21-.07-1.82a.5.5,0,0,1,.13-.39A.7.7,0,0,1,204.3,125.28Z"/><path class="cls-31" d="M193.73,147.5c1.25-1.28,3.2-.32,4.51-1.43-1-1.24-2.56-.57-4-.94.68-.75,1.88-.06,2.31-1l1-1.08,1.26,1.06c2,2.08,4.61,2,7.13,2.23.12,1.55-1.07,1.82-2.13,1.91-2.61.22-5.24.29-7.86.45A2,2,0,0,1,193.73,147.5Z"/><path class="cls-35" d="M193.73,147.5A3.6,3.6,0,0,0,195,148c3.07-.12,6.14-.31,9.21-.47a1.79,1.79,0,0,0,1.73-1.14l1.68-.51c.57.45,1,1,.65,1.76l-.7.9-1,.12c-2.08.35-4.1.92-6.16,1.35a13.14,13.14,0,0,0-3.52-.68c-1.23-.29-2.58,0-3.71-.75V147.5Z"/><path class="cls-36" d="M208.28,147.62c-.22-.59-.44-1.17-.65-1.76l2.7-1.22a1.3,1.3,0,0,1,.67,1.2c-.05.15-.09.3-.13.45Z"/><path class="cls-37" d="M199.84,149.69c2.25-.29,4.34-1.64,6.74-1.05l-2.29,1.08c-4,.87-8,.9-11.81-1.06l.71-.1,4.43.05C198,149.72,199.26,149,199.84,149.69Z"/><path class="cls-38" d="M188.73,116.36h1.11a3.21,3.21,0,0,1,.62,2.24,1.94,1.94,0,0,1-.61,1.27c-1.55.16-3.13.52-4.44-.74.32-.59,1.19-.8,1.11-1.65.63-.59,1.58-.53,2.21-1.12Z"/><path class="cls-39" d="M185.41,119.14a11.25,11.25,0,0,0,4.42.56,1,1,0,0,1,.09,1.19,1,1,0,0,1-1.19-.08c-1.11-1.27-2.22,0-3.33,0-.15-.12-.19-.24-.15-.36s.09-.19.14-.19Z"/><path class="cls-21" d="M188.73,116.37c-.41,1-1.27,1.15-2.21,1.12C186.92,116.45,187.77,116.31,188.73,116.37Z"/><path class="cls-40" d="M185.39,120.26c0,.18,0,.37,0,.55a1.11,1.11,0,0,1-.59,1.1C184.53,121.2,184,120.38,185.39,120.26Z"/><path class="cls-41" d="M204.23,118.63c-.8-1.92-1-4.14-2.77-5.58,1-.17,2.06-.66,2.81.52-.37.19-.39.39,0,.59C204.55,115.65,205.9,117.15,204.23,118.63Z"/><path class="cls-42" d="M209.88,126.39l-1.14-2.24a7.68,7.68,0,0,1,.17-2.29c.16-.8-.47-1.51-.27-2.32.42-.67.56-1.52,1.22-2.07h2.22l1,.09c-.91,2.68-.42,5.54-1,8.25C211.5,126.61,210.64,126.3,209.88,126.39Z"/><path class="cls-43" d="M189.85,118.6c0-.74,0-1.49,0-2.23,2.66.45,3.75-.69,3.35-3.32,2.33,1,1.34,2.8,1.08,4.42v1.12a3.33,3.33,0,0,1-.81.63c-.86.31-.78,1.39-1.49,1.83a1.25,1.25,0,0,1-1.07-.08C190.16,120.35,190.65,119.19,189.85,118.6Z"/><path class="cls-44" d="M209.86,117.47c-.12.87.37,2-1.12,2.23-.83.76-2.09,1.24-1.76,2.74-.11,1.57-1.14,1.94-2.48,1.91-1.09-.85.12-1.6.11-2.4,0-1.12.51-2.31-.37-3.33h0c.85-1.48-.73-3,0-4.47C206.87,114,208.42,115.66,209.86,117.47Z"/><path class="cls-41" d="M204.24,118.62c1.79,1.33.83,3,.47,4.51a9.1,9.1,0,0,1-.37,1,.83.83,0,0,1,0,1.16h-1.07A24.56,24.56,0,0,0,204.24,118.62Z"/><path class="cls-27" d="M193.2,136.37l-2.24.56c-1.28-1.15.28-3.35-1.59-4.27a5.71,5.71,0,0,1-1.16-.33c-1.25-1.3-.06-1.32.8-1.52,1.34.54,2.83,0,4.17.56C193,133,194.43,134.69,193.2,136.37Z"/><path class="cls-45" d="M193.18,131.37h-4.46a4.16,4.16,0,0,1,0-5,1.17,1.17,0,0,1,1.09,1.54c-.53,2.92,1.22,3.11,3.35,2.91C193.18,131,193.18,131.18,193.18,131.37Z"/><path class="cls-46" d="M192,120.81c.15-.85-.36-2,1.13-2.22.56.43.55,1.24,1.1,1.68l0,1.62a1.16,1.16,0,0,1-1.08.58h-1.1A1.2,1.2,0,0,1,192,120.81Z"/><path class="cls-31" d="M196.51,144.16c-1.06-.91-2.62-1.48-2.21-3.36l.84-.64C194.74,141.79,196.87,142.55,196.51,144.16Z"/><path class="cls-40" d="M193.17,122.47a1.19,1.19,0,0,1,1.08-.58c-.06.9.42,2-1.06,2.27C193.18,123.6,193.17,123,193.17,122.47Z"/><path class="cls-40" d="M194.27,120.27c-1.11-.07-1.1-.88-1.1-1.68h1.1Z"/><path class="cls-47" d="M188.73,126.37c0,1.67,0,3.34,0,5l-.72.28.72.28a1.6,1.6,0,0,1,0,2.22c-1.35.22-2.95-.41-2.9-1.46.11-2.18-1.76-4.35-.2-6.42C186.51,125.11,187.68,126.4,188.73,126.37Z"/><path class="cls-48" d="M189.84,131.93c1.72,1.37.88,3.31,1.12,5-.26,1,.67,2.43-1.12,2.78v-5.56A1.6,1.6,0,0,1,189.84,131.93Z"/><path class="cls-40" d="M188.73,120.81h1.1a.78.78,0,0,1,.23.88l-.23.24c-.68-.12-1.64.84-2-.42C187.67,121,188.28,120.87,188.73,120.81Z"/><path class="cls-49" d="M191,122.48c-.13.65.33,1.47-.55,1.93-.89-.46-.43-1.28-.56-1.93A.78.78,0,0,1,191,122.48Z"/><path class="cls-45" d="M189.84,131.93v2.22h-1.11c0-.74,0-1.48,0-2.22Z"/><path class="cls-40" d="M191,122.48h-1.11c0-.18,0-.37,0-.55h0c.43-.32.57-.92,1.11-1.11H192l0,1.66Z"/><path class="cls-34" d="M204.31,125.28l0-1.16c.91-.54,2.47-.45,2.18-2.19a.58.58,0,0,1,.7,0,2.69,2.69,0,0,1,.4,2.22C207.12,126.27,205.77,126,204.31,125.28Z"/><path class="cls-50" d="M207.62,124.14c-.81-.58-.47-1.45-.55-2.21a1.54,1.54,0,0,1,2.23,0c.4.89.44,1.69-.56,2.23Z"/><path class="cls-29" d="M199.84,149.69c-.88-.07-2,.39-2.22-1.08C198.18,149.34,199.76,148,199.84,149.69Z"/><path class="cls-51" d="M191,120.81a1,1,0,0,1-1.11,1.11c0-.37,0-.74,0-1.11V119.7c0-.37,0-.73,0-1.1C191.35,118.77,190.83,120,191,120.81Z"/><path class="cls-52" d="M209.3,121.92h-2.23c-.18,0-.37,0-.55,0-.49-2,.61-2.36,2.22-2.23C209.39,120.32,210.07,120.94,209.3,121.92Z"/></g><g class="cls-53"><path class="cls-54" d="M268.19,106.34c-1.93-.1-4,.69-5.69-1,.1-.42.56-.22.77-.45-.38.09-.79,0-1.14.24-2.36-1.68-3.36-3.83-2.32-6.69a4.37,4.37,0,0,1,1.27.94c2.93.58,5.89-.24,8.82.15.94,1.36.1,1.85-1.08,2.19a20,20,0,0,1,2.13-.42,2.05,2.05,0,0,1,1.17.44,1.7,1.7,0,0,1-.69,2.27l.05,0A7.78,7.78,0,0,1,268.19,106.34Z"/><path class="cls-55" d="M260.44,99.69c-.49-.26-.54-.76-.63-1.23-.21-1.29,1.06-2,1.22-3.15,4.37-3.76,8.77-2.77,11.35,2.54.08,1.37.87,2.81-.39,4.06l-1,0c-1.09-.88.13-2.76-1.47-3.42-2.73.57-5.58,0-8.25,1C261,99.66,260.83,100,260.44,99.69Z"/><path class="cls-56" d="M262.13,105.15c.7-.67,1.44-.53,2.64-.09l-2.27.3A.31.31,0,0,1,262.13,105.15Z"/><path class="cls-57" d="M260.44,99.69l.56-.56c2.91-.44,5.82-.88,8.76-.24a.54.54,0,0,1,.11.82c-2.83,1.09-5.86.15-8.75.75C261,100.5,260.67,100,260.44,99.69Z"/><path class="cls-58" d="M269.87,99.71l0-.58a.75.75,0,0,1,0-1.11c.09-.57.45-1.28.74-.29a19.7,19.7,0,0,1,.35,4.16h-3.21C269,101.22,270.27,101.07,269.87,99.71Z"/><path class="cls-59" d="M269.89,98v1.11H261c-.28-.22-.64-.69-.08-.72C263.91,98.21,266.9,98.14,269.89,98Z"/></g><g class="cls-60"><path class="cls-61" d="M274.28,150.22l-15.49-.08a1,1,0,0,1,0-1.41c.5-2.55.2-5.13.21-7.69,0-7.72,0-15.45,0-23.17a5.38,5.38,0,0,0-.33-3c-.21-1,.47-1,1.12-1,1.35,0,2.71,0,4.06,0,.86.29,1.85.11,2.65.67-.07,1.7-1.46,1.24-2.4,1.42s-2.33,0-2.37,1.64c0,1,0,2,0,3,0,.44,0,.87,0,1.31a11.78,11.78,0,0,1-.29,3.4c-.4.37-.54.76-.09,1.2a3.85,3.85,0,0,1,.09,2.35,3,3,0,0,0,.15,1.86,20.74,20.74,0,0,1,0,5,4.52,4.52,0,0,0-.13,1.9,3.27,3.27,0,0,1-.12,1.86c-.87.49.07.87.08,1.3a2.36,2.36,0,0,1,0,1.12c0,.44-1,.77-.12,1.29a4.68,4.68,0,0,1,.31,1.85c0,.25,0,.5,0,.75l.06.73c0,.24.08.48.14.71,2.36,1.3,4.91.37,7.36.63,1,0,1.09-.81,1.3-1.51a1.62,1.62,0,0,1,.4-.61c.62-.22.87.28,1.21.62.43.8-.36,1.87.55,2.57C273.46,149.06,274.89,148.39,274.28,150.22Z"/><path class="cls-62" d="M272.14,146.36l-1.14-.53a2.08,2.08,0,0,1-.67-1.29c-.14-1.45-.06-2.91-.1-4.36,0-3.37,0-6.74,0-10.11,0-1,.27-2-.77-2.73-1.5-.63-3.44.47-4.66-1.2.11-.74.73-.8,1.28-1,1.3,0,1.39-.07,3.21-1.79a6.1,6.1,0,0,0,.6-.38c.47-3.12,1.09-6.23-.35-9.26a2,2,0,0,1-.81-.8c.65-.34,1.3-.68,1.95-1,1.27-.7,1.62-.15,1.61,1.1Q272.19,129.69,272.14,146.36Z"/><path class="cls-63" d="M268.72,113l1.22.13a4.88,4.88,0,0,1,0,4.59c-3,.93-6,1.19-8.91-.21-.21-1.63.41-2.33,2.15-2.26,1.13.05,2.4.49,3.41-.51-.19-.62-.78-.12-1.09-.4a.55.55,0,0,1-.14-.63Z"/><path class="cls-64" d="M258.8,114.68h-2.23c.06-1.34,1.1-1,1.84-1,2.31,0,4.61,0,6.92,0a1,1,0,0,1,.07.46.69.69,0,0,1-1,0C262.52,114.45,260.56,113.53,258.8,114.68Z"/><path class="cls-65" d="M257.1,149.1l1.66.22,0,.82C256.91,150.27,256.77,150.18,257.1,149.1Z"/><path class="cls-66" d="M261,117.47h8.89a3,3,0,0,1,0,3.54c-3,.83-6,1.1-8.92-.2Z"/><path class="cls-67" d="M261,136.37v-6.11c3.42-1.65,4.07-1.48,5.39,1.41.11,1.05,1,1.39,1.71,2s1.32,1.18.73,2.06-1.29.2-1.93-.05a2.94,2.94,0,0,0-1.06-.16C264.14,135.31,262.86,137.44,261,136.37Z"/><path class="cls-68" d="M266,131.94c-.76-3.29-3.26-1.36-5-1.68-.05-.37-.62-.74,0-1.12a12.27,12.27,0,0,1,9.09-1.66c.66,2,.32,4.09.24,6.14-.34.81-.94.78-1.49.32C268,133.18,266.79,132.83,266,131.94Z"/><path class="cls-67" d="M266.55,125.81H264.9a3,3,0,0,1-3.9,0v-3.89c1.3-.91,2.74-.49,4.13-.44,1.34,1.16,3.21.48,4.64,1.32a.56.56,0,0,1,.12.79h0a11.49,11.49,0,0,1-6.21.75c.86.16,1.78,0,2.65.12C267.59,124.66,267.34,125.21,266.55,125.81Z"/><path class="cls-69" d="M261,145.27v-2.22c2.88-1.33,5.8-1,8.74-.28a1.15,1.15,0,0,1,.29,1.42C267.17,145.82,264.25,147,261,145.27Z"/><path class="cls-70" d="M261,139.71v-2.22c2.88-1.67,5.84-.38,8.77-.25a.93.93,0,0,1,.31.73,4.26,4.26,0,0,1-4,2.25A17.49,17.49,0,0,1,261,139.71Z"/><path class="cls-71" d="M269.89,137.49c-3,.53-5.93-.34-8.89,0-.57-.37-.57-.74,0-1.12,1.86,0,3-2,5-1.66.85,1.51,2.48,1.55,3.86,2.06A.63.63,0,0,1,269.89,137.49Z"/><path class="cls-67" d="M269.89,127.48,261,129.14v-2.76c2.9-.5,5.74.69,8.63.32A.51.51,0,0,1,269.89,127.48Z"/><path class="cls-71" d="M261,139.71c1-.1,1.95-.56,3.15-.21,2.06.62,4-.22,5.74-1.45.68.65.53,1.46.45,2.27a1.63,1.63,0,0,1-.54.78c-3,1-5.88.35-8.8-.28C261,140.45,260.38,140.08,261,139.71Z"/><path class="cls-72" d="M269.89,148.6c-2.36,0-4.72,0-7.07,0-1.23,0-1.93-.35-1.82-1.69,2.77-1.33,5.63-.79,8.48-.44a1,1,0,0,1,.57.68c-1,1.22-2.29.34-3.31.52-.49,0,0,.61-.19.27a8.51,8.51,0,0,1,3.22-.1A.5.5,0,0,1,269.89,148.6Z"/><path class="cls-70" d="M261,140.82c3-.7,5.92.41,8.89,0a.93.93,0,0,1-.19,1.38c-2.91.32-5.83.78-8.7-.26Z"/><path class="cls-73" d="M261,141.94h8.89a.82.82,0,0,1,0,1.11H261C260.38,142.68,261,142.31,261,141.94Z"/><path class="cls-74" d="M265.45,121.93H261v-1.11h8.89a1,1,0,0,1-.11,1.35A5.09,5.09,0,0,1,265.45,121.93Z"/><path class="cls-75" d="M261,145.27c3.07.53,5.93-.66,8.89-1.1a1.29,1.29,0,0,1,1.11.54v1.12h0a2.11,2.11,0,0,1-1.42.52c-2.85-.22-5.78.6-8.58-.54Z"/><path class="cls-68" d="M269.89,126.92a40.72,40.72,0,0,1-8.89-.54c-.38-.19-.39-.38,0-.57h3.9c1.56,1.11,3.33.3,5,.55.14.12.19.25.14.37S269.94,126.92,269.89,126.92Z"/><path class="cls-76" d="M261,145.82l8.88,0a.5.5,0,0,1-.32.77c-2.86-.07-5.72.31-8.56-.22Z"/><path class="cls-77" d="M261,146.4h8.89a.42.42,0,0,1,0,.54H261Z"/><path class="cls-78" d="M269.89,146.93v-.54c0-.18,0-.36,0-.54H271c-.25,1,.69,2.41-1.11,2.76v-.54c-.2-.13-.27-.26-.2-.38s.13-.19.2-.19Z"/><path class="cls-79" d="M264.36,114.16l1,0c.44,0,.89,0,1.33,0,.24,0,.54,0,.32.39-.07.11-.32.1-.49.15C265.8,114.6,264.94,115,264.36,114.16Z"/><path class="cls-80" d="M269.89,126.92v-.55c1.55.24,1.09,1.47,1.1,2.38,0,3.84,0,7.68,0,11.52a.73.73,0,0,1-1.09,0c0-.75,0-1.49,0-2.23v-1.11c-.08-.93-.76-1.85,0-2.78,0-2.23,0-4.45,0-6.68Z"/><path class="cls-81" d="M269.89,121.93v-4.46c0-1.46,0-2.92.05-4.38a1,1,0,0,1,1,1c0,3,0,5.93,0,8.89,0,.94-.55.75-1.11.58V123A.75.75,0,0,1,269.89,121.93Z"/><path class="cls-82" d="M266.55,125.81c.18-.55.39-1.12-.55-1.11a6.87,6.87,0,0,1-2.71-.35l6.6-.76c-2.06.73.18,1.33.15,2.22Z"/><path class="cls-83" d="M269.9,140.28H271c0,1.48,0,3,0,4.44a1.12,1.12,0,0,1-1.11-.54v-3.89Z"/><path class="cls-84" d="M269.88,134.16c-.12.93,1.21,1.85,0,2.78-1.62-.18-3.76.56-3.89-2.23,1-.31,1.53.73,2.6.85a2.07,2.07,0,0,0-1.94-1.94c-1.39-.15-1-.89-.65-1.68C267.8,131.8,268.75,133.14,269.88,134.16Z"/><path class="cls-82" d="M269.89,121.93V123c-1.46-.48-3.43,1.11-4.44-1.11Z"/><path class="cls-85" d="M269.89,147.49v.57H266.1l0-.57Z"/></g><g class="cls-86"><path class="cls-87" d="M100.85,96.44l.11,1a1.07,1.07,0,0,1,0,1.25c-1.29.81-2.25-.17-3.32-.59-.51-.22-1-.38-1.54-.63s-1-.54-.94-1.21c.07-.89.95-.55,1.41-.9.33-.08-.32-.37-.06-.1a4.15,4.15,0,0,1-4.59-.45A.94.94,0,0,1,92,93.6h0Q97.08,91.21,100.85,96.44Z"/><path class="cls-88" d="M98.12,97.46c.87.5,1.6,1.34,2.76,1.11,1.18,1.27.58,2.58.08,3.89l-.12,1.07c-.82,1.07-1.68,2.06-3.23,1.84a1.63,1.63,0,0,1-.45-.62c-.2-1.87.93-3.39,1.3-5.11C97.86,99,96.73,98.41,98.12,97.46Z"/><path class="cls-89" d="M89.75,104.2l-1-.75a6.53,6.53,0,0,1,0-6h0c.44-.7.29-1.71,1.15-2.2h0a1.27,1.27,0,0,1,1.5-.31c.82.72.39,1.48.09,2.24a3.91,3.91,0,0,1-.4.65c-1.07,1.58-.46,3,.31,4.49a2.57,2.57,0,0,1,0,1.2,1.64,1.64,0,0,1-.42.72A1.1,1.1,0,0,1,89.75,104.2Z"/><path class="cls-90" d="M91.39,95.07l.52-.44c1.64.09,3.17,1,4.89.5,0,1-1,.49-1.21,1.24.55.87,1.82.45,2.53,1.09-.76,1.87.66,1.56,1.66,1.67-1.21,1.16-1.35,1.21-3.87,1.31-.22-.3-.16.52,0,.17s.18-.21.25,0c.47,1.34,1.54,2.84-.91,3.4a2.47,2.47,0,0,1-.75-.21c-1-.85-2.58-.37-3.58-1.33-1.31-1.66-2.12-3.33,0-5,.15.33,0-.11.19.19a3.51,3.51,0,0,1,.39,1.54c0-.63,0-1.28-.58-1.74Z"/><path class="cls-91" d="M94.78,103.58c.51-.17,1.34.36,1.41-.74.09-1.53-.77-2.24-2.2-2.68,2-.42,4,0,5.79-1-.61,1.35-1.24,2.68-1.82,4a12.61,12.61,0,0,0-.42,1.52c-1,.71-1.85.19-2.7-.34A.62.62,0,0,1,94.78,103.58Z"/><path class="cls-92" d="M94.78,104.13l2.76.56,0,.57,0,0a5.72,5.72,0,0,1-3.18.51c-.76-.07-1.63-.31-1.36-1.26S94.06,103.69,94.78,104.13Z"/><path class="cls-90" d="M94.78,104.13c-.5.07-1.26-.16-1.33.56s.62.53,1.06.54c1,0,2,0,3,0-1.18,1.51-2.84,1-4.37,1-.79-.66-1.82-1.06-2.29-2.08l0-.63a3.61,3.61,0,0,1,3.87,0h0Z"/><path class="cls-93" d="M94.76,103.57H90.89v-1.1C92.23,102.67,93.86,101.84,94.76,103.57Z"/><path class="cls-94" d="M90.89,97.46c1.82.43.9,1.87,1.06,2.9a.6.6,0,0,1-.59.75c-.51,0-.74-.38-.68-.94.1-.9.14-1.8.21-2.7Z"/></g><g class="cls-95"><path class="cls-96" d="M97,112.93c4-.57,4-.57,3.93,3.74,0,.83,0,1.65-.06,2.47a2.34,2.34,0,0,1-2.32.49,2.27,2.27,0,0,1-.71-.36,1.55,1.55,0,0,1-.53-1.69c.19-1.52-1.07-1.64-2-2.06-.36-.29-.81-.75-.55-1.09.88-1.16-.91-.11-.57-.73a.42.42,0,0,1,.11-.63l2.14-.11A.35.35,0,0,1,97,112.93Z"/><path class="cls-97" d="M90.35,150.23a10.23,10.23,0,0,1-3.76-.26c.43-1.13,1.48-.85,2-1.37l.93-.81c1.06-1.48.4-3.17.55-4.76a10.55,10.55,0,0,1,.32-3c1.46-1.3,3.63-1.79,4.37-3.89,1.19-.49,2.54-.85,2.91.8.31,1.35.14,2.89-2,2.76-.36,0,.09,0-.28,0-.17,0-.1,0,.22,0,3.13.13,3.08.12,2.5,3a13.73,13.73,0,0,0-.6,3.56,3.09,3.09,0,0,1-3.25,3C92.94,149.28,91.68,149.94,90.35,150.23Z"/><path class="cls-98" d="M90.35,150.23c1.29-.8,2.47-2.07,4.18-1.6,2.19.6.54-1.72,1.38-1.79,1.8-.14,1.63-.57.45-1.53a.78.78,0,0,1,.19-1.37c1.19-.47,1.21-.68.35-1.75s1.38-.35,1.33-1.35c-.85-.93-1.94-.44-2.9-.57-.11-1.13.77-.74,1.3-.82s1.1,0,1.19-.79c.28-2.33,1.57-2,3.07-1.17,0,2.76.08,5.51,0,8.27,0,1.67-.12,3.3,2.24,3.82l-.35.65Z"/><path class="cls-99" d="M94.78,136.38c0,2.63-1.58,3.43-3.91,3.34-.88,1.53-.56,3.2-.6,4.84,0,1.36.44,2.78-.48,4H88.64l0-13.34c1.54-1.16,3.28-.74,5-.58C94.56,134.77,95.13,135.32,94.78,136.38Z"/><path class="cls-100" d="M94.78,136.38c-.41-1.43-1.58-1.1-2.59-1.11-1.17,0-2.35,0-3.52,0,0-.37,0-.73,0-1.1,1.37-.85,2.82,0,4.22-.22a4.12,4.12,0,0,0,3-.8c-1-.24-2.61.19-2.38-1.47.22-1.5,1.59-1.56,2.88-1.17.33.15.62.4,1,.56,3.07,1.42,3.12,1.58,1,4.09a1.8,1.8,0,0,1,2.48.11v2.23c-1,.3-2.61-.9-2.57,1.6,0,1.32-2.25,0-3,1.18-1.2-.31-.75-1.05,0-1,1.9.24,1.82-1.47,1.79-2.13C97,135.7,95.59,136.65,94.78,136.38Z"/><path class="cls-101" d="M96.45,130.82a12.64,12.64,0,0,0-1.38.05c-.58.07-1.17.33-1.11,1s.8.6,1.32.62c.73,0,1.47,0,2.37,0-1.31,1.46-2.61,2.5-4.54,2.23-.45-2.34-2.88-1-4-2.15-.18-1.13.82-1.14,1.43-1.53s1.94,0,.74-1.38c-.32-.36.44-.85,1-1a42.09,42.09,0,0,0,4.62-.81c.9,1.73,2.84.37,4,1.35v1.12A3.29,3.29,0,0,1,96.45,130.82Z"/><path class="cls-102" d="M88.69,130.8V122c.43-.44.85-.89,1.55-.74a2,2,0,0,1,1.24,1.39,21.7,21.7,0,0,1-.27,7.14C90.81,131.52,90,131.56,88.69,130.8Z"/><path class="cls-103" d="M100.89,129.15c-.53,0-1.24-.13-1.57.15-2,1.72-2.42.75-2.32-1.26-.66.46-1.46.2-2.16.4a1.49,1.49,0,0,1-1.32-1.07c.41-1.31,1.66-1,2.58-1.34,1.48-1,2.93-2.21,4.79-.77Z"/><path class="cls-101" d="M100.89,125.26a4.36,4.36,0,0,0-4.45,1.66c-.87-.73-2.89-1.09-.81-2.76.7-.56-.18-1.1-.34-1.65a.88.88,0,0,1,.15-.72,5.32,5.32,0,0,1,2.56-.68,8.31,8.31,0,0,1,2.89.26Z"/><path class="cls-104" d="M88.6,113.61l5.59,0c1.81-.41,1.3.75,1.14,1.68-.85.91-2,.63-3,.67-1.23,0-2.32.25-2.81,1.58a2,2,0,0,1-.56.53l-.39.08c-.67-.88-.26-1.94-.46-2.89C86.59,114.15,88,114,88.6,113.61Z"/><path class="cls-105" d="M96.45,130.82a12,12,0,0,0,4.45-.55c0,1.66,0,3.33,0,5h-3c1.22-1.72,2.2-3.33-.93-3.54C96.75,131.71,96.61,131.14,96.45,130.82Z"/><path class="cls-106" d="M88.69,130.8c1.62.23,2.31-.38,2.22-2.09-.11-2.26,0-4.52,0-6.79a1.06,1.06,0,0,1,.83-.71l.38.09a2.14,2.14,0,0,1,.39.67,3.8,3.8,0,0,1,.13.75c0,.75,0,1.49,0,2.24,0,.24,0,.49,0,.73s0,.72,0,1.09,0,.48,0,.72a3.92,3.92,0,0,1-.17,1.07,2.24,2.24,0,0,1-.43.58l-.39.35c1.83,1.43.57,1.66-.73,1.88a2.2,2.2,0,0,1-2.22,0Z"/><path class="cls-107" d="M89.22,132.47a23.37,23.37,0,0,1,3.57.22c1.59.33,1.28,1.17.32,2a11.83,11.83,0,0,1-4.46-.55c0-.56,0-1.12,0-1.69C88.83,132.21,89,132.22,89.22,132.47Z"/><path class="cls-96" d="M100.89,121.37a2.3,2.3,0,0,1-2.78,0l-.34-.15a1,1,0,0,1-.33-1,1.52,1.52,0,0,1,.57-.47c1-.24,1.92-.63,2.89,0Z"/><path class="cls-104" d="M89.79,121.37a1.19,1.19,0,0,1-1.1.58c0-1.29-.74-2.54-.15-3.84l.19-.12C90.8,118.58,90.68,119.85,89.79,121.37Z"/><path class="cls-101" d="M100.9,119.7c-1.18-.2-2.23.37-3.34.56-.25-.59,0-.91.55-1.12h2.78Z"/><path class="cls-100" d="M89.22,132.47h-.58c0-.36,0-.73,0-1.09h2.22Z"/><path class="cls-108" d="M98.11,119.14l-.55,1.12c-1.76.83-3.43,2.15-5.56,1.11h0c-1.33-1.69-.13-2.75,1.09-3.82-1.36-.71-2.64,1.18-3.86-.08-.64-1.73.56-2.08,1.78-2.18,1.44-.12,2.89,0,4.33,0,1.84-.62,2,1.74,3.39,1.91-.28.51-.77.23-1.16.32-.25.78-1.12.66-1.72,1.1-.25,0,.4.21.19-.09C96.94,118,97.44,118.84,98.11,119.14Z"/><path class="cls-101" d="M98.11,119.14l-2.54-.73,2-.93Z"/><path class="cls-109" d="M89.79,148.6c.2-2.44-.56-4.87,0-7.32.16-.76.13-1.48,1.12-1.56,0,2.26,0,4.52,0,6.78C90.86,147.36,91.14,148.42,89.79,148.6Z"/><path class="cls-108" d="M92,129.15v-.55c.77-.95,1.88-.24,2.77-.56H97C95.52,129.27,93.75,129.17,92,129.15Z"/><path class="cls-110" d="M89.22,117.46c1.34.34,2.11-1.06,3.34-1.09.79,0,1.51.06,1.79.94s-.35,1.17-1,1.25c-2,.24-1.11,1.76-1.33,2.8l-1.11.56-1.09-.55c-.12-1.2.35-2.58-1.06-3.37Z"/><path class="cls-108" d="M92,127.48v-.55a.63.63,0,0,0,0-1.11v-.56a14.08,14.08,0,0,0,3-2.69l.36-.09a1.92,1.92,0,0,1,1.81,1.73c0,.87-1.39.16-2,1.41-.09.48,1.63.26,1.27,1.3-.93.15-2-.37-2.77.56A1.17,1.17,0,0,1,92,127.48Z"/><path class="cls-111" d="M92,127.48h1.67l1.1.56c-.77.93-1.84.42-2.77.56Z"/><path class="cls-108" d="M92,122.48v-.56a5.06,5.06,0,0,1,3-.3l.33.3v.56h0A2.6,2.6,0,0,1,92,122.48Z"/><path class="cls-108" d="M98.11,121.37c-.78.93-1.84.42-2.78.55h0c.6-1.84,1.74-.93,2.78-.55Z"/><path class="cls-111" d="M92,122.48h3.33c-.79,1.31-1.15,3.13-3.33,2.78Z"/><path class="cls-101" d="M98.11,121.37c-.93.13-2-.37-2.78.55H92v-.55c1.93,0,3.57-1.39,5.56-1.11Z"/><path class="cls-111" d="M92,125.82c.42.12,1.19-.31,1.2.44,0,.6-.7.61-1.2.67Z"/></g><g class="cls-112"><path class="cls-113" d="M286.59,147.48l-.56-.61c-.7-1.06.25-1.44.8-2a2.78,2.78,0,0,1,1.47-.65c1.94,0,2.8-.94,2.56-2.86-.15-1.29.45-1.63,1.61-1.33,1.49,2.14,1.71,4.67,2.19,7.13-.69.9-2.18.54-2.72,1.69-1.33.06-1.45-.82-1.43-1.81.09-1.6-1.11-.63-1.6-.65-.7,0-1,.94-1.64,1.23A.61.61,0,0,1,286.59,147.48Z"/><path class="cls-114" d="M305.63,148.69a16.8,16.8,0,0,1-11.44,1.12c.48-.92,1.44-1.16,2.27-1.56,1.44-.38,3.05-.3,4.19-1.53a1.53,1.53,0,0,1,1.4-.37c.58.38.29,1.42,1.2,1.54a8,8,0,0,1,1.82.29A1.25,1.25,0,0,1,305.63,148.69Z"/><path class="cls-115" d="M287.68,113.68l.56-.71a1.69,1.69,0,0,1,1.12-.27c.95,1.54,1.34,3.45,3,4.5.06.92-.55,1.24-1.29,1.44-1.84.25-3.58.14-4.83-1.51-.36-.58-1-1-.8-1.87h0C286.34,114.91,287.28,114.67,287.68,113.68Z"/><path class="cls-116" d="M295.54,110.84c1.63.54,3.25-.1,4.88,0,1.06.68,2.55-.29,3.47.92a1.37,1.37,0,0,1-.48,1.53,3.22,3.22,0,0,1-2,.7c-1.65-.27-3.24-.84-4.9-1a9.82,9.82,0,0,0-3.24-.26c-.64,0-1.31,0-1.35-.91C292.82,110.28,294.46,111.66,295.54,110.84Z"/><path class="cls-117" d="M309.88,146.91c-1.19.36-1.94,1.59-3.3,1.6-.15-1.75-1.52-1.39-2.62-1.51a3.28,3.28,0,0,1-.76-.14,1.69,1.69,0,0,1-.64-.45c0-1.07.82-1.21,1.57-1.44,1.21-.28,2.46.28,3.68-.16,1.12-.12,2-1.09,3.15-1a1,1,0,0,1,.81.75C311.7,145.78,310.78,146.34,309.88,146.91Z"/><path class="cls-118" d="M296.56,148.74a4.63,4.63,0,0,1-2.37,1.07c-2.07.22-3.83-1-5.8-1.28-.56-.22-1.09-.46-.69-1.22a2.36,2.36,0,0,1,3.32-.91c.11.87-.39,2,1.12,2.19.75-.78,1.82-.45,2.69-.8A1.91,1.91,0,0,1,296.56,148.74Z"/><path class="cls-119" d="M278.92,130.22c.08-4,.71-7.83,3.18-11.14a1.46,1.46,0,0,1,.46.61,3.46,3.46,0,0,1,0,1.94,2.85,2.85,0,0,1-.33.68c-.91,1.24-.29,2.94-1.24,4.17a8.91,8.91,0,0,0-.69,1.7C279.88,128.89,280.16,130.07,278.92,130.22Z"/><path class="cls-120" d="M303.82,146.4a17,17,0,0,1,2.37.13c1.63.31,1.07,1.15.39,2l-.95.18-.7-.12C305.31,147.46,302.67,147.9,303.82,146.4Z"/><path class="cls-121" d="M306.73,113l1,.45a1.19,1.19,0,0,1,1.22.78c-1.74,1.35-3.09,1.48-4.34.43a2.11,2.11,0,0,1,.87-1.78A1.8,1.8,0,0,1,306.73,113Z"/><path class="cls-119" d="M279.82,136.51l-1-3,.09-2.59c1.2.17.91,1.31,1.31,2,.11.34.19.68.28,1a6.1,6.1,0,0,0,.79,1.52,1.61,1.61,0,0,1-.08,1.39C280.59,137.59,280.35,136.34,279.82,136.51Z"/><path class="cls-122" d="M279.9,133c-.89-.47-.25-1.61-.95-2.17l0-.65c.73-.54.09-1.7,1-2.18.64.47.6,1.27.95,1.88C281.64,131.31,281.5,132.39,279.9,133Z"/><path class="cls-123" d="M282.15,119.73c0-.22,0-.44,0-.65a4.93,4.93,0,0,1,2.21-2.76l.3.26a2.24,2.24,0,0,1,.08,1.91,2.32,2.32,0,0,1-.74.9C283.39,119.71,282.83,120.06,282.15,119.73Z"/><path class="cls-124" d="M284.91,146.39l-.51-1.15a1.89,1.89,0,0,1,2.71,0c-.3.56-1.17.74-1.08,1.58A1,1,0,0,1,284.91,146.39Z"/><path class="cls-125" d="M303.81,111.89l1.63.09,1.29,1-1.26.1a1.57,1.57,0,0,1-2.21,0C303.44,112.64,303.62,112.27,303.81,111.89Z"/><path class="cls-123" d="M287.68,113.68c.15,1.76-1.08,1.6-2.21,1.58A4.86,4.86,0,0,1,287.68,113.68Z"/><path class="cls-123" d="M285.47,115.26l1.1,1.1c-.68.68-1.37,1.21-2.14.11l-.12-.15A1.8,1.8,0,0,1,285.47,115.26Z"/><path class="cls-126" d="M312.7,144.16l-1.11.57-.56-.57a.59.59,0,0,1,0-.66,2.42,2.42,0,0,1,1.23-.77,1.05,1.05,0,0,1,1,.32,3.17,3.17,0,0,1,0,.53Z"/><path class="cls-127" d="M314.39,140.86,314,142a1.78,1.78,0,0,1-1.58.26c-.56-1.05-1-2.06-2.59-2.05-1.32,0-.44-1.8-1.65-2.5-.81-.47-1.66-1.2-2.61-1.66a.8.8,0,0,1-.26-.67c1-.68,1.13-1.32-.08-1.92a1.29,1.29,0,0,1,.18-1.17,16.8,16.8,0,0,1,5.2-2,6,6,0,0,1,3.45.13,1,1,0,0,1,.48.61c-.4,1.36-1.94.58-2.71,1.49.85.36,1.8-.26,2.55.34.6.8.35,1.71.35,2.59C313.46,137.19,315.19,139.1,314.39,140.86Z"/><path class="cls-128" d="M315.47,122.49l1.09,2.29c.66,4.71,1,9.41-1,13.93-1.09-1-.79-2.22-.65-3.43.05-2.86-.19-5.71-.21-8.57C315.06,125.33,313.38,123.55,315.47,122.49Z"/><path class="cls-129" d="M315.45,135.25l.09,3.46c0,.93-.64,1.5-1.15,2.15-.06-1.87-2.3-3.72,0-5.6A.72.72,0,0,1,315.45,135.25Z"/><path class="cls-130" d="M312.14,141.93,314,142c-.25.34-.49.69-.74,1h-1.11a.81.81,0,0,1-.61-.81C311.57,141.94,311.84,141.84,312.14,141.93Z"/><path class="cls-131" d="M292.17,139.72a.49.49,0,0,1,.05.51c-1.89,0,.14,1.68-.91,2,1.08,2.36-.52,2.36-2.12,2.48a12.26,12.26,0,0,0-2.08.54l-2.71,0a5.36,5.36,0,0,1-2.28-2.71,16.31,16.31,0,0,0-1.08-2.8,2.12,2.12,0,0,1,0-2.8v-1.66c-.46-.29-.13-1.32-1.08-1.16,0-.36,0-.71,0-1.07,1.52-1.67-.45-3.33,0-5,.06-.61-.07-1.28.58-1.67,2.07-.92.38-3.24,1.65-4.45h0a1,1,0,0,1,1.16-.13,1.69,1.69,0,0,1,.45.72,13.3,13.3,0,0,1,.24,3,5.37,5.37,0,0,1-.45,2.59c-2.12,1.6-.62,3.95-1.21,5.74,0,.5.63.13.26.19,0,0,0,0,0-.12,0-1.64-.67-3.35.46-4.89,1.65,2.11,1,4.84,1.89,7.19.42,1.14.77,2.35,1.25,3.49a1.17,1.17,0,0,0,1,.75c-.05-.45-.64-.53-.68-1a1.51,1.51,0,0,1,1.28-.94,7.35,7.35,0,0,1,3.06.14A3.81,3.81,0,0,1,292.17,139.72Z"/><path class="cls-132" d="M287.53,147.58a.49.49,0,0,1-.4-.11c.6-2.53,2.52-1.84,4.2-1.71,0,0,.07.19,0,.24a3.34,3.34,0,0,1-.35.4C289.56,145.93,288.75,147.35,287.53,147.58Z"/><path class="cls-133" d="M294.41,147.48l.45.57a4.11,4.11,0,0,1-2.72.54C291.7,145.78,293.28,147.08,294.41,147.48Z"/><path class="cls-134" d="M315.47,122.49c-1.23,1.29.57,2.6,0,3.9-1.06,1.16.07,3-1.16,4.06a17.61,17.61,0,0,1-3.08.05c-2.3-.82-4.62-1.57-6.93-2.35a1.49,1.49,0,0,1-.06-1.24c1.76-1.27,3.63-.59,5.83-.09,0,0-.16-.61-.29-.26-.07.17-.14.12-.27.08s-.67-.15-.65-.37c.09-1.78,1.46-2,3.24-2.39-2,0-3.6.61-5.16,0-.91-.37-2.09-.55-1.52-2a2.86,2.86,0,0,1,2-.55,10.17,10.17,0,0,0,3.2-.16c1.55-.29,3.22-.66,4.51.78Z"/><path class="cls-135" d="M302.58,116.4l-.4-1.16c.54-2,1.79-.51,2.73-.54,1.37.54,2.56-.41,3.86-.47,1-.14,1.4.81,2.17,1.1l.6,1.11c.08.79-.49.77-1,.83-2.13-.63-2.12,1.08-2.54,2.33a1.8,1.8,0,0,1-.61.52,3.89,3.89,0,0,1-2.79-.05C303.55,119.05,303.67,117.39,302.58,116.4Z"/><path class="cls-135" d="M315.11,121.87a6.06,6.06,0,0,0-4.62,0,5.45,5.45,0,0,1-2.8,0c-2-.73-.89-1.48,0-2.22h0a3.9,3.9,0,0,1,2.82-.74c.93.19,1.74-.55,2.68-.33A7.3,7.3,0,0,1,315.11,121.87Z"/><path class="cls-136" d="M313.19,118.63c-.58.65-1.17,1.28-2.17,1.07-.28-.9-.88-1.74-.53-2.77a1.07,1.07,0,0,0,1.05-.49A2.25,2.25,0,0,1,313.19,118.63Z"/><path class="cls-137" d="M303.82,146.4a1,1,0,0,0,1,1.08c1.74.17,0,.73.11,1.09l-2.23,0c-.72-.94.07-1.52.52-2.18Z"/><path class="cls-138" d="M303.22,146.42c-.18.73-.35,1.45-.52,2.18-2-.28-.24-1.53-.59-2.24l.3-.17.28.18Z"/><path class="cls-139" d="M292.17,139.72a1.24,1.24,0,0,1-1.17-.55c-1.26-1.77-.64-3.79-.77-5.71,0-.32,0-.65,0-1,0-.64,0-1.28,0-1.91,0-3.29-.2-6.59.13-9.87a5.84,5.84,0,0,0,.27-1.61A1.29,1.29,0,0,1,291,118a1,1,0,0,0,1.1-1.11c0-1,.54-.86,1.17-.54C291.41,124.09,292.34,131.93,292.17,139.72Z"/><path class="cls-140" d="M291,118v1.11c-1.42.67-3,.11-4.45.57a2.58,2.58,0,0,1-2.25-1.13c0-.71.06-1.41.1-2.11.73.4,1.42-.1,2.14-.11C287.49,118.42,289.34,118,291,118Z"/><path class="cls-141" d="M293.29,116.38a1.16,1.16,0,0,0-1.17.54c-3,.13-2.3-2.36-2.87-4a1.25,1.25,0,0,1,1.22-.48,1.49,1.49,0,0,1,.83.71c.21.57-.08,1.71,1.21,1a1.62,1.62,0,0,1,1.8,0A4.16,4.16,0,0,1,293.29,116.38Z"/><path class="cls-142" d="M291,113.05l-.56-.57.55-.55,1.08-.07c1.43.63,3.11-.68,4.46.58-.33.54-.89.57-1.43.64C293.76,113.59,292.39,114.1,291,113.05Z"/><path class="cls-143" d="M304.91,114.7c-.86.43-2-.47-2.73.54a2.07,2.07,0,0,1-.76-1.58l1.84-.64,2.21,0C305.28,113.61,305.1,114.16,304.91,114.7Z"/><path class="cls-122" d="M281,136.93c-.82,2.1,2.17,3.45,1.11,5.6a10.76,10.76,0,0,1-2.3-6C280.57,135.66,280.53,137,281,136.93Z"/><path class="cls-144" d="M302.1,146.35l-.09-1.11c2.84-9.56,2.12-19.19.57-28.84a2.66,2.66,0,0,1,1.79,3.31,2.69,2.69,0,0,1,.56,2.36c.07,1.64.68,3.35-.54,4.85V128c.88,1.08.74,2.36.71,3.62a6.61,6.61,0,0,0-.17,1.83,4.89,4.89,0,0,1,0,1.79c-.05.75.2,1.47.15,2.22s0,1.48,0,2.22c0,1.18,0,2.35,0,3.53a4.25,4.25,0,0,1-.22,1.32,2.06,2.06,0,0,1-.54.7l-1.63,1.1Z"/><path class="cls-145" d="M311,143.61c0,.18,0,.37,0,.55-1.14.29-1.95,1.55-3.33,1.12a1.39,1.39,0,0,1-.46-.56,2.6,2.6,0,0,1-.26-1.45,1.4,1.4,0,0,1,.9-.71,3,3,0,0,1,3,.67C310.94,143.35,311,143.48,311,143.61Z"/><path class="cls-146" d="M307.69,144.73c0,.18,0,.36,0,.55-1.13,1.11-2.25-.09-3.38,0,0-.18,0-.37,0-.56A2.45,2.45,0,0,1,307.69,144.73Z"/><path class="cls-147" d="M282.11,121.92c-.66,1.44,1.59,4-1.65,4.45C281.79,125.17,279.85,122.77,282.11,121.92Z"/><path class="cls-147" d="M283.23,121.92h-1.11l0-2.18,1.62-.6C284.93,120.32,283.77,121.06,283.23,121.92Z"/><path class="cls-122" d="M279.92,134.11c.28-.19.73-.6.81-.53.57.44.15,1.12.27,1.69A1,1,0,0,1,279.92,134.11Z"/><path class="cls-148" d="M283.23,121.92c-.25-1,.38-1.85.54-2.79l.56-.55,2.25.56a5.17,5.17,0,0,1-1,2.93,2,2,0,0,1-1.19.37,1.8,1.8,0,0,1-1.13-.52Z"/><path class="cls-149" d="M307.69,143.05l-.55.55a1.67,1.67,0,0,1-2,.31c-.89-1.27.49-3-.76-4.18v-2.24c.59-.41.45-1.29,1.09-1.66,1.24.25,3.1-1,3.22,1.82,0,1,2.21-.16,3.2.91-.61,1-1.69.33-2.85.95l3.78.5-.68,1.92c-.61.38-.05.75,0,1.12a1.17,1.17,0,0,1-1.11.56l0-.05C310.13,141.9,309,142.25,307.69,143.05Z"/><path class="cls-150" d="M304.37,131.93c0-1.29,0-2.59,0-3.89a8.23,8.23,0,0,1,6.63,2.21c-.11.26-.63.12-.55.57-1.66.57-3.17,1.59-5,1.66C304.83,132.84,304.68,132.24,304.37,131.93Z"/><path class="cls-151" d="M314.36,130.26c.22-1.33-.63-3,1.09-3.87v8.86h-1.08c-.54-.73,0-1.47,0-2.21a1.21,1.21,0,0,1,0-1.68v-.54c-.2-.13-.27-.25-.2-.38S314.29,130.26,314.36,130.26Z"/><path class="cls-152" d="M314.36,131.37v1.68a6.63,6.63,0,0,0-1.1.08c-.77.19-1.55.83-2.29,0-.36-.41.22-.61.28-.93.25-1.33,1.29-.67,2-.8A5.87,5.87,0,0,1,314.36,131.37Z"/><path class="cls-153" d="M304.39,135.25c0-.55,0-1.1,0-1.65a.73.73,0,0,1,1.09,0l2.61.14c-.52,1.45-1.55,1.53-2.61,1.53A.71.71,0,0,1,304.39,135.25Z"/><path class="cls-154" d="M314.36,130.26v.57h-3.89l-.63-.32,1.18-.25Z"/><path class="cls-135" d="M304.39,135.25h1.08v.57c0,.79,0,1.6-1.09,1.66C304.39,136.75,304.39,136,304.39,135.25Z"/><path class="cls-135" d="M305.47,133.59h-1.09c0-.56,0-1.11,0-1.67l1.1.55Z"/><path class="cls-155" d="M291,113.05l4.1,0-.82,1.06a5.93,5.93,0,0,0-1.3.37c-.74.39-1.34,1.62-2.27.85C290,114.74,291.11,113.86,291,113.05Z"/><path class="cls-156" d="M283.23,128c0-.93,0-1.85,0-2.78.95-.75.19-2.11,1-2.89.91-.35,1.44,0,1.56.92a8.18,8.18,0,0,0,1.17,2.77,10.76,10.76,0,0,1,.17,4.52c-.08.75-1,1.33-.46,2.22a2,2,0,0,1,.21.66,1.33,1.33,0,0,1-.39,1c-.83.72-.87,1.39,0,2.22.64.67,1.44,1.36,1.21,2.49a1.17,1.17,0,0,0-1.12.56c0,.94-.46.95-1.11.56a25.8,25.8,0,0,1-2.23-11.12A.75.75,0,0,1,283.23,128Z"/><path class="cls-157" d="M287.69,139.15c-1-.64-1.39-1.76-2.29-2.54-.73-.62-1.08-2.49,1.16-2.46.49.14.58.59.78,1,.6-.63,0-1.38.23-2.05a1.56,1.56,0,0,1,.63-.48,2.78,2.78,0,0,1,2.8.45v6.14Z"/><path class="cls-158" d="M283.23,128v1.11c-1.29,1.69,0,3.75-1,5.49C282.81,132.47,280.83,130,283.23,128Z"/><path class="cls-159" d="M285.46,140.27a1.14,1.14,0,0,0,1.11-.56c.74.14,1.73-.37,2.08.75a.77.77,0,0,1-.29.69A2.47,2.47,0,0,1,285.46,140.27Z"/><path class="cls-147" d="M284.35,122.48c-.24,1,.67,2.42-1.11,2.78v-3.34h1.11c.19.12.26.24.19.36S284.41,122.48,284.35,122.48Z"/><path class="cls-160" d="M304.39,126.92l0-5a.77.77,0,0,1,1.11,0c1,1.74,2.64,1.79,4.17,1.41a4.58,4.58,0,0,1,3.13.46c-.58,1.09-1.8.69-2.62,1.2-1.28.81-.55,1.33.49,1.92Z"/><path class="cls-161" d="M305.48,121.93h-1.11v-2.21h3.32c.08.74-1.32,1.48,0,2.22Z"/><path class="cls-162" d="M310.49,116.93c.33.9,1.21,1.69.53,2.77h-3.33C307.72,116,307.75,116,310.49,116.93Z"/><path class="cls-163" d="M284.35,122.48v-.55l1.09,0c.45-.38.24-1.46,1.29-1.21.83.46,1.88.57,2.45,1.47.68,2,.35,4,.35,6,0,1.23.24,2.16,1.47,2.62,0,.56,0,1.12,0,1.68a8.4,8.4,0,0,1-3.38-.3c-1.1-.85-.35-2-.49-3s.34-2.35-.57-3.35c-1.32-.11-1.31-1.21-1.32-2S285.24,122.51,284.35,122.48Z"/><path class="cls-164" d="M291,130.81c-1.76.47-2.38-.13-2.25-2,.17-2.28,0-4.59,0-6.88a.66.66,0,0,1-.18-.48c0-.17,0-.26.06-.26.65-.7.83-2.18,2.36-1.49Z"/><path class="cls-115" d="M291,119.7c-1.29-.18-.95,1.81-2.21,1.67-.66-.52-1.53-.25-2.25-.55l-1.13,1.09a2.78,2.78,0,0,1,1.14-2.77,5.86,5.86,0,0,1,4.45,0,2,2,0,0,1,.2.41S291.1,119.65,291,119.7Z"/><path class="cls-165" d="M287.68,131.92a5.73,5.73,0,0,1,3.33.57c0,.18,0,.36,0,.54l-3.31,0A.83.83,0,0,1,287.68,131.92Z"/><path class="cls-166" d="M304.38,139.73c2,1,.95,2.49.53,3.87a.33.33,0,0,1-.54,0Z"/><path class="cls-167" d="M304.37,143.62l.54,0h2.23a1.14,1.14,0,0,1,.55,1.13l-3.33,0Z"/><path class="cls-168" d="M307.69,143.05c.26-1.61,1.66-1.26,2.56-1.25s.75,1,.75,1.76A6.07,6.07,0,0,0,307.69,143.05Z"/><path class="cls-169" d="M287.68,131.92c0,.38,0,.75,0,1.13h0a.76.76,0,0,1-1.12,0h0a1.2,1.2,0,0,1,0-1.67v-5.55c1.69.32.9,1.69,1.11,2.64C287.94,129.61,287.1,130.77,287.68,131.92Z"/><path class="cls-165" d="M286.57,133h1.12a1.43,1.43,0,0,0,.26.47c1,.86-.11,1.58-.18,2.37,0,.12-.67.37-.92.27-1.18-.47.51-1.42-.29-2C286.57,133.78,286.57,133.41,286.57,133Z"/><path class="cls-165" d="M286.57,131.37V133c-.57-.08-1.1-.22-1-1C285.64,131.5,286.12,131.45,286.57,131.37Z"/><path class="cls-170" d="M286.57,120.82c.88-.32,2.15-2.29,2.25.55l0,.56C287.93,121.81,286.75,122.31,286.57,120.82Z"/></g><g class="cls-171"><path class="cls-172" d="M174.24,149.17c.82-.08,1.18.33,1.19,1.11l-15.51.05c-.52,0-1.2.15-1.45-.49s.35-1,.86-1.14c1.58-.51,1-1.83,1-2.82.05-9.61,0-19.22.06-28.84,0-2.6.47-5.32-3.78-4.55.46-1.56,1.44-1.57,2.3-1.64s1.51-.38,1.4-1.32c-.35-3.16,1.93-3,3.94-3.2a1.27,1.27,0,0,1,1.61-.14c.21,1.87-1.49,1.12-2.26,1.64a2.54,2.54,0,0,0-1.56.88,7.4,7.4,0,0,0-.46,4.48c.18,1.53.1,3.07.14,4.61,0,4.24,0,8.49,0,12.73,0,1.17,0,2.35,0,3.53,0,.67,0,1.34,0,2,0,4,0,7.93,0,11.89.05.9.69.95,1.37,1C166.79,149,170.52,148.83,174.24,149.17Z"/><path class="cls-173" d="M168.74,105.25c1-1.51,3-2.38,3.2-4.47a1.13,1.13,0,0,0,.12-.51c2.64.33.56,2.28,1.14,3.31l-.86.06c-.27,1.14-1.32,1.36-2.17,1.82a2.11,2.11,0,0,1-.75.13A1.2,1.2,0,0,1,168.74,105.25Z"/><path class="cls-174" d="M173.27,110.78l1,.55c.36.6-.14.8-.5,1.07-.91.93-.54,2.11-.55,3.17-.05,8.05-.06,16.09-.09,24.14-.3.29-.88.37-.95.1-.49-1.82-1-.44-1.49-.05-1.34,1-2.29.6-2.71-1-.18-.7-.56-.13-.82-.17-2-.26-4.09-.21-5.38-2.2a1.26,1.26,0,0,1,.19-1.14c1.45-.81,2.57.57,3.8.55.45.12.08-.43.11-.06,0,.07-.09.11-.25,0-1.26-.64-2.9-.41-3.88-1.69a1.3,1.3,0,0,1,.19-1.15c1.24-.86,2.49-.41,3.72,0a7,7,0,0,0,5.44-.31c-1.64-1-3.13-2,.27-2.8a5.93,5.93,0,0,0-4.27-.69c-1.52.13-3.16.66-4.39-.84-.72-3.35-.18-6.74-.36-10.1-.08-1.45.27-2.93-.38-4.32a11.21,11.21,0,0,0-1.09-1.38,6,6,0,0,1,.65-4.43c.46-.18.68.11.87.44.31.56.2,1.42,1.11,1.56,1.42.34,2.34-.46,3.2-1.39.18-.16.38-.31.57-.46a17.22,17.22,0,0,1,1.44-1.11,2.17,2.17,0,0,1,1.8-.3,1.1,1.1,0,0,1,.55,1c-.27.9-1.26,1.16-1.9,2,1.13-.21,2-.84,3-.38s.38,1-.16,1.48c-.72,1.11-1.59,1.92-3.1,1.55,1.69.54,2.54-.44,3.26-1.68A.85.85,0,0,1,173.27,110.78Z"/><path class="cls-175" d="M162.05,136.38c2.2.84,4.25,2.55,6.84.88.7-.46.91.27.81.88-.15.87-1.15.8-1.71,1.46,2.32.29,3.71-.27,3.11-3.09,1.71.69,0,3.07,2.06,3.2,0,2.43,0,4.87.08,7.3,0,.85-.3,1.89,1,2.16-4.3,1.25-8.69.27-13,.5-.71,0-.31-.66-.23-1.06a2,2,0,0,0,.42-.72c.4-1.62-.45-3.4.62-4.93,2.51.23,5-.36,7.65-.05-2.69-1-5.49,1.18-8-.71C161.53,140.24,161,138.26,162.05,136.38Z"/><path class="cls-176" d="M173.8,112.4l.5-1.07,1.06-.47c.81,1,2.31-.12,3.37,1.27A16.8,16.8,0,0,1,173.8,112.4Z"/><path class="cls-177" d="M160.91,112.49a1.12,1.12,0,0,1,1.14.54c.77,1,.52,2.09.54,3.16.06,4.84-.11,9.67.17,14.5a3.64,3.64,0,0,1-.17.92c-.29.81-1,1.48-.91,2.43a.48.48,0,0,1-.72.12c0-1.13,0-2.25,0-3.38a74.34,74.34,0,0,0,0-13.26Z"/><path class="cls-178" d="M161,134.16h.52a1.4,1.4,0,0,1,.54.79l0,.32v7.23c.19.12.25.25.19.37s-.13.19-.19.19c-.27,1.85.57,3.8-.56,5.56-.58-3.16-.11-6.35-.28-9.52-.06-1.08.25-2.19-.24-3.24Z"/><path class="cls-179" d="M161,117.52a35,35,0,0,1,0,13.26Q161,124.15,161,117.52Z"/><path class="cls-180" d="M161,135.85c1.16,2.82.25,5.76.5,8.64.11,1.36,0,2.74,0,4.12H161Q161,142.24,161,135.85Z"/><path class="cls-178" d="M165.93,106.38l.57,0c.49.36,1,.7.38,1.37a4.06,4.06,0,0,1-2.61.36,1.76,1.76,0,0,1-1.15-.64C163.82,106.46,165.24,107.39,165.93,106.38Z"/><path class="cls-181" d="M163.12,107.45l1.15,0c.2.92-.53,1.1-1.11,1.4a1.19,1.19,0,0,1-1.11-.28l-.49-.54C161.87,107.31,162.55,107.5,163.12,107.45Z"/><path class="cls-182" d="M173.27,110.78l-1.22,0h0c0-.37.62-.74,0-1.11a2.16,2.16,0,0,1-.58-1.9c.53-1.54-.37-2.17-1.64-2.55.58-.93,2-.87,2.38-2.16.13-.43.57.47,1,.5Q173.25,107.18,173.27,110.78Z"/><path class="cls-181" d="M167,107.46l-.54-1.1a.67.67,0,0,1,.44,0c1-.4,2.05-.43,3.05-.74.59,0,1.13.07,1.12.83,0,.45-.3.6-.73.52l-1.67.55A1.21,1.21,0,0,1,167,107.46Z"/><path class="cls-182" d="M169.83,105.82c-.83.9-1.9.44-2.89.49l1.8-1.06.58,0A1.24,1.24,0,0,1,169.83,105.82Z"/><path class="cls-183" d="M169.83,105.82l-.51-.53.51-.05h2.49l-.27,2.23a.75.75,0,0,1-1.11,0l-.56-.56C171.22,106,170.56,105.91,169.83,105.82Z"/><path class="cls-175" d="M163.16,128.59c2.35.55,4.68-1,7-.13.82.31,2.35-.36,2.31,1.25-.05,1.79-1.76.72-2.62,1.3.46.72,1.3.17,1.86.55s.85.71.72,1.34-.58.61-1.05.69c-2.23.4-4.43,1.08-6.68-.23-.71-.42-1.78-.23-2.68-.32a.77.77,0,0,1,0-1.11h0c1.25-1.73,3.11-.32,4.47-.89C164.89,131,162.56,131.9,163.16,128.59Z"/><path class="cls-184" d="M163.16,128.59c.13,2.59,2.1,2.34,3.91,2.41-1.67.72-3.5-.09-5,.93V113c1.53.26,1.08,1.48,1.09,2.39C163.17,119.81,163.16,124.2,163.16,128.59Z"/><path class="cls-183" d="M167,107.46h1.67a1.9,1.9,0,0,1-1.11,1.11c-.37-.36-.83-.28-1.28-.27a1.85,1.85,0,0,1,1.28.27c-1,1.66-2.35,2.72-4.45,2.22a1.61,1.61,0,0,1,0-2.22l1.12-1.1Z"/><path class="cls-181" d="M170.94,107.48h1.11v2.22c-1.5-.47-2.47,1.83-4.13.77C168.25,108.76,170,108.53,170.94,107.48Z"/><path class="cls-185" d="M172.05,110.81c-.34,2.46-1.77,2.92-5.48,1.54,2-.7,4-.12,5.48-1.55Z"/><path class="cls-175" d="M162.05,134.15c1.38,1,3.52.12,4.66,1.88-1.88,1.23-3-1.13-4.66-.77h0A.77.77,0,0,1,162.05,134.15Z"/><path class="cls-186" d="M168.26,117h3.68v.27h-3.68Z"/><path class="cls-187" d="M163.15,108.58v2.22c-1.49-.17-1-1.34-1.1-2.2Z"/><path class="cls-180" d="M162.05,134.15v1.11a1.15,1.15,0,0,1-.56-1.11c.09-.76-.25-1.63.56-2.22,0,.37,0,.74,0,1.11Z"/><path class="cls-188" d="M162.05,143.05v-.56c2.75-.1,5.45-.88,8.23-.55.6.07,1.49-.17,1.56.71.1,1.16-.93,1-1.59.93C167.52,143.4,164.72,144.15,162.05,143.05Z"/><path class="cls-181" d="M167.6,108.58h-2.5c1.12-.81,1.83-.67,2.5,0Z"/></g><g class="cls-189"><path class="cls-190" d="M109.8,114.67c1.38-1.93,3.49-1.45,5.33-1.36,1.16.06,2.34.22,3.53.22,1,1.92-.38,2.4-1.74,2.4-2.49,0-3.07,1.22-3,3.49.08,8.58,0,17.17,0,25.76a6.83,6.83,0,0,0,.31,2.73,1.92,1.92,0,0,1,.23.88c3.08.41,6.18.05,9.28.16,1.36.05,2.75-.1,4,.73.33,1.1-.28,1.63-1.23,1.62-5.18,0-10.39.25-15.52-.9a2.55,2.55,0,0,1-1.15-.72,2.57,2.57,0,0,0,0-.48,2.25,2.25,0,0,0,1.7-2.43q.21-14.09,0-28.17A4.63,4.63,0,0,0,109.8,114.67Z"/><path class="cls-191" d="M127.55,148.67c0,.34,0,.69,0,1H113.91c-.06,0-.12-.1-.18-.15l.51-.39a3.18,3.18,0,0,1,2.23-.75c2.17-.41,4.57.88,6.56-.86.67-2.83.28-5.7.33-8.55.1-5.81-.07-11.62.08-17.43.09-2.86-.27-5.73.2-8.57.22-.78.53-1.3,1.22-.36a4.53,4.53,0,0,1,.51,2.93c0,10.13,0,20.26,0,30.38,0,.94-.7,2.36,1.07,2.65Z"/><path class="cls-192" d="M120.89,113l1.14.06a1.94,1.94,0,0,1,.21,2.27c-1.32,1.37-3.12,1.52-4.81,1.71s-2.28,1-2.33,2.67c-.11,3.66,0,7.33-.07,11,0,.32,0,.64,0,1,.07,4.79,0,9.59,0,14.38a3.22,3.22,0,0,1-.81,2.56c-1.54-.27-1.09-1.51-1.09-2.43,0-9.32,0-18.64,0-28,0-2.21.9-3,2.94-3,1.19,0,2.82.49,2.63-1.71C119.26,112.78,120.14,113.14,120.89,113Z"/><path class="cls-193" d="M114.23,148.61q0-8.61,0-17.23c1.37-.87,2.65-1.2,3.6.56-.55,2-1.13,4,0,6a2.3,2.3,0,0,1,.16.82,21.35,21.35,0,0,0-.84,6.41,10.19,10.19,0,0,1-.23,3.3,3.1,3.1,0,0,1-.48.7h-2.22C114.24,149,114.23,148.79,114.23,148.61Z"/><path class="cls-194" d="M122,115.25c0-.73,0-1.47,0-2.2l1.61,0c1.33,2.71.26,5.59.59,8.37-.65.65-1.33,1.2-2.31.65C120.52,119.75,122.2,117.51,122,115.25Z"/><path class="cls-195" d="M122,121.92l2.21-.55q0,12.19,0,24.38c0,1,.36,2.05-.55,2.87a1.48,1.48,0,0,1-2-.23,5.06,5.06,0,0,1-.46-2.68q0-10.49,0-21C121.24,123.73,121.18,122.7,122,121.92Z"/><path class="cls-196" d="M122,148.61h1.66c-2.33,1.2-4.82.23-7.22.54v-.55a2.65,2.65,0,0,0,1.49-3.36c-.57-2.17.94-4.49-.38-6.65v-.55a18,18,0,0,1,.42-2.93c.33-1.78,1.25-2.54,3-1.64,1,4.07.17,8.19.43,12.29C121.52,146.73,121.08,147.81,122,148.61Z"/><path class="cls-193" d="M122,148.61c-.66-.2-1.62.73-1.35-1.34.58-4.49.21-9.1.23-13.67-.59-.83-1.84-.29-2.41-1.18-.21-1.68,2-2.2,1.79-4.07s.14-3.52-1.41-4.83c-.9-.77-.63-2-1.27-3.24a15.34,15.34,0,0,0-.08,7.06c.61,2.73-.43,3.83-3.28,3.47,0-4.24,0-8.48,0-12.72,0-1.12.31-1.82,1.55-1.72,2.18.18,4.16-.7,6.22-1.12,1.55,2.22-.62,4.45,0,6.67Z"/><path class="cls-197" d="M114.24,130.81c2.26,0,2.88-.86,2.5-3.29-.45-2.89-1.25-6.12,1.57-8.78.09,2.38,1.43,4.12,2.31,6.06,1.14,2.49,1,5.71-1.94,7.68a.8.8,0,0,1-1.11,0c-.57-2-2.22-.73-3.33-1.1Z"/><path class="cls-192" d="M117.57,138.6A1.28,1.28,0,0,1,118.9,140a24.61,24.61,0,0,0,0,7.32c.3,1.55-1.48,1.12-2.49,1.25C116.52,145.24,116,141.81,117.57,138.6Z"/><path class="cls-192" d="M117.57,132.48h1.11c.87.11,2-.38,2.22,1.12-1.57-.19-2.38.35-2.25,2.09.07.89.44,2.11-1.08,2.36A3.85,3.85,0,0,1,117.57,132.48Z"/><path class="cls-192" d="M121.31,117.36h-3.53A4.19,4.19,0,0,1,121.31,117.36Z"/></g><g class="cls-198"><path class="cls-199" d="M147.65,120.72c.78,1,.51,2.12.52,3.2,0,6.83,0,13.66,0,20.49,0,1.94-.6,4.14,1.94,5.13,0,0,0,.19,0,.23a3.08,3.08,0,0,1-.41.3c-2.22-.16-2.92-1.49-2.9-3.55,0-4.24,0-8.48,0-12.72,0-1,.21-2-.42-2.94a2.13,2.13,0,0,0-1.12-.42,17,17,0,0,0-5.69-.36c.49.27,1.24,0,1.89.32a1.12,1.12,0,0,1,.77,1.29c-.14.89-4.35,5.28-5.28,5.44-.54.09-.8-.33-1-.8-.14-4.57-.12-9.13,0-13.69a1.79,1.79,0,0,1,.39-.85c2.58-1.1,5.26-.59,7.91-.42a1.74,1.74,0,0,1,1.61,1.93,14.68,14.68,0,0,0,.22,3,2.54,2.54,0,0,1,0,1,.4.4,0,0,0,.4-.28c.18-.76.81-1.47.16-2.28C145.22,123,146,121.73,147.65,120.72Z"/><path class="cls-200" d="M146.47,129.71c1.55.25,1.1,1.48,1.1,2.4,0,4.69.11,9.38,0,14.06-.06,1.87.35,3.2,2.16,3.9a79.66,79.66,0,0,1-16.16-.48l1.9-1c.83-1.36.32-2.87.47-4.31.1-1.06-.29-2.22.57-3.15,2.73-1,5.51-.54,8.28-.29a1.61,1.61,0,0,1,.7.51c-1.33,1.26-2.05,3.84-4.76,2.19-.39-.24-.85.27-1.31.22.35.11.85-.15,1,.09,1.37,1.66,3.7.79,5.2,2a3,3,0,0,1,.25.61c-.38-2,.14-4.54-.18-7,0-.3,0-.6,0-.91C146,135.63,144.93,132.55,146.47,129.71Z"/><path class="cls-201" d="M145.92,126.92c-.52-.51-1.07-1.07-.82-1.86,1-3.14-.79-3.3-3.12-3.16-1.83.11-3.67,0-5.5,0a.58.58,0,0,1,.13-.79c1.35-.84,2.82-.13,4.21-.32h.48a.5.5,0,0,0-.18,0c-.9-.07-1.89.19-2.57-.9a9.59,9.59,0,0,1,4.48-2.14c-1.11-.24-2.72,1.11-3.86-.68,1.76-1.41,3.7-.9,5.59-.73,1.78.4,1.33,2.69,2.83,3.35l.06,1c-.18,1.28-2.52,2.44-.14,4,.27.18.81,2.39-1,2.8A.65.65,0,0,1,145.92,126.92Z"/><path class="cls-202" d="M136.49,121.37c0,.18,0,.37,0,.55h0a.68.68,0,0,1-1,0,8.09,8.09,0,0,0-1.12-4.48c-.29-1.69-1.43-2.11-3-2.22-1.23-.09-2.57.55-3.68-.47.45-.55.62-1.29,1.19-1.76a2.73,2.73,0,0,1,.6-.4c.93-.3,1.8-.73,2.73-1a2.1,2.1,0,0,1,1.11.1c1.26.94,2.68,1.73,2.69,3.67,0,.33.39-.47.78-.39,2.45.65,2.76,1.12,1.61,3A29.84,29.84,0,0,1,136.49,121.37Z"/><path class="cls-203" d="M135.43,121.93h1v15a2.48,2.48,0,0,1,.61,1.14,7.18,7.18,0,0,1,0,2.17,2.44,2.44,0,0,1-.61,1.14c0,1.76,0,3.52,0,5.28,0,.81.17,1.74-1,1.94Q135.44,135.27,135.43,121.93Z"/><path class="cls-204" d="M147.59,119.71c-.4-.15-.57,1.29-1.08.18s-.78-2-1.17-3c-.88-.4-1.74-.85-2.61-1.28a1.61,1.61,0,0,1-.81-2.59,1.16,1.16,0,0,1,1.08-.29,6.78,6.78,0,0,1,2.32,2C145.82,116.52,147.54,117.73,147.59,119.71Z"/><path class="cls-205" d="M136.47,138.05v-1.12c1.67-1.62,3.35-3.22,5-4.86.5-.5.48-1-.3-1.19a6.24,6.24,0,0,1-2.55-.93,11.07,11.07,0,0,1,6.73-.24c1,1.94.4,4,.58,6.07.1,1.14-.35,2.36.53,3.37v.56a2.77,2.77,0,0,1-1.23.88,1.65,1.65,0,0,1-1.11-.17c-.82-.74-2-.43-2.86-.9-1.25-.68-1.33-1.41,0-2a3.7,3.7,0,0,0-2.5.64A1.68,1.68,0,0,1,136.47,138.05Z"/><path class="cls-206" d="M146.47,139.15c-1.38-.16-1.09-1.24-1.09-2.1,0-2.45,0-4.9,0-7.34h1.11Z"/><path class="cls-207" d="M145.92,126.92l.56.56c-.1.43-.18.87-.31,1.29,0,0-.58,0-.63-.15A1.29,1.29,0,0,1,145.92,126.92Z"/><path class="cls-208" d="M145.36,145.83c-2.81.93-4.7-1.66-7.22-2,1.32-.14,2.53-2.57,4-.09.14.24.7-.14.72-.54.13-1.81,1.52-1.14,2.49-1.31A3.42,3.42,0,0,1,145.36,145.83Z"/><path class="cls-206" d="M145.36,145.83v-4.45a.76.76,0,0,1,0-1.11,1.15,1.15,0,0,1,1.12-.56v9.65l-.81,0C145.11,148.28,145.48,147,145.36,145.83Z"/><path class="cls-209" d="M145.36,140.27v1.11h-8.89v-1.11c2.6-1.56,5.19-.67,7.78,0Z"/><path class="cls-210" d="M127.59,113.07h1.67c-.44.66-.58,1.6-1.61,1.7Z"/><path class="cls-211" d="M142,113c-.42,2.59,2.7,2.18,3.3,3.9H139.9v.46h4.34c-2,.11-2.69,3-4.92,2.89H142c.35.63-.26.79-.56,1.11h-5a3.9,3.9,0,0,1,1.07-3.43c1.63-1.6.85-2.42-1.09-2.69a3.72,3.72,0,0,1-.31-3.17c.65-.84,1.53-.44,2.33-.42a2.51,2.51,0,0,1,.65.28A8.78,8.78,0,0,0,142,113Z"/><path class="cls-199" d="M141.47,121.37l.56-1.11c.52.09,1.38.1,1.17.78S142.07,121.25,141.47,121.37Z"/><path class="cls-212" d="M136.46,111.93c-.24,1.11.6,2.22,0,3.32-.09.66.21,1.5-1,1.84.4-2.3-.92-3.75-2.32-5.16l.33-.32C134.51,111.33,135.54,111.09,136.46,111.93Z"/><path class="cls-213" d="M144.25,140.27h-7.78v-2.22c2.19-.69,4.31-1.82,6.74-.87-.24,1.48-1.78.41-2.42,1.2.58,1.24,1.73.71,2.63.75S144.63,139.4,144.25,140.27Z"/><path class="cls-202" d="M138.7,111.92l2.19,0L142,113C140.74,113.19,139.33,113.72,138.7,111.92Z"/><path class="cls-202" d="M133.15,111.92a6.21,6.21,0,0,1,5.54,0c-.73.56-1.48,0-2.23,0Z"/></g><g class="cls-214"><path class="cls-155" d="M231.51,113.12l4.35-1.49v5.85a.8.8,0,0,1-.68-.28,3,3,0,0,1-.33-1.39c0,.52,0,1,.05,1.55a5.83,5.83,0,0,0,.74,2.44c.07,1.17.39,2.42-1.36,2.72-.84.15-2.21-.09-2.27,1-.08,1.34,1.55.87,2.29,1.44a3.77,3.77,0,0,1,1.33,1.5,8,8,0,0,1,0,2,4.35,4.35,0,0,0-.59,2.64c-.13,1.32.31,3.13-1.54,3.39-1.46.21-3.46.54-3.77-1.92-.11-.88-.69-.28-1-.25-1.26.11-2.57.6-3.65-.54-.72-1.61-.37-3.3-.39-5,.18-1.17.59-2.07,2.24-1.74-.74-.24-1.49,0-1.85-.7s-.38-1.6-.74-2.35-.78-1.79-.28-2.77c.81-.83,2-.07,2.71-.69.51.14.21-.45.24-.08-1.66.13-2.1-.74-1.82-2.21.28-.61.77-1.25,1.37-1.22C228.56,115.19,229.89,113.83,231.51,113.12Z"/><path class="cls-215" d="M235.86,140.27v5.55c-1,1-2.08-.09-3,.29.39.29,1.9-.28,1.56.88-.47,1.59-2.1.37-3.27.9a5.17,5.17,0,0,1,4.85,1.2l.55.18c.28.3.28.57-.07.82a115.2,115.2,0,0,1-13.27,0c-.91-1.31,1.27-.88,1-1.82,1.82-1.38-.29-3.22.56-4.71.23-1.36,1.26-1.59,2.4-1.87,2.5-.6,5.2-.24,7.52-1.6A1,1,0,0,1,235.86,140.27Z"/><path class="cls-216" d="M235.86,140.27h-1a20.3,20.3,0,0,1-9.45,1.28,1.16,1.16,0,0,1-.15-1.25c.42-.55,1.19-.06,1.71-.55.3,0-.34-.25-.1,0a1.39,1.39,0,0,1-1.69-.16,2.35,2.35,0,0,1-.13-2.24c1.29-1.37,2.94-.48,4.34-.47,1.22,0,2.5.08,3.74.19a1.5,1.5,0,0,1,.81.09c.71.47.44.9-.09,1.25-.89.59-2,.29-2.76.62.9-.7,2.89.72,3.23-1.57-.43,0,0-1.12-.82-.61a9.06,9.06,0,0,1-3,.1c-.92-.23.65-1.36-.46-1.45-.87-.07-1.5.93-2.22.92a3.38,3.38,0,0,1-2.9-1.16c-.3-1.19-.47-2.36.48-3.37,2.1.34,4.12-1.19,6.28-.3.23,1.24-1.49.51-1.52,1.47,4.1,1.66,4.1,1.66,4.13-2.28.38-.3.55-.76.88-1.1a.56.56,0,0,1,.64,0Z"/><path class="cls-217" d="M224.32,148.6c.32,1-1.28.62-1.09,1.53a3,3,0,0,1-2.51-.45c2.65-.55,2.46-2.33,2.45-4.15,0-9.05-.08-18.1,0-27.15,0-2,.14-3.85-2.73-4.1,3.2-1.25,6.51.11,9.49-1.18h1.59c-1.15,2.74-4.06,2.16-6.09,3.24-.95.7-.12,2.11-1.11,2.79l.54,2.77q0,8.55,0,17.12c0,.32,0,.65,0,1A12.6,12.6,0,0,0,225,142c0,.32,0,.65-.07,1C224.44,144.79,225.52,146.81,224.32,148.6Z"/><path class="cls-218" d="M235.83,129.7h-.4a.76.76,0,0,1-.07-1.06v-2.33c-.58-.12,0-1.41-1.06-1.06-.56,0-1.11,0-1.66,0-1-.06-2-.59-2-1.57,0-1.18,1-1.74,2.09-1.72,1.66,0,3.05,0,2.62-2.3a1.63,1.63,0,0,1-.24-1.9l.28-.29.44,0Z"/><path class="cls-219" d="M236,149.09c-.21.32-.68.66-.87.38-1.16-1.73-3-1.4-5.13-1.47,1.52-.91,2.9-.05,4-.89-.16-1.2-1.47-.34-2.07-1.29h3.94C235.91,146.91,236,148,236,149.09Z"/><path class="cls-220" d="M236.5,150.09c0-.27,0-.55.07-.82.52-.13,1.34-.35,1.37.27C238,150.49,237.11,150.2,236.5,150.09Z"/><path class="cls-221" d="M224.32,139.72c0-5.07,0-10.14,0-15.21,0-.88-.31-1.87.53-2.59.83.58.49,1.45.57,2.23-.17.73-.52,1.47,0,2.21v9.46c.52.55-.53,1.11,0,1.67v2.21A.74.74,0,0,1,224.32,139.72Z"/><path class="cls-222" d="M224.31,119.15c0-.81,0-1.63.05-2.44s.48-.91,1.06-.35c-.12,2.17,1.74,1.5,3.07,1.88C227.06,119.24,225.89,120.18,224.31,119.15Z"/><path class="cls-223" d="M234.32,117.48v-4.11h.8c.59,1.3.18,2.73.3,4.09l0,0A.7.7,0,0,1,234.32,117.48Z"/><path class="cls-224" d="M234.31,125.26c.06-.67-.16-1.41.63-2.11.75,1.09.37,2.17.43,3.17C234.62,126.36,234.34,125.93,234.31,125.26Z"/><path class="cls-225" d="M225.42,126.36a1.33,1.33,0,0,1,0-2.21c.51.9,1.58.26,2.27.81C227,125.6,225.47,124.8,225.42,126.36Z"/><path class="cls-4" d="M234.32,117.48l1.05,0c0,.72,0,1.44,0,2.15C233.86,119.5,234.46,118.31,234.32,117.48Z"/><path class="cls-226" d="M235.36,128.65l.07,1.06a1,1,0,0,1-1.12,1.11C234.46,130,233.86,128.82,235.36,128.65Z"/><path class="cls-227" d="M224.31,142.5v-.57c.31-.3.47-.9,1.11-.55l9.44-1.1c.18.54.39,1-.54,1.12-2.44.31-4.87.81-7.32,1.06-1.19.12-1.66.57-1.58,1.7C224,144.33,225,142.83,224.31,142.5Z"/><path class="cls-228" d="M224.31,142.5l1.11,1.66c.11.62-.61,1.24,0,1.84,1.57,1.67.14,2.08-1.05,2.6Q224.31,145.56,224.31,142.5Z"/><path class="cls-229" d="M225.42,137.49c-.89-.56-.14-1.12,0-1.67.2-.19.52-.58.58-.54,2,1.18,4.2-1.75,6.12.33-.31.5-1.35-.1-1.48,1.09l3.12-.32a.76.76,0,0,1,0,1.11Z"/><path class="cls-230" d="M234.32,137.49c.59.07,1.09.25,1,1-.05.52-.45,1-.86.88-1.78-.68-3.54.61-5.55-.07,1.7-1.36,4.12,0,5.38-1.81Z"/><path class="cls-231" d="M224.32,139.72l1.1,0,1.74.13v.33l-1.74.12a.75.75,0,0,1-1.11,0C224.31,140.08,224.31,139.9,224.32,139.72Z"/><path class="cls-228" d="M224.31,140.27h1.11v1.1l-1.11.55Z"/><path class="cls-230" d="M233.76,137.49v-1.11c.22-.81.46-1.77.6,0a10.2,10.2,0,0,1,0,1.1h-.56Z"/></g><g class="cls-232"><path class="cls-233" d="M251,123.59a7.08,7.08,0,0,1-7.88,2.71c-2.25-.8-2.25-2,0-4.48a1.56,1.56,0,0,1,.63,1c.07.24.12.49.17.74,1.32,1.88,2.62,1,3.92,0,.16-.18.33-.34.5-.51.5-.2.42-.52.17-.88a6.58,6.58,0,0,0-.17-2.42,4.9,4.9,0,0,1-.2-1.08,7.41,7.41,0,0,1,.05-1.49,3.45,3.45,0,0,1,.23-.73,1.34,1.34,0,0,1,.9-.65,1.79,1.79,0,0,1,1.21,1.66,6.22,6.22,0,0,1,1.2,3.28c-.2.49-.8.75-.81,1.35S251,123.08,251,123.59Z"/><path class="cls-234" d="M248.76,118.57v1.14a.8.8,0,0,1-.79,1.13c-.91.07-.71.77-.92,1.26a1.05,1.05,0,0,1-.46.23c-.63.13-1.59-.22-1.44,1a1.63,1.63,0,0,1-1.93-.35c0-.39,0-.79-.08-1.19a.62.62,0,0,1,.12-.49c.43-1.07,1.27-2,.89-3.34-.18-.63.51-.88,1.1-.94a2.2,2.2,0,0,1,.72.15C246.74,118,248.16,117.46,248.76,118.57Z"/><path class="cls-235" d="M237.71,117.37l0-1.88c.56-1.62,1.91-1.79,3.33-1.81a.69.69,0,0,0,.48-.15.54.54,0,0,1,.69,0,1.84,1.84,0,0,1,.29.71c-.11,1,.23,2-.5,2.86C240.56,116.58,239.18,117.82,237.71,117.37Z"/><path class="cls-236" d="M242.1,116.9a4.36,4.36,0,0,1,0-2.72c.85-.64,1.21,0,1.57.59.09.26.12.54.21.8.12.42.56.41.84.61-.13-.3-.73-.32-.5-.84,1.87-1.21,3.31-.61,4.5,1v.56c-.76,1-1.73.93-2.77.54h-.56c-.92-.81-1.83.64-2.75,0l-.46-.08C241.82,117.33,241.78,117.15,242.1,116.9Z"/><path class="cls-237" d="M243.24,115.27c-.05-.68-.36-1.1-1.1-1.09,0-.17,0-.34,0-.51a5.37,5.37,0,0,1,4.37,0c.32,1.56,2.37.7,2.86,2l-.59.63c-1.43-.62-2.76-2-4.45-.57C243.7,116.12,243.53,115.58,243.24,115.27Z"/><path class="cls-238" d="M242.67,117.5c.91-.45,1.82-1.06,2.75,0l-.75.22c1.34,1.91-.47,2.61-1.4,3.64C243.2,120,243.41,118.69,242.67,117.5Z"/><path class="cls-239" d="M251.52,120.79c.07-1.24-1.16-2.11-1-3.38,1.73,1.19,1.77,2.8,1.12,4.57l-.31-.19A.83.83,0,0,1,251.52,120.79Z"/><path class="cls-240" d="M251,123.59c-.68-.38-.56-1-.57-1.66a.66.66,0,0,1,1,0l.25.06C251.56,122.56,251.62,123.22,251,123.59Z"/><path class="cls-241" d="M248.75,123.58c-1,1.57-2.54,1.81-4.26,1.68-1.15-.09-1.29-.78-1.27-1.67C245.07,123.6,246.91,122.08,248.75,123.58Z"/><path class="cls-242" d="M247.1,121.92c-.21-.71-1.47-.29-1.4-1.42,1-.44,2.36.54,3.07-.79,1.06.92.39,1.84,0,2.76C248,123,248,121.1,247.1,121.92Z"/><path class="cls-243" d="M247.1,121.92c.82-.61,1.16.21,1.66.55s.37.4,0,.59a4.66,4.66,0,0,1-3.31,0c-.2-.28-.59-.79-.57-.81C245.53,121.65,246.35,122.05,247.1,121.92Z"/><path class="cls-244" d="M246,117.48c.81-.76,1.92,0,2.77-.54,0,.54,0,1.09,0,1.63C248,117.7,246.22,119.59,246,117.48Z"/><path class="cls-245" d="M245.43,123l3.31,0a4.51,4.51,0,0,1,0,.52h-5.53c0-.19,0-.38,0-.58Z"/><path class="cls-246" d="M251.43,121.92h-1c-.8-1.48.53-1,1.08-1.14Z"/><path class="cls-247" d="M243.24,115.27l1.07.54h1.55C244.91,116,243.69,117.13,243.24,115.27Z"/></g><g class="cls-248"><path class="cls-249" d="M337.22,118.6c0,9.33,0,18.65-.08,28,0,1.62.59,2.52,2.71,3.2-3.23.87-5.77.48-8.27.55s-5,0-7.48,0c-.61,0-1.52.21-1.65-.58s.89-.78,1.36-1.17a.82.82,0,0,1,.74-.12c3.52,1.07,7.1.46,10.66.39.26,0,.12-.46.06-.71.58-1.48-.84-2.91-.1-4.37.45-1.22-.09-2.49.16-3.72.47-1.52-1-2.94-.23-4.48.12-.32.86-.57.13-1a1.27,1.27,0,0,1,0-.92c.49-.69-.23-1.18-.32-1.78a9.51,9.51,0,0,1,.05-3.94,22.8,22.8,0,0,0,.18-7.64,2.63,2.63,0,0,1-.21-1.1c0-.79.53-1.37.79-2.06.19-1.07-.57-1.82-.92-2.7-.13-.76-1.41-1-1-2,3.07-1.54,3.53-1.31,3.67,1.87A4.41,4.41,0,0,1,337.22,118.6Z"/><path class="cls-250" d="M335.48,114.14c.31,1.14,1.58,2,1.08,3.36a5.47,5.47,0,0,1-4.06.45c-1-.82-2-1.69-3.45-1.32.63.15,1.4-.24,2,.42-.27,1.24-1.29.48-1.94.7a5,5,0,0,1-2.16-.26c.75.45,1.46.2,2.14.27s1.88-.11,1.94.94-1.09,1-1.84,1.13a4.63,4.63,0,0,0-1.56.33c-.51.88-1.7,1.39-1.42,2.7.35,2.68-.45,5.3-.41,8,0,1.06-.42,1.94-1.67.84.19-5.29-.44-10.57-.26-15.86a3.21,3.21,0,0,1,3.44-2.21,19.27,19.27,0,0,0,3-.09,3.18,3.18,0,0,0,.8-.41l1-.12.35.09C333.37,113.78,334.67,113.29,335.48,114.14Z"/><path class="cls-251" d="M324.33,148.53q.06-7.47.13-14.95a.88.88,0,0,1,1.29.16c1,3.32.25,6.74.51,10.1.1,1.25-.4,2.59.57,3.69a4.88,4.88,0,0,0,2,.28c1.61-.19,1.36-1.47,1.45-2.52.12-1.44-.21-2.94.46-4.33a1.23,1.23,0,0,1,1.09-.49c1.89.25,1.16,2.21,2,3.12.48,1.51-.83,3.68,1.64,4.45a1.12,1.12,0,0,1,1.19,1.23c0,.48-.51.44-.86.44-3.5,0-7,0-10.51-.05C324.65,149.65,324.45,149.1,324.33,148.53Z"/><path class="cls-252" d="M328.81,117.48h1.78c-.7-1-1.79-.17-2.61-1.19,1.61.49,3.31-.9,4.18,1.19a3.82,3.82,0,0,1,.8,1.16c.53,1,1.88.79,2.56,1.6.25.09.72.18.72.26,0,2.29-.12,4.59-.22,6.88a1.89,1.89,0,0,1-.51.11,2.86,2.86,0,0,1-3,.4c-.83-1-.31-2.38-.69-3.52.34-.74,1-1.43.9-2.24,0-.6-.35.16-.59.11a3,3,0,0,1-1.1.29,3.72,3.72,0,0,1-1.55-.22c-.6-.26-1.53-.75-1.44-1.11.36-1.45-1.07-.92-1.42-1.5,1.12-1.17,2.75-.1,4-.78-.33-1.09-1.16-.8-1.82-.9-.18-.12-.23-.24-.17-.36S328.75,117.48,328.81,117.48Z"/><path class="cls-253" d="M332.17,127.48h3.34c0,1.67,0,3.33,0,5a2.07,2.07,0,0,0,0,1.13v1.09a1.81,1.81,0,0,1-2.22.24c-1.16-1.19-.44-3.07-1.56-4.28C331.41,129.54,331.23,128.43,332.17,127.48Z"/><path class="cls-254" d="M335.5,135.26c.27,1.11-.61,2.37.86,3.36.77.51-.59,1-.86,1.64a1.49,1.49,0,0,1-1.26.38c-.9-.25-1.91-.25-2.47-1.19a4.68,4.68,0,0,1,.29-4.3A5.4,5.4,0,0,1,335.5,135.26Z"/><path class="cls-255" d="M335.51,148c-1.46,1.08-2.2.65-2.24-1.11,0-1.11,0-2.22,0-3.33a1.58,1.58,0,0,1,2.23,0C335.15,145.08,336.58,146.56,335.51,148Z"/><path class="cls-256" d="M335.5,143.61h-2.23c-.58-.84-.29-2-1.1-2.76.38-1.52,1.36-.77,2.2-.58h1.13Z"/><path class="cls-257" d="M332.16,119.15v-1.67l4.4,0c-.32.57-1.15.8-1.08,1.63C334.38,120,333.27,119.59,332.16,119.15Z"/><path class="cls-258" d="M332.12,113.21l1.58-.25c.77.13,1.73,0,1.78,1.18C334.36,113.85,332.87,114.87,332.12,113.21Z"/><path class="cls-259" d="M332.16,119.15l3.32,0c0,.37,0,.74,0,1.11A3.64,3.64,0,0,1,332.16,119.15Z"/><path class="cls-260" d="M335.5,135.26h-3.33a.57.57,0,0,1,0-.7.85.85,0,0,1,1.06.13h2.25c.29,0,.73-.46.84,0C336.5,135.24,335.89,135.19,335.5,135.26Z"/><path class="cls-252" d="M335.51,133.61c-.41-.09-1-.08-.85-.69,0-.2.55-.29.84-.44.25.22.65.41.7.67C336.29,133.62,335.81,133.55,335.51,133.61Z"/><path class="cls-261" d="M324.51,133c0-.37,0-.73-.05-1.1,1.11-1.84.49-4,1-5.93a18.56,18.56,0,0,0,.09-4.09.93.93,0,0,1,1.38.18,22.63,22.63,0,0,1,0,10.79C326.15,133.69,325.33,133.4,324.51,133Z"/><path class="cls-262" d="M324.28,115.24c-.68-.62-1.84-.15-2.89-1.66H331c-.67.87-1.67.66-2.47.52C326.87,113.82,325.64,114.68,324.28,115.24Z"/><path class="cls-263" d="M326.59,121.93h-1.08c-.13-1,1.6-1,1.09-2.22,1.93-.52,1.82,1.51,2.78,2.22a1.58,1.58,0,0,1-.73.49A2.13,2.13,0,0,1,326.59,121.93Z"/><path class="cls-264" d="M328.81,117.48a4.86,4.86,0,0,1,0,.54h-3.87C326.46,116.19,327.7,117.9,328.81,117.48Z"/><path class="cls-265" d="M324.51,133h2.08a3,3,0,0,1,2.15-.73,3.65,3.65,0,0,1,2.23.53.73.73,0,0,1,.11.85,3.21,3.21,0,0,1-2.16.62,12.18,12.18,0,0,1-2.26-.09,2.82,2.82,0,0,1-1.19-.61l-1,0A.58.58,0,0,1,324.51,133Z"/><path class="cls-266" d="M328.82,133.61l2.22,0c1.14,1.86.31,3.91.54,5.85a2.12,2.12,0,0,1-.53,1.38c0,1.9-.1,3.8,0,5.69s-.66,2.29-2.24,2.1c-1.59-2.64-.61-5.52-.81-8.29C328.12,138.06,327.4,135.71,328.82,133.61Z"/><path class="cls-267" d="M328.81,140.27c0,2.78,0,5.56,0,8.34h-2.23c-1.11-2.51-.36-5.12-.46-7.68C326.74,139.55,327.73,139.75,328.81,140.27Z"/><path class="cls-268" d="M326.6,140.27q0,4.17,0,8.34c-1.53-.25-1.08-1.47-1.09-2.38,0-4.21,0-8.41,0-12.61h1.13A6.36,6.36,0,0,1,326.6,140.27Z"/><path class="cls-269" d="M331.05,140.82v-1.11a.76.76,0,0,1,1.12,0c.76.09,1.63-.25,2.21.55-.76.09-1.64-.25-2.2.58Z"/><path class="cls-270" d="M331.05,133h-2.22a15.5,15.5,0,0,1,0-11.12h2.25A22.83,22.83,0,0,1,331.05,133Z"/><path class="cls-271" d="M331.05,133q0-5.56,0-11.11h1.09a1.57,1.57,0,0,1,0,2.22c-.08,1.11.88,2.22,0,3.33,0,1.11,0,2.23,0,3.34a3.53,3.53,0,0,1,0,3.89,5,5,0,0,0,0,.55c0,1.48,0,3,0,4.45H331v-6.12A3.37,3.37,0,0,0,331.05,133Z"/><path class="cls-272" d="M332.16,124.15c0-.74,0-1.48,0-2.22s.55-1.33,1.27-1c1.14.45-.28.84-.18,1.41C333.39,123.07,333.39,124.05,332.16,124.15Z"/><path class="cls-273" d="M332.16,134.71v-3.89c2.07.81.71,2.59,1.1,3.87Z"/><path class="cls-274" d="M328.81,121.93c0,3.7,0,7.41,0,11.12h-2.24V121.93Z"/><path class="cls-275" d="M326.6,140.27v-6.66h2.22q0,3.33,0,6.66C328.07,140.29,327.34,140.81,326.6,140.27Z"/></g><g class="cls-276"><path class="cls-277" d="M350,115.24c3.34,2.12,3.81,4.05,2.18,8.91-2.55,2.92-4.28,3.42-7.79,2.24l0-.09c-1.53-.72-2.16-1.83-1.55-3.5.38-.57.77-1.13,1.59-1a2.13,2.13,0,0,1,.57,1c.69,1.44,2.78,2.09,3.81,1.07.22-.22-.52-.91-.34-1.51a.93.93,0,0,1,.82-.7c1.14.44,1.62-.43,2.22-1.09-1.29-.83-.83-2.83-2.46-3.48-1.28-.51-2.34-1.25-.2-2.18A1.48,1.48,0,0,1,350,115.24Z"/><path class="cls-278" d="M350,115.24l-1.19,0c-1.1.34-2,.71-3.31,0-1.1-.64-1.25,1.27-2.08,1.74-1.4.07-2.88-.37-4.11.7a1,1,0,0,1-.73-.32,2,2,0,0,1,0-2,1.46,1.46,0,0,1,1-.57c.39-.22.91.32,1.25-.21a.46.46,0,0,1,.19-.45C344.14,113.2,347.24,112.85,350,115.24Z"/><path class="cls-279" d="M342.14,123.56l1.15-.51c-.73,1.47.37,2.3,1.12,3.25A2.28,2.28,0,0,1,342.14,123.56Z"/><path class="cls-280" d="M343.37,117.38l-.09-.46c.69-2.44.88-2.49,3.07-1.73a8.29,8.29,0,0,0,2.45.09,3.24,3.24,0,0,0-.31.41c1.16,1.16,2.87,1.87,3.08,3.81.66-.85.57-.07.58.29a3.22,3.22,0,0,1-1.8,3.09c-.61.33-.88-.38-1-.95-.51-.5-1,.06-1.53,0-.94-.09-2.1-.22-2.26-1.18-.23-1.31,1.24-.85,1.92-1.28a6.89,6.89,0,0,1-3.17-1.43Z"/><path class="cls-281" d="M344.35,118.05c1.9,0,3.49,1.1,5.67,1.42-1.36,1.29-2.76.46-4,1,.84,1.37,2.26.72,3.35,1a.28.28,0,0,1,.13.21c0,.09-.07.17-.11.26l-.56.55c-1.18.46-2.7-.23-3.64,1.13-.12.18-.59-.27-.79-.56V122C344.38,120.67,344.37,119.36,344.35,118.05Z"/><path class="cls-282" d="M344.4,123.05c1.41-.72,2.76-1.89,4.43-.57,1.2,1.81-.26,2.21-1.46,2.61C345.55,125.7,344.36,125.22,344.4,123.05Z"/><path class="cls-283" d="M339.92,115.24l1-.59c.41.12,1.21.19.93.66C341.34,116.15,340.59,115.05,339.92,115.24Z"/></g></g></svg>