<svg id="Layer_1" data-name="Layer 1" xmlns="http://www.w3.org/2000/svg" xmlns:xlink="http://www.w3.org/1999/xlink" viewBox="0 0 843.24 1108.36"><defs><style>.cls-1{fill:#9ac465;}.cls-2{fill:#5abfb6;}.cls-3{fill:#52afa7;}.cls-4{fill:#074752;}.cls-5{fill:#f7d1a0;}.cls-6{fill:#e7536a;}.cls-7{fill:#31567a;}.cls-8{fill:#d1d2d5;}.cls-9{clip-path:url(#clip-path);}.cls-10{fill:#e8eaec;}.cls-11{fill:#f7b6af;}</style><clipPath id="clip-path"><path class="cls-1" d="M590.42,949.61c.84-7.55,3.24-20.76,11.88-30.17,24.54-26.71,55.44-7.75,58.86-20.18,1.62-5.93-8.45-16-19.71-19.41C613,871.37,612.71,892.31,604.9,886c-9.54-7.68,30.15-46.23,13.23-80.65-8.68-17.64-33.67-29.54-46.59-22.69-10.42,5.51-12.26,22.8-12.54,26.28-1.45,17.43,13.87,36.82,6.68,47.49-13.45,20-10.67-29.77-46.6-21.14-18.73,4.49-20.55,17-18.36,21.61,3.65,7.77,16.73.51,33.79,11.17,11.93,7.45,18.66,21.08,15.83,24.78-3.31,4.33-18.2-8.71-32.9-2.54-8.55,3.59-14.61,13.52-12.79,17.77,1.27,3,6.15,2.23,14.93,3.89,4.92.92,28,5.28,33.15,18.51.94,2.45,2.65,8.76-2.69,19.12Z"/></clipPath></defs><title>Artboard 2</title><path class="cls-2" d="M572.23,132.37v93.56c0,10.72,7.84,20.3,18.51,21.32a20.53,20.53,0,0,0,17.1-6.51c10.4-11.25,29.21-9.68,38.37,2.59a41.08,41.08,0,0,1,0,49.09c-9.16,12.27-28,13.84-38.37,2.59a20.53,20.53,0,0,0-17.1-6.51c-10.67,1-18.51,10.6-18.51,21.32v93.56h93.56c10.72,0,20.3,7.84,21.32,18.52A20.53,20.53,0,0,1,680.6,439c-11.25,10.39-9.68,29.21,2.59,38.37a41.06,41.06,0,0,0,49.08,0c12.28-9.16,13.85-28,2.6-38.37a20.5,20.5,0,0,1-6.51-17.11c1-10.67,10.6-18.51,21.32-18.51h93.56v-232a39,39,0,0,0-39-39Z"/><rect class="cls-3" x="720.53" y="143.46" width="70.15" height="4.93"/><rect class="cls-3" x="631.59" y="143.46" width="28.16" height="4.93"/><rect class="cls-3" x="827.23" y="184.93" width="4.93" height="193.82"/><path class="cls-4" d="M843.24,403.38H749.68c-10.72,0-20.3,7.84-21.32,18.52a20.53,20.53,0,0,0,6.51,17.1c11.25,10.39,9.68,29.2-2.59,38.37a41.08,41.08,0,0,1-49.09,0c-12.27-9.17-13.84-28-2.59-38.37a20.53,20.53,0,0,0,6.51-17.1c-1-10.68-10.6-18.52-21.32-18.52H572.23V497c0,10.72-7.84,20.29-18.52,21.31a20.49,20.49,0,0,1-17.1-6.5c-10.39-11.26-29.21-9.69-38.37,2.59a41.06,41.06,0,0,0,0,49.08c9.16,12.28,28,13.84,38.37,2.59a20.5,20.5,0,0,1,17.11-6.5c10.67,1,18.51,10.59,18.51,21.31V674.4h232a39,39,0,0,0,39-39Z"/><path class="cls-2" d="M572.23,674.4V580.84c0-10.73-7.84-20.3-18.52-21.32a20.49,20.49,0,0,0-17.1,6.5c-10.39,11.26-29.2,9.69-38.37-2.59a41.06,41.06,0,0,1,0-49.08c9.17-12.28,28-13.85,38.37-2.59a20.49,20.49,0,0,0,17.1,6.5c10.68-1,18.52-10.59,18.52-21.31V403.38H478.67c-10.73,0-20.3-7.84-21.32-18.51a20.49,20.49,0,0,1,6.5-17.1c11.26-10.4,9.69-29.21-2.59-38.38a41.1,41.1,0,0,0-49.08,0c-12.28,9.17-13.84,28-2.59,38.38a20.49,20.49,0,0,1,6.5,17.1c-1,10.67-10.59,18.51-21.31,18.51H301.21v232a39,39,0,0,0,39,39Z"/><rect class="cls-3" x="378.07" y="657.15" width="103.27" height="4.93"/><rect class="cls-3" x="516.45" y="657.15" width="36.07" height="4.93"/><rect class="cls-2" x="734.49" y="657.15" width="61.94" height="4.93"/><path class="cls-2" d="M372.24,380.59,415,297.35c4.9-9.54,2.29-21.64-6.74-27.42a20.5,20.5,0,0,0-18.18-2c-14.39,5.26-30.41-4.72-32.95-19.83a41.06,41.06,0,0,1,22.41-43.67c13.76-6.73,31.21.46,35.32,15.22a20.49,20.49,0,0,0,12.24,13.6c10,4,21.31-1,26.21-10.51L496,139.49,412.77,96.76c-9.54-4.9-14.48-16.25-10.51-26.21a20.51,20.51,0,0,1,13.6-12.24c14.76-4.11,22-21.56,15.22-35.32A41.08,41.08,0,0,0,387.42.57c-15.11,2.55-25.1,18.57-19.84,33a20.5,20.5,0,0,1-2,18.18c-5.78,9-17.88,11.63-27.42,6.74L254.91,15.72,149,222.12a39,39,0,0,0,16.89,52.51Z"/><rect class="cls-3" x="442.65" y="173.71" width="93.56" height="4.92" transform="translate(108.92 530.84) rotate(-62.78)"/><rect class="cls-3" x="332.12" y="297.87" width="4.93" height="106.8" transform="translate(-130.72 488.51) rotate(-62.83)"/><rect class="cls-2" x="237.47" y="292.77" width="4.93" height="19.82" transform="translate(-138.92 377.9) rotate(-62.83)"/><path class="cls-5" d="M396.27,381.69a22.94,22.94,0,0,0-6.62,3.8s-6.21-13-7.54-19.57-1.49-8.5-.54-15.95,2.61-14.44,12.69-15.38c8.15-.76,11.33,10.27,9.91,15.85s-6.44,14.39-5.66,19a90.46,90.46,0,0,0,3.11,11.35A20,20,0,0,0,396.27,381.69Z"/><path class="cls-6" d="M441.73,500.42c-18.86-11-42.29-24.43-49.58-40.92-7.52-17.05-8.18-70.43-7.57-80.2a4.12,4.12,0,0,1,1.79-3.12c6.65-4.59,14.13-4.1,15.53-2.37s-1.06,62.14,16.41,81.55c12.2,13.55,14.42,12.94,28.87,19.73,13.57,6.37,23.65,1,24.34,17.41S459.57,510.8,441.73,500.42Z"/><path class="cls-5" d="M438.92,503.27c-16.79,2.22-27.45-6.88-30.81-11.07s7.44-8.42,11.35-12.62c1.67-1.79,2.35-4.71,2.39-8.42.06-5,.2-20.9-1.21-28l32.53,3.52s-1.09,16.61-1.07,22.82a9,9,0,0,0,.41,2.89c1.24,3.87,5.29,5.51,11.74,10.59C472.1,489.14,455.71,501,438.92,503.27Z"/><path class="cls-5" d="M467.33,442.19c-9.62,16.4-14.57,24.21-24.71,28s-18.74,3.72-24.37,1c-7-3.36-11.79-20.54-10.19-28.66,1.65-8.41,8.16-29,19.22-46.71,5.61-9,21.76-15.39,32.83-10.1S490.83,402.11,467.33,442.19Z"/><path class="cls-4" d="M427,415.12c-5,15.77-3.88,22.94.48,32.23s12.63,14.3,18.58,14.75c7.52.58,9.24-1.46,22.34-13.74,5.48-5.13,14.55-12.22,19.48-29.74,2.51-8.88-4.13-23.92-15.59-29S439.29,376.57,427,415.12Z"/><path class="cls-5" d="M418.79,425c-1.78,5.92.15,11.78,4.31,13.08s9-2.43,10.74-8.35-.16-11.77-4.32-13.08S420.56,419.06,418.79,425Z"/><path class="cls-4" d="M435.75,408.7c-5.8-8.24-13.94-16.25-6-21.92s27.91-11.95,46.13,3.57C497.48,408.7,435.75,408.7,435.75,408.7Z"/><path class="cls-4" d="M358.8,973.82c17.31-.94,32.42-5.6,31.7,5-.6,9-1.39,8.24-31,8.41-17.33.1-31.5-1.31-31.7-5S341.49,974.76,358.8,973.82Z"/><path class="cls-4" d="M442.29,961.94c16.37-5.71,32.42-5.6,31.71,5-.61,9,.59,8.25-29,8.42-17.33.1-21.84-3.49-19-5.89C430.66,965.58,435.36,964.36,442.29,961.94Z"/><path class="cls-6" d="M418.72,474.14c15.95,0,24.5-.72,43.2,3.77,13.06,3.14,27.09,11.58,22,50.58,0,0-9.78,96-10.35,109.07-1.36,30.87,7.51,37.14-17.38,34.92-26.23-2.34-57.47-1.11-70.13-2.62-3.95-.47-2.83-9.87-1.3-21.41,1.25-9.34,8.72-82.43,7.71-116.77C392.36,508,386,474.07,418.72,474.14Z"/><path class="cls-7" d="M471.25,950.41c.94,9.27,2.07,12.72,2.07,12.72s-6.11,1.13-25.23-1.24c-1.87-.24-5.12-27.54-6.35-40.65-1.28-13.4-7.15-77-6.7-92.09s-2.32-105.7-2.32-105.7h-6.6s-18.33,47.11-20.94,63.91c-3.95,25.67-6.95,41.1-6.56,50.11.64,16.12-7,110.72-8.47,119.54a66.83,66.83,0,0,0,0,18.14s-14,4.29-28.48.54c0,0,2-134.92,2.46-154.82.29-13.75,10.1-84,15.62-122.55.1-.89.2-1.73.34-2.56,2-13.75,3.31-22.87,3.31-22.87s0-3.74,3.3-4.18a84.53,84.53,0,0,1,10.54-1c.79-.05,1.68-.05,2.61-.15,6.41-.2,16.26-.39,31.69-.39,36.61,0,42.47.88,42.47,3.4,0,0-4.43,130.87-5.37,151.62S470.32,941.15,471.25,950.41Z"/><path class="cls-4" d="M399.85,667.57c-.93.1-1.82.1-2.61.15a20.14,20.14,0,0,1,1.28,7.14,21,21,0,0,1-18.43,20.9c-.14.83-.24,1.67-.34,2.56A23.62,23.62,0,0,0,401,674.86,24,24,0,0,0,399.85,667.57Z"/><path class="cls-5" d="M284.75,468.71a22.94,22.94,0,0,0-1.18,7.54s-14.06-3.31-20-6.36-7.56-4.15-12.78-9.55-9.64-11.07-4.07-19.52c4.5-6.84,15.1-2.43,18.57,2.18s7.2,14,11.29,16.3a89.74,89.74,0,0,0,10.8,4.67A20.46,20.46,0,0,0,284.75,468.71Z"/><path class="cls-6" d="M405.82,507.5c-20.35,7.85-45.51,17.72-62.94,13.08-18-4.79-60.07-37.66-67.32-44.24a4.13,4.13,0,0,1-1.31-3.35c.58-8.06,5.64-13.59,7.86-13.6,2.41,0,47.83,39.69,73.9,38.19,18.2-1,19.12-3.16,33.45-10.18,13.46-6.6,15.59-17.81,28.81-8.11S425.07,500.07,405.82,507.5Z"/><path class="cls-8" d="M590.42,949.61c.84-7.55,3.24-20.76,11.88-30.17,24.54-26.71,55.44-7.75,58.86-20.18,1.62-5.93-8.45-16-19.71-19.41C613,871.37,612.71,892.31,604.9,886c-9.54-7.68,30.15-46.23,13.23-80.65-8.68-17.64-33.67-29.54-46.59-22.69-10.42,5.51-12.26,22.8-12.54,26.28-1.45,17.43,13.87,36.82,6.68,47.49-13.45,20-10.67-29.77-46.6-21.14-18.73,4.49-20.55,17-18.36,21.61,3.65,7.77,16.73.51,33.79,11.17,11.93,7.45,18.66,21.08,15.83,24.78-3.31,4.33-18.2-8.71-32.9-2.54-8.55,3.59-14.61,13.52-12.79,17.77,1.27,3,6.15,2.23,14.93,3.89,4.92.92,28,5.28,33.15,18.51.94,2.45,2.65,8.76-2.69,19.12Z"/><path class="cls-1" d="M590.42,949.61c.84-7.55,3.24-20.76,11.88-30.17,24.54-26.71,55.44-7.75,58.86-20.18,1.62-5.93-8.45-16-19.71-19.41C613,871.37,612.71,892.31,604.9,886c-9.54-7.68,30.15-46.23,13.23-80.65-8.68-17.64-33.67-29.54-46.59-22.69-10.42,5.51-12.26,22.8-12.54,26.28-1.45,17.43,13.87,36.82,6.68,47.49-13.45,20-10.67-29.77-46.6-21.14-18.73,4.49-20.55,17-18.36,21.61,3.65,7.77,16.73.51,33.79,11.17,11.93,7.45,18.66,21.08,15.83,24.78-3.31,4.33-18.2-8.71-32.9-2.54-8.55,3.59-14.61,13.52-12.79,17.77,1.27,3,6.15,2.23,14.93,3.89,4.92.92,28,5.28,33.15,18.51.94,2.45,2.65,8.76-2.69,19.12Z"/><g class="cls-9"><path class="cls-1" d="M648.82,1108.36c1.94-17.49,7.49-48.14,27.54-70,56.94-62,128.63-18,136.55-46.82,3.77-13.75-19.58-37.25-45.73-45-66.08-19.67-66.65,28.9-84.78,14.29-22.13-17.82,70-107.25,30.68-187.09C693,732.78,635,705.19,605,721.07c-24.16,12.8-28.43,52.91-29.1,61-3.34,40.45,32.19,85.42,15.52,110.19-31.21,46.37-24.77-69.06-108.13-49.06-43.45,10.43-47.66,39.35-42.6,50.13,8.48,18,38.82,1.2,78.4,25.92,27.69,17.29,43.29,48.91,36.72,57.51-7.67,10-42.22-20.21-76.33-5.91-19.82,8.32-33.87,31.36-29.67,41.24,3,7,14.27,5.17,34.64,9,11.42,2.15,65,12.25,76.9,42.95,2.21,5.69,6.17,20.32-6.23,44.34Z"/></g><path class="cls-10" d="M623.38,974.29a53,53,0,0,1-54,53c-29.16-.54-52-25.56-52-54.72V942.26a12.72,12.72,0,0,1,12.73-12.72h80.48a12.72,12.72,0,0,1,12.73,12.72Z"/><path class="cls-6" d="M249.88,595.47H72.1a9.84,9.84,0,0,1-9.81-9.81h0a9.83,9.83,0,0,1,9.81-9.81H249.88a9.84,9.84,0,0,1,9.82,9.81h0A9.85,9.85,0,0,1,249.88,595.47Z"/><path class="cls-5" d="M335.77,233.72a18.3,18.3,0,0,1-2.8,5.38s10.54,4.5,15.77,5.35,7.14-2.42,13-3.41,7.73-1.3,8.15-9.33c.34-6.49-6-9.05-10.42-7.73s-10.39,8-14.08,7.57a71.71,71.71,0,0,1-9.11-2.1A16,16,0,0,1,335.77,233.72Z"/><path class="cls-11" d="M199.23,160.67A21.72,21.72,0,0,0,220,158.28c2.71-2.11-3.4-6.32-5.22-9.51-.77-1.36-.77-3.27-.25-5.58A63.22,63.22,0,0,1,218.77,132l-20.14-8.61s-1.75,10.5-2.66,14.36a6.12,6.12,0,0,1-.68,1.73c-1.34,2.23-4.1,2.66-8.86,4.88C180.65,147,189.11,156.83,199.23,160.67Z"/><path class="cls-5" d="M196.31,113.92c.09,14.34.37,21.31,5.36,27.59s10.38,9.49,14.88,9.86c5.62.45,14.8-9,16.73-14.88,2-6.12,5.37-22,4.84-37.77-.27-8-8.05-18.26-16.89-19S196.08,78.88,196.31,113.92Z"/><path class="cls-5" d="M239.09,121.39c-1.58,5.1-5,8.56-7.7,7.73s-3.56-5.63-2-10.73,5-8.56,7.7-7.74S240.66,116.29,239.09,121.39Z"/><path class="cls-11" d="M200.67,113.48c1.62,5.09.76,9.9-1.9,10.75s-6.14-2.6-7.75-7.69-.76-9.9,1.91-10.74S199.06,108.39,200.67,113.48Z"/><path class="cls-4" d="M172.69,567.45c-14.44-1.76-26.84-6.52-26.84,2.42,0,7.59.71,7,25.47,8.8,14.52,1.05,26.46.67,26.84-2.43S187.13,569.21,172.69,567.45Z"/><path class="cls-6" d="M159.79,147.83c-17.92,16.58-47.34,55.19-51.64,75.82A8.86,8.86,0,0,0,114.51,234l64.37,17.46a3.29,3.29,0,0,0,3.8-1.73L185,245a3.26,3.26,0,0,0-1.55-4.4l-48.25-25.54c13.88-26.23,23.71-31.7,23.71-31.7-1.65,32.53-30.59,105.69-32.49,114.41-2.34,10.77-4.12,19.56-.39,20.34,11.92,2.49,40,4.08,64.86,8.12,17.79,2.9,17.9-3.74,15.45-32.93-3.7-44,8.11-62.09,17.15-77.28a44.15,44.15,0,0,0,6.15-25.76l27.86,37a16.3,16.3,0,0,0,10.39,5.87l69.95,7.73a4.85,4.85,0,0,0,5.52-4.88l0-2.3a4.84,4.84,0,0,0-3.62-4.61l-65.91-17.37s-18.6-30-27.4-42.34c-3.7-5.19-10.66-20.41-24.41-22.95C178.6,138.43,172.56,136,159.79,147.83Z"/><path class="cls-7" d="M207.84,314.72s-.55,7.15-1.43,18.13c-.1,1-.15,2-.25,3.11-2.71,33.41-7.88,96-9.9,110.28-2.76,19.21-23.41,85.88-35.09,120.57a4.06,4.06,0,0,1-3.94,2.81l-6.9-.15a4.13,4.13,0,0,1-4-4.58c2-23.26,16.75-98.5,20.25-115,3.16-15.08,5.37-70.12-2.71-95-1.33-4.14-7.34-3.89-8.47.29-5.62,20.31-18.09,64.51-25.58,83.77-8.72,22.32-107.27-5.07-125-10.25a2.85,2.85,0,0,1-2-2.51l-.34-5a2.75,2.75,0,0,1,2.9-3.05c17,1.43,96.83,7.34,100.57-8,3.4-14.05,10.25-55,14.39-80.32v0c.25-1.28.45-2.47.64-3.65,1.68-10.45,2.76-17.44,2.76-17.44s.35-3.6,3.4-3.7h.4c.64-.05,1.43-.1,2.51-.1,4.14,0,13,.25,38.43,2.91,14.59,1.53,24,2.61,29.91,3.5.89.1,1.73.25,2.47.34C206.56,312.7,207.93,313.54,207.84,314.72Z"/><path class="cls-4" d="M15,441.59c-3.28-14.18-8.39-25.1-11.43-24.4s-6.33,3,.42,26.94c4,14,8.39,25.11,11.43,24.4S18.24,455.77,15,441.59Z"/><path class="cls-6" d="M150.79,223.35l-9.68-5.13-12,19.75,16,4.34C147.06,236,149,229.63,150.79,223.35Z"/><path class="cls-4" d="M232.88,125.33c-5.79,14.61-2.23,41.31-7.23,65s-42.52,61.51-74.86,34.6C113.62,194,161.28,159.68,170,137.81c9.77-24.56,9.5-43.73,22.49-57.24,12.38-12.88,30.79-7.46,38.46-1C246.94,93.15,237.7,113.15,232.88,125.33Z"/><path class="cls-6" d="M13,1030a4.26,4.26,0,0,1-.61,0,4.91,4.91,0,0,1-4.28-5.49l54.2-439.42a4.93,4.93,0,0,1,9.78,1.21L17.91,1025.67A4.92,4.92,0,0,1,13,1030Z"/><path class="cls-6" d="M309,1030a4.93,4.93,0,0,1-4.89-4.33l-54.2-439.41a4.93,4.93,0,0,1,9.78-1.21l54.2,439.42a4.91,4.91,0,0,1-4.29,5.49A4,4,0,0,1,309,1030Z"/><path class="cls-6" d="M274.61,756.48H46.76a4.93,4.93,0,0,1,0-9.86H274.61a4.93,4.93,0,1,1,0,9.86Z"/><path class="cls-6" d="M293.94,904.61H28.49a4.93,4.93,0,1,1,0-9.86H293.94a4.93,4.93,0,0,1,0,9.86Z"/><path class="cls-4" d="M200,317.68a20,20,0,0,1,.89-6c-.74-.09-1.58-.24-2.47-.34a22.47,22.47,0,0,0-.88,6.31A23.65,23.65,0,0,0,206.16,336c.1-1.09.15-2.12.25-3.11A21.21,21.21,0,0,1,200,317.68Z"/><path class="cls-4" d="M130.08,305c-1.08,0-1.87.05-2.51.1a20.43,20.43,0,0,1,.69,5.23A21,21,0,0,1,121,326.2c-.19,1.18-.39,2.37-.64,3.65a23.57,23.57,0,0,0,10.35-19.56A21.21,21.21,0,0,0,130.08,305Z"/></svg>