<svg id="Layer_1" data-name="Layer 1" xmlns="http://www.w3.org/2000/svg" viewBox="0 0 803.34 897"><defs><style>.cls-1{fill:#114753;}.cls-2{fill:#5abfb6;}.cls-3{fill:#fff;}.cls-4{opacity:0.2;}.cls-5{fill:#074752;}.cls-6{fill:#31567a;}.cls-7{fill:#f7d1a0;}.cls-8{fill:#212226;}.cls-9{fill:#999eb2;}.cls-10{fill:#eb7d7e;}.cls-11{fill:#ed4848;}.cls-12{fill:#023842;}.cls-13{fill:#9ac465;}.cls-14{fill:#d1d2d5;}.cls-15{fill:#99c565;}.cls-16{fill:#1f3a49;}</style></defs><title>Artboard 13</title><rect class="cls-1" x="237.11" y="267.6" width="66.69" height="469.48" transform="translate(540.91 1004.68) rotate(180)"/><path class="cls-2" d="M519,62.76a62.76,62.76,0,1,0-111.28,39.73,54.8,54.8,0,0,1,11.94,30.25l1.16,13.68h70.84l1.16-13.67a54.07,54.07,0,0,1,11.81-30.09A62.35,62.35,0,0,0,519,62.76Z"/><path class="cls-3" d="M471.15,148.7H441.33l-7.88-59c0-5.07,2.92-11.72,7.71-11.72,2.17,0,3.57,2,4.59,3.44l.44.61c.14-.18.28-.39.43-.61C447.64,80,449,78,451.21,78s3.58,2,4.6,3.45c.15.21.29.42.43.6.14-.19.28-.4.44-.61,1-1.45,2.41-3.44,4.59-3.44s3.57,2,4.59,3.44c.15.21.3.43.44.61.13-.18.28-.4.44-.61,1-1.45,2.41-3.44,4.58-3.44,4.8,0,7.74,6.65,7.74,11.42Zm-25.83-4.55h21.84l7.37-55.05c0-3.07-1.87-6.07-2.95-6.51A13.47,13.47,0,0,0,470.46,84a14.87,14.87,0,0,1-1,1.29,4.33,4.33,0,0,1-6.39,0c-.3-.34-.62-.8-1-1.29-.22-.31-.56-.8-.86-1.16-.3.36-.65.85-.87,1.16-.34.49-.67,1-1,1.29a4.33,4.33,0,0,1-6.39,0c-.3-.34-.62-.8-1-1.28-.23-.32-.58-.81-.88-1.17-.3.36-.64.85-.87,1.17a14.45,14.45,0,0,1-.95,1.27,4.32,4.32,0,0,1-6.39,0A13.08,13.08,0,0,1,442,84a9.17,9.17,0,0,0-1.3-1.59c-.59.1-2.75,3.34-2.75,7Z"/><g class="cls-4"><polygon points="419.82 134.59 420.82 146.42 491.66 146.42 492.66 134.59 419.82 134.59"/></g><path class="cls-5" d="M630.36,395.47s-29.79,6.62-32.86,13.24h47.73l-6.12-13.24Z"/><path class="cls-5" d="M661.33,461.42l-11.59,26.52s-6.85.66-9,7.16l25.06-2.47,13.95-21.75-5.68-9.46Z"/><path class="cls-6" d="M609.93,230.93s-51.06,76.91-46.33,94.56S627,397.67,627,397.67h15.6S614,325.8,596.06,321.08l51.86-64-6.78-26.16Z"/><g class="cls-4"><path d="M633.91,250.56l-66.84,82.11c13.65,22,59.88,65,59.88,65h15.6S614,325.8,596.06,321.08l44.88-55.37Z"/></g><path class="cls-6" d="M618.44,236.13,628.73,264l7.68,88.88,23.32,111.26h17.65s1-93.53-12.29-119.53l9.61-117Z"/><path class="cls-5" d="M583.56,72.3s-16.46-9.9-19.94-16.18,1.81-5.3,1.81-5.3-7.81-11.57-4-15.48,17.85,3.35,17.85,3.35-4.88-9.07-1.4-10.74,7.08,3.84,16.28,7.29c6.36,2.38,22.08,6.24,21.94,14.19,7.53,2.93,12.27,12.83,9.06,21.48s-9.76,24-9.76,24Z"/><polygon class="cls-7" points="558.24 161.91 539.17 179.71 479.76 156.82 469.99 149.46 465.73 151.19 470.93 158.28 453.75 160.17 456.59 173.09 482.75 172.78 544.53 202.09 575.42 175.77 558.24 161.91"/><rect class="cls-8" x="434.99" y="154.95" width="42.5" height="51.43" rx="12.67" ry="12.67"/><rect class="cls-9" x="419.65" y="142.62" width="73.18" height="53.87"/><g class="cls-4"><polygon points="492.83 151.42 419.65 158 419.65 154.82 492.83 148.24 492.83 151.42"/></g><g class="cls-4"><polygon points="492.83 162.38 419.65 168.96 419.65 165.78 492.83 159.2 492.83 162.38"/></g><g class="cls-4"><polygon points="492.83 173.34 419.65 179.92 419.65 176.74 492.83 170.16 492.83 173.34"/></g><g class="cls-4"><polygon points="492.83 184.3 419.65 190.88 419.65 187.7 492.83 181.12 492.83 184.3"/></g><polygon class="cls-10" points="577.31 131.17 550.12 164.98 574.16 182.47 593.25 161.12 577.31 131.17"/><path class="cls-11" d="M610.64,106.35c11.38-2.21,32.62,3.79,41.84,22.22S682,201.86,679.43,234.48c0,0-39.95,18.44-73,4.73,0,0-3.36-40.66-8.42-57.92s-14.36-17.49-20.66-50.12C577.31,131.17,592.44,109.9,610.64,106.35Z"/><g class="cls-4"><path d="M605.33,228.08l38.5-78.62L598,181.41C601.37,193,604,214.81,605.33,228.08Z"/></g><path class="cls-7" d="M598.9,159.7l-22.38,25.53L504.66,168s-18.6-15.07-20.49-13.65,5.36,10.56,5.36,10.56L472.19,168l-11.5-.88,7.25,16.23,13.55,1.89,21-2.76,80.22,28,41.92-33.72Z"/><path class="cls-10" d="M640.19,124.17c-10.24-6.71-20.8.86-29,10s-19.62,25.53-19.62,25.53l30.21,25.53s22-29.19,24.58-36.71C650.28,137.16,647.2,128.76,640.19,124.17Z"/><path class="cls-7" d="M581.19,60l-3.35,17.71h5s-.69,8.79-.69,12.55,2.09,7.53,11.08,6.42l2,24.26s11.85,5.16,22.45-13.94l-4.6-23.43A8.34,8.34,0,0,0,620,76.07c.56-6.56-7.67-3.35-7.67-3.35l-1.95,12.55-5.86,1.26.56-21.2s-13.63,2.78-17.44-.84A19.87,19.87,0,0,1,584.26,60Z"/><polygon class="cls-6" points="642.25 331.1 540.13 331.1 537.59 322.03 639.71 322.03 642.25 331.1"/><polygon class="cls-6" points="654.1 373.57 551.98 373.57 549.45 364.49 651.57 364.49 654.1 373.57"/><polygon class="cls-6" points="665.96 416.03 563.84 416.03 561.3 406.95 663.43 406.95 665.96 416.03"/><polygon class="cls-6" points="677.82 458.49 575.7 458.49 573.16 449.42 675.28 449.42 677.82 458.49"/><polygon class="cls-6" points="689.68 500.95 587.55 500.95 585.02 491.88 687.14 491.88 689.68 500.95"/><polygon class="cls-6" points="701.53 543.42 599.41 543.42 596.88 534.34 699 534.34 701.53 543.42"/><polygon class="cls-6" points="713.39 585.88 611.27 585.88 608.73 576.8 710.86 576.8 713.39 585.88"/><polygon class="cls-6" points="725.25 628.34 623.13 628.34 620.59 619.27 722.71 619.27 725.25 628.34"/><polygon class="cls-6" points="737.1 670.81 634.98 670.81 632.45 661.73 734.57 661.73 737.1 670.81"/><polygon class="cls-6" points="748.96 713.27 646.84 713.27 644.3 704.19 746.43 704.19 748.96 713.27"/><polygon class="cls-6" points="760.82 755.73 658.7 755.73 656.16 746.66 758.28 746.66 760.82 755.73"/><polygon class="cls-6" points="772.67 798.2 670.55 798.2 668.02 789.12 770.14 789.12 772.67 798.2"/><polygon class="cls-6" points="784.53 840.66 682.41 840.66 679.88 831.58 782 831.58 784.53 840.66"/><polygon class="cls-11" points="701.22 887.69 689.87 887.69 520.47 281.03 531.82 281.03 701.22 887.69"/><polygon class="cls-11" points="803.34 887.69 791.99 887.69 622.59 281.03 633.94 281.03 803.34 887.69"/><path class="cls-5" d="M327.77,710.39,314.6,874.46a7.39,7.39,0,0,0,14.66,1.83L356.83,714Z"/><path class="cls-5" d="M604.45,710.39l13.17,164.07A7.39,7.39,0,0,1,603,876.29L575.39,714Z"/><path class="cls-1" d="M261.08,694.07,247.91,858.15A7.39,7.39,0,0,0,262.57,860L290.14,697.7Z"/><path class="cls-5" d="M537.76,694.07l13.18,164.08A7.4,7.4,0,0,1,536.27,860L508.71,697.7Z"/><rect class="cls-1" x="303.8" y="267.6" width="324.63" height="469.48"/><rect class="cls-1" x="314.84" y="277.68" width="302.54" height="449.31"/><path class="cls-3" d="M610.13,628a93.83,93.83,0,0,0,.55-11.91,90.9,90.9,0,0,0-1.16-11.87l-18.88.48a72.89,72.89,0,0,0-4.07-13.82l16.17-9.9a91.76,91.76,0,0,0-12.5-20.24l-16,9.81a73.57,73.57,0,0,0-10.47-9.95l9-16.51a91.3,91.3,0,0,0-20.86-11.45l-9.05,16.65a72,72,0,0,0-14-3.36L528.31,527a92,92,0,0,0-11.91-.56,94.49,94.49,0,0,0-11.87,1.16l.48,18.88a72.67,72.67,0,0,0-13.82,4.07l-9.9-16.17a92.28,92.28,0,0,0-20.24,12.5l9.81,16a74.1,74.1,0,0,0-9.95,10.47l-16.52-9a92.22,92.22,0,0,0-11.45,20.85l16.66,9.06a72.51,72.51,0,0,0-3.37,14l-18.88.48a94.08,94.08,0,0,0-.55,11.92A92.5,92.5,0,0,0,428,632.63l18.88-.48A72.77,72.77,0,0,0,450.91,646l-16.17,9.89a91.3,91.3,0,0,0,12.5,20.24l16-9.81a73,73,0,0,0,10.47,10l-9,16.52a91.62,91.62,0,0,0,20.85,11.45l9.06-16.65a73.23,73.23,0,0,0,14,3.36l.48,18.88a92.1,92.1,0,0,0,11.91.55A90.9,90.9,0,0,0,533,709.2l-.48-18.88a72.77,72.77,0,0,0,13.83-4.07l9.89,16.17a91.63,91.63,0,0,0,20.24-12.49l-9.81-16a74.18,74.18,0,0,0,10-10.48l16.52,9a92.22,92.22,0,0,0,11.45-20.85l-16.65-9.06a73.51,73.51,0,0,0,3.36-14Zm-91,7.42A17,17,0,1,1,535.73,618,17,17,0,0,1,519.17,635.41Z"/><path class="cls-9" d="M518.72,659.78a41.36,41.36,0,1,1,41.37-42.41h0a41.41,41.41,0,0,1-40.3,42.4Zm0-78.16h-1a36.81,36.81,0,0,0-24.42,63.47,36.06,36.06,0,0,0,26.3,10.12,36.87,36.87,0,0,0,35.86-37.73h0a36.8,36.8,0,0,0-36.77-35.87Z"/><path class="cls-9" d="M518.73,676.55a58.13,58.13,0,1,1,58.12-59.61h0a58.19,58.19,0,0,1-56.63,59.59C519.73,676.55,519.22,676.55,518.73,676.55Zm0-111.7c-.47,0-.93,0-1.4,0a53.57,53.57,0,1,0,54.92,52.19h0a53.57,53.57,0,0,0-53.52-52.21Z"/><path class="cls-3" d="M561.23,434.61a109.62,109.62,0,0,0,0-31.12H536.52a94.76,94.76,0,0,0-4.87-18.22l21.48-12.4A119.8,119.8,0,0,0,537.46,346l-21.3,12.3a97.09,97.09,0,0,0-13.37-13.37l12.3-21.3a119.8,119.8,0,0,0-26.89-15.67l-12.4,21.48a95.39,95.39,0,0,0-18.21-4.87v-24.7a108.72,108.72,0,0,0-31.13,0v24.7a95.39,95.39,0,0,0-18.21,4.87l-12.4-21.48A120,120,0,0,0,369,323.61l12.3,21.3a96.54,96.54,0,0,0-13.37,13.37L346.59,346a119.8,119.8,0,0,0-15.67,26.89l21.48,12.4a94.76,94.76,0,0,0-4.87,18.22H322.82a108.65,108.65,0,0,0,0,31.12h24.71a94.66,94.66,0,0,0,4.87,18.21l-21.48,12.4a119.58,119.58,0,0,0,15.67,26.89l21.3-12.29a96.47,96.47,0,0,0,13.37,13.36L369,514.48a119.58,119.58,0,0,0,26.89,15.67l12.4-21.48a94.66,94.66,0,0,0,18.21,4.87v24.71a108.72,108.72,0,0,0,31.13,0V513.54a94.66,94.66,0,0,0,18.21-4.87l12.4,21.48a119.8,119.8,0,0,0,26.89-15.67l-12.3-21.3a97,97,0,0,0,13.37-13.36l21.3,12.29a119.58,119.58,0,0,0,15.67-26.89l-21.48-12.4a94.66,94.66,0,0,0,4.87-18.21ZM442,441.28a22.23,22.23,0,1,1,22.23-22.23A22.24,22.24,0,0,1,442,441.28Z"/><path class="cls-9" d="M442,472.45A53.41,53.41,0,1,1,495.43,419,53.47,53.47,0,0,1,442,472.45Zm0-102.26A48.86,48.86,0,1,0,490.88,419,48.92,48.92,0,0,0,442,370.19Z"/><path class="cls-9" d="M442,494.39A75.35,75.35,0,1,1,517.37,419,75.43,75.43,0,0,1,442,494.39Zm0-146.14A70.8,70.8,0,1,0,512.82,419,70.88,70.88,0,0,0,442,348.25Z"/><path class="cls-5" d="M158.66,859.53,147,891.68h63.13S193,876.23,175.05,873.39l-4.42-9.45Z"/><path class="cls-5" d="M290.88,859.53l-8.67,32.15h63.13s-17.11-15.45-35.08-18.29l-4.41-9.45Z"/><path class="cls-6" d="M287,540.14l22.22,326.69H287s-29.31-113.94-25.53-145.61L221.7,540.14Z"/><path class="cls-6" d="M265.44,544.87,174,866.83H152.68s14.65-136.16,33.56-161l12.77-161h68.55"/><path class="cls-7" d="M316.73,381.05l92.91-70.21,24.34-21L450.06,291l4.73,6.86-19.15,9.22s14.18,3.31,14.18,5-22.22,5.67-30,5.91l-73,73.52-31.92,18.91Z"/><path class="cls-11" d="M290.57,388.06l30.18-16.71s11.35,20.33,12.53,38.3l-51.06,43.5Z"/><polygon class="cls-7" points="148.46 534.1 163.55 498.38 182.46 508.78 170.17 540.14 148.46 534.1"/><path class="cls-7" d="M247.43,340.25l12.66,20.69-6.33,3s4.32,12.46,2.31,17.08-8.64,7.23-8.64,11.45,1.81,12.86,1.81,12.86l-23.86,9.83s-3.26-21.48-6.27-23.69-22.3-11.05-20.09-25.92l35.36-28.32Z"/><path class="cls-5" d="M228.55,380.23c-3.21.2-6.83-.61-9-6.43s1-7.84,3.82-8.24,7.43,10.65,9.15,9.24-1.12-15.27-1.12-15.27c4.22-5.62,1.19-13.66,1.19-13.66l-5.3-2.93L199,365.56c-2.21,14.87,17.07,23.71,20.09,25.92,1,.73,2,3.09,2.8,5.9C231.45,391,228.55,380.23,228.55,380.23Z"/><path class="cls-11" d="M186.24,434.71c24.59-18,85.42-34.36,104.33-46.65,0,0-5.13,129.48,5.74,171.56,0,0-43.65,9.61-106.37,5.83C189.94,565.45,202,474.11,186.24,434.71Z"/><g class="cls-4"><path d="M205.79,475.8l-11.32,7.07c.47,11.8.23,23.57-.31,34Z"/></g><path class="cls-11" d="M186.24,434.71c-12.92,10.08-33.56,69.66-33.56,69.66l39.62,14.89,13.49-43.46S199.8,443.53,186.24,434.71Z"/><g class="cls-4"><path d="M244.52,476a37.46,37.46,0,0,0-3.87-12.31l-9.51,3a27.73,27.73,0,0,0-5.63-6.72l4.61-8.84a37.93,37.93,0,0,0-11.45-6L214.06,454a27.66,27.66,0,0,0-8.73-.77l-3-9.51A37.12,37.12,0,0,0,190,447.62l3,9.5a27.73,27.73,0,0,0-6.72,5.63l-8.83-4.61a37.76,37.76,0,0,0-6,11.46l8.83,4.6a27.69,27.69,0,0,0-.77,8.73l-9.5,3a37.36,37.36,0,0,0,1.39,6.33,38.27,38.27,0,0,0,2.48,6l9.51-3a27.5,27.5,0,0,0,5.63,6.72l-4.61,8.84a37.82,37.82,0,0,0,11.45,6l4.61-8.84a27.66,27.66,0,0,0,8.73.77l3,9.51a38.61,38.61,0,0,0,6.33-1.4,37.71,37.71,0,0,0,6-2.48l-3-9.5a27.73,27.73,0,0,0,6.72-5.63l8.83,4.6a37.82,37.82,0,0,0,6-11.45l-8.83-4.6A27.42,27.42,0,0,0,235,479Zm-34.81,12.65A8.07,8.07,0,1,1,215,478.56,8.08,8.08,0,0,1,209.71,488.68Z"/></g><path class="cls-3" d="M248.3,472.25a36.86,36.86,0,0,0-1.4-6.33,37.68,37.68,0,0,0-2.47-6l-9.51,3a27.5,27.5,0,0,0-5.63-6.72l4.61-8.83a37.82,37.82,0,0,0-11.45-6l-4.61,8.83a27.37,27.37,0,0,0-8.73-.76l-3-9.51a37.61,37.61,0,0,0-6.33,1.4,38.63,38.63,0,0,0-6,2.47l3,9.51a27.73,27.73,0,0,0-6.72,5.63l-8.83-4.61a37.93,37.93,0,0,0-6,11.45l8.83,4.61a27.69,27.69,0,0,0-.77,8.73l-9.5,3a37.61,37.61,0,0,0,1.4,6.33,38.23,38.23,0,0,0,2.47,6l9.51-3a27.73,27.73,0,0,0,5.63,6.72L188.23,507a37.49,37.49,0,0,0,11.45,6l4.61-8.83a27.66,27.66,0,0,0,8.73.77l3,9.51a37.12,37.12,0,0,0,12.32-3.88l-3-9.51a27.69,27.69,0,0,0,6.72-5.62l8.83,4.6a37.6,37.6,0,0,0,6-11.45L238,484a27.66,27.66,0,0,0,.77-8.73ZM213.49,484.9a8.07,8.07,0,1,1,5.28-10.12A8.08,8.08,0,0,1,213.49,484.9Z"/><path class="cls-5" d="M224,407.48s4.67,3.64,14.55,2.52v11.88l-16.5-5.36Z"/><path class="cls-5" d="M238.59,410l8.63,9.05,8.23-15.46-6.33-5.35S246.82,404.26,238.59,410Z"/><g class="cls-4"><polygon points="247.43 340.25 234.38 337.24 199.02 365.56 251.87 347.51 247.43 340.25"/></g><path class="cls-10" d="M199,365.56s70.11-33.15,69.71-34.35-19.89,6-19.89,6-8.24-16.28-22.3-14.07-28.73,16.88-29.93,23.91S199,365.56,199,365.56Z"/><path class="cls-7" d="M146.77,544.87c3.37,8.56,20.33,8.74,78.24-31.44,0,0,13.71-1.19,19.39-6.15S255.74,490,255.74,490l-2.36-1.41s-16.31,9-19.15,7.8,5-11.35,3.78-12.06-13.94,8.75-18.43,17c0,0-40,15.84-55.32,22.46S143.69,537.07,146.77,544.87Z"/><path class="cls-7" d="M679.87,693.63l35.55,23.69-17.71,55.26s-12.87,5.75-15.23,10.2S676,793,678.3,792.71s9.15-6,10.46-6-2.09,15.68-2.09,15.68,11.76-1.57,16.2-8.36S710,775.2,710,775.2s21.13-39.48,26.36-66.93c0,0-39.74-34.24-52.55-39.21S663.14,684.32,679.87,693.63Z"/><path class="cls-6" d="M646.28,762l-4.35,7S545,764,532,780.82s16.86,46.66,52.15,69.4,23.14,15.69,23.14,15.69-33.72,4.7-33.33,9.8,64.31,0,64.31,0l-57.25-65.49,80.38,3.93,17.25-48.23Z"/><path class="cls-6" d="M649.09,758.86l-2.81,18.82S601.45,806.3,583.8,831s-32.23,51.56-25.32,62c12,18,125.7-30.19,125.7-30.19l-3.53,18.82s-16.77,10.59-14.85,13.33S701,887.47,701,887.47s10.2-42.74,6.67-51.76S682,847.08,682,847.08l-57.08,7.08s43.23-20.41,66.75-38.45c17.36-13.3,21.35-36.46,10.48-56.85Z"/><path class="cls-7" d="M682,847.08l-41.87,5.19c1.69,3.55,4.52,12.49.3,27.39,24-8.49,43.79-16.89,43.79-16.89l-3.53,18.82s-16.77,10.59-14.85,13.33S701,887.47,701,887.47s10.2-42.74,6.67-51.76S682,847.08,682,847.08Z"/><path class="cls-5" d="M687.81,842.17,693.4,861l-10.27,7.4-2.48,13.19s-16.77,10.59-14.85,13.33S701,887.47,701,887.47s10.2-42.74,6.67-51.76C705.35,829.68,694.66,836.79,687.81,842.17Z"/><path class="cls-5" d="M599.29,613s-20.39,26.86,18.23,34.9,32.05-13.67,29.49-19S612.62,607.89,599.29,613Z"/><path class="cls-7" d="M603.21,623.16s3.78,16.58,0,22.67h5.88s3.35,6.5,5.66,10.91,9.87-1.89,12.8,0S636,674.65,636,674.65L664.91,666,640.77,616Z"/><path class="cls-7" d="M578.75,729.55s26.81-27.35,33.87-36.76,19.41-18.14,27.25-8.47c6.77,8.34-5.09,21-7.64,24.93-2,3-30.3,28.66-43.47,40.52a12.55,12.55,0,0,1-14.47,1.64l-52-28.73A21.07,21.07,0,0,1,511,724.43c-6.47-.79-5.53-.68-8.28-3.23s-11.76-8.74-11.76-12.47c0,0,20,2.91,22.94.17s-3.34-11.18-.2-13.92l11,13.75Z"/><g class="cls-4"><polygon points="624.88 854.16 603.83 868.78 640.09 852.27 624.88 854.16"/></g><path class="cls-11" d="M628.11,663.4s10.2,1.74,24.83-7.15l5.23,5.23,18.56,2s16.73,20.75,19.61,46.11,5.75,40,11.24,45.49.52,11.76-4.44,12.81-48.1,2.35-56.86,2.35-5.62-8.37-2-11.76,4.18-20.92-2.62-27.45-15.89-11.15-19.08-21.44c-4.57-14.77,7.84-37.9,7.84-37.9Z"/><path class="cls-5" d="M594.91,612.6c1.16-15.2,26.14-19.61,40.78-13.86S652.16,617.3,665,623.05,678,640.31,684.84,647.1s17.77,18.56,10.45,32.16-25.88-4.19-36.59-7.06-7.32-9.93-13.6-18.82-23.52-7.84-26.14-23.27C619,630.11,593.34,633.25,594.91,612.6Z"/><rect class="cls-9" x="397.65" y="230.4" width="95.5" height="37.19"/><g class="cls-4"><rect x="397.65" y="255.15" width="95.5" height="12.45"/></g><polygon class="cls-12" points="314.84 507.18 314.84 726.99 463.44 726.99 314.84 507.18"/><polygon class="cls-12" points="617.38 444 617.38 278.15 505.27 278.15 617.38 444"/><path class="cls-13" d="M79.27,630.42c36.39,0,18.33,129.71,0,129.71S46.89,630.42,79.27,630.42Z"/><rect class="cls-14" x="77.64" y="630.42" width="2.28" height="157.25"/><path class="cls-15" d="M7.85,675.8c32.5-16.38,62.84,84,46.47,92.21S-21.06,690.37,7.85,675.8Z"/><polygon class="cls-14" points="62.74 788.31 6.4 676.53 8.44 675.51 64.77 787.29 62.74 788.31"/><path class="cls-15" d="M153.4,675.8c-32.5-16.38-62.84,84-46.47,92.21S182.31,690.37,153.4,675.8Z"/><polygon class="cls-14" points="98.52 788.31 96.48 787.29 152.82 675.51 154.85 676.53 98.52 788.31"/><rect class="cls-5" x="43.32" y="782.45" width="74.83" height="9.65"/><polygon class="cls-5" points="106.67 857.86 54.8 857.86 47.49 787.28 113.98 787.28 106.67 857.86"/><g class="cls-4"><polygon points="111.75 808.83 113.6 792.1 47.99 792.09 48.01 792.24 111.75 808.83"/></g><path class="cls-16" d="M252.23,355.92a2,2,0,1,1-2.55-1.18A2,2,0,0,1,252.23,355.92Z"/><path class="cls-16" d="M253.83,377.28a8.7,8.7,0,0,1-7.47-.85l1.24-1.85c2.65,1.77,6.06.74,8.19-.67l1.24,1.86A12.79,12.79,0,0,1,253.83,377.28Z"/><path class="cls-16" d="M250.76,352.73c-5.48-.8-7.84,1.46-8.07,1.95l-2.17-.44a3.68,3.68,0,0,1,1.46-2c1.24-.95,4.07-2.46,9.1-1.72Z"/><path class="cls-16" d="M610.48,634.38a1.77,1.77,0,0,0,3.5-.57,1.77,1.77,0,1,0-3.5.57Z"/><path class="cls-16" d="M618.66,651.7a7.75,7.75,0,0,0,5.43-4l-1.78-.89c-1.28,2.54-4.39,3.26-6.66,3.09l-.15,2A11.2,11.2,0,0,0,618.66,651.7Z"/><path class="cls-16" d="M610.21,631.25c3.91-3,6.74-2.31,7.13-2l1.5-1.3a3.28,3.28,0,0,0-2-.91c-1.38-.19-4.25-.11-7.84,2.68Z"/><path class="cls-16" d="M586,65.57a2,2,0,1,0,2.62-1.21A2.05,2.05,0,0,0,586,65.57Z"/><path class="cls-16" d="M584.39,87.51a8.94,8.94,0,0,0,7.67-.87l-1.27-1.91c-2.72,1.82-6.23.77-8.41-.68l.19,1.91C583.5,86.58,583.16,87.13,584.39,87.51Z"/><path class="cls-16" d="M587.54,62.29c5.63-.81,8.05,1.51,8.29,2l2.23-.45a3.71,3.71,0,0,0-1.5-2.05c-1.28-1-4.19-2.53-9.35-1.77Z"/></svg>