<svg id="Layer_1" data-name="Layer 1" xmlns="http://www.w3.org/2000/svg" viewBox="0 0 577.31 587.2"><defs><style>.cls-1{fill:#9aa9aa;}.cls-2{fill:#fff;}.cls-3{fill:#697f82;}.cls-4{fill:#365659;}.cls-5{fill:#fbb03b;}.cls-6{fill:#cdd4d4;}.cls-7{fill:#fcd0a8;}.cls-8{fill:#5abfb6;}.cls-9{fill:#ed4848;}.cls-10{fill:#074752;}</style></defs><title>Artboard 10</title><polygon class="cls-1" points="9.27 577.93 568.04 577.93 9.27 19.16 9.27 577.93"/><polygon class="cls-2" points="83.44 503.75 83.44 198.23 390.02 503.75 83.44 503.75"/><polygon class="cls-3" points="236.47 350.73 390.02 503.75 83.44 503.75 9.27 577.93 568.04 577.93 288.65 298.54 236.47 350.73"/><path class="cls-4" d="M83.44,587.2a9.27,9.27,0,0,1-9.27-9.27V538.37a9.28,9.28,0,0,1,18.55,0v39.56A9.28,9.28,0,0,1,83.44,587.2Z"/><path class="cls-4" d="M157.62,587.2a9.27,9.27,0,0,1-9.27-9.27V538.37a9.27,9.27,0,1,1,18.54,0v39.56A9.27,9.27,0,0,1,157.62,587.2Z"/><path class="cls-4" d="M231.79,587.2a9.27,9.27,0,0,1-9.27-9.27V538.37a9.27,9.27,0,0,1,18.54,0v39.56A9.27,9.27,0,0,1,231.79,587.2Z"/><path class="cls-4" d="M306,587.2a9.27,9.27,0,0,1-9.27-9.27V538.37a9.27,9.27,0,0,1,18.54,0v39.56A9.27,9.27,0,0,1,306,587.2Z"/><path class="cls-4" d="M380.13,587.2a9.27,9.27,0,0,1-9.27-9.27V538.37a9.27,9.27,0,0,1,18.54,0v39.56A9.27,9.27,0,0,1,380.13,587.2Z"/><path class="cls-4" d="M454.31,587.2a9.27,9.27,0,0,1-9.27-9.27V538.37a9.27,9.27,0,0,1,18.54,0v39.56A9.27,9.27,0,0,1,454.31,587.2Z"/><path class="cls-2" d="M197.18,265.78a9.23,9.23,0,0,1-6.56-2.71L52.16,124.61A9.27,9.27,0,0,1,65.28,111.5L203.73,250a9.27,9.27,0,0,1-6.55,15.82Z"/><path class="cls-2" d="M246.62,320.18a9.24,9.24,0,0,1-6.55-2.72l-24.73-24.72a9.27,9.27,0,1,1,13.11-13.11l24.73,24.72a9.28,9.28,0,0,1-6.56,15.83Z"/><polygon class="cls-5" points="498.11 252.7 284.1 38.69 161.73 14.22 186.2 136.59 400.2 350.6 470.13 420.53 568.04 322.63 498.11 252.7"/><rect class="cls-6" x="414.89" y="287.17" width="138.45" height="98.89" transform="translate(-96.23 440.92) rotate(-45)"/><polygon class="cls-7" points="161.73 14.22 284.1 38.69 186.2 136.59 161.73 14.22"/><polygon class="cls-4" points="161.73 14.22 214.17 24.71 172.22 66.66 161.73 14.22"/><rect class="cls-8" x="317.43" y="43.33" width="49.45" height="302.64" transform="translate(-37.42 298.95) rotate(-45)"/><rect class="cls-9" x="286.94" y="77.15" width="42.78" height="302.64" transform="translate(-71.25 284.94) rotate(-45)"/><rect class="cls-1" x="424.94" y="311.43" width="69.82" height="98.89" transform="translate(-120.49 430.86) rotate(-45)"/><path class="cls-2" d="M518.59,335A9.25,9.25,0,0,1,512,332.3l-24.72-24.73a9.27,9.27,0,0,1,13.11-13.11l24.72,24.72A9.27,9.27,0,0,1,518.59,335Z"/><path class="cls-8" d="M568,121.41,501.6,187.84,396.71,83a24.72,24.72,0,0,1,0-35l31.47-31.47a24.73,24.73,0,0,1,35,0Z"/><rect class="cls-7" x="452.89" y="70.2" width="93.95" height="98.89" transform="translate(61.8 388.5) rotate(-45)"/><path class="cls-2" d="M526.08,130.68a9.25,9.25,0,0,1-6.56-2.71l-28-28a9.27,9.27,0,0,1,13.11-13.11l28,28a9.27,9.27,0,0,1-6.55,15.83Z"/><rect class="cls-5" x="459.57" y="86.37" width="48.25" height="98.89" transform="translate(45.63 381.8) rotate(-45)"/><path class="cls-10" d="M15.83,12.6A9.27,9.27,0,0,0,0,19.16V577.93a9.27,9.27,0,0,0,9.27,9.27H568a9.27,9.27,0,0,0,6.55-15.83ZM454.31,568.65H18.54V41.54L545.65,568.65Z"/><path class="cls-10" d="M83.44,513H390a9.27,9.27,0,0,0,6.55-15.83L90,191.66a9.27,9.27,0,0,0-15.82,6.57V503.75A9.26,9.26,0,0,0,83.44,513Zm9.28-292.46L367.59,494.48H92.72Z"/><path class="cls-10" d="M504.66,246.14l-214-214v0l0,0-.13-.13c-.18-.16-.36-.33-.55-.48l-.25-.2c-.16-.12-.31-.24-.48-.35l-.35-.21a4.64,4.64,0,0,0-.42-.25L288,30.3l-.38-.17a5.14,5.14,0,0,0-.55-.2l-.31-.11c-.22-.07-.45-.12-.68-.17l-.2,0h-.05L163.66,5.15a7.25,7.25,0,0,0-1-.16h-.38c-.17,0-.34,0-.51,0l-.34,0h-.55a5.54,5.54,0,0,0-.57.07l-.2,0a8.92,8.92,0,0,0-2,.62l-.17.07c-.18.09-.37.17-.55.27l-.22.13-.23.14-.31.19-.32.24-.06,0-.19.13-.15.12a2.73,2.73,0,0,0-.25.23c-.15.12-.29.25-.43.38l-.15.18c-.16.16-.31.32-.45.49a1,1,0,0,1-.08.11h0l-.15.2c-.1.14-.21.27-.31.42l0,0-.14.24a2.53,2.53,0,0,0-.13.22c-.06.09-.11.18-.16.27a.59.59,0,0,0,0,.08c-.08.14-.14.29-.21.43l-.08.17-.06.12c-.12.29-.22.59-.32.89v0a8.9,8.9,0,0,0-.24,1,2.17,2.17,0,0,1,0,.25c0,.18,0,.35-.07.52s0,.19,0,.28,0,.2,0,.3,0,.22,0,.32,0,.33,0,.5a2.26,2.26,0,0,0,0,.26s0,.1,0,.15a8.31,8.31,0,0,0,.15,1l10.48,52.36h0l14,69.87v.06a4.39,4.39,0,0,0,.13.52c0,.19.11.39.17.58s.11.35.18.52.09.2.14.3.14.33.22.49l.16.29c.09.16.18.32.28.47l.18.27c.11.16.22.31.34.46l.19.24c.13.16.28.31.42.46a1.79,1.79,0,0,0,.13.14l214,214,69.93,69.93a9.26,9.26,0,0,0,13.11,0l97.9-97.9a9.26,9.26,0,0,0,0-13.11ZM400.2,337.48,199.31,136.59l18.36-18.35L418.56,319.13ZM265.3,44.39l-36.7,36.7h0L211.13,98.56h0L191.9,117.79l-9.62-48.08,34.94-34.94Zm-34.52,60.73L241.7,94.21h0l10.93-10.93L453.53,284.16,431.67,306M195.37,30.4,177.91,47.86,173.55,26l6.1,1.22ZM466.64,271.05,265.75,70.16,284.1,51.8,485,252.69Zm3.49,136.37L413.32,350.6l24.91-24.92,59.88-59.87,56.81,56.82Z"/><path class="cls-10" d="M425.12,124.47l69.93,69.93a9.28,9.28,0,0,0,13.11,0L574.59,128a9.28,9.28,0,0,0,0-13.12L504.66,44.92l-35-35a34,34,0,0,0-48.08,0L390.15,41.42a34,34,0,0,0,0,48.08Zm76.48,50.26-56.81-56.82,53.32-53.32,56.82,56.82ZM403.26,54.54l31.47-31.47a15.44,15.44,0,0,1,21.85,0L485,51.48,431.67,104.8,403.26,76.39A15.48,15.48,0,0,1,403.26,54.54Z"/></svg>