<svg id="Layer_1" data-name="Layer 1" xmlns="http://www.w3.org/2000/svg" viewBox="0 0 239.58 239.58"><defs><style>.cls-1{fill:#074752;}</style></defs><title>Artboard 27</title><path class="cls-1" d="M119.79,0A119.79,119.79,0,1,0,239.58,119.79,119.79,119.79,0,0,0,119.79,0Zm34,76.71c-4.28,0-8.23-.09-12.16,0-8.64.25-11.19,2.87-11.39,11.67-.09,4.24,0,8.48,0,13.6h23c-1.05,8.55-2,16.1-3,24.34h-20v59.24H106V126.73H85.84V102.28h19.54c1.19-15.58-3.29-32.36,12.25-42.73,11.05-7.37,23.39-5.86,36.11-4.13Z"/></svg>