<svg id="Layer_1" data-name="Layer 1" xmlns="http://www.w3.org/2000/svg" viewBox="0 0 1774.29 348.48"><defs><style>.cls-1{fill:#b3b3b3;}.cls-2{fill:#074752;}.cls-3{fill:#5abfb6;}.cls-4{fill:#ed4848;}.cls-5{fill:#c1c7d0;}</style></defs><title>Artboard 12</title><circle class="cls-1" cx="92.43" cy="40" r="40"/><path class="cls-2" d="M25.21,115.3c-2.48-4-6.47-4.57-10.32-4.62s-10.31,1.46-10.31,6.91C4.58,121.92,9.25,123,15,124c6.57,1.26,13.39,2.43,13.39,9.78-.05,7.69-7.79,9.54-13.49,9.54-5.3,0-11.34-2.19-14-7.4l2.34-1.17c2.09,4.14,7.45,6.19,11.63,6.19s10.86-1.17,10.86-7.21c.05-5.11-5.6-6.23-11.2-7.3C8.32,125.23,2,124,2,117.69c-.15-7.21,7.35-9.44,12.94-9.44,4.87,0,9.11.77,12.47,5.79Z"/><path class="cls-2" d="M34.66,130.78a12.09,12.09,0,0,1,12.21-12.41c6.77,0,12.8,4.14,11.88,13.53H37.09a9.46,9.46,0,0,0,9.78,8.91c3.17,0,6.87-1.27,8.67-3.65l1.7,1.36c-2.34,3.07-6.52,4.63-10.37,4.63C40.11,143.15,34.66,138.42,34.66,130.78Zm22-1c0-5.94-3.94-9.25-9.74-9.25-5,0-9.25,3.36-9.78,9.25Z"/><path class="cls-2" d="M68.14,118.76l.1,4.28c1.51-3.26,4.92-4.52,8-4.52a9.31,9.31,0,0,1,5.16,1.41l-1.07,1.94a7.81,7.81,0,0,0-4.09-1.12,8,8,0,0,0-7.93,8v14H65.9v-24Z"/><path class="cls-2" d="M85.18,118.76h2.63L96.57,140l8.76-21.27H108l-10.08,24H95.25Z"/><path class="cls-2" d="M116,110.92a1.93,1.93,0,0,1-3.85,0A1.93,1.93,0,0,1,116,110.92Zm-3.17,7.74V142.8h2.39V118.66Z"/><path class="cls-2" d="M142.76,139.45a12.31,12.31,0,0,1-8.76,3.6c-6.77,0-12.37-4.67-12.37-12.27S127,118.52,134,118.52a12.48,12.48,0,0,1,8.76,3.6l-1.56,1.51a10.17,10.17,0,0,0-7.2-2.88c-5.45,0-10,3.56-10,10s4.58,10,10,10a10.15,10.15,0,0,0,7.15-3Z"/><path class="cls-2" d="M151.76,110.92a1.92,1.92,0,0,1-3.84,0A1.92,1.92,0,0,1,151.76,110.92Zm-3.16,7.74V142.8H151V118.66Z"/><path class="cls-2" d="M158.19,130.83c0-7.64,5.45-12.51,12.22-12.51s12.21,4.87,12.21,12.51-5.45,12.32-12.21,12.32S158.19,138.47,158.19,130.83Zm22.1,0c0-6.23-4.43-10.27-9.88-10.27s-9.89,4-9.89,10.27,4.43,10,9.89,10S180.29,137.06,180.29,130.83Z"/><circle class="cls-3" cx="438.43" cy="40" r="40"/><path class="cls-2" d="M322.63,124.45h20v2.39h-20v13.43h21.52v2.53H320.06V108.73h23.51v2.48H322.63Z"/><path class="cls-2" d="M367.46,123.14a10.26,10.26,0,0,0-7.49-2.53c-3.75,0-7.35,1.36-7.25,4.43s4.28,3.84,7.3,4.38c4.28.73,10.17,1.46,9.93,7.06-.15,5.3-5.65,6.71-9.88,6.71s-8.43-1.6-10.52-4.81l1.75-1.56c2,2.87,5.6,4.09,8.81,4.09,2.93,0,7.35-.78,7.5-4.58.1-3.45-3.89-4.14-7.84-4.77-4.67-.78-9.29-1.65-9.34-6.47s4.67-6.77,9.54-6.72a12.58,12.58,0,0,1,8.95,3.21Z"/><path class="cls-2" d="M381.73,111.51v7.25h8.17v2h-8.17v14.66c0,3.26.68,5.55,4.42,5.55a8.81,8.81,0,0,0,3.7-1l.83,2a10.53,10.53,0,0,1-4.53,1.22c-5.11,0-6.76-3-6.76-7.74V120.75h-5.11v-2h5.11v-7Z"/><path class="cls-2" d="M398.62,118.76l.09,4.28c1.51-3.26,4.92-4.52,8-4.52a9.28,9.28,0,0,1,5.15,1.41l-1.07,1.94a7.77,7.77,0,0,0-4.08-1.12,8,8,0,0,0-7.94,8v14h-2.38v-24Z"/><path class="cls-2" d="M439.55,118.76v24h-2.38v-5.11a11.25,11.25,0,0,1-9.84,5.5,12.36,12.36,0,0,1,0-24.72,10.92,10.92,0,0,1,9.84,5.55v-5.26Zm-22.05,12a9.66,9.66,0,0,0,9.83,10.08c13.39,0,13.39-20.11,0-20.11A9.62,9.62,0,0,0,417.5,130.78Z"/><path class="cls-2" d="M451.47,111.51v7.25h8.18v2h-8.18v14.66c0,3.26.69,5.55,4.43,5.55a8.81,8.81,0,0,0,3.7-1l.83,2a10.53,10.53,0,0,1-4.53,1.22c-5.11,0-6.76-3-6.76-7.74V120.75H444v-2h5.11v-7Z"/><path class="cls-2" d="M464.76,130.78A12.09,12.09,0,0,1,477,118.37c6.77,0,12.8,4.14,11.88,13.53H467.2a9.45,9.45,0,0,0,9.78,8.91c3.16,0,6.86-1.27,8.66-3.65l1.71,1.36c-2.34,3.07-6.52,4.63-10.37,4.63C470.21,143.15,464.76,138.42,464.76,130.78Zm21.95-1c0-5.94-3.94-9.25-9.73-9.25-5,0-9.25,3.36-9.78,9.25Z"/><path class="cls-2" d="M515.34,117.79l1.55,1.36-2.33,2.72a11.83,11.83,0,0,1-3.51,18.4c4.24,1.51,6.57,4.48,6.57,8.62,0,6.47-5.06,9.59-11.44,9.59s-11.39-3.51-11.39-9.59h2.39c0,4.92,4.19,7.25,9,7.25s9.11-2.14,9.11-7.25-4.63-7.2-9.11-7.2c-7,0-11.29-5.21-11.29-11.64,0-7.49,5.06-11.73,11.29-11.73a12.24,12.24,0,0,1,6.82,2.19Zm-18.06,12.26c0,5,3.4,9.25,8.9,9.25a9.23,9.23,0,0,0,9-9.25c0-6.08-4-9.34-9-9.34S497.28,123.77,497.28,130.05Z"/><path class="cls-2" d="M526.58,110.92a1.93,1.93,0,0,1-3.85,0A1.93,1.93,0,0,1,526.58,110.92Zm-3.17,7.74V142.8h2.39V118.66Z"/><path class="cls-2" d="M556.71,118.76v24h-2.39v-5.11a11.23,11.23,0,0,1-9.83,5.5,12.36,12.36,0,0,1,0-24.72,10.9,10.9,0,0,1,9.83,5.55v-5.26Zm-22.05,12a9.66,9.66,0,0,0,9.83,10.08c13.39,0,13.39-20.11,0-20.11A9.62,9.62,0,0,0,534.66,130.78Z"/><circle class="cls-3" cx="784.43" cy="40" r="40"/><path class="cls-2" d="M694.41,131V142.8h-2.63V108.73h14.94c14.8,0,14.8,22.3,0,22.3Zm0-19.86v17.47h12.31c11.34,0,11.34-17.47,0-17.47Z"/><path class="cls-2" d="M725.37,118.76l.09,4.28c1.51-3.26,4.92-4.52,8-4.52a9.33,9.33,0,0,1,5.16,1.41l-1.08,1.94a7.77,7.77,0,0,0-4.08-1.12,8,8,0,0,0-7.94,8v14h-2.38v-24Z"/><path class="cls-2" d="M742.06,130.83c0-7.64,5.45-12.51,12.22-12.51s12.22,4.87,12.22,12.51-5.46,12.32-12.22,12.32S742.06,138.47,742.06,130.83Zm22.1,0c0-6.23-4.43-10.27-9.88-10.27s-9.88,4-9.88,10.27,4.43,10,9.88,10S764.16,137.06,764.16,130.83Z"/><path class="cls-2" d="M792.68,139.45a12.31,12.31,0,0,1-8.76,3.6c-6.77,0-12.36-4.67-12.36-12.27s5.4-12.26,12.36-12.26a12.48,12.48,0,0,1,8.76,3.6l-1.56,1.51a10.17,10.17,0,0,0-7.2-2.88c-5.45,0-10,3.56-10,10s4.58,10,10,10a10.19,10.19,0,0,0,7.16-3Z"/><path class="cls-2" d="M798.13,130.78a12.09,12.09,0,0,1,12.22-12.41c6.77,0,12.8,4.14,11.88,13.53H800.57a9.45,9.45,0,0,0,9.78,8.91c3.16,0,6.86-1.27,8.66-3.65l1.71,1.36c-2.34,3.07-6.53,4.63-10.37,4.63C803.58,143.15,798.13,138.42,798.13,130.78Zm22-1c0-5.94-3.94-9.25-9.73-9.25-5,0-9.25,3.36-9.78,9.25Z"/><path class="cls-2" d="M845.88,123.14a10.29,10.29,0,0,0-7.5-2.53c-3.74,0-7.34,1.36-7.25,4.43s4.29,3.84,7.3,4.38c4.29.73,10.18,1.46,9.93,7.06-.14,5.3-5.64,6.71-9.88,6.71s-8.42-1.6-10.51-4.81l1.75-1.56c2,2.87,5.6,4.09,8.81,4.09,2.92,0,7.35-.78,7.5-4.58.09-3.45-3.9-4.14-7.84-4.77-4.67-.78-9.3-1.65-9.35-6.47s4.68-6.77,9.54-6.72a12.59,12.59,0,0,1,9,3.21Z"/><path class="cls-2" d="M853.52,130.83c0-7.64,5.45-12.51,12.22-12.51S878,123.19,878,130.83s-5.45,12.32-12.22,12.32S853.52,138.47,853.52,130.83Zm22.1,0c0-6.23-4.43-10.27-9.88-10.27s-9.88,4-9.88,10.27,4.43,10,9.88,10S875.62,137.06,875.62,130.83Z"/><circle class="cls-3" cx="977.61" cy="230" r="40"/><path class="cls-2" d="M885,332.8h-3.46L869.8,319.91h-9.29V332.8h-2.63V298.73h15c7.4,0,11.15,5.31,11.2,10.61,0,5.55-3.61,10.42-11.05,10.42Zm-24.53-15.38h12.07c5.94,0,8.57-3.36,8.62-8.13,0-4-2.68-8.12-8.33-8.12H860.51Z"/><path class="cls-2" d="M888.59,320.78a12.09,12.09,0,0,1,12.22-12.41c6.77,0,12.8,4.14,11.88,13.53H891a9.45,9.45,0,0,0,9.78,8.91c3.16,0,6.86-1.27,8.66-3.65l1.71,1.36c-2.34,3.07-6.53,4.63-10.37,4.63C894,333.15,888.59,328.42,888.59,320.78Zm21.95-1c0-5.94-3.94-9.25-9.73-9.25-5,0-9.25,3.36-9.78,9.25Z"/><path class="cls-2" d="M917,308.76h2.63L928.41,330l8.76-21.27h2.63l-10.08,24h-2.63Z"/><path class="cls-2" d="M947.88,300.92a1.93,1.93,0,0,1-3.85,0A1.93,1.93,0,0,1,947.88,300.92Zm-3.17,7.74V332.8h2.39V308.66Z"/><path class="cls-2" d="M971.39,313.14a10.3,10.3,0,0,0-7.5-2.53c-3.75-.05-7.35,1.36-7.25,4.43s4.28,3.84,7.3,4.38c4.28.73,10.17,1.46,9.93,7.06-.15,5.3-5.65,6.71-9.88,6.71s-8.42-1.6-10.52-4.81l1.76-1.56c2,2.87,5.6,4.09,8.81,4.09,2.92,0,7.35-.78,7.49-4.58.1-3.45-3.89-4.14-7.83-4.77-4.68-.78-9.3-1.65-9.35-6.47s4.67-6.77,9.54-6.72a12.6,12.6,0,0,1,9,3.21Z"/><path class="cls-2" d="M983.31,300.92a1.92,1.92,0,0,1-3.84,0A1.92,1.92,0,0,1,983.31,300.92Zm-3.16,7.74V332.8h2.38V308.66Z"/><path class="cls-2" d="M989.74,320.83c0-7.64,5.45-12.51,12.21-12.51s12.22,4.87,12.22,12.51-5.45,12.32-12.22,12.32S989.74,328.47,989.74,320.83Zm22.09,0c0-6.23-4.42-10.27-9.88-10.27s-9.88,4-9.88,10.27,4.43,10,9.88,10S1011.83,327.06,1011.83,320.83Z"/><path class="cls-2" d="M1023,308.76V313a9.57,9.57,0,0,1,8.57-4.72c6.42,0,10.85,3.94,10.85,10.61V332.8H1040V319c0-5.45-3.36-8.37-8.57-8.32-5,0-8.42,3.79-8.42,8.76V332.8h-2.39v-24Z"/><path class="cls-2" d="M1048.24,320.78a12.09,12.09,0,0,1,12.22-12.41c6.77,0,12.8,4.14,11.88,13.53h-21.66a9.45,9.45,0,0,0,9.78,8.91c3.16,0,6.86-1.27,8.66-3.65l1.71,1.36c-2.34,3.07-6.53,4.63-10.37,4.63C1053.69,333.15,1048.24,328.42,1048.24,320.78Zm22-1c0-5.94-4-9.25-9.74-9.25-5,0-9.25,3.36-9.78,9.25Z"/><path class="cls-2" d="M1096,313.14a10.28,10.28,0,0,0-7.49-2.53c-3.75-.05-7.35,1.36-7.26,4.43s4.29,3.84,7.3,4.38c4.29.73,10.18,1.46,9.93,7.06-.14,5.3-5.64,6.71-9.88,6.71s-8.42-1.6-10.51-4.81l1.75-1.56c2,2.87,5.6,4.09,8.81,4.09,2.92,0,7.35-.78,7.5-4.58.09-3.45-3.9-4.14-7.84-4.77-4.67-.78-9.3-1.65-9.34-6.47s4.67-6.77,9.54-6.72a12.58,12.58,0,0,1,9,3.21Z"/><circle class="cls-2" cx="1323.61" cy="230" r="40"/><circle class="cls-4" cx="1669.61" cy="230" r="40"/><path class="cls-2" d="M1218,332.8l-3.74-8.37H1194l-3.7,8.37h-2.82l15.28-34.07h2.87l15.29,34.07Zm-4.76-10.8-9.16-20.74L1195,322Z"/><path class="cls-2" d="M1225.25,342.83V308.76h2.33v5.69a11.47,11.47,0,0,1,10.42-6c6.52.24,11.68,4.62,11.68,12.36,0,8.08-5.45,12.46-12.22,12.46a10.84,10.84,0,0,1-9.92-6v15.57Zm22-22.05c0-6.76-4.38-10.07-9.84-10.07s-9.73,4.23-9.73,10.12S1232,331,1237.46,331,1247.3,327.55,1247.3,320.78Z"/><path class="cls-2" d="M1258.73,308.76l.1,4.28c1.51-3.26,4.92-4.52,8-4.52a9.28,9.28,0,0,1,5.15,1.41l-1.07,1.94a7.77,7.77,0,0,0-4.08-1.12,8,8,0,0,0-7.94,8v14h-2.38v-24Z"/><path class="cls-2" d="M1275.43,320.83c0-7.64,5.45-12.51,12.22-12.51s12.22,4.87,12.22,12.51-5.46,12.32-12.22,12.32S1275.43,328.47,1275.43,320.83Zm22.1,0c0-6.23-4.43-10.27-9.88-10.27s-9.88,4-9.88,10.27,4.43,10,9.88,10S1297.53,327.06,1297.53,320.83Z"/><path class="cls-2" d="M1308.67,298.73V314c1.95-3.9,5.85-5.65,10-5.65,6.72,0,12.07,4.48,12.07,12.41s-5.3,12.41-12,12.41a11.33,11.33,0,0,1-10-5.69v5.3h-2.33V298.73Zm0,22c0,6,4.19,10.13,9.84,10.13,5.4,0,9.83-3.41,9.83-10.08s-4.43-10.12-9.83-10.12A9.63,9.63,0,0,0,1308.72,320.73Z"/><path class="cls-2" d="M1360.66,308.76v24h-2.39v-5.11a11.22,11.22,0,0,1-9.83,5.5,12.36,12.36,0,0,1,0-24.72,10.89,10.89,0,0,1,9.83,5.55v-5.26Zm-22.05,12a9.66,9.66,0,0,0,9.83,10.08c13.39,0,13.39-20.11,0-20.11A9.62,9.62,0,0,0,1338.61,320.78Z"/><path class="cls-2" d="M1388.35,329.45a12.29,12.29,0,0,1-8.76,3.6c-6.76,0-12.36-4.67-12.36-12.27s5.4-12.26,12.36-12.26a12.46,12.46,0,0,1,8.76,3.6l-1.56,1.51a10.17,10.17,0,0,0-7.2-2.88c-5.45,0-10,3.56-10,10s4.58,10,10,10a10.19,10.19,0,0,0,7.16-3Z"/><path class="cls-2" d="M1397.36,300.92a1.93,1.93,0,0,1-3.85,0A1.93,1.93,0,0,1,1397.36,300.92Zm-3.17,7.74V332.8h2.39V308.66Z"/><path class="cls-2" d="M1416,333.15c-6.77,0-12.22-4.68-12.22-12.32s5.45-12.51,12.22-12.51,12.22,4.87,12.22,12.51S1422.76,333.15,1416,333.15Zm0-2.34c5.45,0,9.88-3.75,9.88-10s-4.43-10.27-9.88-10.27-9.88,4-9.88,10.27S1410.55,330.81,1416,330.81Zm.68-26.24L1421,299v-.05H1418l-3.51,5.45v.19Z"/><path class="cls-2" d="M1437,308.76V313a9.56,9.56,0,0,1,8.56-4.72c6.43,0,10.86,3.94,10.86,10.61V332.8h-2.39V319c0-5.45-3.36-8.37-8.57-8.32-5,0-8.42,3.79-8.42,8.76V332.8h-2.38v-24Z"/><path class="cls-2" d="M1568.79,310.22a1.92,1.92,0,0,1,3.84,0A1.92,1.92,0,0,1,1568.79,310.22Zm3.26,32.37V315.38h-2.48v27.21Z"/><path class="cls-2" d="M1582.66,314.45h20v2.39h-20v13.43h21.51v2.53h-24.09V298.73h23.51v2.48h-20.93Z"/><path class="cls-2" d="M1612.84,308.76V313a9.57,9.57,0,0,1,8.57-4.72c6.42,0,10.85,3.94,10.85,10.61V332.8h-2.38V319c0-5.45-3.36-8.37-8.57-8.32-5,0-8.42,3.79-8.42,8.76V332.8h-2.39v-24Z"/><path class="cls-2" d="M1643.94,301.51v7.25h8.18v2h-8.18v14.66c0,3.26.68,5.55,4.43,5.55a8.85,8.85,0,0,0,3.7-1l.83,1.95a10.53,10.53,0,0,1-4.53,1.22c-5.11,0-6.76-3-6.76-7.74V310.75h-5.12v-2h5.12v-7Z"/><path class="cls-2" d="M1660.83,308.76l.1,4.28c1.51-3.26,4.91-4.52,8-4.52a9.33,9.33,0,0,1,5.16,1.41l-1.07,1.94a7.83,7.83,0,0,0-4.09-1.12,8,8,0,0,0-7.93,8v14h-2.39v-24Z"/><path class="cls-2" d="M1677.28,320.78a12.09,12.09,0,0,1,12.22-12.41c6.77,0,12.8,4.14,11.88,13.53h-21.66a9.45,9.45,0,0,0,9.78,8.91c3.16,0,6.86-1.27,8.66-3.65l1.71,1.36c-2.34,3.07-6.52,4.63-10.37,4.63C1682.73,333.15,1677.28,328.42,1677.28,320.78Zm22-1c0-5.94-4-9.25-9.74-9.25-5,0-9.25,3.36-9.78,9.25Z"/><path class="cls-2" d="M1727.86,307.79l1.55,1.36-2.33,2.72a11.83,11.83,0,0,1-3.51,18.4c4.24,1.51,6.57,4.48,6.57,8.62,0,6.47-5.06,9.59-11.43,9.59s-11.4-3.51-11.4-9.59h2.39c0,4.92,4.19,7.25,9,7.25s9.1-2.14,9.1-7.25-4.63-7.2-9.1-7.2c-7,0-11.3-5.21-11.3-11.64,0-7.49,5.06-11.73,11.3-11.73a12.24,12.24,0,0,1,6.81,2.19Zm-18.06,12.26c0,5,3.41,9.25,8.91,9.25a9.22,9.22,0,0,0,9-9.25c0-6.08-4-9.34-9-9.34S1709.8,313.77,1709.8,320.05Z"/><path class="cls-2" d="M1759.06,308.76v24h-2.39v-5.11a11.24,11.24,0,0,1-9.83,5.5,12.36,12.36,0,0,1,0-24.72,10.9,10.9,0,0,1,9.83,5.55v-5.26Zm-22,12a9.66,9.66,0,0,0,9.83,10.08c13.38,0,13.38-20.11,0-20.11A9.62,9.62,0,0,0,1737,320.78Z"/><path class="cls-2" d="M1770,331.1a1.93,1.93,0,0,1-3.85,0A1.93,1.93,0,0,1,1770,331.1Zm-.78-32.37v27.21h-2.48V298.73Z"/><path class="cls-5" d="M161.79,40.15a2.46,2.46,0,0,0,2.46,2.46h196L335.41,67.43a2.46,2.46,0,1,0,3.47,3.48l29-29a2.57,2.57,0,0,0,.54-.8,2.45,2.45,0,0,0,0-1.88,2.57,2.57,0,0,0-.54-.8l-29-29a2.45,2.45,0,1,0-3.47,3.47L360.23,37.7h-196A2.46,2.46,0,0,0,161.79,40.15Z"/><path class="cls-5" d="M509.79,40.15a2.46,2.46,0,0,0,2.46,2.46h196L683.41,67.43a2.46,2.46,0,0,0,3.47,3.48l29-29a2.57,2.57,0,0,0,.54-.8,2.45,2.45,0,0,0,0-1.88,2.57,2.57,0,0,0-.54-.8l-29-29a2.45,2.45,0,0,0-3.47,3.47L708.23,37.7h-196A2.46,2.46,0,0,0,509.79,40.15Z"/><path class="cls-5" d="M1044.79,230.15a2.46,2.46,0,0,0,2.46,2.46h196l-24.82,24.82a2.46,2.46,0,1,0,3.47,3.48l29-29a2.57,2.57,0,0,0,.54-.8,2.45,2.45,0,0,0,0-1.88,2.57,2.57,0,0,0-.54-.8l-29-29a2.45,2.45,0,1,0-3.47,3.47l24.82,24.83h-196A2.46,2.46,0,0,0,1044.79,230.15Z"/><path class="cls-5" d="M978.23,47.61h-102a2.46,2.46,0,1,1,0-4.91H979.66V170.18l24.83-24.82a2.45,2.45,0,0,1,3.47,3.47l-29,29a2.46,2.46,0,0,1-.8.54,2.46,2.46,0,0,1-2.68-.54l-29-29a2.45,2.45,0,1,1,3.47-3.47l24.83,24.82V43.2"/><path class="cls-5" d="M1387.79,230.15a2.46,2.46,0,0,0,2.46,2.46h196l-24.82,24.82a2.46,2.46,0,1,0,3.47,3.48l29-29a2.57,2.57,0,0,0,.54-.8,2.45,2.45,0,0,0,0-1.88,2.57,2.57,0,0,0-.54-.8l-29-29a2.45,2.45,0,1,0-3.47,3.47l24.82,24.83h-196A2.46,2.46,0,0,0,1387.79,230.15Z"/></svg>