<svg id="Capa_1" data-name="Capa 1" xmlns="http://www.w3.org/2000/svg" viewBox="0 0 920.11 690"><defs><style>.cls-1{fill:#22BFE8;}.cls-2{fill:#211915;}</style></defs><title>Artboard 8</title><path class="cls-1" d="M730.89,534.4a4.78,4.78,0,1,0,4.78-4.77,4.78,4.78,0,0,0-4.78,4.77"/><path class="cls-1" d="M730.89,566.59a4.78,4.78,0,1,0,4.78-4.77,4.78,4.78,0,0,0-4.78,4.77"/><path class="cls-2" d="M39.8,552.84v44.39c0,1.45-.59,2.18-1.78,2.18H38c-1.23,0-1.84-.73-1.84-2.18V504.3c0-1.45.61-2.18,1.84-2.18H38c1.19,0,1.78.73,1.78,2.18v44.86h70.43V504.3c0-1.45.61-2.18,1.84-2.18h.07c1.18,0,1.77.73,1.77,2.18v92.93c0,1.45-.59,2.18-1.77,2.18h-.07c-1.23,0-1.84-.73-1.84-2.18V552.84Z"/><path class="cls-2" d="M112.14,606.29c-5.12,0-8.79-3.81-8.79-9.06V559.72H46.67v37.51c0,5.25-3.63,9.06-8.64,9.06s-8.79-3.81-8.79-9.06V504.3c0-5.25,3.67-9.06,8.72-9.06s8.71,3.81,8.71,9.06v38h56.68v-38c0-5.25,3.67-9.06,8.72-9.06s8.72,3.81,8.72,9.06v92.93c0,5.25-3.64,9.06-8.65,9.06"/><path class="cls-2" d="M156.31,502.12h63.27c1.45,0,2.18.61,2.18,1.84V504a1.74,1.74,0,0,1-.58,1.43,2.44,2.44,0,0,1-1.6.48H158.15v41.18h50.31a2.84,2.84,0,0,1,1.67.44,1.58,1.58,0,0,1,.65,1.4V549a1.57,1.57,0,0,1-.65,1.39,2.84,2.84,0,0,1-1.67.45H158.15v44.72h62.79c1.45,0,2.18.62,2.18,1.85v.06a1.72,1.72,0,0,1-.58,1.43,2.43,2.43,0,0,1-1.6.48H156.31a1.66,1.66,0,0,1-1.85-1.91V504a1.63,1.63,0,0,1,1.85-1.84"/><path class="cls-2" d="M220.94,606.29H156.31a8.47,8.47,0,0,1-8.72-8.79V504a8.43,8.43,0,0,1,8.72-8.72h63.27c5.25,0,9,3.67,9,8.72a8.6,8.6,0,0,1-3.07,6.8,9.24,9.24,0,0,1-6,2H165v27.43h43.44a9.8,9.8,0,0,1,5.55,1.64,8.76,8.76,0,0,1,0,14.22,9.81,9.81,0,0,1-5.56,1.64H165v31h55.92c5.25,0,9.06,3.66,9.06,8.71a8.56,8.56,0,0,1-3.1,6.82,9.18,9.18,0,0,1-6,2M219.58,509h0Z"/><path class="cls-2" d="M325.17,585.44a1.56,1.56,0,0,1,1.16.47l.14.14a1.47,1.47,0,0,1,.41,1.09,2.13,2.13,0,0,1-.89,1.77,49.48,49.48,0,0,1-14.31,8.56,45.61,45.61,0,0,1-16.57,3A49.36,49.36,0,0,1,270,593.85a50,50,0,0,1-18.31-18.06,49.61,49.61,0,0,1,0-50,50.33,50.33,0,0,1,43.5-24.68,46.13,46.13,0,0,1,16.53,3,51.32,51.32,0,0,1,14.42,8.42,2.77,2.77,0,0,1,1.09,1.84.88.88,0,0,1-.1.41.82.82,0,0,0-.1.27l-.14.28-.07.06a2,2,0,0,1-1.5.62,2.51,2.51,0,0,1-1.5-.55q-13.42-10.35-28.63-10.36a46.29,46.29,0,0,0-23.29,6.07A45.17,45.17,0,0,0,255,527.69a46,46,0,0,0,0,46.19,46.47,46.47,0,0,0,40.13,22.67q15.19,0,28.56-10.5a2.36,2.36,0,0,1,1.5-.61"/><path class="cls-2" d="M295.11,607.38a56.48,56.48,0,0,1-28.6-7.57,57.07,57.07,0,0,1-20.78-20.51,56.46,56.46,0,0,1,0-57,57.19,57.19,0,0,1,49.42-28,53.29,53.29,0,0,1,19,3.41,58.17,58.17,0,0,1,16.36,9.55l.32.28a9.3,9.3,0,0,1,3.27,6.86,7.66,7.66,0,0,1-.62,3,7,7,0,0,1-.32.75l-.14.28a7,7,0,0,1-1.28,1.77,9.21,9.21,0,0,1-12,.82c-7.93-6.11-15.92-9-24.57-9a39.28,39.28,0,0,0-19.89,5.17,38.14,38.14,0,0,0-14.35,14.09,37.53,37.53,0,0,0-5.25,19.62,37.12,37.12,0,0,0,5.27,19.56,39.54,39.54,0,0,0,34.22,19.31c8.63,0,16.58-2.95,24.32-9a9.07,9.07,0,0,1,5.74-2.08,8.47,8.47,0,0,1,6,2.48l.13.13a8.41,8.41,0,0,1,2.43,6,9.07,9.07,0,0,1-3.39,7.09,56.62,56.62,0,0,1-16.2,9.65,52.65,52.65,0,0,1-19.05,3.5m32.82-15.94h0m5.27-73.64Zm.62-2.76h0Zm0,0h0Zm0,0h0Zm0,0h0Z"/><path class="cls-2" d="M359.25,502.12h69.82c1.18,0,1.77.61,1.77,1.84V504c0,1.27-.59,1.91-1.77,1.91H396.13V597.5c0,1.28-.59,1.91-1.77,1.91h-.06a1.68,1.68,0,0,1-1.91-1.91V505.94H359.25a1.69,1.69,0,0,1-1.91-1.91V504c0-1.23.64-1.84,1.91-1.84"/><path class="cls-2" d="M394.36,606.29a8.52,8.52,0,0,1-8.85-8.79V512.81H359.25a8.79,8.79,0,1,1,0-17.57h69.82a8.79,8.79,0,0,1,0,17.57H403V597.5a8.44,8.44,0,0,1-8.65,8.79M429.07,509h0Z"/><path class="cls-2" d="M455.85,525.81a50.09,50.09,0,0,1,18.24-18.1A48.91,48.91,0,0,1,499.15,501a48.15,48.15,0,0,1,25,6.68,49.95,49.95,0,0,1,0,86.11,48.58,48.58,0,0,1-25,6.61,49.94,49.94,0,0,1-43.34-24.61,49.82,49.82,0,0,1,0-50m3.41,48.07A45,45,0,0,0,476,590.41a45.71,45.71,0,0,0,23.19,6.07,45,45,0,0,0,23-6.07,44.39,44.39,0,0,0,16.43-16.5,45.36,45.36,0,0,0,6-23,45.85,45.85,0,0,0-6-23.18,44.14,44.14,0,0,0-16.43-16.57,45,45,0,0,0-23-6.07,45.77,45.77,0,0,0-39.89,22.7,46.39,46.39,0,0,0,0,46.13"/><path class="cls-2" d="M499.14,607.31a56.82,56.82,0,0,1-49.25-28,56.66,56.66,0,0,1,0-57,57.2,57.2,0,0,1,20.7-20.55,56,56,0,0,1,28.51-7.61,55.25,55.25,0,0,1,28.45,7.63,56.83,56.83,0,0,1,0,98,55.6,55.6,0,0,1-28.43,7.55M465.19,570.4a37.92,37.92,0,0,0,14.2,14.05,38.59,38.59,0,0,0,19.75,5.15,37.86,37.86,0,0,0,19.59-5.13,37.19,37.19,0,0,0,13.93-14,38.26,38.26,0,0,0,5.08-19.61,38.73,38.73,0,0,0-5.09-19.77,37.09,37.09,0,0,0-13.92-14,37.87,37.87,0,0,0-19.59-5.14,39,39,0,0,0-33.95,19.3,39.57,39.57,0,0,0,0,39.18"/><path class="cls-2" d="M623.9,562.59H588.72V597.5c0,1.28-.59,1.91-1.77,1.91h-.07c-1.23,0-1.84-.63-1.84-1.91V504a1.62,1.62,0,0,1,1.84-1.84h37A29.33,29.33,0,0,1,639,506.21a30.31,30.31,0,0,1,11,11.08,29.73,29.73,0,0,1,4.06,15.17,29.13,29.13,0,0,1-4.88,16.43,30.36,30.36,0,0,1-12.85,11l15.27,36.89a4.33,4.33,0,0,1,.14.68,1.84,1.84,0,0,1-.58,1.33,1.76,1.76,0,0,1-1.26.58h-.21a2.11,2.11,0,0,1-1-.3,2.22,2.22,0,0,1-.89-1.06l-15.27-36.69a30,30,0,0,1-8.66,1.23m-35.18-3.81H623.9a26.1,26.1,0,0,0,13.36-3.52,25.64,25.64,0,0,0,9.55-9.54,26,26,0,0,0,3.47-13.26,26.56,26.56,0,0,0-3.47-13.4,26.08,26.08,0,0,0-22.91-13.19H588.72Z"/><path class="cls-2" d="M650,606.29h-.21a8.86,8.86,0,0,1-4.39-1.19,9,9,0,0,1-3.78-4.22l-.09-.19-13.1-31.48a39.05,39.05,0,0,1-4.48.26H595.59v28a8.72,8.72,0,1,1-17.43,0V504a8.44,8.44,0,0,1,8.72-8.72h37a36.29,36.29,0,0,1,18.62,5A37.16,37.16,0,0,1,656,513.83a36.66,36.66,0,0,1,5,18.63,35.93,35.93,0,0,1-6,20.22,37.23,37.23,0,0,1-9.92,10.2l13,31.31a5.75,5.75,0,0,1,.33,1,9.55,9.55,0,0,1,.33,2.32,8.71,8.71,0,0,1-2.59,6.19,8.63,8.63,0,0,1-6.12,2.6M595.59,551.9H623.9a19.25,19.25,0,0,0,9.92-2.59,18.73,18.73,0,0,0,7-7,19.2,19.2,0,0,0,2.56-9.83,19.59,19.59,0,0,0-2.58-10,18.77,18.77,0,0,0-7-7.11,19.09,19.09,0,0,0-9.89-2.61H595.59Z"/><path class="cls-2" d="M692.68,525.81a50.09,50.09,0,0,1,18.24-18.1A48.9,48.9,0,0,1,736,501a48.16,48.16,0,0,1,25,6.68,49.95,49.95,0,0,1,0,86.11,48.59,48.59,0,0,1-25,6.61,49.91,49.91,0,0,1-43.32-24.61,49.79,49.79,0,0,1,0-50m3.41,48.07a45,45,0,0,0,16.7,16.53A45.72,45.72,0,0,0,736,596.48a45,45,0,0,0,23-6.07,44.32,44.32,0,0,0,16.43-16.5,45.36,45.36,0,0,0,6-23,45.85,45.85,0,0,0-6-23.18A44.07,44.07,0,0,0,759,511.12a45,45,0,0,0-23-6.07,45.77,45.77,0,0,0-39.88,22.7,46.39,46.39,0,0,0,0,46.13"/><path class="cls-2" d="M736,607.31a56.82,56.82,0,0,1-49.26-28,56.66,56.66,0,0,1,0-57,57.2,57.2,0,0,1,20.7-20.55A56,56,0,0,1,736,494.15a55.22,55.22,0,0,1,28.44,7.63,56.83,56.83,0,0,1,0,98A55.56,55.56,0,0,1,736,607.31m0-95.39a38.43,38.43,0,0,0-19.75,5.19,38.52,38.52,0,0,0-19.4,33.76A37.52,37.52,0,0,0,702,570.4a38,38,0,0,0,14.19,14.05A38.66,38.66,0,0,0,736,589.6a37.85,37.85,0,0,0,19.58-5.13,37.27,37.27,0,0,0,13.93-14,38.29,38.29,0,0,0,5.08-19.61,38.75,38.75,0,0,0-5.09-19.77,37.09,37.09,0,0,0-13.92-14A37.83,37.83,0,0,0,736,511.92"/><path class="cls-2" d="M824.05,502.12h.07c1.18,0,1.77.73,1.77,2.18v91.29H882c1.55,0,2.32.59,2.32,1.78v.07a1.73,1.73,0,0,1-.65,1.46,2.6,2.6,0,0,1-1.67.51h-58c-1.23,0-1.84-.63-1.84-1.91V504.3c0-1.45.61-2.18,1.84-2.18"/><path class="cls-2" d="M882,606.29h-58a8.47,8.47,0,0,1-8.72-8.79V504.3c0-5.25,3.67-9.06,8.72-9.06h.07c5,0,8.65,3.81,8.65,9.06v84.42H882c6,0,9.2,4.35,9.2,8.65a8.7,8.7,0,0,1-3.27,6.93,9.45,9.45,0,0,1-5.93,2"/><path class="cls-2" d="M29.08,634.92a.54.54,0,0,1,.46-.21h0c.4,0,.61.25.61.74V667c0,.51-.21.77-.61.77h0a.55.55,0,0,1-.48-.21,1,1,0,0,1-.15-.56V635.45a.84.84,0,0,1,.17-.53"/><path class="cls-2" d="M96.54,634.71h0c.4,0,.6.25.6.74v31h19.08c.53,0,.79.2.79.6v0a.61.61,0,0,1-.22.5.88.88,0,0,1-.57.18H96.54a.57.57,0,0,1-.63-.65V635.45c0-.49.21-.74.63-.74"/><path class="cls-2" d="M181.07,661A12.15,12.15,0,0,0,191.68,667a12,12,0,0,0,6.16-1.63,12.19,12.19,0,0,0,6.08-10.61V635.43a.84.84,0,0,1,.16-.55.6.6,0,0,1,.49-.2h0q.6,0,.6.75V655a12.83,12.83,0,0,1-1.82,6.69,13.54,13.54,0,0,1-11.69,6.62,13.14,13.14,0,0,1-6.78-1.81A13.55,13.55,0,0,1,180,661.6a13.24,13.24,0,0,1-1.81-6.8V635.38c0-.46.21-.7.64-.7h0c.4,0,.6.24.6.7V654.8a12,12,0,0,0,1.63,6.17"/><path class="cls-2" d="M267.53,662.55a.58.58,0,0,1,.19-.44l0-.05a.73.73,0,0,1,.35-.09.94.94,0,0,1,.69.44,11.7,11.7,0,0,0,4.35,3.39,15,15,0,0,0,6.23,1.15,17.57,17.57,0,0,0,5.59-.83,8.3,8.3,0,0,0,3.94-2.68,7.34,7.34,0,0,0,1.48-4.72,5,5,0,0,0-1.71-4,10.35,10.35,0,0,0-3.84-2.12c-1.42-.43-3.22-.87-5.42-1.3a28.73,28.73,0,0,1-6.27-1.76,9,9,0,0,1-3.67-2.68,6.27,6.27,0,0,1-1.23-3.93,7.71,7.71,0,0,1,1.42-4.68,8.74,8.74,0,0,1,4.06-2.95,17.24,17.24,0,0,1,6.23-1,16,16,0,0,1,5.5.86,12.76,12.76,0,0,1,4.46,2.92.69.69,0,0,1,.21.51.68.68,0,0,1-.14.41l0,.05a.75.75,0,0,1-.4.12.68.68,0,0,1-.37-.12,3.31,3.31,0,0,1-.44-.35,16.84,16.84,0,0,0-2.53-1.83,9,9,0,0,0-2.61-1,19.62,19.62,0,0,0-8.71.4,8.63,8.63,0,0,0-3.86,2.36,6.07,6.07,0,0,0-1.51,4.27,5.18,5.18,0,0,0,2.77,4.68,23.66,23.66,0,0,0,7.43,2.51,53.76,53.76,0,0,1,6,1.5,10.62,10.62,0,0,1,4.12,2.45,6.09,6.09,0,0,1,1.77,4.6,8.55,8.55,0,0,1-1.6,5.29,9.48,9.48,0,0,1-4.38,3.17,17.79,17.79,0,0,1-6.3,1,17,17,0,0,1-6.51-1.16,13.32,13.32,0,0,1-5-3.89,1,1,0,0,1-.3-.62"/><path class="cls-2" d="M353.72,634.71h23.74a.54.54,0,0,1,.6.62v0c0,.43-.2.65-.6.65h-11.2v31.13c0,.43-.2.65-.6.65h0a.57.57,0,0,1-.65-.65V636H353.72a.58.58,0,0,1-.65-.65v0c0-.41.22-.62.65-.62"/><path class="cls-2" d="M453,655.27h-12v11.87c0,.43-.2.65-.6.65h0a.57.57,0,0,1-.63-.65V635.33a.55.55,0,0,1,.63-.62H453a10,10,0,0,1,5.15,1.39,10.32,10.32,0,0,1,3.74,3.77A10.07,10.07,0,0,1,463.3,645a9.87,9.87,0,0,1-1.66,5.59,10.26,10.26,0,0,1-4.37,3.75l5.2,12.54a1.35,1.35,0,0,1,0,.24.59.59,0,0,1-.2.45.59.59,0,0,1-.42.2h-.07a.71.71,0,0,1-.35-.11.73.73,0,0,1-.3-.36L456,654.85a10.16,10.16,0,0,1-3,.42m-12-1.3h12a9,9,0,0,0,4.55-1.19A8.86,8.86,0,0,0,462,645a9,9,0,0,0-1.18-4.55,8.79,8.79,0,0,0-3.24-3.28A8.9,8.9,0,0,0,453,636h-12Z"/><path class="cls-2" d="M538.48,634.73h.12a.58.58,0,0,1,.3.11.79.79,0,0,1,.28.38l13.28,31.64a.92.92,0,0,1,.07.3.56.56,0,0,1-.21.44.69.69,0,0,1-.44.19h-.07c-.22,0-.39-.15-.51-.44l-3.75-9h-18l-3.75,9c-.13.31-.29.47-.49.47h-.07a.71.71,0,0,1-.46-.16.5.5,0,0,1-.19-.43.8.8,0,0,1,.07-.34l13.3-31.64a.73.73,0,0,1,.56-.49M547,657.1l-8.46-20.26-8.5,20.26Z"/><path class="cls-2" d="M638.16,663a.54.54,0,0,1,.4.17l0,0a.48.48,0,0,1,.14.37.71.71,0,0,1-.3.6,16.45,16.45,0,0,1-4.87,2.91,15.37,15.37,0,0,1-5.63,1,16.86,16.86,0,0,1-8.55-2.25,17.09,17.09,0,0,1-6.23-6.15,16.89,16.89,0,0,1,0-17,17.14,17.14,0,0,1,14.79-8.39,15.73,15.73,0,0,1,5.62,1,17.43,17.43,0,0,1,4.9,2.86.92.92,0,0,1,.37.63.35.35,0,0,1,0,.14l0,.09,0,.09,0,0a.69.69,0,0,1-.51.21.87.87,0,0,1-.51-.19A15.65,15.65,0,0,0,620,637.77a15.35,15.35,0,0,0-5.74,5.63,15.64,15.64,0,0,0,0,15.71,15.78,15.78,0,0,0,13.64,7.7,15.43,15.43,0,0,0,9.71-3.57.8.8,0,0,1,.51-.21"/><path class="cls-2" d="M702,634.92a.55.55,0,0,1,.47-.21h0c.4,0,.6.25.6.74V667c0,.51-.2.77-.6.77h0a.55.55,0,0,1-.48-.21,1,1,0,0,1-.15-.56V635.45a.84.84,0,0,1,.16-.53"/><path class="cls-2" d="M769.4,642.76a17.08,17.08,0,0,1,6.2-6.15,16.7,16.7,0,0,1,8.52-2.27,16.4,16.4,0,0,1,8.48,2.27,17.15,17.15,0,0,1,6.09,23.16,16.68,16.68,0,0,1-14.57,8.36,17,17,0,0,1-14.73-8.36,17,17,0,0,1,0-17m1.16,16.35a15.39,15.39,0,0,0,5.68,5.62,15.61,15.61,0,0,0,7.88,2.06,15.38,15.38,0,0,0,7.84-2.06,15.17,15.17,0,0,0,5.58-5.61,16.16,16.16,0,0,0,0-15.72,15.08,15.08,0,0,0-5.58-5.63,15.28,15.28,0,0,0-7.84-2.06,15.51,15.51,0,0,0-7.88,2.07,15.67,15.67,0,0,0-5.68,21.33M786,631.21h0a.78.78,0,0,1-.43-.18.47.47,0,0,1-.2-.4,1,1,0,0,1,.12-.42l3-5.31a1,1,0,0,1,.29-.38.55.55,0,0,1,.29-.08h0a.74.74,0,0,1,.43.2.57.57,0,0,1,.2.43.69.69,0,0,1-.12.39l-2.94,5.28c-.19.31-.39.47-.61.47"/><path class="cls-2" d="M865.35,667c0,.51-.2.77-.6.77h0a.55.55,0,0,1-.48-.21,1,1,0,0,1-.15-.56V635.33a.63.63,0,0,1,.15-.41.57.57,0,0,1,.45-.21h.12a1,1,0,0,1,.69.44l24.41,30.32V635.33c0-.41.22-.62.65-.62h0a.54.54,0,0,1,.61.62V667c0,.51-.2.77-.61.77h-.14a1,1,0,0,1-.67-.42L865.35,637Z"/><path class="cls-1" d="M877.44,466.42a13.76,13.76,0,0,1-13.76-13.76c0-222.47-181-403.46-403.46-403.46S56.76,230.19,56.76,452.66a13.76,13.76,0,0,1-27.52,0c0-237.64,193.34-431,431-431s431,193.34,431,431a13.76,13.76,0,0,1-13.76,13.76"/><path class="cls-1" d="M254.83,453.08a13.22,13.22,0,1,1-26.43,0V399.54a13.22,13.22,0,1,1,26.43,0Z"/><path class="cls-1" d="M695.33,453.2a13.22,13.22,0,0,1-26.44,0V399.66a13.22,13.22,0,1,1,26.44,0Z"/><path class="cls-1" d="M289.35,406.52a6.88,6.88,0,0,1-6.88-6.88,40.86,40.86,0,1,0-81.71,0,6.88,6.88,0,0,1-13.76,0,54.62,54.62,0,1,1,109.23,0,6.88,6.88,0,0,1-6.88,6.88"/><path class="cls-1" d="M728.79,406.64a6.88,6.88,0,0,1-6.88-6.88,40.86,40.86,0,1,0-81.72,0,6.88,6.88,0,1,1-13.76,0,54.62,54.62,0,1,1,109.24,0,6.88,6.88,0,0,1-6.88,6.88"/><path class="cls-1" d="M498.32,467.35c-9.6,0-22.9-3-36.61-15.5a5.5,5.5,0,1,1,7.41-8.13c9.83,9,20.76,13.32,31.62,12.54,10.39-.73,18.13-5.88,21.61-10.08a21.81,21.81,0,0,0,5.19-16,18.55,18.55,0,0,0-7.17-12.82c-9.5-7.57-21.5-4.8-28.9-.13-6.14,3.87-14.24,3.91-21.15.1-6.52-3.6-10.41-9.76-10.41-16.49,0-13.05,10.18-21.22,10.61-21.56a5.5,5.5,0,0,1,6.83,8.63c-.15.13-6.44,5.36-6.44,12.93,0,2.66,1.77,5.22,4.72,6.85,3.35,1.84,7.26,1.94,10,.23,10.45-6.59,27.61-10.34,41.64.83a29.69,29.69,0,0,1,11.25,20.29,32.89,32.89,0,0,1-7.65,24.15c-5.1,6.15-15.48,13.06-29.32,14-1,.07-2.07.11-3.19.11"/><path class="cls-1" d="M117.64,466.45a8.29,8.29,0,0,1-8.27-8c-.16-5.13-3.21-126.15,59.25-190.6,25-25.75,56.93-38.81,95-38.81,45,0,69.82,22.14,93.78,43.55,25,22.33,50.84,45.42,102.78,45.57C512.16,318,538,294.91,563,272.58,587,251.17,611.74,229,656.78,229c38.1,0,70.08,13.06,95,38.81,62.46,64.45,59.4,185.47,59.24,190.6a8.27,8.27,0,1,1-16.54-.52c0-1.19,3-119.22-54.62-178.59-21.72-22.39-49.68-33.74-83.12-33.74-38.73,0-59.13,18.23-82.75,39.33-25.93,23.16-55.28,49.38-113,49.78h-1.62c-57.72-.4-87.08-26.62-113-49.78-23.63-21.1-44-39.33-82.75-39.33-33.46,0-61.43,11.36-83.15,33.77-57.64,59.47-54.63,177.37-54.59,178.56a8.28,8.28,0,0,1-8,8.53h-.27"/></svg>