<svg id="Layer_1" data-name="Layer 1" xmlns="http://www.w3.org/2000/svg" viewBox="0 0 239.58 239.58"><defs><style>.cls-1{fill:#074752;}</style></defs><title>Artboard 28</title><path class="cls-1" d="M119.14,83.53A36.27,36.27,0,1,0,156,117.18,36.34,36.34,0,0,0,119.14,83.53Zm.72,59.77a23.51,23.51,0,1,1,23.43-23.52A23.46,23.46,0,0,1,119.86,143.3Z"/><path class="cls-1" d="M153.4,74.9a7.07,7.07,0,1,0,7,7.36A7.08,7.08,0,0,0,153.4,74.9Z"/><path class="cls-1" d="M119.79,0A119.79,119.79,0,1,0,239.58,119.79,119.79,119.79,0,0,0,119.79,0Zm57.46,143.61a33,33,0,0,1-6.59,19.8,33.73,33.73,0,0,1-13.21,10.78,30.91,30.91,0,0,1-9.44,2.73,41.63,41.63,0,0,1-4.87.33q-23.53,0-47.07,0a33,33,0,0,1-19.7-6.46,33.55,33.55,0,0,1-10.62-12.63,31.57,31.57,0,0,1-3.1-10.3,43.15,43.15,0,0,1-.32-5q0-23.49,0-47a32.86,32.86,0,0,1,3.48-14.61,34.05,34.05,0,0,1,30.49-19h23c8.2,0,16.4,0,24.6,0a32.64,32.64,0,0,1,13.52,3.09,34.13,34.13,0,0,1,19,23.59,31.8,31.8,0,0,1,.77,7.08C177.26,111.93,177.29,127.77,177.25,143.61Z"/></svg>