<svg id="Layer_1" data-name="Layer 1" xmlns="http://www.w3.org/2000/svg" viewBox="0 0 239.58 239.58"><defs><style>.cls-1{fill:#074752;}</style></defs><title>Artboard 24</title><path class="cls-1" d="M119.79,0A119.79,119.79,0,1,0,239.58,119.79,119.79,119.79,0,0,0,119.79,0ZM87.69,176H62.49V100.15h25.2ZM75.09,89.81h-.17C66.47,89.81,61,84,61,76.7c0-7.44,5.64-13.1,14.27-13.1s13.93,5.66,14.09,13.1C89.35,84,83.88,89.81,75.09,89.81ZM178.59,176H153.38V135.41c0-10.19-3.64-17.15-12.77-17.15-7,0-11.11,4.69-12.93,9.22a17.41,17.41,0,0,0-.84,6.15V176H101.63s.34-68.7,0-75.82h25.21V110.9c3.35-5.16,9.33-12.53,22.72-12.53,16.59,0,29,10.84,29,34.13Z"/><path class="cls-1" d="M126.84,111.15v-.25c0,.08-.12.17-.16.25Z"/></svg>