<svg id="Layer_1" data-name="Layer 1" xmlns="http://www.w3.org/2000/svg" viewBox="0 0 1200 353"><defs><style>.cls-1{fill:#074752;}.cls-2{fill:#5abfb6;}.cls-3{fill:#ed4848;}.cls-4{fill:#fff;}</style></defs><title>Artboard 1</title><path class="cls-1" d="M117,120.35a61.08,61.08,0,0,1,26,5.4,59.35,59.35,0,0,1,20,14.87,68.15,68.15,0,0,1,12.84,22,78.73,78.73,0,0,1,4.52,26.84V270.3h-35V189.49a32.92,32.92,0,0,0-2.63-13.12,35.07,35.07,0,0,0-7.58-11.09,32.63,32.63,0,0,0-23.92-9.92A33.89,33.89,0,0,0,77,189.49V270.3H42V66.08H77v70a67.54,67.54,0,0,1,17.8-11.37A54.33,54.33,0,0,1,117,120.35Z"/><path class="cls-1" d="M308.68,214.88H232.24a36.2,36.2,0,0,0,8.46,12A41.24,41.24,0,0,0,254.42,236a42.44,42.44,0,0,0,16.05,3.06,41,41,0,0,0,21.3-5.53l36.47,14.58a73.63,73.63,0,0,1-25.39,19.11,79.22,79.22,0,0,1-62.44.88,76.9,76.9,0,0,1-41-41,77.91,77.91,0,0,1,0-59.82,76.88,76.88,0,0,1,41-41,78.52,78.52,0,0,1,60.11,0,76.9,76.9,0,0,1,41,41,75.86,75.86,0,0,1,6,30.05,72.1,72.1,0,0,1-2,17.51Zm-38.21-59.52q-16.94,0-29.77,12.25a39.81,39.81,0,0,0-8.46,12.25h76.44a39.81,39.81,0,0,0-8.46-12.25A40.49,40.49,0,0,0,270.47,155.36Z"/><path class="cls-1" d="M513.21,124.13V270.3h-35V197.37a41.84,41.84,0,0,0-42-42,42,42,0,0,0-29.76,12.25,41.89,41.89,0,0,0,0,59.22A37.69,37.69,0,0,0,420,236a43.54,43.54,0,0,0,16.19,3.06,40.52,40.52,0,0,0,15.75-2.9l12.54,31.2q-13.41,6.74-31.21,6.72a71.91,71.91,0,0,1-53.11-22.46,76.21,76.21,0,0,1-15.46-24.5,83.51,83.51,0,0,1,0-59.82,76.14,76.14,0,0,1,15.46-24.51,71.78,71.78,0,0,1,23.49-16.48,72.56,72.56,0,0,1,29.62-6,68.71,68.71,0,0,1,25.38,4.38,76.63,76.63,0,0,1,19.55,11.07V124.13Z"/><path class="cls-1" d="M683,65.78V270.3H648V197.37q0-17.79-12.25-29.76a41.87,41.87,0,0,0-71.48,29.76,40.15,40.15,0,0,0,12.25,29.46A37.78,37.78,0,0,0,590.09,236a43.54,43.54,0,0,0,16.19,3.06,39.69,39.69,0,0,0,15.46-2.9l12.55,31.2q-13.42,6.74-30.93,6.72a72.62,72.62,0,0,1-29.62-6,71.89,71.89,0,0,1-23.48-16.48,76.23,76.23,0,0,1-15.47-24.5,83.65,83.65,0,0,1,0-59.82,76.17,76.17,0,0,1,15.47-24.51,71.74,71.74,0,0,1,23.48-16.48,72.62,72.62,0,0,1,29.62-6,67.85,67.85,0,0,1,25.09,4.38A76.29,76.29,0,0,1,648,135.8v-70Z"/><path class="cls-2" d="M780.46,270.3H748.37a47,47,0,0,1-33.85-14.15,50.11,50.11,0,0,1-10.21-15.31,46.48,46.48,0,0,1-3.8-18.67V95l35-8.75v55.73H756l8.75,35H735.54v45.22a12.65,12.65,0,0,0,3.78,9.33,12.29,12.29,0,0,0,9,3.8h23.34Z"/><path class="cls-2" d="M932.77,124.13V270.3h-35V197.37a41.86,41.86,0,0,0-42-42A42,42,0,0,0,826,167.61a41.91,41.91,0,0,0,0,59.22A37.69,37.69,0,0,0,839.55,236a43.54,43.54,0,0,0,16.19,3.06,40.61,40.61,0,0,0,15.76-2.9L884,267.38q-13.41,6.74-31.21,6.72a72.59,72.59,0,0,1-29.62-6,71.79,71.79,0,0,1-23.48-16.48,76.06,76.06,0,0,1-15.47-24.5,83.51,83.51,0,0,1,0-59.82,76,76,0,0,1,15.47-24.51,71.64,71.64,0,0,1,23.48-16.48,72.59,72.59,0,0,1,29.62-6,68.71,68.71,0,0,1,25.38,4.38,76.7,76.7,0,0,1,19.56,11.07V124.13Z"/><path class="cls-2" d="M1102.87,255.72a75,75,0,0,1-6,29.76,77,77,0,0,1-16.48,24.5,79.19,79.19,0,0,1-24.5,16.64,77,77,0,0,1-54.85,2.05A77.7,77.7,0,0,1,979.45,317l25.38-25.07a39,39,0,0,0,21,5.82q17.81,0,29.75-12.54a40.2,40.2,0,0,0,12.27-29.47V197.08q0-16.92-12.27-29.76a40.52,40.52,0,0,0-29.75-12.26q-16.92,0-29.76,12.26-12.24,12.84-12.25,29.76a40.56,40.56,0,0,0,12.25,29.75q12.82,12.25,29.76,12.25a40.57,40.57,0,0,0,15.76-2.9l13.13,32.67a75.83,75.83,0,0,1-28.3,5.25h-.59a75,75,0,0,1-29.76-6,77.09,77.09,0,0,1-24.52-16.48,79.69,79.69,0,0,1-16.63-24.5,74.33,74.33,0,0,1-6.12-30.06A85.18,85.18,0,0,1,954.07,167a76,76,0,0,1,14.74-24.51A67.73,67.73,0,0,1,991.56,126a70.15,70.15,0,0,1,29-6q15.17,0,26.83,4.52a82.7,82.7,0,0,1,20.44,11.23V124.43h35Z"/><path class="cls-3" d="M1112.69,107.87h-45.31V62.56a45.31,45.31,0,0,1,45.31-45.31h0A45.32,45.32,0,0,1,1158,62.56h0A45.31,45.31,0,0,1,1112.69,107.87Z"/><path class="cls-4" d="M1122.82,62.58l-6.61,8.16c-.8,2,1.93,2.84,1.93,2.84,1.91.43,2.82-.75,3.8-2l4-5.27,4,5.27c1,1.28,1.88,2.46,3.8,2,0,0,2.73-.82,1.92-2.84l-6.42-7.94,0-.24,0-.05,6.56-8.11c.81-2-1.92-2.84-1.92-2.84-1.92-.43-2.82.75-3.8,2L1126,58.9l-4.07-5.31c-1-1.28-1.89-2.46-3.8-2,0,0-2.73.81-1.93,2.84l6.61,8.16"/><path class="cls-4" d="M1090.11,53.89a12.93,12.93,0,0,1,2.57-1.74,6.22,6.22,0,0,1,5.85.06,7.72,7.72,0,0,1,2.18,2.1,9.2,9.2,0,0,1,3-2,9.53,9.53,0,0,1,3.95-.82,6.77,6.77,0,0,1,3.1.68,5.78,5.78,0,0,1,2.16,1.85,8.36,8.36,0,0,1,1.26,2.73,12.9,12.9,0,0,1,.43,3.37V70.55a2.53,2.53,0,0,1-2.53,2.53h0a2.52,2.52,0,0,1-2.52-2.53V60.08a3.46,3.46,0,0,0-1-2.53,3.38,3.38,0,0,0-2.53-1,3.34,3.34,0,0,0-2.52,1,3.47,3.47,0,0,0-1.06,2.53V70.55a2.52,2.52,0,0,1-2.52,2.53h0a2.52,2.52,0,0,1-2.52-2.53V60.08a3.43,3.43,0,0,0-1.06-2.53,3.11,3.11,0,0,0-1.15-.8,4,4,0,0,0-1.37-.25,3.42,3.42,0,0,0-2.57,1,3.46,3.46,0,0,0-1.05,2.53V70.55a2.52,2.52,0,0,1-2.52,2.53h0a2.53,2.53,0,0,1-2.53-2.53v-16a2.53,2.53,0,0,1,2.53-2.53S1090.11,52,1090.11,53.89Z"/></svg>