<svg id="Layer_1" data-name="Layer 1" xmlns="http://www.w3.org/2000/svg" viewBox="0 0 295.2 200.4"><defs><style>.cls-1{fill:#c1c7d0;}</style></defs><title>Artboard 22</title><path class="cls-1" d="M34.53,25.13a28.25,28.25,0,0,1,12,2.48,27.48,27.48,0,0,1,9.21,6.86A31.34,31.34,0,0,1,61.61,44.6,36.26,36.26,0,0,1,63.69,57V94.19H47.57V57a15.31,15.31,0,0,0-1.21-6,16.31,16.31,0,0,0-3.5-5.1,15,15,0,0,0-11-4.57A15.6,15.6,0,0,0,16.12,57V94.19H0V.13H16.12V32.38a31.5,31.5,0,0,1,8.2-5.24A25.07,25.07,0,0,1,34.53,25.13Z"/><path class="cls-1" d="M122.81,68.66H87.61a16.66,16.66,0,0,0,3.9,5.51,18.84,18.84,0,0,0,6.31,4.23,19.55,19.55,0,0,0,7.39,1.41A18.79,18.79,0,0,0,115,77.25L131.82,84a34,34,0,0,1-11.69,8.8A35.59,35.59,0,0,1,72.49,74.3a35.85,35.85,0,0,1,0-27.54A35.46,35.46,0,0,1,91.37,27.88a36.2,36.2,0,0,1,27.68,0,35.37,35.37,0,0,1,18.88,18.88,34.93,34.93,0,0,1,2.76,13.84,33.42,33.42,0,0,1-.94,8.06Zm-17.6-27.41a19.25,19.25,0,0,0-13.7,5.64,18.27,18.27,0,0,0-3.9,5.64h35.2a18.23,18.23,0,0,0-3.89-5.64A18.68,18.68,0,0,0,105.21,41.25Z"/><path class="cls-1" d="M217,26.87V94.19H200.88V60.6a19.27,19.27,0,0,0-19.35-19.35,19.32,19.32,0,0,0-13.71,5.64,19.31,19.31,0,0,0,0,27.28,17.32,17.32,0,0,0,6.25,4.23,20.06,20.06,0,0,0,7.46,1.41,18.81,18.81,0,0,0,7.25-1.34l5.78,14.38a31.88,31.88,0,0,1-14.38,3.08,33.74,33.74,0,0,1-13.64-2.74,33.16,33.16,0,0,1-10.81-7.6A35.19,35.19,0,0,1,148.6,74.3a38.59,38.59,0,0,1,0-27.54,35.19,35.19,0,0,1,7.13-11.29,33.13,33.13,0,0,1,10.81-7.59,33.58,33.58,0,0,1,13.64-2.75,31.72,31.72,0,0,1,11.69,2,35.5,35.5,0,0,1,9,5.11V26.87Z"/><path class="cls-1" d="M295.2,0V94.19H279.08V60.6a19.26,19.26,0,0,0-19.21-19.35A19.26,19.26,0,0,0,240.52,60.6a18.51,18.51,0,0,0,5.64,13.57,17.32,17.32,0,0,0,6.25,4.23,20,20,0,0,0,7.46,1.41A18.38,18.38,0,0,0,267,78.47l5.78,14.38a31.54,31.54,0,0,1-14.24,3.08,33.74,33.74,0,0,1-13.64-2.74,33.16,33.16,0,0,1-10.81-7.6,35.19,35.19,0,0,1-7.13-11.29,38.45,38.45,0,0,1,0-27.54,35.19,35.19,0,0,1,7.13-11.29,33.13,33.13,0,0,1,10.81-7.59,33.58,33.58,0,0,1,13.64-2.75,31.29,31.29,0,0,1,11.55,2,35.33,35.33,0,0,1,9,5.11V0Z"/><path class="cls-1" d="M146.3,171.65H131.52a21.33,21.33,0,0,1-8.6-1.75,21.6,21.6,0,0,1-7-4.77,23.23,23.23,0,0,1-4.71-7,21.52,21.52,0,0,1-1.75-8.61v-47l16.13-4v14.11H135l4,16.13H125.61v20.82a5.81,5.81,0,0,0,1.75,4.3,5.65,5.65,0,0,0,4.16,1.75h10.75Z"/><path class="cls-1" d="M216.44,104.32v67.33H200.32V138.06A19.27,19.27,0,0,0,181,118.7a19.43,19.43,0,0,0-13.71,5.64,19.33,19.33,0,0,0,0,27.29,17.41,17.41,0,0,0,6.25,4.23,20.1,20.1,0,0,0,7.46,1.41,18.68,18.68,0,0,0,7.26-1.35L194,170.3a31.74,31.74,0,0,1-14.37,3.09A33.51,33.51,0,0,1,166,170.64a33.05,33.05,0,0,1-10.82-7.6,35.12,35.12,0,0,1-7.12-11.28,38.48,38.48,0,0,1,0-27.55,35,35,0,0,1,7.12-11.28,33.16,33.16,0,0,1,24.46-10.35,31.59,31.59,0,0,1,11.69,2,35.41,35.41,0,0,1,9,5.1v-5.38Z"/><path class="cls-1" d="M294.78,164.92A34.58,34.58,0,0,1,292,178.63a35.6,35.6,0,0,1-7.6,11.29,36.37,36.37,0,0,1-11.28,7.65,35.34,35.34,0,0,1-25.26.94,35.5,35.5,0,0,1-9.95-5.36l11.69-11.56a17.9,17.9,0,0,0,9.68,2.69,18.14,18.14,0,0,0,13.7-5.79,18.5,18.5,0,0,0,5.65-13.57v-27a19.28,19.28,0,0,0-5.65-13.7,18.66,18.66,0,0,0-13.7-5.64A19.26,19.26,0,0,0,240,137.91a18.7,18.7,0,0,0,5.64,13.72,19.25,19.25,0,0,0,13.71,5.64,18.62,18.62,0,0,0,7.25-1.35L272.61,171a34.63,34.63,0,0,1-13,2.42h-.27a34.65,34.65,0,0,1-13.71-2.75,35.6,35.6,0,0,1-11.29-7.6,36.54,36.54,0,0,1-7.65-11.28,34.17,34.17,0,0,1-2.82-13.85,39.12,39.12,0,0,1,2.41-13.83A34.89,34.89,0,0,1,233,112.8a31,31,0,0,1,10.48-7.6,32.24,32.24,0,0,1,13.37-2.76,34,34,0,0,1,12.36,2.09,38.31,38.31,0,0,1,9.41,5.17v-5.24h16.12Z"/><path class="cls-1" d="M80.87,112.16a20.87,20.87,0,1,0,0,41.73h20.86V133A20.86,20.86,0,0,0,80.87,112.16ZM83,139.29a1.35,1.35,0,1,1-2.69,0V133.7a1.86,1.86,0,0,0-.56-1.35,1.91,1.91,0,0,0-2.7,0,1.86,1.86,0,0,0-.56,1.35v5.59a1.35,1.35,0,1,1-2.69,0V133.7a1.83,1.83,0,0,0-.57-1.35,1.62,1.62,0,0,0-.61-.43,2,2,0,0,0-.73-.13A1.91,1.91,0,0,0,70,133.7v5.59a1.35,1.35,0,1,1-2.7,0v-8.53a1.34,1.34,0,0,1,1.35-1.35s1.35,0,1.35,1a6.82,6.82,0,0,1,1.37-.94,3.19,3.19,0,0,1,1.46-.37,3.12,3.12,0,0,1,1.66.41,4.26,4.26,0,0,1,1.17,1.12,4.76,4.76,0,0,1,1.57-1.09,5,5,0,0,1,2.11-.44,3.58,3.58,0,0,1,1.65.36,3.18,3.18,0,0,1,1.16,1,4.55,4.55,0,0,1,.67,1.46,6.88,6.88,0,0,1,.22,1.8Zm11.35-8.62L90.87,135l0,0,0,.13,3.43,4.24c.43,1.08-1,1.52-1,1.52-1,.23-1.5-.4-2-1.09L89.13,137,87,139.82c-.53.69-1,1.32-2,1.09,0,0-1.46-.44-1-1.52L87.44,135h0l-3.53-4.35c-.43-1.08,1-1.52,1-1.52,1-.23,1.5.4,2,1.08l2.17,2.84,2.18-2.84c.52-.68,1-1.31,2-1.08C93.35,129.15,94.81,129.59,94.37,130.67Z"/></svg>