<svg xmlns="http://www.w3.org/2000/svg" xmlns:xlink="http://www.w3.org/1999/xlink" viewBox="0 0 243.26 570.04"><defs><style>.cls-1{isolation:isolate;}.cls-2{fill:#074752;}.cls-3{fill:#5abfb6;}.cls-4{fill:#ed4848;}.cls-5,.cls-6,.cls-7{opacity:0.8;}.cls-5,.cls-6{mix-blend-mode:color-burn;}.cls-5{fill:url(#linear-gradient);}.cls-6{fill:url(#linear-gradient-2);}.cls-7,.cls-8{mix-blend-mode:multiply;}.cls-7{fill:url(#linear-gradient-3);}.cls-8{fill:url(#linear-gradient-4);}</style><linearGradient id="linear-gradient" x1="144.84" y1="271.04" x2="202.17" y2="290.1" gradientUnits="userSpaceOnUse"><stop offset="0.11" stop-color="#fff" stop-opacity="0"/><stop offset="1"/></linearGradient><linearGradient id="linear-gradient-2" x1="234.2" y1="374.75" x2="184.4" y2="340.55" gradientUnits="userSpaceOnUse"><stop offset="0" stop-color="#fff" stop-opacity="0"/><stop offset="1"/></linearGradient><linearGradient id="linear-gradient-3" x1="94.11" y1="360.64" x2="39.88" y2="324.84" xlink:href="#linear-gradient-2"/><linearGradient id="linear-gradient-4" x1="37.88" y1="220.8" x2="78.49" y2="295.82" gradientUnits="userSpaceOnUse"><stop offset="0" stop-color="#fff" stop-opacity="0"/><stop offset="1" stop-opacity="0.8"/></linearGradient></defs><title>Artboard 19</title><g class="cls-1"><g id="Layer_1" data-name="Layer 1"><path class="cls-2" d="M242.61,38.84V382.36H187.42v-115q0-28-19.31-46.9-19.32-19.32-46.45-19.32-27.6,0-46.92,19.32t-19.32,46.9q0,27.17,19.32,46.45a59.38,59.38,0,0,0,21.39,14.48,68.59,68.59,0,0,0,25.53,4.83A62.59,62.59,0,0,0,146,328.57l19.78,49.19q-21.17,10.61-48.75,10.59a114.42,114.42,0,0,1-46.69-9.43,113.23,113.23,0,0,1-37-26A120.18,120.18,0,0,1,9,314.31,131.64,131.64,0,0,1,9,220a119.93,119.93,0,0,1,24.38-38.67,113.05,113.05,0,0,1,37-26A114.42,114.42,0,0,1,117.05,146q22.06,0,39.55,6.93a119.54,119.54,0,0,1,30.82,17.44V38.84Z"/><path class="cls-3" d="M242.84,448.62a118.43,118.43,0,0,1-9.43,46.9,121.42,121.42,0,0,1-26,38.63,124.79,124.79,0,0,1-38.63,26.23A116.94,116.94,0,0,1,121.42,570a118,118,0,0,1-39.09-6.44,122.34,122.34,0,0,1-34-18.41l40-39.53a61.42,61.42,0,0,0,33.12,9.17q28.05,0,46.9-19.76,19.32-19.32,19.33-46.45V356.17q0-26.67-19.33-46.9Q149,290,121.42,289.92q-26.7,0-46.92,19.35-19.3,20.21-19.31,46.9,0,27.56,19.31,46.9,20.25,19.31,46.92,19.31a64.08,64.08,0,0,0,24.84-4.57L167,469.32a119.56,119.56,0,0,1-44.62,8.27h-.92a118.28,118.28,0,0,1-46.92-9.43,121.66,121.66,0,0,1-38.64-26,124.88,124.88,0,0,1-26.2-38.63A116.92,116.92,0,0,1,0,356.17a134.07,134.07,0,0,1,8.27-47.39A119.59,119.59,0,0,1,31.5,270.15a106.47,106.47,0,0,1,35.87-26,110,110,0,0,1,45.76-9.44q23.93,0,42.32,7.12a130,130,0,0,1,32.2,17.7V241.63h55.19Z"/><path class="cls-4" d="M102.81,0a61.61,61.61,0,0,0,0,123.21h61.61V61.61A61.61,61.61,0,0,0,102.81,0Zm2.54,72.47a3.43,3.43,0,1,1-6.86,0V58.23a4.69,4.69,0,0,0-1.43-3.43,4.84,4.84,0,0,0-6.87,0,4.69,4.69,0,0,0-1.43,3.43V72.47a3.43,3.43,0,0,1-6.86,0V58.23a4.69,4.69,0,0,0-1.43-3.43,4.25,4.25,0,0,0-1.57-1.09A5.15,5.15,0,0,0,77,53.37a4.6,4.6,0,0,0-3.49,1.43,4.65,4.65,0,0,0-1.43,3.43V72.47a3.44,3.44,0,0,1-6.87,0V50.74a3.44,3.44,0,0,1,3.43-3.44s3.44,0,3.44,2.52a17.92,17.92,0,0,1,3.49-2.37,8.46,8.46,0,0,1,8,.08,10.69,10.69,0,0,1,3,2.86,12.41,12.41,0,0,1,4-2.77,12.88,12.88,0,0,1,5.37-1.12,9.17,9.17,0,0,1,4.21.92,8,8,0,0,1,2.94,2.51,11.36,11.36,0,0,1,1.72,3.72,17.57,17.57,0,0,1,.57,4.58Zm20-10.86,0,.32,8.73,10.8c1.1,2.75-2.61,3.85-2.61,3.85-2.61.59-3.84-1-5.17-2.75l-5.5-7.17-5.5,7.17c-1.33,1.74-2.56,3.34-5.17,2.75,0,0-3.71-1.1-2.61-3.85l9-11.1v0l-9-11.11c-1.1-2.74,2.61-3.85,2.61-3.85,2.61-.59,3.84,1,5.17,2.75l5.54,7.23,5.54-7.23c1.33-1.74,2.56-3.34,5.17-2.75,0,0,3.71,1.11,2.62,3.85l-8.93,11Z"/><path class="cls-5" d="M155.45,241.86l-12.26,51.53s23.06,7.81,28.06,19.15c0,0,27.87-21.16,16.4-53C187.65,259.56,163.68,244.61,155.45,241.86Z"/><polygon class="cls-6" points="187.42 369.73 242.61 272.35 242.61 394.11 187.59 450.93 187.42 369.73"/><path class="cls-2" d="M242.61,243.73V213.25l-20.83,20.59-15.09-7.16L183.1,243c21.36,82.47-53.88,89.7-53.88,89.7L141.44,386C257.82,366.15,242.61,243.73,242.61,243.73Z"/><path class="cls-7" d="M71.6,312.54S48.21,337.37,57,371.94c0,0,22.43,12.19,36,14.08l9.89-55.45S87.82,329.1,71.6,312.54Z"/><path class="cls-8" d="M8.27,308.78S22.55,266.15,57.82,249c0,0,7.22-23.22,21.09-32.36L90,208.16l15.5-5.14L85.12,189.79,49.94,167,24.61,191.8,9,220S-9.4,272,8.27,308.78Z"/></g></g></svg>