<?xml version="1.0" encoding="utf-8"?>
<!-- Generator: Adobe Illustrator 23.0.1, SVG Export Plug-In . SVG Version: 6.00 Build 0)  -->
<svg version="1.1" id="LOGROS" xmlns="http://www.w3.org/2000/svg" xmlns:xlink="http://www.w3.org/1999/xlink" x="0px" y="0px"
	 viewBox="0 0 850.8 799.8" style="enable-background:new 0 0 850.8 799.8;" xml:space="preserve">
<style type="text/css">
	.st0{fill:#00BDB5;}
	.st1{fill:#004552;}
	.st2{fill:#FFFFFF;}
	.st3{fill:#004552;stroke:#000000;stroke-width:3.78;stroke-miterlimit:10;}
	.st4{fill:#00BFB7;}
	.st5{fill:#FF4645;}
	.st6{fill:none;}
</style>
<title>Mesa de trabajo 1 copy</title>
<path class="st0" d="M273.6,758.6H59.7c-16.6,0-14-17.7,10.4-18.7S135,743,135,743s3.6-27.5,33.2-27.5s36.9,19.2,36.9,19.2
	s1-64.4,64.4-64.4s102.3,50.9,102.3,50.9s9.9-9.9,34.8-9.9s30.1,21.3,30.1,21.3s11.9-8.8,36.9-3.6s24.4,29.6,13,29.6H271.6"/>
<path class="st0" d="M593.6,760.8h-59.5c-10.8,0-7.3-15.9,1.8-20.1s21.4,0,21.4,0s-0.7-14.1,9.3-23.6c6.2-5.7,14.3-9,22.7-9.3
	c0,0-7.7-19.6,5.5-31.7s34.6-8.4,42.1,2.2s3.5,24.5,3.5,24.5c11.7-5.3,25.4-3.8,35.7,4c18.1,13.2,3.3,28.4,3.3,28.4
	s16.1-6.4,25.6,3.8c10.3,11-3.5,21.8-21.2,21.8L593.6,760.8z"/>
<path class="st1" d="M830.9,124.4H20.1c-7.2,0-13,5.8-13,13v496.9c0,7.2,5.8,13,13,13h810.8c7.2,0,13-5.8,13-13V137.4
	C843.9,130.2,838.1,124.4,830.9,124.4z M807.9,541c0,0.9-0.7,1.6-1.6,1.6c0,0,0,0,0,0H46.2c-0.9,0-1.6-0.7-1.6-1.6c0,0,0,0,0,0V179
	c0-5.3,4.3-9.7,9.7-9.7h744c5.3,0,9.7,4.3,9.7,9.7L807.9,541z"/>
<path class="st2" d="M807.1,166.7H43.7c-3.6,0-6.6,3-6.6,6.6v372.1h776.6V173.3C813.7,169.7,810.7,166.7,807.1,166.7z"/>
<path d="M830.9,121.2H20.1c-9,0-16.2,7.3-16.2,16.3v496.9c0,9,7.3,16.2,16.2,16.2h810.8c9,0,16.2-7.3,16.2-16.2V137.4
	C847.1,128.5,839.8,121.2,830.9,121.2z M843.9,634.3c0,7.2-5.8,13-13,13H20.1c-7.2,0-13-5.8-13-13V137.4c0-7.2,5.8-13,13-13h810.8
	c7.2,0,13,5.8,13,13V634.3z"/>
<path d="M807.1,165H45.3c-5.5,0-9.9,4.4-9.9,9.9v370.6c0,0.9,0.7,1.7,1.7,1.7h778.3c0.9,0,1.7-0.7,1.7-1.7l0,0V174.9
	C817,169.4,812.6,165,807.1,165z M813.7,543.8H38.7V174.9c0-3.6,2.9-6.6,6.6-6.6h761.8c3.6,0,6.6,2.9,6.6,6.6c0,0,0,0,0,0
	L813.7,543.8z"/>
<polygon class="st3" points="558.7,743.8 298,743.8 310.9,649.3 545.7,649.3 "/>
<path class="st3" d="M277.2,743.8h302c5.4,0,9.8,4.4,9.8,9.8l0,0v10.5l0,0H267.4l0,0v-10.5C267.4,748.2,271.8,743.8,277.2,743.8
	C277.2,743.8,277.2,743.8,277.2,743.8z"/>
<path class="st4" d="M576.2,346.6c-0.1,0.5-0.1,1,0,1.4c1,4.3-1.8,6.9-4.1,9.7c-1.1,1.3-2.9,0.7-3.7-1.3c-1.7-4.1-3.3-8.2-5.3-12.2
	c-2.1-4.2-3.2-8.7-4.8-13.1c-0.6-2.1-0.8-4.2-0.7-6.3c0-0.9,0.1-1.9-0.8-2.4c-1-0.6-1.3,0.6-1.8,1c-2,1.5-5.7,0.2-6.8-2.7
	c-1.2-3.1-3.8-4.8-6-6.8c-1.6-1.5-3.9-1.2-5.7-0.7c-3.9,1.1-7.7,0-11.5-0.2c-1.6-0.1-2.8-1.3-4.2-2.2c-0.6-0.6-1.5-0.9-2.4-0.9
	c-4.8,1.1-8.2-1.5-11.4-4.4c-1.1-1-2.1-2.1-3.2-3.2c-0.7-0.9-1.9-1-2.8-0.4c-0.9,0.8,0,1.5,0.3,2.3c0.8,1.6,1.8,3,3.1,4.2
	c1.1,1.1,2,2.4,2.6,3.9c1,2.8,3,4.1,5.8,3.4c4.9-1.1,9.2,0.5,13.5,2.5c2,0.9,2.4,2.6,1.4,4.5c-1.6,3.2-4.1,5.8-5.8,8.9
	c-1.3,2.4-4.4,2.9-6.5,4.6c-3.6,3-7.7,5.5-12.1,7.2c-1.8,0.7-3.6,1.6-5.4,2.4c-1.6,0.8-3.6,0.1-4.5-1.5c-0.1-0.1-0.1-0.2-0.2-0.4
	c-2.1-5.7-5.2-10.9-9.1-15.4c-1.5-1.7-2.6-3.8-3-6c-0.2-1.2-0.7-2.4-1.3-3.5c-2.7-4.5-6.3-8.2-9.4-12.3c-0.4-0.4-0.6-0.9-0.7-1.5
	c-0.1-5-1.4-10.1,1.2-14.9c0.5-1.1,0.6-2.3,0.2-3.5c-0.5-2-1.7-2.4-3.4-1.7c-1.6,0.8-3.4,0.8-5,0c-0.9-0.4-1.9-0.4-2.8-0.1
	c-2.6,0.8-5.4-0.3-6.8-2.6c-1.7-2.1-1.6-5,0.3-7c0.8-1,0.6-1.8-0.8-1.9c-1.9-0.1-3.8,0.1-5.7,0.6c-1.5,0.3-1.5,2.9-0.3,4.8
	c0.6,0.9,2.1,1.5,1,2.8s-1.9,3.2-4.2,3c-1.2-0.1-2.1-0.4-1.9-1.8c0.3-2.4-0.9-3.9-2.9-4.9c-2.2-1.1-3.7-2.7-3.8-5.3
	c-0.1-1.8-1.4-2.8-2.8-3.5c-2.4-1.1-4.6-2.9-6.2-5c-1.1-1.5-3-1.3-4.4-2.1c-0.3-0.2-0.7,0.3-0.8,0.7c-0.2,0.6-0.1,1.3,0.4,1.8
	c1.2,1.3,2,2.9,3.3,4c2.3,2,3.5,5.1,6.5,6.4c0.5,0.2,1.2,0.7,1.2,1.4s-0.9,0.7-1.5,0.7c-1.4,0-1.6,0.8-1.3,1.9c0.5,1.4,0,3-1.3,3.8
	c-1.5,1.2-3.5,0.5-3.5-1.2c-0.2-2.4-1.3-4.6-3.1-6.2c-2.1-2.2-3.7-4.7-4.9-7.5c-1.1-2.5-2.8-3.2-5.1-1.9s-4.9,2.3-7.7,1.5
	c-0.7-0.3-1.6,0.1-1.9,0.8c-0.1,0.2-0.1,0.4-0.1,0.6c-0.1,2.3-1.7,3.3-3.4,4.1c-2.3,1-3.6,2.4-3.4,5.3c0.2,2.8-4.3,6.3-8.1,6.7
	c-3.6,0.4-6.9-0.8-10.2-1.7c-1.5-0.4-3-5.3-2.1-7c0.8-1.5,1.2-3.3,1-5c-0.3-5.7,1.6-6.1,7-5.1c1.5,0.3,3.1,0.5,4.7,0.6
	c3.7,0.2,4.3-1.4,5.3-4.3c0.5-1.4-0.1-3-1.4-3.7c-1.2-0.8-2.4-1.5-3.6-2.3c-0.9-0.4-1.4-1.4-1.3-2.3c0.1-1.1,1.1-1.3,1.9-1.4
	c1.4-0.1,2.8-0.8,3.8-1.8c0.4-0.4,0.9-0.6,1.5-0.6c2.8,0.4,4.5-1.1,6.1-3.2c1.2-1.6,2.9-2.7,4.8-3.3c2.1-0.7,4.1-1.6,6.1-2.6
	c1.7-0.8,1.2-2.3,0.7-3.5c-0.6-1.6-1.2-3.2,0.3-4.6s3-1,4.7-0.7c1.2,0.2,1.4,0.7,1,1.8c-0.3,0.7-0.5,1.5-0.8,2.3
	c-0.4,1.8,1.4,3.7,3,2.9c1.5-0.8,3.3-0.6,4.6,0.4c0.8,0.5,1.8,0.5,2.5-0.1c2.1-1.7,4.6-1.4,7.1-1.4c2.6,0,3.5-0.8,3.4-3.4
	c-0.1-2.3,0.4-4,3.2-3.8c1.1,0,1.1-0.7,0.8-1.5c-0.9-2.1,0.3-2.3,1.9-2.3c2.1,0.1,4.2,1,6.2-0.5c0.8-0.6,2-0.9,1.7-2.2
	s-1.6-1.6-2.7-1.5c-2,0.2-4,0.1-5.8,1.1c-1.5,1-3.5,0.7-4.6-0.8c0,0,0,0,0-0.1c-1-1.6-1-3.6,0.1-5.2c0.6-0.8,1.2-1.5,1.8-2.2
	c0.6-0.8,1.9-1.6,0.8-2.6s-3.1-0.9-3.6,0.3c-1.1,3-3.8,4.1-6,5.8c-1.4,1.1-1.7,2.5-0.4,4.1c1.9,2.2,1.7,3.5-0.8,5.1
	c-0.7,0.5-1.1,1.4-1.1,2.2c-0.6,3.4-1.9,4.6-5.3,4.8c-1.6,0.1-2.1-0.8-2.2-2.2c0.1-1.1-0.2-2.2-0.8-3.1c-1.5-1.9-3.2-2.7-5.5-1.3
	c-0.5,0.3-1,0.5-1.5,0.6c-2,0.5-4,0.8-5.6-0.8c-1.1-1.1-0.2-5.2,1.3-6.6c0.9-0.9,0.4-1.5-0.3-1.9c-1.1-0.5-1.6-1.7-1.1-2.8
	c0-0.1,0.1-0.1,0.1-0.2c0.3-1.4,1.5-2.3,2.9-2.4c0.8-0.1,1.6-0.1,2.4,0c3.3,0.3,5.8-1.3,8-3.5c1.8-1.9,3.7-3.7,5.7-5.3
	c0.8-0.7,1.2-1.7,1.2-2.7c0.2-2,1.4-2.7,3.1-1.6c3.1,2,5.5,0.7,7.8-1.4c1-0.9,2.1-1.5,3.4-0.7c0.6,0.4,1.4,0.4,2,0
	c1.3-0.6,2.8-0.7,4.2-0.5c1.6,0.1,2.5,0.7,1.7,2.4c-0.6,1.3-0.1,1.7,1.1,1.8c1.5,0.1,3,0.4,4.5,0.4c4.1-0.1,7.6,2,11.4,3
	c1.2,0.4,1.9,1.7,1.5,2.9c-0.2,1.1-1.2,1.8-2.3,1.7c-0.1,0-0.2,0-0.2,0c-2.8-0.3-5.7-0.7-8.5-1c-0.4,0-0.8-0.3-1.1,0.1
	s0.1,0.8,0.5,1.2c1.8,1.9,4.1,3.3,6.6,4c1.4,0.4,2.2-0.7,3.3-0.9c2.2-0.5,4.4-1.4,6.3-2.7c1-0.6,1.4-1.3,0.9-2.3
	c-1.5-2.9-0.9-6-0.6-9.1c0.1-1.3,0.8-1.7,2-1.2c2.6,1.1,3.9,1.6,2.9,4.6c-0.4,1.4,0.7,2.4,1,3.6c0.1,0.3,0.5,0.5,0.9,0.3
	c0.1,0,0.1-0.1,0.1-0.1c2.4-1.7,6-1.4,7.5-4.8c0.7-1.6,2.6-1.3,3.6,0.3c1.5,2.4,4.7,3,7,1.5c0.6-0.4,1.1-0.8,1.4-1.4
	c1.2-1.8,2.8-1.3,4.2-1c2.3,0.5,4.1,2,6.1,3.2c0.7,0.5,1.6,1.3,2.3,0.3s-0.5-1.5-1.1-2c-0.7-0.7-1.4-1.5-2.2-2.1
	c-1-0.8-1.3-2.3-0.6-3.4c0.6-1.3,1.5-2.4,3-2.3c1.4,0,2.7,0.7,3.4,1.9c1.4,2.7,3.3,5.1,5.6,7.1c1.7,1.4,0.9,4.1-1.5,5.4
	c-0.6,0.4-1.9,0.3-1.6,1.4s1.4,0.9,2.2,0.9c3-0.1,5.6-2.1,6.6-5c0.1-0.5,0.2-1,0.7-1.1c3-0.9,1.1-1.7,0-2.5c-0.9-0.6-2-1-3.1-1.2
	c-1.6-0.4-3-1.5-3.9-2.9c-0.7-0.9-0.7-2.2,0.1-3.1c0.7-0.9,2-1.1,3-0.5c1.7,1,3.8,1.3,5.7,0.8c1.4-0.3,2.6-1.1,0.7-2.5
	c-0.8-0.6-1.1-1.6-0.8-2.5c0.4-0.8,1.2-1.3,2.1-1.3c0.7-0.1,1.4-0.1,2.1,0.1c1.7,0.5,3.1,1,4.3-1.1c0.6-1.1,2.7-1.1,4.2-0.8
	c2.8,0.7,5.8-0.1,8.7,1c1.4,0.6,1.9-0.7,1.5-2c-0.7-2.7-0.1-3,2.5-3.6c3.6-0.9,5.3,1.9,7.6,3.4c1.3,0.8,2.2,1.2,3.7,0.5
	c2-1.1,4.5-1,6.3,0.4c0.6,0.4,1.3,0.6,2,0.7c0.7,0,1.5-0.2,1.8,0.8c0.1,0.7-0.2,1.5-0.9,1.8c-1.1,0.8-2.2,1.6-3.2,2.4
	c-0.4,0.3-1.1,0.7-0.7,1.3c0.3,0.5,0.9,0.3,1.3,0.1c8.5-3.3,17.4-1,26.1-1.8c3.6-0.3,6.7,0.9,9.6,2.7c2.3,1.5,4.7,2.5,7.6,1.3
	c1.3-0.6,2.8,0,4.2,0.4c3.6,1,4.7,0.6,6.9-2.4c1.9-2.6,4.7-2.5,6.6,0.2c0.8,1.1,1.8,0.9,2.8,0.7c1-0.2,2-0.5,2.9-0.9
	c1.5-0.7,3.4-0.2,4.3,1.2c2,2.3,5.1,1.8,7.8,2c4.9,0.5,10-1.1,14.5,2.2c0.5,0.4,1.5,0.3,2.3,0.3c4.7,0.1,9.3-0.2,13.9,1.3
	c1.4,0.5,2.5,0.1,2.1-1.9s0.5-2.7,2.5-2.1c1.4,0.4,2.7,0.9,4,1.4c5.1,1.9,10.6,2.4,15.8,4.1c2.8,0.9,5.9,0.9,8.7,2
	c0.8,0.3,1.7,0.3,2.5,0.7c0.8,0.4,1.3,1.3,1.2,2.1c-0.1,1-0.9,1.2-1.7,1.3c-0.2,0-0.6-0.1-0.7,0.1c-1.4,1.1-4.3-2.4-4.7,1.6
	c-0.2,2-1.6,3.9-0.3,5.9c0.1,0.1,0.1,0.3,0.2,0.5c1.1,4.4,0.7,4.9-3.7,4.9c-1.6-0.1-3.2,0.1-4.7,0.6c-2.1,0.9-2.4,2.6-0.8,4.3
	c0.2,0.2,0.4,0.3,0.6,0.5c3.8,2.3,4.1,6.2,4.6,10.1c0,1.4,0.1,2.8,0.4,4.3c0.2,0.6,0.3,1.3-0.4,1.7c-0.7,0.4-1.5,0.2-2-0.4
	c-3.7-4.2-8-7.8-12.1-11.6c-1.2-1.1-0.8-2.6-0.2-3.8c1.1-2.1,1-4.6,2.2-6.7c0.3-0.7,0.3-1.6-0.2-2.3c-0.2-0.7-0.9-1.2-1.6-1.2
	c-0.6,0-1.2,0.4-1.4,1c-1.4,2.7-1.9,2.9-4.4,1.4s-3.5-1.1-4.3,1.6c-1,3.5-3.4,4.7-6.8,3.2c-1.5-0.7-3.2-0.7-4.8,0
	c-1.6,0.6-3.3,0.3-5,0.3c-4.3,0.1-5.9,1.4-6.7,5.7c0,0.2-0.1,0.5-0.1,0.7c0,1.2-2.2,2.4-0.7,3.3c1.7,1.1,3.8,2.8,5.8,2.5
	c5.7-1,8.6,1.8,10.5,6.5c0.8,2.1,2.2,4.1,2.9,6.2c1.1,3.4,1,7-0.2,10.4c-1.1,3.7-3.1,5.4-6.6,6.2c-1.4,0.3-2.3,1.7-2,3.1
	c0.2,0.9,0,1.9-0.6,2.7c-1.5,1.6-1,3,0.3,4.4c1.8,1.8,3.5,3.7,4.3,6.2c0.3,1.1,1.5,2.5-0.5,3.4c-2.5,1.1-3.9,1-5-0.9
	c-0.7-1.2-1.3-2.5-1.8-3.9c-1.3-3-4.2-4.5-5.9-7.1c-0.8-0.8-2-0.8-2.8,0c0,0,0,0,0,0c-1.9,1.8-3.1,0.8-3.9-0.9c-0.9-2-1.9-1.5-3-0.4
	c-0.2,0.2-0.3,0.4-0.4,0.6c-0.6,1.1-2.7,1.6-2,3.1s2.6,2,4.2,2.4c0.7,0.1,1.4,0.1,2.1,0c0.9,0,2-0.2,2.5,0.9c0.5,1,0.3,2.3-0.4,3.1
	c-2.1,3.4-1.9,4.5,1.4,6.7c2,1.4,3.5,2.9,3.5,5.6c0.1,1.2,0.7,2.3,1.8,2.9c1.5,1,2,3,1.1,4.7c-1.2,2.8-2.2,5.7-3.3,8.4
	c-1.6,3.8-5.2,6.4-9.3,7.6c-2.3,0.7-4.4,1.6-6.7,2.4c-1.4,0.7-3,0.8-4.6,0.5c-2.9-0.8-6.5,2.4-6.1,5.5c0.2,1.7,1,3.2,2.2,4.3
	c2.7,2.3,4.9,5.2,6.6,8.4c1.1,2.3,0.7,4.8,0.2,7.2c-0.3,1.2-1.3,1.7-2.5,2c-1.4,0.3-2.6,1.3-3,2.8c-0.4,1.4-1.8,2.4-3.3,2.3
	c-1.8,0-1.9-1.4-2.3-2.6c-0.1-0.5-0.3-0.9-0.6-1.3c-2.3-2-3.9-4.7-6.3-6.6c-0.5-0.6-1.3-0.7-2-0.3c-0.8,0.5-0.4,1.2-0.4,1.9
	c0,4.7,2,8.8,3.9,13c0.8,1.9,2.8,2.5,4.2,3.7c0.5,0.4,1.3,0.5,1.4,1.2c0.2,3,1.2,5.7,2,8.5c0.2,0.8,0.2,1.6-0.8,2s-1.7,0.5-2.4-0.3
	c-1.8-1.9-3.8-3.6-5.8-5.2c-0.8-0.6-1.2-1.5-1.2-2.5c-0.1-2.3-1-4.5-2.5-6.3c-3.1-3.8-3.6-8.2-3.8-12.8c-0.1-4-1.6-7.8-3.1-11.6
	c-0.6-1.5-1.4-1.4-2.6-0.5c-2.9,2.3-4.2,1.8-5.5-1.6c-1.8-4.8-3.6-9.4-7.4-13.1c-2.5-2.5-5.4-2.6-7.1,0.5c-1.4,2.5-3.2,4.7-5.4,6.6
	c-1.6,1.3-3,2.9-4,4.7c-0.5,1-1.4,1.8-2.4,2.3c-3.5,1.5-4.1,4.3-3.9,7.6C576.2,344.6,576.1,345.6,576.2,346.6L576.2,346.6z"/>
<path class="st4" d="M444,469.8c-2.2-0.3-4.7,0.5-7.2,0.5c-3.3-0.1-4.9-1.3-4.7-4.5c0.3-4.4-2.1-7.8-4.3-11.1
	c-2-3.2-3.2-6.9-3.3-10.7c-0.3-5-2.5-9.1-4.5-13.3c-1.7-3.6-2.8-6.6-1.3-10.8c1.2-3.3,1.5-6.9,3.5-9.9c0.4-0.6,0.4-1.3,0-1.8
	c-1.5-1.9-1.4-4-1.2-6.2c0.2-1.7-1.1-2.7-1.5-4.1c-1.4-4.5-4-8.4-6.5-12.3c-0.9-1.3-2-2.4-3.4-3.3c-1.1-0.8-1.1-1.5-0.3-2.5
	c1-1.2,2-2.5,2.9-3.8c2-3.2,0.7-6-3.1-6.1c-3-0.1-5.5-0.4-7.2-3.4c-1.2-2-3.8-1.5-6-1.3c-1.1,0.1-2.2,0.5-3.1,1.2
	c-3,2.1-6.3,2.4-9.7,1.8c-2-0.4-4.1-0.2-6,0.8c-3.6,1.8-6.3-0.5-9.1-2.3c-1-0.7-2-1.5-3.1-2.2c-2.4-1.4-4.1-3-4.7-6
	c-0.5-2.8-3.2-4.6-5.2-6.6c-1.1-0.9-1.7-2.3-1.7-3.7c0.1-0.8-0.1-1.6-0.6-2.3c-1.6-1.8-1.1-3.7-0.3-5.6c1.9-4.3,2.5-8.5,0.8-13
	c-1.2-3.2,0.3-6.3,2.5-8.1c3.2-2.7,4-6.5,6.2-9.7c0.6-0.9,1.4-1.6,2.4-2.1c3-1.4,5.4-3.2,5.5-7.2c0.1-3.1,1.9-5.5,4.6-7.2
	c4-2.5,8.2-4.4,13-4.5c1.6,0,3.2-1,4.6-1.6c2.3-0.9,5-0.8,7-2.5c0.6-0.5,1.3-0.6,2-0.4c3.2,1.4,6.4,0.1,9.6-0.1
	c3.2-0.2,4.7,0.7,5,3.9c0,0.4,0,0.8,0,1.2c0,3.8,1.2,5.4,5,5.6c2.2,0,4.2,1.1,5.4,2.9c1.8,2.4,4.8,2.1,7.1,3.3
	c1.1,0.6,1.8-0.7,2.2-1.7c1-2.9,4.2-4.4,7.1-3.4c0.3,0.1,0.7,0.3,1,0.4c5.4,3.4,11.9,4.5,18.2,3.1c1.9-0.4,3.9,0.7,4,2.4
	c0.1,5.6,3.4,9.9,5.6,14.7c1.2,2.6,1.9,5.4,3.8,7.7c1.2,1.5,0.5,3.7,1.1,5.5c0.6,1.8,1.1,3.4,2.8,4.5c1.3,0.9,2.2,2.3,2.5,3.9
	c0.6,2.7,2,5.1,4,6.9c2.6,2.4,4.1,5.8,7.4,7.5c1.3,0.8,2.9,1,4.3,0.6c2.7-1,5.5-1.4,8.2-2.4c2.5-1,3.4-0.4,3.3,2.3
	c-0.1,2.9-1.5,5.5-2.4,8.1c-1.7,4.7-4.8,8.5-7.4,12.5c-0.3,0.5-0.7,0.8-1.2,1.1c-4,1.8-6.3,5.2-8.5,8.7c-0.4,0.9-1.1,1.8-1.9,2.4
	c-2.3,1.5-3.4,3.7-4.4,6.2c-1.4,3.5-1.5,7.4-0.1,11c1.9,5.2,2.6,10.8,1.9,16.2c-0.5,3.3-2.9,5.6-5.8,7.1s-5,4.3-7.1,6.8
	c-0.4,0.4-0.5,1-0.3,1.5c1.1,1.8,0.4,3.9,0.7,5.8c0.4,3.3-1.4,5.3-4.2,6.4c-1.1,0.3-1.8,1.4-1.7,2.5c-0.1,3.1-1.4,6-3.5,8.3
	c-2.5,2.8-4.5,6-7.4,8.5C452,469,448.4,469.9,444,469.8z"/>
<path class="st4" d="M273,250.3c-4.2,0.3-8.1-1.1-11.4,1.1s-8.1,2.2-9.9,6.7c-0.2,0.5-0.8,0.9-0.3,1.5s0.8-0.1,1.2-0.3
	c1.9-1.1,3.8-2.2,5.8-3.3c2.3-1.2,3.3-0.8,4.7,1.3c1.5,2.4,2.5,5,4.7,7c2.7,2.5,1.8,4.8-2,6c-1.9,0.4-3.6,1.1-5.3,2
	c-0.8,0.5-1.8,0.4-2.5-0.1c-0.8-0.5-0.5-1.3-0.4-2.1c0.2-1.6,1.3-3,2.9-3.5c0.8-0.3,1.2-0.8,1-1.6s-1.1-0.7-1.8-0.7
	c-0.4,0-0.8,0.1-1.1,0.3c-3.4,3.6-8.9,4.1-12.2,7.8c-0.7,0.8-1.7,1.2-2.8,1.3c-3.6,0-6.9,1.9-8.7,5.1c-0.5,0.8-1.5,1.2-2.4,1.2
	c-3.3,0.3-4.7,2.6-3.6,5.6c1,2.7,0,4.5-2.6,6c-1.5,0.8-3,1.4-4.5,2c-5.6,2.2-9.6,8.1-6.9,15.3c0.8,2.2,0.2,4.6-1.4,6.2
	c-1,1.1-2,1.1-2.7-0.1c-1.1-2-2.2-4-1.7-6.5c0.6-3.4,0-3.8-3.1-5c-2.8-1.1-5.4-2.1-8.4-1c-0.7,0.2-1.6,0.3-2,0.7
	c-1.9,2.2-4.1,2-6.7,1.3c-3.6-1.1-11.4,3.6-12,7.4c-0.6,2.8-1.6,5.5-2.9,8c-1.3,2.4-1.2,5.2,0.1,7.5c0.5,0.7,0.8,1.5,1,2.4
	c0,0.3,0.1,0.6,0.3,0.9c2.3,3.2,5.6,2.3,8.7,1.9c2.2-0.1,4.1-1.8,4.3-4.1c0.4-2.5,1.6-3.6,4.1-3.7c1.2,0,2.4,0,3.6,0
	c1.8,0.1,2.4,1.1,1.3,2.5c-2.3,2.8-1.9,6.8-4.3,9.6c-0.9,1.1-0.1,2.1,1.4,2.2c1.7,0,3.3,0,5,0c3.9,0,5.8,3.4,3.9,6.9
	c-0.7,1.2-1.5,2.4-1.5,3.9c0,3,1.5,4.7,4.5,4.9c2.3,0.3,4,2.5,3.7,4.8c-0.1,0.5-0.2,1-0.5,1.5c-0.9,1.3-2.3,1-3.4,0.5
	c-3.7-1.4-6.7-4-9.4-6.7c-1.2-1.2-1.4-3.3-2.2-4.9c-0.8-2.1-2.8-3.4-5-3.5c-3-0.4-6.2-1-8.1-4.2c-1-1.7-3-2.6-4.9-2.3
	c-5.1,0.6-10.2-1.1-13.9-4.7c-1.8-1.5-4.4-1.6-5.9-3.7c-0.9-1-1.4-2.2-1.5-3.5c-0.2-2.3,0.9-4.8-0.7-6.7c-1.8-2.1-3.3-4.5-4.4-7.1
	c-1.8-4.4-5.8-7.8-5.8-12.9c0-0.7-0.1-1.6-1-1.6c-1.1-0.1-1.2,1-1.2,1.7c0,2.3,0.6,4.6,1.7,6.6c1.8,3.4,2.4,7.2,4.1,10.5
	c0.5,0.7,0.3,1.7-0.5,2.1c-1,0.6-2.2,0.6-3.2-0.1c-1.5-1.3-3.3-2.6-3.7-4.8c-0.3-1.8-1.2-3.5-2.7-4.6c-1.2-0.9-1.8-2.3-0.8-3.8
	c0.6-0.9,0.2-1.6-0.1-2.5c-1-2.6-1.9-5.2,0.1-7.9c0.9-1.2-0.2-3.2-1.9-4c-3.2-1.3-4.7-4.9-3.4-8.1c0-0.1,0.1-0.2,0.1-0.3
	c0.6-1,0.6-2.3,0-3.3c-1.1-2.1-0.4-4.6,0.4-6.5c1.1-3,2.7-5.9,4.8-8.3c2.4-2.7,5.1-5.3,6.2-9.1c0.3-1.2,1.3-2,2.5-2.2
	c2.7-0.5,3.5-2.4,2.3-4.7c-0.6-1.2-0.9-2.5-0.9-3.9c0.2-2.3-0.1-4.6-0.8-6.8c-0.4-1.3-0.3-2.7,0.3-3.9c0.6-1.5,0.7-3.1,0.3-4.7
	c-0.3-1.7-1.7-1.7-2.8-1c-0.9,0.8-2.3,0.7-3.1-0.3c-0.1-0.1-0.1-0.1-0.2-0.2c-1.5-1.7-3.8-2.2-5.7-3.2c-0.9-0.6-2-0.4-2.6,0.5
	c0,0-0.1,0.1-0.1,0.1c-1.4,2.6-4.1,4.3-7,4.6c-1.6,0.2-3.1,1.1-4.7,1.7c-1,0.5-2.2,0.2-2.7-0.8c0-0.1-0.1-0.1-0.1-0.2
	c-0.7-1.4,0-2.3,1.1-3c1.3-0.9,2.8-1.5,4.3-2c0.7-0.2,1.3-0.5,1.9-0.9c0.7-0.3,1-1.1,0.8-1.8c-0.4-1-1.2-0.7-1.8-0.4
	c-3.7,1.4-7.3,2.9-10.9,4.4c-0.7,0.4-1.1,1.2-1.1,2c-0.3,2.5-2.1,4.6-4.5,5.2c-4.1,0.7-7.6,3.1-11.6,4.1c-0.3,0.1-0.6,0.4-0.9,0.4
	c-4.2,0-8.2,1.1-12.3,1.8c-0.7,0.1-1.7,0.3-1.9-0.9s-0.2-2.5,0.9-3c1.7-0.8,3.3-1.9,5.3-1.8c5.8,0.2,10.8-2.3,16-4.4
	c0.2-0.1,0.4-0.2,0.6-0.4c0.9-0.8,2.7-1.5,1.9-2.8s-2.2-0.3-3.3,0.3c-1.7,1-5.1,0.3-6.3-1.2s0.5-4.9,2.6-5.6
	c2.3-0.7,4.6-1.6,6.8-2.6c0.9-0.3,1.9-0.4,2.8-0.1c1.4,0.4,2.9,0.2,4.1-0.7c0.6-0.3,0.9-1,0.8-1.6c-0.1-0.9-0.8-0.9-1.5-0.9
	c-0.9,0-1.9,0-2.8,0.1c-0.8,0.1-1.4,0.1-1.9-0.5s-0.1-1.5,0.3-2.2c0.8-1.4,2.2-1.7,3.6-2.1c2.5-0.6,5-1.7,7.5,0c1,0.6,2.3,0.3,3-0.6
	c0.8-0.8,0-1.6-0.5-2.3c-0.3-0.4-0.5-0.8-0.8-1.2c-0.6-0.8-0.6-1.9,0-2.7c0.5-0.9,1.6-1.2,2.5-0.8c4.1,2.2,7.6-0.7,11.4-1.4
	c1-0.2,2.1-0.5,3.2-0.7c5-0.9,9.7-1.5,14.9-0.2c4,1,8.5,0.7,12.7,1.5c1.8,0.3,3.6,0.8,5.2,1.6c4.5,2.1,8.8,0.4,12.8-1.3
	c2.9-1.2,5.3-2.3,8.1,0.1c1,0.9,2.3,0.7,3.6,0.5c3.1-0.6,6.2-0.5,9.2-2c0.9-0.4,2-0.1,2.5,0.8c0.5,0.8,0.5,1.9-0.1,2.7
	c-0.3,0.7-1.3,1.4-0.5,2.3c0.7,0.7,1.7,0.9,2.7,0.5c2.2-0.4,4.4-0.8,6.4,0.7c0.8,0.6,1.4,0,2.1-0.4c1.7-1.4,4-1.8,6.1-1.2
	c2,0.5,4.2,0.1,5.8-1.2c3.1-2.1,4.2-1.9,6.1,1.2c0.2,0.3,0.5,0.6,0.9,0.6c2,0.4,4.9-2.1,4.7-4.2c-0.3-1.4,0.4-2.8,1.7-3.4
	c1.4-0.8,3.1-0.8,4.6-0.2c1.1,0.5,0.8,1.8,0.8,2.8c0.1,3.4,0.8,4,4.2,3.3c2-0.4,3.6-1.5,5.4-2.3c1.5-0.7,3-0.9,4,0.5
	s0.3,2.6-0.8,3.8c-1.2,1.5-3.1,2.3-5,2.2c-2.2-0.2-4.2,0.1-5.9,1.9c-1.4,1.5-3.5,0.5-5.2,0.9c-1.9,0.4-3.7,0.4-4.8,2.7
	c-1,1.6-3.1,2.2-4.8,1.3c-1.5-0.7-2.2-0.3-2.5,1.2c-0.3,2.3-2,4.1-4.2,4.6c-1.4,0.6-2.7,1.3-3.9,2.2c-1.7,1.2-2.5,4.7-1.5,6.5
	c0.5,0.9,1.5,1.3,2.5,1.1c2.6-0.3,5.3,0.7,6.9,2.8c0.9,1.2,2.4,1.9,3.9,2c1.8,0.1,2.4,1,1.5,2.7c-1,1.6-1.3,3.5-0.8,5.3
	c0.4,1.6,1.4,1.8,2.7,1.1c1.7-1,2.7-2.7,2.7-4.7c0.2-3.7,1.2-4.7,4.7-5.4c3.2-0.6,5.4-2.2,4.9-6c-0.3-1.6,0.4-3.2,1.8-4.1
	c1.5-1,1.4-2.9,2.4-4.3c0.5-0.6,0.8-1.6,1.6-1.6c2.7-0.1,5.3-0.9,8-1.1s4.7,2.9,3.8,5.4c0,0.1-0.1,0.3-0.2,0.5c-0.6,1.4-1.6,3,0.1,4
	s3.2,0.2,4.6-0.9c1-0.8,1.8-1.8,2.8-2.6c0.8-0.8,2.1-1,3.1-0.4c1,0.5,1.5,1.6,1,2.6c-0.8,2.1,0.4,4.2-0.1,6.4
	c-0.3,1.3,1.1,1.3,1.9,1.6c1,0.5,2.8,0,2.9,1.5s-1.6,1.5-2.5,2.2c-0.3,0.2-0.7,0.4-1.1,0.5c-0.5,0.3-1,0.6-0.8,1.3s0.7,0.6,1.2,0.6
	h2.4c1.2,0,2.6,0,2.8,1.5s-0.1,3.1-1.9,3.6C280.8,249.2,277,251.5,273,250.3z"/>
<path class="st4" d="M237,474.6c-0.5-3.8,1.4-7.6-0.1-11.3c-2-4.9-0.8-9.9-1.2-14.9c-0.4-6.5,0.3-13.2-2.4-19.4
	c-0.6-1.3-1.6-2.4-2.8-3.1c-2.8-1.8-5.6-3.6-8.5-5.2c-1.5-0.7-2.7-2-3.1-3.7c-0.7-3.7-3.4-6.2-4.9-9.4c-0.8-1.8-2-3.4-2.4-5.4
	c-0.3-1-0.9-1.9-1.7-2.5c-1.3-1-2.3-2.1-3.2-3.5c-1.4-2.7-1.5-4.6,0.4-6.9c1.5-1.8,1.8-3.1-0.6-4.3c-1.3-0.6-0.8-1.4-0.4-2.5
	c1.4-3.7,4.5-6,6.8-9c1.2-1.5,1.8-3.4,1.6-5.3c-0.1-1.5,0-3,0-4.5c-0.2-2.2,0.7-4.3,2.4-5.6c1.5-1,2.4-2.6,2.5-4.4
	c0-1.5,0.9-2.3,2.5-2.6c2.1-0.5,4.1-1.1,6.1-1.9c2-0.7,2.8-0.2,2.4,1.9c-0.3,1.7,0.2,2.5,1.8,1.7c2-1.2,4.6-1.3,6.7-0.1
	c1.8,0.9,4.3,0.5,6.5,0.3c2.7-0.2,5.4,0.8,7.3,2.7c3.1,2.7,6.5,4.9,9.4,7.9c1.3,1.1,3,1.6,4.7,1.1c3.8-0.7,8,2.3,8.8,6.1
	c0.1,1.3,0.6,2.5,1.3,3.5c1.5,1.8,0.9,3.3-0.4,4.8c-0.9,0.9-1.7,1.9-2.5,2.9c-0.8,1.2-0.5,2.2,1.1,2.3c2.3,0,4.6,0.4,6.8-1.2
	c1.8-1.3,4.1-0.7,6.2-0.4c1,0.2,1.7,1.1,1.5,2.1c0,2,1.1,2.6,3,2.4c0.4,0,0.8,0,1.2,0c4.6-0.8,9.2,0.5,12.8,3.5
	c0.4,0.3,0.9,0.6,1.5,0.8c4.9,2.1,6.7,7.5,4.4,12.5c-1.7,3.6-4.7,6-6.6,9.5c-0.8,1.5-1.5,2.7-1.1,4.4c0.7,3.1,1,6.3-0.7,9.2
	c-0.2,0.3-0.2,0.6-0.2,0.9c0.8,3.9-1.6,6.7-3.4,9.7c-1,1.6-2.8,2.7-4.8,2.7c-4.4,0.3-7.2,3.4-10,6.2c-0.8,0.8-0.4,1.8,0,2.7
	c0.8,1.8,0.7,3.8-0.3,5.5c-1.8,3.5-2.8,7.4-5.7,10.3c-0.4,0.5-0.8,1-1,1.6c-1.4,3.5-1.4,3.5-4.9,2.5c-0.7-0.3-1.5-0.4-2.3-0.6
	c-0.9-0.1-1.9-0.9-2.6,0.3c-0.6,1,0,2,0.5,2.9c0.2,0.3,0.4,0.5,0.6,0.7c2.1,1.2,3,3.8,2,6c-0.9,2.5-3.1,3-5.6,3
	c-3.1-0.1-3.3,0.3-3.2,3.3c0.1,1.7-0.9,2.3-2.3,2.8c-2.3,0.7-2.4,1.2-0.6,2.6c1.1,0.8,1.4,2.2,0.7,3.4c-0.8,1.7-1.5,3.5-2.2,5.2
	s0.6,2.4,1.7,3.2c2.2,1.5,2.3,2.3,1.1,4.6s-2.5,4.5-1,7.5c0.8,1.6-1.3,3.2-2.5,4.3c-1.2,1.1-3,1-4.1-0.2c0,0,0,0,0,0
	c-3.4-3.8-6-8.1-7.9-12.8c-1.9-4.4-1.3-8.8-1.3-13.2c0-3.7-0.1-3.8-3.7-4c-1.6-0.1-2.5-0.8-2.5-2.5c0.1-1.8-0.4-3.6-1.4-5.2
	C236.3,478.8,237.1,476.6,237,474.6z"/>
<path class="st4" d="M710,478.4c-2.4-0.4-4.8,0.2-6.7,1.8c-2,1.5-3.7,0-5.3-0.8c-3.2-1.5-3.4-2.1-2.4-5.6c0.7-2.6,0.2-3.2-2.6-3
	c-2.3,0.2-3-0.3-3-2.7c0.1-1.3-0.2-2.6-0.9-3.6c-0.6-1.1-2-1.6-3.2-1.2c-2.4,0.7-4.9,0.7-7.2,0c-2.6-0.7-5.2,0.8-7.8,1.5
	c-1.5,0.4-2.8,1-4.1,1.9c-2.9,2-6.1,2-9.4,1.3c-3.9-0.9-3.9-0.9-6.2,2.3c-0.6,1.1-1.9,1.6-3.1,1.2c-1.3-0.4-2.8-0.8-3.4-2.3
	c-0.4-0.7-0.2-1.5,0.4-2c3-1.9,2.6-5.1,2.8-7.9c0-2.8-0.1-5.5-0.4-8.3c-0.2-1.1,0-2.2,0.6-3.2c0.4-0.4,0.5-1,0.3-1.6
	c-2-3.3,1-5.8,1.1-8.8c0.1-0.4,0.3-0.7,0.7-0.9c3.1-1.5,6-3.8,9.7-3.4c2.5,0.2,3.7-1.6,5.2-2.9c0.9-1,1.9-1.9,3.1-2.6
	c1.7-0.9,3-1.9,3.4-3.9c0.2-1.2,1.3-1.3,2.2-1.4c2.4-0.1,4.4-1.8,4.7-4.1c0.8-3.1,4.1-3.7,6.4-1.3c0.7,0.8,1.3,2.1,2.6,1.8
	c1.3-0.5,2.2-1.7,2.2-3.1c0.4-2.8,1.8-4.5,4.8-4.4c0.4,0,0.8-0.1,1.1-0.4c1.8-1.6,3.5-1.9,5.3,0.2c0.2,0.3,0.9,0.3,1.3,0.3
	c2.8,0.3,3.5,1.5,2.3,4c-1.5,3.2-1.4,3.4,1.5,5.3c1.5,1,3,2,4.4,3.2s2.3,0.8,3.1-0.8c1.5-3.1,2-6.5,2.9-9.7c0.3-1.3,0.3-2.7,1.2-3.8
	c1-1.3,1.9-1.4,2.7,0.2c0.4,0.8,0.7,1.6,0.9,2.4c0.3,2.3,1.1,4.2,3.2,5.5c0.7,0.4,0.5,1.3,0.5,2c0,0.9,0,1.9,0.1,2.8
	c0.2,1.4,3.6,7.9,4.2,9.3c2.1,4.8,5.5,8.8,6.8,13.9c0.2,0.5,0.2,1.1,0.2,1.6c-1.3,6.3-2.9,12.5-8.3,16.8c-3.3,2.8-6.1,6.2-8.3,10
	c-1.5,2.8-4.6,4.5-7.8,4.4L710,478.4z"/>
<path class="st4" d="M697.8,379.5c2.6,0.2,5.3,0.3,6.5,3.4c0.6,1.5,1.8,1.6,3.1,0.8c3.3-2.2,6.3-1.6,9.5,0.3
	c2.3,1.3,4.7,2.5,7.2,3.5c0.9,0.3,1.7,0.9,2.3,1.6c1.4,2,3.4,3.6,5.6,4.6c1,0.3,1.5,1.4,1.2,2.4c0,0.1,0,0.1-0.1,0.2
	c-0.8,2.2,0.4,3.6,1.6,5.1c0.6,0.6,1.1,1.2,1.6,1.8c0.5,0.8,0.4,1.7-0.1,2.5c-0.6,0.7-1.3,0-1.9-0.2c-2.4-0.8-4.5-1.6-5.7-4.4
	s-4.6-2.6-6,0.2c-1,2-3.7,2.8-6.2,1.6c-1.5-0.7-3.1-1-4.8-1c-2.2,0-2.9-1.4-1.7-3.3c1.6-2.4,1.1-4.8-1.4-6.2c-1.9-1.2-4-1.9-6.3-2
	c-2.6,0-3.6-0.9-3.5-3.4c0.1-1.5-0.7-3-2-3.7c-0.9-0.5-2-1.1-1.6-2.3S696.7,379.5,697.8,379.5z"/>
<path class="st4" d="M667.5,366c-0.1,1.1-0.6,2.1-1.4,2.8c-1.2,0.9-1.5,1.9-0.6,3.5c1.2,2,1.3,3.8-0.2,6.3s-3.8,4.6-4.3,7.9
	c-0.4,2.9-3.3,3.8-5.5,1.9c-1-0.9-2.5-1.1-3.7-0.6c-2,0.9-4.4,0-5.3-2.1c-0.2-0.5-0.3-1.1-0.3-1.6c-0.1-1.5-0.6-3-1.3-4.2
	c-0.5-0.9-0.9-1.8-1.2-2.8c-0.5-2.2,0.7-3.5,3-3.3c0.4,0,1,0.1,1.1-0.1c1.7-2.1,4.7-2.8,6.1-5.1c1-1.6,2.3-3,3.8-4.1
	c1-0.5,1.8-1.4,2.3-2.3c0.2-0.5,0.7-0.9,1.2-1C663,360.4,667.6,364,667.5,366z"/>
<path class="st4" d="M508.7,417.2c-0.9,3.8-1.4,7.8-2.9,11.5c-1.3,3.4-2.3,6.9-3.5,10.3c-0.8,2.6-1.7,5.1-4.2,6.6
	c-1.8,1.2-4.3,0.7-5.4-1.1c0,0,0-0.1-0.1-0.1c-1.2-2-2-4.3-2.4-6.7c-0.1-0.8,0.3-1.3,0.7-1.9c1.5-2.3,2.8-4.7,2.4-7.7
	c-0.2-1.6,0-3.2-0.1-4.7c-0.1-2,0.9-3,2.8-2.9c3.2,0.2,5-1.9,6.3-4.2c0.8-1.2,1.5-2.6,2-4c0.4-1.5,1.9-1.6,2.9-0.3
	C508.6,413.5,508.6,415.3,508.7,417.2z"/>
<path class="st4" d="M614.3,365.6c1.4-0.2,2.9,0.4,3.7,1.6c2.2,2.5,4.9,4.5,7.3,6.7c4.1,3.8,8.2,7.7,11.2,12.6
	c1.5,2.4,0.8,4.9,0.2,7.3c-0.4,1.5-3.9,1.8-5.2,0.5c-2.6-2.7-4.9-5.6-6.9-8.7c-3.7-5.4-6.3-11.6-11.6-15.8c-0.2-0.1-0.4-0.3-0.5-0.5
	c-0.7-0.9-1.4-1.9-0.9-3S613.4,365.8,614.3,365.6z"/>
<path class="st4" d="M391.1,230.1c-0.9,1.9,0.1,3.4,1.7,4.7c0.4,0.3,0.7,0.7,0.8,1.2c0.4,2.4,1.1,4.5,4.1,4.9
	c0.5,0.1,0.6,0.9,0.2,1.4s-0.8,0.6-1,1c-1.7,4.2-5.8,4.4-9.3,5.4c-3,0.8-3.9-0.3-3-3.2c0.3-0.6,0.4-1.4,0.3-2.1
	c-0.7-2,0.2-3.7,1.6-4.9s1.1-2.3-0.3-2.9c-2.1-0.9-3-2.7-3.9-4.5c-0.8-1.3-0.4-2.9,0.9-3.7c0.2-0.1,0.4-0.2,0.6-0.3
	c0.6-0.2,1.2-0.4,1.7-0.8c1.1-0.9,2.7-1,4-0.3C390.6,227,391,228.3,391.1,230.1z"/>
<path class="st4" d="M738.4,501.6c-1.7-0.8-3.8-0.6-4.1-2.9c-0.1-2.1,1.3-4,3.4-4.5c4-1.1,7.9-2.6,11.6-4.6c1.7-1,3.1-2.5,3.8-4.4
	c0.2-0.5,0.5-1,0.8-1.4c0.6-0.6,1.1-1.8,2.3-1.4c0.9,0.3,1.1,1.3,1.2,2.2c0.1,0.8,0.4,1.5,1,2.1c1.6,1.5,1,3.4-1,4.5
	c-4.1,2.2-8.6,3.8-11.8,7.5C743.6,500.8,740.6,500.3,738.4,501.6z"/>
<path class="st4" d="M209.4,320c3.4-1.1,5.7,2.1,8.6,3.4c1.9,0.8,3.8,1.9,5.7,2.8c1.9,0.9,2.2,2.1,1,3.8c-1.2,1.6-2.4,3.1-4.4,3.6
	c-1.2,0.3-2.2,0.4-2.4-1.3c-0.5-3.8-8.8-8.5-12.7-5.9c-1.8,1.2-2.8,0.4-2.7-1.8C202.8,321.2,203.4,319.6,209.4,320z"/>
<path class="st4" d="M654.4,404.5c-2.5,0.6-4.7-1.2-7.1-2c-2.1-0.7-4.3-1.1-6.4-1.3c-2.1-0.2-3-1.3-2.7-3.3c0.3-2.5,2.2-4.4,4.1-3.9
	c1,0.2,2,0.6,2.9,1.1c2,1.2,3.9,2,6.2,0.7c0.9-0.5,1.8,0.2,2.6,0.7c1.3,0.9,2.6,1.8,3.9,2.6c1.2,0.8,2,1.9,1.5,3.4s-1.7,2-3.2,2
	C655.7,404.5,655.2,404.5,654.4,404.5z"/>
<path class="st4" d="M766,486.2c-3,0-3.8-1.3-2.7-3.7c0.3-0.7,0.5-1.5,0.6-2.3c0.3-1.7,0.8-2.8,2.9-2.9c2.5-0.1,2.6-2.5,3.1-4.4
	c0.1-0.9,0.1-1.7,0-2.6c0.1-1.4,0.6-2.5,2.3-2.5s2.3,0.7,2.3,2.3c0,0.7,0.2,1.4,0.5,2c1.1,1.3,0.8,2.7,0.3,4
	c-0.6,1.1-0.9,2.4-0.9,3.6c0.1,0.7-0.3,1.3-1,1.5c-2.6,0.3-3.8,2.4-5.5,3.8C767.4,485.7,766.7,486.1,766,486.2z"/>
<path class="st4" d="M239.1,334.7c-1.8-0.3-3.7,0.6-4.5,2.3c-0.5,0.9-1.5,1.2-2.4,0.7c0,0-0.1,0-0.1-0.1c-0.9-0.4-2-0.7-3-0.7
	c-0.7,0-1.5-0.1-1.6-1c-0.2-0.8-0.1-1.7,0.8-2c1.8-0.7,2.1-2.1,2.1-3.8c0-1.3,0.5-2.1,2.1-1.5c2.8,1,6,0.3,8.5,2.6
	c0.7,0.7,1.1,1.3,0.7,2.2C241.4,334.5,240.3,335,239.1,334.7C239.2,334.7,239.2,334.7,239.1,334.7z"/>
<path class="st4" d="M371.7,239.7c0-0.4,0-0.7,0.1-1.1c0.3-0.7,6-3.8,6.8-3.8c0.9-0.1,1.7,0.4,2.1,1.2c0.5,0.8,0.4,1.9-0.3,2.6
	c-0.5,0.5-1.1,0.9-1,1.5c0.5,4.5-3.4,3.7-5.7,4.6c-0.9,0.3-2,0-2.6-0.8c-0.5-0.8-0.4-1.9,0.3-2.6C371.9,241,372.1,240.3,371.7,239.7
	z"/>
<path class="st4" d="M272.6,524.5c0,2.7-2.2,4.1-4.4,2.9c-1.5-0.8-2.8-1.7-4.3-2.5c-1-0.6-2.2-1-2-2.6s0.6-3.5,2.4-4
	c1.2-0.3,2.9-0.5,3.9,1c0.9,1.1,1.9,2.1,3.1,2.9C272.1,522.7,272.6,523.5,272.6,524.5z"/>
<path class="st4" d="M699.4,488.7c-0.1-1.3,0.2-2.5,0.9-3.6c1.1-1.5,2.2-2,3.7-0.8c0.7,0.4,1.4,0.7,2.2,0.7c1.3,0.1,2.2,1.2,2.2,2.5
	c0,0.3-0.1,0.6-0.2,0.8c-0.7,1.8-4,4.2-5.9,4.2C699.7,492.5,699.4,492.2,699.4,488.7z"/>
<path d="M830.8,121.2c9,0,16.2,7.3,16.3,16.3v496.9c0,9-7.3,16.2-16.3,16.2h-285l12.8,93.3h17.9c6.8,0,12.3,5.5,12.3,12.3v8H267.3
	v-8c0-6.8,5.5-12.3,12.3-12.3h18.3l12.8-93.3H20c-9,0-16.2-7.3-16.2-16.2V137.4c0-9,7.3-16.2,16.2-16.3H830.8 M830.8,117.4H20
	c-11,0-20,9-20,20v496.9c0,11,9,20,20,20h286.3L294.6,740h-15c-8.9,0-16.1,7.2-16.1,16.1v8c0,2.1,1.7,3.8,3.8,3.8c0,0,0,0,0,0h321.6
	c2.1,0,3.8-1.7,3.8-3.8c0,0,0,0,0,0v-8c0-8.9-7.2-16.1-16.1-16.1h-14.6l-11.8-85.7h280.7c11,0,20-9,20-20V137.4
	C850.8,126.4,841.8,117.4,830.8,117.4L830.8,117.4z"/>
<path class="st5" d="M163.1,352.5c1.9-6.4-1.7-13-8.1-14.9c-4.9-1.5-10.3,0.4-13.2,4.6l-13.8,19l23.5-0.3
	C156.7,361,161.5,357.6,163.1,352.5z"/>
<circle class="st2" cx="152.7" cy="348.4" r="3.5"/>
<path class="st5" d="M263.9,352.3c-6.2-2.4-13.1,0.6-15.5,6.8c-1.9,5-0.4,10.6,3.8,13.9l18,15l1.2-23.4
	C271.9,359.2,268.9,354.3,263.9,352.3z"/>
<circle class="st2" cx="259.2" cy="362.5" r="3.5"/>
<path d="M278.3,374.4c0-0.3,0.1-0.4,0.1-0.5c0.2-1.4-0.2-2.7-1-3.8c0-2.2-1.3-4.1-3.3-5c-0.7-0.3-1.5-0.5-2.3-0.5
	c-1.7,0-3.4,0.8-4.4,2.3c-0.1,0.2-0.3,0.5-0.4,0.7c-1.5,0.7-2.7,2.1-3.1,3.8c-0.1,0.5-0.7,3.1-1.2,5.3h-0.9h-0.3
	c-2.2,0-4.1,1.7-4.4,3.9c-0.3,2.3-0.8,7.9,0.2,10.9c0.5,1.4,1.1,2.7,1.8,3.9l0,0c-7.4,27.1-13.9,50.1-15.2,53.2
	c-2.4,2.8-24.5,23-43.6,29.6c-9.9,3.5-16,4.2-19.3,4.2h-0.8l0.3-2c1.3,0.2,2.5,0.3,3.8,0.3c0.7,0,1.4,0,2.1-0.2
	c6.4-1.1,9.9-9.9,10.5-26c1.9-0.5,3.3-2.3,3.3-4.3c0-2.9-2.1-8.3-3.5-11.6c-0.1-1.2-0.1-2.4-0.2-3.6h0.2c1.6,0,3.1-0.9,3.9-2.3
	c1-0.2,1.8-0.8,2.5-1.6c1-1.3,1.2-3,0.5-4.5c-0.3-0.6-7-15-29.5-19.2c-2.3-0.4-4.7-0.7-7-0.7c-7.2-0.1-14.2,2.4-19.7,7
	c-6.2,5.2-10.1,13.2-10,20.4c0.1,6.3,1.9,13.2,3.5,19.4c1.2,4.5,2.4,9.2,2.3,11.5c-0.1,2.9-0.6,5.7-1.5,8.4c-1,2.2,0,4.8,2.3,5.8
	c0.5,0.2,1,0.3,1.6,0.4c-0.3,0.7-0.5,1.5-0.4,2.3c-0.3,0-0.7,0.1-1,0.1c-1.6,0-3.2-0.4-4.6-1.2c-1-1.5-4.6-8.9-11.4-25.1
	c-0.1-0.3-0.2-0.5-0.3-0.8c-6.2-14.8-11.8-29-13-32.6c1.6-4.4,10.4-24.2,20.9-47h0.1c1.3-0.5,2.6-1.2,3.8-2.1c1-0.7,2.7-2.2,5.6-7
	c1.6-2.6,1.1-6-1.2-8c0.9-2.1,2-4.6,2.2-5.1c0.6-1.6,0.5-3.4-0.3-4.8c0.1-0.3,0.1-0.5,0.1-0.8c-0.1-3-2.5-5.5-5.6-5.5l0,0
	c-1.7,0-3.3,0.8-4.3,2.2c-1.3,0.4-2.4,1.3-3.1,2.5c0,0.1-0.1,0.2-0.2,0.5c-2.4,0.8-3.4,3-4.6,5.6c-0.6,1.2-1.3,2.9-2.5,5.1
	c-2,3.8-2.9,7.1-2.8,9.8c-8,8.5-34.3,37.7-34.6,58.6c-0.3,21.4,20.7,67.9,24.6,76.3c-0.1,8.1-0.4,66.6,7.5,109.2
	c-1.5,4.7-6.6,23.3-3.4,43c3.2,19.4,4.5,48.7,4.7,53.6c-1.4,4.5-6.2,20.3-4.5,28.7c1.6,8.2,5.3,39,4.5,44.3
	c-0.2,1.3-0.4,2.6-0.6,3.8c-0.9,5.5-1.6,9.5,0.8,12.2c1.1,1.3,2.7,2,4.3,2h18c3.3,0,6.2-1.8,7.9-4.6c0.2,1,0.7,1.9,1.3,2.6
	c1.1,1.3,2.7,2,4.3,2h17.9c3.9-0.1,7.3-2.5,8.7-6.2c1.3-3.4,0.4-7.2-2.4-9.5c-2.7-2.2-6-3.3-9.5-3.2h-0.7c0.3-1.9,0.6-4.2,1-6.8
	c0-0.2,0-0.3,0.1-0.5c0.1-1,0.3-2,0.4-3c0-0.2,0.1-0.4,0.1-0.6c4.7-34.1,11.1-99.6,1.8-157c2.2-8.4,19.7-74.4,23.6-102.4
	c9.2-4.6,44.4-22.6,56.3-36.1c1-1.2,2-2.2,2.8-3.1c7.5-8.2,7.6-9.1,10.3-31.9c1.1-9.4,2.6-22.2,5.2-41.2c1.4-1.7,3.2-5,4.2-10.8
	c0.4-2.4,0.8-4.2,1-5.5C279.3,378.9,279.8,376.4,278.3,374.4z M261.8,419.7c-0.9,7.4-1.6,13.4-2.2,18.5c-1.3,10.8-1.9,16.3-2.9,19.5
	c-0.9,2.8-2,4.1-5.1,7.5c-0.8,0.9-1.8,2-2.9,3.2c-4.2,4.8-13.1,11.2-25.6,18.7c-2.5-1.8-4.4-4.2-5.5-7.1
	c16.5-9.4,32.2-23.6,34.2-26.8C252.9,451.4,257.6,434.9,261.8,419.7z M265.8,388.6c-0.1-0.8-0.2-1.6-0.1-2.4c0.5,0,0.9-0.1,1.3-0.2
	c0.4,0.4,0.8,0.7,1.3,0.9c0.1,0.2,0.3,0.4,0.5,0.5c-0.3,1.5-0.8,2.9-1.4,4.2c-0.2-0.3-0.3-0.5-0.4-0.8
	C266.4,390.1,266.1,389.4,265.8,388.6L265.8,388.6z M106,422.2c0,0.8,0,1.7,4.5,13.1c2.3,5.9,5.2,12.9,8,19.8
	c-4.2,2.2-8.6,4-13.2,5.3c-5.4-15.4-8.3-27.2-8.2-34c0.2-13.5,16.2-34.6,27.1-47.1C106,419.3,106,421.2,106,422.2L106,422.2z
	 M131.8,367.4c0.1-1.5,0.5-2.9,1.2-4.2c0.2,0,0.5-0.1,0.7-0.1c0.3,0.1,0.6,0.1,0.8,0.1c0.2,0,0.4,0,0.7,0c0.3,0.4,0.6,0.7,1,1
	c-0.4,0.7-1,1.3-1.5,1.9c-0.7,0.5-1.4,0.9-2.2,1.2C132.3,367.2,132.1,367.3,131.8,367.4L131.8,367.4z M163,781
	c-0.2-0.1-0.5-0.2-0.7-0.3c0-0.8,0-1.8,0-2.9c0.4,0,0.8,0,1.2,0C163.3,779,163.1,780.1,163,781z M144.3,790.6h-7.9
	c0.5-0.3,0.9-0.7,1.3-1.1c0.9-0.2,1.8-0.4,2.7-0.4c1.5-0.1,3,0.3,4.3,1.1C144.6,790.4,144.5,790.5,144.3,790.6L144.3,790.6z
	 M131.4,780.5c-0.2-0.1-0.4-0.2-0.6-0.3c0-0.8,0-1.8,0-3l1.1,0C131.7,778.5,131.6,779.5,131.4,780.5z M165.2,765.8
	c-0.4,0-0.9,0-1.3,0c-0.8,0-1.6-0.1-2.4-0.2c-1.1-11.5-2.9-25.2-3.9-30.3s2.2-18.2,4.5-25c0.2-0.7,0.3-1.4,0.2-2.1
	c-0.2-0.9-3.6-21.9-8.4-41.1l0,0c-0.8-3-1.5-5.9-2.2-8.5c-6-21.2-4.3-29.1-4.3-29.2v0.1c0.7-2.3-0.7-4.8-3-5.5
	c-0.4-0.1-0.8-0.2-1.2-0.2c-2,0-3.7,1.3-4.2,3.2c-0.4,1.5-2.3,10.4,4.3,33.9c0.7,2.3,1.3,4.9,2,7.6c-2.3,35.3-7.9,74.7-11.2,96.6
	c-0.7,0.1-1.5,0.2-2.3,0.2c-0.5,0-1.1,0-1.6-0.1c-1.1-11.4-2.9-24.9-3.9-30c-1-5.3,2.2-18.2,4.5-25c0.2-0.5,0.2-1,0.2-1.6
	c0-0.3-1.3-33.7-4.8-55.5c-2.4-15,0.5-29.4,2.3-36c7.1,1.4,14.3,2.1,21.5,2.1c5.9,0,11.8-0.5,17.6-1.6
	C175.2,671.7,169.6,732.4,165.2,765.8L165.2,765.8z M193,503.4c-1.3,0.7-2.3,2-2.5,3.4c-2.9,24.6-19.8,89-23.3,102
	c-5.8,1.2-11.7,1.8-17.6,1.8c-7,0-13.9-0.7-20.7-2.1c-8.1-44.9-7.1-106.1-7.1-106.7c0-0.7-0.1-1.4-0.4-2c-0.1-0.1-6.7-14.3-13-31
	c4.7-1.4,9.2-3.2,13.5-5.5c9.3,21.8,10.9,23.2,11.7,23.9c2.3,2.1,6.6,3.5,10.7,3.5c1.7,0,3.4-0.3,5.1-0.9c0.3-0.1,0.6-0.3,0.9-0.4
	c4.3,2,9.1,3.1,13.8,3.1c3.9,0,7.8-0.7,11.5-2c1.9,0.5,3.8,0.7,5.7,0.7c5.8,0,13.3-1.6,22.2-4.7c2-0.7,4-1.5,6.2-2.5
	c1.3,2.9,3.1,5.5,5.3,7.7C203.1,498.4,193.1,503.3,193,503.4L193,503.4z M162,480.8c0.5,0.8,1.2,1.4,2,1.8c0.6,0.3,1.2,0.4,1.8,0.4
	c1.4,0,2.8-0.7,3.6-1.9c1.2-1.7,2.2-3.5,3-5.4l-0.9,6.9c-2.3,0.7-4.7,1.1-7.2,1.1c-1.8,0-3.6-0.2-5.4-0.6
	C160.1,482.4,161.1,481.6,162,480.8L162,480.8z M175.4,464.5c0.1-1.3,0.1-2.8,0.1-4.3c0.6,0.6,1.3,1,2.1,1.1
	c0.3,0.1,0.6,0.1,0.9,0.1c0.8,0,1.6-0.2,2.2-0.6c0.3,0.1,0.7,0.1,1.1,0.1l0,0c2.1,0,3.9-1.4,4.3-3.5c1.3-6.6,1.7-13.3,1.3-20h0.4
	c1.7,27.3-2.4,33.4-3.3,34.4h-0.2c-1.1,0-2.2-0.1-3.2-0.3c-0.6-1.5-2-2.5-3.5-2.7c-0.2,0-0.4,0-0.5,0c-1,0-1.9,0.3-2.6,0.9
	C175,468,175.3,466.2,175.4,464.5z M184.1,428.4l-0.2,0.3h-1.2c-2.4,0-4.4,2-4.4,4.4c0,0.2,0,0.4,0,0.6c0.1,0.4,0.1,0.8,0.2,1.3
	c-0.6-0.3-1.2-0.5-1.8-0.7c-0.7-0.2-1.3-0.2-2-0.3c-3.1,0-5.9,1.6-7.4,4.3c-1.7,3-1.4,7.9-0.9,14.5c0.4,3.6,0.5,7.3,0.3,10.9
	c-0.1,1-0.2,2-0.5,2.9c-0.4-0.2-0.9-0.3-1.4-0.4h-0.4c-1.6,0-3,0.9-3.8,2.2c-1.4,2.5-3.2,4.7-5.5,6.5c0.1-1.5,0.3-3,0.3-4
	c0.1-2.1-1.3-4.1-3.4-4.6l0.1-1c0.2-3.7-1.1-8.5-2.6-14.2s-3.2-12.1-3.3-17.3c-0.1-4.6,2.7-10,6.9-13.5c3.9-3.3,8.9-5,14-4.9
	c1.8,0,3.6,0.2,5.4,0.5c8.9,1.7,14.7,5.2,18.2,8.4c-0.3,0.3-0.5,0.6-0.7,0.9c-0.2,0.3-0.3,0.6-0.4,0.9h-2
	C186.3,426.2,184.8,427,184.1,428.4L184.1,428.4z M175.8,790.6h-7c0.3-0.2,0.5-0.5,0.8-0.8c1-0.3,2-0.5,3.1-0.5
	c1.2-0.1,2.5,0.2,3.5,0.9C176.1,790.4,176,790.5,175.8,790.6L175.8,790.6z M153.4,781.4c-0.2,1.3-0.4,2.6-0.6,3.8
	c-0.1,0.3-0.1,0.7-0.2,1c-0.5-1-1.2-1.8-2-2.5c-2.9-2.3-6.5-3.5-10.2-3.4c2.3-14,7.5-47.2,11-82.2c0.9,5,1.6,8.7,1.9,10.5
	c-1.5,4.8-6,20.2-4.4,28.5S154.1,776,153.4,781.4L153.4,781.4z"/>
<path class="st2" d="M126.8,773c0.3,3,0.3,6.1,0.2,9.1c-0.1,0.6-0.2,1.1-0.3,1.7c0.6-0.2,1.2-0.3,1.8-0.2c1.4,0,2.6,1,2.9,2.4
	c0.1,0.3,0.2,0.5,0.3,0.8c0.1,0.2,0.3,0.3,0.5,0.2c0.9-0.1,1.7-0.6,2.2-1.3c0.2-0.9,0.9-5.4,2-12.5c-1.3,0.3-2.6,0.5-3.9,0.5
	C130.6,773.6,128.7,773.3,126.8,773z M130.5,781.4c0.2,0.3,0,0.7-0.3,0.8c-0.1,0.1-0.2,0.1-0.3,0.1c-0.2,0-0.4-0.1-0.5-0.3
	c-0.5-1.2-0.5-2.6,0-3.9c0.1-0.3,0.5-0.5,0.8-0.4c0.3,0.1,0.5,0.5,0.4,0.8c0,0,0,0,0,0C130.2,779.5,130.2,780.5,130.5,781.4
	L130.5,781.4z"/>
<path class="st4" d="M126.5,769.8c0,0.6,0.1,1.3,0.1,1.8c1.5,0.3,6.8,1.2,10,0c0.1-0.6,0.2-1.3,0.3-2c-1.8,0.5-3.6,0.8-5.4,0.8
	C129.9,770.5,128.2,770.2,126.5,769.8z"/>
<path class="st5" d="M167.1,786.7c-0.7,1.2-1.9,1.9-3.3,2l0,0c-0.7,0-1.3-0.3-1.6-0.8c-0.2-0.3-0.3-0.7-0.4-1
	c-0.3-0.9-0.5-1.4-1.8-1.5c-1.7-0.2-1.9,0.7-2,0.8c-0.1,0.2-0.2,0.3-0.3,0.4c-0.5,3.4-1.1,6.7-0.3,7.7c0.1,0.1,0.3,0.2,0.5,0.2h17.9
	c1.8-0.1,3.3-1.2,4-2.9c0.6-1.4,0.2-3-1-4C175.7,784.8,170,785.2,167.1,786.7L167.1,786.7z"/>
<path class="st2" d="M109.8,422.2c0-2.2,18.2-41.8,21.8-49.8c0.5-0.9,1.4-1.6,2.4-1.9c1-0.4,2-0.9,2.9-1.6c0.9-0.6,2.4-2.6,4.2-5.5
	c0.3-0.6,0.2-1.3-0.4-1.7c-0.1-0.1-0.3-0.1-0.5-0.2c-0.8,0-1.6-0.4-2-1c-0.2-0.4-0.2-0.8-0.1-1.2c1.2-2.6,3.3-7.5,3.6-8.1
	c0.1-0.3,0-0.6-0.1-0.8c-0.1-0.1-0.3,0-0.4,0c-0.9,2.1-2.2,5-3.4,7.5c-0.1,0.3-0.5,0.5-0.8,0.3c-0.3-0.1-0.5-0.5-0.3-0.8
	c1.6-3.5,4.3-9.3,4.5-10.3c-0.1-0.1-0.3-0.2-0.5-0.3c-0.1,0-0.3,0-0.4,0.3c-0.6,1.4-4.8,11.3-5,11.7c-0.1,0.2-0.3,0.4-0.6,0.4
	c-0.1,0-0.2,0-0.3,0c-0.3-0.1-0.5-0.5-0.3-0.8c0,0,0,0,0,0c0-0.1,2.5-5.7,4-9.1c0,0-0.1,0-0.1-0.1c-0.1-0.1-0.2-0.2-0.3-0.2
	c0,0,0,0-0.1,0.1c-0.2,0.3-0.8,1.8-1.7,3.6c-0.1,0.2-0.1,0.4-0.2,0.5c-1,2.1-2,4.5-2.6,5.9c-0.1,0.2-0.3,0.4-0.6,0.4
	c-0.1,0-0.2,0-0.3,0c-0.3-0.1-0.5-0.5-0.3-0.8c0.1-0.2,1.5-3.4,2.8-6.1c0.1-0.2,0.2-0.4,0.2-0.6c-0.5,0.1-0.8,0.6-1.9,3
	c-0.6,1.3-1.4,3-2.5,5.3c-3.3,6.4-2.1,8.6-2,8.6c0.1,0,0,0,0,0c0,0.1,0,0.1,0,0.2l0,0c0,0.1,0,0.1,0,0.2l0,0c0,0.1,0,0.2-0.1,0.2
	l0,0c0,0,0,0.1-0.1,0.1c-0.3,0.4-34.5,35.3-34.8,56.8c-0.1,9.3,4.4,24.4,9.5,38.6c7.2-1.6,14-4.4,20.3-8.2
	C116.5,440.7,109.8,423.5,109.8,422.2z"/>
<path class="st5" d="M132.2,788.2L132.2,788.2c-0.6,0-1.3-0.3-1.6-0.8c-0.2-0.3-0.3-0.7-0.4-1c-0.3-0.9-0.5-1.4-1.8-1.5
	c-1.7-0.2-1.9,0.7-2,0.8s0,0.3-0.1,0.5c-0.6,3.5-1.2,7.2-0.4,8.1c0.1,0.1,0.3,0.2,0.5,0.2h17.9c1.8-0.1,3.3-1.2,3.9-2.9
	c0.6-1.4,0.2-3-1-4c-3.1-2.8-9.2-2.6-11.9-1.1C134.7,787.4,133.5,788.1,132.2,788.2z"/>
<path class="st4" d="M151,470.1L151,470.1c0.3,0,0.6,0.3,0.6,0.7c0,0,0,0,0,0c-0.2,3.4-0.6,6.7-1.2,10c2.1-0.1,8.1-1.3,13.4-10.4
	c0.1-0.2,0.3-0.3,0.6-0.3c0.2,0,0.5,0.2,0.5,0.4c0.7,1.9,1.2,3.8,1.5,5.8c2.1-3.8,3.4-7.9,3.9-12.2c0.2-3.8,0-7.7-0.3-11.5
	c-0.4-5.5-0.8-10.3,0.4-12.4c1.2-2.3,4.1-3.1,6.3-1.8c1.6,0.9,2.5,2.5,2.4,4.3c0.1,3.1,0.1,8,0,11.2l1-2.2c0.1-0.2,0.4-0.4,0.6-0.4
	c0.3,0,0.5,0.2,0.5,0.5l0.4,1.6c1-6.7,1.1-13.5,0.3-20.3c0-0.2,0-0.4,0.1-0.5c0.1-0.1,0.3-0.2,0.5-0.2h5.5l-0.9-1.6
	c-0.2-0.3-0.1-0.7,0.3-0.9c0.1,0,0.2-0.1,0.3-0.1h7.6l-1.9-2.1c-0.2-0.3-0.1-0.7,0.1-0.9c0.1-0.1,0.3-0.1,0.4-0.1l4.4,0.7
	c-2-3.2-8.8-12.2-25.2-15.2c-11.1-2-18.3,1.7-22.5,5.2c-5.1,4.3-8.3,10.8-8.2,16.5s1.8,12.3,3.4,18.2c1.4,5.3,2.6,9.9,2.5,13
	c-0.1,3.1-0.6,6.2-1.6,9.2c1.3-0.1,2.5-0.6,3.5-1.5c0.1-0.7,0.1-1.5,0.2-2.2C150.5,470.3,150.7,470.1,151,470.1z"/>
<path class="st2" d="M195.3,449.7c-0.4-2.2-1.1-4.4-2-6.5c0.1,2.4,0.1,4.7,0.1,6.8L195.3,449.7z"/>
<path class="st2" d="M158.3,773.4c0.3,2.9,0.3,5.8,0.1,8.7c-0.1,0.8-0.2,1.6-0.3,2.3c0.6-0.3,1.3-0.4,2-0.3c1.4,0,2.6,1,2.9,2.4
	c0.1,0.3,0.2,0.5,0.3,0.8c0.1,0.2,0.3,0.3,0.5,0.2c0.8-0.1,1.6-0.5,2.1-1.2l0,0c0-0.2,0.8-4.7,2-12.5
	C164.7,774.3,161.4,774.2,158.3,773.4L158.3,773.4z M161.7,782.2c0.2,0.3,0,0.7-0.3,0.9c-0.1,0-0.2,0.1-0.3,0.1
	c-0.2,0-0.4-0.1-0.5-0.3c-0.5-1.2-0.5-2.6,0-3.9c0.1-0.3,0.4-0.5,0.8-0.4c0.3,0.1,0.5,0.4,0.4,0.8c0,0,0,0.1,0,0.1
	C161.4,780.3,161.3,781.3,161.7,782.2z"/>
<path class="st2" d="M273.8,378c-0.6,2.9-1.3,6.2-1.3,6.4c-0.1,0.3-0.3,0.5-0.6,0.5h-0.1c-0.3-0.1-0.6-0.4-0.5-0.7
	c0.3-1.3,0.8-3.6,1.2-5.8c0-0.2,0.1-0.5,0.2-0.7c0.4-2.1,0.8-3.9,0.8-4.2v-0.1c-0.1,0-0.2,0.1-0.3,0.1h-0.1
	c-0.8,3.7-2.2,9.6-2.2,9.7c-0.1,0.3-0.3,0.5-0.6,0.5H270c-0.3-0.1-0.6-0.4-0.5-0.8c0.1-0.5,2.4-10.9,2.8-12.4c0.1-0.4,0-0.5-0.1-0.5
	c-0.2-0.1-0.4-0.2-0.6-0.1c-0.3,1-1.6,7.2-2.3,11c-0.1,0.3-0.4,0.6-0.7,0.5c-0.3-0.1-0.6-0.4-0.5-0.7c0,0,0,0,0,0
	c0.5-2.6,1.1-5.5,1.6-7.7c0,0,0,0,0-0.1c-0.2-0.4-0.3-0.5-0.4-0.5l0,0c-0.2,0.1-0.4,0.3-0.4,0.5c-0.2,0.6-1.3,5.9-1.9,8.6
	c-0.1,0.5-0.4,0.8-0.8,1c-0.8,0.2-1.7,0-2.4-0.5l-1.5-0.1c-0.2,2.1-0.5,6.4,0,8c0.3,1.1,0.8,2.1,1.4,3c0.6,0.8,0.9,1.9,0.8,2.9
	c-1.5,5.5-14.4,53.1-16,55.6c-1.4,2.2-18,17.6-35.6,27c0.5,1.9,2.7,9.3,10.1,13.3c11.3-6.6,22.8-14.3,28.5-20.6
	c1.1-1.2,2-2.2,2.9-3.2c6.4-7,6.4-7,9-29.1c1.1-9.7,2.7-22.9,5.5-42.7c0-0.2,0.1-0.3,0.3-0.5c0,0,2.5-1.7,3.7-9
	c0.4-2.5,0.8-4.4,1-5.8c0.5-2.7,0.6-3.2,0.3-3.5C273.9,377.5,273.8,377.7,273.8,378z"/>
<path class="st4" d="M158,770.2c0.1,0.7,0.1,1.3,0.2,1.9c3.2,0.9,6.6,1,9.9,0.3c0.1-0.7,0.2-1.4,0.3-2.1c-1.5,0.4-3,0.6-4.5,0.6
	C161.9,770.9,159.9,770.6,158,770.2z"/>
<path class="st1" d="M149.6,615.6c-8.1,0-16.2-0.9-24.1-2.8c-1.1,3.4-6.5,21.7-3.3,41.1c3.5,21.6,4.8,54.7,4.8,55c0,0.1,0,0.1,0,0.2
	c-0.1,0.2-6.2,18.8-4.6,27c1,5.3,3.1,20.6,4.1,32.3c3.5,1,7.2,1,10.6,0h0.1c3.5-22.6,9.3-63.4,11.7-100c-0.7-2.8-1.4-5.6-2.2-8.3
	c-6.6-23.4-4.4-31.5-4.3-31.8c0.1-0.3,0.4-0.5,0.8-0.4c0.3,0.1,0.5,0.4,0.4,0.8c0,0.1-2.2,8.2,4.3,31.1c0.8,2.7,1.5,5.5,2.2,8.3l0,0
	c4.8,19.4,8.3,40.5,8.3,40.8c0,0.1,0,0.2,0,0.3c-0.1,0.2-6.2,18.8-4.6,27c1.1,5.4,3.1,21,4.1,32.7c1,0.3,6.2,1.5,10.7,0.1
	c4.2-30.9,11.2-97.9,1.8-155.7C163.6,614.9,156.6,615.6,149.6,615.6z"/>
<path class="st6" d="M158.3,773.4c0.3,2.9,0.3,5.8,0.1,8.7c-0.1,0.8-0.2,1.6-0.3,2.3c0.6-0.3,1.3-0.4,2-0.3c1.4,0,2.6,1,2.9,2.4
	c0.1,0.3,0.2,0.5,0.3,0.8c0.1,0.2,0.3,0.3,0.5,0.2c0.8-0.1,1.6-0.5,2.1-1.2l0,0c0-0.2,0.8-4.7,2-12.5
	C164.7,774.3,161.4,774.2,158.3,773.4L158.3,773.4z"/>
<path class="st6" d="M167.1,786.7c-0.7,1.2-1.9,1.9-3.3,2l0,0c-0.7,0-1.3-0.3-1.6-0.8c-0.2-0.3-0.3-0.7-0.4-1
	c-0.3-0.9-0.5-1.4-1.8-1.5c-1.7-0.2-1.9,0.7-2,0.8c-0.1,0.2-0.2,0.3-0.3,0.4c-0.5,3.4-1.1,6.7-0.3,7.7c0.1,0.1,0.3,0.2,0.5,0.2h17.9
	c1.8-0.1,3.3-1.2,4-2.9c0.6-1.4,0.2-3-1-4C175.7,784.8,170,785.2,167.1,786.7L167.1,786.7z"/>
<path class="st6" d="M158,770.2c0.1,0.7,0.1,1.3,0.2,1.9c3.2,0.9,6.6,1,9.9,0.3c0.1-0.7,0.2-1.4,0.3-2.1c-1.5,0.4-3,0.6-4.5,0.6
	C161.9,770.9,159.9,770.6,158,770.2z"/>
<path class="st6" d="M149.6,615.6c-8.1,0-16.2-0.9-24.1-2.8c-1.1,3.4-6.5,21.7-3.3,41.1c3.5,21.6,4.8,54.7,4.8,55c0,0.1,0,0.1,0,0.2
	c-0.1,0.2-6.2,18.8-4.6,27c1,5.3,3.1,20.6,4.1,32.3c3.5,1,7.2,1,10.6,0h0.1c3.5-22.6,9.3-63.4,11.7-100c-0.7-2.8-1.4-5.6-2.2-8.3
	c-6.6-23.4-4.4-31.5-4.3-31.8c0.1-0.3,0.4-0.5,0.8-0.4c0.3,0.1,0.5,0.4,0.4,0.8c0,0.1-2.2,8.2,4.3,31.1c0.8,2.7,1.5,5.5,2.2,8.3l0,0
	c4.8,19.4,8.3,40.5,8.3,40.8c0,0.1,0,0.2,0,0.3c-0.1,0.2-6.2,18.8-4.6,27c1.1,5.4,3.1,21,4.1,32.7c1,0.3,6.2,1.5,10.7,0.1
	c4.2-30.9,11.2-97.9,1.8-155.7C163.6,614.9,156.6,615.6,149.6,615.6z"/>
<path class="st6" d="M126.5,769.8c0,0.6,0.1,1.3,0.1,1.8c1.5,0.3,6.8,1.2,10,0c0.1-0.6,0.2-1.3,0.3-2c-1.8,0.5-3.6,0.8-5.4,0.8
	C129.9,770.5,128.2,770.2,126.5,769.8z"/>
<path class="st6" d="M148,486.3c0.3-0.1,0.7-0.3,1-0.5C148.7,486,148.3,486.2,148,486.3z"/>
<path class="st6" d="M151,470.1L151,470.1c0.3,0,0.6,0.3,0.6,0.7c0,0,0,0,0,0c-0.2,3.4-0.6,6.7-1.2,10c2.1-0.1,8.1-1.3,13.4-10.4
	c0.1-0.2,0.3-0.3,0.6-0.3c0.2,0,0.5,0.2,0.5,0.4c0.7,1.9,1.2,3.8,1.5,5.8c2.1-3.8,3.4-7.9,3.9-12.2c0.2-3.8,0-7.7-0.3-11.5
	c-0.4-5.5-0.8-10.3,0.4-12.4c1.2-2.3,4.1-3.1,6.3-1.8c1.6,0.9,2.5,2.5,2.4,4.3c0.1,3.1,0.1,8,0,11.2l1-2.2c0.1-0.2,0.4-0.4,0.6-0.4
	c0.3,0,0.5,0.2,0.5,0.5l0.4,1.6c1-6.7,1.1-13.5,0.3-20.3c0-0.2,0-0.4,0.1-0.5c0.1-0.1,0.3-0.2,0.5-0.2h5.5l-0.9-1.6
	c-0.2-0.3-0.1-0.7,0.3-0.9c0.1,0,0.2-0.1,0.3-0.1h7.6l-1.9-2.1c-0.2-0.3-0.1-0.7,0.1-0.9c0.1-0.1,0.3-0.1,0.4-0.1l4.4,0.7
	c-2-3.2-8.8-12.2-25.2-15.2c-11.1-2-18.3,1.7-22.5,5.2c-5.1,4.3-8.3,10.8-8.2,16.5s1.8,12.3,3.4,18.2c1.4,5.3,2.6,9.9,2.5,13
	c-0.1,3.1-0.6,6.2-1.6,9.2c1.3-0.1,2.5-0.6,3.5-1.5c0.1-0.7,0.1-1.5,0.2-2.2C150.5,470.3,150.7,470.1,151,470.1z"/>
<path class="st6" d="M195.3,449.7c-0.4-2.2-1.1-4.4-2-6.5c0.1,2.4,0.1,4.7,0.1,6.8L195.3,449.7z"/>
<path class="st6" d="M126.8,773c0.3,3,0.3,6.1,0.2,9.1c-0.1,0.6-0.2,1.1-0.3,1.7c0.6-0.2,1.2-0.3,1.8-0.2c1.4,0,2.6,1,2.9,2.4
	c0.1,0.3,0.2,0.5,0.3,0.8c0.1,0.2,0.3,0.3,0.5,0.2c0.9-0.1,1.7-0.6,2.2-1.3c0.2-0.9,0.9-5.4,2-12.5c-1.3,0.3-2.6,0.5-3.9,0.5
	C130.6,773.6,128.7,773.3,126.8,773z"/>
<path class="st6" d="M132.2,788.2L132.2,788.2c-0.6,0-1.3-0.3-1.6-0.8c-0.2-0.3-0.3-0.7-0.4-1c-0.3-0.9-0.5-1.4-1.8-1.5
	c-1.7-0.2-1.9,0.7-2,0.8s0,0.3-0.1,0.5c-0.6,3.5-1.2,7.2-0.4,8.1c0.1,0.1,0.3,0.2,0.5,0.2h17.9c1.8-0.1,3.3-1.2,3.9-2.9
	c0.6-1.4,0.2-3-1-4c-3.1-2.8-9.2-2.6-11.9-1.1C134.7,787.4,133.5,788.1,132.2,788.2z"/>
<path class="st6" d="M109.8,422.2c0-2.2,18.2-41.8,21.8-49.8c0.5-0.9,1.4-1.6,2.4-1.9c1-0.4,2-0.9,2.9-1.6c0.9-0.6,2.4-2.6,4.2-5.5
	c0.3-0.6,0.2-1.3-0.4-1.7c-0.1-0.1-0.3-0.1-0.5-0.2c-0.8,0-1.6-0.4-2-1c-0.2-0.4-0.2-0.8-0.1-1.2c1.2-2.6,3.3-7.5,3.6-8.1
	c0.1-0.3,0-0.6-0.1-0.8c-0.1-0.1-0.3,0-0.4,0c-0.9,2.1-2.2,5-3.4,7.5c-0.1,0.3-0.5,0.5-0.8,0.3c-0.3-0.1-0.5-0.5-0.3-0.8
	c1.6-3.5,4.3-9.3,4.5-10.3c-0.1-0.1-0.3-0.2-0.5-0.3c-0.1,0-0.3,0-0.4,0.3c-0.6,1.4-4.8,11.3-5,11.7c-0.1,0.2-0.3,0.4-0.6,0.4
	c-0.1,0-0.2,0-0.3,0c-0.3-0.1-0.5-0.5-0.3-0.8c0,0,0,0,0,0c0-0.1,2.5-5.7,4-9.1c0,0-0.1,0-0.1-0.1c-0.1-0.1-0.2-0.2-0.3-0.2
	c0,0,0,0-0.1,0.1c-0.2,0.3-0.8,1.8-1.7,3.6c-0.1,0.2-0.1,0.4-0.2,0.5c-1,2.1-2,4.5-2.6,5.9c-0.1,0.2-0.3,0.4-0.6,0.4
	c-0.1,0-0.2,0-0.3,0c-0.3-0.1-0.5-0.5-0.3-0.8c0.1-0.2,1.5-3.4,2.8-6.1c0.1-0.2,0.2-0.4,0.2-0.6c-0.5,0.1-0.8,0.6-1.9,3
	c-0.6,1.3-1.4,3-2.5,5.3c-3.3,6.4-2.1,8.6-2,8.6c0.1,0,0,0,0,0c0,0.1,0,0.1,0,0.2l0,0c0,0.1,0,0.1,0,0.2l0,0c0,0.1,0,0.2-0.1,0.2
	l0,0c0,0,0,0.1-0.1,0.1c-0.3,0.4-34.5,35.3-34.8,56.8c-0.1,9.3,4.4,24.4,9.5,38.6c7.2-1.6,14-4.4,20.3-8.2
	C116.5,440.7,109.8,423.5,109.8,422.2z"/>
<path class="st6" d="M151.3,483c0.1-0.3,0.2-0.7,0.3-1C151.5,482.3,151.4,482.6,151.3,483z"/>
<path class="st6" d="M150,485.1c-0.3,0.2-0.5,0.5-0.8,0.7C149.4,485.5,149.7,485.3,150,485.1z"/>
<path class="st6" d="M164,488.8c-4.7-0.1-9.3-1.2-13.5-3.4c0,0.1,0.1,0.1,0.2,0.2C154.8,487.7,159.4,488.8,164,488.8z"/>
<path class="st6" d="M273.8,378c-0.6,2.9-1.3,6.2-1.3,6.4c-0.1,0.3-0.3,0.5-0.6,0.5h-0.1c-0.3-0.1-0.6-0.4-0.5-0.7
	c0.3-1.3,0.8-3.6,1.2-5.8c0-0.2,0.1-0.5,0.2-0.7c0.4-2.1,0.8-3.9,0.8-4.2v-0.1c-0.1,0-0.2,0.1-0.3,0.1h-0.1
	c-0.8,3.7-2.2,9.6-2.2,9.7c-0.1,0.3-0.3,0.5-0.6,0.5H270c-0.3-0.1-0.6-0.4-0.5-0.8c0.1-0.5,2.4-10.9,2.8-12.4c0.1-0.4,0-0.5-0.1-0.5
	c-0.2-0.1-0.4-0.2-0.6-0.1c-0.3,1-1.6,7.2-2.3,11c-0.1,0.3-0.4,0.6-0.7,0.5c-0.3-0.1-0.6-0.4-0.5-0.7c0,0,0,0,0,0
	c0.5-2.6,1.1-5.5,1.6-7.7c0,0,0,0,0-0.1c-0.2-0.4-0.3-0.5-0.4-0.5l0,0c-0.2,0.1-0.4,0.3-0.4,0.5c-0.2,0.6-1.3,5.9-1.9,8.6
	c-0.1,0.5-0.4,0.8-0.8,1c-0.8,0.2-1.7,0-2.4-0.5l-1.5-0.1c-0.2,2.1-0.5,6.4,0,8c0.3,1.1,0.8,2.1,1.4,3c0.6,0.8,0.9,1.9,0.8,2.9
	c-1.5,5.5-14.4,53.1-16,55.6c-1.4,2.2-18,17.6-35.6,27c0.5,1.9,2.7,9.3,10.1,13.3c11.3-6.6,22.8-14.3,28.5-20.6
	c1.1-1.2,2-2.2,2.9-3.2c6.4-7,6.4-7,9-29.1c1.1-9.7,2.7-22.9,5.5-42.7c0-0.2,0.1-0.3,0.3-0.5c0,0,2.5-1.7,3.7-9
	c0.4-2.5,0.8-4.4,1-5.8c0.5-2.7,0.6-3.2,0.3-3.5C273.9,377.5,273.8,377.7,273.8,378z"/>
<path class="st6" d="M150.8,484.1c0.2-0.3,0.3-0.6,0.5-0.9C151.1,483.5,151,483.8,150.8,484.1z"/>
<path class="st5" d="M211.8,478.8c-3.1,1.6-6.3,3-9.5,4.2c-10.2,3.6-16.8,4.5-21,4.5c-2,0.1-3.9-0.2-5.7-0.9
	c-3.6,1.5-7.5,2.3-11.5,2.3c-4.7,0-9.2-1.1-13.4-3.2c-0.1,0-0.1-0.1-0.2-0.2l-0.5-0.3l0,0c-0.3,0.2-0.5,0.5-0.8,0.7l-0.2,0.1
	c-0.3,0.2-0.7,0.4-1,0.5c-1.2,0.4-2.4,0.6-3.7,0.6c-3.2,0-6.5-1.1-8.2-2.6c-1.4-1.3-6.8-13.3-12.4-26.5c-6.3,3.8-13.2,6.6-20.3,8.2
	c6.7,18.3,14.5,34.9,14.6,35.2c0,0.1,0.1,0.2,0.1,0.3c0,0.6-1,64.6,7.6,109.9c3,0.8,23.6,5.6,44.7,0.4c1.5-5.7,20.7-77.9,23.9-104.7
	c0-0.2,0.2-0.4,0.3-0.5c0.2-0.1,13.3-6.5,27.2-14.6C216.8,489.2,213.2,484.4,211.8,478.8z"/>
<path class="st2" d="M175,485.4l1.5-12.2c0-0.3,0.3-0.6,0.7-0.5c0,0,0,0,0,0c0.3,0,0.6,0.3,0.6,0.7c0,0,0,0,0,0l-0.2,1.5
	c1.6,0.3,6,1.2,8.1,0.8c0.9-0.2,9-2.8,5.6-44.4h-2.3l0.9,1.6c0.1,0.2,0.1,0.4,0,0.6c-0.1,0.2-0.3,0.3-0.5,0.3h-5.9
	c0.9,7.7,0.6,15.4-0.9,23c-0.1,0.3-0.3,0.5-0.6,0.5l0,0c-0.3,0-0.5-0.2-0.6-0.5l-0.7-2.8l-1.5,3.3c-0.1,0.3-0.4,0.4-0.7,0.4
	c-0.3-0.1-0.5-0.3-0.5-0.6c0-0.1,0.2-9.5,0-14.3c0.1-1.9-1.3-3.5-3.1-3.7c-1.3-0.1-2.6,0.6-3.2,1.7c-1,1.7-0.6,6.8-0.3,11.7
	c0.4,3.9,0.5,7.8,0.3,11.7c-0.6,5.3-2.4,10.3-5.3,14.8c-0.2,0.3-0.6,0.4-0.9,0.2c-0.2-0.1-0.3-0.4-0.3-0.7c0.4-1.7-0.4-4.6-1-6.3
	c-4.7,7.6-9.9,9.4-12.7,9.8c-0.1,0.3-0.2,0.7-0.3,1c0,0.1,0,0.1-0.1,0.2c-0.1,0.3-0.3,0.6-0.5,0.9l0,0
	C158.3,488,167.1,488.5,175,485.4z"/>
<path d="M149,485.8l0.2-0.1L149,485.8z"/>
<path d="M151.2,483.2c0-0.1,0.1-0.1,0.1-0.2C151.3,483.1,151.3,483.1,151.2,483.2z"/>
<path d="M274.8,376.2c-0.2-0.2-0.4-0.2-0.6-0.3c0.2-1.2,0.4-2.1,0.5-2.4c0.2-0.6-0.2-1.3-0.9-1.5c-0.2,0-0.4,0-0.6,0
	c0.2-0.6,0.3-1.1,0.3-1.4c0.2-0.8-0.2-1.7-0.9-2c-0.7-0.3-1.5-0.2-2,0.4c-0.3,0.7-0.5,1.4-0.6,2.2c-0.3-0.2-0.6-0.3-0.9-0.3
	c-0.7,0.1-1.3,0.7-1.5,1.5c-0.2,0.8-1.8,8.4-1.9,8.7c0,0.1,0,0.1-0.1,0.1c-0.5,0-1-0.2-1.5-0.5c-0.1-0.1-0.2-0.1-0.3-0.1l-2.2-0.1
	c-0.3,0-0.6,0.2-0.7,0.6c0,0.3-0.8,6.8,0,9.2c0.4,1.1,0.9,2.2,1.5,3.2c0.5,0.6,0.7,1.3,0.7,2c-5.8,21.2-14.7,53.4-15.8,55.2
	c-1.6,2.5-25.3,24.1-45.6,31.2c-17.4,6.1-24.1,4.3-25.5,3.7l1.2-9.4c2.3,0.5,4.6,0.8,7,0.9c0.5,0,1,0,1.4-0.1
	c1.9-0.3,7.2-3.4,7.4-25.5l2.7-0.4c0.3,0,0.5-0.3,0.5-0.6c0-2.7-3.1-9.9-3.5-10.8c-0.1-2.6-0.3-5.3-0.6-8.3h4.3
	c0.3,0,0.6-0.3,0.6-0.7c0-0.1,0-0.2-0.1-0.3l-1.6-1.8l3.9,0.6c0.2,0,0.5,0,0.6-0.2c0.1-0.2,0.2-0.4,0.1-0.7
	c-0.2-0.5-6.2-13.2-26.7-17c-11.6-2.1-19.2,1.8-23.5,5.5c-5.3,4.5-8.8,11.4-8.7,17.5c0.1,5.8,1.9,12.5,3.4,18.5
	c1.3,5,2.5,9.7,2.4,12.6c-0.1,3.3-0.7,6.6-1.8,9.7c-0.1,0.2-0.1,0.4,0.1,0.6c0.1,0.2,0.3,0.3,0.5,0.3c1.5,0,2.9-0.4,4.2-1.2
	c-0.3,3.2-0.7,6-1,6.5c-0.2,0.3-0.1,0.7,0.2,0.9c0.1,0.1,0.2,0.1,0.3,0.1c0,0,0.3,0,0.7,0h0.1c-0.3,1.4-1.4,2.6-2.8,3.1
	c-3.3,1.3-8.5,0.1-10.5-1.7c-1.4-1.2-6.8-13.4-12.3-26.5c0-0.1-0.1-0.2-0.1-0.2l0,0c-6.6-15.8-13.4-32.9-13.5-34.4
	c0.2-1.9,13.1-30.5,21.7-49.2c0.4-0.6,1-1.1,1.8-1.3c1.1-0.4,2.1-1,3.1-1.7c1.4-1,3.2-3.7,4.5-5.9c0.7-1.1,0.4-2.6-0.8-3.4
	c-0.3-0.2-0.6-0.3-1-0.4c-0.4,0-0.8-0.2-1.2-0.4c0,0,0-0.1,0-0.1c0.1-0.3,3.3-7.4,3.6-8.2c0.3-0.8,0.1-1.6-0.5-2.2
	c-0.2-0.2-0.4-0.3-0.7-0.3c0.3-0.6,0.5-1.3,0.7-2c-0.1-0.8-0.7-1.4-1.4-1.5c-0.8-0.2-1.7,0.2-2,1.1c-0.1,0.2-0.3,0.7-0.5,1.3
	c-0.3-0.3-0.6-0.4-1-0.4c-0.4,0.1-0.8,0.3-1,0.8c-0.1,0.2-0.5,1.1-1,2.2c-0.2-0.1-0.5-0.1-0.7-0.1c-1.3,0.1-1.7,1-3,3.7
	c-0.6,1.2-1.4,3-2.5,5.2c-2.8,5.6-2.5,8.3-2.2,9.4c-3.5,3.7-34.5,36.2-34.8,57.4c-0.3,21.6,22.9,71.8,24.6,75.4
	c0,3.5-0.8,65.8,7.7,110.3c-0.7,2-6.9,21.4-3.5,42.1c3.4,20.9,4.7,52.6,4.8,54.8c-0.6,1.7-6.2,19.3-4.6,27.5
	c1.5,7.8,5.4,39.3,4.6,45.5c-0.2,1.3-0.4,2.7-0.6,4c-0.7,4.3-1.3,7.7-0.1,9.1c0.4,0.4,0.9,0.7,1.4,0.6h18c2.3-0.1,4.3-1.5,5.1-3.7
	c0.8-1.9,0.2-4.1-1.3-5.4c-3.1-2.7-8.8-3.1-12.3-1.8c1.5-8.7,10.5-63.5,14-112.4c4.1,17.3,7,34.7,7.3,36.5
	c-0.6,1.9-6.2,19.3-4.6,27.5c1.6,7.8,5.4,39.3,4.6,45.5c-0.2,1.3-0.4,2.7-0.6,3.9c-0.7,4.3-1.3,7.8-0.1,9.2c0.4,0.4,0.9,0.7,1.4,0.6
	h17.9c2.3-0.1,4.3-1.5,5.1-3.7c0.8-1.9,0.2-4.1-1.4-5.4c-3.2-2.8-8.8-2.6-12.2-1.3c0.3-1.9,1-6.1,1.9-12.2c0-0.1,0-0.1,0-0.2
	c0.2-1,0.3-2.2,0.5-3.3c0-0.1,0-0.2,0-0.2c4.3-31,11.3-98.6,1.7-156.9c1-3.6,20.6-77.2,24-104.7c4.3-2.1,44.4-22,57-36.1
	c1.1-1.2,2-2.2,2.8-3.1c6.7-7.3,6.7-7.3,9.3-29.8c1.1-9.6,2.7-22.8,5.4-42.4c0.8-0.6,2.9-3,4-9.7c0.4-2.5,0.8-4.4,1-5.7
	C275.6,378,275.8,377,274.8,376.2z M195.3,449.7l-1.9,0.3c0-2.1,0-4.4-0.1-6.8C194.1,445.3,194.8,447.5,195.3,449.7L195.3,449.7z
	 M185.7,475.6c-2.1,0.4-6.5-0.5-8.1-0.8l0.2-1.5c0-0.3-0.2-0.7-0.5-0.7c0,0,0,0,0,0c-0.3,0-0.7,0.2-0.7,0.5c0,0,0,0,0,0l-1.5,12.2
	c-7.9,3.1-16.7,2.7-24.2-1.3l0,0c0.2-0.3,0.3-0.6,0.5-0.9c0-0.1,0.1-0.1,0.1-0.2c0.1-0.3,0.2-0.7,0.3-1c2.8-0.4,8-2.2,12.7-9.8
	c0.5,1.7,1.3,4.6,1,6.3c-0.1,0.3,0.1,0.7,0.5,0.8c0.2,0.1,0.5,0,0.7-0.3c2.9-4.4,4.7-9.5,5.3-14.8c0.2-3.9,0.1-7.8-0.3-11.7
	c-0.4-4.9-0.7-10,0.3-11.7c0.9-1.6,3-2.2,4.6-1.3c1.2,0.6,1.8,1.9,1.7,3.2c0.2,4.8,0,14.2,0,14.3c0,0.3,0.2,0.6,0.5,0.6
	c0.3,0.1,0.6-0.1,0.7-0.4l1.5-3.3l0.7,2.8c0.1,0.3,0.3,0.5,0.6,0.5l0,0c0.3,0,0.5-0.2,0.6-0.5c1.5-7.6,1.8-15.3,0.9-23h5.9
	c0.2,0,0.4-0.1,0.5-0.3c0.1-0.2,0.1-0.4,0-0.6l-0.9-1.6h2.3C194.7,472.8,186.6,475.4,185.7,475.6L185.7,475.6z M150.2,472.9
	c-1,0.9-2.2,1.4-3.5,1.5c0.9-3,1.5-6,1.6-9.2c0.2-3.1-1-7.7-2.5-13c-1.5-5.9-3.3-12.5-3.4-18.2s3.1-12.2,8.2-16.5
	c4.2-3.5,11.4-7.3,22.5-5.2c16.4,3,23.3,12.1,25.2,15.2l-4.4-0.7c-0.3,0-0.7,0.2-0.7,0.6c0,0.2,0,0.3,0.1,0.4l1.9,2.1h-7.6
	c-0.3,0-0.6,0.3-0.6,0.6c0,0.1,0,0.2,0.1,0.3l0.9,1.6h-5.5c-0.2,0-0.4,0.1-0.5,0.2c-0.1,0.1-0.2,0.3-0.1,0.5
	c0.9,6.7,0.8,13.6-0.3,20.3l-0.4-1.6c-0.1-0.3-0.3-0.5-0.5-0.5c-0.3,0-0.5,0.1-0.6,0.4l-1,2.2c0-3.2,0.1-8.2,0-11.2
	c0.1-2.6-1.9-4.8-4.4-4.9c-1.8-0.1-3.4,0.8-4.3,2.4c-1.2,2-0.8,6.8-0.4,12.4c0.4,3.8,0.5,7.7,0.3,11.5c-0.5,4.3-1.8,8.4-3.9,12.2
	c-0.3-2-0.8-3.9-1.5-5.8c-0.1-0.2-0.3-0.4-0.5-0.4c-0.2,0-0.5,0.1-0.6,0.3c-5.2,9.1-11.2,10.3-13.4,10.4c0.6-3.3,1-6.6,1.2-10
	c0-0.3-0.2-0.6-0.6-0.7c0,0,0,0,0,0l0,0c-0.3,0-0.6,0.3-0.6,0.6C150.3,471.4,150.3,472.2,150.2,472.9L150.2,472.9z M93.4,426.3
	c0.3-21.5,34.4-56.5,34.8-56.8c0,0,0-0.1,0.1-0.1l0,0c0-0.1,0.1-0.1,0.1-0.2l0,0c0-0.1,0-0.1,0-0.2l0,0c0-0.1,0-0.1,0-0.2
	c0,0,0,0,0,0s-1.2-2.2,2-8.6c1.2-2.3,2-4,2.5-5.3c1.1-2.4,1.4-2.9,1.9-3c0,0.2-0.1,0.4-0.2,0.6c-1.3,2.7-2.7,5.9-2.8,6.1
	c-0.1,0.3,0,0.7,0.3,0.8c0.1,0,0.2,0,0.3,0c0.2,0,0.5-0.1,0.6-0.4c0.6-1.3,1.7-3.7,2.6-5.9c0.1-0.2,0.2-0.4,0.2-0.5
	c0.8-1.8,1.5-3.3,1.7-3.6c0,0,0-0.1,0.1-0.1c0.1,0.1,0.2,0.2,0.3,0.2c0,0,0.1,0.1,0.1,0.1c-1.5,3.5-3.9,9-4,9.1
	c-0.1,0.3,0,0.7,0.3,0.8c0,0,0,0,0,0c0.1,0,0.2,0.1,0.3,0c0.2,0,0.5-0.2,0.6-0.4c0.2-0.4,4.5-10.3,5-11.7c0.2-0.4,0.3-0.3,0.4-0.4
	c0.2,0,0.4,0.1,0.5,0.3c-0.3,1-2.9,6.7-4.5,10.3c-0.1,0.3,0,0.7,0.3,0.8s0.7,0,0.8-0.3c1.2-2.5,2.5-5.4,3.4-7.5c0.2,0,0.3-0.1,0.4,0
	c0.2,0.2,0.2,0.5,0.1,0.8c-0.2,0.6-2.4,5.5-3.6,8.1c-0.2,0.4-0.1,0.8,0.1,1.2c0.5,0.6,1.2,1,2,1c0.2,0,0.3,0.1,0.5,0.2
	c0.6,0.4,0.7,1.1,0.4,1.7c-1.7,2.8-3.2,4.8-4.2,5.5c-0.9,0.6-1.9,1.2-2.9,1.6c-1,0.3-1.9,1-2.4,1.9c-3.7,7.9-21.8,47.5-21.8,49.8
	c0,1.3,6.8,18.5,13.5,34.5c-6.3,3.8-13.1,6.6-20.3,8.2C97.8,450.7,93.3,435.7,93.4,426.3z M147.3,787.5c1.2,1,1.6,2.6,1,4
	c-0.6,1.7-2.2,2.8-3.9,2.9h-17.9c-0.2,0-0.4-0.1-0.5-0.2c-0.8-1-0.2-4.6,0.4-8.1c0-0.2,0-0.3,0.1-0.5s0.3-0.9,2-0.8
	c1.3,0.1,1.5,0.7,1.8,1.5c0.1,0.3,0.3,0.7,0.4,1c0.3,0.5,1,0.9,1.6,0.8l0,0c1.3-0.1,2.5-0.8,3.2-1.8
	C138.1,784.9,144.1,784.7,147.3,787.5L147.3,787.5z M134.4,785.6c-0.5,0.7-1.3,1.2-2.2,1.3c-0.2,0-0.4-0.1-0.5-0.2
	c-0.1-0.2-0.2-0.5-0.3-0.8c-0.3-1.4-1.5-2.4-2.9-2.4c-0.6-0.1-1.2,0-1.8,0.2c0.1-0.6,0.2-1.1,0.3-1.7c0.2-3,0.1-6.1-0.2-9.1
	c1.9,0.4,3.8,0.6,5.8,0.6c1.3,0,2.6-0.1,3.9-0.5C135.3,780.2,134.5,784.7,134.4,785.6L134.4,785.6z M136.7,771.7
	c-3.2,1.2-8.4,0.3-10,0c0-0.6-0.1-1.2-0.1-1.8c1.6,0.5,3.3,0.7,5,0.7c1.8,0,3.7-0.3,5.4-0.8C136.8,770.4,136.7,771,136.7,771.7
	L136.7,771.7z M178.8,787.5c1.2,1,1.6,2.6,1,4c-0.6,1.7-2.2,2.8-4,2.9h-17.9c-0.2,0-0.4-0.1-0.5-0.2c-0.8-0.9-0.3-4.3,0.3-7.7
	c0.2-0.1,0.3-0.2,0.3-0.4c0-0.1,0.3-0.9,2-0.8c1.3,0.1,1.5,0.7,1.8,1.5c0.1,0.3,0.3,0.7,0.4,1c0.3,0.6,1,0.9,1.6,0.8l0,0
	c1.4-0.1,2.6-0.8,3.3-2l0,0C170,785.3,175.7,784.8,178.8,787.5L178.8,787.5z M165.9,786.2L165.9,786.2c-0.5,0.7-1.2,1.1-2.1,1.2
	c-0.2,0-0.4-0.1-0.5-0.2c-0.1-0.2-0.2-0.5-0.3-0.8c-0.3-1.4-1.5-2.4-2.9-2.4c-0.7-0.1-1.4,0-2,0.3c0.1-0.8,0.3-1.6,0.3-2.3
	c0.2-2.9,0.2-5.8-0.1-8.7c3.1,0.8,6.4,0.9,9.6,0.3C166.8,781.5,166,786,165.9,786.2L165.9,786.2z M168.1,772.4
	c-3.3,0.7-6.7,0.6-9.9-0.3c0-0.6-0.1-1.2-0.2-1.9c1.9,0.5,3.9,0.7,5.8,0.7c1.5,0,3.1-0.2,4.5-0.6C168.3,771,168.2,771.7,168.1,772.4
	L168.1,772.4z M168.6,768.9c-4.4,1.4-9.7,0.2-10.7-0.1c-1-11.8-3.1-27.4-4.1-32.7c-1.6-8.1,4.5-26.8,4.6-27c0-0.1,0-0.2,0-0.3
	c0-0.2-3.5-21.4-8.3-40.8l0,0c-0.7-2.8-1.5-5.7-2.2-8.3c-6.5-23-4.3-31-4.3-31.1c0.1-0.3-0.1-0.7-0.4-0.8c-0.3-0.1-0.7,0.1-0.8,0.4
	c-0.1,0.3-2.3,8.4,4.3,31.8c0.8,2.7,1.5,5.5,2.2,8.3c-2.4,36.7-8.2,77.5-11.7,100H137c-3.5,1.1-7.2,1.1-10.6,0
	c-1-11.7-3-27-4.1-32.3c-1.6-8.1,4.5-26.8,4.6-27c0-0.1,0-0.1,0-0.2c0-0.3-1.3-33.4-4.8-55c-3.2-19.4,2.3-37.7,3.3-41.1
	c7.9,1.9,16,2.8,24.1,2.8c7,0,13.9-0.8,20.7-2.3C179.7,671,172.8,738,168.6,768.9L168.6,768.9z M194.6,506.8
	c-0.2,0.1-0.3,0.3-0.3,0.5c-3.2,26.8-22.4,99-23.9,104.7c-21.1,5.2-41.7,0.3-44.7-0.4c-8.6-45.3-7.6-109.3-7.6-109.9
	c0-0.1,0-0.2-0.1-0.3c-0.1-0.3-7.8-16.8-14.6-35.2c7.2-1.7,14-4.5,20.4-8.2c5.5,13.2,10.9,25.2,12.4,26.5c1.6,1.5,5,2.6,8.2,2.6
	c1.3,0,2.5-0.2,3.7-0.6c0.3-0.1,0.7-0.3,1-0.5l0.2-0.1c0.3-0.2,0.6-0.4,0.8-0.7l0,0l0.5,0.3c4.2,2.2,8.8,3.3,13.5,3.4
	c3.9,0,7.8-0.8,11.5-2.3c1.8,0.7,3.8,1,5.7,0.9c4.1,0,10.8-0.9,21-4.5c3.3-1.2,6.5-2.6,9.5-4.2c1.4,5.6,5,10.4,10,13.4
	C207.9,500.3,194.8,506.6,194.6,506.8L194.6,506.8z M273.8,380.7c-0.3,1.3-0.6,3.2-1,5.8c-1.2,7.3-3.7,9-3.7,9
	c-0.2,0.1-0.3,0.3-0.3,0.5c-2.8,19.8-4.3,33-5.5,42.7c-2.6,22.1-2.6,22.1-9,29.1c-0.8,0.9-1.8,2-2.9,3.2c-5.6,6.3-17.2,14-28.5,20.6
	c-7.4-3.9-9.6-11.4-10.1-13.3c17.6-9.3,34.2-24.8,35.6-27c1.6-2.5,14.5-50.1,16-55.6c0.1-1-0.2-2.1-0.8-2.9c-0.6-0.9-1.1-1.9-1.4-3
	c-0.6-1.6-0.3-5.9,0-8l1.5,0.1c0.7,0.5,1.6,0.7,2.4,0.5c0.4-0.2,0.7-0.5,0.8-1c0.6-2.7,1.7-8,1.9-8.6c0.1-0.2,0.2-0.4,0.4-0.5l0,0
	c0,0,0.2,0.1,0.4,0.5c0,0,0,0,0,0.1c-0.5,2.2-1.1,5.1-1.6,7.7c-0.1,0.3,0.1,0.7,0.5,0.7c0,0,0,0,0,0c0.3,0.1,0.7-0.2,0.7-0.5
	c0.7-3.8,2-10,2.3-11c0.2,0,0.4,0,0.6,0.1c0.1,0,0.2,0.1,0.1,0.5c-0.4,1.5-2.7,12-2.8,12.4c-0.1,0.3,0.1,0.7,0.5,0.8h0.1
	c0.3,0,0.6-0.2,0.6-0.5c0-0.1,1.3-6,2.2-9.7h0.1c0.1,0,0.2,0,0.3-0.1v0.1c0,0.3-0.4,2.1-0.8,4.2c-0.1,0.3-0.1,0.5-0.2,0.7
	c-0.5,2.2-0.9,4.5-1.2,5.8c-0.1,0.3,0.2,0.7,0.5,0.7h0.1c0.3,0,0.6-0.2,0.6-0.5c0-0.2,0.7-3.5,1.3-6.4c0.1-0.3,0.2-0.5,0.3-0.8
	C274.4,377.5,274.3,378,273.8,380.7L273.8,380.7z"/>
<path d="M130.2,777.7c-0.3-0.1-0.7,0-0.8,0.4c-0.5,1.2-0.5,2.6,0,3.9c0.1,0.2,0.3,0.3,0.5,0.3c0.1,0,0.2,0,0.3-0.1
	c0.3-0.2,0.4-0.5,0.3-0.8c-0.3-0.9-0.3-1.9,0-2.8C130.6,778.2,130.4,777.9,130.2,777.7z"/>
<path d="M161.3,778.6c-0.3-0.1-0.7,0-0.8,0.4c0,0,0,0,0,0c-0.5,1.2-0.5,2.6,0,3.9c0.1,0.2,0.3,0.3,0.5,0.3c0.1,0,0.2,0,0.3-0.1
	c0.3-0.2,0.4-0.6,0.3-0.9c-0.3-0.9-0.3-1.9,0-2.8C161.7,779.1,161.6,778.7,161.3,778.6z"/>
<path class="st5" d="M501.7,209c-1.7-6.4-8.3-10.1-14.7-8.4c0,0,0,0,0,0c-5.1,1.4-8.7,6-8.8,11.3l-1.3,23.4l19.5-13
	C500.9,219.6,503.1,214.2,501.7,209z"/>
<path class="st2" d="M490.7,207.7c2,0,3.6,1.6,3.6,3.5s-1.6,3.5-3.6,3.5c-2,0-3.5-1.6-3.5-3.5S488.7,207.7,490.7,207.7z"/>
<path d="M488.1,77c-2.7-2.9-6.3-4.8-10.2-5.5c2-4.6,2.6-10.3,2.7-15.1c0.5-0.1,1.1-0.2,1.6-0.3c5.2-1.3,7.2-5.6,6.4-9.3
	c-0.7-3.5-3.8-6-7.3-5.9c-0.2,0-0.5,0-0.7,0c0-0.1,0-0.1,0-0.2c-0.1-2.3,0-4.5,0.5-6.8c1.6-0.7,3-1.6,4.2-2.8
	c5.7-5.5,6.1-12.9,4-17.5c-1.7-3.9-5.5-6.4-9.8-6.4c-0.4,0-0.7,0-1.1,0c-0.3,0-0.6,0-1,0c-4,0-9.8-1.9-17.4-4.8
	c-4-1.5-8.2-2.3-12.5-2.4c-7.4,0-17.5,2.7-23.7,15.8c-6.2,13.3-2.1,24.3,1,32.3c1.3,3.6,2.5,6.6,2.4,8.8c-0.2,4.3-0.5,9.9,2.8,12.6
	c0,1.1-0.4,2.1-1.1,2.9c-0.6,0.1-1.3,0.2-1.9,0.2c-3.6,0.1-9,0.3-17.3,6.3c-8.8,6.2-12.6,24.4-14.1,34.7c-2.3,16-2,32.8,0.7,43.9
	c4.5,18.2,25.5,37.4,60.7,55.6c1.2,2,3.6,4.8,8.9,7.6c2.2,1.2,3.8,2.1,4.9,2.8c2.3,1.4,3.7,2.2,5.5,2.2c0.5,0,1-0.1,1.5-0.2l0.5,0.2
	c0.7,0.4,1.5,0.5,2.3,0.5c0.5,0,1.1-0.1,1.6-0.3c2,0.7,4.3,0.1,5.8-1.5c1.8-1.9,2-4.8,0.5-6.9c-0.2-0.3-0.4-0.5-0.7-0.7
	c-0.2-1.6-1.1-3.1-2.4-4c-0.5-0.3-2.8-1.7-4.7-2.9c0.7-2.9-0.8-6-3.5-7.2c-5.1-2.3-7.3-2.5-8.6-2.5c-1.4,0-2.7,0.1-4.1,0.4
	c-13.8-13.2-34.3-34.3-37.5-42.2c0-3.5,0.1-20.2,3.4-35.2h66.6c2.4,0,4.4-2,4.4-4.4c0-0.1,0-0.3,0-0.4
	C499.7,98.9,495.4,85.3,488.1,77z M418.1,159.3c0,0.4,0.1,0.9,0.2,1.3c2.9,9,21.3,28.1,32.6,39.3c-26.8-15.3-42.7-30.5-46.2-44.5
	c-1.7-6.6-2.3-15.8-1.8-25.9c4.8,1.8,9.9,2.8,15.1,2.7c0.6,0,1.2,0,1.8,0C418.7,141.2,418.1,150.2,418.1,159.3z M465.1,209.5
	l0.8-0.2c0.8-0.2,1.6-0.3,2.5-0.3c0.8,0.2,1.5,0.4,2.3,0.7c-0.1,0.4-0.2,0.9-0.2,1.3c-0.5,0.2-0.9,0.5-1.2,0.9
	c-0.2,0.1-0.4,0.2-0.6,0.3C467.4,211.5,466.2,210.5,465.1,209.5L465.1,209.5z M484.9,97.6c-2.3,0.7-3.7,3.1-3,5.4
	c1,3.7,1.8,7.5,2.4,11.4h-51.5c0.2-0.7,0.5-1.4,0.8-2.1c0.9-2.3-0.2-4.8-2.5-5.7c-0.5-0.2-1.1-0.3-1.6-0.3c-1.8,0-3.5,1.1-4.1,2.8
	c-1.7,4.6-3,9.2-3.9,14c-1.1,0.1-2.2,0.1-3.2,0.1c-5,0.1-10-1-14.5-3.3c1.8-16.8,6.3-30.6,11-34c6.2-4.4,9.7-4.5,12.5-4.6
	c1.9,0.1,3.8-0.3,5.6-1.1c4.3,1,8.7,1.5,13.1,1.5c4.8,0,9.6-0.7,14.2-2c1,0.1,2,0.1,3,0.1c0.5,0,1,0,1.6-0.1c0.2,0,0.4,0,0.6,0
	c0.2,0,0.4,0,0.7,0c1.6-0.2,3.2-0.3,4.8-0.3c5.1,0,8.9,1.1,10.7,3.2c3.3,3.8,5.9,9.1,7.8,16c-0.8-0.8-1.9-1.3-3.1-1.3
	C485.7,97.4,485.3,97.5,484.9,97.6L484.9,97.6z M430,35.9c-1.3-5.4-0.7-11.2,1.7-16.2c3.4-7.3,8.5-10.8,15.6-10.8
	c3.2,0.1,6.4,0.7,9.5,1.9c8.7,3.3,15.2,5.4,20.6,5.4c0.6,0,1.2,0,1.8-0.1h0.3c0.8,0,1.5,0.5,1.7,1.3c0.7,1.5,0.7,4.8-2.1,7.5
	c-1.3,1.3-3.4,1.9-6.3,1.9c-6.7,0-14.5-3.6-15.6-4.4c-1.3-1-2.9-1.6-4.5-1.6c-1.3,0-2.6,0.4-3.8,1.1c-1.5,0.9-2.7,2.3-3.5,3.9
	c-1.6-1.2-3.6-1.9-5.7-1.9c-0.9,0-1.7,0.1-2.6,0.4C433.4,25.1,429.5,28.9,430,35.9L430,35.9z M471.6,50.8c0.6,7.8-0.7,19.5-4.6,20
	c-1.3,0.2-2.6,0.3-3.9,0.3c-3.5,0.1-6.9-0.7-10-2.2l0,0c-0.7-0.4-1.5-0.6-2.3-0.6c-1.5,0-3,0.8-3.8,2.1c-0.5,0.8-0.7,1.7-0.7,2.6
	h-0.6c-2.5,0-5-0.2-7.5-0.6c0.2-0.7,0.3-1.4,0.3-2.1c1.4-0.5,2.6-1.4,3.6-2.6c3.4-4.3,2.3-10.8,0.3-18c1,0.4,2,0.7,3.1,0.7
	c1.5,0,3-0.5,4.2-1.4c2.2-1.6,4.4-5.4,3-13.7c-0.4-1.7-0.3-3.5,0.2-5.2c5.8,3.2,12.2,5,18.8,5.4c-0.4,2.5-0.4,5.1,0.2,7.6
	c0.3,1.3,0.9,2.5,1.7,3.6C472.3,47.6,471.5,49.2,471.6,50.8L471.6,50.8z M439.5,32.6c0.1,0,0.2,0,0.2,0c0.1,0,0.2,0,0.3,0
	c0.3,1.2-0.2,4-0.5,5.8c0,0.1,0,0.2-0.1,0.4c-0.2-0.8-0.4-1.5-0.5-2.2C438.6,34.5,438.8,32.8,439.5,32.6L439.5,32.6z"/>
<path d="M470.7,74.5c6-4.4,6-17.8,5.8-22.5c1.4,0.7,3.1,0.8,4.6,0.3c3-0.7,4-3,3.6-4.9c-0.4-2-2.3-3.3-4.3-2.9c0,0-0.1,0-0.1,0
	c-1.4,0.2-2.8,0.1-3.6-2.9c-0.7-2.4,0.5-9,0.8-10.6c1.8-0.5,3.5-1.4,4.9-2.7c4.4-4.2,4.8-9.8,3.2-13.2c-1.2-2.8-4-4.5-7-4.2
	c-4.7,0.4-11.1-1.6-20.1-5c-5.2-2-22.7-7-31.4,11.5c-5.6,11.8-1.9,21.5,1.1,29.4c1.5,3.9,2.8,7.3,2.6,10.3c-0.2,4.6-0.4,9.4,2.7,10
	c0.2,1.3,0.6,5.3-2.1,7.9c-1.2,1.2-2.5,1.2-4.5,1.3c-3.3,0.1-7.8,0.3-15.3,5.6c-12,8.5-17.4,52.4-11.9,74.6
	c4.3,17.3,25,35.9,59.8,53.8c0.3,0.8,1.7,3.7,7.9,7.1c2.3,1.2,3.9,2.2,5.1,2.9c1.8,1.1,2.8,1.6,3.6,1.6c0.4,0,0.7-0.1,1-0.3
	c0.2-0.1,0.4-0.3,0.5-0.5c1,0.6,1.8,1.1,2.1,1.2c0.2,0.1,0.5,0.2,0.7,0.2c0.2,0,0.4,0,0.5-0.1c0.3-0.2,0.6-0.5,0.6-0.9
	c0.6,0.3,1,0.6,1.2,0.8c0.3,0.2,0.6,0.3,1,0.3c0.5,0,0.9-0.2,1.2-0.5c0.5-0.5,0.7-1.3,0.3-2c-0.6-0.5-1.2-0.9-1.8-1.3
	c0.2-0.2,0.3-0.4,0.4-0.7c0.2-0.8-0.1-1.5-0.7-2c-0.7-0.5-7.3-4.5-7.6-4.6c0,0-0.1-0.1-0.1-0.1s0.2-0.5,0.7-1
	c0.3-0.2,0.5-0.5,0.6-0.9c0.5-1.2-0.1-2.7-1.3-3.2c-2.3-1-5.4-2.2-7-2.2l0,0c-1.2,0-2.3,0.1-3.5,0.4c-0.7,0.3-1.4,0.3-2.1,0
	c-1.8-1.7-36-34-39.7-45.2c0-1.6-0.2-22.2,4.2-39.7h69.6c0.2,0,0.3-0.1,0.5-0.2c0.1-0.1,0.2-0.3,0.2-0.5
	c-1.5-18.8-5.5-31.6-12.3-39.4C481.4,75.4,475.3,74.5,470.7,74.5z M431.9,57.2c0.2-3.2-1.2-6.7-2.7-10.8c-2.9-7.6-6.4-17.1-1.1-28.4
	c8-17,23.5-13.3,29.8-10.9c9.1,3.5,15.7,5.5,20.6,5.1c2.5-0.3,4.8,1.1,5.8,3.4c1.4,3,1.1,8-2.9,11.8c-7.2,6.9-24.2-0.2-26.9-2.3
	c-1.1-0.9-2.8-1.1-4-0.3c-2,1.2-4,4.8-2.9,11.1s-0.4,8.3-1.1,8.8c-0.6,0.5-1.5,0.5-2.2,0.1c-1-0.4-0.5-3.2-0.1-5.8
	c0.5-2.9,1-6.2,0.2-8.5c-1.1-2.5-3.9-3.8-6.5-3c-2.8,0.8-5.3,3.8-4.1,9.8c0.5,2.5,1.4,5.4,2.3,8.5c2.1,7.2,4.5,15.3,2,18.5
	c-0.8,1.1-2.2,1.5-4.2,1.4C431.7,65.9,431.7,62.3,431.9,57.2z M434.6,67.3c1.7,0.1,3.3-0.6,4.5-1.9c2.9-3.7,0.5-11.8-1.8-19.6
	c-0.9-3.1-1.8-5.9-2.2-8.4c-0.9-4.4,0.3-7.6,3.2-8.4c2-0.6,4.1,0.3,5,2.2c0.8,2.1,0.2,5.2-0.3,7.9c-0.6,3.4-1.1,6.3,0.8,7.2
	c1.1,0.6,2.5,0.5,3.5-0.3c1.9-1.4,2.4-5,1.6-10.1c-0.9-5.3,0.5-8.8,2.3-9.9c0.8-0.5,1.8-0.4,2.5,0.2c2.5,2,13.8,6.7,22.3,5.2
	c-0.4,2.3-1.3,8.2-0.6,10.6c0.9,3,2.5,4.3,5.1,3.9c1.3-0.3,2.6,0.5,2.9,1.8c0,0,0,0.1,0,0.1c0.3,1.3-0.4,2.9-2.6,3.4
	c-3.5,0.9-4.4-0.9-4.4-0.9c-0.1-0.3-0.4-0.4-0.7-0.4c-0.3,0.1-0.5,0.4-0.5,0.7c0,0.2,1.7,22.7-7.8,24.1c-9.9,1.4-16.3-2.4-16.4-2.4
	c-0.3-0.2-0.7-0.2-0.9,0.1c-0.2,0.3-0.2,0.7,0.1,0.9c0,0,0.1,0.1,0.1,0.1c1.9,1.1,4,1.8,6.2,2.3c-7.8,1.7-15.9,1.6-23.7-0.3
	C434.4,72.9,435,70,434.6,67.3z M481.9,219.3c1.1,0.7,1.9,1.2,2.2,1.4c0,0.2-0.1,0.4-0.3,0.5c-0.1,0-0.2,0.1-0.5-0.1
	c-1.3-0.8-10.4-6.5-10.8-6.7c-0.3-0.2-0.7-0.1-0.9,0.1c-0.2,0.3-0.1,0.7,0.1,0.9c0,0,0,0,0.1,0l8.5,5.2c0.1,0,0.2,0.1,0.2,0.2
	s-0.2,0.3-0.3,0.3h-0.1c-0.7-0.3-7-4.1-9.4-5.6c-0.3-0.2-0.7-0.1-0.9,0.2c-0.2,0.3-0.1,0.7,0.2,0.9c0.2,0.1,3.1,1.9,5.7,3.4l0.4,0.2
	c0.2,0.1,0.2,0.2,0.2,0.2l0,0c-0.4,0.3-0.9,0-3.3-1.4c-1.2-0.7-2.8-1.7-5.1-2.9c-6.3-3.4-7.2-6.2-7.3-6.4c0-0.2-0.1-0.4-0.3-0.5
	c-34.7-17.8-55.2-36.1-59.5-53.1c-2.1-8.6-2.6-20.7-1.6-32.8c2.3,1.5,8.5,4.9,18.5,4.9c2.1,0,4.2-0.2,6.3-0.4
	c-1.6,10.4-2.4,20.8-2.4,31.3c0,0.1,0,0.1,0,0.2c3.8,11.7,38.7,44.5,40.2,45.9l0.2,0.1c0.9,0.4,2,0.5,3,0.2c1.1-0.2,2.2-0.4,3.3-0.4
	c1.1,0,3.5,0.8,6.5,2.1c0.6,0.3,0.9,1,0.6,1.6c-0.1,0.1-0.2,0.3-0.3,0.4c-0.6,0.5-1,1.2-1.1,2c0,0.4,0.3,0.8,0.7,1
	c2.4,1.4,7,4.3,7.5,4.6c0.2,0.2,0.3,0.4,0.2,0.6c0,0.1-0.1,0.2-0.3,0.3c-2-1.2-4.6-2.8-7-4.2c-0.3-0.2-0.7-0.1-0.9,0.2
	c-0.2,0.3-0.1,0.7,0.2,0.9c0,0,0,0,0,0c2,1.1,4.7,2.7,6.7,4 M489.2,118.3c0.2-6-2.6-16.1-2.8-16.5c-0.1-0.3-0.4-0.6-0.7-0.5
	c-0.3,0.1-0.6,0.4-0.5,0.7c0,0,0,0.1,0,0.1c0,0.1,2.9,10.4,2.7,16.2h-60.6c0.6-2.4,1.4-4.9,2.3-7.2c0.1-0.3,0-0.7-0.4-0.8
	c-0.3-0.1-0.7,0-0.8,0.4c-1.9,5.2-3.3,10.6-4.2,16.1c-14.7,2.1-23.3-3.5-24.9-4.6c1.6-17.5,6.2-34.3,12.9-39.1
	c7.1-5.1,11.4-5.2,14.6-5.3c2-0.1,3.6-0.1,5-1.4c4.5,1.2,9.1,1.8,13.8,1.8c4.5,0,9-0.6,13.3-1.9c0.1,0,0.2-0.1,0.3-0.2
	c1.2,0.1,2.4,0.2,3.6,0.2c0.6,0,1.3,0,1.9-0.1c0.1,0,0.2,0.1,0.3,0.1c0.1,0,13.5-2.2,18.9,4.1c6.5,7.4,10.4,19.9,11.9,38
	L489.2,118.3z"/>
<path class="st2" d="M456.4,75.5c-2.2-0.4-4.3-1.2-6.2-2.3c-0.3-0.1-0.5-0.5-0.3-0.8c0.1-0.3,0.5-0.5,0.8-0.3c0,0,0.1,0,0.1,0.1
	c0.1,0,6.5,3.8,16.4,2.4c9.6-1.4,7.9-23.9,7.8-24.1c0-0.3,0.2-0.6,0.5-0.7c0.3-0.1,0.6,0.1,0.7,0.4c0,0.1,0.9,1.8,4.4,0.9
	c2.2-0.5,2.9-2.1,2.6-3.4c-0.3-1.3-1.5-2.2-2.8-1.9c0,0-0.1,0-0.1,0c-2.6,0.4-4.2-0.8-5.1-3.9c-0.7-2.5,0.2-8.4,0.6-10.6
	c-8.5,1.5-19.7-3.2-22.3-5.2c-0.7-0.6-1.7-0.7-2.5-0.2c-1.8,1.1-3.2,4.5-2.3,9.9c0.9,5.1,0.3,8.6-1.6,10.1c-1,0.8-2.4,0.9-3.5,0.3
	c-1.9-0.9-1.4-3.8-0.8-7.2c0.5-2.7,1-5.8,0.3-7.9c-0.9-1.9-3-2.8-5-2.2c-2.9,0.8-4.1,3.9-3.2,8.4c0.5,2.5,1.3,5.3,2.2,8.4
	c2.3,7.8,4.7,16,1.8,19.6c-1.1,1.3-2.8,2-4.5,1.9c0.5,2.8-0.2,5.6-1.8,7.9C440.6,77.1,448.6,77.2,456.4,75.5z M452.1,57.6
	c0.6-2.2,2.6-3.6,4.9-3.4c3.5,0.3,4.5,2.2,5.3,3.7c0.5,0.9,0.9,1.7,1.8,2l0,0c1.1,0.4,2.3,0.6,3.5,0.7c1.7,0.2,3.2,0.4,3.6,2.6
	c0.2,1.5-0.5,3-1.7,3.8c-1.5,1-3.4,1.5-5.2,1.4c-2.5,0-4.9-0.7-7.1-1.8C452.6,64.3,451.3,60.3,452.1,57.6L452.1,57.6z"/>
<path class="st4" d="M438.1,64.6c2.5-3.2,0.1-11.3-2-18.5c-0.9-3.1-1.8-6-2.3-8.5c-1.2-6.1,1.3-9.1,4.1-9.8c2.6-0.8,5.4,0.5,6.5,3
	c0.9,2.4,0.3,5.6-0.2,8.5c-0.5,2.6-0.9,5.4,0.1,5.8c0.7,0.4,1.6,0.3,2.2-0.1c0.7-0.5,2.2-2.4,1.1-8.8s0.9-9.9,2.9-11.1
	c1.2-0.8,2.9-0.7,4,0.3c2.7,2.1,19.7,9.1,26.9,2.3c4-3.8,4.3-8.8,2.9-11.8c-0.9-2.3-3.3-3.7-5.8-3.4c-4.9,0.5-11.5-1.6-20.6-5.1
	c-6.3-2.4-21.8-6.2-29.8,10.9c-5.3,11.3-1.8,20.8,1.1,28.4c1.5,4.1,2.9,7.6,2.7,10.8c-0.2,5.1-0.2,8.7,2,8.8
	C435.8,66.1,437.2,65.6,438.1,64.6z"/>
<path class="st5" d="M457.8,65.5c4.7,2.4,9,1.9,11,0.5c0.9-0.5,1.3-1.5,1.2-2.6c-0.2-1.2-0.7-1.3-2.5-1.5c-1.3-0.1-2.6-0.4-3.8-0.8
	c-1.1-0.5-2-1.4-2.5-2.6c-0.8-1.5-1.5-2.8-4.3-3.1h-0.3c-1.5,0-2.9,1-3.2,2.5C452.7,60.2,453.8,63.5,457.8,65.5z"/>
<path class="st2" d="M475.7,220.1c-2.6-1.5-5.5-3.3-5.7-3.4c-0.3-0.2-0.4-0.6-0.2-0.9c0.2-0.3,0.6-0.4,0.9-0.2
	c2.4,1.5,8.8,5.3,9.4,5.6h0.1c0.1,0.1,0.3-0.1,0.3-0.3s-0.2-0.1-0.2-0.2l-8.5-5.2c-0.3-0.2-0.4-0.5-0.3-0.9s0.5-0.4,0.9-0.3
	c0,0,0,0,0.1,0c0.4,0.2,9.5,5.9,10.8,6.7c0.3,0.2,0.5,0.1,0.5,0.1c0.2-0.1,0.3-0.3,0.3-0.5c-0.3-0.2-1.3-0.8-2.3-1.5"/>
<path class="st2" d="M481.8,219.2c-0.2-0.1-0.4-0.2-0.6-0.3c-2-1.2-4.7-2.8-6.7-4c-0.3-0.2-0.4-0.5-0.2-0.8c0,0,0,0,0,0
	c0.2-0.3,0.6-0.4,0.9-0.2c2.4,1.4,5,3,7,4.2c0.1-0.1,0.2-0.2,0.3-0.3c0-0.2,0-0.5-0.2-0.6c-0.5-0.4-5.2-3.2-7.5-4.6
	c-0.4-0.2-0.6-0.6-0.7-1c0-0.8,0.4-1.5,1.1-2c0.5-0.5,0.5-1.2,0-1.7c-0.1-0.1-0.2-0.2-0.4-0.3c-3-1.3-5.4-2.1-6.5-2.1
	c-1.1,0-2.2,0.1-3.3,0.4c-1,0.3-2.1,0.3-3-0.2l-0.2-0.1c-1.5-1.4-36.4-34.3-40.2-45.9c0-0.1,0-0.1,0-0.2c0-10.5,0.8-20.9,2.4-31.3
	c-2.1,0.3-4.2,0.4-6.3,0.4c-10,0-16.2-3.4-18.5-4.9c-1,12-0.6,24.2,1.6,32.8c4.2,17,24.8,35.3,59.5,53.1c0.2,0.1,0.3,0.3,0.3,0.5
	c0.1,0.2,1,3,7.3,6.4c2.3,1.2,3.9,2.2,5.1,2.9c2.4,1.4,2.8,1.6,3.3,1.4l0,0"/>
<path class="st5" d="M465,76.2c-0.1,0-0.2,0-0.3-0.1c-0.7,0-1.3,0.1-1.9,0.1c-1.2,0-2.4-0.1-3.6-0.2c-0.1,0.1-0.2,0.1-0.3,0.2
	c-4.3,1.3-8.8,1.9-13.3,1.9c-4.7,0-9.3-0.6-13.8-1.8c-1.5,1.3-3,1.3-5,1.4c-3.2,0.1-7.5,0.3-14.6,5.3c-6.7,4.8-11.3,21.6-12.9,39.1
	c1.6,1.1,10.2,6.7,24.9,4.6c0.9-5.5,2.3-10.9,4.2-16.1c0.1-0.3,0.5-0.5,0.8-0.4c0.3,0.1,0.5,0.5,0.4,0.8c-0.9,2.4-1.7,4.8-2.3,7.2
	h60.6c0.2-5.8-2.7-16.1-2.7-16.2c-0.1-0.3,0.1-0.7,0.4-0.8c0.3-0.1,0.7,0.1,0.8,0.4c0,0,0,0.1,0,0.1c0.1,0.4,3,10.5,2.8,16.5h6.7
	c-1.5-18.1-5.4-30.5-11.9-38C478.5,74,465.2,76.1,465,76.2z"/>
<path d="M470.7,74.5c6-4.4,6-17.8,5.8-22.5c1.4,0.7,3.1,0.8,4.6,0.3c3-0.7,4-3,3.6-4.9c-0.4-2-2.3-3.3-4.3-2.9c0,0-0.1,0-0.1,0
	c-1.4,0.2-2.8,0.1-3.6-2.9c-0.7-2.4,0.5-9,0.8-10.6c1.8-0.5,3.5-1.4,4.9-2.7c4.4-4.2,4.8-9.8,3.2-13.2c-1.2-2.8-4-4.5-7-4.2
	c-4.7,0.4-11.1-1.6-20.1-5c-5.2-2-22.7-7-31.4,11.5c-5.6,11.8-1.9,21.5,1.1,29.4c1.5,3.9,2.8,7.3,2.6,10.3c-0.2,4.6-0.4,9.4,2.7,10
	c0.2,1.3,0.6,5.3-2.1,7.9c-1.2,1.2-2.5,1.2-4.5,1.3c-3.3,0.1-7.8,0.3-15.3,5.6c-12,8.5-17.4,52.4-11.9,74.6
	c4.3,17.3,25,35.9,59.8,53.8c0.3,0.8,1.7,3.7,7.9,7.1c2.3,1.2,3.9,2.2,5.1,2.9c1.8,1.1,2.8,1.6,3.6,1.6c0.4,0,0.7-0.1,1-0.3
	c0.2-0.1,0.4-0.3,0.5-0.5c1,0.6,1.8,1.1,2.1,1.2c0.2,0.1,0.5,0.2,0.7,0.2c0.2,0,0.4,0,0.5-0.1c0.3-0.2,0.6-0.5,0.6-0.9
	c0.6,0.3,1,0.6,1.2,0.8c0.3,0.2,0.6,0.3,1,0.3c0.5,0,0.9-0.2,1.2-0.5c0.5-0.5,0.7-1.3,0.3-2c-0.6-0.5-1.2-0.9-1.8-1.3
	c0.2-0.2,0.3-0.4,0.4-0.7c0.2-0.8-0.1-1.5-0.7-2c-0.7-0.5-7.3-4.5-7.6-4.6c0,0-0.1-0.1-0.1-0.1s0.2-0.5,0.7-1
	c0.3-0.2,0.5-0.5,0.6-0.9c0.5-1.2-0.1-2.7-1.3-3.2c-2.3-1-5.4-2.2-7-2.2l0,0c-1.2,0-2.3,0.1-3.5,0.4c-0.7,0.3-1.4,0.3-2.1,0
	c-1.8-1.7-36-34-39.7-45.2c0-1.6-0.2-22.2,4.2-39.7h69.6c0.2,0,0.3-0.1,0.5-0.2c0.1-0.1,0.2-0.3,0.2-0.5
	c-1.5-18.8-5.5-31.6-12.3-39.4C481.4,75.4,475.3,74.5,470.7,74.5z M431.9,57.2c0.2-3.2-1.2-6.7-2.7-10.8c-2.9-7.6-6.4-17.1-1.1-28.4
	c8-17,23.5-13.3,29.8-10.9c9.1,3.5,15.7,5.5,20.6,5.1c2.5-0.3,4.8,1.1,5.8,3.4c1.4,3,1.1,8-2.9,11.8c-7.2,6.9-24.2-0.2-26.9-2.3
	c-1.1-0.9-2.8-1.1-4-0.3c-2,1.2-4,4.8-2.9,11.1s-0.4,8.3-1.1,8.8c-0.6,0.5-1.5,0.5-2.2,0.1c-1-0.4-0.5-3.2-0.1-5.8
	c0.5-2.9,1-6.2,0.2-8.5c-1.1-2.5-3.9-3.8-6.5-3c-2.8,0.8-5.3,3.8-4.1,9.8c0.5,2.5,1.4,5.4,2.3,8.5c2.1,7.2,4.5,15.3,2,18.5
	c-0.8,1.1-2.2,1.5-4.2,1.4C431.7,65.9,431.7,62.3,431.9,57.2z M434.6,67.3c1.7,0.1,3.3-0.6,4.5-1.9c2.9-3.7,0.5-11.8-1.8-19.6
	c-0.9-3.1-1.8-5.9-2.2-8.4c-0.9-4.4,0.3-7.6,3.2-8.4c2-0.6,4.1,0.3,5,2.2c0.8,2.1,0.2,5.2-0.3,7.9c-0.6,3.4-1.1,6.3,0.8,7.2
	c1.1,0.6,2.5,0.5,3.5-0.3c1.9-1.4,2.4-5,1.6-10.1c-0.9-5.3,0.5-8.8,2.3-9.9c0.8-0.5,1.8-0.4,2.5,0.2c2.5,2,13.8,6.7,22.3,5.2
	c-0.4,2.3-1.3,8.2-0.6,10.6c0.9,3,2.5,4.3,5.1,3.9c1.3-0.3,2.6,0.5,2.9,1.8c0,0,0,0.1,0,0.1c0.3,1.3-0.4,2.9-2.6,3.4
	c-3.5,0.9-4.4-0.9-4.4-0.9c-0.1-0.3-0.4-0.4-0.7-0.4c-0.3,0.1-0.5,0.4-0.5,0.7c0,0.2,1.7,22.7-7.8,24.1c-9.9,1.4-16.3-2.4-16.4-2.4
	c-0.3-0.2-0.7-0.2-0.9,0.1c-0.2,0.3-0.2,0.7,0.1,0.9c0,0,0.1,0.1,0.1,0.1c1.9,1.1,4,1.8,6.2,2.3c-7.8,1.7-15.9,1.6-23.7-0.3
	C434.4,72.9,435,70,434.6,67.3z M481.9,219.3c1.1,0.7,1.9,1.2,2.2,1.4c0,0.2-0.1,0.4-0.3,0.5c-0.1,0-0.2,0.1-0.5-0.1
	c-1.3-0.8-10.4-6.5-10.8-6.7c-0.3-0.2-0.7-0.1-0.9,0.1c-0.2,0.3-0.1,0.7,0.1,0.9c0,0,0,0,0.1,0l8.5,5.2c0.1,0,0.2,0.1,0.2,0.2
	s-0.2,0.3-0.3,0.3h-0.1c-0.7-0.3-7-4.1-9.4-5.6c-0.3-0.2-0.7-0.1-0.9,0.2c-0.2,0.3-0.1,0.7,0.2,0.9c0.2,0.1,3.1,1.9,5.7,3.4l0.4,0.2
	c0.2,0.1,0.2,0.2,0.2,0.2l0,0c-0.4,0.3-0.9,0-3.3-1.4c-1.2-0.7-2.8-1.7-5.1-2.9c-6.3-3.4-7.2-6.2-7.3-6.4c0-0.2-0.1-0.4-0.3-0.5
	c-34.7-17.8-55.2-36.1-59.5-53.1c-2.1-8.6-2.6-20.7-1.6-32.8c2.3,1.5,8.5,4.9,18.5,4.9c2.1,0,4.2-0.2,6.3-0.4
	c-1.6,10.4-2.4,20.8-2.4,31.3c0,0.1,0,0.1,0,0.2c3.8,11.7,38.7,44.5,40.2,45.9l0.2,0.1c0.9,0.4,2,0.5,3,0.2c1.1-0.2,2.2-0.4,3.3-0.4
	c1.1,0,3.5,0.8,6.5,2.1c0.6,0.3,0.9,1,0.6,1.6c-0.1,0.1-0.2,0.3-0.3,0.4c-0.6,0.5-1,1.2-1.1,2c0,0.4,0.3,0.8,0.7,1
	c2.4,1.4,7,4.3,7.5,4.6c0.2,0.2,0.3,0.4,0.2,0.6c0,0.1-0.1,0.2-0.3,0.3c-2-1.2-4.6-2.8-7-4.2c-0.3-0.2-0.7-0.1-0.9,0.2
	c-0.2,0.3-0.1,0.7,0.2,0.9c0,0,0,0,0,0c2,1.1,4.7,2.7,6.7,4 M489.2,118.3c0.2-6-2.6-16.1-2.8-16.5c-0.1-0.3-0.4-0.6-0.7-0.5
	c-0.3,0.1-0.6,0.4-0.5,0.7c0,0,0,0.1,0,0.1c0,0.1,2.9,10.4,2.7,16.2h-60.6c0.6-2.4,1.4-4.9,2.3-7.2c0.1-0.3,0-0.7-0.4-0.8
	c-0.3-0.1-0.7,0-0.8,0.4c-1.9,5.2-3.3,10.6-4.2,16.1c-14.7,2.1-23.3-3.5-24.9-4.6c1.6-17.5,6.2-34.3,12.9-39.1
	c7.1-5.1,11.4-5.2,14.6-5.3c2-0.1,3.6-0.1,5-1.4c4.5,1.2,9.1,1.8,13.8,1.8c4.5,0,9-0.6,13.3-1.9c0.1,0,0.2-0.1,0.3-0.2
	c1.2,0.1,2.4,0.2,3.6,0.2c0.6,0,1.3,0,1.9-0.1c0.1,0,0.2,0.1,0.3,0.1c0.1,0,13.5-2.2,18.9,4.1c6.5,7.4,10.4,19.9,11.9,38
	L489.2,118.3z"/>
<path d="M457.2,66.6c2.2,1.2,4.6,1.8,7.1,1.8c1.8,0.1,3.7-0.4,5.2-1.4c1.3-0.8,1.9-2.3,1.7-3.8c-0.4-2.2-1.9-2.4-3.6-2.6
	c-1.2-0.1-2.4-0.4-3.5-0.7l0,0c-0.9-0.3-1.3-1-1.8-2c-0.8-1.5-1.8-3.4-5.3-3.7c-2.3-0.2-4.3,1.2-4.9,3.4
	C451.3,60.3,452.6,64.3,457.2,66.6z M453.3,58c0.4-1.5,1.7-2.5,3.2-2.5h0.3c2.8,0.2,3.5,1.6,4.3,3.1c0.4,1.2,1.3,2.1,2.5,2.6
	c1.2,0.4,2.5,0.7,3.8,0.8c1.8,0.2,2.3,0.3,2.5,1.5c0.1,1-0.3,2-1.2,2.6c-2,1.4-6.3,1.9-11-0.5C453.8,63.5,452.7,60.2,453.3,58z"/>
<path class="st5" d="M630.8,392.2c-5.7,3.2-7.8,10.5-4.6,16.3c2.6,4.6,7.9,7,13.1,5.8l23.1-4.4L645,394.1
	C641.2,390.3,635.4,389.6,630.8,392.2z"/>
<circle class="st2" cx="635.6" cy="402.3" r="3.6"/>
<path d="M792.7,562.9c-4.3-8.2-13.3-23.6-26.6-35c0.3-0.5,0.6-1,0.7-1.6c0.1-0.4,6.5-45.7-18.5-66.9c-7.9-6.7-16.2-10-24.6-10
	c-2.1,0-4.3,0.2-6.4,0.7c-6.8,1.5-12.9,5.1-17.6,10.3c-1.1-0.4-2.3-0.6-3.4-0.6c-1.5,0-2.9,0.3-4.3,0.8c-3.1,1.1-7.6,4.7-9.7,22.7
	c-0.9,8.4-1.3,16.8-1,25.3c-8.8-6.6-18.1-14.7-21.9-20.3c-6.2-9.1-10.1-49.8-9.7-60.4l0.4-0.4c1-1,2-2,2.8-3.2
	c0.7-1,1.8-2.9,3.1-8.4c0.7-3-0.9-6-3.7-7.1c0.3-3.2,0.5-5.1,0.5-5.5c0.1-1.7-0.6-3.3-1.8-4.4c0-0.3-0.1-0.6-0.2-0.9
	c-0.7-2.3-2.9-3.8-5.3-3.7c-0.2,0-0.4,0-0.6,0c-2.2,0.2-4,1.7-4.6,3.8c-1.1,0.8-1.9,2-2.1,3.3c0,0.1,0,0.2-0.1,0.5
	c-2,1.5-2.3,4-2.6,6.8c-0.1,1.3-0.3,3.1-0.7,5.6c-0.9,6-0.1,9.7,0.8,11.8c-0.3,3.8-1.2,16-1.2,30.7c0,18.6,4.1,36.7,5.2,39.8
	s7.8,15,18.5,26.8l0.1,0.1c0.1,0.1,0.2,0.2,0.3,0.3c7.4,8.2,15.9,15.3,25.4,21c-1.8,9.3-0.4,19,4.2,27.4c6.3,11.8,9.2,31.1,10,36.9
	c-3.8,5.5-16.6,26.1-18.1,51.8c-0.7,11.6,2.1,34.8,4.9,59.3l0.1,0.4c1,8.3,2,16.9,2.9,25.4c0.6,5.3,1.5,11.1,2.5,17.2v0.1
	c1.3,8,2.6,16.3,3,23.2c-7.6,0.9-9.4,4.2-9.5,7c0,1.5,0.5,2.9,1.6,3.9c1.9,2,5.2,2.7,11.9,2.7h5.3c1.9,0,3.6-1,4.5-2.5
	c1.3-2.3,1.6-5,0.6-7.5c0.3-1.7,1.3-6.1,2-9.5c5.9-25.8,11.6-54.4,5.7-69.7c0.8-1.5,2.1-3.6,3.5-6.4c0.6,3.5,1.3,7.4,2.1,11.5
	c1.7,9.1,3.6,19.3,5.1,30.2c0.5,3.6,1.1,7.4,1.8,11.4c1.5,9.5,3.2,20.1,3.7,28.6c-3.8,0.3-6.5,1.2-8.2,2.7c-1.3,1.1-2,2.8-2.1,4.5
	c0,1.5,0.5,2.9,1.6,3.9c2,2.1,5.8,2.9,13.4,2.9h4.6c1.9,0,3.6-1,4.6-2.6c1.4-2.3,1.6-5.1,0.6-7.7c0.1-1.8,0.9-7.4,1.2-10l0,0
	l0.3-2.5c3.7-27.1,7.2-57,2.7-70c2.4-6.9,11.5-34.1,13.3-53c0.1-1.1,0.2-2.2,0.3-3.2c1-9.8,1.7-17.1-3.5-29.1
	c10.4-4.1,34-15.2,40.4-32.7C803.1,583.3,793.8,565,792.7,562.9z M735.1,744.7c-1.6-11.1-3.5-21.4-5.2-30.5
	c-2.1-11.2-3.7-20.1-3.9-25.5c2.5-6.6,4.1-13.6,4.8-20.6c4.7-3.7,15.8-14.2,13.3-29.9c-0.4-2.1-2.2-3.7-4.3-3.7
	c-0.3,0-0.5,0-0.8,0.1c-2.4,0.4-4,2.6-3.6,5c2.2,13.5-10.7,22.1-11.2,22.5c-1.2,0.8-1.9,2.1-2,3.5c-0.9,19.8-14.9,42.3-15.1,42.5
	c-0.8,1.3-0.9,3-0.2,4.4c6.3,12.2-1.1,46.7-4.6,62.5c-0.3,0-0.7,0-1,0c-0.6-4.6-1.4-9.3-2-13.3c-1-6-1.9-11.7-2.4-16.8
	c-0.9-8.5-1.9-17.1-2.9-25.5V719c-2.8-24.2-5.5-47-4.9-57.9c1.2-21.8,11.7-39.8,15.7-46c7,1.7,14.2,2.6,21.4,2.6
	c7.1,0.1,14.2-1,20.9-3.3l0.7,1.1l0.1,0.2c9.5,16.4,8.9,22.8,7.7,34.3c-0.1,1-0.2,2.1-0.3,3.3c-1.9,20.3-13.3,52.1-13.4,52.4
	c-0.4,1.1-0.3,2.3,0.1,3.3c4.7,10.2,0.2,45-2.3,64.1c-0.8-5.8-1.7-11.8-2.6-17.2C736.2,752.1,735.6,748.2,735.1,744.7z M691.2,538.6
	c-8.6-4.7-16.5-10.8-23.3-17.9c2.1-2.2,3.9-4.7,5.4-7.3c3.8,3,7,5.3,8.7,6.5c0.2,1.7,0.3,3.4,0.5,4.8c0.2,1.5,1.2,2.8,2.6,3.4
	c0.2,0.1,15.1,6.4,39.7,6.4c10.4,0,20.9-1.1,31.1-3.2c1.3,0.8,2.5,1.7,3.7,2.6c6.1,5.3,11.5,11.3,16.1,18c-2.6,4.3-5.9,5.8-7.8,6.3
	c-4.1-5.1-7.4-8.7-7.5-8.9c-0.8-0.9-2-1.5-3.3-1.5h-0.6c-1.5,0.2-2.7,1.1-3.4,2.5c-4.4,9.1-7.7,44-8.7,55.5c-6,2.1-12.3,3.1-18.6,3
	c-6.5,0-12.9-0.8-19.2-2.4c-1.1-7.5-4.3-26.3-10.8-38.7c-6.7-12.6-2.9-23.4-2.7-23.9C694,542,693.1,539.7,691.2,538.6L691.2,538.6z
	 M758.5,521.8l-1.3,0.3c0.3-10.1,0.2-28.8-4.4-40.2c-0.7-1.7-2.3-2.8-4.1-2.8c-0.6,0-1.1,0.1-1.7,0.3c-2.3,0.9-3.3,3.5-2.4,5.7
	c0,0,0,0,0,0c4.3,10.5,4,30.7,3.7,38.5c-7.7,1.3-15.6,1.9-23.4,1.9c-7.5,0-15.1-0.6-22.5-2c-0.5-4.7-1.4-14.2-1.2-19.8
	c0.1-2.4-1.8-4.5-4.2-4.6h-0.1c-2.4,0-4.3,1.9-4.4,4.2c0,6,0.3,12,1,18c-0.9-0.3-1.7-0.5-2.3-0.7c-1.1-10.6-1.2-21.4-0.3-32
	c1.2-14.1,3.6-19.2,4.6-20.1c0.4-0.1,0.8-0.2,1.2-0.2c0.2,0,0.4,0,0.6,0.2c0.8,1.4,2.2,2.2,3.8,2.3h0.2c1.6-0.1,3.1-1,3.8-2.5
	c1.2-2.6,6.8-8.2,14.4-9.8c1.5-0.3,3-0.5,4.5-0.5c6.3,0,12.7,2.7,18.9,8C760.2,481,759.2,512.6,758.5,521.8L758.5,521.8z
	 M776.1,585.5c-0.2,0.4-0.4,0.8-0.6,1.1c-4,6.3-16.3,16.7-22.2,20.8c1.1-12.7,3.3-34.1,5.9-46C764.5,567.9,772.7,578.3,776.1,585.5z
	 M782.1,592.5c1.8-2.5,4-6.2,2.4-9.8c-2-4.4-5.6-10.1-10.8-17.1c2.8-1.3,5.3-3.3,7.3-5.6c7.7,12.9,11.3,24,11.6,26.6
	c-4.4,11.4-19.6,20-29.7,24.6C769.8,605.7,778.3,598,782.1,592.5L782.1,592.5z M643.5,417.1c0.6-0.4,1.3-0.7,2.1-0.8
	c0.4,0.2,0.8,0.5,1.2,0.6c-0.2,0.8-0.5,1.5-0.8,2.3c-0.5,0.7-1.1,1.4-1.8,2l-0.5,0.5C643.4,420.1,643.3,418.6,643.5,417.1z
	 M652.2,493.2c2.7,4,7.4,8.9,14.2,14.6c-1.2,2.3-2.7,4.5-4.4,6.4c-9-10.7-13.5-19.5-13.8-20.5c-0.8-2.2-4.3-18-4.6-34
	C645.2,473.2,648.1,487,652.2,493.2z"/>
<path class="st2" d="M698,779.6c0.4,3.4,0.7,6.9,0.7,10.4c1.3,0.7,2.9,0.8,4.2,0.2c0-1.2,0.6-4,2.1-10.6c-1.3,0.3-2.7,0.4-4,0.4
	C700,779.9,699,779.8,698,779.6z M700.9,788.1c0.1,0.3,0,0.7-0.4,0.8c-0.1,0-0.1,0-0.2,0c-0.3,0-0.5-0.2-0.6-0.4
	c-0.4-1.1-0.4-2.2,0-3.3c0.1-0.3,0.5-0.5,0.8-0.4c0.3,0.1,0.5,0.5,0.4,0.8c0,0,0,0,0,0C700.6,786.4,700.6,787.3,700.9,788.1z"/>
<path class="st5" d="M739.3,791.8c-1.1,0-2.2-0.3-3.1-0.9c-2.1-0.1-7.5-0.1-9.2,1.4c-0.3,0.2-0.4,0.5-0.4,0.9c0,0,0,0.1,0.1,0.2
	c0.5,0.5,2.5,1.4,10.2,1.3h4.2c0.1,0,0.2-0.1,0.3-0.3c0.5-1,0.5-2.1,0.1-3.1C740.8,791.7,740,791.8,739.3,791.8z"/>
<path class="st4" d="M697.7,526.7c-0.3-2.6-1.8-15.6-1.5-22.9c0-0.3,0.3-0.6,0.6-0.6l0,0c0.3,0,0.6,0.3,0.6,0.7
	c-0.3,7.9,1.5,22.5,1.6,23.2c11.1,2.4,29.4,4.4,53,0.1c0.2-3.9,1.5-30-3.8-43.2c-0.1-0.3,0-0.7,0.3-0.8c0,0,0,0,0,0
	c0.3-0.1,0.7,0,0.8,0.3c0,0,0,0,0,0c5.4,13.3,4.2,38.5,3.9,43.4c2.9-0.5,5.8-1.2,8.8-1.9c0.5-3.8,4.4-43.6-16.9-61.6
	c-8.7-7.3-17.9-10.2-26.7-8.3s-15.3,8.1-17.1,11.9c-0.1,0.2-0.3,0.4-0.6,0.4c-0.2,0-0.5-0.1-0.6-0.3c-0.1-0.1-1.7-3.3-6.5-1.6
	c-6.6,2.3-9.3,36.1-6.3,58.4C690.9,524.9,694.2,525.9,697.7,526.7z"/>
<path class="st2" d="M736.4,779.6c0.4,3.7,0.6,7.2,0.6,10.3c1.3,0.7,2.8,0.8,4.2,0.2c0.2-3.5,0.5-6.9,1.1-10.3
	c-0.8,0.2-1.6,0.2-2.4,0.2C738.8,780.1,737.6,779.9,736.4,779.6z M739.2,788.6c0.1,0.3,0,0.7-0.4,0.8c-0.1,0-0.2,0-0.2,0
	c-0.3,0-0.5-0.2-0.6-0.4c-0.4-1.1-0.4-2.2,0-3.3c0.1-0.3,0.5-0.5,0.8-0.4c0.3,0.1,0.5,0.5,0.4,0.8
	C738.9,787,738.9,787.8,739.2,788.6L739.2,788.6z"/>
<path class="st5" d="M700.9,791.8c-1.1,0-2.1-0.3-3-0.9c-3.6,0-8.8,0.8-8.8,2.4c0,0.1,0,0.2,0.1,0.3c0.8,0.8,3.9,1.2,9.2,1.2h4.4
	c0.1,0,0.2-0.1,0.3-0.3c0.5-1,0.5-2.1,0.1-3.1C702.5,791.7,701.7,791.8,700.9,791.8z"/>
<path class="st2" d="M671,506.7c-6-5-12.4-10.8-15.7-15.7c-7.5-11.1-11.1-55.6-10.5-64.3l0,0l0,0c0.3-1.1,0.9-2.1,1.9-2.8
	c0.8-0.8,1.6-1.6,2.3-2.5c0.7-0.9,1.5-3.3,2.2-6.5c0.1-0.6-0.3-1.3-0.9-1.5c-0.2,0-0.3,0-0.5,0c-0.8,0.2-1.6,0.1-2.3-0.3
	c-0.3-0.3-0.5-0.7-0.5-1.1c0.3-2.8,0.8-8.2,0.8-8.8c0-0.2-0.1-0.5-0.3-0.6c-0.1,0-0.3,0.1-0.5,0.2c-0.2,2.3-0.5,5.3-0.8,8
	c0,0.3-0.3,0.6-0.7,0.6c-0.3,0-0.6-0.3-0.6-0.7c0,0,0,0,0,0c0.4-3.8,1.1-10.1,1-11.2c-0.2-0.1-0.4-0.1-0.6-0.1
	c-0.1,0-0.2,0.1-0.3,0.5c-0.1,1.5-1,12.2-1,12.7c0,0.3-0.3,0.6-0.6,0.6h-0.1c-0.3,0-0.6-0.3-0.6-0.7c0-0.1,0.5-6.2,0.8-9.9h-0.1
	c-0.1-0.1-0.2-0.1-0.3-0.2c0,0,0,0.1,0,0.1c-0.1,0.3-0.2,1.8-0.4,3.7c0,0.2,0,0.4-0.1,0.5c-0.3,2.4-0.5,5.2-0.7,6.7
	c0,0.3-0.3,0.6-0.6,0.6h-0.1c-0.3,0-0.6-0.3-0.6-0.7c0-0.3,0.4-4,0.7-7.1c0-0.1,0-0.2,0-0.3h-0.1c-0.4,0.2-0.5,0.7-0.8,3.4
	c-0.2,1.4-0.3,3.3-0.7,5.8c-1,7.3,0.8,9.7,0.8,9.7c0.1,0.1,0.2,0.3,0.2,0.5c0,0.1-1.3,13.9-1.3,31.5c0,17.8,4,35.7,4.9,38.2
	c0.7,2,6.7,13.1,17.2,24.8C665.8,516.2,669,511.7,671,506.7z"/>
<path class="st1" d="M750.8,613.7c-0.7-1.2-1.5-2.5-2.4-3.9c-7.1,2.9-14.8,4.3-22.5,4.2c-7.8,0-15.5-1.1-23-3.2
	c-2.1,2.9-16.4,23.7-17.9,50.2c-0.6,11.1,2.1,34.2,4.9,58.5c1,8.4,2,17.1,2.9,25.7c0.6,5.2,1.5,10.9,2.4,17
	c0.9,5.4,1.7,10.9,2.4,16.1c2.5,0.6,5,0.6,7.5-0.1c4.1-18,12-53.7,4.9-67.6c-0.1-0.2-0.1-0.4,0-0.6c0.2-0.2,14.7-23.4,15.6-44.3
	c0-0.2,0.1-0.4,0.3-0.5c0.2-0.1,15.5-10.1,12.9-26.2c-0.1-0.3,0.1-0.7,0.5-0.8s0.7,0.1,0.8,0.5c0,0,0,0.1,0,0.1
	c2.5,15.8-11.1,25.8-13.2,27.3c-0.6,7.5-2.2,14.9-4.9,22c0.1,5.7,1.8,15,4,26.8c1.7,9.1,3.6,19.4,5.2,30.4c0.5,3.5,1.1,7.3,1.8,11.3
	c1.1,7.1,2.4,14.7,3.1,21.8c2,0.6,4.2,0.7,6.3,0.3c0.1-0.7,0.2-1.3,0.3-2c2.7-20,7.8-57.3,2.4-69c-0.1-0.2-0.1-0.3,0-0.5
	c0.1-0.3,11.6-32.3,13.6-53.3c0.1-1.1,0.2-2.2,0.3-3.3c1.2-11.7,1.9-19.1-8.3-36.6L750.8,613.7z"/>
<path class="st5" d="M762.2,531.1c-1.6-1.4-3.3-2.5-5.2-3.5c-0.1-0.1-0.2-0.1-0.2-0.2c-10.5,2.2-21.1,3.4-31.8,3.4
	c-23.8,0-38-6-38.2-6.1c-0.2-0.1-0.3-0.3-0.4-0.5c-0.3-2-0.5-4.2-0.7-6.5c-0.1,0-0.2,0-0.3-0.1c-0.5-0.3-6.6-4.6-13.3-10.1
	c-2.1,5-5.4,9.5-9.5,13.1c7.7,8.6,16.8,15.8,26.9,21.4c0.3,0.1,0.4,0.5,0.3,0.8c0,0.1-4.7,12.6,2.9,27c7.3,13.7,10.3,36.6,10.7,39.9
	c3.2,1,26,7.2,44.8-1c0.4-4.7,4-47.1,8.5-56.5c0.1-0.2,0.3-0.3,0.5-0.3c0.2,0,0.4,0.1,0.6,0.2c0.3,0.4,4.2,4.7,8.7,10.4
	c1.6,0,9-0.8,13.7-10.3c0.1-0.1,0.1-0.2,0.2-0.2C775.3,544.2,769.2,537.2,762.2,531.1z"/>
<path class="st2" d="M767.4,563.6c5.2,6.6,11,14.6,13.7,20.7c0.6,1.3-0.1,3.3-2,6c-5.7,8.1-22,21.5-26.8,23.5c1,1.7,1.8,3.2,2.6,4.7
	c4.3-1.5,34.7-12.8,41.4-31.1c0.8-2.1-4.6-18.3-15.2-34.4C776.7,561.6,770.1,563.2,767.4,563.6z"/>
<path d="M763,530.2c-1.4-1.2-2.9-2.2-4.5-3.2c1.4-0.3,2.8-0.6,4.2-1l0,0c0.2-0.1,0.4-0.3,0.5-0.6c0.1-0.4,5.8-43.7-17.2-63.2
	c-11.3-9.6-21.3-10-27.7-8.6c-8.5,1.8-15,7.6-17.4,11.7c-1-1.1-3.3-2.8-7.4-1.3c-7.4,2.6-9.3,32.2-7.9,52.1
	c-3.5-2.5-22.7-16.3-29.2-25.9c-7.2-10.7-10.9-55-10.3-63.5c0.2-0.8,0.8-1.6,1.5-2.1c0.9-0.8,1.7-1.7,2.4-2.7c1-1.4,1.9-4.5,2.4-7
	c0.3-1.3-0.5-2.6-1.8-2.9c-0.3-0.1-0.7-0.1-1,0c-0.4,0.1-0.8,0.1-1.2,0c0,0,0-0.1,0-0.1c0-0.3,0.8-8.1,0.8-8.9
	c0-0.8-0.4-1.5-1.1-1.8c-0.3-0.1-0.6-0.1-0.8-0.1c0.1-0.7,0.1-1.5,0.1-2.2c-0.3-0.7-1.1-1.1-1.8-1c-0.9,0.1-1.5,0.8-1.5,1.7
	c0,0.2,0,0.8-0.1,1.4c-0.3-0.2-0.8-0.2-1.1,0c-0.4,0.2-0.7,0.6-0.7,1c0,0.3-0.2,1.2-0.3,2.4c-0.2,0-0.5,0-0.7,0.1
	c-1.2,0.5-1.3,1.5-1.6,4.5c-0.2,1.4-0.3,3.2-0.7,5.8c-1,6.7,0.4,9.7,1,10.5c-0.2,1.9-1.3,15-1.3,31.4c0,17.9,3.9,35.7,5,38.6
	c0.7,2.1,6.9,13.5,17.9,25.6l0,0l0,0c7.8,8.7,16.9,16.1,27.1,21.8c-2.6,9.2-1.5,19.1,3.2,27.5c7.3,13.7,10.3,37,10.6,39.6
	c-1.7,2.3-16.7,23.7-18.2,51c-0.6,11.3,2.1,34.3,4.9,58.7c1,8.4,2,17.1,2.9,25.7c0.6,5.2,1.5,11,2.4,17c1.5,9.6,3.1,19.5,3.2,27.3
	c-2.6,0-9.5,0.5-9.7,3.6c0,0.4,0.2,0.9,0.5,1.2c1.3,1.3,5.5,1.6,9.2,1.6h5.3c0.6,0,1.1-0.3,1.4-0.8c0.8-1.5,0.8-3.3,0-4.8
	c-0.2-0.7,1-5.7,2.2-10.9c4.3-19,12.4-54.4,5.2-69.2c3.7-6.2,6.9-12.7,9.6-19.5c0.5,5.8,2,14.1,3.9,24.2c1.7,9.1,3.6,19.4,5.2,30.3
	c0.5,3.5,1.1,7.3,1.8,11.3c1.8,11.1,3.8,23.7,3.9,32.9c-2-0.1-7.5-0.1-9.6,1.8c-0.5,0.4-0.8,1.1-0.9,1.8c0,0.4,0.2,0.8,0.5,1.1
	c1.1,1.2,4.6,1.7,10.7,1.7h4.6c0.6,0,1.1-0.3,1.4-0.8c0.8-1.5,0.8-3.3,0-4.8c-0.2-0.7,0.4-5.4,1.2-11.3l0,0c0.1-0.8,0.2-1.6,0.3-2.5
	c2.7-20,7.8-57.2,2.4-69.4c1.1-3,11.7-33.2,13.6-53.4c0.1-1.1,0.2-2.2,0.3-3.2c1-10.4,1.8-17.5-4.9-30.9c5.1-1.8,35.1-13,42-31.8
	C799,583.7,785.9,549.4,763,530.2z M693.9,465.3c4.7-1.7,6.4,1.4,6.5,1.6c0.1,0.2,0.3,0.4,0.6,0.3c0.2,0,0.5-0.1,0.6-0.4
	c1.8-3.8,8.3-10,17.1-11.9s18,1,26.7,8.3c21.3,18,17.3,57.8,16.9,61.6c-3,0.7-5.9,1.4-8.8,1.9c0.3-4.9,1.5-30.1-3.9-43.4
	c-0.1-0.3-0.5-0.5-0.8-0.4c0,0,0,0,0,0c-0.3,0.1-0.5,0.5-0.4,0.8c0,0,0,0,0,0c5.3,13.2,4,39.3,3.8,43.2c-23.5,4.3-41.9,2.3-53-0.1
	c-0.1-0.6-1.9-15.2-1.6-23.2c0-0.3-0.3-0.6-0.6-0.7l0,0c-0.3,0-0.6,0.3-0.6,0.6c-0.3,7.3,1.2,20.3,1.5,22.9c-3.4-0.8-6.8-1.8-10.1-3
	C684.5,501.4,687.3,467.6,693.9,465.3L693.9,465.3z M644.5,494.9c-0.9-2.5-4.9-20.4-4.9-38.2c0-17.6,1.3-31.4,1.3-31.5
	c0-0.2,0-0.3-0.2-0.5c0,0-1.9-2.4-0.8-9.7c0.4-2.5,0.6-4.4,0.7-5.8c0.3-2.7,0.4-3.2,0.8-3.4h0.1c0,0.1,0,0.2,0,0.3
	c-0.3,3.1-0.7,6.8-0.7,7.1c0,0.3,0.2,0.6,0.6,0.7h0.1c0.3,0,0.6-0.2,0.6-0.6c0.1-1.5,0.4-4.3,0.7-6.7c0-0.2,0-0.4,0.1-0.5
	c0.2-1.9,0.3-3.4,0.4-3.7c0,0,0-0.1,0-0.1c0.1,0,0.2,0.1,0.3,0.2h0.1c-0.3,3.8-0.8,9.8-0.8,9.9c0,0.3,0.2,0.6,0.6,0.7h0.1
	c0.3,0,0.6-0.2,0.6-0.6c0-0.5,1-11.2,1-12.7c0-0.4,0.2-0.4,0.3-0.5c0.2-0.1,0.4,0,0.6,0.1c0,1-0.6,7.3-1,11.2c0,0.3,0.2,0.7,0.6,0.7
	c0,0,0,0,0,0c0.3,0,0.6-0.2,0.7-0.6c0.3-2.7,0.6-5.7,0.8-8c0.2-0.2,0.4-0.3,0.5-0.2c0.2,0.1,0.3,0.4,0.3,0.6c0,0.6-0.5,6-0.8,8.8
	c0,0.4,0.1,0.8,0.5,1.1c0.7,0.4,1.5,0.6,2.3,0.3c0.2,0,0.3,0,0.5,0c0.6,0.2,1,0.8,0.9,1.5c-0.7,3.2-1.5,5.6-2.2,6.5
	c-0.7,0.9-1.4,1.8-2.3,2.5c-0.9,0.7-1.6,1.7-1.9,2.8l0,0l0,0c-0.6,8.7,3,53.2,10.5,64.3c3.3,4.9,9.7,10.7,15.7,15.7
	c-2.1,5-5.3,9.4-9.3,13C651.2,508,645.2,496.9,644.5,494.9L644.5,494.9z M703.1,794.5c-0.1,0.2-0.2,0.3-0.3,0.3h-4.4
	c-5.3,0-8.4-0.4-9.2-1.2c-0.1-0.1-0.1-0.2-0.1-0.3c0.1-1.6,5.2-2.4,8.8-2.4c0.9,0.6,1.9,0.9,3,0.9c0.8,0,1.6-0.1,2.3-0.4
	C703.6,792.4,703.6,793.5,703.1,794.5L703.1,794.5z M702.9,790.2c-1.4,0.6-2.9,0.5-4.2-0.2c0-3.5-0.3-6.9-0.7-10.4
	c1,0.2,2.1,0.3,3.1,0.3c1.3,0,2.7-0.1,4-0.4C703.5,786.2,702.9,789,702.9,790.2L702.9,790.2z M741.5,794.5c-0.1,0.2-0.2,0.3-0.3,0.3
	h-4.2c-7.7,0-9.7-0.8-10.2-1.3c-0.1-0.1-0.1-0.2-0.1-0.2c0-0.3,0.2-0.7,0.4-0.9c1.7-1.5,7-1.5,9.2-1.4c0.9,0.6,2,0.9,3.1,0.9
	c0.8,0,1.5-0.1,2.3-0.4C741.9,792.4,741.9,793.5,741.5,794.5L741.5,794.5z M741.2,790.2c-1.4,0.5-2.9,0.5-4.2-0.2
	c0-3.1-0.3-6.6-0.6-10.3c1.2,0.3,2.4,0.5,3.6,0.5c0.8,0,1.6-0.1,2.4-0.2C741.8,783.3,741.4,786.7,741.2,790.2L741.2,790.2z
	 M759.1,650.4c-0.1,1-0.2,2.1-0.3,3.3c-2,21-13.5,53-13.6,53.3c-0.1,0.2-0.1,0.3,0,0.5c5.4,11.7,0.3,48.9-2.4,69
	c-0.1,0.7-0.2,1.4-0.3,2c-2.1,0.5-4.2,0.4-6.3-0.3c-0.8-7-2-14.7-3.1-21.8c-0.6-4-1.3-7.8-1.8-11.3c-1.6-11-3.5-21.3-5.2-30.4
	c-2.2-11.8-3.9-21.1-4-26.8c2.7-7.1,4.4-14.5,4.9-22c2.1-1.5,15.7-11.5,13.2-27.3c0-0.3-0.3-0.6-0.7-0.6c-0.3,0-0.6,0.3-0.6,0.7
	c0,0,0,0.1,0,0.1c2.6,16.2-12.8,26.1-12.9,26.2c-0.2,0.1-0.3,0.3-0.3,0.5c-0.9,21-15.5,44.1-15.6,44.3c-0.1,0.2-0.1,0.4,0,0.6
	c7.2,13.9-0.8,49.5-4.9,67.6c-2.5,0.6-5,0.7-7.5,0.1c-0.6-5.2-1.5-10.7-2.4-16.1c-1-6-1.9-11.8-2.4-17c-0.9-8.6-2-17.3-2.9-25.7
	c-2.8-24.4-5.6-47.4-4.9-58.5c1.5-26.5,15.8-47.3,17.9-50.2c7.5,2.1,15.2,3.2,23,3.2c7.7,0.1,15.3-1.3,22.5-4.2
	c0.8,1.3,1.6,2.6,2.4,3.9v0.1C761.1,631.3,760.3,638.7,759.1,650.4L759.1,650.4z M749.4,608.9c0.3-3.3,3.8-44.5,8-55.3
	c3.3,3.8,17.9,20.8,22.5,31.2c0.2,0.4,0.3,1.5-1.3,3.9c-5.4,8.6-23.8,23.1-27,24.1C751,611.5,750.2,610.2,749.4,608.9L749.4,608.9z
	 M796.3,587.4c-6.7,18.3-37.1,29.6-41.4,31.1c-0.8-1.5-1.6-3.1-2.6-4.7c4.7-2,21-15.5,26.8-23.5c1.9-2.7,2.6-4.7,2-6
	c-2.7-6-8.5-14.1-13.7-20.7c2.7-0.3,9.3-2,13.7-10.6C791.7,569.1,797.1,585.3,796.3,587.4L796.3,587.4z M780.1,552.1
	c-4.7,9.5-12.1,10.3-13.7,10.3c-4.6-5.7-8.4-10-8.7-10.4c-0.1-0.2-0.4-0.2-0.6-0.2c-0.2,0-0.4,0.2-0.5,0.3
	c-4.6,9.4-8.1,51.8-8.5,56.5c-18.8,8.2-41.6,2-44.8,1c-0.4-3.3-3.4-26.2-10.7-39.9c-7.6-14.3-3-26.8-2.9-27c0.1-0.3,0-0.6-0.3-0.8
	c-10.1-5.6-19.2-12.8-26.8-21.3c4.1-3.6,7.3-8.1,9.5-13.1c6.8,5.5,12.9,9.8,13.3,10.1c0.1,0.1,0.2,0.1,0.3,0.1
	c0.2,2.3,0.4,4.5,0.7,6.5c0,0.2,0.2,0.4,0.4,0.5c0.2,0.1,14.4,6.1,38.2,6.1c10.7,0,21.4-1.2,31.8-3.4c0.1,0.1,0.1,0.2,0.2,0.2
	c1.8,1,3.6,2.2,5.2,3.5c7,6,13.1,13,18.2,20.7C780.2,551.9,780.1,552,780.1,552.1L780.1,552.1z"/>
<path d="M700.5,784.9c-0.3-0.1-0.7,0-0.8,0.4c-0.4,1.1-0.4,2.2,0,3.3c0.1,0.2,0.3,0.4,0.6,0.4c0.1,0,0.1,0,0.2,0
	c0.3-0.1,0.5-0.5,0.4-0.8c-0.3-0.8-0.3-1.6,0-2.4C701,785.4,700.9,785,700.5,784.9C700.5,784.9,700.5,784.9,700.5,784.9z"/>
<path d="M738.8,785.4c-0.3-0.1-0.7,0-0.8,0.4c-0.4,1.1-0.4,2.2,0,3.3c0.1,0.2,0.3,0.4,0.6,0.4c0.1,0,0.2,0,0.2,0
	c0.3-0.1,0.5-0.5,0.4-0.8c-0.3-0.8-0.3-1.6,0-2.4C739.3,785.9,739.2,785.6,738.8,785.4C738.8,785.4,738.8,785.4,738.8,785.4z"/>
<path class="st5" d="M169.4,289.7c-4-4-10.5-3.9-14.4,0.1c-3.2,3.3-3.8,8.2-1.6,12.2l9.1,17.8l8.8-18
	C173.5,297.8,172.7,292.9,169.4,289.7z"/>
<circle class="st2" cx="162.3" cy="296.1" r="3"/>
<path class="st5" d="M205.6,256.7c-4-4-10.5-3.9-14.4,0.1c-3.2,3.3-3.9,8.3-1.6,12.2l9.1,17.8l8.8-18
	C209.6,264.8,208.9,259.9,205.6,256.7z"/>
<circle class="st2" cx="198.5" cy="263" r="3"/>
<path class="st5" d="M631.8,279.4c-4-4-10.5-3.9-14.4,0.1c-3.2,3.2-3.9,8.2-1.6,12.1l9.1,17.9l8.8-18
	C635.8,287.5,635,282.6,631.8,279.4z"/>
<circle class="st2" cx="624.6" cy="285.8" r="3"/>
<path class="st5" d="M725.1,401c-4-3.9-10.5-3.9-14.5,0.2c-3.1,3.2-3.8,8.1-1.6,12.1l9.1,17.8l8.8-18
	C729.1,409.1,728.3,404.1,725.1,401z"/>
<circle class="st2" cx="718" cy="407.4" r="3"/>
<path class="st5" d="M461.6,294.1c-4-3.9-10.5-3.9-14.4,0.2c-3.2,3.2-3.8,8.1-1.6,12.1l9.1,17.8l8.8-18
	C465.6,302.2,464.8,297.3,461.6,294.1z"/>
<circle class="st2" cx="454.5" cy="300.4" r="3"/>
<path class="st5" d="M464.7,363.5c-4-4-10.5-3.9-14.4,0.1c-3.2,3.2-3.9,8.2-1.6,12.1l9.1,17.8l8.8-18
	C468.6,371.6,467.9,366.7,464.7,363.5z"/>
<circle class="st2" cx="457.5" cy="369.9" r="3"/>
<path class="st5" d="M179.7,200.5c-4-3.9-10.5-3.9-14.5,0.2c-3.1,3.2-3.8,8.1-1.6,12.1l9.1,17.8l8.8-18
	C183.7,208.6,182.9,203.7,179.7,200.5z"/>
<circle class="st2" cx="172.5" cy="206.9" r="3"/>
<path class="st5" d="M586.4,235.2c-4-4-10.5-3.9-14.4,0.1c-3.2,3.2-3.8,8.2-1.7,12.1l9.1,17.8l8.8-18
	C590.3,243.3,589.6,238.4,586.4,235.2z"/>
<circle class="st2" cx="579.2" cy="241.6" r="3"/>
<path class="st5" d="M397.1,314.8c-4-3.9-10.5-3.9-14.5,0.2c-3.1,3.2-3.8,8.1-1.6,12.1l9.1,17.8l8.8-18
	C401,322.9,400.3,317.9,397.1,314.8z"/>
<circle class="st2" cx="389.9" cy="321.1" r="3"/>
<path class="st5" d="M239.1,372.3c-4-4-10.5-3.9-14.4,0.1c-3.2,3.2-3.9,8.2-1.6,12.1l9.1,17.8l8.8-18
	C243.1,380.4,242.3,375.5,239.1,372.3z"/>
<circle class="st2" cx="232" cy="378.6" r="3"/>
<path d="M469.7,41.5L469.7,41.5l-0.3-0.1c-0.9-0.3-1.9-0.6-2.8-0.8h-0.3c0.3-1.8,0.4-3.7,0.1-5.6c-0.1-0.4-0.5-0.7-0.9-0.6
	c-0.4,0.1-0.7,0.5-0.6,0.9c0,0,0,0,0,0c0.2,1.7,0.2,3.4-0.1,5c0,0,0,0,0,0.1h-0.3c-1.1-0.1-2.3-0.1-3.4,0.1c-0.2,0-0.4,0.3-0.3,0.5
	c0,0.2,0.2,0.3,0.4,0.3c2.7-0.3,5.5,0,8,1c0.1,0.1,0.3,0.1,0.4,0.1c0.1,0,0.1,0,0.2,0c0.1-0.1,0.2-0.1,0.2-0.3
	c0.1-0.2,0.1-0.4-0.1-0.6C469.8,41.5,469.8,41.5,469.7,41.5z"/>
<path d="M435.8,33.3c0.2-1.2,1.1-2.3,2.3-2.7c1.3-0.5,2.8,0,3.6,1.1c0.1,0.1,0,0.3-0.1,0.4c-0.1,0.1-0.3,0.1-0.4-0.1c0,0,0,0,0,0
	c-0.7-0.9-1.9-1.3-2.9-0.9c-1,0.4-1.7,1.2-1.9,2.3c-0.4,1.6,0.2,3.3,1.4,4.4c1.7,1.7,1.3,3.3,1.1,4.6c-0.2,0.9-0.3,1.6,0.1,2.1
	c0.3,0.4,0.8,0.6,1.3,0.5c0.5-0.1,0.9-0.5,1.1-1c0-0.2,0.2-0.3,0.4-0.2c0.2,0,0.3,0.2,0.2,0.4c0,0,0,0,0,0c-0.2,0.7-0.8,1.3-1.5,1.4
	c-0.2,0.1-0.5,0.1-0.8,0c-0.5-0.1-0.9-0.4-1.2-0.7c-0.7-0.8-0.5-1.7-0.3-2.6c0.3-1.3,0.5-2.6-0.9-4C435.9,37,435.3,35.1,435.8,33.3z
	"/>
<path d="M440.9,41L440.9,41c-0.2,0-0.3-0.2-0.3-0.3c-0.1-1.3-0.6-2.6-1.6-3.6c-0.1-0.1-0.1-0.3,0-0.4c0,0,0,0,0,0
	c0.1-0.1,0.3-0.1,0.4,0c0,0,0,0,0,0c0.3,0.3,0.5,0.6,0.7,0.9c0.2-0.4,0.2-0.9,0.2-1.4c0-0.2,0.1-0.3,0.2-0.4c0,0,0,0,0,0
	c0.2,0,0.3,0.1,0.4,0.3c0.1,0.7,0,1.5-0.4,2.2c0.4,0.8,0.6,1.6,0.7,2.5C441.2,40.8,441.1,41,440.9,41z"/>
</svg>
