<svg id="Layer_1" data-name="Layer 1" xmlns="http://www.w3.org/2000/svg" viewBox="0 0 442.48 593.75"><defs><style>.cls-1{fill:#e5e9e9;}.cls-2{fill:#cdd4d4;}.cls-3{fill:#9aa9aa;}.cls-4{fill:#697f82;}.cls-5{fill:#5abfb6;}.cls-6{fill:#074752;}.cls-7{fill:#fbb03b;}</style></defs><title>Artboard 11</title><rect class="cls-1" x="9.45" y="9.45" width="383.23" height="544.59"/><rect class="cls-2" x="9.45" y="9.45" width="191.61" height="544.59"/><rect class="cls-3" x="9.45" y="493.53" width="383.23" height="60.51"/><rect class="cls-4" x="9.45" y="493.53" width="191.61" height="60.51"/><path class="cls-5" d="M271.66,316.42a80.05,80.05,0,1,1,80-80.05A80.15,80.15,0,0,1,271.66,316.42Zm0-141.19a61.14,61.14,0,1,0,61.14,61.14A61.21,61.21,0,0,0,271.66,175.23Z"/><path class="cls-5" d="M80.05,245.82a9.46,9.46,0,0,1-9.46-9.45c0-110.87,90.2-201.07,201.07-201.07a9.46,9.46,0,1,1,0,18.91C171.22,54.21,89.5,135.92,89.5,236.37A9.45,9.45,0,0,1,80.05,245.82Z"/><path class="cls-5" d="M80.05,245.82a9.43,9.43,0,0,1-6.69-2.77L43.11,212.8a9.45,9.45,0,0,1,13.37-13.37L80.05,223l23.57-23.57A9.45,9.45,0,1,1,117,212.8L86.74,243.05A9.43,9.43,0,0,1,80.05,245.82Z"/><path class="cls-6" d="M140.56,245.82a9.46,9.46,0,0,1-9.46-9.45c0-77.51,63.06-140.56,140.56-140.56a9.46,9.46,0,1,1,0,18.91A121.79,121.79,0,0,0,150,236.37,9.45,9.45,0,0,1,140.56,245.82Z"/><path class="cls-6" d="M251.49,145a9.46,9.46,0,0,1-6.68-16.14l23.57-23.57L244.81,81.69a9.45,9.45,0,0,1,13.37-13.37l30.25,30.26a9.46,9.46,0,0,1,0,13.37L258.18,142.2A9.43,9.43,0,0,1,251.49,145Z"/><path class="cls-7" d="M401.74,339.8H307.91V232.07a31.28,31.28,0,1,0-62.55,0V381.51H207.13a31.28,31.28,0,0,0-31.28,31.27v7A31.28,31.28,0,0,0,207.13,451h38.23V584.3H433V371.08A31.28,31.28,0,0,0,401.74,339.8Z"/><path class="cls-6" d="M211.15,509.29H180.9a9.46,9.46,0,1,0,0,18.91h30.25a9.46,9.46,0,1,0,0-18.91Z"/><path class="cls-6" d="M402.14,330.36V9.45A9.45,9.45,0,0,0,392.68,0H9.45A9.45,9.45,0,0,0,0,9.45V554a9.45,9.45,0,0,0,9.45,9.46H235.91v20.8a9.45,9.45,0,0,0,9.45,9.45H433a9.45,9.45,0,0,0,9.46-9.45V371.08A40.77,40.77,0,0,0,402.14,330.36ZM383.23,18.91V330.35H317.37V232.07a40.74,40.74,0,0,0-81.47,0v140H207.13a40.78,40.78,0,0,0-40.73,40.73v7a40.77,40.77,0,0,0,40.73,40.73H235.9v23.61h-217V18.91ZM18.91,544.59V503h217v41.6Zm404.66,30.25H254.82V451a9.46,9.46,0,0,0-9.46-9.45H207.13a21.85,21.85,0,0,1-21.82-21.82v-7A21.85,21.85,0,0,1,207.13,391h38.23a9.46,9.46,0,0,0,9.46-9.45V232.07a21.82,21.82,0,1,1,43.64,0V381.51a9.46,9.46,0,0,0,18.91,0V349.26H361v32.25a9.46,9.46,0,0,0,18.91,0V349.26h21.83a21.85,21.85,0,0,1,21.82,21.82V574.84Z"/></svg>