<svg id="Layer_1" data-name="Layer 1" xmlns="http://www.w3.org/2000/svg" viewBox="0 0 746.85 127"><defs><style>.cls-1{fill:#074752;}</style></defs><title>Artboard 23</title><path class="cls-1" d="M374.35,0a63.5,63.5,0,1,0,63.5,63.5A63.5,63.5,0,0,0,374.35,0Zm0,96.47a32.79,32.79,0,0,1-18.68-5.8l-11.34,3.26,2.9-11.68a33,33,0,1,1,27.12,14.22Z"/><path class="cls-1" d="M391.81,71.72c-1.23-.71-2.33-1.37-3.73-2.06-1.22-.6-2.62-1.49-4-1.1a5.88,5.88,0,0,0-2.46,2c-.91,1-1.84,1.92-2.76,2.87,0,0-11.84-4.34-15-13.19l1.38-1.58c.77-.9,1.93-1.77,2-3.06a9.15,9.15,0,0,0-.83-3.6c-.28-.72-.57-1.45-.84-2.17a15.14,15.14,0,0,0-1.88-3.95,3.52,3.52,0,0,0-4-.62s-7.79,3.74-5.4,11.24a35.28,35.28,0,0,0,28,25.48s8.39,1.2,10.64-3.9a8.79,8.79,0,0,0,.73-3.84A3.13,3.13,0,0,0,391.81,71.72Z"/><path class="cls-1" d="M218.05,44.28a19.23,19.23,0,1,0,19.52,17.84A19.27,19.27,0,0,0,218.05,44.28ZM218.43,76A12.46,12.46,0,1,1,230.85,63.5,12.43,12.43,0,0,1,218.43,76Z"/><path class="cls-1" d="M236.21,39.7a3.75,3.75,0,1,0,3.7,3.91A3.76,3.76,0,0,0,236.21,39.7Z"/><path class="cls-1" d="M218.39,0a63.5,63.5,0,1,0,63.5,63.5A63.5,63.5,0,0,0,218.39,0Zm30.46,76.13a17.49,17.49,0,0,1-3.49,10.49,17.9,17.9,0,0,1-7,5.72,16.15,16.15,0,0,1-5,1.45,22.21,22.21,0,0,1-2.58.17q-12.48,0-25,0a17.48,17.48,0,0,1-10.45-3.42,17.92,17.92,0,0,1-5.63-6.7,16.59,16.59,0,0,1-1.64-5.46,23,23,0,0,1-.17-2.62q0-12.45,0-24.91a17.44,17.44,0,0,1,1.85-7.75,18.09,18.09,0,0,1,12.7-9.73,19.14,19.14,0,0,1,3.46-.34h12.21c4.35,0,8.7,0,13,0a17.24,17.24,0,0,1,7.16,1.64,18.09,18.09,0,0,1,10.09,12.51,17.44,17.44,0,0,1,.41,3.75Q248.86,63.54,248.85,76.13Z"/><path class="cls-1" d="M63.5,0A63.5,63.5,0,1,0,127,63.5,63.5,63.5,0,0,0,63.5,0Zm18,40.67c-2.27,0-4.36-.05-6.45,0-4.58.13-5.93,1.52-6,6.18,0,2.25,0,4.5,0,7.21H81.2c-.55,4.53-1,8.54-1.58,12.9H69V98.38H56.21V67.18H45.5v-13H55.86c.63-8.26-1.74-17.15,6.5-22.65,5.86-3.91,12.4-3.11,19.14-2.19Z"/><path class="cls-1" d="M547.5,59A6.07,6.07,0,0,0,543,60.61a7.91,7.91,0,0,0-2,4.51h13.12a6.35,6.35,0,0,0-2-4.6A6.61,6.61,0,0,0,547.5,59Z"/><path class="cls-1" d="M518.91,58.2a3.84,3.84,0,0,0,1.65-3.58,3.63,3.63,0,0,0-2.18-3.74,15.35,15.35,0,0,0-4.8-.64H506v9h8.6A8.16,8.16,0,0,0,518.91,58.2Z"/><path class="cls-1" d="M529.3,0a63.5,63.5,0,1,0,63.5,63.5A63.5,63.5,0,0,0,529.3,0Zm10,44.87h16.36v4.06H539.26ZM528.14,78a11.26,11.26,0,0,1-2.87,3.19,11,11,0,0,1-4.59,2,28.58,28.58,0,0,1-5.73.55h-18.3V43.18h19.62c5,.08,8.45,1.52,10.53,4.33a10.37,10.37,0,0,1,1.85,6.21,9.07,9.07,0,0,1-1.87,6,9.46,9.46,0,0,1-3.1,2.31,9.05,9.05,0,0,1,4.69,3.59,10.8,10.8,0,0,1,1.58,6A11.88,11.88,0,0,1,528.14,78ZM562,70.14h-21.2c.12,2.93,1.13,5,3,6.14a7.64,7.64,0,0,0,4.2,1.1A5.94,5.94,0,0,0,553.78,74h7.76a9.37,9.37,0,0,1-2.82,5.26q-3.9,4.24-10.94,4.25A15.88,15.88,0,0,1,537.52,80q-4.42-3.59-4.43-11.66,0-7.58,4-11.6a14,14,0,0,1,10.41-4A16.62,16.62,0,0,1,554.35,54a11.75,11.75,0,0,1,5,4.31,14.23,14.23,0,0,1,2.32,6A38.53,38.53,0,0,1,562,70.14Z"/><path class="cls-1" d="M518.8,66.62a10.32,10.32,0,0,0-4.06-.69H506V76.76h8.59a9.57,9.57,0,0,0,4.11-.71c1.78-.89,2.67-2.57,2.67-5.08A4.34,4.34,0,0,0,518.8,66.62Z"/><path class="cls-1" d="M687.08,58.92v-.13l-.08.13Z"/><path class="cls-1" d="M683.35,0a63.5,63.5,0,1,0,63.5,63.5A63.5,63.5,0,0,0,683.35,0Zm-17,93.29H653V53.09h13.36Zm-6.68-45.68h-.09c-4.48,0-7.38-3.09-7.38-7s3-6.94,7.56-6.94,7.38,3,7.47,6.94S664.31,47.61,659.65,47.61Zm54.86,45.68H701.15V71.78c0-5.4-1.93-9.09-6.76-9.09a7.32,7.32,0,0,0-6.86,4.89,9.23,9.23,0,0,0-.44,3.26V93.29H673.72s.18-36.42,0-40.2h13.36v5.7a13.27,13.27,0,0,1,12-6.64c8.79,0,15.38,5.74,15.38,18.09Z"/></svg>