<svg id="Layer_1" data-name="Layer 1" xmlns="http://www.w3.org/2000/svg" viewBox="0 0 590.63 590.75"><defs><style>.cls-1{fill:#5abfb6;}.cls-2{fill:#9aa9aa;}.cls-3{fill:#697f82;}.cls-4{fill:#e5e9e9;}.cls-5{fill:#cdd4d4;}.cls-6{fill:#fff;}.cls-7{fill:#ed4848;}.cls-8{fill:#fbb03b;}.cls-9{fill:#074752;}</style></defs><title>Artboard 9</title><circle class="cls-1" cx="253.48" cy="253.6" r="244.25"/><rect class="cls-2" x="494.98" y="475.17" width="59.82" height="99.69" transform="translate(-217.51 524.92) rotate(-45)"/><rect class="cls-3" x="499.23" y="485.41" width="30.83" height="99.69" transform="translate(-227.75 520.68) rotate(-45)"/><circle class="cls-4" cx="253.48" cy="253.6" r="172.55"/><path class="cls-5" d="M132.13,131l-.66.64a172.55,172.55,0,0,0,244,244c.22-.21.43-.44.65-.66Z"/><path class="cls-6" d="M460.35,263A9.35,9.35,0,0,1,451,253.6a196.45,196.45,0,0,0-15.15-76.16,9.35,9.35,0,0,1,17.25-7.2,215.16,215.16,0,0,1,16.6,83.36A9.35,9.35,0,0,1,460.35,263Z"/><path class="cls-6" d="M422.32,143.32a9.33,9.33,0,0,1-7.62-3.93,200.47,200.47,0,0,0-21.55-25.46A196.2,196.2,0,0,0,253.48,56.08a9.35,9.35,0,0,1,0-18.7,214.79,214.79,0,0,1,152.89,63.33,219.49,219.49,0,0,1,23.56,27.84,9.36,9.36,0,0,1-7.61,14.77Z"/><rect class="cls-7" x="137.65" y="188.8" width="44.86" height="124.62"/><rect class="cls-1" x="227.37" y="203.75" width="44.86" height="109.67"/><rect class="cls-8" x="317.1" y="158.89" width="44.86" height="154.53"/><path class="cls-9" d="M382.1,125c-70.92-70.92-186.32-70.92-257.24,0A181.9,181.9,0,0,0,382.1,382.22C453,311.3,453,195.9,382.1,125ZM368.88,369c-63.63,63.64-167.17,63.64-230.8,0A163.2,163.2,0,0,1,368.89,138.2C432.52,201.83,432.52,305.37,368.88,369Z"/><path class="cls-9" d="M587.9,532.5,517.4,462a9.37,9.37,0,0,0-13.22,0l-14.54,14.54-50.36-50.36A253.59,253.59,0,0,0,74.16,74.28c-98.88,98.88-98.88,259.77,0,358.64a253.57,253.57,0,0,0,351.9,6.48l50.36,50.36L461.88,504.3a9.35,9.35,0,0,0,0,13.22L532.38,588a9.34,9.34,0,0,0,13.22,0l42.3-42.29A9.37,9.37,0,0,0,587.9,532.5ZM87.38,419.71c-91.6-91.6-91.6-240.62,0-332.21A234.91,234.91,0,0,1,419.59,419.71a234.92,234.92,0,0,1-332.21,0ZM539,568.19l-57.28-57.28,14.53-14.53h0l14.53-14.53,57.28,57.28Z"/><path class="cls-9" d="M381.89,304.07H371.3V158.89a9.35,9.35,0,0,0-9.35-9.35H317.09a9.35,9.35,0,0,0-9.35,9.35V304.07H281.58V203.75a9.35,9.35,0,0,0-9.35-9.34H227.37a9.34,9.34,0,0,0-9.35,9.34V304.07H191.85V188.8a9.35,9.35,0,0,0-9.35-9.35H137.64a9.35,9.35,0,0,0-9.35,9.35V304.07H117.7a9.35,9.35,0,1,0,0,18.69H381.89a9.35,9.35,0,1,0,0-18.69ZM352.61,168.24V304.07H326.44V168.24ZM262.88,213.1v91H236.71v-91Zm-89.72-14.95V304.07H147V198.15Z"/></svg>