<svg id="Layer_1" data-name="Layer 1" xmlns="http://www.w3.org/2000/svg" viewBox="0 0 604.13 594.04"><defs><style>.cls-1{fill:#e5e9e9;}.cls-2{fill:#cdd4d4;}.cls-3{fill:#697f82;}.cls-4{fill:#fff;}.cls-5{fill:#5abfb6;}.cls-6{fill:#fbb03b;}.cls-7{fill:#ed4848;}.cls-8{fill:#074752;}</style></defs><title>Artboard 8</title><rect class="cls-1" x="9.46" y="9.46" width="585.21" height="575.12"/><rect class="cls-1" x="9.46" y="9.46" width="292.6" height="575.12"/><rect class="cls-2" x="9.46" y="9.46" width="292.6" height="575.12"/><rect class="cls-2" x="9.46" y="9.46" width="585.21" height="121.08"/><rect class="cls-3" x="9.46" y="9.46" width="292.6" height="121.08"/><path class="cls-4" d="M503.86,59.28h-111a9.46,9.46,0,1,1,0-18.92h111a9.46,9.46,0,1,1,0,18.92Z"/><path class="cls-4" d="M554.31,59.28H534.13a9.46,9.46,0,0,1,0-18.92h20.18a9.46,9.46,0,1,1,0,18.92Z"/><circle class="cls-5" cx="312.15" cy="70" r="30.27" transform="matrix(0.16, -0.99, 0.99, 0.16, 193.06, 366.91)"/><circle class="cls-6" cx="201.17" cy="70" r="30.27"/><circle class="cls-7" cx="90.18" cy="70" r="30.27"/><path class="cls-7" d="M170.89,463.5a18.85,18.85,0,0,1-12.61-4.82L62.43,372.92a18.93,18.93,0,0,1-.4-27.84l95.86-90.8a18.91,18.91,0,0,1,26,27.46L103,358.42l80.54,72.06a18.92,18.92,0,0,1-12.62,33Z"/><path class="cls-7" d="M433.24,463.5a18.87,18.87,0,0,0,12.61-4.82l95.85-85.76a18.93,18.93,0,0,0,.4-27.84l-95.86-90.8a18.91,18.91,0,1,0-26,27.46l80.93,76.68-80.54,72.06a18.92,18.92,0,0,0,12.63,33Z"/><path class="cls-7" d="M251.6,463.5a18.93,18.93,0,0,1-16.38-28.36l95.85-166.48a18.92,18.92,0,1,1,32.79,18.88L268,454A18.91,18.91,0,0,1,251.6,463.5Z"/><path class="cls-8" d="M594.67,0H9.46A9.45,9.45,0,0,0,0,9.46V584.58A9.46,9.46,0,0,0,9.46,594H594.67a9.47,9.47,0,0,0,9.46-9.46V9.46A9.46,9.46,0,0,0,594.67,0Zm-9.46,18.92V121.08H18.92V18.92ZM18.92,575.12V140H585.21V575.12Z"/><path class="cls-8" d="M312.15,109.73A39.73,39.73,0,1,0,272.43,70,39.78,39.78,0,0,0,312.15,109.73Zm0-60.54A20.81,20.81,0,1,1,291.34,70,20.83,20.83,0,0,1,312.15,49.19Z"/><path class="cls-8" d="M201.17,109.73A39.73,39.73,0,1,0,161.44,70,39.78,39.78,0,0,0,201.17,109.73Zm0-60.54A20.81,20.81,0,1,1,180.36,70,20.83,20.83,0,0,1,201.17,49.19Z"/><path class="cls-8" d="M90.18,109.73A39.73,39.73,0,1,0,50.45,70,39.78,39.78,0,0,0,90.18,109.73Zm0-60.54A20.81,20.81,0,1,1,69.37,70,20.83,20.83,0,0,1,90.18,49.19Z"/><path class="cls-8" d="M199.26,268.77a28.37,28.37,0,0,0-47.88-21.36l-95.85,90.8A28.38,28.38,0,0,0,56.12,380L152,465.73A28.37,28.37,0,0,0,170.89,473h0a28.38,28.38,0,0,0,18.93-49.53l-72.88-65.21,73.47-69.61A28.14,28.14,0,0,0,199.26,268.77Zm-21.86,6.1L96.46,351.55a9.47,9.47,0,0,0,.2,13.92l80.54,72.06a9.48,9.48,0,0,1,.75,13.36,9.46,9.46,0,0,1-13.36.74L68.73,365.86A9.45,9.45,0,0,1,68.54,352l95.85-90.81a9.38,9.38,0,0,1,6.5-2.59h.26a9.46,9.46,0,0,1,6.25,16.32Z"/><path class="cls-8" d="M548.6,338.21l-95.85-90.8a28.38,28.38,0,0,0-39,41.2l73.48,69.61-72.88,65.21A28.38,28.38,0,0,0,433.24,473h0a28.32,28.32,0,0,0,18.91-7.23L548,380a28.38,28.38,0,0,0,.59-41.75ZM538.54,359a9.45,9.45,0,0,1-3.15,6.92l-95.85,85.76a9.46,9.46,0,0,1-6.3,2.41h0a9.37,9.37,0,0,1-7.06-3.15,9.48,9.48,0,0,1,.74-13.36l80.54-72.06a9.47,9.47,0,0,0,.2-13.92l-80.93-76.68a9.46,9.46,0,0,1,13-13.73L535.59,352a9.47,9.47,0,0,1,2.95,7Z"/><path class="cls-8" d="M361.63,253.5h0a28.41,28.41,0,0,0-38.75,10.44L227,430.42a28.38,28.38,0,1,0,49.19,28.32l95.85-166.48a28.39,28.39,0,0,0-10.43-38.76Zm-6,29.32L259.81,449.3A9.5,9.5,0,0,1,251.6,454a9.32,9.32,0,0,1-4.71-1.26,9.46,9.46,0,0,1-3.47-12.92l95.85-166.48a9.47,9.47,0,0,1,12.92-3.48,9.48,9.48,0,0,1,3.48,12.92Z"/></svg>