<svg id="Layer_1" data-name="Layer 1" xmlns="http://www.w3.org/2000/svg" viewBox="0 0 239.58 239.58"><defs><style>.cls-1{fill:#074752;}</style></defs><title>Artboard 26</title><path class="cls-1" d="M119.79,0A119.79,119.79,0,1,0,239.58,119.79,119.79,119.79,0,0,0,119.79,0Zm0,182a61.91,61.91,0,0,1-35.24-11l-21.38,6.15,5.46-22A62.2,62.2,0,1,1,119.79,182Z"/><path class="cls-1" d="M152.73,135.29c-2.33-1.34-4.39-2.59-7-3.89-2.29-1.13-4.94-2.8-7.58-2.08-1.94.54-3.33,2.31-4.65,3.71-1.71,1.83-3.46,3.61-5.19,5.42,0,0-22.34-8.2-28.27-24.88.86-1,1.74-2,2.6-3,1.46-1.69,3.64-3.33,3.76-5.77A17.15,17.15,0,0,0,104.8,98c-.53-1.37-1.07-2.73-1.6-4.1-1-2.49-2.17-6-3.54-7.44a6.66,6.66,0,0,0-7.58-1.19S77.38,92.36,81.9,106.5c0,0,8.77,39.86,52.87,48.06,0,0,15.83,2.27,20.08-7.35a17.09,17.09,0,0,0,1.38-7.25C156.08,137.77,154.53,136.32,152.73,135.29Z"/></svg>