<svg id="Layer_1" data-name="Layer 1" xmlns="http://www.w3.org/2000/svg" viewBox="0 0 302 302"><defs><style>.cls-1{fill:#074752;}.cls-2{fill:#fff;}.cls-3{fill:#5abfb6;}.cls-4{fill:#ed4848;}.cls-5{fill:#fbb03b;}.cls-6{fill:#155763;}</style></defs><title>Artboard 17</title><circle class="cls-1" cx="151" cy="151" r="151"/><path class="cls-2" d="M44.13,44.13H257.87V223.4H44.13Z"/><path class="cls-3" d="M44.13,44.13H257.87V71.71H44.13Z"/><path class="cls-4" d="M140.66,244.08h20.68v13.79H140.66Z"/><path class="cls-4" d="M182,244.08h20.68v13.79H182Z"/><path class="cls-4" d="M57.92,244.08H78.6v13.79H57.92Z"/><path class="cls-4" d="M99.29,244.08H120v13.79H99.29Z"/><path class="cls-4" d="M223.4,244.08h20.68v13.79H223.4Z"/><path class="cls-4" d="M140.66,216.5h20.68v13.79H140.66Z"/><path class="cls-4" d="M182,216.5h20.68v13.79H182Z"/><path class="cls-4" d="M57.92,216.5H78.6v13.79H57.92Z"/><path class="cls-4" d="M99.29,216.5H120v13.79H99.29Z"/><path class="cls-4" d="M223.4,216.5h20.68v13.79H223.4Z"/><path class="cls-4" d="M182,188.92h20.68v13.79H182Z"/><path class="cls-4" d="M99.29,188.92H120v13.79H99.29Z"/><path class="cls-4" d="M223.4,188.92h20.68v13.79H223.4Z"/><path class="cls-4" d="M223.4,161.34h20.68v13.79H223.4Z"/><path class="cls-4" d="M182,161.34h20.68v13.79H182Z"/><path class="cls-4" d="M223.4,133.76h20.68v13.79H223.4Z"/><path class="cls-4" d="M75.16,175.13a6.9,6.9,0,1,1-6.9-6.89A6.9,6.9,0,0,1,75.16,175.13Z"/><path class="cls-4" d="M116.53,147.55a6.9,6.9,0,1,1-6.9-6.89A6.9,6.9,0,0,1,116.53,147.55Z"/><path class="cls-4" d="M157.89,175.13a6.89,6.89,0,1,1-6.89-6.89A6.89,6.89,0,0,1,157.89,175.13Z"/><path class="cls-4" d="M199.26,120a6.9,6.9,0,1,1-6.89-6.89A6.89,6.89,0,0,1,199.26,120Z"/><path class="cls-4" d="M240.63,92.39a6.9,6.9,0,1,1-6.89-6.89A6.89,6.89,0,0,1,240.63,92.39Z"/><path class="cls-2" d="M109.63,54.47h137.9v6.9H109.63Z"/><path class="cls-2" d="M54.47,54.47h6.9v6.9h-6.9Z"/><path class="cls-2" d="M68.26,54.47h6.9v6.9h-6.9Z"/><path class="cls-2" d="M82.05,54.47H89v6.9h-6.9Z"/><path class="cls-5" d="M61.37,75.16h6.89v82.73H61.37Z"/><path class="cls-5" d="M75.16,75.16h6.89V151H75.16Z"/><path class="cls-5" d="M89,75.16h6.89v62.05H89Z"/><path class="cls-5" d="M102.74,75.16h6.89v55.16h-6.89Z"/><path class="cls-5" d="M116.53,75.16h6.89v55.16h-6.89Z"/><path class="cls-5" d="M130.32,75.16h6.89v72.39h-6.89Z"/><path class="cls-5" d="M144.11,75.16H151v82.73h-6.89Z"/><path class="cls-5" d="M157.89,75.16h6.9v65.5h-6.9Z"/><path class="cls-5" d="M171.68,75.16h6.9v34.47h-6.9Z"/><path class="cls-5" d="M185.47,75.16h6.9v27.58h-6.9Z"/><path class="cls-5" d="M199.26,75.16h6.9V99.29h-6.9Z"/><path class="cls-5" d="M213.05,75.16H220V89h-6.9Z"/><path class="cls-6" d="M40.68,40.68V226.84H54.47v6.9H82.05V213.05H54.47V220H47.58V75.16H254.42V220h-6.89v-6.9H220v20.69h27.58v-6.9h13.79V40.68ZM61.37,220H75.16v6.89H61.37Zm179.26,6.89H226.84V220h13.79ZM254.42,68.26H47.58V47.58H254.42Z"/><path class="cls-6" d="M137.21,261.32h27.58V240.63H137.21Zm6.9-13.79h13.78v6.89H144.11Z"/><path class="cls-6" d="M178.58,261.32h27.58V240.63H178.58Zm6.89-13.79h13.79v6.89H185.47Z"/><path class="cls-6" d="M54.47,261.32H82.05V240.63H54.47Zm6.9-13.79H75.16v6.89H61.37Z"/><path class="cls-6" d="M95.84,261.32h27.58V240.63H95.84Zm6.9-13.79h13.79v6.89H102.74Z"/><path class="cls-6" d="M220,261.32h27.58V240.63H220Zm6.89-13.79h13.79v6.89H226.84Z"/><path class="cls-6" d="M137.21,233.74h27.58V213.05H137.21Zm6.9-13.79h13.78v6.89H144.11Z"/><path class="cls-6" d="M178.58,233.74h27.58V213.05H178.58ZM185.47,220h13.79v6.89H185.47Z"/><path class="cls-6" d="M95.84,233.74h27.58V213.05H95.84Zm6.9-13.79h13.79v6.89H102.74Z"/><path class="cls-6" d="M178.58,206.16h27.58V185.47H178.58Zm6.89-13.79h13.79v6.89H185.47Z"/><path class="cls-6" d="M95.84,206.16h27.58V185.47H95.84Zm6.9-13.79h13.79v6.89H102.74Z"/><path class="cls-6" d="M220,206.16h27.58V185.47H220Zm6.89-13.79h13.79v6.89H226.84Z"/><path class="cls-6" d="M247.53,157.89H220v20.69h27.58Zm-6.9,13.79H226.84v-6.89h13.79Z"/><path class="cls-6" d="M178.58,178.58h27.58V157.89H178.58Zm6.89-13.79h13.79v6.89H185.47Z"/><path class="cls-6" d="M247.53,130.32H220V151h27.58Zm-6.9,13.79H226.84v-6.9h13.79Z"/><path class="cls-6" d="M109.63,157.89a10.15,10.15,0,0,0,6.16-2.08L141,172.61a10.2,10.2,0,0,0-.34,2.52,10.34,10.34,0,1,0,18.94-5.72l29.71-39.61a10.23,10.23,0,0,0,13.06-12.35l25.21-16.8a10.52,10.52,0,1,0-3.84-5.74l-25.21,16.81a10.22,10.22,0,0,0-6.16-2.09,10.34,10.34,0,0,0-8.6,16.07l-29.71,39.61a9.86,9.86,0,0,0-9.22,1.57l-25.21-16.81a10.2,10.2,0,0,0,.34-2.52,10.34,10.34,0,0,0-20.68,0,10.2,10.2,0,0,0,.34,2.52l-25.2,16.81a10.21,10.21,0,0,0-6.17-2.09A10.34,10.34,0,1,0,78.6,175.13a10.2,10.2,0,0,0-.34-2.52l25.21-16.8A10.21,10.21,0,0,0,109.63,157.89ZM233.74,89a3.45,3.45,0,1,1-3.45,3.44A3.45,3.45,0,0,1,233.74,89Zm-41.37,27.58a3.45,3.45,0,1,1-3.45,3.44A3.45,3.45,0,0,1,192.37,116.53ZM151,171.68a3.45,3.45,0,1,1-3.45,3.45A3.46,3.46,0,0,1,151,171.68Zm-41.37-27.57a3.45,3.45,0,1,1-3.45,3.44A3.45,3.45,0,0,1,109.63,144.11ZM68.26,178.58a3.45,3.45,0,1,1,3.45-3.45A3.45,3.45,0,0,1,68.26,178.58Z"/></svg>