<svg id="Layer_1" data-name="Layer 1" xmlns="http://www.w3.org/2000/svg" viewBox="0 0 302 302"><defs><style>.cls-1{fill:#074752;}.cls-2{fill:#dd352e;}.cls-3{fill:#e7eced;}.cls-4{fill:#5abfb6;}.cls-5{fill:#ed4848;}.cls-6{fill:#afb6bb;}.cls-7{fill:#fbb03b;}.cls-8{fill:#fff;}.cls-9{fill:#155763;}</style></defs><title>Artboard 12</title><circle class="cls-1" cx="151" cy="151" r="151"/><path class="cls-2" d="M207.53,76.8H94.47L66.2,105.07V119.2a14.14,14.14,0,0,0,28.27,0,14.13,14.13,0,0,0,28.26,0,14.14,14.14,0,0,0,28.27,0,14.14,14.14,0,0,0,28.27,0,14.13,14.13,0,0,0,28.26,0,14.14,14.14,0,0,0,28.27,0V105.07Z"/><path class="cls-3" d="M132.16,83.87h75.37V57.77a9.24,9.24,0,0,0-9.24-9.24H103.71a9.24,9.24,0,0,0-9.24,9.24v26.1Z"/><path class="cls-3" d="M193.4,126.27a14.14,14.14,0,0,1-14.13-14.14,14.14,14.14,0,1,1-28.27,0,14.14,14.14,0,1,1-28.27,0,14.13,14.13,0,1,1-28.26,0v132.1a9.24,9.24,0,0,0,9.24,9.24H198.3a9.24,9.24,0,0,0,9.23-9.24V112.13A14.14,14.14,0,0,1,193.4,126.27Z"/><path class="cls-4" d="M80.33,133.33A14.13,14.13,0,0,1,66.2,119.2V105.07H94.47V119.2A14.13,14.13,0,0,1,80.33,133.33Z"/><path class="cls-5" d="M108.6,133.33A14.13,14.13,0,0,1,94.47,119.2V105.07h28.26V119.2A14.12,14.12,0,0,1,108.6,133.33Z"/><path class="cls-4" d="M136.87,133.33a14.13,14.13,0,0,1-14.14-14.13V105.07H151V119.2A14.13,14.13,0,0,1,136.87,133.33Z"/><path class="cls-5" d="M165.13,133.33A14.13,14.13,0,0,1,151,119.2V105.07h28.27V119.2A14.13,14.13,0,0,1,165.13,133.33Z"/><path class="cls-4" d="M193.4,133.33a14.13,14.13,0,0,1-14.13-14.13V105.07h28.26V119.2A14.13,14.13,0,0,1,193.4,133.33Z"/><path class="cls-5" d="M221.67,133.33a14.13,14.13,0,0,1-14.14-14.13V105.07H235.8V119.2A14.13,14.13,0,0,1,221.67,133.33Z"/><path class="cls-4" d="M94.47,105.07H66.2L94.47,76.8h18.84Z"/><path class="cls-5" d="M122.73,105.07H94.47L113.31,76.8h18.85Z"/><path class="cls-4" d="M151,105.07H122.73l9.43-28.27H151Z"/><path class="cls-5" d="M179.27,105.07H151V76.8h18.84Z"/><path class="cls-4" d="M207.53,105.07H179.27L169.84,76.8h18.85Z"/><path class="cls-5" d="M235.8,105.07H207.53L188.69,76.8h18.84Z"/><path class="cls-6" d="M155.39,242.87h-8.78a6.21,6.21,0,0,1-6.21-6.22v-1.71a6.21,6.21,0,0,1,6.22-6.21h8.77A6.21,6.21,0,0,1,161.6,235v1.7A6.21,6.21,0,0,1,155.39,242.87Z"/><path class="cls-7" d="M108.6,147.47h84.8v70.66H108.6Z"/><path class="cls-5" d="M129.8,175.73h28.27V204H129.8Z"/><path class="cls-4" d="M158.07,175.73H172.2V204H158.07Z"/><path class="cls-8" d="M151,175.73H136.87v-7.06a7.07,7.07,0,1,1,14.13,0Z"/><path class="cls-3" d="M165.13,175.73H151v-7.06a7.07,7.07,0,1,1,14.13,0Z"/><path class="cls-9" d="M168.67,66.2H133.33a3.54,3.54,0,0,1,0-7.07h35.34a3.54,3.54,0,0,1,0,7.07Z"/><path class="cls-9" d="M193.4,66.2h-3.53a3.54,3.54,0,1,1,0-7.07h3.53a3.54,3.54,0,0,1,0,7.07Z"/><path class="cls-9" d="M155.39,246.4h-8.78a9.75,9.75,0,0,1-9.74-9.75V235a9.76,9.76,0,0,1,9.75-9.75h8.77a9.75,9.75,0,0,1,9.74,9.75v1.7A9.75,9.75,0,0,1,155.39,246.4Zm-8.77-14.13a2.68,2.68,0,0,0-2.69,2.68v1.7a2.68,2.68,0,0,0,2.69,2.68h8.77a2.68,2.68,0,0,0,2.68-2.68V235a2.68,2.68,0,0,0-2.68-2.68Z"/><path class="cls-9" d="M80.33,136.87A17.69,17.69,0,0,1,62.67,119.2V105.07a3.53,3.53,0,0,1,3.53-3.54H94.47A3.53,3.53,0,0,1,98,105.07V119.2A17.69,17.69,0,0,1,80.33,136.87ZM69.73,108.6v10.6a10.6,10.6,0,0,0,21.2,0V108.6Z"/><path class="cls-9" d="M108.6,136.87A17.69,17.69,0,0,1,90.93,119.2V105.07a3.54,3.54,0,0,1,3.54-3.54h28.26a3.54,3.54,0,0,1,3.54,3.54V119.2A17.69,17.69,0,0,1,108.6,136.87ZM98,108.6v10.6a10.6,10.6,0,0,0,21.2,0V108.6Z"/><path class="cls-9" d="M136.87,136.87A17.69,17.69,0,0,1,119.2,119.2V105.07a3.53,3.53,0,0,1,3.53-3.54H151a3.53,3.53,0,0,1,3.53,3.54V119.2A17.69,17.69,0,0,1,136.87,136.87Zm-10.6-28.27v10.6a10.6,10.6,0,1,0,21.2,0V108.6Z"/><path class="cls-9" d="M165.13,136.87a17.69,17.69,0,0,1-17.66-17.67V105.07a3.53,3.53,0,0,1,3.53-3.54h28.27a3.53,3.53,0,0,1,3.53,3.54V119.2A17.69,17.69,0,0,1,165.13,136.87Zm-10.6-28.27v10.6a10.6,10.6,0,1,0,21.2,0V108.6Z"/><path class="cls-9" d="M193.4,136.87a17.69,17.69,0,0,1-17.67-17.67V105.07a3.54,3.54,0,0,1,3.54-3.54h28.26a3.54,3.54,0,0,1,3.54,3.54V119.2A17.69,17.69,0,0,1,193.4,136.87ZM182.8,108.6v10.6a10.6,10.6,0,1,0,21.2,0V108.6Z"/><path class="cls-9" d="M221.67,136.87A17.69,17.69,0,0,1,204,119.2V105.07a3.53,3.53,0,0,1,3.53-3.54H235.8a3.53,3.53,0,0,1,3.53,3.54V119.2A17.69,17.69,0,0,1,221.67,136.87Zm-10.6-28.27v10.6a10.6,10.6,0,0,0,21.2,0V108.6Z"/><path class="cls-9" d="M94.47,108.6H66.2a3.54,3.54,0,0,1-2.5-6L92,74.3a3.53,3.53,0,0,1,2.5-1h18.84a3.53,3.53,0,0,1,2.94,5.49L97.41,107A3.53,3.53,0,0,1,94.47,108.6Zm-19.74-7.07H92.58l14.13-21.2H95.93Z"/><path class="cls-9" d="M122.73,108.6H94.47a3.53,3.53,0,0,1-2.94-5.49l18.84-28.27a3.55,3.55,0,0,1,2.94-1.57h18.84a3.52,3.52,0,0,1,3.35,4.65l-9.42,28.26A3.52,3.52,0,0,1,122.73,108.6Zm-21.66-7.07h19.12l7.06-21.2h-12Z"/><path class="cls-9" d="M151,108.6H122.73a3.54,3.54,0,0,1-3.35-4.65l9.43-28.27a3.51,3.51,0,0,1,3.35-2.41H151a3.53,3.53,0,0,1,3.53,3.53v28.27A3.53,3.53,0,0,1,151,108.6Zm-23.37-7.07h19.84V80.33H134.7Z"/><path class="cls-9" d="M179.27,108.6H151a3.53,3.53,0,0,1-3.53-3.53V76.8A3.53,3.53,0,0,1,151,73.27h18.84a3.55,3.55,0,0,1,3.36,2.41L182.62,104a3.53,3.53,0,0,1-3.35,4.65Zm-24.74-7.07h19.84l-7.07-21.2H154.53Z"/><path class="cls-9" d="M207.53,108.6H179.27a3.55,3.55,0,0,1-3.36-2.42l-9.42-28.26a3.52,3.52,0,0,1,3.35-4.65h18.85a3.55,3.55,0,0,1,2.94,1.57l18.84,28.27a3.53,3.53,0,0,1-2.94,5.49Zm-25.72-7.07h19.12L186.8,80.33H174.75Z"/><path class="cls-9" d="M235.8,108.6H207.53a3.55,3.55,0,0,1-2.94-1.57L185.75,78.76a3.53,3.53,0,0,1,2.94-5.49h18.84a3.53,3.53,0,0,1,2.5,1l28.27,28.27a3.54,3.54,0,0,1-2.5,6Zm-26.38-7.07h17.85l-21.2-21.2H195.29Z"/><path class="cls-9" d="M211.07,80.33H90.93V57.77A12.79,12.79,0,0,1,103.71,45H198.3a12.79,12.79,0,0,1,12.77,12.77ZM98,73.27H204V57.77a5.71,5.71,0,0,0-5.71-5.7H103.71A5.71,5.71,0,0,0,98,57.77Z"/><path class="cls-9" d="M198.29,257H103.71a12.79,12.79,0,0,1-12.78-12.77v-125H98a10.6,10.6,0,0,0,21.2,0h7.07a10.6,10.6,0,1,0,21.2,0h7.06a10.6,10.6,0,1,0,21.2,0h7.07a10.6,10.6,0,1,0,21.2,0h7.07v125A12.79,12.79,0,0,1,198.29,257ZM98,133.33v110.9a5.71,5.71,0,0,0,5.71,5.7H198.3a5.71,5.71,0,0,0,5.7-5.7V133.33a17.64,17.64,0,0,1-24.73-3.54,17.65,17.65,0,0,1-28.27,0,17.65,17.65,0,0,1-28.27,0A17.64,17.64,0,0,1,98,133.33Z"/><path class="cls-9" d="M193.4,221.67H108.6a3.53,3.53,0,0,1-3.53-3.54V147.47a3.53,3.53,0,0,1,3.53-3.54h84.8a3.53,3.53,0,0,1,3.53,3.54v70.66A3.53,3.53,0,0,1,193.4,221.67Zm-81.27-7.07h77.74V151H112.13Z"/><path class="cls-9" d="M158.07,207.53H129.8a3.53,3.53,0,0,1-3.53-3.53V175.73a3.53,3.53,0,0,1,3.53-3.53h28.27a3.53,3.53,0,0,1,3.53,3.53V204A3.53,3.53,0,0,1,158.07,207.53Zm-24.74-7.06h21.2v-21.2h-21.2Z"/><path class="cls-9" d="M172.2,207.53H158.07a3.54,3.54,0,0,1-3.54-3.53V175.73a3.54,3.54,0,0,1,3.54-3.53H172.2a3.53,3.53,0,0,1,3.53,3.53V204A3.53,3.53,0,0,1,172.2,207.53Zm-10.6-7.06h7.07v-21.2H161.6Z"/><path class="cls-9" d="M151,179.27H136.87a3.54,3.54,0,0,1-3.54-3.54v-7.06a10.6,10.6,0,0,1,21.2,0v7.06A3.53,3.53,0,0,1,151,179.27Zm-10.6-7.07h7.07v-3.53a3.54,3.54,0,1,0-7.07,0Z"/><path class="cls-9" d="M165.13,179.27H151a3.53,3.53,0,0,1-3.53-3.54v-7.06a10.6,10.6,0,0,1,21.2,0v7.06A3.54,3.54,0,0,1,165.13,179.27Zm-10.6-7.07h7.07v-3.53a3.54,3.54,0,1,0-7.07,0Z"/></svg>