<svg id="Layer_1" data-name="Layer 1" xmlns="http://www.w3.org/2000/svg" viewBox="0 0 302 302"><defs><style>.cls-1{fill:#074752;}.cls-2{fill:#5abfb6;}.cls-3{fill:#d8d8d8;}.cls-4{fill:#afafaf;}.cls-5{fill:#fbb03b;}.cls-6{fill:#e2b061;}.cls-7{fill:#fafeff;}.cls-8{fill:#ed4848;}.cls-9{fill:#d16346;}.cls-10{fill:#155763;}</style></defs><title>Artboard 11</title><circle class="cls-1" cx="151" cy="151" r="151"/><path class="cls-2" d="M122.57,43.58h44.16a9.92,9.92,0,0,1,9.67,7.71l2.21,9.65v3.55h-56Z"/><path class="cls-2" d="M78.6,43.58h48.46a9.93,9.93,0,0,1,9.67,7.71l2.2,9.65v3.55H78.6Z"/><path class="cls-3" d="M27.76,85.73V53.5a9.92,9.92,0,0,1,9.92-9.92H83.33A9.92,9.92,0,0,1,93,51.29l2.21,9.65H264.32a9.92,9.92,0,0,1,9.92,9.91V85.73Z"/><path class="cls-4" d="M274.24,70.85V85.73H259.36V70.85a9.91,9.91,0,0,0-9.92-9.91h14.88A9.91,9.91,0,0,1,274.24,70.85Z"/><path class="cls-5" d="M264.32,237a9.92,9.92,0,0,0,9.92-9.92V78.29H27.76V227.07A9.92,9.92,0,0,0,37.68,237Z"/><path class="cls-6" d="M274.24,78.29V227.07a9.92,9.92,0,0,1-9.92,9.92H250a9.93,9.93,0,0,0,9.41-9.91V78.31Z"/><path class="cls-7" d="M256.88,222.11a2.62,2.62,0,0,0,2.48-2.75V81.67a2.63,2.63,0,0,0-2.48-2.76H45.12a2.63,2.63,0,0,0-2.48,2.76V219.36a2.62,2.62,0,0,0,2.48,2.75Z"/><path class="cls-8" d="M215.25,110.53v29.75H142.82a2.48,2.48,0,0,1-2.48-2.48V113a2.48,2.48,0,0,1,2.48-2.48Z"/><path class="cls-8" d="M239,113V137.8a2.48,2.48,0,0,1-2.48,2.48H210.29V110.53h26.26A2.48,2.48,0,0,1,239,113Z"/><path class="cls-2" d="M215.25,184.92H142.82a2.48,2.48,0,0,1-2.48-2.48v-24.8a2.48,2.48,0,0,1,2.48-2.48h72.43Z"/><path class="cls-2" d="M239,157.64v24.8a2.48,2.48,0,0,1-2.48,2.48H210.29V155.16h26.26A2.48,2.48,0,0,1,239,157.64Z"/><path class="cls-5" d="M215.72,279.14H177a7.93,7.93,0,0,1-7.94-7.93V257.82h54.55v13.39A7.93,7.93,0,0,1,215.72,279.14Z"/><path class="cls-9" d="M223.65,262.46v8.75a7.93,7.93,0,0,1-7.93,7.93H200.84a7.93,7.93,0,0,0,7.93-7.93v-8.43h12.4A9.69,9.69,0,0,0,223.65,262.46Z"/><path class="cls-4" d="M161.66,254.34l-7.65-3a14.89,14.89,0,0,1-9.46-13.86V216.82a8.56,8.56,0,1,1,17.11,0c0,5.83,6.45,17.44,6.45,17.44Z"/><path class="cls-3" d="M222.25,206.24a8.68,8.68,0,0,0-8.52,8.68,8.68,8.68,0,1,0-17.35,0,8.68,8.68,0,0,0-17.36,0V178a8.86,8.86,0,0,0-8.85-8.9,8.68,8.68,0,0,0-8.51,8.68v75.13a9.92,9.92,0,0,0,9.92,9.92h49.59a9.92,9.92,0,0,0,9.92-9.92V215.15A8.86,8.86,0,0,0,222.25,206.24Z"/><path class="cls-4" d="M231.09,215.15v37.71a9.91,9.91,0,0,1-7.44,9.6,9.69,9.69,0,0,1-2.48.32h-12.4v-.32a9.91,9.91,0,0,0,7.44-9.6V215.15a8.92,8.92,0,0,0-1.29-4.62,8.7,8.7,0,0,1,7.33-4.29A8.86,8.86,0,0,1,231.09,215.15Z"/><path class="cls-10" d="M264.32,57.22H181.57L180,50.46a13.58,13.58,0,0,0-13.3-10.6h-129A13.66,13.66,0,0,0,24,53.5V227.07a13.66,13.66,0,0,0,13.64,13.64H141.12a18.45,18.45,0,0,0,11.53,14.1l6,2.35a13.71,13.71,0,0,0,6.74,7.84v6.21A11.67,11.67,0,0,0,177,282.86h38.68a11.67,11.67,0,0,0,11.65-11.65V265a13.65,13.65,0,0,0,7.44-12.14v-27h22.07a6.21,6.21,0,0,0,6.2-6.2V82h7.44V227.07a6.21,6.21,0,0,1-6.2,6.2H248.45a3.72,3.72,0,0,0,0,7.44h15.87A13.66,13.66,0,0,0,278,227.07V70.85A13.65,13.65,0,0,0,264.32,57.22Zm-91.55-5.1,1.17,5.1h-32l-1.55-6.76a13.36,13.36,0,0,0-1.14-3.16h27.52A6.16,6.16,0,0,1,172.77,52.12ZM127.06,47.3a6.16,6.16,0,0,1,6,4.82l1.17,5.1H98.18l-1.55-6.76a13.84,13.84,0,0,0-1.15-3.16Zm-89.38,0H83.33a6.18,6.18,0,0,1,6,4.82l2.2,9.65a3.73,3.73,0,0,0,3.63,2.89H264.32a6.2,6.2,0,0,1,6.2,6.19v3.72h-239V53.5A6.21,6.21,0,0,1,37.68,47.3ZM148.27,237.49V216.82a4.84,4.84,0,1,1,9.67,0V248.9l-2.58-1A11.11,11.11,0,0,1,148.27,237.49Zm87-78.61V181.2H214V158.88ZM206.57,181.2H182.74V178a12.79,12.79,0,0,0-3.83-9.07,12.16,12.16,0,0,0-8.81-3.55,12.46,12.46,0,0,0-12.16,12.4v3.47H144.06V158.88h62.51Zm9.15,94.22H177a4.22,4.22,0,0,1-4.22-4.21v-4.72h47.11v4.72A4.22,4.22,0,0,1,215.72,275.42Zm11.65-22.56a6.21,6.21,0,0,1-6.2,6.2H171.58a6.21,6.21,0,0,1-6.2-6.2V177.73a5,5,0,0,1,4.87-5h.08a4.82,4.82,0,0,1,3.37,1.41,5.31,5.31,0,0,1,1.6,3.77v45.9a3.72,3.72,0,0,0,7.44,0v-8.93a5,5,0,0,1,9.92,0v8.93a3.72,3.72,0,0,0,7.44,0v-8.93a5,5,0,1,1,9.91,0v8.93a3.72,3.72,0,0,0,7.44,0v-8.93a5,5,0,0,1,4.87-5,4.78,4.78,0,0,1,3.46,1.42,5.32,5.32,0,0,1,1.59,3.77v37.71Zm28.27-34.47H234.81v-3.24a12.79,12.79,0,0,0-3.82-9.08,12.18,12.18,0,0,0-8.81-3.55,12.33,12.33,0,0,0-8.43,3.57,12.37,12.37,0,0,0-17.37,0,12.4,12.4,0,0,0-8.68-3.55,12.27,12.27,0,0,0-5,1V188.64h53.81a6.2,6.2,0,0,0,6.19-6.2v-24.8a6.2,6.2,0,0,0-6.19-6.2H142.82a6.21,6.21,0,0,0-6.2,6.2v24.8a6.21,6.21,0,0,0,6.2,6.2h15.12v16.89a12.3,12.3,0,0,0-4.83-1h-.06a12.3,12.3,0,0,0-12.22,12.27v1.57H46.36V80.65a3.72,3.72,0,0,0-7.44,0v139a6.21,6.21,0,0,0,6.2,6.2h95.71v7.44H37.68a6.21,6.21,0,0,1-6.2-6.2V82H255.64Z"/><path class="cls-10" d="M142.82,144h93.73a6.2,6.2,0,0,0,6.19-6.2V113a6.2,6.2,0,0,0-6.19-6.2H142.82a6.21,6.21,0,0,0-6.2,6.2V137.8A6.21,6.21,0,0,0,142.82,144Zm92.49-7.44H214V114.25h21.3Zm-91.25-22.31h62.51v22.31H144.06Z"/><path class="cls-10" d="M62.73,114.25h55.54a3.72,3.72,0,1,0,0-7.44H62.73a3.72,3.72,0,1,0,0,7.44Z"/><path class="cls-10" d="M62.73,129.13h55.54a3.72,3.72,0,1,0,0-7.44H62.73a3.72,3.72,0,1,0,0,7.44Z"/><path class="cls-10" d="M62.73,144h38.68a3.72,3.72,0,0,0,0-7.44H62.73a3.72,3.72,0,1,0,0,7.44Z"/><path class="cls-10" d="M62.73,158.88h55.54a3.72,3.72,0,1,0,0-7.44H62.73a3.72,3.72,0,1,0,0,7.44Z"/><path class="cls-10" d="M62.73,173.76h38.68a3.72,3.72,0,0,0,0-7.44H62.73a3.72,3.72,0,1,0,0,7.44Z"/><path class="cls-10" d="M62.73,188.14h23.8a3.72,3.72,0,0,0,0-7.44H62.73a3.72,3.72,0,1,0,0,7.44Z"/><path class="cls-10" d="M48.34,64.66h25.3a3.72,3.72,0,0,0,0-7.44H48.34a3.72,3.72,0,0,0,0,7.44Z"/></svg>