<svg id="Layer_1" data-name="Layer 1" xmlns="http://www.w3.org/2000/svg" viewBox="0 0 302 302"><defs><style>.cls-1{fill:#074752;}.cls-2{fill:#fff;}.cls-3{fill:#155763;}.cls-4{fill:#ed4848;}.cls-5{fill:#5abfb6;}.cls-6{fill:#e6e6e6;}.cls-7{fill:#fbb03b;}</style></defs><title>Artboard 16</title><circle class="cls-1" cx="151" cy="151" r="151"/><path class="cls-2" d="M68.34,234.3a19.24,19.24,0,0,1-19.22-19.22V62.91A19.24,19.24,0,0,1,68.34,43.69H207.68a19.24,19.24,0,0,1,19.21,19.22V223.78a10.53,10.53,0,0,1-10.52,10.52Z"/><path class="cls-3" d="M207.68,47.69a15.23,15.23,0,0,1,15.21,15.22V223.78a6.52,6.52,0,0,1-6.52,6.52h-148a15.23,15.23,0,0,1-15.22-15.22V62.91A15.23,15.23,0,0,1,68.34,47.69H207.68m0-8H68.34A23.24,23.24,0,0,0,45.12,62.91V215.08A23.24,23.24,0,0,0,68.34,238.3h148a14.53,14.53,0,0,0,14.52-14.52V62.91a23.24,23.24,0,0,0-23.21-23.22Z"/><path class="cls-4" d="M125.06,112.91H85.93a6.52,6.52,0,0,1-6.52-6.52V80.3a6.52,6.52,0,0,1,6.52-6.52h39.13a6.51,6.51,0,0,1,6.52,6.52v26.09A6.51,6.51,0,0,1,125.06,112.91Z"/><path class="cls-5" d="M190.28,86.82H151.15a6.52,6.52,0,0,1,0-13h39.13a6.52,6.52,0,1,1,0,13Z"/><path class="cls-5" d="M190.28,112.91H151.15a6.53,6.53,0,0,1,0-13h39.13a6.53,6.53,0,1,1,0,13Z"/><path class="cls-5" d="M190.28,139H85.93a6.53,6.53,0,0,1,0-13H190.28a6.53,6.53,0,1,1,0,13Z"/><path class="cls-1" d="M112,165.08H85.93a6.52,6.52,0,0,1,0-13H112a6.52,6.52,0,1,1,0,13Z"/><path class="cls-1" d="M112,191.17H85.93a6.52,6.52,0,0,1,0-13H112a6.52,6.52,0,1,1,0,13Z"/><path class="cls-6" d="M164.15,274.31a10.57,10.57,0,0,1-10.58-10.53V247.35H142.35a14.89,14.89,0,0,1-14.87-14.87V162.91A14.89,14.89,0,0,1,142.35,148H238a14.89,14.89,0,0,1,14.87,14.87v69.57A14.89,14.89,0,0,1,238,247.35H193.49L171.84,270.9A10.34,10.34,0,0,1,164.15,274.31Z"/><path class="cls-3" d="M238,152a10.89,10.89,0,0,1,10.87,10.87v69.57A10.89,10.89,0,0,1,238,243.35H191.73L168.9,268.2a6.38,6.38,0,0,1-4.75,2.11,6.51,6.51,0,0,1-6.58-6.53V243.35H142.35a10.89,10.89,0,0,1-10.87-10.87V162.91A10.89,10.89,0,0,1,142.35,152H238m0-8H142.35a18.89,18.89,0,0,0-18.87,18.87v69.57a18.9,18.9,0,0,0,18.87,18.87h7.22v12.43a14.57,14.57,0,0,0,14.58,14.53,14.33,14.33,0,0,0,10.64-4.7l20.46-22.26H238a18.89,18.89,0,0,0,18.87-18.87V162.91A18.88,18.88,0,0,0,238,144Z"/><path class="cls-4" d="M202,214.65H164.2a6.52,6.52,0,1,1,0-13H202a6.52,6.52,0,1,1,0,13Z"/><path class="cls-7" d="M216.37,188.56H164.2a6.52,6.52,0,1,1,0-13h52.17a6.52,6.52,0,1,1,0,13Z"/></svg>