<svg id="Layer_1" data-name="Layer 1" xmlns="http://www.w3.org/2000/svg" viewBox="0 0 302 302"><defs><style>.cls-1{fill:#074752;}.cls-2{fill:#fff5f5;}.cls-3{fill:#fbb03b;}.cls-4{fill:#ffa304;}.cls-5{fill:#5abfb6;}.cls-6{fill:#ed4848;}.cls-7{fill:#ffc89f;}.cls-8{fill:#f7b081;}.cls-9{fill:#c6c5ca;}.cls-10{fill:#3c5156;}.cls-11{fill:#155763;}</style></defs><title>Artboard 19</title><circle class="cls-1" cx="151" cy="151" r="151"/><path class="cls-2" d="M44.55,89.29s.31,111.27,0,123.21a21.16,21.16,0,0,0,21.16,20.58H171.87l70.45-70.45V89.29Z"/><path class="cls-3" d="M147.84,257.11H257.46V147.49Zm86.35-22.82H199l35.19-35.19Z"/><polygon class="cls-4" points="246.73 158.22 246.73 257.11 257.46 257.11 257.46 147.49 246.73 158.22"/><path class="cls-5" d="M233,56.83l-10-10a6.59,6.59,0,0,0-9.33,0L205,55.48l19.34,19.33,8.65-8.65A6.6,6.6,0,0,0,233,56.83Z"/><rect class="cls-6" x="201.99" y="56.7" width="14.79" height="27.35" transform="translate(11.57 168.67) rotate(-45)"/><polygon class="cls-7" points="112.72 167.04 142.58 156.5 123.26 137.19 112.72 167.04"/><polygon class="cls-8" points="136.16 150.08 116.23 157.11 112.72 167.04 142.58 156.5 136.16 150.08"/><rect class="cls-3" x="118.19" y="97.55" width="100.71" height="27.35" transform="translate(-29.28 151.76) rotate(-45)"/><rect class="cls-4" x="124.64" y="113.11" width="100.71" height="9.1" transform="translate(-31.95 158.21) rotate(-45)"/><path class="cls-5" d="M66.64,191V54.22a22.09,22.09,0,0,0-22.1,22.1V213.08A22.1,22.1,0,0,1,66.64,191Z"/><polygon class="cls-9" points="231.59 89.29 231.59 173.36 242.32 162.63 242.32 89.29 231.59 89.29"/><polygon class="cls-10" points="112.72 167.04 126.66 162.12 117.64 153.11 112.72 167.04"/><path class="cls-11" d="M235.42,196.13a3.22,3.22,0,0,0-3.51.69L196.72,232a3.23,3.23,0,0,0,2.28,5.5h35.19a3.22,3.22,0,0,0,3.22-3.22V199.1A3.21,3.21,0,0,0,235.42,196.13ZM231,231.07h-24.2l24.2-24.2v24.2Z"/><path class="cls-11" d="M258.7,144.52a3.21,3.21,0,0,0-3.51.69l-9.65,9.65V89.29a3.22,3.22,0,0,0-3.22-3.22H217.58l9-9h0l8.65-8.66a9.8,9.8,0,0,0,0-13.88l-10-10a9.84,9.84,0,0,0-13.89,0l-8.66,8.66L192.21,63.66,169.8,86.07H69.86V54.22A3.22,3.22,0,0,0,66.64,51,25.35,25.35,0,0,0,41.32,76.32V213.08a3.11,3.11,0,0,0,.07.69A24.39,24.39,0,0,0,65.71,236.3H164.1l-18.53,18.53a3.22,3.22,0,0,0,2.27,5.5H257.46a3.22,3.22,0,0,0,3.22-3.22V147.49A3.21,3.21,0,0,0,258.7,144.52ZM205,60l14.78,14.78-5.9,5.91L199,65.94ZM215.89,49.1a3.37,3.37,0,0,1,4.77,0l10,10a3.38,3.38,0,0,1,0,4.78l-6.38,6.38L209.5,55.48ZM155.62,253.89l18.52-18.52h0l8.23-8.23,17.76-17.76a3.22,3.22,0,0,0-4.56-4.55l-25.05,25.05H65.71a17.86,17.86,0,0,1-17.94-17.38c0-.61.07-1.21.14-1.81h0c0-.29.07-.57.12-.86l0-.09.15-.75c0-.07,0-.14,0-.21s.1-.42.16-.63l.09-.34.15-.49c.05-.16.11-.32.17-.48s.07-.22.11-.33l.25-.63.08-.18c.11-.25.22-.51.34-.76l0,0a18.92,18.92,0,0,1,13.17-10.3h.05q.4-.09.81-.15l.13,0,.74-.1.21,0,.72-.06h.23c.31,0,.63,0,1,0A3.22,3.22,0,0,0,69.86,191V167.63a3.22,3.22,0,0,0-6.44,0V188A25.11,25.11,0,0,0,49,195c-.42.41-.82.84-1.2,1.27V76.32A18.93,18.93,0,0,1,63.42,57.71v111a3.22,3.22,0,0,0,6.44,0V92.51h93.51l-28.8,28.8a3.22,3.22,0,1,0,4.55,4.55l34.29-34.29h0l21.07-21.08,14.78,14.79L207.54,87h0l-64.92,64.93-14.78-14.79,12.8-12.79a3.22,3.22,0,0,0-4.56-4.56L121,134.88a2.73,2.73,0,0,0-.23.25l-.06.09-.14.19-.06.11a1.62,1.62,0,0,0-.1.18.67.67,0,0,0-.06.12,1.67,1.67,0,0,0-.08.2l0,.06L114,153.85,109.69,166a2.72,2.72,0,0,0-.13.49H98.85a3.22,3.22,0,0,0,0,6.44H188a3.22,3.22,0,0,0,0-6.44h-64l19.63-6.93,0,0,.23-.1.08,0,.23-.12.07-.05a1.88,1.88,0,0,0,.23-.16l.06,0,.26-.23,66.25-66.26h28V161.3l-46,46a3.22,3.22,0,0,0,0,4.56l.24.22a3.24,3.24,0,0,0,4.07,0l.24-.22,47-47h0l9.64-9.64v28.41H248.3a3.22,3.22,0,1,0,0,6.44h5.94v9.7H248.3a3.22,3.22,0,1,0,0,6.44h5.94V216H248.3a3.22,3.22,0,1,0,0,6.44h5.94v9.71H248.3a3.22,3.22,0,0,0,0,6.44h5.94v15.35ZM127.5,158.41l-6.14-6.14,3.25-9.23,12.11,12.11Z"/></svg>