<svg id="Layer_1" data-name="Layer 1" xmlns="http://www.w3.org/2000/svg" viewBox="0 0 302 302"><defs><style>.cls-1{fill:#074752;}.cls-2{fill:#fff;}.cls-3{fill:#5abfb6;}.cls-4{fill:#fbb03b;}.cls-5{fill:#ed4848;}.cls-6{fill:#155763;}</style></defs><title>Artboard 25</title><circle class="cls-1" cx="151" cy="151" r="151"/><path class="cls-2" d="M59.19,134.63H203.44a9.84,9.84,0,0,1,9.84,9.83v98.35a9.84,9.84,0,0,1-9.84,9.84H59.19a9.83,9.83,0,0,1-9.83-9.84V144.46A9.83,9.83,0,0,1,59.19,134.63Z"/><path class="cls-3" d="M62.47,147.74H200.16v59H62.47Z"/><path class="cls-4" d="M126.84,110.25l11.6,11.59,37.09-37.09-20.87-2.31Z"/><path class="cls-4" d="M105.09,174l59-59,23,22.94-59,59Z"/><path class="cls-4" d="M191.75,175.16l-11.59-11.59,37.09-37.09,2.32,20.86Z"/><path class="cls-5" d="M252,50A76.44,76.44,0,0,0,188.5,71.77l-36.16,36.16,41.73,41.73,36.16-36.16A76.44,76.44,0,0,0,252,50Z"/><path class="cls-4" d="M252,50a76.44,76.44,0,0,0-46.6,9L243,96.57A76.42,76.42,0,0,0,252,50Z"/><path class="cls-5" d="M144.43,219.86H193.6v19.68H144.43Z"/><path class="cls-5" d="M173.93,219.86H193.6v19.68H173.93Z"/><path class="cls-2" d="M203.34,94,208,89.39,212.62,94,208,98.66Z"/><path class="cls-2" d="M106.05,191.32l45.9-45.9,4.63,4.64L110.69,196Z"/><path class="cls-3" d="M59.19,233h72.13v6.56H59.19Z"/><path class="cls-3" d="M59.19,219.86H72.3v6.56H59.19Z"/><path class="cls-3" d="M78.86,219.86H92v6.56H78.86Z"/><path class="cls-3" d="M98.53,219.86h32.79v6.56H98.53Z"/><path class="cls-6" d="M232.55,115.82a79.2,79.2,0,0,0,22.73-66.25L255,47l-2.53-.33a79.2,79.2,0,0,0-66.24,22.75L174.32,81.32,153.46,79l-31.25,31.25,16.23,16.23,13.9-13.91,4.76,4.75-14,14H59.19a13.11,13.11,0,0,0-13.11,13.11v98.35a13.11,13.11,0,0,0,13.11,13.12H203.44a13.11,13.11,0,0,0,13.11-13.12V155l6.45-6.45-2.31-20.86ZM249.05,53a72.69,72.69,0,0,1-6.89,38.16L210.89,59.84A72.59,72.59,0,0,1,249.05,53Zm-101.34,55-9.27,9.28-7-7,24.39-24.39,12.51,1.4L157,98.6Zm14,14,6.84,6.84-9.27,9.27,4.63,4.63,9.28-9.27,6.84,6.84-27.31,27.3,4.64,4.64,27.3-27.3,4.75,4.75-13.9,13.91,16.22,16.23,5.13-5.14v28.81H65.75V151H123.4l-6.72,6.72,4.63,4.63ZM210,242.81a6.56,6.56,0,0,1-6.56,6.56H59.19a6.56,6.56,0,0,1-6.56-6.56V144.46a6.56,6.56,0,0,1,6.56-6.55h77.33L130,144.46H59.19V210H203.44V168.11l6.56-6.56Zm-18.25-72.29-6.95-7,9.27-9.27,20.67-20.68,1.39,12.52Zm2.32-25.5L177.84,128.8l13.91-13.91-4.63-4.64-13.91,13.91L157,107.93l33.84-33.84a72.92,72.92,0,0,1,14.06-11l34,34a73.61,73.61,0,0,1-11,14.05Z"/><rect class="cls-6" x="119.33" y="59.22" width="37.09" height="6.56" transform="translate(-3.81 115.79) rotate(-45)"/><rect class="cls-6" x="94.46" y="62.5" width="27.82" height="6.56" transform="translate(-14.78 95.89) rotate(-45)"/><rect class="cls-6" x="220.96" y="160.85" width="37.09" height="6.56" transform="translate(-45.91 217.42) rotate(-45)"/><rect class="cls-6" x="222.32" y="190.36" width="27.82" height="6.56" transform="translate(-67.73 223.75) rotate(-45)"/><rect class="cls-6" x="103.17" y="166.05" width="13.11" height="6.56" transform="translate(-87.59 127.17) rotate(-45)"/><rect class="cls-6" x="139.23" y="175.89" width="13.11" height="6.56" transform="translate(-83.99 155.54) rotate(-45)"/><path class="cls-6" d="M141.15,242.81h55.73V216.59H141.15Zm36.06-19.67h13.12v13.12H177.21Zm-29.5,0h22.95v13.12H147.71Z"/></svg>