<svg id="Layer_1" data-name="Layer 1" xmlns="http://www.w3.org/2000/svg" viewBox="0 0 302 302"><defs><style>.cls-1{fill:#074752;}.cls-2{fill:#5abfb6;}.cls-3{fill:#f9f9f9;}.cls-4{fill:#fbb03b;}.cls-5{fill:#ed4848;}.cls-6{fill:#fff;}.cls-7{fill:#155763;}</style></defs><title>Artboard 24</title><circle class="cls-1" cx="151" cy="151" r="151"/><path class="cls-2" d="M44.58,54.11h202V84.36h-202Z"/><path class="cls-3" d="M44.58,84.26h202V234.63h-202Z"/><path class="cls-4" d="M282.36,187.43a5.06,5.06,0,0,1-5,5.13l-19-.11a5,5,0,0,0-5,5l-.2,7.81a4.9,4.9,0,0,1-8.69,3.21l-11.71-14.41c-1.92-2.36-5.19-1.82-7.88-1.84l-57.22-.34a5,5,0,0,1-4.9-5.18l.44-74.18a5.05,5.05,0,0,1,5-5.12l109.68.66a5,5,0,0,1,4.9,5.18Z"/><path class="cls-3" d="M200.89,149.91a9.54,9.54,0,1,1-9.53-9.54A9.53,9.53,0,0,1,200.89,149.91Z"/><path class="cls-3" d="M233,149.91a9.54,9.54,0,1,1-9.54-9.54A9.54,9.54,0,0,1,233,149.91Z"/><path class="cls-3" d="M265.18,149.91a9.54,9.54,0,1,1-9.53-9.54A9.53,9.53,0,0,1,265.18,149.91Z"/><path class="cls-5" d="M65.3,107.42h64.88V169.6H65.3Z"/><path class="cls-6" d="M63.7,67.37a4.89,4.89,0,1,0-2.64,6.38A4.94,4.94,0,0,0,63.7,67.37Z"/><path class="cls-2" d="M132.89,202.35c-3.74-2.57-8.72,1.27-7.37,5.53a4.88,4.88,0,1,0,7.37-5.53Z"/><path class="cls-6" d="M78.21,67.37a4.89,4.89,0,1,0-2.64,6.38A4.92,4.92,0,0,0,78.21,67.37Z"/><path class="cls-6" d="M92.73,67.37a4.89,4.89,0,1,0-1.6,5.79A4.94,4.94,0,0,0,92.73,67.37Z"/><path class="cls-7" d="M251.43,54.11a4.88,4.88,0,0,0-4.89-4.88h-202a4.88,4.88,0,0,0-4.89,4.88V164.46c0,6.27,9.78,6.28,9.78,0V89.24H241.66V103l-73.41-.44h-.06a10,10,0,0,0-9.82,10l-.44,74.17a10,10,0,0,0,9.76,10.1l61.33.38,12.64,15.39v17.28H49.47V143.92c0-6.28-9.78-6.28-9.78,0v90.81a4.89,4.89,0,0,0,4.89,4.89h202a4.89,4.89,0,0,0,4.89-4.89V214.67a9.94,9.94,0,0,0,6.68-9.26l.19-7.82a.41.41,0,0,1,.09-.26l19,.12h.06a10,10,0,0,0,9.82-10l.44-74.17a10,10,0,0,0-9.76-10.1l-26.5-.16Zm-202,25.36V59H241.66V79.47Zm118.68,33.1,109.76.51,0,74.59-19.46-.11h-.06a10,10,0,0,0-9.82,9.79l-.19,7.82a.7.7,0,0,1,0,.21L236.61,191a9.74,9.74,0,0,0-7.49-3.62L167.8,187Z"/><path class="cls-7" d="M191.36,135.48a14.43,14.43,0,1,0,14.42,14.43A14.44,14.44,0,0,0,191.36,135.48Zm0,19.07a4.65,4.65,0,1,1,4.64-4.64A4.65,4.65,0,0,1,191.36,154.55Z"/><path class="cls-7" d="M223.5,135.48a14.43,14.43,0,1,0,14.43,14.43A14.44,14.44,0,0,0,223.5,135.48Zm0,19.07a4.65,4.65,0,1,1,4.65-4.64A4.64,4.64,0,0,1,223.5,154.55Z"/><path class="cls-7" d="M255.65,135.48a14.43,14.43,0,1,0,14.42,14.43A14.44,14.44,0,0,0,255.65,135.48Zm0,19.07a4.65,4.65,0,1,1,4.65-4.64A4.65,4.65,0,0,1,255.65,154.55Z"/><path class="cls-7" d="M65.3,174.49h64.88a4.89,4.89,0,0,0,4.89-4.89V107.42a4.89,4.89,0,0,0-4.89-4.89H65.3a4.89,4.89,0,0,0-4.89,4.89V169.6A4.89,4.89,0,0,0,65.3,174.49Zm4.89-62.18h55.1v52.4H70.19Z"/><path class="cls-2" d="M65.3,192.89h64.88c6.28,0,6.29-9.77,0-9.77H65.3C59,183.12,59,192.89,65.3,192.89Z"/><path class="cls-2" d="M65.3,211.3h45c6.27,0,6.28-9.78,0-9.78h-45C59,201.52,59,211.3,65.3,211.3Z"/></svg>