<svg xmlns="http://www.w3.org/2000/svg" viewBox="0 0 1241.63 1078.21"><defs><style>.cls-1{isolation:isolate;}.cls-2{fill:#074752;}.cls-3{fill:#5abfb6;}.cls-4{fill:#52afa7;}.cls-5{fill:#f7d1a0;}.cls-6{fill:#e7536a;}.cls-7{mix-blend-mode:multiply;}.cls-8{fill:#ed4848;}.cls-9{fill:#31567a;}.cls-10{fill:#d3d2d2;}.cls-11{fill:#43253d;}.cls-12{fill:#d4253d;}.cls-13{fill:#1f3a49;}.cls-14{fill:#4b88c1;}.cls-15{fill:#fff;}</style></defs><title>Artboard 3</title><g class="cls-1"><g id="Layer_1" data-name="Layer 1"><path class="cls-2" d="M556.23,214.8V184.42H542.07a46.14,46.14,0,0,0-2.4-5.75l10-10-21.48-21.48-10,10a48.39,48.39,0,0,0-5.75-2.4V140.62H482.05v14.16a47.7,47.7,0,0,0-5.75,2.4l-10-10-21.49,21.48,10,10a46.09,46.09,0,0,0-2.39,5.75H438.26V214.8h14.16a46.09,46.09,0,0,0,2.39,5.75l-10,10,21.49,21.48,10-10a47.7,47.7,0,0,0,5.75,2.4v14.15h30.39V244.44a48.39,48.39,0,0,0,5.75-2.4l10,10,21.48-21.48-10-10a46.14,46.14,0,0,0,2.4-5.75Zm-59,6.76a22,22,0,1,1,22-21.95A21.95,21.95,0,0,1,497.24,221.56Z"/><path class="cls-2" d="M433.66,260.76V237.6H422.87a36.89,36.89,0,0,0-1.83-4.39l7.64-7.64L412.3,209.19l-7.64,7.64a36,36,0,0,0-4.39-1.83V204.21H377.1V215a35.16,35.16,0,0,0-4.38,1.83l-7.64-7.64-16.39,16.38,7.64,7.64a36.84,36.84,0,0,0-1.82,4.39h-10.8v23.16h10.8a36.16,36.16,0,0,0,1.82,4.39l-7.64,7.64,16.39,16.38,7.64-7.64a35.16,35.16,0,0,0,4.38,1.83v10.8h23.17v-10.8a36,36,0,0,0,4.39-1.83l7.64,7.64,16.38-16.38L421,265.15a36.21,36.21,0,0,0,1.83-4.39Zm-45,5.16a16.74,16.74,0,1,1,16.74-16.74A16.73,16.73,0,0,1,388.69,265.92Z"/><polygon class="cls-3" points="392.14 491.17 475.19 563.87 131.26 887.9 1241.63 887.9 1241.63 0 944.63 0 392.14 491.17"/><path class="cls-2" d="M193.32,577.7C189.93,611,195,614.12,196,629s-1.73,55.59-44.47,31.31S148,569,148,569Z"/><path class="cls-2" d="M460.57,585.81a13.78,13.78,0,0,1-9.79-4L416.42,547.4l-13.07,13.07L399.88,557l16.54-16.55,37.84,37.83a8.92,8.92,0,1,0,12.62-12.62l-14-14,3.47-3.47,14,14a13.84,13.84,0,0,1-9.79,23.63Z"/><rect class="cls-4" x="376.05" y="516.68" width="110.27" height="21.67" rx="1.46" ry="1.46" transform="translate(499.3 -150.39) rotate(45)"/><path class="cls-5" d="M163.83,735.51s13.46,8.56,16.46,9.64-9.7,17.33-9.7,17.33.38,4.19-8.25-4.49-9.55-14.67-9.55-14.67Z"/><rect class="cls-2" x="48.77" y="682.5" width="409.88" height="8.62" transform="translate(-389.56 337.13) rotate(-41.2)"/><path class="cls-6" d="M124.17,619.76c-25.12,5.54-48.53,47.58-50.67,59.93s-9.92,25.12,18.37,44.76,61.84,24.85,61.84,24.85l10.12-13.79s-43.92-21.82-50.12-37.36c-6.89-17.26,14.56-25.53,26-45.14C149.57,636.14,144.86,615.2,124.17,619.76Z"/><g class="cls-7"><path class="cls-8" d="M124.17,619.76c-25.12,5.54-48.53,47.58-50.67,59.93s-9.92,25.12,18.37,44.76,61.84,24.85,61.84,24.85l10.12-13.79s-43.92-21.82-50.12-37.36c-6.89-17.26,14.56-25.53,26-45.14C149.57,636.14,144.86,615.2,124.17,619.76Z"/></g><path class="cls-5" d="M177.65,763.64c-6.66,1.4-14.14-4.25-7.49-9.77s2.5-9.77,8.78-9.69,10,1.11,13.32,3.43S185.64,762,177.65,763.64Z"/><path class="cls-5" d="M167.24,737.64c4,2.45,8.94.66,13.8,3.94s9.18,5.87,3.53,6.81-9.54,0-13.75-.91S167.24,737.64,167.24,737.64Z"/><path class="cls-5" d="M35.44,1032.23l-3.24,14.11s7.13,11.88,8.88,15.61c5,10.71,4.73,11.14,4.73,11.14L12.6,1043.48l-.5-15.7,10.26-8.69Z"/><path class="cls-2" d="M12.1,1027.78,0,1038.2s14.75,20.55,23.21,33c5.14,7.61,38,6,38,6C66.36,1071,41.08,1062,41.08,1062s-8.51-.71-16.42-10.61S12.1,1027.78,12.1,1027.78Z"/><path class="cls-9" d="M76.11,775.33s0,34.18,1.54,45.44c3.56,25.75,12.78,84.72,12.78,84.72L20,1018s-4.67,4.58,16,18c0,0,67.13-88.17,82.1-102.39s23.6-146.52,23.6-146.52Z"/><g class="cls-7"><path class="cls-10" d="M89.77,901.27q6.11,25.32,12.2,50.66c7-8.51,12.81-15.17,16.08-18.28,15-14.23,23.6-146.52,23.6-146.52l-65.54-11.8s0,34.18,1.54,45.44C80.64,842.37,87.6,887.34,89.77,901.27Z"/></g><path class="cls-5" d="M120.49,1047l-1.54,6.81s6.89,7.41,10.44,9.5c10.19,6,10.2,6.53,10.2,6.53l-38.43-7.33-8.87-3.89,8.86-23.39Z"/><path class="cls-2" d="M174.51,534.69c12-1.91,26.41,4.38,29.1,16.06s-3.59,27-3.59,27-1.8-27-20.66-29.65S174.51,534.69,174.51,534.69Z"/><path class="cls-5" d="M178.86,545.44c6.21-2.61,18.36-.76,21.7,15.2s5.84,28.88,0,39.52S186.89,601.38,167,609c-18.23,7-12.32-40-12.32-40S170.81,548.81,178.86,545.44Z"/><path class="cls-11" d="M198.63,565.45A2.52,2.52,0,0,1,195.1,569a1.52,1.52,0,0,1-.38-.38,2.52,2.52,0,0,1,3.53-3.53A1.25,1.25,0,0,1,198.63,565.45Z"/><path class="cls-12" d="M200.87,592.37c-3,0-5.92-1.53-7.05-3l.81-.6a8.34,8.34,0,0,0,8.73,2.16l.39.93A7.35,7.35,0,0,1,200.87,592.37Z"/><path class="cls-5" d="M200.86,568.51l6.27,15.11a1.76,1.76,0,0,1,.14,1.49,1.74,1.74,0,0,1-1.37.67l-5.83.86"/><path class="cls-9" d="M83.19,788.06s4.88,33.84,8,44.76c7.21,25,31.4,80.86,31.4,80.86l-25.86,131.1s8,3.35,23.72,2.24c0,0,37.71-109.24,37.71-129.9s-8.45-126.76-8.45-126.76Z"/><path class="cls-8" d="M84.52,704c-17,59.9-22.6,159.66-22.6,159.66s53.66,24.64,107.58-8.36c-.09-21.06-22.21-125.76,6.74-150.5,19.27-16.47,6.3-61.18.56-71.51s-.05-12.75-.05-12.75L142.84,600S106.14,627.74,84.52,704Z"/><g class="cls-7"><path class="cls-10" d="M176.24,704.76c16.72-14.29,9.16-49.85,3.12-65.75-14.49,27.19-16.43,62.68-17.33,93.61C165.75,723.39,168.13,711.69,176.24,704.76Z"/></g><path class="cls-2" d="M92.29,1058.64l-4.52,16s14,2.29,30,3.35c9.16.61,42.31-.25,42.31-.25.74-8-30.69-14.41-30.69-14.41s-1.73,2.59-13.85-1.12A85.25,85.25,0,0,0,92.29,1058.64Z"/><path class="cls-5" d="M266.35,663.13a62.38,62.38,0,0,0,12.43-9.64c4.68-4.65,7.34-7.64,9.66-8.3s1.67,2.12,9.64,2.39,14.62-6.25,15.94-2.49-3.32,11.39-7.3,16.71-10.63,5-18.28,6.31-19.1,8.48-19.1,8.48Z"/><path class="cls-8" d="M164.85,637.25c16.92.85,34.13,42.61,49.22,42s57.09-20.34,57.09-20.34l3.94,17.72S230.55,706,202.26,706.11c-23.63.11-47.78-20.93-57.09-36.09C140,661.69,136.84,635.86,164.85,637.25Z"/><path class="cls-2" d="M181.41,592.47c0,6.86,2.28,13.48,3.59,20.21,5.72,29.38-8.62,69.18-41.67,74-18.15,2.65-47.51-8.84-48.27-30.37-.57-16,8.72-33.59,18.72-45.59,5.22-6.27,12-11.28,16.31-18.17,5.84-9.24,1.19-17.07,1.19-28,0-30.22,34.05-39.85,50.45-29.73C202,547.34,181.42,575.91,181.41,592.47Z"/><path class="cls-11" d="M200,560.88a7.91,7.91,0,0,0-5.12-2.07h0a8.68,8.68,0,0,0-4.31,1.32l-.5-.88a9.77,9.77,0,0,1,4.81-1.45h0a9,9,0,0,1,5.79,2.33Z"/><polygon class="cls-13" points="753.61 704.13 623.11 704.13 624.91 694.38 755.41 694.38 753.61 704.13"/><polygon class="cls-2" points="554.13 1077.42 630.87 662.15 621.13 662.15 544.38 1077.42 554.13 1077.42"/><polygon class="cls-2" points="694.37 1077.42 771.11 662.15 761.37 662.15 684.62 1077.42 694.37 1077.42"/><polygon class="cls-2" points="742.36 765.01 611.86 765.01 613.66 755.27 744.16 755.27 742.36 765.01"/><polygon class="cls-2" points="731.11 825.89 600.61 825.89 602.41 816.15 732.91 816.15 731.11 825.89"/><polygon class="cls-2" points="719.86 886.77 589.36 886.77 591.16 877.03 721.66 877.03 719.86 886.77"/><polygon class="cls-2" points="708.61 947.65 578.11 947.65 579.91 937.91 710.41 937.91 708.61 947.65"/><polygon class="cls-2" points="697.35 1008.53 566.86 1008.53 568.66 998.79 699.15 998.79 697.35 1008.53"/><polygon class="cls-8" points="636.62 704.13 767.11 704.13 765.31 694.38 634.82 694.38 636.62 704.13"/><polygon class="cls-8" points="845.84 1077.42 769.1 662.15 759.36 662.15 836.1 1077.42 845.84 1077.42"/><polygon class="cls-8" points="705.6 1077.42 628.86 662.15 619.12 662.15 695.86 1077.42 705.6 1077.42"/><polygon class="cls-8" points="647.87 765.01 778.37 765.01 776.57 755.27 646.07 755.27 647.87 765.01"/><polygon class="cls-8" points="659.12 825.89 789.62 825.89 787.82 816.15 657.32 816.15 659.12 825.89"/><polygon class="cls-8" points="670.37 886.77 800.87 886.77 799.07 877.03 668.57 877.03 670.37 886.77"/><polygon class="cls-8" points="681.62 947.65 812.12 947.65 810.32 937.91 679.82 937.91 681.62 947.65"/><polygon class="cls-8" points="692.87 1008.53 823.37 1008.53 821.57 998.79 691.07 998.79 692.87 1008.53"/><path class="cls-2" d="M850.08,356.67,811,338.59l-1.66-18.53L635.86,242.15,620.49,253l-27.13-12.55-.5-22,23.94,11.07,14.48-10.21-1.6-17.65-23.94-11.07,17.11-13.88L650,189.24l1.68,18.64L825,285.73l15.46-10.92,39.1,18.08,3.62,40.38ZM812.53,337.5l37.37,17.28,31.58-22.3L878,294,840.65,276.7l-13.82,10.91L651.74,209l-3.31-18.65-25.34-11.72L608.81,190.2l22.41,10.36L633,220.09l-16,11.3L594.55,221l.43,18.39,25.33,11.71,15.37-10.85L810.86,319Zm34-2.46-16.82-7.77L828,308l.18-.4.21-.19,15.61-11,16.82,7.78,1.78,19.53Zm-15.28-8.86,15.11,7L860.87,323l-1.6-17.65-15.11-7-14.48,10.21Z"/><path class="cls-2" d="M850.25,358.55l-40.81-18.87-1.67-18.52L636,244,620.66,254.9l-28.91-13.37-.59-25.68,25.46,11.78,12.94-9.12-1.43-15.77L602.67,191l19.94-16.19,28.91,13.37,1.67,18.62,171.64,77.09,15.47-10.93,40.81,18.87,3.8,42.27Zm-36.18-22.14,35.66,16.49,30-21.21-3.29-36.62L840.87,278.6l-13.8,10.91-.91-.41-175.88-79L647,191.46l-23.64-10.93-11.45,9.29,20.89,9.65,1.94,21.42-17.57,12.39-20.89-9.66.34,14.74,23.55,10.89L635.5,238.4l176.91,79.46Zm32.66.52-18.54-8.58-1.87-20.59.5-1.11.62-.55,16.38-11.55,18.54,8.57,1.94,21.42Zm-13.9-11.84,13.39,6.19,12.93-9.12-1.43-15.77-13.39-6.19-12.93,9.12Z"/><path class="cls-5" d="M680.15,378.78s-10.32-23.36-10.77-41.48S677,275.14,677,275.14l-16.67-2.24s-15.25,55.79-15.77,79.71,20,54.77,20,54.77Z"/><path class="cls-8" d="M659.71,384.2c8.67-4.84,17.24-8.95,18.48-9.29,1.77,3.32,2.85,8.28,6.21,13.69C698.08,410.66,707,418.11,707,418.11l-3,51.5a354.65,354.65,0,0,1-31.75-32.8,110.76,110.76,0,0,1-23-44.6A35.24,35.24,0,0,1,659.71,384.2Z"/><path class="cls-5" d="M672.24,281.68c.72-1.1,4.77-6.54,4.77-6.54s3.41-4,4.58-4.75,3-4.34,3-4.34a29.72,29.72,0,0,1-3.54-5.19c-1.27-2.56-1.61-9.44.66-14.91s2.11-10.16-2-10.6-11-.21-12.48,3.23-5.07,17.83-7,22.61.53,10.31-.2,13.05S672.24,281.68,672.24,281.68Z"/><path class="cls-5" d="M707,407.32c3.55,3,6.19.51,7.66,3.68s-3.37,18.6-3.37,18.6h32.58l-1.7-29.46s2.37-11.79-1.87-27.37-33-25.59-33-25.59c-1.31-.8-3-7-5.28-4.7-3.5,3.6-9.93,11.83-11,18S703.42,404.36,707,407.32Z"/><path class="cls-2" d="M691,360.5c1,6.73,6,16.38,6,16.38h0c3.82-.2,7.51,4.06,7.74,11.29.25,7.61-1,2.19,2.32,8.3a65.71,65.71,0,0,0,8.52,11.7c6.63.29,27,0,27,0,3.8-11.48,8.57-19.21,12.1-29.35s5.61-19.84,3-29.6c-1.44-5.41-10.63-12.09-18-9,0,0-5.2-11.25-19.77-8.19C709,334.22,687.69,338.26,691,360.5Z"/><path class="cls-9" d="M741.9,572.37c0,17.32,0,32-12.13,67.55s-13,180.81-13,180.81H692.53s-1.73-98.54-6.06-150.5a621.43,621.43,0,0,1,0-97.86Z"/><path class="cls-5" d="M715.39,822c-.77,1.3,0,40.2,0,40.2H696v-41.5Z"/><rect class="cls-14" x="690.26" y="818.24" width="26.55" height="10.72" transform="translate(1407.07 1647.2) rotate(180)"/><path class="cls-2" d="M715.39,856.6H696s-.12,3.46-11,5.63-13.42,14.29-13.42,14.29h43.76Z"/><path class="cls-9" d="M781.88,569c0,17.32,1.44,33.72-3.56,70.9-6.67,49.57-10.67,180.81-10.67,180.81H743.4s-4-98.54-8.38-150.5-18.21-97.86-18.21-97.86Z"/><path class="cls-5" d="M766.25,822c-.77,1.3,0,40.2,0,40.2H746.86v-41.5Z"/><rect class="cls-14" x="741.13" y="818.24" width="26.55" height="10.72" transform="translate(1508.81 1647.2) rotate(180)"/><path class="cls-2" d="M766.25,856.6H746.86s-.11,3.46-10.94,5.63-13.42,14.29-13.42,14.29h43.75Z"/><path class="cls-5" d="M795.34,402.37s20.8-14.81,30.45-30.16S851,314.89,851,314.89l15.47,6.6s-15.4,55.74-27.18,76.57-45.15,36.86-45.15,36.86Z"/><path class="cls-8" d="M786.56,587.29s-2.66-28.7-6.56-74.74-24.47-93.61-24.47-93.61-10,.07-16,0c-9.06-.15-33.88,0-33.88,0s-13,17.42-15.43,38.32-8,134.71-8,134.71,24.34,12.58,60.91,12.77S786.56,587.29,786.56,587.29Z"/><path class="cls-8" d="M810.13,417.47c-5-8.59-10.24-16.5-11.13-17.43-3.22,1.95-6.68,5.66-12.33,8.6-23,12-34.49,13.82-34.49,13.82l6.12,39s11.64,9.7,30.06-5c12.52-10,21.28-21.08,26.75-26.71A35.24,35.24,0,0,0,810.13,417.47Z"/><path class="cls-5" d="M851.76,323c-.06-1.31-.76-8.06-.76-8.06s-.88-5.2-1.51-6.42-.32-5.24-.32-5.24a30.13,30.13,0,0,0,5.69-2.66c2.41-1.55,6.21-7.29,7-13.15s3.38-9.82,7.18-8.06,9.52,5.41,9.08,9.15-4.75,17.92-5.58,23-5.72,8.6-6.49,11.32S851.76,323,851.76,323Z"/><path class="cls-15" d="M546.43,562.36C530.85,562.36,515,557,500.5,547a28.42,28.42,0,0,1-7.13-7.13c-17.47-25.14-20.25-53.42-7.62-77.59a68.28,68.28,0,0,1,60.68-36.76c15.58,0,31.46,5.31,45.93,15.37a28.22,28.22,0,0,1,7.13,7.12c17.47,25.14,20.25,53.43,7.61,77.59A68.26,68.26,0,0,1,546.43,562.36Zm0-128.67A60.12,60.12,0,0,0,493,466.07c-11.18,21.37-8.59,46.57,7.08,69.12a20.1,20.1,0,0,0,5.08,5.08c13.09,9.09,27.35,13.9,41.26,13.9a60.11,60.11,0,0,0,53.42-32.37c11.17-21.38,8.59-46.57-7.08-69.13a20.23,20.23,0,0,0-5.08-5.07C574.6,438.5,560.33,433.69,546.43,433.69Z"/><path class="cls-15" d="M534.12,502.55v.33l-4.32,4.26-12.56-12.45v-.82l12.56-12.45,4.32,4.26V486l-8.63,8.3Z"/><path class="cls-15" d="M561.85,469.62l-18.23,46.31h-6.94l18.18-46.31Z"/><path class="cls-15" d="M572.94,494.31l-8.63-8.3v-.33l4.31-4.26,12.56,12.45v.82l-12.56,12.45-4.31-4.26v-.33Z"/><path class="cls-3" d="M328.07,471.68H122.17a7.64,7.64,0,0,1-7.63-7.64V349.73a7.64,7.64,0,0,1,7.63-7.63h205.9a7.64,7.64,0,0,1,7.63,7.63V464A7.64,7.64,0,0,1,328.07,471.68Zm-205.35-8.19h204.8V350.28H122.72Z"/><path class="cls-2" d="M177.3,424.39V408.94H158.51v15.45h-7.2V386.17h7.2v16.1H177.3v-16.1h7.15v38.22Z"/><path class="cls-2" d="M201.1,392.66H189v-6.55h31.45v6.55H208.31v31.67H201.1Z"/><path class="cls-2" d="M258.11,396.65l-12.45,16.6h-1.42l-12.18-16.66v27.8h-7.21V386.17h8.3l12,16.43,12-16.43h8.24v38.22h-7.2Z"/><path class="cls-2" d="M279.29,386.11v31.56H299v6.66H272.08V386.11Z"/></g></g></svg>