<svg id="Layer_1" data-name="Layer 1" xmlns="http://www.w3.org/2000/svg" viewBox="0 0 957.15 1005.17"><defs><style>.cls-1{fill:#bbbdbf;}.cls-2{fill:#fff;}.cls-3{fill:#ed4848;}.cls-4{fill:#5abfb6;}.cls-5{fill:#074752;}.cls-6{fill:#115870;}.cls-7{fill:#f26765;}.cls-8{fill:#e8eaec;}.cls-9{fill:#fbcfc7;}.cls-10{fill:#9ac465;}.cls-11{fill:#d1d2d5;}.cls-12{fill:#f69a90;}.cls-13{fill:#31567a;}</style></defs><title>Artboard 18</title><polygon class="cls-1" points="427.27 285.21 776.9 274.14 776.9 543.34 433.86 532.2 427.27 285.21"/><polygon class="cls-2" points="440.31 296.45 757.68 286.82 763.17 529.77 447.8 513.31 440.31 296.45"/><path class="cls-3" d="M641.6,313.07l102-2.17S742.53,429.44,742,433.11s-92.32,0-92.32,0Z"/><polygon class="cls-4" points="717.71 472.12 717.71 483.71 611.7 483.71 608.73 472.12 717.71 472.12"/><polygon class="cls-4" points="715.84 491.62 715.84 503.22 609.84 503.22 606.87 491.62 715.84 491.62"/><path class="cls-3" d="M515.67,325.3c20.76,31.5-13,65.28-44.52,44.52a15.92,15.92,0,0,1-4.51-4.52c-20.77-31.5,13-65.28,44.51-44.52A16,16,0,0,1,515.67,325.3Z"/><polygon class="cls-4" points="265.96 599.67 324.42 175.35 413.9 207.29 409.24 216.6 330.51 185.17 279.92 599.67 265.96 599.67"/><polygon class="cls-4" points="367.12 309.08 380.43 198.03 487.42 227.97 367.12 309.08"/><rect class="cls-2" x="215.72" y="591.55" width="100.48" height="16.25"/><rect class="cls-5" x="334.14" y="516.01" width="6.32" height="56.54" transform="matrix(0.97, -0.26, 0.26, 0.97, -129.58, 106.06)"/><path class="cls-6" d="M328.38,508.78a.69.69,0,0,1-.38.88h0a.69.69,0,0,1-.77-.57l-.68-2.54a.69.69,0,0,1,.38-.88h0a.69.69,0,0,1,.77.57Z"/><polygon class="cls-2" points="328.14 507.86 326.98 508.17 326.93 517.81 333.01 516.18 328.14 507.86"/><rect class="cls-7" x="348.75" y="510.39" width="6.32" height="56.54" transform="translate(-23.24 15.92) rotate(-2.51)"/><path class="cls-7" d="M350.9,502.07a.69.69,0,0,1-.57.77h0a.68.68,0,0,1-.63-.72l-.11-2.63a.68.68,0,0,1,.56-.77h0a.69.69,0,0,1,.63.72Z"/><polygon class="cls-2" points="350.86 501.12 349.66 501.17 347.52 510.57 353.81 510.3 350.86 501.12"/><rect class="cls-6" x="340.4" y="537.44" width="56.54" height="6.32" transform="translate(-236.38 789.76) rotate(-78.09)"/><path class="cls-6" d="M376.81,504.91a.7.7,0,0,1-.74.61h0a.68.68,0,0,1-.43-.86l.54-2.57a.69.69,0,0,1,.74-.61h0a.68.68,0,0,1,.43.85Z"/><polygon class="cls-5" points="377.01 503.98 375.84 503.73 371.42 512.3 377.58 513.6 377.01 503.98"/><polygon class="cls-3" points="338.4 605.06 333.78 548.02 385.7 548.02 382.84 605.06 338.4 605.06"/><path class="cls-8" d="M222.44,630.72l19.48,282.66s169.87-6.31,169.5-9,7.79-280.24,7.79-280.24Z"/><polyline class="cls-2" points="222.44 645.39 420.89 645.39 419.21 666.79 222.44 645.39"/><polygon class="cls-8" points="174.57 601.31 957.14 601.31 957.14 627.93 174.57 645.39 174.57 601.31"/><polygon class="cls-8" points="926.23 628.64 915.81 884.22 901.51 884.59 896.24 628.64 926.23 628.64"/><path class="cls-2" d="M228.62,720.43c0,.21,187.5,10.08,187.5,10.08l-.23,8.08-186.64-9.08Z"/><polygon class="cls-2" points="234.95 812.5 413.9 808.34 413.65 817.23 235.3 817.23 234.95 812.5"/><path class="cls-2" d="M341.62,690.81H307.23a3.9,3.9,0,0,1-3.9-3.89h0a3.91,3.91,0,0,1,3.9-3.9h34.39a3.9,3.9,0,0,1,3.89,3.9h0A3.9,3.9,0,0,1,341.62,690.81Z"/><path class="cls-2" d="M344.19,776.57H309.8a3.92,3.92,0,0,1-3.9-3.9h0a3.91,3.91,0,0,1,3.9-3.89h34.39a3.91,3.91,0,0,1,3.9,3.89h0A3.92,3.92,0,0,1,344.19,776.57Z"/><path class="cls-2" d="M344.19,864.53H309.8a3.91,3.91,0,0,1-3.9-3.89h0a3.92,3.92,0,0,1,3.9-3.9h34.39a3.92,3.92,0,0,1,3.9,3.9h0A3.91,3.91,0,0,1,344.19,864.53Z"/><polygon class="cls-8" points="605.82 192.3 948.22 207.33 948.22 179.8 605.82 192.3"/><polygon class="cls-2" points="605.82 174.04 957.14 170.7 957.14 184.99 605.82 192.3 605.82 174.04"/><path class="cls-9" d="M943.92,151.6a1.36,1.36,0,0,1-1.89,1.88,1,1,0,0,1-.35-.34,1.37,1.37,0,0,1,1.89-1.89A1.06,1.06,0,0,1,943.92,151.6Z"/><polygon class="cls-5" points="757.76 51.65 796.02 51.65 801.12 174.04 764.14 174.04 757.76 51.65"/><rect class="cls-2" x="856.57" y="103.19" width="1.66" height="60.94" transform="translate(363.98 847.47) rotate(-64.21)"/><path class="cls-2" d="M821.89,117.23c-11.62,0-19.13,8-19.13,19.58a21,21,0,1,0,42.09,0C844.85,125.19,833.52,117.23,821.89,117.23Zm10.05,27.85c-4.71,4.2-12.18,5.08-16.39.38a11.43,11.43,0,0,1,17-15.24C836.8,134.92,836.64,140.87,831.94,145.08Z"/><path class="cls-3" d="M801.12,174l-2.07-49.7s22.33,0,37.49,21.91,45.13,13.75,46.19,6l1-7.76,4.94.35L887,176.22Z"/><path class="cls-3" d="M688.25,14H761c1.91,0,2.61,165.77,2.61,165.77H695.9Z"/><path class="cls-2" d="M751.38,116.5a21,21,0,0,1-42.09,0c0-11.62,7.51-19.59,19.14-19.59S751.38,104.88,751.38,116.5Z"/><polygon class="cls-4" points="632.77 181.5 629.59 0 695.9 2.55 695.9 179.8 632.77 181.5"/><path class="cls-2" d="M676.14,38.26a13.4,13.4,0,0,1-26.79,0c0-7.39,4.86-13.34,12.26-13.34S676.14,30.87,676.14,38.26Z"/><polygon class="cls-2" points="605.82 174.04 957.14 170.7 957.14 184.99 605.82 192.3 605.82 174.04"/><path class="cls-10" d="M113.15,774a48.27,48.27,0,0,1,8.35-43.14c2.45-3.08,5.36-6,6.56-9.72,3.28-10.2-7.32-19.73-8.17-30.41-.87-11,8.53-19.86,17.1-26.86,4.33-3.53,9.12-7.24,14.71-7.3,7-.08,12.71,5.64,15.78,11.88s4.33,13.23,7.3,19.51,7.75,11.84,11.32,18,6,13.52,3.79,20.26c-2.87,8.85-12.69,13.9-16,22.58-5.11,13.29,6.9,28.82,1.43,42-2.4,5.73-7.82,9.77-13.65,11.92C139.8,810.68,119.5,795.2,113.15,774Z"/><polygon class="cls-10" points="146.71 800.47 142.53 851.77 146.71 851.77 149.35 800.47 146.71 800.47"/><path class="cls-11" d="M150.35,665.64c-1.4,21-2.72,42-3.45,63-.74,21.48-3.12,45.27,1.38,66.47a.68.68,0,0,0,1.34-.18c-2.9-43.08-.06-86.25,2.23-129.3.05-1-1.44-1-1.5,0Z"/><path class="cls-10" d="M198.09,786.16c5.36-3.22,11.86-3.73,17.86-5.49a43.73,43.73,0,0,0,20.18-12.78c5.77-6.47,10.06-15,18.12-18.21,8.61-3.39,18.23.65,27.49.55,8.2-.09,16.07-3.47,24.27-3.76,4.77-.17,10.91,2.37,10.34,7.1-.35,2.89-3.13,4.76-5.64,6.24l-11.9,7c-4.42,2.6-8.91,5.25-12.43,9-5.85,6.21-8.55,14.9-14.52,21-8.57,8.74-22.07,10.38-34.27,9.33-6.6-.56-14-1.55-19.19,2.54-7.63,6-19.36,22.66-30,9.45C180.68,808.5,189,791.61,198.09,786.16Z"/><path class="cls-10" d="M192.66,811.35l-2.39-1.05S168.78,833,167.59,853.86h4.77S170,836,192.66,811.35Z"/><path class="cls-11" d="M194.37,809.45C212.79,800,230.58,789.27,249,779.7s37.28-18.08,55.78-27.4c.84-.43.24-1.91-.65-1.54-18.61,7.62-36.64,17-54.48,26.2-18.89,9.78-38.13,19.66-55.82,31.5a.57.57,0,0,0,.58,1Z"/><path class="cls-10" d="M100.57,777.55a58,58,0,0,0-22.51-25c-6.27-3.77-13.31-6.38-18.84-11.17-9.24-8-13.64-21.47-24.75-26.52a32.67,32.67,0,0,0-12.35-2.43c-6.92-.27-14.66.75-19.06,6.09C-1,723.45-.85,731,2.5,736.46,7,743.69,15.72,747.14,21,753.82c9.2,11.68,5.6,30.26,15.67,41.2,5.92,6.44,15.1,8.52,22.66,12.93,6.23,3.64,11.5,9,18.22,11.6C103.47,829.74,108,793.34,100.57,777.55Z"/><path class="cls-10" d="M94.19,808.21l-2,1.44C115.44,839,118.06,856,118.06,856h5.37C117.47,833.87,94.19,808.21,94.19,808.21Z"/><path class="cls-11" d="M14.67,724.36c15.48,9.56,27.78,28.07,39.15,41.86s21.8,30.6,35.22,42.45a.64.64,0,0,0,.91-.91c-11.83-15.11-24.31-29.84-36.54-44.63C42.52,750,30.54,732,15.05,723.69a.39.39,0,0,0-.38.67Z"/><path class="cls-8" d="M96,847.05l94.05.11s-1.57,102.61-45.25,105.21C78.86,956.31,96,847.05,96,847.05Z"/><path class="cls-12" d="M545.94,947s16.47,1.26,30.4,0"/><line class="cls-12" x1="597.87" y1="934.32" x2="622.32" y2="942.91"/><path class="cls-5" d="M573.1,952.34a25.14,25.14,0,0,0,1.12-8.51,6.37,6.37,0,0,0-1.44-4.25c-1.27-1.28-3.25-1.44-5-1.5h-1.31l-1.72-3.76-8.21-2h-2.32s-30.47-19.86-32.91-10c-1.3,5.2,4.33,11.75,7.26,15.39,8.71,10.78,20.62,22.36,35.44,21.92,3.15-.09,6.19-.9,7.75-3.83A19.84,19.84,0,0,0,573.1,952.34Z"/><path class="cls-13" d="M535.81,798.81l9.13,133.5s1,12.24,9.23,16.34c14,7,22.17-1.66,22.17-1.66L589,798.81Z"/><path class="cls-5" d="M614.57,955.41a25.14,25.14,0,0,1-1.12-8.51,6.37,6.37,0,0,1,1.44-4.25c1.27-1.28,3.25-1.44,5.05-1.5h1.31l1.72-3.76,8.21-2h2.32s30.47-19.86,32.91-10c1.3,5.2-4.33,11.75-7.27,15.39-8.7,10.78-20.61,22.36-35.43,21.92-3.15-.09-6.19-.9-7.75-3.83A19.84,19.84,0,0,1,614.57,955.41Z"/><path class="cls-13" d="M651.86,801.88l-9.13,133.5s-1,12.24-9.23,16.34c-14,7-22.17-1.66-22.17-1.66L598.67,801.88Z"/><path class="cls-5" d="M654.31,795.83s65.49,201.09,65.22,206.9c-3.72,5.22-7.25,0-7.25,0l-72-202.25Z"/><path class="cls-5" d="M518.25,795.83s-65.5,201.09-65.22,206.9c3.3,5.48,7.25,0,7.25,0l72-202.25Z"/><path class="cls-4" d="M433,573.49H731.71s57.22,225.1-129.37,244.07S433,573.49,433,573.49Z"/><path class="cls-7" d="M486.1,621.46A107.36,107.36,0,0,0,506.5,637Z"/><path class="cls-5" d="M683.79,483.82c-14.2-16.86-33.1-31.44-38.71-52.76-3-11.37-1.77-23.36-2.27-35.1-.93-21.59-8.42-50-23.68-65.28s-38.93-16.33-59.33-9.21c-14.88,5.18-26.56,17.35-34,31.25s-11,29.5-13.64,45c-2.1,12.36-3.72,25-8.88,36.44-5.75,12.74-15.52,23.15-23.37,34.72C442.23,524.4,456.55,613.1,517.85,647c18.26,10.1,39.47,13.39,60.28,14.81,20.46,1.39,41.28,1.09,61.09-4.22C716.83,636.75,731.89,540.94,683.79,483.82Z"/></svg>