<?xml version="1.0" encoding="utf-8"?>
<!-- Generator: Adobe Illustrator 23.0.1, SVG Export Plug-In . SVG Version: 6.00 Build 0)  -->
<svg version="1.1" id="Capa_1" xmlns="http://www.w3.org/2000/svg" xmlns:xlink="http://www.w3.org/1999/xlink" x="0px" y="0px"
	 viewBox="0 0 853.9 687.2" style="enable-background:new 0 0 853.9 687.2;" xml:space="preserve">
<style type="text/css">
	.st0{fill:#004552;}
	.st1{fill:#FFFFFF;}
	.st2{fill:#211915;}
	.st3{fill:#00BDB5;}
	.st4{fill:#FF4645;}
</style>
<title>Mesa de trabajo 1 copy 4</title>
<g id="DISEÑO">
	<path class="st0" d="M484,5.7H125.6c-3.2,0-5.7,2.6-5.7,5.8v219.7c0,3.2,2.6,5.7,5.7,5.7H484c3.2,0,5.7-2.6,5.8-5.7V11.5
		C489.8,8.3,487.2,5.7,484,5.7C484,5.7,484,5.7,484,5.7z M473.8,189.9c0,0.4-0.3,0.7-0.7,0.7c0,0,0,0,0,0h-336
		c-0.4,0-0.7-0.3-0.7-0.7v-160c0-2.4,1.9-4.3,4.3-4.3h328.8c2.4,0,4.3,1.9,4.3,4.3c0,0,0,0,0,0V189.9z"/>
	<path class="st1" d="M469.6,27.1H140.7c-1.6,0-2.8,1.3-2.8,2.8v0v159.3h334.6V29.9C472.4,28.3,471.1,27.1,469.6,27.1z"/>
	<path d="M484,4.3H125.6c-4,0-7.2,3.2-7.2,7.2v219.6c0,4,3.2,7.2,7.2,7.2H484c4,0,7.2-3.2,7.2-7.2V11.5C491.2,7.5,488,4.3,484,4.3z
		 M489.8,231.1c0,3.2-2.6,5.7-5.8,5.7H125.6c-3.2,0-5.7-2.6-5.7-5.7V11.5c0-3.2,2.6-5.7,5.7-5.8H484c3.2,0,5.7,2.6,5.8,5.8
		L489.8,231.1z"/>
	<path d="M125.9,240.5c-5.1,0-9.3-4.2-9.3-9.3V11.5c0-5.2,4.2-9.3,9.3-9.3h358.4c5.2,0,9.3,4.2,9.3,9.3v219.6c0,5.2-4.2,9.3-9.3,9.3
		L125.9,240.5z M125.9,7.9c-2,0-3.6,1.6-3.6,3.6c0,0,0,0,0,0v219.6c0,2,1.6,3.6,3.6,3.6l0,0h358.4c2,0,3.6-1.6,3.6-3.6v0V11.5
		c0-2-1.6-3.6-3.6-3.6l0,0L125.9,7.9z"/>
	<path class="st2" d="M484.3,4.3c4,0,7.2,3.2,7.2,7.2v219.6c0,4-3.2,7.2-7.2,7.2H125.9c-4,0-7.2-3.2-7.2-7.2V11.5
		c0-4,3.2-7.2,7.2-7.2H484.3 M125.9,236.9h358.4c3.2,0,5.7-2.6,5.8-5.7V11.5c0-3.2-2.6-5.7-5.8-5.8H125.9c-3.2,0-5.7,2.6-5.7,5.8
		v219.6C120.2,234.3,122.7,236.9,125.9,236.9 M484.3,0H125.9c-6.3,0-11.5,5.2-11.5,11.5v219.6c0,6.3,5.1,11.5,11.5,11.5h358.4
		c6.3,0,11.5-5.1,11.5-11.5V11.5C495.8,5.1,490.7,0,484.3,0L484.3,0z M125.9,232.6c-0.8,0-1.4-0.6-1.4-1.4V11.5
		c0-0.8,0.6-1.4,1.4-1.4c0,0,0,0,0,0h358.4c0.8,0,1.4,0.6,1.4,1.4l0,0v219.6c0,0.8-0.6,1.4-1.4,1.4H125.9z"/>
	<path d="M469.6,25.6H140.7c-2.4,0-4.3,1.9-4.3,4.3v160c0,0.4,0.3,0.7,0.7,0.7h336c0.4,0,0.7-0.3,0.7-0.7c0,0,0,0,0,0v-160
		C473.8,27.6,471.9,25.6,469.6,25.6z M472.4,189.2H137.8V29.9c0-1.6,1.3-2.8,2.8-2.8l0,0h328.9c1.6,0,2.8,1.3,2.8,2.8V189.2z"/>
	<rect x="162.5" y="48.8" class="st3" width="74.6" height="116.3"/>
	<rect x="337.2" y="137.2" class="st4" width="114.9" height="9.8"/>
	<rect x="337.2" y="155.3" class="st4" width="114.9" height="9.8"/>
	<circle class="st0" cx="396.3" cy="89.7" r="41.7"/>
	<path d="M577.2,332.6c-1.6,0-2.9-1.3-2.9-2.9v-13.4H67.9v13.4c0,1.6-1.3,2.9-2.9,2.9l0,0H35.9c-1.6,0-2.9-1.3-2.9-2.9v-13.4H5
		c-1.6,0-2.9-1.3-2.9-2.9v-27c0-1.6,1.3-2.9,2.9-2.9h17.9l-10.4-68c-0.2-1.6,0.8-3,2.4-3.3c0.2,0,0.3,0,0.5,0h10.8v-72.5
		c0-21.9,15.3-29.7,29.7-29.7s29.7,7.8,29.7,29.7v72.6h10.8c1.6,0,2.9,1.3,2.9,2.9c0,0.1,0,0.3,0,0.4l-10.4,68h455.4V174.1
		c0-1.6,1.3-2.9,2.9-2.9h13.8v-24.8c0-1.6,1.3-2.9,2.9-2.9h16.7c1.6,0,2.9,1.3,2.9,2.9v54.3H597c1.6,0,2.9,1.3,2.9,2.9v80h37.2
		c1.6,0,2.9,1.3,2.9,2.9v27c0,1.6-1.3,2.9-2.9,2.9h-28v13.4c0,1.6-1.3,2.9-2.9,2.9L577.2,332.6z M603.4,326.9v-10.5H580v10.5
		L603.4,326.9z M62.2,326.9v-10.5H38.7v10.5L62.2,326.9z M634.3,310.6v-21.2H7.9v21.2L634.3,310.6z M594.2,283.6v-77.1h-11v77.1
		L594.2,283.6z M577.5,283.6V149.3h-11v134.3L577.5,283.6z M560.8,283.6V176.9h-11v106.7L560.8,283.6z M82.9,283.6l10-65.6H18.7
		l10,65.6H82.9z M79.8,212.3v-72.6c0-5.2-1.3-16.1-11.4-21.2c5.6,8.1,5.6,19.5,5.6,27v66.8L79.8,212.3z M68.2,212.3v-66.8
		c0-9.2,0-22.6-9.5-28.3v95.1L68.2,212.3z M53,212.3v-95c-9.5,5.6-9.5,19.1-9.5,28.2v66.8L53,212.3z M37.7,212.3v-66.8
		c0-7.5,0-18.9,5.6-27c-10.2,5.1-11.4,16-11.4,21.2v72.6L37.7,212.3z"/>
	<path d="M55.8,112.1c13.3,0,27.5,7.2,27.5,27.5v74.8h12.9c0.2,0,0.4,0.1,0.5,0.3c0.1,0.2,0.2,0.4,0.2,0.6l-10.8,70.5h460V174.1
		c0-0.4,0.3-0.7,0.7-0.7c0,0,0,0,0,0h16v-26.9c0-0.4,0.3-0.7,0.7-0.7h16.7c0.4,0,0.7,0.3,0.7,0.7v56.5h16c0.4,0,0.7,0.3,0.7,0.7
		c0,0,0,0,0,0v82.2h39.4c0.4,0,0.7,0.3,0.7,0.7v27c0,0.4-0.3,0.7-0.7,0.7H607v15.5c0,0.4-0.3,0.7-0.7,0.7h-29.1
		c-0.4,0-0.7-0.3-0.7-0.7v-15.5H65.7v15.5c0,0.4-0.3,0.7-0.7,0.7H35.9c-0.4,0-0.7-0.3-0.7-0.7v-15.5H5c-0.4,0-0.7-0.3-0.7-0.7
		c0,0,0,0,0,0v-27c0-0.4,0.3-0.7,0.7-0.7c0,0,0,0,0,0h20.4l-10.8-70.5c0-0.2,0-0.4,0.2-0.6c0.1-0.2,0.3-0.3,0.5-0.3h12.9v-74.7
		C28.3,119.4,42.5,112.2,55.8,112.1 M56.5,214.5h13.8v-69c0-10,0-26.7-13.8-31.6V214.5 M29.7,214.4h10.1v-69c0-9.6,0-25.2,11.7-31.6
		c-11.2,1.4-21.9,8.7-21.9,25.8V214.4 M71.8,214.4h10.1v-74.7c0-17.1-10.6-24.4-21.8-25.8c11.7,6.4,11.7,22,11.7,31.6V214.4
		 M41.2,214.5h13.8V113.9c-13.8,4.9-13.8,21.6-13.8,31.6V214.5 M564.4,285.8h15.3V147.1h-15.3V285.8 M547.6,285.8h15.3v-111h-15.3
		V285.8 M581.1,285.8h15.3v-81.4h-15.3V285.8 M26.8,285.8h57.9l10.7-69.9H16.2L26.8,285.8 M5.7,312.8h630.7v-25.6H5.7L5.7,312.8
		 M577.8,329h27.7v-14.8h-27.7V329 M36.6,329h27.7v-14.8H36.6L36.6,329 M55.8,107.8c-14.7,0-31.8,8.3-31.8,31.9v70.5h-8.6
		c-2.8,0-5,2.2-5.1,4.9c0,0.3,0,0.6,0.1,0.8l10,65.5H5c-2.8,0-5,2.2-5,5v27c0,2.8,2.2,5,5,5h25.8v11.3c0,2.8,2.2,5,5,5H65
		c2.8,0,5-2.2,5-5v-11.2h502v11.2c0,2.8,2.2,5,5,5h29.2c2.8,0,5-2.2,5-5v-11.2h26c2.8,0,5-2.2,5-5l0,0v-27c0-2.8-2.2-5-5-5h-35.1
		v-77.9c0-2.8-2.2-5-5-5h-11.7v-52.2c0-2.8-2.2-5-5-5h-16.7c-2.8,0-5,2.2-5,5V169H547c-2.8,0-5,2.2-5,5v107.4H91.2l10-65.5
		c0.4-2.7-1.4-5.3-4.2-5.7c-0.3,0-0.6-0.1-0.8-0.1h-8.6v-70.4c0-13.3-5.6-20.8-10.3-24.7c-5.5-4.6-13.2-7.1-21.5-7.1L55.8,107.8z
		 M60.8,210.1v-88.4c4.7,5.4,5.2,14.6,5.2,23.7v64.7L60.8,210.1z M45.5,210.1v-64.7c0-9.1,0.5-18.2,5.2-23.7v88.3L45.5,210.1z
		 M34,210.1v-70.4c0-5.7,1.3-9.9,3.3-13c-1.8,6.6-1.8,13.5-1.8,18.8v64.7L34,210.1z M76,210.1v-64.7c0-5.2,0-12.1-1.8-18.8
		c2,3.1,3.3,7.3,3.3,13v70.5L76,210.1z M568.6,151.4h6.7v130h-6.7V151.4z M551.9,179.1h6.7v102.4h-6.7V179.1L551.9,179.1z
		 M585.4,208.6h6.7v72.8h-6.7V208.6L585.4,208.6z M21.2,220.2h69.2L81,281.5H30.5L21.2,220.2z M10,291.5h622.1v16.9H10V291.5z
		 M582.2,318.5h19.1v6.2h-19.1V318.5L582.2,318.5z M40.9,318.5H60v6.2H40.9V318.5L40.9,318.5z"/>
	<path class="st3" d="M71.8,145.5v69h10.1v-74.8c0-17.1-10.6-24.4-21.8-25.8C71.8,120.3,71.8,135.8,71.8,145.5z"/>
	<path class="st3" d="M70.3,145.5c0-10,0-26.7-13.8-31.6v100.6h13.8V145.5z"/>
	<path class="st3" d="M39.8,145.5c0-9.6,0-25.2,11.7-31.6c-11.2,1.4-21.9,8.7-21.9,25.8v74.8h10.1V145.5z"/>
	<path class="st3" d="M41.3,145.5v69h13.8V113.9C41.3,118.8,41.3,135.4,41.3,145.5z"/>
	<rect x="581.1" y="204.3" class="st3" width="15.3" height="81.4"/>
	<rect x="547.6" y="174.8" class="st3" width="15.3" height="111"/>
	<polygon class="st0" points="579.6,203.6 579.6,147.1 564.4,147.1 564.4,174.1 564.4,285.8 579.6,285.8 	"/>
	<polygon class="st4" points="84.7,285.8 95.4,215.9 16.1,215.9 26.8,285.8 	"/>
	<polygon class="st3" points="580.3,287.2 563.6,287.2 546.9,287.2 85.3,287.2 26.2,287.2 5.7,287.2 5.7,312.7 35.9,312.7 65,312.7 
		577.1,312.7 606.3,312.7 636.4,312.7 636.4,287.2 597,287.2 	"/>
	<rect x="577.8" y="314.2" class="st0" width="27.7" height="14.8"/>
	<rect x="36.6" y="314.2" class="st0" width="27.7" height="14.8"/>
	<path d="M637.2,285.8h-39.4v-82.2c0-0.4-0.3-0.7-0.7-0.7c0,0,0,0,0,0h-16v-56.5c0-0.4-0.3-0.7-0.7-0.7h-16.7
		c-0.4,0-0.7,0.3-0.7,0.7v26.9h-16c-0.4,0-0.7,0.3-0.7,0.7c0,0,0,0,0,0v111.7h-460l10.8-70.5c0-0.2,0-0.4-0.2-0.6
		c-0.1-0.2-0.3-0.3-0.5-0.3H83.3v-74.7c0-20.3-14.2-27.5-27.5-27.5s-27.5,7.2-27.5,27.5v74.8H15.3c-0.2,0-0.4,0.1-0.5,0.3
		c-0.1,0.2-0.2,0.4-0.2,0.6l10.8,70.5H5c-0.4,0-0.7,0.3-0.7,0.7c0,0,0,0,0,0v27c0,0.4,0.3,0.7,0.7,0.7c0,0,0,0,0,0h30.2v15.5
		c0,0.4,0.3,0.7,0.7,0.7H65c0.4,0,0.7-0.3,0.7-0.7v-15.5h510.7v15.5c0,0.4,0.3,0.7,0.7,0.7h29.2c0.4,0,0.7-0.3,0.7-0.7v-15.5h30.2
		c0.4,0,0.7-0.3,0.7-0.7v-27C637.9,286.1,637.5,285.8,637.2,285.8z M581.1,204.3h15.3v81.4h-15.3V204.3z M564.4,174.1v-26.9h15.3
		v138.6h-15.3L564.4,174.1z M547.7,174.8h15.3v111h-15.3V174.8z M81.9,139.7v74.8H71.8v-69c0-9.6,0-25.2-11.7-31.6
		C71.3,115.3,81.9,122.6,81.9,139.7z M56.5,113.9c13.8,4.9,13.8,21.6,13.8,31.6v69H56.5V113.9z M29.7,139.7
		c0-17.1,10.6-24.4,21.9-25.8c-11.7,6.4-11.7,22-11.7,31.6v69H29.7V139.7z M55.1,113.9v100.6H41.3v-69
		C41.3,135.4,41.3,118.8,55.1,113.9L55.1,113.9z M16.2,215.9h79.3l-10.7,69.9H26.8L16.2,215.9z M64.3,329H36.6v-14.9h27.7L64.3,329z
		 M605.6,329h-27.7v-14.9h27.7V329z M636.4,312.7H5.7v-25.5h630.7V312.7z"/>
	<path d="M583.6,685.4c-1.2,0-2.3-0.8-2.5-2l-15.3-65.8c-2.6,1.5-6.9,2.9-13.4,2.9c-1.2,0-2.4,0-3.7-0.1
		c-13.3-1-24.7-11.9-27.8-26.5c-3.8-17.8,5.4-34.6,24.5-44.9c7.8-4.2,16.5-6.4,25.4-6.4c7.3,0,14.5,1.3,21.3,3.8
		c9.3,3.3,17.9,8.5,25.1,15.3c-0.2-11.8,1.8-31.9,15.7-47.3c9.5-10.6,29.6-23,55.1-23c17.3,0,34,6,48.4,17.2
		c22.2,17.4,24.2,41.3,23.7,53.1c8.3-6.5,25.8-18,45.7-18c4.1,0,8.2,0.5,12.1,1.5c22.9,5.8,35.6,21.1,34,40.8
		c-1.4,16.7-13.3,30.6-27.1,31.8c-1.5,0.1-3,0.2-4.4,0.2l0,0c-3.2,0.1-6.4-0.4-9.4-1.3l-15.5,66.6c-0.3,1.2-1.3,2-2.5,2L583.6,685.4
		z M790.8,680.2l15.1-64.5H570.6l15.1,64.5H790.8z M570.8,547.7c-8,0-15.9,2-22.9,5.8c-17,9.2-25.1,23.8-21.9,39.3
		c2.6,12.4,12.1,21.6,23.1,22.4c1.1,0.1,2.2,0.1,3.2,0.1c9.7,0,12.9-3.8,12.9-3.9c0.1-0.1,0.1-0.1,0.2-0.2l0.2-0.2
		c0.2-0.1,0.3-0.3,0.5-0.4c0.1-0.1,0.3-0.1,0.4-0.2c0.1,0,0.3-0.1,0.4-0.1c0.1,0,0.3,0,0.4,0h241.8c0.1,0,0.3,0,0.4,0
		c0.2,0,0.4,0.1,0.5,0.2c0.1,0,0.2,0.1,0.3,0.2c0.1,0.1,0.3,0.2,0.4,0.3l0,0c0,0,2.7,1.8,9.6,1.8c1.3,0,2.6-0.1,4-0.2
		c11.4-1,21.2-12.9,22.3-27.1c1.4-17-9.9-30.2-30.1-35.3c-3.6-0.9-7.2-1.3-10.9-1.3c-25.3,0-46.9,20.6-47.2,20.8
		c-0.5,0.5-1.1,0.7-1.8,0.7c-1.4,0-2.6-1.2-2.6-2.6c0-0.2,0-0.3,0.1-0.5c0.1-0.3,6.3-33.2-21.1-54.6c-13.7-10.7-28.9-16.1-45.3-16.1
		c-23.7,0-42.4,11.4-51.2,21.2c-18.6,20.8-13.8,51.7-13.7,52c0.2,1.3-0.6,2.6-1.8,2.9c-0.2,0.1-0.5,0.1-0.7,0.1
		c-1.1,0-2-0.6-2.4-1.6c-2.1-5-12.8-14.8-27.7-20.1C584.1,548.9,577.5,547.7,570.8,547.7z"/>
	<path d="M687.9,493.4c15.3,0,31.8,4.7,47.2,16.8c25.2,19.7,23.5,48.5,22.5,56c5.3-4.6,25.1-20.5,48.1-20.5c3.9,0,7.8,0.5,11.7,1.4
		c21.9,5.6,34.1,20.1,32.5,38.8c-1.3,15.7-12.4,28.9-25.3,30c-1.6,0.1-3,0.2-4.3,0.2c-6.1,0-9.4-1.3-10.8-2.1l-16.1,68.8
		c-0.1,0.3-0.3,0.5-0.6,0.5H583.6c-0.3,0-0.6-0.2-0.6-0.5l-16-68.6c-1.7,1.5-5.9,4.2-14.6,4.2c-1.1,0-2.3,0-3.5-0.1
		c-12.4-1-23.1-11.2-26-25c-3.6-16.9,5.2-32.9,23.5-42.8c7.5-4.1,15.9-6.2,24.5-6.2c7.1,0.1,14,1.3,20.7,3.7
		c12.8,4.6,23.6,12.8,28,19.1c-0.8-8.7-1.3-33.6,14.9-51.5C645.1,503.8,665.3,493.4,687.9,493.4 M620.5,571c-0.3,0-0.5-0.2-0.6-0.4
		c-2.5-6.2-14.3-16-28.8-21.2c-6.5-2.4-13.3-3.6-20.3-3.7c-8.3,0-16.5,2-23.9,6c-17.8,9.6-26.3,25.1-22.8,41.4
		c2.8,13.2,13,23.1,24.9,24c1.2,0.1,2.3,0.1,3.4,0.1c11,0,14.4-4.6,14.5-4.6l0,0l0,0c0,0,0.1-0.1,0.2-0.1h0.1c0,0,0.1,0,0.2,0l0,0
		h241.9h0.1h0.2h0.1l0.1,0c0,0,2.9,2.3,10.8,2.3c1.3,0,2.6-0.1,4.1-0.2c12.3-1.1,22.9-13.7,24.1-28.8c1.5-18-10.3-32-31.6-37.4
		c-3.7-0.9-7.5-1.4-11.3-1.4c-26.2,0-48.3,21.1-48.5,21.4c-0.1,0.1-0.3,0.2-0.5,0.2c-0.1,0-0.2,0-0.3-0.1c-0.3-0.1-0.4-0.4-0.3-0.7
		c0.1-0.3,6.7-34.3-21.8-56.5c-15.2-11.9-31.4-16.5-46.4-16.5c-22.3,0-42.1,10.2-52.6,21.9c-19.3,21.5-14.2,53.3-14.2,53.7
		c0.1,0.3-0.1,0.6-0.5,0.7L620.5,571 M584.2,682.1h208.2l16-68.4H568.2L584.2,682.1 M687.9,489.5L687.9,489.5
		c-21.5,0-43.7,9.3-56.5,23.6c-12.6,14.1-15.7,31.9-16.1,44.2c-6.7-5.5-14.3-9.9-22.5-12.8c-7.1-2.6-14.5-3.9-22-4
		c-9.2,0-18.2,2.3-26.3,6.6c-19.9,10.7-29.4,28.3-25.5,47c3.3,15.4,15.4,27,29.6,28.1c1.3,0.1,2.6,0.2,3.8,0.2
		c4.1,0.1,8.2-0.6,12-2.1l14.8,63.4c0.5,2.1,2.3,3.5,4.4,3.5h209.2c2.1,0,4-1.5,4.4-3.5l15.1-64.6c2.6,0.6,5.3,0.9,8,0.8
		c1.5,0,3-0.1,4.6-0.2c14.7-1.3,27.4-16,28.8-33.6c1-9.8-2.1-19.6-8.4-27.1c-6.2-7.4-15.5-12.8-27.1-15.7c-4.1-1-8.4-1.6-12.6-1.6
		c-18.2,0-34.3,9.3-43.7,16c-0.1-13-3.9-34.5-24.5-50.7C722.7,495.5,705.6,489.4,687.9,489.5L687.9,489.5z M620.5,574.9
		c0.4,0,0.9-0.1,1.3-0.2c2.2-0.7,3.6-2.8,3.2-5.1c0-0.3-4.7-30.4,13.2-50.4c8.5-9.5,26.7-20.6,49.7-20.6c15.9,0,30.7,5.3,44,15.7
		c10.8,8.3,18,20.4,20.1,33.8c1.1,6.3,1.2,12.6,0.3,18.9c-0.4,2,0.5,3.9,2.3,4.9c0.7,0.4,1.4,0.6,2.2,0.6c1.2,0,2.3-0.5,3.2-1.3
		c0.2-0.2,21.4-20.3,45.8-20.3c3.5,0,7,0.4,10.4,1.3c9.6,2.5,17.3,6.8,22.3,12.7c4.9,5.7,7.2,13.1,6.4,20.6
		c-1.1,13.3-10.1,24.4-20.6,25.3c-1.3,0.1-2.6,0.2-3.8,0.2c-5.9,0-8.3-1.4-8.5-1.5c-0.2-0.1-0.4-0.2-0.5-0.3
		c-0.2-0.1-0.4-0.2-0.5-0.3c-0.3-0.1-0.6-0.2-0.8-0.2c-0.3-0.1-0.6-0.1-0.8-0.1H567.3c-0.2,0-0.5,0-0.7,0.1c-0.2,0-0.4,0.1-0.7,0.2
		c-0.3,0.1-0.5,0.2-0.8,0.3c-0.3,0.2-0.6,0.4-0.8,0.6c-0.2,0.2-0.4,0.4-0.6,0.6l0,0c-0.2,0.2-3.1,3.1-11.4,3.1c-1,0-2,0-3.1-0.1
		c-10.1-0.8-18.9-9.4-21.4-20.9c-3.1-14.5,4.7-28.4,20.9-37.2c6.8-3.7,14.3-5.6,22-5.5c6.5,0,12.9,1.2,18.9,3.4
		c14.1,5,24.6,14.4,26.5,19C616.9,573.8,618.6,574.9,620.5,574.9L620.5,574.9z M573.1,617.6h230.3l-14.2,60.7h-202L573.1,617.6
		L573.1,617.6z"/>
	<path class="st3" d="M817,548.4c-30.8-7.8-59.6,19.7-59.8,20c-0.2,0.2-0.5,0.2-0.8,0.1c-0.3-0.1-0.4-0.4-0.3-0.7
		c0.1-0.3,6.7-34.3-21.8-56.5c-37.8-29.5-81.5-14.3-99.1,5.3c-19.3,21.5-14.2,53.3-14.2,53.7c0.1,0.3-0.1,0.6-0.5,0.7
		c-0.3,0.1-0.7-0.1-0.8-0.4c-2.5-6.2-14.3-16-28.8-21.2c-10.9-3.9-27.4-6.7-44.1,2.4c-17.8,9.6-26.3,25-22.8,41.4
		c2.8,13.2,13,23.1,24.9,24c13.7,1,17.8-4.4,17.9-4.5l0,0l0,0c0,0,0.1-0.1,0.2-0.1h0.1c0,0,0.1,0,0.2,0l0,0h241.9h0.1h0.2h0.1l0.1,0
		c0,0,3.9,3.1,15,2.1c12.3-1.1,22.9-13.7,24.1-28.8C850.1,567.8,838.3,553.8,817,548.4z M570.8,579.2c-0.2,0-5.1,0.7-6,5.2
		c-1.1,5.4,4,7.2,4.1,7.2c0.3,0.1,0.5,0.5,0.4,0.8c-0.1,0.3-0.3,0.5-0.6,0.5c-0.1,0-0.1,0-0.2,0c-3.6-1.2-5.8-5-4.9-8.7
		c1.1-5.3,7-6.2,7.1-6.2c0.4,0,0.7,0.3,0.7,0.6C571.3,578.9,571.1,579.2,570.8,579.2L570.8,579.2z M669.9,531.9
		c-0.3,0.2-0.7,0.1-0.9-0.2c0,0,0,0,0,0c-0.2-0.3-4.2-6.6-10.9-5.1c-8.3,1.8-7.5,10.1-7.5,10.2c0,0.4-0.2,0.7-0.6,0.7c0,0,0,0,0,0
		h-0.1c-0.3,0-0.6-0.3-0.7-0.6c-0.3-2.6,0.8-9.9,8.5-11.6c7.6-1.7,12.2,5.6,12.3,5.7C670.3,531.3,670.2,531.7,669.9,531.9
		C669.9,531.9,669.9,531.9,669.9,531.9L669.9,531.9z M695.7,590.1c-1,3-3.8,5.1-7,5.1c-0.6,0-1.1-0.1-1.7-0.2
		c-5.3-1.1-6.2-7-6.2-7.1c0-0.4,0.2-0.7,0.6-0.7c0.4,0,0.7,0.2,0.7,0.6c0,0,0,0,0,0c0,0.2,0.7,5.1,5.2,6c5.4,1.1,7.2-4,7.3-4.1
		c0.1-0.3,0.5-0.5,0.9-0.3C695.6,589.5,695.8,589.8,695.7,590.1L695.7,590.1z M729.3,548.1c-0.1,0.2-0.3,0.3-0.6,0.3
		c-0.1,0-0.2,0-0.3-0.1c-0.3-0.2-0.4-0.5-0.3-0.9c0,0,0,0,0,0c0.1-0.2,2.3-4.6-0.8-7.9c-3.8-4-8.2-0.9-8.3-0.8
		c-0.3,0.2-0.7,0.1-0.9-0.1c-0.2-0.3-0.1-0.7,0.1-0.9c3.1-2.3,7.4-1.8,10,1C732.1,542.7,729.4,548,729.3,548.1L729.3,548.1z
		 M807.8,592.7c-0.1,0.1-0.3,0.2-0.5,0.2c-0.4,0-0.7-0.3-0.6-0.7c0-0.1,0.1-0.3,0.1-0.4c0.2-0.3,4.8-6.1,1.2-12
		c-4.5-7.2-12-3.8-12.1-3.7c-0.3,0.2-0.7,0-0.9-0.3c-0.2-0.3,0-0.7,0.3-0.9c2.4-1.1,9.6-2.6,13.8,4.2S807.9,592.6,807.8,592.7z"/>
	<polygon class="st4" points="584.1,682.1 792.3,682.1 808.3,613.7 568.2,613.7 	"/>
	<path d="M817.4,547.2c-27.6-7-53.6,13.7-59.7,19c1-7.5,2.7-36.2-22.5-56c-38.4-30.1-82.9-14.5-100.8,5.5
		c-16.1,17.9-15.6,42.8-14.9,51.5c-4.4-6.3-15.1-14.5-28-19.1c-11.2-4-28.1-6.8-45.2,2.4c-18.3,9.9-27.1,25.9-23.5,42.8
		c2.9,13.8,13.6,24,26,25c1.3,0.1,2.4,0.1,3.5,0.1c8.7,0,13-2.7,14.6-4.2l16,68.6c0.1,0.3,0.3,0.5,0.6,0.5h209.2
		c0.3,0,0.6-0.2,0.6-0.5l16.1-68.8c1.7,0.9,6.2,2.7,15.1,1.9c12.9-1.1,24-14.3,25.3-30C851.4,567.2,839.3,552.7,817.4,547.2z
		 M792.4,682.1H584.2l-16-68.4h240.1L792.4,682.1z M848.7,585.8c-1.2,15.1-11.8,27.8-24.1,28.8c-11.1,1-14.9-2.1-15-2.1l-0.1,0h-0.1
		h-0.2h-0.1H567.3l0,0c0,0-0.1,0-0.2,0h-0.1c-0.1,0-0.1,0.1-0.2,0.1l0,0l0,0c0,0.1-4.2,5.5-17.9,4.5c-11.8-0.9-22.1-10.8-24.9-24
		c-3.5-16.3,5.1-31.8,22.8-41.4c16.7-9,33.2-6.3,44.1-2.4c14.5,5.2,26.3,15,28.8,21.2c0.1,0.3,0.5,0.5,0.8,0.4
		c0.3-0.1,0.5-0.4,0.5-0.7c-0.1-0.3-5.2-32.1,14.2-53.7c17.6-19.6,61.3-34.9,99.1-5.3c28.4,22.3,21.9,56.2,21.8,56.5
		c-0.1,0.3,0.1,0.6,0.3,0.7c0.3,0.1,0.6,0.1,0.8-0.1c0.3-0.3,29.1-27.8,59.8-20C838.3,553.8,850.1,567.8,848.7,585.8L848.7,585.8z"
		/>
	<path d="M570.6,578c-0.1,0-6,0.8-7.1,6.2c-0.8,3.7,1.3,7.5,4.9,8.7c0.1,0,0.1,0,0.2,0c0.4,0,0.7-0.3,0.7-0.6c0-0.3-0.2-0.5-0.5-0.6
		c0,0-5.2-1.8-4.1-7.2c0.9-4.4,5.8-5.1,6-5.2c0.3-0.1,0.6-0.4,0.5-0.8C571.2,578.1,570.9,577.9,570.6,578L570.6,578z"/>
	<path d="M695.3,589.3c-0.3-0.1-0.7,0.1-0.8,0.4c0,0-1.8,5.2-7.3,4.1c-4.4-0.9-5.1-5.8-5.2-6c0-0.4-0.4-0.6-0.7-0.6c0,0,0,0,0,0
		c-0.4,0.1-0.6,0.4-0.6,0.7c0,0.1,0.8,6,6.2,7.1c0.6,0.1,1.1,0.2,1.7,0.2c3.2-0.1,6-2.1,7-5.1C695.7,589.8,695.6,589.4,695.3,589.3z
		"/>
	<path d="M718.4,537.7c-0.3,0.2-0.4,0.6-0.1,0.9c0.2,0.3,0.6,0.4,0.9,0.1c0,0,4.5-3.2,8.3,0.8c3.1,3.3,0.8,7.7,0.8,7.9
		c-0.2,0.3,0,0.7,0.3,0.9c0,0,0,0,0,0c0.1,0,0.2,0.1,0.3,0.1c0.2,0,0.5-0.1,0.6-0.3c0,0,2.8-5.4-1-9.4
		C725.8,535.9,721.5,535.5,718.4,537.7z"/>
	<path d="M657.8,525.4c-7.8,1.7-8.8,9-8.5,11.6c0,0.3,0.3,0.6,0.7,0.6h0.1c0.4,0,0.6-0.3,0.6-0.7c0,0,0,0,0,0
		c0-0.1-0.7-8.3,7.5-10.2c6.7-1.5,10.7,4.8,10.9,5.1c0.2,0.3,0.6,0.4,0.9,0.2c0,0,0,0,0,0c0.3-0.2,0.4-0.6,0.2-0.9
		C670.1,531,665.4,523.7,657.8,525.4z"/>
	<path d="M795.3,575c-0.3,0.2-0.5,0.5-0.3,0.9c0.2,0.3,0.5,0.5,0.9,0.3c0.1,0,7.6-3.5,12.1,3.7c3.6,5.8-1,11.7-1.2,12
		c-0.2,0.3-0.2,0.7,0.1,0.9c0.1,0.1,0.2,0.1,0.4,0.1c0.2,0,0.4-0.1,0.5-0.2c0-0.1,5.4-6.8,1.3-13.5S797.7,573.9,795.3,575z"/>
	<path d="M186.2,670.2c-5.8,0-9.1-1.3-10.2-3.8c-0.6-1.7-0.2-3.5,1.1-4.8c0.7-0.7,2.1-2.3,4-4.5l35.4-157.5
		c-9.5-4-17.1-8.9-22.6-14.7c-7.6-7.7-11.5-18.3-10.8-29.1c0.9-19.3,9.2-32,17.2-44.3c9-13.9,17.5-27,15.6-49.1
		c-0.7-7.1-1.8-14.2-3.2-21.2c-10,8.2-32.9,25.6-48.2,25.6c-2.1,0-4.3-0.4-6.2-1.2c-5.5-2.4-8.4-8.1-8.6-16.9
		c-0.7-26.3,41.1-75.3,48.1-83.4c-0.2-7.1,1.1-14.2,3.6-20.8c6.5-16.5,16.7-23.2,34.9-23.3c-15.5-6.5-22.1-13.4-22.1-13.5
		c-0.6-0.6-0.8-1.4-0.7-2.3c0.1-0.8,9.2-79.1,23.4-110.1s36.5-46,68.2-46s54,15,68.2,46s23.3,109.3,23.3,110.1
		c0.1,0.8-0.2,1.7-0.8,2.3c-0.1,0.1-6.5,6.9-22,13.4c17.6,0.5,28.3,7.8,34.7,23.4c7,17.2,2.7,39.2-2,58.5c0.4,5.6,1.2,11.1,2.3,16.6
		c8-16.8,25-51.4,31.5-57.7c6.8-6.6,12.6-6.7,17.7-6.8c1.4,0,2.9-0.1,4.3-0.2c0.4-0.1,0.7-0.1,1.1-0.1c5.5,0,10.9,5.3,15.2,9.6
		c1.2,1.3,2.5,2.5,3.8,3.5c3.5,2.2,4.1,5.5,3,7.8c1.2,2.1,1.2,4.6,0.2,6.8c-0.5,1-1.5,1.6-2.6,1.6h-27.7c-3.4,19.3-8.2,38.4-14.3,57
		c-8,23.9-19.2,38.2-30.7,39.2c-0.4,0-0.9,0-1.3,0c-5.5,0-10.6-3-15.2-8.8c0.7,16.8,8.1,28.1,15.8,40c8,12.3,16.3,25.1,17.2,44.3
		c0.7,10.8-3.2,21.4-10.8,29.1c-5,5.3-11.8,9.8-20.1,13.6l35.5,157.5c1.4,1.7,3.1,3.7,4,4.5c1.3,1.2,1.7,3.1,1.1,4.8
		c-1.1,2.6-4.4,3.8-10.2,3.8c-6.2,0-9.4-1.1-10.6-3.4c-0.7-1.4-0.5-3,0.5-4.2c0.7-0.9,2.5-3.3,3.6-4.8l-4.5-19.9l-61.2-31.5
		c-0.4,1.4-0.6,2.3-0.8,2.8c2.5,3.3,3.9,7.4,4,11.5c-0.1,6.5,2.7,17.7,3.8,21.4c0.1,0.2,0.2,0.5,0.3,0.8c0.8,1.8,2.1,5,0.1,8.2
		c-2.5,4-9.4,6.1-21.8,6.7c-1.7,0.1-3.3,0.1-4.8,0.1c-11.4,0-18.2-2.3-20.9-7c-1.7-3-1.4-6.7,0.8-10c0.6-0.8,1-1.4,1.3-1.8
		c0.7-0.9,0.7-0.9,0.3-9.6l-0.2-4.6c-0.1-1.8,0-3.6,0.2-5.5v-0.2c0.4-4.4,2.2-8.5,5.2-11.7c0.3-0.3,0.6-0.6,1-1
		c0.5-5.5,0.4-11.1-0.2-16.6l-14.8-7.6l-17.4,9c-0.1,6.7,0.4,13.5,0.8,19c0.3,3.7,0.5,7,0.5,9.2c4.7,8.9,5.7,16,2.9,21.2
		c-2.3,4.4-7.1,7-13.7,7.6c-0.5,0-1.1,0.1-1.6,0.1c-7,0-10.8-4.4-16.1-10.5c-3.2-3.8-6.7-7.5-10.3-11c-3.6-3.4-6.6-7.3-9-11.5
		l-46.3,23.9l-4.4,19.6c1.1,1.4,3,3.9,3.6,4.8c0.9,1.2,1.1,2.8,0.5,4.2C195.6,669.2,192.3,670.2,186.2,670.2z M182.5,664.2
		c1.2,0.2,2.4,0.3,3.7,0.3c1.4,0,2.8-0.1,4.2-0.3c-1.3-1.8-3-4-3-4c-0.5-0.7-0.7-1.6-0.5-2.4l35.2-156l0,0l-35.6,157.3
		c-0.1,0.4-0.3,0.9-0.6,1.2C185.7,660.4,184,662.5,182.5,664.2L182.5,664.2z M421.8,663.2c1.4,0.2,2.8,0.3,4.2,0.3
		c1.2,0,2.5-0.1,3.7-0.3c-1.4-1.6-3.1-3.6-3.4-3.9c-0.3-0.4-0.5-0.8-0.6-1.2l-5-22.3c0,0,0,0.1,0,0.1l4.7,21c0.2,0.8,0,1.7-0.5,2.4
		C424.7,659.2,423.1,661.4,421.8,663.2L421.8,663.2z M321.7,619.3c-0.2,1.4-0.2,2.9-0.1,4.3l0.2,4.6c0.5,10.3,0.6,10.9-1.5,13.5
		c-0.3,0.3-0.6,0.8-1,1.4s-1.4,2.4-0.6,4c0.7,1.2,3.7,4.1,15.9,4.1c1.4,0,2.9,0,4.5-0.1c14.1-0.7,16.8-3.3,17.3-4s0-1.6-0.5-2.9
		c-0.2-0.5-0.4-0.9-0.5-1.4c-0.4-1.3-3.7-13.1-4-21.3c-1-7.1-8.3-9.6-14.9-9.6C325.2,611.8,322.6,615.8,321.7,619.3z M248.5,611.7
		c2.1,3.7,4.7,7.1,7.8,10c3.8,3.6,7.3,7.4,10.7,11.5c5.2,6.1,7.5,8.5,11.8,8.5c0.3,0,0.7,0,1,0c3.2-0.3,7.3-1.3,9.1-4.6
		c1.5-2.8,1.1-7-1.3-12.4c-2.3,1.3-5,2-7.7,2h-0.2c-5.9,0-12.2-2.9-12.8-9.3c-0.6-4.6-1.8-9.1-3.5-13.4L248.5,611.7z M420.1,633.4
		l-22.6-100.2c0,0,0,0.1,0,0.1L420.1,633.4L420.1,633.4z M199.8,626l39.9-20.6c-2.2-8.2-1.7-15.5,1.6-20c2.5-3.5,6.5-5.5,10.7-5.5
		h0.1l-2.8-5c-1.5-2.8-3.2-5.7-4.8-8.8c-4-7.1-7.4-14.6-10.1-22.4l-14.4-7.4L199.8,626z M412.2,624.7l-19.7-87.2l-18.3,9.4
		c-1.6,5.8-3.7,11.4-6.3,16.9c-4.2,8.6-8.5,21.9-11.4,32.2L412.2,624.7z M268.6,601.3c2.3,6.3,3.6,11.2,4,15.5
		c0.3,3.2,4.6,4.1,7.1,4.1h0.1c3.3,0,5.4-1.3,5.5-1.9c0-3.1-0.1-6.2-0.4-9.2c-0.3-4.5-0.8-10.4-0.8-16.5L268.6,601.3z M336.4,606.1
		c1.6,0,3.1,0.1,4.7,0.4c-1.2-0.3-2.4-0.5-3.7-0.5c-0.8,0-1.6,0-2.3,0.1L336.4,606.1z M337.4,600.2c3.9,0,7.7,1.1,10.8,3.4
		c0.1-0.3,0.2-0.6,0.3-0.9l-20.5-10.6c0.2,3.6,0.3,6.9,0.2,9.8C331.2,600.8,334.3,600.2,337.4,600.2L337.4,600.2z M252.1,585.7
		c-2.4,0-4.7,1.1-6.1,3.2c-2,2.7-2.3,8-1,13.9l14.8-7.7c-1.1-2.6-2.5-5.4-4.3-8.8C254.4,585.9,253.3,585.7,252.1,585.7z
		 M351.2,593.3c3-10.2,7.2-23.3,11.5-32c1.7-3.5,3.1-7,4.3-10.7L325.5,572c0.5,3,1,5.9,1.4,8.7L351.2,593.3z M242,547.7
		c2.2,5.4,4.8,10.7,7.6,15.8c1.7,3.2,3.4,6.1,5,9c4.1,7.4,7.7,13.8,10.4,20l19.7-10.2c0.2-1.6,0.4-2.7,0.6-4.1l0.1-0.5
		c0.4-2.4,0.8-4.5,1.1-6.9L242,547.7z M291.9,573.4c-0.3,1.7-0.5,3.3-0.9,5.2l-0.1,0.4l5.9-3L291.9,573.4z M320.6,577.4
		c-0.1-0.9-0.3-1.8-0.4-2.7l-2.4,1.3L320.6,577.4z M307.3,570.6l11-5.7c-1-4.3-2.3-9-3.3-12.5c-4.2-13.5-1.9-32.1-0.7-39.6
		c-3.2,0.1-6.4,0.1-9.5,0.1c-5.5,0-10.9-0.1-16.2-0.3c1.9,7.2,3.5,14.5,4.6,21.9c1,7.3,1.1,18,0.1,28.9L307.3,570.6z M320.2,512.6
		c-1,6-3.7,25,0.3,38.1c1,3.2,2.1,7.4,3.1,11.5l46.9-24.2c2.1-10.4,2.8-21.1,2-31.7C357.7,509.8,340.2,511.9,320.2,512.6
		L320.2,512.6z M287.7,560.4c0.8-9.6,0.7-18.8-0.2-25.2c-1.2-7.8-2.9-15.4-4.9-23c-19.3-1-36.1-3.5-50.1-7.2
		c1.2,10.1,3.1,20,5.6,29.8L287.7,560.4z M378,504.8c0.8,10,0.4,20-1.2,29.9l13.5-6.9l-5.6-24.9C382.6,503.6,380.3,504.2,378,504.8
		L378,504.8z M397.2,531.8l-0.6-2.5c0,0,0,0.1,0,0.1l0.5,2.3C397.1,531.7,397.2,531.8,397.2,531.8L397.2,531.8z M231.3,531.4
		c-2-8.2-3.4-16.6-4.5-25l-4.6,20.3L231.3,531.4z M396.3,527.9l-6.1-27l0,0L396.3,527.9L396.3,527.9z M230.4,498.6
		c19.2,5.7,44.2,8.6,74.4,8.6c27.4,0,50.6-2.4,69-7.1c0.2-0.1,0.4-0.2,0.7-0.2h0.1c3.9-1,7.5-2.1,10.9-3.3c0.2-0.1,0.5-0.2,0.7-0.3
		l0,0c1.6-0.6,3.1-1.2,4.6-1.8c0.2-0.1,0.4-0.2,0.7-0.3c8.5-3.6,15.2-8,20-13.1c6.5-6.6,9.8-15.6,9.3-24.9
		c-0.9-17.7-8.7-29.8-16.3-41.5c-9.2-14.1-18.6-28.7-16.5-52.7c1.5-16.4,5.6-32.7,9.7-48.4c6.5-25.3,12.6-49.1,5.3-66.9
		c-5.8-14.1-14.8-19.9-31.1-19.9c-7.8,0-16.9,1.3-27.1,2.8c-4.8,0.9-9.9,1.6-15.2,2.2l-0.8,0.1c-0.1,0-0.2,0-0.3,0h-0.1
		c-7.5,0.8-15.5,1.1-23.6,1.1c-9.8,0-19.6-0.6-29.4-1.8h-0.1c-0.1,0-0.2,0-0.3,0c-3.2-0.4-6.2-0.9-9.2-1.3l0.2-2.1l-0.3,2.1
		c-11.4-1.6-21.3-3-29.4-3c-13.1,0-23.2,3.4-29.7,19.7c-7.1,17.9-1.1,41.6,5.3,66.8c4,15.8,8.2,32,9.6,48.5
		c2.2,24-7.3,38.6-16.5,52.7c-7.6,11.7-15.4,23.8-16.3,41.5c-0.6,9.2,2.8,18.3,9.3,24.9c6.8,7.2,17.5,13,31.6,17.3
		C229.8,498.4,230.1,498.5,230.4,498.6z M393.8,361.7c4.8,8.6,9.8,13,15,13c0.3,0,0.5,0,0.8,0c8.8-0.8,18.7-14.3,25.8-35.3
		c6.7-20.3,11.8-41.1,15.1-62.3c0.2-1.4,1.4-2.5,2.8-2.5h0.3h0.6c7.8,0,13.8-8.7,13.9-8.8c0.5-0.7,1.2-1.1,2-1.2h0.2
		c-2.4-2.1-5-4-7-4h-0.3c-1.7,0.2-3.3,0.3-5,0.3c-4.8,0.1-8.6,0.1-13.8,5.1c-5.8,5.6-24.1,42.8-33.3,62.3c1,3.4,1.8,5.5,2,5.9
		c0.6,1.5-0.1,3.1-1.6,3.7c-1.5,0.6-3.1-0.1-3.7-1.6c0,0,0,0,0,0c-0.2-0.5-1.2-3.2-2.4-7.4c0,0,0-0.2-0.1-0.2
		c-0.8-2.7-1.7-6.3-2.5-10.6C398.8,332.4,395.2,347.1,393.8,361.7z M198,273.9c-20.7,24.8-43.2,57.8-42.8,74.8
		c0.2,6.4,1.9,10.3,5.2,11.8c1.3,0.5,2.6,0.8,4,0.7c12.5,0,34.8-16.1,46.8-26.3c-0.8-3.4-1.6-7.1-2.7-11.4l-10.1,11.1
		c-1.1,1.2-2.9,1.3-4.1,0.2s-1.3-2.9-0.2-4.1l12.7-13.9l-0.5-1.9C202.7,300.5,199.2,286.7,198,273.9z M480.2,278.4
		c-0.1-0.2-0.2-0.4-0.4-0.6c-0.1,0-0.3-0.1-0.4-0.2c-3-1.9-5.8-4-8.5-6.2c-2.4,2.9-5.4,5.3-8.8,7L480.2,278.4z M251.3,220.6
		c15.5,4.5,33.5,6.8,53.5,6.8c8,0,16-0.4,24-1.2c4.2-0.6,8.3-1.2,12.3-1.8l3.4-0.5c4.7-0.9,9.4-2,13.8-3.3
		c-3.6-33.6-12-71-12.1-71.4c-0.3-1.5,0.6-3.1,2.2-3.4c0.2,0,0.4-0.1,0.6-0.1c1.3,0,2.5,0.9,2.8,2.2c0.9,4,8.6,38.8,12.1,70.9
		c15.8-5.4,24.1-11.9,26.6-14.1c-1.2-9.9-10-79.2-22.7-106.9c-13.2-28.7-33.8-42.6-63-42.6s-49.8,14-63,42.6
		c-12.7,27.8-21.5,97-22.7,106.9c2.7,2.4,10.8,8.7,26.7,14.1c1.5-12.6,6.9-52.9,16.9-94.1c0.3-1.3,1.5-2.2,2.8-2.2
		c0.2,0,0.5,0,0.7,0.1c1.5,0.4,2.5,1.9,2.1,3.5c0,0,0,0,0,0C258,168.3,252.6,210.5,251.3,220.6z"/>
	<path class="st2" d="M304.8,51.6c30.8,0,52.4,14.6,66.2,44.7c14,30.6,23.1,108.6,23.2,109.4c0,0.2,0,0.4-0.2,0.6
		c-0.1,0.2-9.3,9.8-32.2,16.9c-0.1,0.1-0.2,0.2-0.4,0.2h-0.2l-2.5,0.8c4.3-0.5,8.5-0.8,12.8-0.8c15.8,0,27.6,4.8,34.7,22.1
		c6.5,16,3,36-2.2,57.5c0.5,7.8,1.8,15.6,3.9,23.2c4.6-9.7,26.5-55.5,33.7-62.6c6.2-6,11.3-6.1,16.2-6.2c1.5,0,3-0.1,4.5-0.2
		c0.3,0,0.6,0,0.8,0c4.7,0,9.7,5,13.7,9c1.3,1.4,2.6,2.6,4.1,3.8c2.5,1.6,3,3.8,2.2,5.2c-0.2,0.3-0.4,0.5-0.6,0.7
		c1.4,1.7,1.8,4,0.9,6c-0.1,0.2-0.4,0.4-0.7,0.4h-29.6c-3.4,19.8-8.2,39.4-14.5,58.5c-7.6,22.7-18.4,36.8-28.9,37.7
		c-0.4,0-0.7,0-1.1,0c-6.2,0-12.1-4.5-17.3-13.5c-1.2,21.3,7.2,34.3,16,48c7.8,12.1,16,24.6,16.9,43.3c0.7,10.2-3,20.3-10.2,27.6
		c-5.4,5.7-12.7,10.2-21.1,13.8l36,159.7c0.6,0.7,3.2,3.8,4.4,5c0.7,0.6,0.9,1.6,0.6,2.4c-0.7,1.6-3.5,2.5-8.2,2.5
		c-5,0-8-0.8-8.7-2.2c-0.3-0.7-0.2-1.4,0.3-2c0.8-1.1,3.5-4.6,4.2-5.6l-4.9-21.8l-64.4-33.2c-1.3,4.8-1.7,6.2-1.7,6.2
		c0,0.1,0,0.2-0.1,0.2c2.6,3.1,4.1,7,4.2,11c-0.1,8,3.8,21.5,3.9,22.1c0.1,0.3,0.2,0.7,0.4,1c0.7,1.6,1.6,3.9,0.2,6.2
		c-2.1,3.3-8.6,5.1-20.1,5.7c-1.7,0.1-3.2,0.1-4.7,0.1c-10.4,0-16.8-2-19-5.9c-1.3-2.3-1-5.2,0.7-7.7c0.4-0.6,0.8-1.1,1.2-1.7
		c1.2-1.5,1.2-1.5,0.8-11l-0.2-4.6c-0.1-1.7-0.1-3.4,0.1-5.1v-0.1c0.3-4,2-7.7,4.6-10.6c0.5-0.5,1-1,1.5-1.4c0-0.1,0-0.2,0-0.3
		c0.6-6.2,0.5-12.4-0.2-18.6c0,0,0,0,0-0.1l-16.8-8.7L287.8,589c-0.1,6.8,0.2,13.7,0.8,20.5c0.3,3.2,0.5,6.4,0.4,9.5
		c4.6,8.4,5.6,15.1,3.2,19.7s-7.9,6.1-11.9,6.5c-0.5,0-0.9,0.1-1.4,0.1c-6,0-9.3-3.8-14.5-9.8c-3.3-3.9-6.7-7.6-10.4-11.2
		c-3.9-3.6-7.1-7.9-9.5-12.7c0-0.1-0.1-0.2-0.1-0.2l-49.2,25.3l0,0l-4.9,21.6c0.8,1,3.4,4.5,4.2,5.6c0.5,0.6,0.6,1.3,0.3,2
		c-0.7,1.5-3.7,2.2-8.7,2.2c-4.7,0-7.5-0.9-8.2-2.5c-0.3-0.9-0.1-1.8,0.6-2.4c1.2-1.2,3.8-4.3,4.4-5l36-159.7
		c-9.5-3.8-17.6-8.7-23.5-14.9c-7.2-7.3-10.9-17.3-10.2-27.5c0.9-18.7,9-31.2,16.9-43.3c9.2-14.2,18-27.6,15.9-50.4
		c-0.8-8.4-2.2-16.8-4-25c-5.4,4.7-33,27.4-49.6,27.5c-1.8,0-3.7-0.3-5.4-1c-4.7-2-7.1-7.1-7.3-14.9c-0.7-26.5,44.8-78.8,48.1-82.5
		c-0.2-7.1,0.9-14.2,3.4-20.9c6.8-17.1,17.6-22,33.2-22c5.3,0.1,10.6,0.5,15.9,1.1c-1.4-0.4-2.8-0.8-4.1-1.2h-0.1
		c-0.1,0-0.3-0.1-0.4-0.2c-22.9-7.2-32-16.8-32.2-16.9c-0.1-0.2-0.2-0.4-0.2-0.6c0.1-0.8,9.2-78.8,23.2-109.4
		C252.4,66.2,274.1,51.5,304.8,51.6 M247.6,221.7c0.8-6.8,6.2-51.4,17.2-96.4c0.1-0.3,0.4-0.6,0.7-0.5h0.2c0.4,0.1,0.6,0.5,0.5,0.9
		c-11.1,45.6-16.5,90.6-17.2,96.5c13.5,4.1,31.8,7.4,55.8,7.4c8.1,0,16.2-0.4,24.2-1.2c4.3-0.6,8.4-1.2,12.4-1.8l3.4-0.5
		c5.3-1,10.6-2.3,15.8-3.9c-3.5-34.1-12.2-73-12.3-73.4c-0.1-0.4,0.1-0.8,0.5-0.9c0,0,0,0,0,0h0.2c0.3,0,0.6,0.2,0.7,0.6
		c0.1,0.4,8.8,39.2,12.3,73.3c20.2-6.4,29.2-14.6,30.7-16.1c-0.7-5.7-9.6-79.3-23-108.6C356.2,67.4,334.9,53,304.8,53
		s-51.4,14.4-64.9,43.9c-13.5,29.4-22.4,103-23,108.6C218.4,207,227.5,215.3,247.6,221.7 M328.5,229.8h-0.1
		c-7.8,0.8-15.7,1.2-23.6,1.1c-9.8,0-19.6-0.6-29.3-1.8h-0.2l-9.3-1.3c-11.7-1.6-21.5-3-29.8-3c-15.2,0-25.2,4.7-31.7,21.1
		c-7.4,18.5-1.2,42.6,5.3,68.2c4,15.7,8.1,31.9,9.6,48.1c2.1,23.3-7.2,37.6-16.1,51.3c-7.8,11.9-15.8,24.3-16.6,42.6
		c-0.6,9.8,2.9,19.4,9.8,26.5c7.7,8.1,19.3,13.9,32.7,17.9c0.1,0,0.3,0,0.4,0.1c23,6.9,51.5,8.7,75.2,8.7c21.9,0,47.8-1.6,69.7-7.2
		c0.1,0,0.2-0.1,0.3-0.1h0.1c4-1,7.8-2.2,11.5-3.5c0.1-0.1,0.2-0.1,0.3-0.1h0.1c1.7-0.6,3.5-1.3,5.1-2c0.1-0.1,0.2-0.1,0.3-0.1l0,0
		c8.4-3.6,15.6-8.1,21-13.7c6.9-7,10.5-16.6,9.8-26.5c-0.9-18.3-8.9-30.6-16.6-42.6c-9-13.8-18.2-28-16.1-51.3
		c1.5-16.2,5.6-32.4,9.6-48.1c6.5-25.6,12.7-49.7,5.2-68.2c-6.8-16.6-17.8-21.3-33.1-21.3c-8,0-17.1,1.3-27.4,2.8
		c-4.7,0.9-9.7,1.6-15.1,2.2L328.5,229.8L328.5,229.8 M410.2,336c-0.3,0-0.6-0.2-0.7-0.5c0-0.1-1.1-2.7-2.4-7.2c0,0,0-0.1,0-0.1
		c-2-6.9-3.3-13.9-4.1-21c-0.6,2.4-1.2,4.8-1.8,7.2c-4,15.5-8.1,31.6-9.6,47.7c5.3,9.8,11.1,14.7,17.2,14.7c0.3,0,0.7,0,1,0
		c9.9-0.8,20.2-14.6,27.6-36.7c6.8-20.4,11.9-41.4,15.2-62.7c0-0.3,0.3-0.6,0.7-0.6h0.1c0.3,0,0.5,0,0.8,0c9.1,0,15.6-9.7,15.7-9.8
		c0.1-0.2,0.3-0.3,0.5-0.3h0.1c0.2,0,0.3,0.1,0.5,0.2c2.8,2.3,8.5,6.8,10.1,7.6c0.1,0.1,0.3,0.1,0.5,0.1c0.2,0,0.4-0.1,0.5-0.3
		c0.3-0.6,0.2-2-1.7-3.3c-1.6-1.2-3-2.5-4.3-3.9c-3.7-3.7-8.7-8.6-12.7-8.6c-0.2,0-0.4,0-0.6,0c-1.6,0.2-3.1,0.3-4.7,0.3
		c-4.8,0.1-9.4,0.1-15.2,5.8c-7.5,7.3-32.2,59.6-34.1,63.7c1.2,4.3,2.3,6.8,2.3,6.9c0.1,0.4,0,0.8-0.4,0.9c0,0,0,0,0,0
		C410.4,336,410.3,336,410.2,336 M164.4,363.3c16.6,0,45.9-24.8,49.2-27.6c-1.2-5.6-2.6-11.1-4-16.6l-12.8,14.1
		c-0.1,0.1-0.3,0.2-0.5,0.2c-0.2,0-0.3-0.1-0.5-0.2c-0.3-0.3-0.3-0.7,0-1l13.4-14.8c-0.3-1-0.5-2-0.8-3c-4.1-16.2-8.1-31.9-8.6-46
		c-7.5,8.7-47.3,56.3-46.7,80.3c0.2,7.3,2.4,11.9,6.5,13.7C161.1,363.1,162.8,363.4,164.4,363.3L164.4,363.3 M454.2,278.2h-0.3
		l-0.4,2.4h28.9c0.8-2.2-0.9-4.1-1.4-4.6c-0.2,0-0.5-0.1-0.7-0.2c-1.9-0.9-7.9-5.7-9.8-7.3C468.9,270.7,462.7,278.2,454.2,278.2
		 M425.9,665.6c4.6,0,6.6-0.9,6.9-1.6c0.1-0.3-0.1-0.7-0.3-0.8c-1.4-1.4-4.5-5.1-4.6-5.2c-0.1-0.1-0.1-0.2-0.2-0.3l-36-159.6
		c-1.3,0.5-2.7,1.1-4.1,1.6l6.6,29.1c0.1,0.1,0.1,0.1,0.2,0.2c0.1,0.2,0.1,0.4,0,0.6l0.7,3.1c0.1,0.1,0.1,0.1,0.2,0.2
		c0.1,0.2,0.1,0.4,0,0.6L418,634.4h0c0.4,0.2,0.5,0.6,0.3,0.9c0,0,0,0,0,0.1c0,0.1-0.1,0.1-0.1,0.1l4.9,21.7c0,0.2,0,0.4-0.1,0.6
		c0,0-3.5,4.5-4.4,5.8c-0.2,0.3-0.2,0.4-0.1,0.5S419.4,665.6,425.9,665.6 M186.1,666.6c6.5,0,7.3-1.3,7.4-1.4s0.1-0.2-0.1-0.5
		c-1-1.3-4.4-5.8-4.4-5.8c-0.1-0.2-0.2-0.4-0.1-0.6l35.6-157.9c-1.4-0.5-2.8-1-4.1-1.5l-36,159.7c0,0.1-0.1,0.2-0.2,0.3
		c-0.1,0.2-3.2,3.8-4.6,5.2c-0.2,0.2-0.5,0.5-0.3,0.9C179.5,665.7,181.5,666.6,186.1,666.6 M373.9,538.6l18.8-9.7l-6.5-28.9
		c-3.4,1.2-6.9,2.3-10.6,3.2C376.8,515,376.3,526.9,373.9,538.6 M234.5,535.5c-2.9-11.1-4.9-22.4-6-33.8c-0.9-0.3-1.8-0.5-2.7-0.8
		l-6.1,27L234.5,535.5 M289.6,563.9c1.1-10.9,1.1-21.6,0-28.9c-1.3-8.3-3.1-16.6-5.4-24.7c-18.3-0.9-37.6-3.2-54.2-8.1
		c1.2,11.6,3.3,23,6.3,34.2L289.6,563.9 M322,565.4l50.3-25.9c0,0,0-0.1,0-0.1c2.5-11.7,3.1-23.8,1.9-35.7
		c-17.6,4.4-37.5,6.3-55.9,6.9c-0.6,3.1-4.6,25.6,0,40.8C319.5,555.3,321,560.8,322,565.4 M307.2,573l13.5-7
		c-1-4.7-2.5-10.3-3.7-14.3c-4.7-15.1-0.9-37-0.2-41.2c-4.1,0.1-8.2,0.2-12.1,0.2c-6.1,0-12.5-0.1-19.1-0.4c2.2,8,4,16.2,5.3,24.4
		c1.1,7.5,1,18.6-0.1,29.8L307.2,573 M196.3,631.7L196.3,631.7l-0.7,3.2L307,577.5c0.2-0.1,0.5-0.1,0.7,0l108.8,56.1l-0.7-3.1
		l-104.5-53.9c-0.2-0.1-0.4-0.4-0.4-0.6c0-0.3,0.2-0.5,0.4-0.6l60-30.9c0,0,0,0,0,0c0.1-0.3,0.4-0.5,0.7-0.5c0.1,0,0.1,0,0.2,0
		l0.1,0l21.5-11.1l-0.5-2.4l-85.5,44.1c-0.2,0.1-0.5,0.1-0.7,0l-87.5-45.1l-0.5,2.4l18.2,9.4l0,0l52.8,27.2l0,0l13.4,6.9
		c0.2,0.1,0.4,0.4,0.4,0.6c0,0.3-0.1,0.5-0.4,0.6l-106.7,55.1C196.6,631.8,196.4,631.8,196.3,631.7 M196.7,630.1l45.6-23.5
		c-2.6-8.1-2.3-15.7,0.7-19.8c2-2.9,5.4-4.7,9-4.6c1.4,0,2.7,0.2,4,0.6c-1.5-2.7-3-5.5-4.7-8.5s-3.3-5.9-5-9.1
		c-4.1-7.3-7.6-15-10.2-22.9l-17.7-9.1L196.7,630.1 M415.3,628.7L394,534.3l-21.6,11.1c-1.6,6-3.7,11.8-6.5,17.4
		c-4.5,9.3-9,23.7-12.1,34.2L415.3,628.7 M263.9,595.4l22.8-11.8c0-0.1,0-0.1,0-0.2c0.1-1.6,0.4-3.3,0.7-4.9l0.1-0.5
		c0.5-3,0.9-5.3,1.3-8.5l-50.8-26.2c2.6,7.3,5.8,14.5,9.7,21.2c1.7,3.2,3.4,6.2,5,9C257.2,581.7,261.1,588.7,263.9,595.4
		 M352.5,596.4c3-10.6,7.5-24.9,12.1-34.2c2.5-5.1,4.5-10.4,6-15.9L323,570.9c0.1,0.1,0.1,0.2,0.2,0.3c0.7,3.6,1.3,7.3,1.7,10.8
		c0,0,0,0.1,0,0.1L352.5,596.4 M288.2,582.9l13.3-6.9l-11.3-5.8c-0.4,3-0.8,5.2-1.3,8.1l-0.1,0.5
		C288.5,580.2,288.3,581.3,288.2,582.9 M323.3,581.2c-0.4-3.2-1-6.5-1.6-9.8l-8.7,4.5L323.3,581.2 M243.6,605.8l19-9.8
		c-1.5-3.7-3.4-7.5-5.6-11.6h-0.1c-0.1,0-0.2,0-0.3-0.1c-1.5-0.6-3-0.9-4.6-0.9c-3.1-0.1-6.1,1.4-7.8,4
		C241.5,591.2,241.3,598.1,243.6,605.8 M325.8,605.4c3.5-2.1,7.5-3.2,11.6-3.2l0,0c4.5,0,8.9,1.8,12.1,5c0.2-0.8,0.7-2.5,1.5-5.7
		c0-0.1,0.1-0.1,0.1-0.2l-25.5-13.2C326.2,594,326.3,599.7,325.8,605.4 M279.7,623h0.2c3.5,0,7.4-1.4,7.6-3.9c0-3.2-0.1-6.4-0.4-9.6
		c-0.4-5.8-0.9-12.9-0.8-19.8l-20.4,10.5c0,0.1,0.1,0.1,0.1,0.2c2.7,6.8,4.1,12.1,4.5,16.5C270.9,621.1,275.3,622.9,279.7,623
		 M278.7,643.7c0.4,0,0.8,0,1.2,0c3.7-0.3,8.6-1.6,10.8-5.7c2.1-4,1.3-9.7-2.5-17c-1.4,2.3-5,3.4-8.4,3.4h-0.2
		c-5,0-10.2-2.3-10.7-7.4c-0.4-4.3-1.8-9.4-4.4-16.1c0,0,0,0,0-0.1l-19.1,9.8c0.1,0.1,0.1,0.1,0.2,0.2c2.3,4.6,5.4,8.8,9.2,12.3
		c3.7,3.6,7.2,7.3,10.5,11.3C270.3,640.3,273.3,643.7,278.7,643.7 M321,613c4.6-4.9,12.3-4.9,15.3-4.9c5.9,0,12.8,2,16.3,7.1
		c-0.8-2.6-2.3-4.9-4.2-6.8c-2.9-3-6.9-4.7-11.1-4.7l0,0c-2.6,0-9.2,0.5-13.6,5.2C322.6,610.1,321.7,611.5,321,613 M334.6,653.2
		c1.4,0,3,0,4.6-0.1c10.8-0.5,17.2-2.2,19-5c1-1.6,0.3-3.4-0.3-4.9c-0.2-0.5-0.3-0.8-0.5-1.2c-0.2-0.5-3.6-12.7-3.9-20.9
		c-1.1-8.5-9.5-11.6-17-11.6c-9.9,0-15.2,2.9-16.9,9.2c-0.2,1.6-0.2,3.2-0.2,4.9l0.2,4.6c0.5,9.9,0.5,10.1-1.1,12
		c-0.4,0.5-0.8,1-1.2,1.5c-0.5,0.8-2.1,3.6-0.6,6.2C318.2,650.5,322.5,653.2,334.6,653.2 M304.8,47.3c-32.6,0-55.6,15.5-70.1,47.3
		c-14.3,31.3-23.5,110-23.5,110.7c-0.2,1.5,0.3,2.9,1.3,4c0.3,0.3,4.8,5.1,15.3,10.5c-13.9,2.1-22.7,9.6-28.4,24.1
		c-2.5,6.6-3.8,13.7-3.7,20.8c-8.5,9.8-48.8,57.8-48.1,84.3c0.3,12.1,5.5,16.9,9.9,18.8c2.2,0.9,4.7,1.4,7.1,1.4
		c14.7,0,35.6-14.9,46.8-23.9c1.1,5.8,1.9,11.6,2.5,17.5c1.9,21.3-6,33.5-15.2,47.7c-8.2,12.6-16.6,25.5-17.5,45.4
		c-0.7,11.4,3.4,22.6,11.4,30.7c5.4,5.6,12.6,10.5,21.7,14.5l-35,155.2c-1.3,1.5-2.8,3.2-3.5,3.9c-1.9,1.8-2.5,4.6-1.5,7.1
		c2.1,5.2,9.7,5.2,12.2,5.2c4.8,0,10.5-0.5,12.6-4.6c1-2.1,0.8-4.6-0.7-6.5c-0.5-0.7-2-2.6-3-4l4-17.6l43.6-22.5
		c2.3,3.8,5.1,7.2,8.4,10.3c3.6,3.4,6.9,7.1,10.1,10.8c5.4,6.3,9.7,11.3,17.7,11.3c0.6,0,1.2,0,1.8-0.1c7.3-0.6,12.7-3.7,15.4-8.7
		c3.1-5.8,2.2-13.4-2.6-22.8c0-2.2-0.2-5.2-0.5-8.8c-0.4-5.1-0.8-11.3-0.8-17.5l15.3-7.9l12.7,6.6c0.4,4.7,0.5,9.4,0.2,14.2
		c-0.2,0.2-0.3,0.3-0.5,0.5c-3.3,3.6-5.3,8.1-5.8,12.9c0,0.1,0,0.2,0,0.4c-0.2,1.9-0.3,3.8-0.2,5.8l0.2,4.6c0.2,4.2,0.4,7,0.3,8
		l-0.1,0.1c-0.3,0.4-0.8,1.1-1.5,2c-2.6,4-3,8.5-0.8,12.3c3.1,5.5,10.5,8.1,22.8,8.1c1.5,0,3.2,0,4.9-0.1c13.3-0.7,20.6-3,23.5-7.7
		c2.6-4.1,0.9-8.3,0.1-10.1c-0.1-0.3-0.2-0.4-0.2-0.6s-3.9-13.4-3.9-20.8c0-3.8-1.1-7.5-3-10.7l56.9,29.3l4,17.9
		c-1.1,1.4-2.5,3.3-3,4c-1.4,1.9-1.7,4.4-0.7,6.5c2,4.1,7.8,4.6,12.5,4.6c2.5,0,10,0,12.2-5.2c1-2.5,0.4-5.3-1.5-7.1
		c-0.7-0.7-2.2-2.4-3.5-3.9l-35-155.2c7.2-3.2,13.7-7.8,19.2-13.3c8-8.1,12.2-19.3,11.4-30.7c-1-19.9-9.4-32.8-17.5-45.4
		c-6.6-10.1-12.8-19.8-14.8-32.8c3.4,3.1,7.9,4.9,12.5,5c0.5,0,1,0,1.5-0.1c12.4-1,24.3-15.9,32.6-40.6c6-18.2,10.7-36.7,14.1-55.5
		h26c1.9,0,3.7-1.1,4.5-2.8c1.2-2.5,1.3-5.3,0.2-7.8c0.9-3-0.2-6.9-4.2-9.5c-1.2-1-2.3-2-3.4-3.2l-0.1-0.1
		c-4.6-4.6-10.3-10.3-16.7-10.3c-0.5,0-0.9,0-1.4,0.1c-1.3,0.2-2.7,0.2-4,0.2c-5.2,0.1-11.7,0.1-19.2,7.4
		c-6,5.9-19.9,33.3-29.1,52.4c-0.5-3-0.9-6.2-1.1-9.5c4.8-19.5,9.1-41.8,1.9-59.5c-6.8-16.5-17.8-22.2-28.5-24
		c10.5-5.4,15.1-10.2,15.3-10.5c1-1.1,1.5-2.5,1.3-4c-0.1-0.8-9.2-79.4-23.5-110.7C360.4,62.7,337.5,47.2,304.8,47.3L304.8,47.3z
		 M221.4,203.8c1.6-13.2,10.2-78.5,22.4-105.1c12.8-27.9,32.7-41.4,61-41.4s48.2,13.5,61,41.4c12.2,26.6,20.8,92,22.4,105.1
		c-2.9,2.4-10,7.5-22.5,12c-3.8-32.7-11.7-68.1-11.8-68.4c-0.5-2.3-2.5-3.9-4.9-3.9c-0.4,0-0.7,0-1.1,0.1c-2.7,0.6-4.4,3.2-3.8,5.9
		c0,0,0,0,0,0.1c0.1,0.4,8.2,36.4,11.8,69.4c-3.8,1-7.8,2-11.9,2.8l-3.3,0.5c-4.1,0.6-8.1,1.2-12.3,1.8c-7.9,0.8-15.8,1.2-23.7,1.2
		c-19,0-36.2-2.1-51.1-6.2c1.6-12.6,6.9-52.4,16.7-92.4c0.3-1.3,0.1-2.7-0.6-3.8c-0.7-1.1-1.8-2-3.1-2.3c-0.4-0.1-0.8-0.1-1.2-0.1
		c-2.3,0-4.3,1.6-4.9,3.8c-7.2,30.2-12.7,60.8-16.6,91.7C231.5,211.3,224.4,206.2,221.4,203.8L221.4,203.8z M345.2,231.8
		c10.1-1.5,19.1-2.7,26.7-2.7c15.5,0,23.7,5.2,29.1,18.5c7,17.1,1,40.6-5.4,65.5c-4.1,15.8-8.3,32.2-9.7,48.8
		c-2.2,24.8,7.9,40.3,16.8,54.1c7.8,12,15.1,23.3,15.9,40.4c0.6,8.6-2.6,17.1-8.7,23.3c-4.6,4.8-11.1,9.1-19.2,12.6
		c-0.3,0.1-0.6,0.2-0.9,0.4c-1.4,0.6-2.9,1.2-4.3,1.7c-0.3,0.1-0.7,0.2-1,0.3c-3.2,1.1-6.7,2.2-10.4,3.2l0,0c-0.3,0.1-0.7,0.1-1,0.3
		c-18.2,4.6-41.2,7-68.3,7c-29.9,0-54.7-2.8-73.7-8.4c-0.3-0.1-0.7-0.2-1-0.3c-13.7-4.2-23.9-9.8-30.5-16.7
		c-6.1-6.2-9.2-14.6-8.7-23.3c0.8-17.2,8.2-28.5,15.9-40.4c8.9-13.7,19-29.3,16.8-54.1c-1.5-16.6-5.7-33-9.7-48.8
		c-6.3-24.9-12.3-48.3-5.4-65.5c5.3-13.4,12.8-18.4,27.7-18.4c8,0,17.8,1.4,29.1,3h0.2c2.9,0.4,6,0.9,9.1,1.3c0.2,0,0.4,0,0.6,0
		c9.8,1.2,19.6,1.8,29.5,1.8c8.1,0,16.1-0.4,23.7-1.1l0,0c0.2,0,0.4,0,0.6,0l0.5-0.1l0.3,0C335.2,233.4,340.3,232.7,345.2,231.8
		L345.2,231.8z M413.2,328.5c10.6-22.4,27.4-56,32.5-60.9c4.6-4.5,7.8-4.5,12.3-4.5c1.7,0,3.5-0.1,5.2-0.3l0,0
		c1.2,0.2,2.3,0.8,3.3,1.6c-0.1,0.1-0.2,0.2-0.2,0.3c-1.5,2.1-6.6,7.8-12.1,7.8h-0.5h-0.3c-2.5,0-4.7,1.8-5,4.3
		c-3.3,21-8.3,41.7-15,61.9c-8.1,24.2-17.9,33.3-23.9,33.8h-0.6c-5.1,0-9.7-5.9-12.8-11.3c1.3-11.4,3.4-22.7,6.3-33.9
		c0.2,0.7,0.4,1.4,0.6,2.1c0,0.1,0,0.2,0.1,0.3c1.3,4.7,2.5,7.5,2.5,7.5c1,2.6,4,3.8,6.5,2.8c2.6-1,3.8-4,2.8-6.5
		C414.8,333.4,414.1,331.6,413.2,328.5L413.2,328.5z M469.2,276.3c0.7-0.6,1.4-1.3,2-1.9l2.5,1.9H469.2z M164.4,359
		c-1.1,0-2.1-0.2-3.1-0.6c-3-1.3-3.8-6.1-3.9-9.8c-0.4-15.6,19.5-45.5,39-69.5c1.5,11.5,4.6,23.6,7.8,36.3l0.2,0.8l-11.9,13.1
		c-1.9,2.1-1.7,5.2,0.3,7.1c2.1,1.9,5.2,1.7,7.1-0.3l7.4-8.1c0.5,2.2,1,4.2,1.5,6.2C196.8,344.1,176,359,164.4,359L164.4,359z
		 M380.3,506.5c1-0.3,1.9-0.5,2.8-0.8l4.7,21l-8.3,4.3C380.6,522.8,380.8,514.6,380.3,506.5L380.3,506.5z M239.9,533.5
		c-2.2-8.4-3.8-16.9-5-25.5c13.1,3.2,28.5,5.4,45.9,6.4c1.9,7,3.4,14.1,4.5,21.2c0.8,7.1,1,14.3,0.4,21.5L239.9,533.5z M322,514.7
		c18.3-0.7,34.5-2.7,48.4-5.7c0.5,9.2-0.2,18.5-1.9,27.6L325,559c-0.8-3.2-1.7-6.4-2.5-8.9C319,538.5,320.9,521.9,322,514.7
		L322,514.7z M295.5,562.1c0.9-10.5,0.8-20.8-0.2-27.9c-1-6.9-2.7-14.2-3.9-19.3c4.4,0.1,8.9,0.2,13.4,0.2c2.3,0,4.7,0,7-0.1
		c-1.2,8.8-2.8,25.5,1.1,38c0.9,2.9,2,6.9,2.9,10.7l-8.5,4.4L295.5,562.1L295.5,562.1z M224.7,525.6l1.7-7.4c0.5,2.8,1.1,6,1.8,9.2
		L224.7,525.6z M202.9,621.9l18.6-82.3l11.1,5.7c2.7,7.6,6,14.9,10,21.9c1.8,3.3,3.5,6.3,5,9.1c0.3,0.6,0.7,1.2,1,1.8
		c-3.7,0.8-6.9,2.9-9.1,6c-3.4,4.6-4.2,12-2.3,20.1L202.9,621.9z M376,548.4l15-7.7l18,80l-50.1-25.8c2.9-9.9,6.9-22.1,10.8-30.1
		C372.3,559.5,374.4,554,376,548.4L376,548.4z M266,589.5c-2.6-5.6-5.9-11.5-9.5-18l-0.1-0.2c-1.6-2.8-3.2-5.7-4.9-8.8
		s-3.5-6.5-5.1-10l37.8,19.4c-0.3,1.8-0.6,3.5-0.9,5.3l-0.1,0.5c-0.2,1.1-0.4,2-0.5,3.1L266,589.5L266,589.5z M328,573.2l35.2-18.1
		c-0.7,1.8-1.5,3.6-2.3,5.3c-4,8.1-7.9,20-10.9,29.8l-21-10.8C328.7,577.3,328.4,575.2,328,573.2L328,573.2z M246.7,599.5
		c-0.7-4.5,0-7.8,1.1-9.4c1-1.5,2.6-2.3,4.4-2.3c0.7,0,1.3,0.1,2,0.3c1.1,2.2,2.1,4.2,3,6L246.7,599.5L246.7,599.5z M330.5,598.9
		c0-1,0-2.1,0-3.2l4.7,2.4C333.7,598.3,332.1,598.5,330.5,598.9L330.5,598.9z M271.3,602.4l10.8-5.5c0.1,4.8,0.5,9.4,0.7,13.1
		c0.3,3.4,0.5,6.4,0.5,8.2c-1.1,0.4-2.2,0.7-3.4,0.7h-0.1c-2.3,0-4.8-0.8-5-2.2C274.3,611.7,273.1,607,271.3,602.4z M251.6,612.5
		l10.7-5.5c1.2,3.4,2.1,6.9,2.5,10.5c0.6,6.7,6.7,11.3,15,11.3h0.3c2.2,0,4.4-0.4,6.5-1.2c1.3,3.7,1.5,6.6,0.5,8.4
		c-1.4,2.5-5.2,3.3-7.4,3.4c-0.3,0-0.6,0-0.8,0c-3.3,0-5.2-2-10.1-7.8c-3.4-4.1-7-7.9-10.8-11.6
		C255.5,617.8,253.4,615.3,251.6,612.5L251.6,612.5z M323.8,619.7c0.6-2,2-5.7,12.6-5.7c2.7,0,11.7,0.6,12.7,7.6
		c0.4,8.5,3.7,20.4,4.1,21.7c0.2,0.6,0.4,1.1,0.6,1.7c0.1,0.3,0.3,0.8,0.4,1.1c-0.8,0.6-4.1,2.3-15.3,2.8c-1.5,0.1-3,0.1-4.4,0.1
		c-12.2,0-14-2.9-14-3c-0.2-0.3,0.2-1.2,0.5-1.7c0.3-0.4,0.6-0.8,0.9-1.2c2.6-3.2,2.5-4.6,2-14.9l-0.2-4.6
		C323.7,622.3,323.7,621,323.8,619.7L323.8,619.7z"/>
	<path class="st0" d="M230,502.2c1.2,11.6,3.3,23,6.3,34.2l53.3,27.5c1.1-10.9,1.1-21.6,0-28.9c-1.3-8.3-3.1-16.6-5.4-24.7
		C265.9,509.3,246.6,507,230,502.2z"/>
	<path class="st0" d="M247.7,564.5c1.7,3.2,3.4,6.2,5,9c4.5,8.2,8.4,15.2,11.2,21.9l22.8-11.8c0-0.1,0-0.1,0-0.2
		c0.1-1.6,0.4-3.3,0.7-4.9l0.1-0.5c0.5-3,0.9-5.3,1.3-8.5l-50.8-26.2C240.6,550.6,243.9,557.7,247.7,564.5z"/>
	<path class="st4" d="M244.2,587.5c-2.7,3.7-3,10.7-0.6,18.3l19-9.8c-1.5-3.7-3.4-7.5-5.6-11.6c-0.1,0-0.2,0-0.3,0
		C256.3,584.3,248.9,581.1,244.2,587.5z"/>
	<path class="st1" d="M196.9,333.2c-0.1,0.1-0.3,0.2-0.5,0.2c-0.2,0-0.3-0.1-0.5-0.2c-0.3-0.3-0.3-0.7,0-1l13.4-14.8
		c-0.3-1-0.5-2-0.8-3c-4.1-16.2-8.1-31.9-8.6-46c-7.5,8.7-47.3,56.3-46.7,80.3c0.2,7.3,2.4,11.9,6.5,13.7c1.5,0.6,3.2,0.9,4.9,0.9
		c16.6,0,45.9-24.8,49.2-27.6c-1.2-5.6-2.6-11.1-4-16.6L196.9,333.2z"/>
	<path class="st4" d="M279.7,624.5c-5,0-10.2-2.3-10.7-7.4c-0.4-4.3-1.8-9.4-4.4-16.1c0,0,0,0,0-0.1l-19.1,9.8
		c0.1,0.1,0.1,0.1,0.2,0.2c2.3,4.6,5.4,8.8,9.2,12.3c3.7,3.6,7.2,7.3,10.5,11.3c5.4,6.3,8.4,9.8,14.6,9.2c3.7-0.3,8.6-1.6,10.8-5.7
		c2.1-4,1.3-9.7-2.5-17c-1.4,2.3-5,3.4-8.4,3.4L279.7,624.5z"/>
	<path class="st3" d="M329,228.3c4.3-0.6,8.4-1.2,12.4-1.8l3.4-0.5c5.3-1,10.6-2.3,15.8-3.9c-3.5-34.1-12.2-73-12.3-73.4
		c-0.1-0.4,0.1-0.8,0.5-0.9c0,0,0,0,0,0c0.4-0.1,0.8,0.2,0.9,0.5c0.1,0.4,8.8,39.2,12.3,73.3c20.2-6.4,29.2-14.6,30.7-16.1
		c-0.7-5.7-9.6-79.3-23-108.6C356.2,67.4,334.9,53,304.8,53s-51.4,14.4-64.9,43.9c-13.5,29.4-22.4,103-23,108.6
		c1.5,1.5,10.6,9.7,30.8,16.1c0.8-6.8,6.2-51.4,17.2-96.4c0.1-0.4,0.5-0.6,0.9-0.5c0.4,0.1,0.6,0.5,0.5,0.9
		c-11.1,45.6-16.5,90.6-17.2,96.5c13.5,4.1,31.8,7.4,55.8,7.4C312.9,229.5,321,229.1,329,228.3z"/>
	<path class="st3" d="M220.3,499l-36,159.7c0,0.1-0.1,0.2-0.2,0.3c-0.1,0.2-3.2,3.8-4.6,5.2c-0.2,0.2-0.5,0.5-0.3,0.9
		c0.3,0.7,2.3,1.6,6.9,1.6c6.5,0,7.3-1.3,7.4-1.4s0.1-0.2-0.1-0.5c-1-1.3-4.4-5.8-4.4-5.8c-0.1-0.2-0.2-0.4-0.1-0.6l35.6-157.9
		C223.1,500,221.7,499.5,220.3,499z"/>
	<path class="st0" d="M318.4,510.5c-0.6,3.1-4.6,25.6,0,40.8c1.2,3.9,2.6,9.4,3.7,14l50.3-25.9c0,0,0-0.1,0-0.1
		c2.5-11.7,3.1-23.8,1.9-35.7C356.7,508.1,336.8,510,318.4,510.5z"/>
	<path class="st0" d="M325.8,605.5c3.5-2.1,7.5-3.2,11.6-3.2l0,0c4.5,0,8.9,1.8,12.1,5c0.2-0.8,0.7-2.5,1.5-5.7
		c0-0.1,0.1-0.1,0.1-0.2l-25.5-13.2C326.2,594.1,326.3,599.8,325.8,605.5z"/>
	<path class="st4" d="M405,245.9c-10.3-25.1-30.3-22.9-60.5-18.4c-4.7,0.9-9.7,1.6-15.1,2.2l-0.8,0.1c-0.1,0-0.1,0-0.2,0
		c-7.8,0.8-15.7,1.2-23.6,1.1c-9.8,0-19.6-0.6-29.3-1.8c-0.1,0-0.1,0-0.2,0l-9.3-1.3c-33.1-4.7-51.3-7.3-61.4,18.1
		c-7.4,18.5-1.2,42.6,5.3,68.2c4,15.7,8.1,31.9,9.6,48.1c2.1,23.3-7.2,37.6-16.1,51.3c-7.8,11.9-15.8,24.3-16.6,42.6
		c-0.6,9.8,2.9,19.4,9.8,26.5c7.7,8.1,19.3,13.9,32.7,17.9c0.1,0,0.3,0,0.4,0.1c23,6.9,51.5,8.7,75.2,8.7c21.9,0,47.8-1.6,69.7-7.2
		c0.1,0,0.2-0.1,0.3-0.1h0.1c4-1,7.8-2.2,11.5-3.5c0.1-0.1,0.2-0.1,0.3-0.1h0.1c1.7-0.6,3.5-1.3,5.1-2c0.1-0.1,0.2-0.1,0.3-0.1l0,0
		c8.4-3.6,15.6-8.1,21-13.7c6.9-7,10.5-16.6,9.8-26.5c-0.9-18.3-8.9-30.6-16.6-42.6c-9-13.8-18.2-28-16.1-51.3
		c1.5-16.2,5.6-32.4,9.6-48.1C406.3,288.5,412.5,264.4,405,245.9z"/>
	<path class="st3" d="M387.6,499.6l6.6,29.1c0.1,0.1,0.1,0.1,0.2,0.2c0.1,0.2,0.1,0.4,0,0.6l0.7,3.1c0.1,0.1,0.1,0.1,0.2,0.2
		c0.1,0.2,0.1,0.4,0,0.6L418,634.4h0c0.4,0.2,0.5,0.6,0.3,0.9c0,0,0,0,0,0.1c0,0.1-0.1,0.1-0.1,0.1l4.9,21.7c0,0.2,0,0.4-0.1,0.6
		c0,0-3.5,4.5-4.4,5.8c-0.2,0.3-0.2,0.4-0.1,0.5s0.9,1.4,7.4,1.4c4.6,0,6.6-0.9,6.9-1.6c0.1-0.3-0.1-0.7-0.3-0.8
		c-1.4-1.4-4.5-5.1-4.6-5.2c-0.1-0.1-0.1-0.2-0.2-0.3l-36-159.6C390.4,498.5,389,499,387.6,499.6z"/>
	<path class="st0" d="M265.8,600.3c0,0.1,0.1,0.1,0.1,0.2c2.7,6.8,4.1,12.1,4.5,16.5c0.4,4.3,5,6.1,9.4,6c3.5,0,7.4-1.4,7.6-3.9
		c0-3.2-0.1-6.4-0.4-9.6c-0.4-5.8-0.9-12.9-0.8-19.8L265.8,600.3z"/>
	<path class="st0" d="M480.4,275.7c-1.9-0.9-7.9-5.7-9.8-7.3c-1.7,2.3-7.8,9.8-16.4,9.8h-0.3l-0.4,2.4h28.9c0.8-2.2-0.9-4.1-1.4-4.6
		C480.8,275.9,480.6,275.8,480.4,275.7z"/>
	<path class="st1" d="M469.8,267c0.1-0.2,0.3-0.3,0.5-0.3c0.2,0,0.4,0,0.6,0.2c2.8,2.3,8.5,6.8,10.1,7.6c0.5,0.2,0.8,0.1,1-0.2
		c0.3-0.6,0.2-2-1.7-3.3c-1.6-1.2-3-2.5-4.3-3.9c-3.9-3.9-9.2-9.1-13.4-8.6c-1.6,0.2-3.1,0.3-4.7,0.3c-4.8,0.1-9.4,0.1-15.2,5.8
		c-7.5,7.3-32.2,59.6-34.1,63.7c1.2,4.3,2.3,6.8,2.3,6.9c0.1,0.4,0,0.8-0.4,0.9c0,0,0,0,0,0c-0.1,0-0.2,0-0.3,0
		c-0.3,0-0.6-0.2-0.7-0.5c0-0.1-1.1-2.7-2.4-7.2c0,0,0-0.1,0-0.1c-2-6.9-3.3-13.9-4.1-21c-0.6,2.4-1.2,4.8-1.8,7.2
		c-4,15.5-8.1,31.6-9.6,47.7c5.6,10.3,11.7,15.2,18.1,14.7c9.9-0.8,20.2-14.6,27.6-36.7c6.8-20.4,11.9-41.4,15.2-62.7
		c0.1-0.4,0.4-0.6,0.8-0.6C462.8,277.3,469.8,267.1,469.8,267z"/>
	<path class="st3" d="M336.4,609.7c-9.9,0-15.2,2.9-16.9,9.2c-0.2,1.6-0.2,3.2-0.2,4.9l0.2,4.6c0.5,9.9,0.5,10.1-1.1,12
		c-0.4,0.5-0.8,1-1.2,1.5c-0.5,0.8-2.1,3.6-0.6,6.2s6.7,5.8,22.4,5.1c10.8-0.5,17.2-2.2,19-5c1-1.6,0.3-3.4-0.3-4.9
		c-0.2-0.5-0.3-0.8-0.5-1.2c-0.2-0.5-3.6-12.7-3.9-20.9C352.3,612.7,343.9,609.7,336.4,609.7z"/>
	<path class="st4" d="M337.4,603.8L337.4,603.8c-2.6,0-9.2,0.5-13.6,5.2c-1.2,1.2-2.1,2.6-2.8,4.2c4.6-4.9,12.3-4.9,15.3-4.9
		c5.9,0,12.8,2,16.3,7.1c-0.8-2.6-2.3-4.9-4.2-6.8C345.7,605.5,341.7,603.8,337.4,603.8z"/>
	<path class="st0" d="M352.5,596.3c3-10.6,7.5-24.9,12.1-34.2c2.5-5.1,4.5-10.4,6-15.9L323,570.9c0.1,0.1,0.1,0.2,0.2,0.3
		c0.7,3.6,1.3,7.3,1.7,10.8c0,0,0,0.1,0,0.1L352.5,596.3z"/>
	<path class="st3" d="M311.2,576.6c-0.2-0.1-0.4-0.4-0.4-0.6c0-0.3,0.2-0.5,0.4-0.6l60-30.9c0,0,0,0,0,0c0.1-0.4,0.5-0.6,0.9-0.5
		l0.1,0l21.5-11.1l-0.5-2.4l-85.5,44.1c-0.2,0.1-0.5,0.1-0.7,0l-87.5-45.1l-0.5,2.4l18.2,9.4l0,0l52.8,27.2l0,0l13.4,6.9
		c0.2,0.1,0.4,0.4,0.4,0.6c0,0.3-0.1,0.5-0.4,0.6l-106.7,55.1c-0.1,0.1-0.2,0.1-0.3,0.1l0,0l-0.7,3.2L307,577.6
		c0.2-0.1,0.5-0.1,0.7,0l108.8,56.1l-0.7-3.1L311.2,576.6z"/>
	<path d="M483.3,275c0.8-1.4,0.3-3.6-2.2-5.2c-1.5-1.1-2.9-2.4-4.1-3.8c-4.3-4.3-9.7-9.6-14.6-9c-1.5,0.2-3,0.3-4.5,0.2
		c-4.9,0.1-10,0.1-16.2,6.2c-7.2,7-29.1,52.8-33.7,62.6c-2-7.6-3.3-15.3-3.8-23.2c5.3-21.5,8.8-41.4,2.2-57.5
		c-8.9-21.7-25.2-23.7-47.6-21.3l2.5-0.8h0.2c0.1,0,0.3-0.1,0.4-0.2c22.9-7.2,32-16.8,32.2-16.9c0.1-0.2,0.2-0.4,0.2-0.6
		c-0.1-0.8-9.2-78.8-23.2-109.4c-13.8-30.1-35.5-44.8-66.2-44.8s-52.4,14.6-66.2,44.8c-14,30.6-23.1,108.6-23.2,109.4
		c0,0.2,0,0.4,0.2,0.6c0.2,0.2,9.3,9.7,32.2,16.9c0.1,0.1,0.2,0.1,0.4,0.2h0.2c1.3,0.4,2.7,0.8,4.1,1.2c-24.6-3-40.2-1.6-49.2,20.8
		c-2.5,6.7-3.7,13.7-3.4,20.9c-3.3,3.8-48.8,56-48.1,82.6c0.2,7.9,2.7,12.9,7.3,14.9c1.7,0.7,3.5,1,5.4,1
		c16.6,0,44.2-22.8,49.6-27.5c1.8,8.2,3.2,16.6,4,25c2,22.8-6.7,36.2-15.9,50.4c-7.8,12.1-16,24.6-16.9,43.3
		c-0.7,10.2,3.1,20.2,10.2,27.5c5.9,6.2,14.1,11.1,23.5,14.9l-36,159.7c-0.6,0.7-3.2,3.8-4.4,5c-0.7,0.6-0.9,1.6-0.6,2.4
		c0.7,1.6,3.5,2.5,8.2,2.5c5,0,8-0.8,8.7-2.2c0.3-0.7,0.2-1.4-0.3-2c-0.8-1.1-3.5-4.6-4.2-5.6l4.8-21.5l0,0l49.1-25.3
		c0,0.1,0,0.2,0.1,0.2c2.4,4.8,5.6,9,9.5,12.7c3.7,3.5,7.2,7.3,10.4,11.2c5.2,6,8.4,9.8,14.5,9.8c0.5,0,0.9,0,1.4-0.1
		c4.1-0.3,9.4-1.8,12-6.4s1.4-11.3-3.2-19.7c0-3.2-0.1-6.4-0.4-9.5c-0.6-6.8-0.8-13.7-0.8-20.5l19.6-10.1l16.9,8.7c0,0,0,0,0,0.1
		c0.7,6.2,0.8,12.4,0.2,18.6c0,0.1,0,0.2,0,0.3c-0.5,0.4-1.1,0.9-1.5,1.4c-2.7,2.9-4.3,6.7-4.7,10.6v0.1c-0.2,1.7-0.3,3.4-0.2,5.2
		l0.2,4.6c0.5,9.5,0.5,9.5-0.8,11c-0.4,0.5-0.8,1.1-1.2,1.7c-1.7,2.6-2,5.5-0.7,7.7c2.2,3.9,8.6,5.9,19,5.9c1.5,0,3,0,4.7-0.1
		c11.5-0.6,18-2.4,20.1-5.7c1.4-2.2,0.4-4.6-0.2-6.2c-0.2-0.4-0.3-0.7-0.4-1c-0.2-0.6-4-14.1-3.9-22.1c-0.1-4-1.6-7.9-4.2-11
		c0-0.1,0.1-0.1,0.1-0.2c0,0,0.3-1.4,1.7-6.2l64.4,33.2l4.9,21.8c-0.8,1-3.4,4.5-4.2,5.6c-0.5,0.6-0.6,1.3-0.3,2
		c0.7,1.5,3.7,2.2,8.7,2.2c4.7,0,7.5-0.9,8.2-2.5c0.3-0.9,0.1-1.8-0.6-2.4c-1.2-1.2-3.8-4.3-4.4-5l-36-159.7
		c8.4-3.6,15.7-8.2,21.1-13.8c7.2-7.3,10.9-17.3,10.2-27.5c-0.9-18.7-9-31.2-16.9-43.3c-8.9-13.7-17.3-26.7-16-48
		c5.3,9,11.1,13.5,17.3,13.5c0.4,0,0.7,0,1.1,0c10.5-0.9,21.3-15,28.9-37.7c6.3-19.1,11.2-38.6,14.5-58.5h29.6
		c0.3,0,0.5-0.2,0.7-0.4c0.9-2,0.5-4.3-0.9-6C482.9,275.6,483.1,275.3,483.3,275z M249,222.1c0.7-5.9,6.1-51,17.2-96.5
		c0.1-0.4-0.1-0.8-0.5-0.9c-0.4-0.1-0.8,0.1-0.9,0.5c-11,45.1-16.4,89.6-17.2,96.4c-20.1-6.4-29.2-14.6-30.8-16.1
		c0.7-5.7,9.6-79.3,23-108.6C253.4,67.4,274.6,53,304.8,53s51.4,14.4,64.9,43.9c13.5,29.4,22.4,103,23,108.6
		c-1.5,1.5-10.6,9.7-30.7,16.1c-3.5-34.1-12.2-72.9-12.3-73.3c-0.1-0.4-0.5-0.6-0.9-0.5c-0.4,0.1-0.6,0.5-0.5,0.8c0,0,0,0,0,0
		c0.1,0.4,8.8,39.4,12.3,73.4c-5.2,1.6-10.5,2.9-15.8,3.9l-3.4,0.5c-4,0.6-8.1,1.2-12.4,1.8c-8,0.8-16.1,1.2-24.2,1.2
		C280.8,229.5,262.5,226.2,249,222.1z M164.4,363.3c-1.7,0-3.3-0.3-4.9-0.9c-4.1-1.8-6.3-6.4-6.5-13.7c-0.6-24,39.3-71.7,46.7-80.4
		c0.5,14.1,4.5,29.8,8.6,46c0.3,1,0.5,2,0.8,3l-13.4,14.8c-0.3,0.3-0.2,0.7,0,1c0.1,0.1,0.3,0.2,0.5,0.2c0.2,0,0.4-0.1,0.5-0.2
		l12.8-14.1c1.4,5.5,2.8,11,4,16.6C210.3,338.6,181,363.3,164.4,363.3z M188.9,658.3c0,0.2,0,0.4,0.1,0.6c0,0,3.5,4.5,4.4,5.8
		c0.2,0.3,0.1,0.4,0.1,0.5s-0.9,1.4-7.4,1.4c-4.6,0-6.5-0.9-6.9-1.6c-0.1-0.3,0.1-0.7,0.3-0.9c1.4-1.4,4.5-5.1,4.6-5.2
		c0.1-0.1,0.1-0.2,0.2-0.3l36-159.7c1.3,0.5,2.7,1,4.1,1.5L188.9,658.3z M375.7,503.3c3.6-1,7.2-2,10.6-3.2l6.5,28.9l-18.8,9.7
		C376.3,527,376.9,515.1,375.7,503.3L375.7,503.3z M372.3,539.4C372.3,539.5,372.3,539.5,372.3,539.4l-50.3,26
		c-1-4.6-2.5-10.1-3.7-14c-4.7-15.3-0.7-37.7,0-40.8c18.4-0.6,38.3-2.5,55.9-6.9C375.5,515.6,374.8,527.7,372.3,539.4L372.3,539.4z
		 M317,551.8c1.2,3.9,2.7,9.6,3.7,14.3l-13.5,7l-16.3-8.4c1.1-11.2,1.2-22.3,0.1-29.8c-1.3-8.2-3.1-16.4-5.3-24.4
		c6.5,0.3,13,0.4,19.1,0.4c3.9,0,8-0.1,12.1-0.2C316.2,514.7,312.4,536.7,317,551.8L317,551.8z M289.6,535c1,7.3,1,18,0,28.9
		l-53.4-27.5c-3-11.2-5.1-22.7-6.3-34.2c16.7,4.9,35.9,7.2,54.2,8.1C286.5,518.4,288.3,526.6,289.6,535L289.6,535z M234.5,535.6
		l-14.8-7.6l6.1-27c0.9,0.3,1.8,0.5,2.7,0.8C229.6,513.1,231.6,524.4,234.5,535.6L234.5,535.6z M287.5,578l-0.1,0.5
		c-0.3,1.6-0.5,3.2-0.7,4.9c0,0.1,0,0.1,0,0.2l-22.8,11.8c-2.8-6.7-6.8-13.7-11.2-21.9c-1.6-2.9-3.3-5.9-5-9
		c-3.8-6.8-7.1-13.9-9.7-21.2l50.8,26.2C288.4,572.7,288,575,287.5,578L287.5,578z M288.9,578.3c0.5-2.9,0.9-5.1,1.3-8.1l11.3,5.8
		l-13.4,6.8c0.1-1.5,0.3-2.6,0.6-4L288.9,578.3z M262.7,596.1l-19,9.8c-2.4-7.6-2.2-14.5,0.6-18.3c4.7-6.4,12.1-3.3,12.4-3.1
		c0.1,0,0.2,0,0.3,0C259.2,588.5,261.1,592.4,262.7,596.1L262.7,596.1z M246.5,565.2c1.7,3.2,3.4,6.2,5,9.1s3.2,5.8,4.7,8.5
		c-2.5-0.7-8.8-1.8-13,4c-3,4.1-3.3,11.7-0.7,19.8L196.7,630l21.8-96.8l17.6,9.1C238.8,550.2,242.3,557.9,246.5,565.2L246.5,565.2z
		 M288.4,621.1c3.7,7.3,4.6,13,2.5,17c-2.2,4.1-7.1,5.4-10.8,5.7c-6.2,0.5-9.2-2.9-14.6-9.2c-3.3-4-6.8-7.7-10.5-11.3
		c-3.8-3.5-6.9-7.7-9.2-12.3c0-0.1-0.1-0.2-0.2-0.2l19.1-9.8c0,0,0,0,0,0.1c2.6,6.7,4,11.8,4.4,16.1c0.5,5.1,5.7,7.4,10.7,7.4h0.2
		C283.3,624.5,286.9,623.4,288.4,621.1L288.4,621.1z M287.1,609.7c0.3,3.2,0.5,6.4,0.4,9.6c-0.2,2.5-4,3.8-7.6,3.9
		c-4.4,0-9-1.8-9.4-6c-0.4-4.4-1.9-9.7-4.5-16.5c0-0.1-0.1-0.1-0.1-0.2l20.4-10.5C286.2,596.8,286.6,603.9,287.1,609.7L287.1,609.7z
		 M357.4,642.2c0.1,0.3,0.3,0.8,0.5,1.2c0.6,1.5,1.3,3.3,0.3,4.9c-1.8,2.8-8.2,4.5-19,5c-15.7,0.8-20.9-2.3-22.4-5.1
		s0.1-5.4,0.6-6.2c0.4-0.5,0.7-1.1,1.2-1.5c1.6-2,1.6-2.2,1.1-12l-0.2-4.6c-0.1-1.6,0-3.2,0.2-4.9c1.7-6.3,7-9.2,16.9-9.2
		c7.5,0,15.9,3,17,11.6C353.8,629.5,357.3,641.6,357.4,642.2L357.4,642.2z M352.8,615.4c-3.5-5.1-10.4-7.1-16.3-7.1
		c-3,0-10.8,0-15.3,4.9c0.7-1.5,1.6-3,2.8-4.2c4.4-4.7,11-5.2,13.6-5.2l0,0c4.2,0,8.2,1.7,11.1,4.7
		C350.5,610.5,351.9,612.8,352.8,615.4L352.8,615.4z M351.1,601.8c-0.9,3.1-1.3,4.8-1.5,5.7c-3.2-3.2-7.5-5-12.1-5l0,0
		c-4.1,0-8.1,1.1-11.6,3.2c0.5-5.7,0.4-11.4-0.2-17.1l25.5,13.1C351.1,601.6,351.1,601.6,351.1,601.8L351.1,601.8z M307.7,577.6
		c-0.2-0.1-0.5-0.1-0.7,0L195.7,635l0.7-3.2l0,0c0.1,0,0.2,0,0.3-0.1l106.7-55c0.2-0.1,0.4-0.4,0.4-0.6c0-0.3-0.2-0.5-0.4-0.6
		l-13.4-6.9l0,0l-52.8-27.3l0,0l-18.2-9.4l0.5-2.4l87.5,45.1c0.2,0.1,0.5,0.1,0.7,0l85.5-44.1l0.5,2.4l-21.5,11.1l-0.1,0
		c-0.4-0.1-0.8,0.1-0.9,0.5c0,0,0,0,0,0l-60,30.9c-0.2,0.1-0.4,0.4-0.4,0.6c0,0.3,0.1,0.5,0.4,0.6l104.5,53.9l0.7,3.1L307.7,577.6z
		 M323.2,571.2c0-0.1-0.1-0.2-0.2-0.3l47.6-24.5c-1.5,5.5-3.5,10.8-6,15.9c-4.5,9.3-9,23.6-12.1,34.2l-27.7-14.3c0,0,0-0.1,0-0.1
		C324.4,578.5,323.9,574.8,323.2,571.2z M323.3,581.3L313,576l8.7-4.5C322.4,574.8,322.9,578.1,323.3,581.3L323.3,581.3z
		 M365.9,562.8c2.7-5.6,4.9-11.4,6.5-17.4l21.6-11.1l21.3,94.4L353.8,597C356.9,586.5,361.4,572.1,365.9,562.8L365.9,562.8z
		 M427.7,657.6c0,0.1,0.1,0.2,0.2,0.3c0.1,0.2,3.2,3.9,4.6,5.2c0.2,0.2,0.5,0.5,0.3,0.8c-0.3,0.8-2.3,1.6-6.9,1.6
		c-6.5,0-7.3-1.3-7.4-1.4s-0.1-0.2,0.1-0.5c1-1.3,4.4-5.8,4.4-5.8c0.1-0.2,0.2-0.4,0.1-0.6l-4.9-21.7c0,0,0.1-0.1,0.1-0.1
		c0.2-0.3,0.1-0.8-0.3-1c0,0,0,0-0.1,0h0l-22.8-101c0.1-0.2,0.1-0.4,0-0.6c0-0.1-0.1-0.1-0.2-0.2l-0.7-3.1c0.1-0.2,0.1-0.4,0-0.6
		c0-0.1-0.1-0.1-0.2-0.2l-6.6-29.2c1.4-0.5,2.8-1,4.1-1.6L427.7,657.6z M390.2,362.2c-2.1,23.3,7.2,37.6,16.1,51.3
		c7.7,11.9,15.8,24.3,16.6,42.6c0.6,9.8-2.9,19.4-9.8,26.5c-5.4,5.6-12.6,10.1-21,13.7l0,0c-0.1,0-0.2,0.1-0.3,0.1
		c-1.7,0.7-3.4,1.4-5.1,2h-0.1c-0.1,0-0.2,0.1-0.3,0.1c-3.7,1.3-7.5,2.5-11.5,3.5h-0.1c-0.1,0-0.2,0-0.3,0.1
		c-22,5.6-47.8,7.2-69.7,7.2c-23.8,0-52.2-1.8-75.2-8.7c-0.1-0.1-0.2-0.1-0.4-0.1c-13.4-4-25-9.8-32.7-17.9
		c-6.9-7-10.5-16.6-9.8-26.5c0.9-18.3,8.9-30.6,16.6-42.6c9-13.8,18.2-28,16.1-51.3c-1.5-16.2-5.6-32.4-9.6-48.1
		c-6.5-25.5-12.6-49.7-5.3-68.2c10.1-25.3,28.3-22.7,61.4-18.1l9.3,1.3c0.1,0,0.1,0,0.2,0c9.7,1.2,19.5,1.8,29.3,1.8
		c7.9,0,15.7-0.4,23.6-1.1c0.1,0,0.1,0,0.2,0l0.8-0.1c5.4-0.6,10.5-1.3,15.1-2.2c30.2-4.5,50.3-6.7,60.5,18.4
		c7.5,18.4,1.3,42.6-5.2,68.2C395.8,329.8,391.6,346,390.2,362.2z M452.6,277.4c-3.3,21.3-8.4,42.2-15.2,62.7
		c-7.4,22.2-17.8,35.9-27.6,36.7c-6.5,0.5-12.6-4.4-18.1-14.7c1.5-16,5.6-32.1,9.6-47.7c0.6-2.4,1.2-4.8,1.8-7.2
		c0.7,7.1,2.1,14.1,4.1,21c0,0,0,0.1,0,0.1c1.3,4.5,2.3,7.1,2.4,7.2c0.1,0.3,0.4,0.4,0.7,0.5c0.1,0,0.2,0,0.3,0
		c0.4-0.1,0.5-0.6,0.4-0.9c0,0,0,0,0,0c0-0.1-1-2.6-2.3-6.9c1.9-4,26.6-56.4,34.1-63.7c5.8-5.6,10.4-5.7,15.2-5.8
		c1.6,0,3.1-0.1,4.7-0.3c4.2-0.6,9.5,4.7,13.4,8.6c1.3,1.4,2.8,2.8,4.3,3.9c1.9,1.2,2.1,2.6,1.7,3.3c-0.2,0.4-0.6,0.4-1,0.2
		c-1.6-0.8-7.3-5.4-10.1-7.6c-0.2-0.1-0.4-0.2-0.6-0.2c-0.2,0-0.4,0.1-0.5,0.3c-0.1,0.1-7,10.3-16.5,9.7
		C453,276.7,452.6,277,452.6,277.4L452.6,277.4z M482.4,280.6h-28.9l0.4-2.4h0.3c8.5,0,14.7-7.5,16.4-9.8c1.9,1.6,8,6.4,9.8,7.3
		c0.2,0.1,0.4,0.2,0.7,0.2C481.5,276.5,483.2,278.4,482.4,280.6L482.4,280.6z"/>
</g>
</svg>
