<svg id="Layer_1" data-name="Layer 1" xmlns="http://www.w3.org/2000/svg" viewBox="0 0 302 302"><defs><style>.cls-1{fill:#074752;}.cls-2{fill:#fff;}.cls-3{fill:#155763;}.cls-4{fill:#fbb03b;}.cls-5{fill:#5abfb6;}.cls-6{fill:#ed4848;}</style></defs><title>Artboard 13</title><circle class="cls-1" cx="151" cy="151" r="151"/><rect class="cls-2" x="70.05" y="238.56" width="161.89" height="22.04" rx="7.39" ry="7.39"/><path class="cls-3" d="M224.56,242.56a3.38,3.38,0,0,1,3.39,3.38v7.27a3.38,3.38,0,0,1-3.39,3.38H77.44a3.38,3.38,0,0,1-3.39-3.38v-7.27a3.38,3.38,0,0,1,3.39-3.38H224.56m0-8H77.44a11.4,11.4,0,0,0-11.39,11.38v7.27a11.39,11.39,0,0,0,11.39,11.38H224.56A11.39,11.39,0,0,0,236,253.21v-7.27a11.4,11.4,0,0,0-11.39-11.38Z"/><rect class="cls-2" x="139.79" y="192.63" width="22.42" height="57.25" rx="7.39" ry="7.39"/><path class="cls-3" d="M154.82,196.63a3.39,3.39,0,0,1,3.39,3.39V242.5a3.39,3.39,0,0,1-3.39,3.39h-7.64a3.39,3.39,0,0,1-3.39-3.39V200a3.39,3.39,0,0,1,3.39-3.39h7.64m0-8h-7.64A11.4,11.4,0,0,0,135.79,200V242.5a11.4,11.4,0,0,0,11.39,11.39h7.64a11.4,11.4,0,0,0,11.39-11.39V200a11.4,11.4,0,0,0-11.39-11.39Z"/><rect class="cls-2" x="129.86" y="235.79" width="42.29" height="27.58" rx="7.39" ry="7.39"/><path class="cls-3" d="M164.76,239.79a3.38,3.38,0,0,1,3.38,3.38V256a3.38,3.38,0,0,1-3.38,3.39H137.24a3.38,3.38,0,0,1-3.38-3.39V243.17a3.38,3.38,0,0,1,3.38-3.38h27.52m0-8H137.24a11.39,11.39,0,0,0-11.38,11.38V256a11.39,11.39,0,0,0,11.38,11.39h27.52A11.39,11.39,0,0,0,176.14,256V243.17a11.39,11.39,0,0,0-11.38-11.38Z"/><path class="cls-2" d="M88.94,210.23a12.88,12.88,0,0,1-12.87-12.87V51.5A12.89,12.89,0,0,1,88.94,38.63H213.65A12.89,12.89,0,0,1,226.52,51.5V197.36a12.89,12.89,0,0,1-12.87,12.87Z"/><path class="cls-3" d="M213.65,42.63a8.88,8.88,0,0,1,8.87,8.87V197.36a8.87,8.87,0,0,1-8.87,8.87H88.94a8.87,8.87,0,0,1-8.87-8.87V51.5a8.87,8.87,0,0,1,8.87-8.87H213.65m0-8H88.94A16.89,16.89,0,0,0,72.07,51.5V197.36a16.89,16.89,0,0,0,16.87,16.87H213.65a16.89,16.89,0,0,0,16.87-16.87V51.5a16.89,16.89,0,0,0-16.87-16.87Z"/><path class="cls-4" d="M142.18,86.22H101.11A9.25,9.25,0,0,1,91.86,77V75.56a9.25,9.25,0,0,1,9.25-9.25h41.07a9.25,9.25,0,0,1,9.25,9.25V77A9.25,9.25,0,0,1,142.18,86.22Z"/><path class="cls-4" d="M142.18,117.82H101.11a9.25,9.25,0,0,1-9.25-9.25v-1.42a9.25,9.25,0,0,1,9.25-9.25h41.07a9.25,9.25,0,0,1,9.25,9.25v1.42A9.25,9.25,0,0,1,142.18,117.82Z"/><path class="cls-5" d="M142.18,149.1H101.11a9.25,9.25,0,0,1-9.25-9.25v-1.42a9.25,9.25,0,0,1,9.25-9.25h41.07a9.25,9.25,0,0,1,9.25,9.25v1.42A9.25,9.25,0,0,1,142.18,149.1Z"/><path class="cls-5" d="M182.32,76.26a10,10,0,1,1-10-10A10,10,0,0,1,182.32,76.26Z"/><path class="cls-6" d="M182.32,107.7a10,10,0,1,1-10-10A10,10,0,0,1,182.32,107.7Z"/><path class="cls-4" d="M182.32,139.14a10,10,0,1,1-10-10A10,10,0,0,1,182.32,139.14Z"/><path class="cls-6" d="M210.57,76.26a10,10,0,1,1-10-10A10,10,0,0,1,210.57,76.26Z"/><path class="cls-5" d="M210.57,107.7a10,10,0,1,1-10-10A10,10,0,0,1,210.57,107.7Z"/><path class="cls-5" d="M210.57,139.14a10,10,0,1,1-10-10A10,10,0,0,1,210.57,139.14Z"/><path class="cls-6" d="M165.48,174.31a14.19,14.19,0,1,1-14.19-14.19A14.19,14.19,0,0,1,165.48,174.31Z"/></svg>