<svg id="Layer_1" data-name="Layer 1" xmlns="http://www.w3.org/2000/svg" viewBox="0 0 302 302"><defs><style>.cls-1{fill:#074752;}.cls-2{fill:#fff;}.cls-3{fill:#5abfb6;}.cls-4{fill:#fbb03b;}.cls-5{fill:#ed4848;}.cls-6{fill:#155763;}</style></defs><title>Artboard 26</title><circle class="cls-1" cx="151" cy="151" r="151"/><path class="cls-2" d="M36,139.1H55.8v23.8H36Z"/><path class="cls-2" d="M83.57,174.8H103.4v15.9a7.9,7.9,0,0,1-7.9,7.9H83.57Z"/><path class="cls-3" d="M162.9,79.6a23.8,23.8,0,1,1-23.8-23.8A23.81,23.81,0,0,1,162.9,79.6Z"/><path class="cls-2" d="M112.9,136.2l73.8-32.8v95.2l-73.8-32.8Z"/><path class="cls-4" d="M63.73,174.8h23.8v43.63H63.73Z"/><path class="cls-5" d="M238.27,36,206.53,67.7V95.47H234.3L266,63.73ZM224.38,83.56a5.95,5.95,0,1,1,6-5.94A5.95,5.95,0,0,1,224.38,83.56Z"/><path class="cls-5" d="M63.23,123.23h40.68a11.39,11.39,0,0,1,11.39,11.4v32.74a11.39,11.39,0,0,1-11.39,11.4H63.23a11.39,11.39,0,0,1-11.4-11.4V134.63A11.39,11.39,0,0,1,63.23,123.23Z"/><path class="cls-3" d="M186.7,103.4,162.9,114v74l23.8,10.58Z"/><path class="cls-2" d="M198.72,218.83l28.05-28L266,230.05,238,258.1Z"/><path class="cls-2" d="M226.77,190.78l2.8,36.47,36.47,2.8Z"/><path class="cls-4" d="M254.13,127.2a11.9,11.9,0,1,1-11.89-11.9A11.89,11.89,0,0,1,254.13,127.2Z"/><path class="cls-4" d="M238.34,143.07h7.79a12,12,0,0,1,12,12V174.8H226.37V155A12,12,0,0,1,238.34,143.07Z"/><path class="cls-4" d="M222.4,131.17a7.94,7.94,0,1,1-7.93-7.94A7.93,7.93,0,0,1,222.4,131.17Z"/><path class="cls-4" d="M214.47,143.07a11.9,11.9,0,0,1,11.9,11.9v11.9h-23.8V155A11.89,11.89,0,0,1,214.47,143.07Z"/><path class="cls-3" d="M143.07,198.6H127.2l-23.8,23.8L147,266l31.74-31.73ZM124.4,227.53l15.86-15.87,5.61,5.61L130,233.14ZM141.9,245l-5.6-5.61,15.86-15.87,5.61,5.61Z"/><circle class="cls-6" cx="224.38" cy="77.62" r="5.95"/><path class="cls-6" d="M241.07,33.16a4,4,0,0,0-5.61,0L203.73,64.89a4,4,0,0,0-1.16,2.81V95.47a4,4,0,0,0,4,4H234.3a4,4,0,0,0,2.81-1.16l31.73-31.73a4,4,0,0,0,0-5.61ZM232.66,91.5H210.5V69.34l27.77-27.77,22.16,22.16Z"/><path class="cls-6" d="M36,166.87h11.9v.5a15.34,15.34,0,0,0,11.9,14.93v36.13a4,4,0,0,0,4,4h23.8a4,4,0,0,0,4-4V202.57h4a11.9,11.9,0,0,0,11.87-11.87v-8.4a15.34,15.34,0,0,0,10.94-9.76l66.78,29.69a4,4,0,0,0,5.24-2,4,4,0,0,0,.34-1.61V103.4a4,4,0,0,0-4-4,4.08,4.08,0,0,0-1.61.34l-66.78,29.69a15.33,15.33,0,0,0-14.4-10.19H63.23a15.37,15.37,0,0,0-15.36,15.36v.5H36a4,4,0,0,0-4,4v23.8A4,4,0,0,0,36,166.87Zm130.9-50.32,15.87-7v83l-15.87-7Zm-47.6,21.16,39.66-17.63v61.86l-39.66-17.65ZM83.57,198.6v15.87H67.7V182.73H83.57Zm15.86-7.9a3.93,3.93,0,0,1-3.93,3.93h-4v-11.9h7.93ZM55.8,162.9V134.63a7.43,7.43,0,0,1,7.43-7.43h40.68a7.42,7.42,0,0,1,7.42,7.43v32.74a7.43,7.43,0,0,1-7.42,7.43H63.23a7.43,7.43,0,0,1-7.43-7.43ZM39.93,143.07h7.94v15.86H39.93Z"/><path class="cls-6" d="M229.57,188a4,4,0,0,0-5.61,0L195.91,216a4,4,0,0,0,0,5.61l39.27,39.27a4,4,0,0,0,5.61,0l28-28.05a4,4,0,0,0,0-5.61Zm26.08,37.28-22.38-1.71-1.73-22.39ZM238,252.48l-33.66-33.65,19.14-19.15,2.15,27.87a4,4,0,0,0,3.65,3.65l27.86,2.14Z"/><path class="cls-6" d="M139.1,107.37A27.71,27.71,0,0,0,161.31,63l24.24-24.23-5.62-5.61L155.7,57.39a27.76,27.76,0,1,0-16.6,50Zm0-47.61A19.84,19.84,0,1,1,119.27,79.6,19.84,19.84,0,0,1,139.1,59.76Z"/><path class="cls-6" d="M202.57,170.83H222.4v4a4,4,0,0,0,4,4H258.1a4,4,0,0,0,4-4V155a15.91,15.91,0,0,0-10.64-15,15.86,15.86,0,1,0-18.39,0,15.86,15.86,0,0,0-6.65,4.52,15.75,15.75,0,0,0-5-3.82,11.9,11.9,0,1,0-13.91,0A15.83,15.83,0,0,0,198.6,155v11.9A4,4,0,0,0,202.57,170.83Zm39.67-51.56a7.93,7.93,0,1,1-7.94,7.93A7.93,7.93,0,0,1,242.24,119.27Zm-11.91,47.6V155a8,8,0,0,1,8-8h7.79a8,8,0,0,1,8,8v15.79h-23.8ZM214.47,127.2a4,4,0,1,1-4,4A4,4,0,0,1,214.47,127.2ZM206.53,155a7.94,7.94,0,1,1,15.87,0v7.93H206.53Z"/><path class="cls-6" d="M143.07,194.63H127.2a3.93,3.93,0,0,0-2.8,1.17l-23.8,23.8a4,4,0,0,0,0,5.6l43.63,43.64a4,4,0,0,0,5.61,0l31.73-31.73a4,4,0,0,0,0-5.61l-35.7-35.7A3.93,3.93,0,0,0,143.07,194.63Zm4,65.79-38-38,19.83-19.83h12.59l31.73,31.73Z"/><rect class="cls-6" x="123.91" y="218.43" width="22.44" height="7.93" transform="translate(-117.68 160.71) rotate(-45)"/><rect class="cls-6" x="135.81" y="230.33" width="22.44" height="7.93" transform="translate(-122.61 172.58) rotate(-45)"/></svg>