<svg id="Layer_1" data-name="Layer 1" xmlns="http://www.w3.org/2000/svg" viewBox="0 0 302 302"><defs><style>.cls-1{fill:#074752;}.cls-2{fill:#5abfb6;}.cls-3{fill:#fff5f5;}.cls-4{fill:#efe2dd;}.cls-5{fill:#fbb03b;}.cls-6{fill:#ed4848;}.cls-7{fill:#d93131;}.cls-8{fill:#155763;}</style></defs><title>Artboard 15</title><circle class="cls-1" cx="151" cy="151" r="151"/><path class="cls-2" d="M259.45,254.54H76.08a14.83,14.83,0,0,1-14.83-14.83V106.42A14.83,14.83,0,0,1,76.08,91.59H259.45a14.83,14.83,0,0,1,14.83,14.83V239.71A14.83,14.83,0,0,1,259.45,254.54Z"/><path class="cls-3" d="M232.36,215.7H43a15.31,15.31,0,0,1-15.31-15.31V62.77A15.31,15.31,0,0,1,43,47.46H232.36a15.31,15.31,0,0,1,15.31,15.31V200.39A15.31,15.31,0,0,1,232.36,215.7Z"/><path class="cls-4" d="M247.67,62.77V200.39a15.31,15.31,0,0,1-15.31,15.31H221.2a15.31,15.31,0,0,0,15.32-15.31V62.77A15.31,15.31,0,0,0,221.2,47.46h11.16A15.31,15.31,0,0,1,247.67,62.77Z"/><path class="cls-5" d="M247.67,81.16H27.72V62.77A15.31,15.31,0,0,1,43,47.46H232.36a15.31,15.31,0,0,1,15.31,15.31Z"/><path class="cls-6" d="M224,194.87H177.61a4.13,4.13,0,0,1-4.12-4.12V110.94a4.12,4.12,0,0,1,4.12-4.11H224a4.11,4.11,0,0,1,4.11,4.11v79.81A4.12,4.12,0,0,1,224,194.87Z"/><path class="cls-7" d="M228.15,110.94v79.81a4.13,4.13,0,0,1-4.12,4.12h-9.92a4.12,4.12,0,0,0,4.11-4.12V110.94a4.11,4.11,0,0,0-4.11-4.11H224A4.12,4.12,0,0,1,228.15,110.94Z"/><path class="cls-8" d="M59.6,64.31a4.37,4.37,0,1,1-4.37-4.37A4.37,4.37,0,0,1,59.6,64.31Z"/><path class="cls-8" d="M75.17,64.31a4.37,4.37,0,1,1-4.37-4.37A4.37,4.37,0,0,1,75.17,64.31Z"/><path class="cls-8" d="M90.73,64.31a4.37,4.37,0,1,1-4.37-4.37A4.37,4.37,0,0,1,90.73,64.31Z"/><path class="cls-8" d="M259.45,87.87h-8.06V62.77a19,19,0,0,0-19-19H43a19,19,0,0,0-19,19V200.39a19,19,0,0,0,19,19h14.5v20.29a18.57,18.57,0,0,0,18.55,18.55H210.62a3.72,3.72,0,1,0,0-7.44H76.08A11.12,11.12,0,0,1,65,239.71V219.42H232.36a19,19,0,0,0,19-19V95.31h8.06a11.12,11.12,0,0,1,11.11,11.11V239.71a11.12,11.12,0,0,1-11.11,11.11H204.9a3.72,3.72,0,0,0,0,7.44h54.55A18.57,18.57,0,0,0,278,239.71V106.42A18.57,18.57,0,0,0,259.45,87.87ZM244,200.39A11.6,11.6,0,0,1,232.36,212H43a11.6,11.6,0,0,1-11.59-11.59V84.88H244Zm0-122.95H31.44V62.77A11.6,11.6,0,0,1,43,51.18H232.36A11.6,11.6,0,0,1,244,62.77Z"/><path class="cls-8" d="M177.61,198.59H224a7.84,7.84,0,0,0,7.83-7.84V110.94a7.84,7.84,0,0,0-7.83-7.83H177.61a7.84,7.84,0,0,0-7.84,7.83v40.19a3.73,3.73,0,0,0,7.45,0V110.94a.39.39,0,0,1,.39-.39H224a.39.39,0,0,1,.39.39v79.81a.39.39,0,0,1-.39.4H177.61a.39.39,0,0,1-.39-.4V151.54a3.73,3.73,0,0,0-7.45,0v39.21A7.85,7.85,0,0,0,177.61,198.59Z"/><path class="cls-8" d="M143.86,165.9h9.71a3.72,3.72,0,0,0,0-7.44h-9.71a3.72,3.72,0,0,0,0,7.44Z"/><path class="cls-8" d="M50.86,165.9H120a3.72,3.72,0,1,0,0-7.44H50.86a3.72,3.72,0,0,0,0,7.44Z"/><path class="cls-8" d="M83.57,191.15H50.86a3.72,3.72,0,0,0,0,7.44H83.57a3.72,3.72,0,1,0,0-7.44Z"/><path class="cls-8" d="M115.47,191.15h-8a3.72,3.72,0,0,0,0,7.44h8a3.72,3.72,0,0,0,0-7.44Z"/><path class="cls-8" d="M153.57,174.8H50.86a3.72,3.72,0,1,0,0,7.44H153.57a3.72,3.72,0,1,0,0-7.44Z"/><path class="cls-8" d="M44.73,140.08a3.21,3.21,0,0,1,.1-.52l10-32.7c.46-1.56,2.39-2.29,4.31-2.29s3.9.73,4.37,2.29l10,32.7a2,2,0,0,1,.11.52c0,1.61-2.45,2.81-4.27,2.81-1.14,0-2-.36-2.28-1.35l-2-6.92H53.25l-2,6.92c-.26,1-1.15,1.35-2.29,1.35C47.17,142.89,44.73,141.74,44.73,140.08Zm19-10.76-4.52-16-4.52,16Z"/><path class="cls-8" d="M89.44,104.88c6.86,0,12.22,3.23,12.22,11.91V131c0,8.69-5.36,11.91-12.22,11.91h-9.2c-1.77,0-3-1-3-2.08V107c0-1.09,1.2-2.08,3-2.08ZM84,110.81V137h5.41c3.43,0,5.46-1.92,5.46-6V116.79c0-4.05-2-6-5.46-6Z"/><path class="cls-8" d="M123.18,132.75c0-7.8-16.68-5.41-16.68-17.73,0-7.74,6.65-10.39,12.63-10.39,3.07,0,9.88.72,9.88,4.15,0,1.2-.83,3.59-2.71,3.59-1.61,0-2.8-2-7.17-2-3.74,0-5.88,1.5-5.88,4,0,6.45,16.69,4.21,16.69,17.67,0,7.44-5.2,11.29-12.37,11.29-6.81,0-12-3.43-12-6.45,0-1.46,1.35-3.64,3-3.64,2.13,0,3.54,4,8.84,4C120.48,137.27,123.18,135.87,123.18,132.75Z"/></svg>