<svg id="Layer_1" data-name="Layer 1" xmlns="http://www.w3.org/2000/svg" viewBox="0 0 302 302"><defs><style>.cls-1{fill:#074752;}.cls-2{fill:#d8d8d8;}.cls-3{fill:#fbb03b;}.cls-4{fill:#fff;}.cls-5{fill:#ed4848;}.cls-6{fill:#5abfb6;}.cls-7{fill:#e2b061;}.cls-8{fill:#afafaf;}.cls-9{fill:#155763;}</style></defs><title>Artboard 27</title><circle class="cls-1" cx="151" cy="151" r="151"/><path class="cls-2" d="M68.16,63.31H233.84v91.06H68.16Z"/><path class="cls-3" d="M233.84,69.43H68.16V54.67a8.43,8.43,0,0,1,8.43-8.43H225.41a8.43,8.43,0,0,1,8.43,8.43Z"/><path class="cls-4" d="M233.84,140.67V247.33a8.42,8.42,0,0,1-8.43,8.43H76.59a8.42,8.42,0,0,1-8.43-8.43V140.67Z"/><path class="cls-5" d="M168.5,147h-35a6.33,6.33,0,0,1,0-12.65h35a6.33,6.33,0,0,1,0,12.65Z"/><path class="cls-6" d="M103.36,187.68a14.13,14.13,0,1,1,14.13-14.13A14.13,14.13,0,0,1,103.36,187.68Z"/><path class="cls-6" d="M151,187.68a14.13,14.13,0,1,1,14.12-14.13A14.13,14.13,0,0,1,151,187.68Z"/><path class="cls-6" d="M198.64,187.68a14.13,14.13,0,1,1,14.12-14.13A14.13,14.13,0,0,1,198.64,187.68Z"/><path class="cls-3" d="M140.25,243.11H90.93A2.1,2.1,0,0,1,88.82,241V217a2.1,2.1,0,0,1,2.11-2.11h49.32a2.11,2.11,0,0,1,2.11,2.11v24A2.11,2.11,0,0,1,140.25,243.11Z"/><path class="cls-3" d="M211.07,243.11H161.75a2.11,2.11,0,0,1-2.11-2.11V217a2.11,2.11,0,0,1,2.11-2.11h49.32a2.1,2.1,0,0,1,2.11,2.11v24A2.1,2.1,0,0,1,211.07,243.11Z"/><path class="cls-7" d="M100.73,243.11l10.38-10.39a6.33,6.33,0,0,1,9,0l10.39,10.4Z"/><path class="cls-7" d="M201.27,243.12l-10.39-10.4a6.32,6.32,0,0,0-8.94,0l-10.39,10.39Z"/><path class="cls-8" d="M221.19,69.43h12.65v71.24H221.19Z"/><path class="cls-2" d="M233.84,140.67V247.33a8.42,8.42,0,0,1-8.43,8.43H212.76a8.42,8.42,0,0,0,8.43-8.43V140.67Z"/><circle class="cls-9" cx="79.54" cy="57.83" r="4.22"/><circle class="cls-9" cx="94.3" cy="57.83" r="4.22"/><circle class="cls-9" cx="109.05" cy="57.83" r="4.22"/><path class="cls-9" d="M225.41,43.08H76.59A11.6,11.6,0,0,0,65,54.67V246.36a3.16,3.16,0,0,0,6.32,0V143.83h53.24a9.51,9.51,0,0,0,8.94,6.33h35a9.51,9.51,0,0,0,8.94-6.33h53.24v103.5a5.28,5.28,0,0,1-5.27,5.27H76.59a5.28,5.28,0,0,1-5.27-5.27v-4.21a3.16,3.16,0,1,0-6.32,0v4.21a11.6,11.6,0,0,0,11.59,11.59H225.41A11.6,11.6,0,0,0,237,247.33V54.67A11.6,11.6,0,0,0,225.41,43.08ZM168.5,143.83h-35a3.16,3.16,0,1,1,0-6.32h35a3.16,3.16,0,1,1,0,6.32Zm62.18-6.32H177.44a9.5,9.5,0,0,0-8.94-6.32h-35a9.5,9.5,0,0,0-8.94,6.32H71.32V72.59H233.08a3.17,3.17,0,1,0,0-6.33H71.32V54.67a5.28,5.28,0,0,1,5.27-5.27H225.41a5.28,5.28,0,0,1,5.27,5.27Z"/><path class="cls-1" d="M125.5,92.4a3.16,3.16,0,0,0-3.17-3.16H98.73a3.16,3.16,0,1,0,0,6.32h23.6A3.16,3.16,0,0,0,125.5,92.4Z"/><path class="cls-1" d="M135,95.56h32a3.16,3.16,0,0,0,0-6.32H135a3.16,3.16,0,0,0,0,6.32Z"/><path class="cls-1" d="M203.27,89.24h-23.6a3.16,3.16,0,1,0,0,6.32h23.6a3.16,3.16,0,1,0,0-6.32Z"/><path class="cls-1" d="M147.84,105.05a3.16,3.16,0,0,0-3.16-3.16H114.75a3.16,3.16,0,1,0,0,6.32h29.93A3.16,3.16,0,0,0,147.84,105.05Z"/><path class="cls-1" d="M187.25,101.89H157.32a3.16,3.16,0,0,0,0,6.32h29.93a3.16,3.16,0,1,0,0-6.32Z"/><path class="cls-1" d="M173.34,114.53H130.76a3.17,3.17,0,0,0,0,6.33h42.58a3.17,3.17,0,0,0,0-6.33Z"/><path class="cls-9" d="M103.36,156.27a17.29,17.29,0,1,0,17.29,17.28A17.3,17.3,0,0,0,103.36,156.27Zm0,28.24a11,11,0,1,1,11-11A11,11,0,0,1,103.36,184.51Z"/><path class="cls-9" d="M92.4,197.16a3.17,3.17,0,0,0,0,6.33h21.92a3.17,3.17,0,1,0,0-6.33Z"/><path class="cls-9" d="M151,156.27a17.29,17.29,0,1,0,17.28,17.28A17.3,17.3,0,0,0,151,156.27Zm0,28.24a11,11,0,1,1,11-11A11,11,0,0,1,151,184.51Z"/><path class="cls-9" d="M165.12,200.32a3.16,3.16,0,0,0-3.16-3.16H140a3.17,3.17,0,0,0,0,6.33H162A3.16,3.16,0,0,0,165.12,200.32Z"/><path class="cls-9" d="M198.64,156.27a17.29,17.29,0,1,0,17.28,17.28A17.31,17.31,0,0,0,198.64,156.27Zm0,28.24a11,11,0,1,1,11-11A11,11,0,0,1,198.64,184.51Z"/><path class="cls-9" d="M187.68,197.16a3.17,3.17,0,1,0,0,6.33H209.6a3.17,3.17,0,0,0,0-6.33Z"/><path class="cls-9" d="M85.66,241a5.27,5.27,0,0,0,5.27,5.27h49.32a5.27,5.27,0,0,0,5.27-5.27V217a5.27,5.27,0,0,0-5.27-5.27H90.93A5.27,5.27,0,0,0,85.66,217Zm22.7-1.05,5-5a3.17,3.17,0,0,1,4.47,0l5,5ZM92,218H139.2V240h-7.44l-9.47-9.46a9.49,9.49,0,0,0-13.41,0L99.42,240H92Z"/><path class="cls-9" d="M156.48,217v24a5.27,5.27,0,0,0,5.27,5.27h49.32a5.27,5.27,0,0,0,5.27-5.27V217a5.27,5.27,0,0,0-5.27-5.27H161.75A5.27,5.27,0,0,0,156.48,217Zm22.7,23,5-5a3.18,3.18,0,0,1,4.48,0l5,5ZM162.8,218H210V240h-7.44l-9.46-9.46a9.5,9.5,0,0,0-13.42,0L170.24,240H162.8Z"/></svg>