<svg xmlns="http://www.w3.org/2000/svg" viewBox="0 0 1120.21 959.32"><defs><style>.cls-1{isolation:isolate;}.cls-2{fill:#9ac465;}.cls-10,.cls-17,.cls-3{fill:none;stroke-miterlimit:10;}.cls-3{stroke:#d1d2d5;stroke-linecap:round;stroke-width:2px;}.cls-4{fill:#96c9ec;}.cls-5{fill:#074752;}.cls-6{fill:#e8eaec;}.cls-7{fill:#fff;}.cls-8{fill:#1b75bb;}.cls-9{fill:#5abfb6;}.cls-10{stroke:#e8eaec;}.cls-11{fill:#ed4848;}.cls-12{fill:#f7d1a0;}.cls-13{fill:#e7536a;}.cls-14{fill:#31567a;}.cls-15{fill:#daa77b;}.cls-16{fill:#1f3a49;}.cls-17{stroke:#1f3a49;stroke-width:0.75px;}.cls-18{fill:#4b88c1;}.cls-19{fill:#3f699d;}.cls-20{mix-blend-mode:multiply;}.cls-21{fill:#dfe4f3;}.cls-22{fill:#7aa3d6;}</style></defs><title>Artboard 22</title><g class="cls-1"><g id="Layer_1" data-name="Layer 1"><path class="cls-2" d="M1021.12,953.52a39,39,0,0,0,.86-8.07,38.63,38.63,0,1,0-77.26,0,39,39,0,0,0,.85,8.07Z"/><path class="cls-2" d="M1120.21,953.52a30.14,30.14,0,0,0-58.12,0Z"/><path class="cls-2" d="M1092.73,953.52a44.71,44.71,0,1,0-87.89,0Z"/><path class="cls-2" d="M387.36,953.52a85.29,85.29,0,1,0-120.78,0Z"/><path class="cls-2" d="M462.2,953.52a65.87,65.87,0,1,0-127.58,0Z"/><path class="cls-2" d="M516.07,953.52a51.9,51.9,0,0,0-103.6,0Z"/><path class="cls-2" d="M359.18,953.52a59.23,59.23,0,0,0-117.42,0Z"/><path class="cls-2" d="M678.66,953.52H798.45a85.55,85.55,0,1,0-119.79,0Z"/><path class="cls-2" d="M914.63,953.52a85.55,85.55,0,0,0-165.29,0Z"/><path class="cls-2" d="M785.44,953.52h77.31a60.49,60.49,0,1,0-77.31,0Z"/><path class="cls-2" d="M731,953.52c0-.69.06-1.38.06-2.07a88.74,88.74,0,0,0-177.47,0c0,.69,0,1.38.06,2.07Z"/><path class="cls-2" d="M730.41,953.52a70,70,0,1,0-104.44,0Z"/><path class="cls-2" d="M847.94,953.52a79.83,79.83,0,0,0-147.37,0Z"/><path class="cls-2" d="M257.33,953.52a54.63,54.63,0,1,0-87.15,0Z"/><path class="cls-2" d="M324.13,953.52a54.58,54.58,0,0,0-101.41,0Z"/><path class="cls-2" d="M150.26,953.52a56.66,56.66,0,0,0-109.25,0Z"/><path class="cls-2" d="M203.07,953.52a44.71,44.71,0,1,0-87.88,0Z"/><path class="cls-2" d="M280.5,953.52a50.88,50.88,0,0,0-87.88,0Z"/><path class="cls-2" d="M1020.61,595.15c37.72,54.71-21.87,114.31-76.59,76.58a21.23,21.23,0,0,1-5.43-5.43c-37.73-54.71,21.87-114.32,76.59-76.58A21.23,21.23,0,0,1,1020.61,595.15Z"/><path class="cls-2" d="M1031.27,549.1c35.52,41.26-8.29,94.66-55.7,67.91a14.65,14.65,0,0,1-3.94-3.24c-35.52-41.26,8.28-94.67,55.69-67.91A14.85,14.85,0,0,1,1031.27,549.1Z"/><circle class="cls-2" cx="994.82" cy="726.13" r="88.88"/><path class="cls-2" d="M1061.32,606.93c32.84,47.63-19,99.51-66.67,66.67a18.49,18.49,0,0,1-4.73-4.73c-32.84-47.63,19-99.52,66.68-66.67A18.46,18.46,0,0,1,1061.32,606.93Z"/><line class="cls-3" x1="994.82" y1="620.97" x2="994.82" y2="951.87"/><line class="cls-3" x1="961.33" y1="732.23" x2="994.82" y2="770.08"/><line class="cls-3" x1="971.78" y1="633.51" x2="994.82" y2="660.92"/><line class="cls-3" x1="1025.01" y1="686.06" x2="995.33" y2="717.15"/><path id="_Path_" data-name="&lt;Path&gt;" class="cls-4" d="M743.37,953.34h-330a73.78,73.78,0,0,1-73.75-73.63L338.38,75.34A73.48,73.48,0,0,1,411.9,1.71h330a73.78,73.78,0,0,1,73.76,73.63l1.27,804.37A73.5,73.5,0,0,1,743.37,953.34Z"/><path id="_Path_2" data-name="&lt;Path&gt;" class="cls-5" d="M743.37,953.34h-330a73.78,73.78,0,0,1-73.75-73.63L338.38,75.34A73.48,73.48,0,0,1,411.9,1.71h330a73.78,73.78,0,0,1,73.76,73.63l1.27,804.37A73.5,73.5,0,0,1,743.37,953.34Z"/><path id="_Path_3" data-name="&lt;Path&gt;" class="cls-6" d="M731.86,953.34h-330a73.77,73.77,0,0,1-73.75-73.63L326.87,75.34A73.49,73.49,0,0,1,400.39,1.71h330a73.77,73.77,0,0,1,73.75,73.63l1.27,804.37A73.49,73.49,0,0,1,731.86,953.34Z"/><g id="_Group_" data-name="&lt;Group&gt;"><path class="cls-5" d="M731.87,955.05h-330a75.57,75.57,0,0,1-75.46-75.34L325.16,75.35A75.22,75.22,0,0,1,400.39,0h330a75.58,75.58,0,0,1,75.46,75.34l1.27,804.36a75.2,75.2,0,0,1-75.22,75.35ZM400.39,3.41a71.8,71.8,0,0,0-71.81,71.93l1.27,804.36a72.15,72.15,0,0,0,72,71.93h330a71.78,71.78,0,0,0,71.81-71.92L802.4,75.35a72.15,72.15,0,0,0-72-71.94Z"/></g><path id="_Path_4" data-name="&lt;Path&gt;" class="cls-7" d="M595.84,854.53c28.34,40.26-15.73,84.4-56,56.12a13.33,13.33,0,0,1-3.27-3.26c-28.34-40.26,15.73-84.39,56-56.12A13.5,13.5,0,0,1,595.84,854.53Z"/><rect id="_Path_5" data-name="&lt;Path&gt;" class="cls-7" x="522.79" y="60.87" width="132.37" height="15.9" rx="7.95" ry="7.95"/><path class="cls-7" d="M499.83,63.5c5.64,8.21-3.29,17.14-11.51,11.51a3.51,3.51,0,0,1-.86-.86C481.83,65.93,490.76,57,499,62.64A2.94,2.94,0,0,1,499.83,63.5Z"/><path id="_Path_6" data-name="&lt;Path&gt;" class="cls-7" d="M767.71,804.18H368.11a16.39,16.39,0,0,1-16.39-16.36l-1-655.56A16.33,16.33,0,0,1,367,115.89h399.6A16.41,16.41,0,0,1,783,132.26l1,655.56A16.34,16.34,0,0,1,767.71,804.18Z"/><path class="cls-8" d="M783.14,178.72,783,132.26a16.41,16.41,0,0,0-16.39-16.37H367a16.33,16.33,0,0,0-16.34,16.37l.13,46.46Z"/><path class="cls-7" d="M350.87,252l.85,535.8a16.39,16.39,0,0,0,16.39,16.36h399.6a16.34,16.34,0,0,0,16.34-16.36L783.2,252Z"/><rect id="_Rectangle_" data-name="&lt;Rectangle&gt;" class="cls-7" x="411.93" y="131.24" width="276.11" height="30.83" rx="0.73" ry="0.73"/><rect id="_Rectangle_2" data-name="&lt;Rectangle&gt;" class="cls-9" x="697.64" y="131.24" width="30.3" height="30.83" rx="0.73" ry="0.73"/><path id="_Path_7" data-name="&lt;Path&gt;" class="cls-7" d="M751.47,162.08h0a15.16,15.16,0,0,1-15.16-15.15v-.54a15.16,15.16,0,0,1,15.16-15.15h0a15.16,15.16,0,0,1,15.15,15.15v.54A15.16,15.16,0,0,1,751.47,162.08Z"/><g id="_Group_2" data-name="&lt;Group&gt;"><rect id="_Rectangle_3" data-name="&lt;Rectangle&gt;" class="cls-7" x="366.23" y="131.24" width="31.55" height="31.55" rx="0.73" ry="0.73"/><g id="_Group_3" data-name="&lt;Group&gt;"><path id="_Compound_Path_" data-name="&lt;Compound Path&gt;" class="cls-8" d="M378.86,157.64V146.53H377v-3.3h1.89v-.56a6.6,6.6,0,0,1,1.82-4.83,5.84,5.84,0,0,1,4-1.44,8.94,8.94,0,0,1,2.39.29l-.18,3.45a4.77,4.77,0,0,0-1.44-.21c-1.48,0-2.1,1.15-2.1,2.57v.73h2.89v3.3h-2.86v11.11Z"/></g></g><path id="_Compound_Path_2" data-name="&lt;Compound Path&gt;" class="cls-4" d="M670.34,138a9.54,9.54,0,1,0-1.55,14.75l4.74,4.74a2,2,0,0,0,2.81-2.81L671.6,150A9.54,9.54,0,0,0,670.34,138Zm-1.93,11.55a6.8,6.8,0,1,1,0-9.61A6.8,6.8,0,0,1,668.41,149.57Z"/><rect id="_Rectangle_4" data-name="&lt;Rectangle&gt;" class="cls-9" x="399.48" y="199.53" width="169.14" height="18.47" rx="0.73" ry="0.73"/><rect id="_Rectangle_5" data-name="&lt;Rectangle&gt;" class="cls-10" x="366.56" y="233.59" width="400.05" height="84.34" rx="0.73" ry="0.73" transform="translate(1133.18 551.52) rotate(180)"/><rect id="_Rectangle_6" data-name="&lt;Rectangle&gt;" class="cls-9" x="366.56" y="199.53" width="21.29" height="18.47" rx="0.73" ry="0.73"/><rect id="_Rectangle_7" data-name="&lt;Rectangle&gt;" class="cls-9" x="399.48" y="374.78" width="169.14" height="18.47" rx="0.73" ry="0.73"/><rect id="_Rectangle_8" data-name="&lt;Rectangle&gt;" class="cls-9" x="366.56" y="374.78" width="21.29" height="18.47" rx="0.73" ry="0.73"/><path class="cls-6" d="M420.09,581a6.05,6.05,0,0,0-8.57,0l-.11.1-.1-.1a6.06,6.06,0,0,0-8.57,8.57l8.64,8.65,0,0,0,0,8.65-8.65A6.05,6.05,0,0,0,420.09,581Z"/><path class="cls-6" d="M443.6,578.42a9.68,9.68,0,0,0-6.53,16.84l-2.45,3.79,9-1.25a9.69,9.69,0,0,0,0-19.38Z"/><path class="cls-6" d="M388.42,582.56c6.54,9.49-3.79,19.82-13.27,13.28a3.65,3.65,0,0,1-.94-.94c-6.54-9.49,3.79-19.81,13.27-13.28A3.82,3.82,0,0,1,388.42,582.56Z"/><polygon class="cls-6" points="476.62 579.23 476.62 597.14 486.99 588.19 476.62 579.23"/><path class="cls-6" d="M461.72,597.14s0-11.91,14.9-11.91v5.95S465.88,588.53,461.72,597.14Z"/><rect id="_Rectangle_9" data-name="&lt;Rectangle&gt;" class="cls-6" x="366.56" y="407.8" width="400.05" height="156.25" rx="0.73" ry="0.73" transform="translate(1133.18 971.85) rotate(180)"/><g id="_Group_4" data-name="&lt;Group&gt;"><circle id="_Path_8" data-name="&lt;Path&gt;" class="cls-7" cx="567.46" cy="488.17" r="31.18"/><path id="_Compound_Path_3" data-name="&lt;Compound Path&gt;" class="cls-9" d="M566.92,468.05a14.17,14.17,0,0,0-13.33,13.72,14,14,0,0,0,2.22,7.92c2.89,4.49,11.83,18.72,11.83,18.72s9.07-14.45,11.8-18.61a13.9,13.9,0,0,0,2.31-7.69A14.08,14.08,0,0,0,566.92,468.05Zm.62,20.33a6.27,6.27,0,1,1,6.27-6.27A6.27,6.27,0,0,1,567.54,488.38Z"/></g><rect id="_Rectangle_10" data-name="&lt;Rectangle&gt;" class="cls-6" x="399.48" y="617.82" width="169.14" height="18.47" rx="0.73" ry="0.73"/><rect id="_Rectangle_11" data-name="&lt;Rectangle&gt;" class="cls-6" x="366.56" y="617.82" width="21.29" height="18.47" rx="0.73" ry="0.73"/><rect id="_Rectangle_12" data-name="&lt;Rectangle&gt;" class="cls-6" x="366.56" y="650.84" width="400.05" height="120.74" rx="0.73" ry="0.73" transform="translate(1133.18 1422.42) rotate(180)"/><path class="cls-6" d="M420.09,336.36a6.07,6.07,0,0,0-8.57,0l-.11.11-.1-.11a6.06,6.06,0,1,0-8.57,8.58l8.64,8.64,0,0,0,0,8.65-8.64A6.07,6.07,0,0,0,420.09,336.36Z"/><path class="cls-6" d="M443.6,333.77a9.68,9.68,0,0,0-6.53,16.84l-2.45,3.79,9-1.24a9.7,9.7,0,0,0,0-19.39Z"/><path class="cls-6" d="M388.42,337.92c6.54,9.49-3.79,19.81-13.27,13.27a3.65,3.65,0,0,1-.94-.94c-6.54-9.48,3.79-19.81,13.27-13.27A3.82,3.82,0,0,1,388.42,337.92Z"/><polygon class="cls-6" points="476.62 334.59 476.62 352.49 486.99 343.54 476.62 334.59"/><path class="cls-6" d="M461.72,352.49s0-11.9,14.9-11.9v5.94S465.88,343.89,461.72,352.49Z"/><g id="_Group_5" data-name="&lt;Group&gt;"><g id="_Group_6" data-name="&lt;Group&gt;"><circle id="_Path_9" data-name="&lt;Path&gt;" class="cls-7" cx="568.62" cy="711.21" r="30.47" transform="translate(-340.57 660.96) rotate(-48.19)"/></g><path id="_Path_10" data-name="&lt;Path&gt;" class="cls-11" d="M582.43,702.29h0l-.27-.25a9.49,9.49,0,0,0-13.1.42l-.54.56-.56-.55a9.47,9.47,0,0,0-13.36.17h0a9.47,9.47,0,0,0,.16,13.36L565,726a5.37,5.37,0,0,0,7.58-.1l10-10.25A9.48,9.48,0,0,0,582.43,702.29Z"/></g><g id="_Group_7" data-name="&lt;Group&gt;"><path class="cls-5" d="M767.71,805.89H368.11A18.12,18.12,0,0,1,350,787.82l-1-655.56a18,18,0,0,1,18-18.08h399.6a18.12,18.12,0,0,1,18.09,18.07l1,655.56a18,18,0,0,1-18,18.08ZM367,117.6a14.61,14.61,0,0,0-14.63,14.65l1,655.56a14.71,14.71,0,0,0,14.69,14.66h399.6a14.63,14.63,0,0,0,14.63-14.65l-1-655.56a14.7,14.7,0,0,0-14.68-14.66Z"/></g><path class="cls-12" d="M774.82,285.16s-2.79-4.29-3.31-7.45c-.56-3.35,1.09-5.61-.89-6.38-3.84-1.49-7.11-.14-10.9-5.38s-6.16-13.67-10.05-11.41-9.22,4.61-10.06,10.6,7.28,18.54,10.94,20.94,11.34,4.35,14.25,9.35S774.82,285.16,774.82,285.16Z"/><path class="cls-13" d="M898.07,381.3a22.37,22.37,0,0,1,9.63,19.05c-.31,13-5.25,22.84-23.33,22s-47.08-38.3-67.18-54.9-58.76-73.7-58.76-73.7l15.65-12s43.39,45.84,62.29,60.68C865.8,365.52,898.07,381.3,898.07,381.3Z"/><path class="cls-11" d="M898.07,381.3a22.37,22.37,0,0,1,9.63,19.05c-.31,13-5.25,22.84-23.33,22s-47.08-38.3-67.18-54.9-58.76-73.7-58.76-73.7l15.65-12s43.39,45.84,62.29,60.68C865.8,365.52,898.07,381.3,898.07,381.3Z"/><path class="cls-12" d="M771.51,277.71c2.39-10.85-3.57-19.85-7-20.61-4.11-.91-1.68,6.3-.3,10.47,2,5.94-3.34,15.13-3.34,15.13S770.7,281.37,771.51,277.71Z"/><g id="_Group_8" data-name="&lt;Group&gt;"><path id="_Path_11" data-name="&lt;Path&gt;" class="cls-8" d="M696.88,372.26h0A73.67,73.67,0,0,1,624,297.83h0a73.67,73.67,0,0,1,74.43-72.9h0a73.67,73.67,0,0,1,72.9,74.43h0A73.67,73.67,0,0,1,696.88,372.26Z"/><g id="_Group_9" data-name="&lt;Group&gt;"><path id="_Path_12" data-name="&lt;Path&gt;" class="cls-7" d="M685.81,284.82l-.34,32.52a2.78,2.78,0,0,1-2.81,2.76l-16.11-.17a2.79,2.79,0,0,1-2.75-2.81l.34-32.53a2.77,2.77,0,0,1,2.81-2.75l16.1.17A2.78,2.78,0,0,1,685.81,284.82Z"/><path id="_Path_13" data-name="&lt;Path&gt;" class="cls-7" d="M735.77,317.55a3.07,3.07,0,0,1-3.1,3l-3.31,0v0l-35.86-.37a4.06,4.06,0,0,1-4-4.11l.28-27.58a6.34,6.34,0,0,1,0-1.18v-1.2a4,4,0,0,1,3.74-4,22.3,22.3,0,0,1,2.88-2.41c2.94-2,4-10.81,4.32-13.82a4.86,4.86,0,0,1,4.85-4.32h.17a4.83,4.83,0,0,1,4.78,4.88s.18,2.55.18,6.05c0,0,0,0,0,0a66.44,66.44,0,0,1-.54,7.6h.22c-.06.71-.14,1.41-.24,2.11l22.91.23a3.07,3.07,0,0,1,3,3.11l0,1.78C736.06,289.11,735.77,317.55,735.77,317.55Z"/></g></g><path class="cls-12" d="M702.75,374.51s-5-2.19-7.32-4.71c-2.47-2.67-2.32-5.65-4.53-5.17-4.3.92-6.44,4-12.89,1.58s-13.52-8.6-15.67-4.3-5.53,9.52-2.76,15.36,17.35,12.29,22,12.29,12.67-2.77,18.2,0S702.75,374.51,702.75,374.51Z"/><path class="cls-14" d="M894.86,595.05c2.49,5.68-16.46,115.21-12.45,142.74,1.9,13-9.37,154-12,180.19H848.56s-1-152.17-6.27-181.25c-10.31-56.42-10.71-146.71,4.28-165C855.08,561.4,894.86,595.05,894.86,595.05Z"/><path class="cls-14" d="M932.44,580.73c16.44,56.28,3.82,129.53,7.83,157.06,1.91,13-9.37,154-12,180.19H906.43s-1-152.17-6.28-181.25C889.84,680.31,878.4,599,878.4,599Z"/><path class="cls-11" d="M885.81,377.41s-28.36,3.61-40.62,13.27c-14.51,11.45,7.55,22.12-5.22,34.92,0,0,9,23.59,12.77,45.9S835,612.37,831.68,645.05c0,0,40.7,20.25,76,20.25s50.09-22.14,50.09-22.14-13.37-106.45-9.61-138,8.27-80.45,4.51-99.23-29.31-21.72-29.31-21.72Z"/><path class="cls-12" d="M861.92,317.28S852.19,335.77,853,338s8.88,6.85,8.88,6.85Z"/><path class="cls-15" d="M861.92,317.28S852.19,335.77,853,338s8.88,6.85,8.88,6.85Z"/><path class="cls-12" d="M865.52,299.06c-.54,3.69-2,10.29-3.6,18.22A243.85,243.85,0,0,0,858,343.5c-.71,8.59-3.79,14.79,2.63,18.13,3.36,1.75,13.17,5,14,20.37.84,14.73,38.7,11.45,40.33-15.46,1.1-18.06-25.45-56.1-25.45-56.1Z"/><path class="cls-11" d="M852.05,387.59a22.34,22.34,0,0,1,18.5,10.65c6.86,11,11.52,25.35-4.07,34.53s-62.16,9.18-88.07,6.33-82.21-47.68-82.21-47.68l4.93-17.14s33.66,13.86,52,21.7,21.66,11.18,45.54,8.54S852.05,387.59,852.05,387.59Z"/><path class="cls-16" d="M864.53,315.23a3.59,3.59,0,0,0,3.82,6,1.78,1.78,0,0,0,.57-.36,3.59,3.59,0,0,0-3.81-6A1.79,1.79,0,0,0,864.53,315.23Z"/><path class="cls-17" d="M868.65,347.17c-2.45,1.65-6.27,1.26-9.25,0"/><path class="cls-17" d="M883.52,306.29a25,25,0,0,0-9.06-.58,11.55,11.55,0,0,0-7.73,4.4"/><path class="cls-5" d="M878.29,276.62c-9.12,3.78-14.3,16.71-14.28,36.82,0,30.82,21.22,19.3,24.8,31.57,2.19,7.47-3.87,11.73-8.26,17.35-15.91,20.35-14.15,53-2,74.65,15.78,28,52.77,32.67,73.77,6.51,30.76-38.31-16.61-69.35-8-110.88C951.9,296.57,918,260.16,878.29,276.62Z"/><path class="cls-5" d="M924.71,926.48s-4.64,18.64-6.39,22.14a15.77,15.77,0,0,0-1.75,6.41H890.7s9.6-18.65,15.7-22.73S924.71,926.48,924.71,926.48Z"/><path class="cls-5" d="M929.13,918s4.92,6.17,2.59,12S929.13,955,929.13,955h-9.06s-1.75-17.82-4.08-18.53S895.63,955,895.63,955H880.45a181.37,181.37,0,0,0,12.82-18.53c8.34-13.69,14-18.52,14-18.52Z"/><path class="cls-5" d="M924.71,926.48l4.42-8.5,2-19.4s-12.07,1.88-16.12,1.75c-2.49-.09-9.8,0-9.8,0s-.65,18.93-6.32,27.55Z"/><path class="cls-5" d="M867,926.48s-4.64,18.64-6.39,22.14a15.77,15.77,0,0,0-1.75,6.41H833s9.61-18.65,15.71-22.73S867,926.48,867,926.48Z"/><path class="cls-5" d="M871.44,918s4.93,6.17,2.6,12-2.6,25.06-2.6,25.06h-9.05s-1.75-17.82-4.08-18.53S837.94,955,837.94,955H822.77a182.39,182.39,0,0,0,12.81-18.53c8.35-13.69,14-18.52,14-18.52Z"/><path class="cls-5" d="M867,926.48l4.41-8.5,2-19.4s-12.06,1.88-16.11,1.75c-2.49-.09-9.8,0-9.8,0s-.65,18.93-6.32,27.55Z"/><rect class="cls-18" x="846.84" y="896.86" width="30.03" height="11.24" transform="translate(1723.71 1804.96) rotate(180)"/><rect class="cls-18" x="904.52" y="896.86" width="30.03" height="11.24" transform="translate(1839.07 1804.96) rotate(180)"/><g id="_Group_10" data-name="&lt;Group&gt;"><g id="_Group_11" data-name="&lt;Group&gt;"><circle class="cls-8" cx="474.18" cy="557.04" r="65.51" transform="translate(-225.77 769.67) rotate(-66.49)"/></g><g id="_Group_12" data-name="&lt;Group&gt;"><polygon class="cls-7" points="511.96 537.73 483.58 556.33 465.69 545.36 436.39 576.36 465.55 562.43 483.44 573.4 511.96 537.73"/></g></g><path class="cls-13" d="M243.91,594.07s.45,82.66,11.75,102.87c13.26,23.71,67.88,83.52,67.88,83.52l-19.15,17.23s-65.87-62.17-81-86.67c-14.82-24-37.54-86.63-30.45-115.68C195.94,583,222.74,555.9,243.91,594.07Z"/><path class="cls-11" d="M243.91,594.07s.45,82.66,11.75,102.87c13.26,23.71,67.88,83.52,67.88,83.52l-19.15,17.23s-65.87-62.17-81-86.67c-14.82-24-37.54-86.63-30.45-115.68C195.94,583,222.74,555.9,243.91,594.07Z"/><path class="cls-12" d="M294.8,509.32s1.65,10.57,4.25,17.26-11.53,9.55-11.53,9.55Z"/><path class="cls-15" d="M294.8,509.32s1.65,10.57,4.25,17.26-11.53,9.55-11.53,9.55Z"/><path class="cls-19" d="M171.57,708.82l-14.63,12.66C133,742.19,144,902.68,144,902.68L55.75,899l8.58,36.52s59.87,17.61,93.9,13.09c6.13-.81,19.08-9,23.88-16.36,32.06-49,31.65-137.29,31.65-137.29Z"/><g class="cls-20"><path class="cls-21" d="M206.67,865a400.06,400.06,0,0,0,7.09-70l-42.19-86.15-14.63,12.66c-8.07,7-12.16,29.86-14,57.11C161.42,809.51,182.34,838.42,206.67,865Z"/></g><polygon class="cls-22" points="34.91 893.97 39.77 934.25 64 939.64 63.39 897.99 34.91 893.97"/><path class="cls-19" d="M130.39,791.47l12.67,14.63c20.7,23.93,165.61,3.32,165.61,3.32a605.75,605.75,0,0,1-15,96.58l29.19-1S359,822.24,354.49,788.21c-.82-6.13-8.47-20.07-16.37-23.88-38.53-18.61-103.78-29-103.78-29Z"/><path class="cls-12" d="M220.73,528a239.26,239.26,0,0,1-14.87,29.12l33.59,30.3s1.76-26.32,18.11-38.37Z"/><path class="cls-12" d="M289.77,546c-1.22,6.9-4.33,12.35-8.86,15.43s-22.92-4.73-32.34-2.55c-21.19,4.93-29.45-24.44-30-47.74-.21-8.34,4.28-17.52,9.46-23.78,6.1-7.36,19.77-8.76,28.69-7.14,5.35,1,10.83,4.54,15.05,7.85,3.82,3,24.1-1.08,26.34,3.3,0,0-1,6.32-2.21,14.67C293.58,521.29,290.25,543.27,289.77,546Z"/><path class="cls-16" d="M293.35,512.28a3.07,3.07,0,1,1-3.24-2.88A3.07,3.07,0,0,1,293.35,512.28Z"/><path class="cls-5" d="M222.48,480.16s-3.38-6.44,1.59-13.47c11.07-15.7,54.65-16.2,67.79,3.42,3.14,4.68,14,16.84,6.24,21.29-8.85,5.09-37.05,2-44.16-2.12-6-3.43.88,7.56,1.52,12.68,0,0-5.44,14.23-6.16,16.4C248.57,508,246,510,241.4,504.7c-4.28-4.86-10.19,1-9.35,6.56,1.31,8.59,3.89,8.58,3.89,8.58-.8,4.39-8.74,10.46-10.91,14.41-3.48-3.35-15.1-25.69-16.81-31.27C204.58,491.08,209.69,477.78,222.48,480.16Z"/><path class="cls-16" d="M286.12,544.55a13.37,13.37,0,0,1-10.65-4.61l2.66-2.18c3.12,3.81,8.62,3.83,12.4,2.69l1,3.31A19.07,19.07,0,0,1,286.12,544.55Z"/><polygon class="cls-19" points="211.99 545.65 248.57 580.31 234.88 601.91 204.78 550.71 211.99 545.65"/><path class="cls-11" d="M204.79,550.71s-20.9,8.64-35.2,25.33c-67.17,78.36-39.2,215.43-39.2,215.43s59.84,12.17,104-56.12l.54-133.44Z"/><g class="cls-20"><path class="cls-21" d="M210.32,597c1.29,26.46,10.76,53.12,24.26,78.72l.28-69.83C226,604,217.54,601.51,210.32,597Z"/></g><path class="cls-5" d="M282.47,924.3l-.74,26.52,81,2.38s-7.17-12.5-12.82-16.16c-7.83-5.06-31.44-13-31.44-13Z"/><polygon class="cls-22" points="282.47 924.29 322.3 927.93 326.67 906.52 290.93 902.52 282.47 924.29"/><path class="cls-12" d="M391.69,606.77c2.9-2.73,12.81-11.37,12.81-11.37s7.43-4.9,9.82-7.07,3.84.35,8.88,2.52,12.75,2.6,19.61-.27,6,4,4.57,11.4-4.85,17.09-10.34,17.67-18.75,0-23.3-1.73S398,619.57,398,619.57Z"/><path class="cls-11" d="M203,573.54s72.29,40.09,95.44,40.14c27.17.05,106.06-18.28,106.06-18.28l5.65,25.13s-86.47,27-115.25,28.2c-28.15,1.19-93.91-9.7-115.77-30.1C169.81,609.92,159.35,573.3,203,573.54Z"/><path class="cls-16" d="M292.61,506.91c-7.74-3.64-12.23-1.35-12.79-.75l-3-1.61c.54-1.24,2.32-2,3.06-2.3,2.26-.85,7.12-1.8,14.22,1.54Z"/><path class="cls-5" d="M18.45,889.87,0,958.73s4.3,3,19.68-4.63,20.09-19.85,20.09-19.85L34.91,894Z"/><path class="cls-6" d="M918.94,215.92A52,52,0,1,1,1022,206.47a52.56,52.56,0,0,1-.9,9.45Z"/><path class="cls-6" d="M882.79,215.92a35.52,35.52,0,0,1,68.25,0Z"/><path class="cls-6" d="M1018.44,215.68a30.34,30.34,0,0,1,58.3,0Z"/><path class="cls-6" d="M1051.5,215.92H982.16a36.44,36.44,0,1,1,69.54-.15C1051.63,215.81,1051.57,215.87,1051.5,215.92Z"/></g></g></svg>