<?xml version="1.0" encoding="utf-8"?>
<!-- Generator: Adobe Illustrator 23.0.1, SVG Export Plug-In . SVG Version: 6.00 Build 0)  -->
<svg version="1.1" id="Capa_1" xmlns="http://www.w3.org/2000/svg" xmlns:xlink="http://www.w3.org/1999/xlink" x="0px" y="0px"
	 viewBox="0 0 1319.9 771.7" style="enable-background:new 0 0 1319.9 771.7;" xml:space="preserve">
<style type="text/css">
	.st0{fill:#00BDB5;}
	.st1{fill:#FFFFFF;}
	.st2{fill:#004552;}
	.st3{fill:#FF4645;}
	.st4{fill:#211915;}
	.st5{fill:#FCFCFC;}
	.st6{fill:#FBFBFB;}
</style>
<title>Mesa de trabajo 1 copy 6</title>
<g id="MARKETING_DIGITAL">
	<path class="st0" d="M1217.9,527.9c0-39.6-9.9-137.1-26.8-166.9c-8.6-15.4-28-20.9-43.4-12.3c-5.1,2.9-9.4,7.1-12.3,12.3
		c-16.9,29.9-26.8,127.3-26.8,166.9c0,52.7,21,72.4,45.5,72.4v54.8h18.1v-54.8C1196.9,600.3,1217.9,580.5,1217.9,527.9z"/>
	<path class="st0" d="M1053.3,360.5c0-37.8-28-69.8-65.6-74.8c-4-54.3-51.2-95.2-105.6-91.2c-21,1.5-41,9.8-57,23.5
		c-37-19.1-82.5-4.5-101.6,32.5c-14.3,27.7-10,61.4,10.7,84.7c-61.5,31.4-85.8,106.7-54.4,168.2s106.7,85.8,168.2,54.4
		c3-1.5,5.9-3.1,8.7-4.9v116.8h41.4V548.9c34.1,24,81.1,15.7,105.1-18.3c21-29.9,17.6-70.7-8.3-96.6
		C1029.1,426,1053.3,395.5,1053.3,360.5z"/>
	<path class="st0" d="M286.4,613.4l-75.5-233.9l-75.5,234h68.4V670h14.1v-56.6H286.4z"/>
	<path class="st0" d="M501.8,393.4c34.5-5.9,57.6-38.6,51.7-73.1c-4.1-23.7-21.2-43.1-44.3-50c4.9-45-27.7-85.4-72.6-90.2
		s-85.4,27.7-90.2,72.6c-2.1,19,2.6,38.1,13.2,54.1c-34.9,2.7-60.9,33.1-58.2,68c2.2,27.9,22.3,51,49.6,57
		c-25.8,10.5-38.2,39.8-27.7,65.6c10.5,25.8,39.8,38.2,65.6,27.7c11.6-4.7,21.1-13.6,26.5-25v164.7h24.9V493.5
		c20.8,28.1,60.5,34,88.6,13.1c28.1-20.8,34-60.5,13.1-88.6C532.2,405,517.8,396.2,501.8,393.4z"/>
	<path class="st0" d="M341.7,696.9H16.1c-25.3,0-21.3-26.9,15.8-28.5s98.8,4.7,98.8,4.7s5.5-41.9,50.6-41.9s56.1,29.2,56.1,29.2
		s1.6-98,98-98S491.1,640,491.1,640s15-15,53-15s45.8,32.4,45.8,32.4s18.1-13.4,56-5.5s37.1,45,19.8,45H338.6"/>
	<path class="st0" d="M1097.1,702H880.9c-16.8,0-14.2-17.8,10.5-18.9s65.6,3.1,65.6,3.1s3.7-27.8,33.6-27.8s37.3,19.4,37.3,19.4
		s1-65.1,65.1-65.1s103.4,51.4,103.4,51.4s10-10,35.2-10s30.4,21.5,30.4,21.5s12.1-8.9,37.3-3.7s24.7,29.9,13.1,29.9h-217.2"/>
	<path class="st0" d="M899.1,701.6h-92.8c-16.8,0-11.3-24.7,2.8-31.3s33.3,0,33.3,0s-1-22,14.4-36.8s35.4-14.4,35.4-14.4
		s-12-30.6,8.6-49.5s53.9-13,65.6,3.4s5.5,38.1,5.5,38.1c18.3-8.3,39.6-5.9,55.7,6.2c28.2,20.6,5.2,44.3,5.2,44.3s25.1-10,39.8,5.8
		c16,17.1-5.5,34-33,34L899.1,701.6z"/>
	<path class="st1" d="M450.8,92.8V700c-0.1,17.6,14,31.9,31.6,32h353.8c17.6-0.1,31.7-14.4,31.6-32V92.8H450.8z"/>
	<rect x="526.6" y="126.7" class="st2" width="305.1" height="14.4"/>
	<circle class="st3" cx="493.6" cy="133.8" r="19.6"/>
	<rect x="526.6" y="158.4" class="st0" width="305.1" height="259.5"/>
	<rect x="527.7" y="440.5" class="st2" width="305.1" height="14.4"/>
	<rect x="527.7" y="472.5" class="st0" width="305.1" height="218.8"/>
	<circle class="st3" cx="494.6" cy="447.7" r="19.6"/>
	<path class="st2" d="M867.7,48.9c0.1-17.6-14-31.9-31.6-32h-65.3l-9.5,13.3c-3.7,5.1-9.6,8.2-15.9,8.2H575.2
		c-5.7,0-11-2.5-14.7-6.8l-12.8-14.8h-65.3c-17.6,0.1-31.7,14.4-31.6,32v43.8h416.9V48.9z"/>
	<path class="st0" d="M834.7,4.5H483.8c-23.9,0-43.3,19.4-43.3,43.3v654.2c0,23.9,19.4,43.3,43.3,43.3h350.9
		c23.9,0,43.3-19.4,43.3-43.3V47.9C878,23.9,858.6,4.5,834.7,4.5z M868.7,700c0.1,18.1-14.5,32.9-32.6,33H482.3
		c-18.1-0.1-32.7-14.9-32.6-33V48.9c-0.1-18.1,14.5-32.9,32.6-33h65.8L561.2,31c3.5,4.1,8.6,6.4,14,6.4h170.3c6,0,11.6-2.9,15.1-7.8
		l9.8-13.7h65.8c18.1,0.1,32.7,14.9,32.6,33L868.7,700z"/>
	<path class="st4" d="M834.7,3.5H483.8c-24.5,0-44.3,19.9-44.3,44.3v654.2c0,24.5,19.9,44.3,44.3,44.3h350.9
		c24.5,0,44.3-19.9,44.3-44.3V47.9C879,23.4,859.2,3.5,834.7,3.5z M878,702.1c0,23.9-19.4,43.3-43.3,43.3H483.8
		c-23.9,0-43.3-19.4-43.3-43.3V47.9c0-23.9,19.4-43.3,43.3-43.3h350.9c23.9,0,43.3,19.4,43.3,43.3V702.1z"/>
	<path class="st4" d="M834.7,0H483.8c-26.1,0-47.3,21.2-47.3,47.3v654.3c0,26.1,21.2,47.3,47.3,47.3h350.9
		c26.1,0,47.3-21.2,47.3-47.3V47.3C882,21.2,860.8,0,834.7,0z M875,47.3v654.3c0,22.3-18.1,40.3-40.3,40.3H483.8
		c-22.3,0-40.3-18.1-40.3-40.3V47.3c0-22.3,18.1-40.3,40.3-40.3h350.9C856.9,7,875,25.1,875,47.3z"/>
	<path class="st4" d="M482.3,733.4c-18.3-0.1-33.1-15-33-33.4V48.9c-0.1-18.3,14.7-33.3,33-33.4h65.8c0.1,0,0.2,0,0.3,0.1l13.1,15.1
		c3.4,4,8.4,6.3,13.7,6.3h170.3c5.9,0,11.4-2.9,14.8-7.6l9.8-13.7c0.1-0.1,0.2-0.2,0.3-0.1h65.8c18.3,0.1,33.1,15,33,33.4V700
		c0.1,18.3-14.7,33.3-33,33.4L482.3,733.4z M482.3,17.3C465,17.4,451,31.6,451.1,48.9V700c-0.1,17.3,13.9,31.5,31.2,31.6h353.8
		c17.3-0.1,31.3-14.3,31.2-31.6V48.9c0.1-17.3-13.9-31.5-31.2-31.6H771l-9.3,13.1c-3.7,5.2-9.8,8.4-16.2,8.4H575.2
		c-5.8,0-11.2-2.5-15-6.9l-12.7-14.6L482.3,17.3z"/>
	<path class="st4" d="M836.1,15.9c18.1,0.1,32.7,14.9,32.6,33V700c0.1,18.1-14.5,32.9-32.6,33H482.3c-18.1-0.1-32.7-14.9-32.6-33
		V48.9c-0.1-18.1,14.5-32.9,32.6-33h65.8L561.2,31c3.5,4.1,8.6,6.4,14,6.4h170.3c6,0,11.6-2.9,15.1-7.8l9.8-13.7H836.1 M575.2,38.4
		c-5.7,0-11-2.5-14.7-6.8l-12.8-14.8h-65.3c-17.6,0.1-31.7,14.4-31.6,32V700c-0.1,17.6,14,31.9,31.6,32h353.8
		c17.6-0.1,31.7-14.4,31.6-32V48.9c0.1-17.6-14-31.9-31.6-32h-65.3l-9.5,13.3c-3.7,5.1-9.6,8.2-15.9,8.2L575.2,38.4 M836.1,15.2
		h-65.8c-0.2,0-0.5,0.1-0.6,0.3l-9.8,13.7c-3.3,4.7-8.7,7.5-14.5,7.5H575.2c-5.1,0-10-2.3-13.4-6.1l-13.1-15.1
		c-0.1-0.2-0.4-0.3-0.6-0.3h-65.8c-18.5,0.1-33.4,15.2-33.3,33.8V700c-0.1,18.5,14.8,33.6,33.3,33.7h353.8
		c18.5-0.1,33.4-15.2,33.3-33.7V48.9C869.6,30.4,854.6,15.3,836.1,15.2L836.1,15.2z M771.2,17.7h64.9c17.1,0.1,30.9,14.1,30.8,31.3
		V700c0.1,17.1-13.7,31.1-30.8,31.2H482.3c-17.1-0.1-30.9-14.1-30.8-31.2V48.9c-0.1-17.1,13.7-31.1,30.8-31.2h65l12.6,14.5
		c3.8,4.4,9.4,7,15.3,7h170.3c6.6,0,12.7-3.2,16.5-8.6L771.2,17.7L771.2,17.7z"/>
	<rect x="545.7" y="53.8" class="st1" width="260.9" height="19.6"/>
	<circle class="st1" cx="493.5" cy="57" r="19.6"/>
	<rect x="818.1" y="53.8" class="st1" width="29.4" height="3.2"/>
	<rect x="818.1" y="61.9" class="st1" width="29.4" height="3.2"/>
	<rect x="818.1" y="70.2" class="st1" width="29.4" height="3.2"/>
	<rect x="536.3" y="551.4" class="st0" width="281.8" height="140"/>
	<circle class="st2" cx="540.6" cy="478.6" r="49.7"/>
	<path class="st5" d="M518.3,479c3.5-3.5,6.9-7.1,10.1-10.7c1.8-2,3.7-3.8,5.6-5.7c1-1,1.3,0.1,1.8,0.5c4.3,4.3,8.6,8.6,12.7,13.1
		c1.1,1.2,2,1.3,3.4,0.5c4.9-2.8,9.9-5.4,14.8-8.1c3-1.7,6-3.3,9-5c0.5-0.3,0.9-0.8,1.7-0.3l-9.6,10.6l-18,19.1
		c-2.8,2.9-2.8,2.9-5.6,0c-3.8-4-7.6-7.9-11.3-12c-0.5-0.8-1.6-1-2.3-0.5c0,0-0.1,0.1-0.1,0.1c-8,4.5-16.1,8.9-24.2,13.3
		c-0.7,0.6-1.6,0.8-2.5,0.6C508.9,489.4,513.5,484,518.3,479z"/>
	<path class="st4" d="M543.5,522.3c-0.6-2.4-2.8-4.1-5.2-4c-0.4,0-0.7,0-1.1,0.1l-1,0.2l0,0c-1.1-1-2.6-1.6-4.1-1.5h-0.6
		c-0.5,0-1.2,0.1-2.2,0.2c-2.8,0.4-5.5,0.6-8.3,0.6c-0.7,0-1.2,0-1.6-0.1c-0.1-0.9-0.1-1.8,0-2.7c0-2.1,0.1-4.1-0.9-5.8
		c-1-1.7-2.8-2.8-4.8-2.8c-0.8,0-1.5,0.2-2.2,0.4c-2,0.6-3.3,2.6-3,4.7c0,0.8-0.2,4.3-2.5,5.4c-3.2,1.7-5.5,4.8-6.3,8.3l-58.9,20.8
		c-6.1-1.7-40-11-49.4-16.5c-2.3-1.3-4.3-2.4-6.2-3.4c0.3-0.5,0.5-0.9,0.7-1.4c2.4,1.1,5,1.7,7.7,1.8c2.9,0.1,5.6-1.2,7.5-3.4
		c4.3-5.5,6.4-15.4,7.2-20.6c1.5-0.3,3-0.6,4.5-1.1c1.5-0.5,2.5-1.9,2.5-3.5c-0.4-4.9-1.3-9.7-2.4-14.5l0.5-4
		c1.6,0.5,2.5,0.8,2.5,0.8c0.4,0.1,0.7,0.2,1.1,0.2c1.8,0,3.3-1.4,3.5-3.2c0.4,0.2,0.8,0.2,1.3,0.2c1.9,0,3.5-1.6,3.5-3.5
		c0-0.2,0-0.3,0-0.5c-1.5-10.4-9.3-19.9-20.8-25.4c-6-2.9-12.6-4.5-19.4-4.5c-5.6-0.1-11,1.3-15.9,4c-17.8,10.5-15.6,29.1-13.8,44
		v0.3c0.1,1,0.2,1.9,0.3,2.9c1.6,14-1.2,20.5-1.2,20.5l0,0c-0.6,1.2-0.4,2.7,0.5,3.8c-1.2,1.8-2.2,3.2-2.8,4
		c-12.8,5.5-23.8,21.3-33.4,48.3c-10.2,28.3-12.5,81-12.8,89.2c-1.7,2.3-4.8,7.6-5,16.9c-0.2,7.4,2.8,14.6,8.4,19.5
		c0.4,0.3,0.8,0.7,1.3,1l8,33.7c-3.8-0.9-7.6-1.6-11.5-2c-0.8-0.1-1.6-0.1-2.4-0.1c-7,0-14.1,3.2-20.4,6H284
		c-4.1,1.8-8.3,3.7-10.8,3.7H273c-3.6-0.2-3.9-0.5-4.6-1.3c-0.9-1.2-2.1-2.2-3.3-3.1c-1.7-1.2-3.7-1.8-5.8-1.8
		c-3.8,0-7.4,2.3-10.7,6.7c-2.2,3-7.7,5-13.6,5c-0.8,0-1.5,0-2.2-0.1c-0.4,0-0.8-0.1-1.2-0.1c-4.1-0.1-7.9,2.5-9.3,6.4
		c-1.3,4,0.3,8.3,3.9,10.5c2.8,1.8,7.1,2.2,10.1,2.2c6.4,0,15.8-1.8,21.4-5.6l1.1-0.8c1.3-1,1.4-1,2.5-1c1.9,0,5.5,0.6,12.7,1.9
		l2.5,0.4c8.8,1.6,21.7,1.9,31,1.9c16.7,0,32.6-1,36.4-1.9c2.7-0.7,4.4-3.7,5.8-10.4c1.1-5.7,1.8-11.5,2.3-17.3
		c0.9-10.5,1.4-21.5,1.5-27c24.7-3.6,40.9-5.5,48.4-6.3c-1.3,5.3-2.7,13.7-0.9,20.9c0.7,2.6,1.5,5.4,2.3,8.3
		c2.4,8.2,5.1,17.4,4.9,24.3c-0.1,3-0.5,5.9-1.1,8.8c-0.7,4-1.6,9.1,3.4,10.9c1.1,0.4,3.1,0.8,9.5,0.8c4.7,0,10.4-0.2,15-0.4h0.1
		c2.8-0.1,5.3-0.2,6.6-0.2c4,0,6.1-1.6,7.2-3c1.6-2.2,2.2-5,1.5-7.7c-0.7-2.7-2.5-4.9-5-6.2c-1.7-0.9-3.6-1.3-5.5-1.3
		c-2.5,0.1-5.1,0.6-7.4,1.7c-2,0.7-4.1,1.1-6.2,1h-0.1c1.5-17,6-70.3,5.4-78.7c-0.3-3.7-4.2-6.4-13.1-9c-8.1-2.2-16.4-4-24.8-5.2
		c-15-2.4-31-4.2-39.4-5c3.2-7.3,8.5-22.9,18.3-53.5c1.5-4.9,3-9.5,4.1-12.7c1.5-4.5,2.7-9,3.8-13.6c9.7,5.3,34.9,18.4,45.6,19.4
		c0.6,0.1,1.2,0.1,1.8,0.1c4.1,0,8-1.2,11.5-3.3c1-0.7,1.5-1.7,1.5-2.9v-14.5c0-1.9-1.6-3.5-3.5-3.5h-0.4c0,0-5.9,0.6-9.7,1.3
		l-7.1-4.5c10.4,1,18.3,1.6,22.5,1.6c1.2,0,2.4-0.1,3.7-0.3c5.4-1.3,47.4-24.2,61.2-31.8c10.2-0.6,14.5-2.2,16.4-2.8l0.4-0.1
		c0.3-0.1,1.6-0.3,2.5-0.4c6-0.9,7.5-1.3,8.7-2.4c0.5-0.4,0.8-1,1.1-1.5c2.8-0.6,5.5-1.7,5.7-4.9c0-0.3,0-0.6,0-0.9
		C543.4,525.3,543.8,523.8,543.5,522.3z M262.2,741.6c-0.6,0.3-1.3,0.7-1.8,1.2c-2.2,2-3.6,4.8-3.9,7.8c-0.6,0.3-1.1,0.7-1.7,1.1
		l-1,0.7c-3.7,2.6-11,4.4-17.4,4.4c-2.9,0-5.3-0.4-6.5-1.1c-0.9-0.4-1.3-1.4-1-2.3c0.4-1.1,1.5-1.7,2.7-1.6h0.5
		c1,0.1,1.9,0.1,2.9,0.1c6.5,0,15-2.1,19.3-7.9c1.8-2.5,3.6-3.8,5-3.8c0.7,0,1.3,0.3,1.9,0.7C261.6,741.1,261.9,741.3,262.2,741.6z
		 M265,748.1L265,748.1c0.8,0.3,1.6,0.5,2.4,0.5c0.9,0,1.7-0.2,2.5-0.6c0.6-0.3,1.1-0.7,1.6-1.3c-0.4,1.3-0.6,2.6-0.7,3.9
		c-3-0.5-5.1-0.9-6.8-1C264.2,749,264.6,748.5,265,748.1L265,748.1z M519.3,531c-4.2,1-8.5,1.6-12.8,1.7c-0.2,0-0.4,0-0.7,0.1
		l-0.2,0.1c-0.2,0.1-0.4,0.1-0.6,0.3c-19.1,10.5-56.4,30.5-60.1,31.5c-0.7,0.1-1.3,0.1-2,0.1c-5.4,0-18.1-1.1-34.4-2.8
		c1.9-5.4,3.2-10.9,3.8-16.5c13.4,4.3,27.1,7.9,27.7,8.1h0.2c0.3,0.1,0.5,0.1,0.8,0.1c0.3,0,0.7-0.1,1-0.2l62-21.9l0.3-0.1
		c1.1-0.4,1.9-1.5,2-2.7v-0.3c0,0,0.3-3.5,2.9-4.9c1.4-0.7,2.6-1.7,3.6-3c0.4,1.7,1.7,3.2,3.3,3.8c0.3,0.1,0.7,0.3,1.1,0.3
		c0,0.2,0,0.4,0.1,0.7l0.2,1c0.1,0.5,0.3,0.9,0.6,1.3c0,0.2,0,0.4,0,0.6l0.2,1C518.3,529.9,518.7,530.5,519.3,531z M402.8,568.2
		c-1.3,3.8-3.2,7.4-5.5,10.6c-6.8-3.4-12.6-6.5-15.3-8c0.3-2,0.6-3.7,0.7-5.1C389.1,566.6,395.9,567.4,402.8,568.2z M327.1,660.3
		c-4.8,0-9.5-0.4-14.2-1.2c0.5-12.5,3-59.4,12.3-85.3c9.8-27.4,21-42.7,33.3-45.5c1.9-0.4,3.8-0.6,5.7-0.6c5,0.1,9.9,1.3,14.4,3.3
		c3.2,1.4,6.2,3,9.2,4.7c3.3,1.9,9.2,4.3,17.7,7.2c-0.6,6.2-2,12.2-4.2,18c-14.2-1.7-27.5-3.4-36-4.8c-0.2,0-0.3,0-0.5,0
		c-1.5,0-2.8,1-3,2.5l-0.2,1c-0.3,1.6,0.8,3.2,2.5,3.4c0,0,0,0,0,0c3.3,0.5,7.2,1.1,11.6,1.7c-1.1,8.4-3,16.6-5.6,24.6
		c-1,3.1-2.4,7.4-4,12.3l-0.1,0.4c-4.8,15.2-16,50.1-19.2,55.5C340.3,659.5,333.7,660.3,327.1,660.3L327.1,660.3z M411,470.8
		l0.4,1.1l-0.2,0H411c-6-1.7-12.1-2.8-18.2-3.4h-0.3c-1.9,0-3.5,1.6-3.5,3.5l-4.8-0.9c-0.2,0-0.4-0.1-0.7-0.1
		c-0.9,0-1.7,0.3-2.3,0.9c-0.8,0.7-1.2,1.8-1.2,2.9c0.1,2,0.1,4,0,6c-0.5-1.9-1.8-3.5-3.5-4.4c-1.1-0.5-2.3-0.8-3.5-0.8
		c-2.2,0-4.2,0.9-5.8,2.3c-3.2,2.9-4.2,7.5-2.7,11.5c1.1,3.3,0.9,10,0.2,15.7c-0.2-0.1-0.5-0.1-0.7-0.1h-0.1c-0.3,0-0.5,0-0.8,0.1
		c0.1-3.7-0.1-7.4-0.5-11c-0.1-1.1-0.2-2.1-0.4-3.2c-1.7-14.2-3.5-29,10.4-37.1c3.8-2.1,8-3.1,12.3-3c5.6,0.1,11.2,1.4,16.3,3.9
		c5.6,2.5,10.3,6.6,13.7,11.6c-0.2,0-0.4,0-0.6,0l0,0c-1.9,0-3.5,1.5-3.5,3.5C410.9,470.1,410.9,470.5,411,470.8L411,470.8z
		 M378.7,513.3c-1.1,0-2.1,0.5-2.8,1.4c-1.2,1.5-0.9,3.7,0.7,4.9c0.2,0.1,1.3,1,3.1,2.1c-0.3,0.7-0.7,1.3-1,1.9
		c-4.6-1.8-9.5-2.8-14.5-2.8c-0.7,0-1.3,0-2,0.1c1-1.6,1.9-3.3,2.7-5c0.6,0.4,1.3,0.7,2,0.7c0.2,0,0.4,0,0.6,0
		c1.4-0.2,2.4-1.2,2.8-2.6c1.3-5,3.4-19.7,0.9-26.8c-0.6-1.4-0.2-2.9,0.8-4c0.3-0.3,0.7-0.5,1.2-0.5h0.3c0.7,1.5,0.7,7.3-0.5,13.2
		c-0.3,1.7,0.7,3.5,2.4,4c0.3,0.1,0.7,0.2,1.1,0.2c1.1,0,2.2-0.6,2.9-1.5c0.6,0.5,1.4,0.7,2.1,0.7c0.2,0,0.3,0,0.5,0
		c1.4-0.2,2.5-1.2,2.9-2.5c1.5-5.9,2.4-11.9,2.4-17.9l7.5,1.4c0.2,0,0.4,0.1,0.7,0.1c1.9,0,3.5-1.6,3.5-3.5c0-0.1,0-0.3,0-0.4
		c2.7,0.5,5.3,1,7.6,1.6l-0.8,5.6c-0.1,0.4,0,0.9,0.1,1.3c0.5,1.9,1.6,7,2.1,11c-0.9,0.2-1.9,0.4-2.8,0.4c-1.8,0-3.3,1.3-3.5,3.1
		c-0.4,3.9-2.4,15.1-6.1,19.8c-0.5,0.6-1.2,0.9-2,0.8c-4.1,0-10.7-4.3-12.6-5.8C380.2,513.6,379.4,513.3,378.7,513.3L378.7,513.3z
		 M420.5,741.3c-0.7,0-1.5,0.1-2.3,0.1c-1.4,0-2.7-0.1-3.8-0.2c-1-5.5-2.7-11.3-4.2-16.4c-0.8-2.9-1.6-5.6-2.3-8.1
		c-2.3-9.1,2.2-21.8,2.2-21.9l0.3-0.7c0.6-1.6-0.3-3.3-1.8-3.8c-0.3-0.1-0.7-0.2-1-0.2h-0.3l-0.8,0.1c-0.2,0-18.8,1.7-56.9,7.3
		c-4.3,0.7-8.7,1-13.1,1.1c-10.2,0-17.8-2.3-22.8-6.7c-4-3.6-6.2-8.8-6-14.1c0.2-6.2,1.9-10,3-11.9c5.4,1,10.9,1.5,16.3,1.5
		c7.4,0.1,14.8-0.9,22-3c16.8,1.6,34.2,3.8,47.8,6.2c22.3,3.9,27,6.8,27.8,7.5C425,683.5,423.4,706.3,420.5,741.3L420.5,741.3z
		 M413.7,764.4L413.7,764.4z M419.2,757.1c-0.4,0.3-0.9,0.6-1.4,0.8c0-0.2-0.1-0.4-0.1-0.6c-0.2-1.6-1.1-3-2.4-3.9
		c0-0.7,0.1-1.3,0.1-2c0-0.1,0-0.2,0-0.3c0.9,0.1,1.8,0.1,2.8,0.1c0.5,0,1,0,1.5,0C419.5,753.8,419.3,755.9,419.2,757.1L419.2,757.1
		z M443.7,763.7c-0.5,0.3-1.1,0.5-1.8,0.4c-1.4,0-3.8,0.1-6.8,0.2H435c-4.3,0.2-10.2,0.4-14.9,0.4h-0.4c1.4-0.5,2.7-1.3,3.9-2.1
		c0.8,0.1,1.8,0.1,2.9,0.1c3.1,0.1,6.1-0.4,9-1.6c1.4-0.7,3-1.1,4.6-1.1c0.8,0,1.6,0.1,2.3,0.5c0.6,0.3,1.1,0.8,1.3,1.4
		C444,762.5,443.9,763.2,443.7,763.7L443.7,763.7z M304.5,736.7c0.5,0,1.1,0,1.6,0.1c10.6,1.2,15.1,3.5,15.3,3.6l1,0.5
		c1.4,0.8,3.3,0.3,4.1-1.1c0.4-0.7,0.5-1.4,0.3-2.2l-8.3-34.9c5.8,2,11.8,3,17.9,2.8c3.3,0,6.7-0.2,10-0.6c-0.8,22.4-2.9,43-4.9,47
		c-4.1,0.7-18.5,1.6-34.1,1.6c-8.8,0.1-17.7-0.3-26.5-1.3c0.2-3.1,1-6.1,2.6-8.8c1.1-0.5,2.2-1,3.3-1.5
		C292.6,739.5,299,736.7,304.5,736.7L304.5,736.7z M403.7,581.9c2.2-3.3,4.1-6.9,5.5-10.7l15.7,10c0.8,0.5,1.8,0.7,2.7,0.5
		c1.4-0.3,3.9-0.7,6.5-1v8.5c-1.9,0.9-3.9,1.3-6,1.3c-0.4,0-0.8,0-1.2-0.1C423.9,590.2,417.5,588.5,403.7,581.9L403.7,581.9z"/>
	<path class="st2" d="M314.3,697.2l9.7,41.1l-1-0.6c0,0-4.8-2.6-16.5-3.9c-6.7-0.8-14.2,2.6-20.7,5.5c-1.4,0.7-2.8,1.3-4.1,1.8
		c-0.6,1-4.7,7.7-3.2,13.8c18.7,3,59.1,1.2,64.7-0.2c3.8-0.9,6.1-32.9,6.6-53.2C334.2,703.8,322.2,702.3,314.3,697.2z"/>
	<path class="st3" d="M262.4,745c1-1,2.5-1.4,3.8-0.8c0.6,0.3,1.2,0.4,1.9,0.2c0.5-0.3,0.8-0.8,1-1.4c-1.5-0.3-2.8-1.1-3.7-2.4
		c-0.7-0.9-1.5-1.7-2.5-2.3c-3.6-2.4-7.3-1.1-11,3.9c-3.8,5.2-12.7,7.2-19.5,6.5c-2.7-0.4-5.3,1.1-6.3,3.6c-0.8,2.2,0.2,4.7,2.2,5.8
		c5.1,3.2,20.3,1.3,27.1-3.3c0.4-0.3,0.7-0.5,1-0.7c0.9-0.7,1.9-1.3,3-1.6C259.3,749.7,260.3,746.9,262.4,745z"/>
	<path class="st3" d="M416.8,762.3L416.8,762.3c-2.2,0-2.6-1.7-3.1-4.3c0-0.5-0.3-1-0.7-1.3c-0.4-0.1-0.8-0.1-1.1,0.1
		c-0.2,1.4-0.4,2.8-0.7,3.9c-0.7,4.1-1,5.8,0.8,6.4c2.6,1,14.9,0.5,23,0.2c3-0.1,5.4-0.2,6.8-0.2c1.9,0,3.3-0.5,4.1-1.5
		c0.8-1.3,1.1-2.8,0.7-4.3c-0.4-1.5-1.5-2.8-2.9-3.5c-1.7-0.9-4.8-1.5-9.5,0.5c-4.4,1.9-10.3,1.3-11.6,1.1
		C422,760.1,419.2,762.3,416.8,762.3z"/>
	<path class="st0" d="M363.8,507.9c0.2,0,0.3,0.1,0.4,0.2l2.4,3.5c1.3-6,2.6-17.9,0.7-23.4c-1.1-2.9-0.3-6.2,1.9-8.3
		c1.6-1.5,4-2,6-1.1c3.2,1.5,2.8,9,2.1,13.8l0.8-1.8c0.1-0.2,0.4-0.3,0.7-0.2c0.1,0,0.1,0.1,0.2,0.2l2,3.5
		c1.6-6.5,2.2-13.2,1.9-19.9c0-0.2,0-0.3,0.2-0.4c0.1-0.1,0.3-0.1,0.4-0.1l10.7,2l-2.2-3.8c-0.1-0.2-0.1-0.4,0-0.5
		c0.1-0.2,0.3-0.2,0.5-0.2c6,0.6,11.9,1.7,17.7,3.3l0,0c2.5,0.7,4.6,1.3,5.7,1.7l-2.1-6.5c-0.1-0.2,0-0.4,0.2-0.5
		c0.2-0.1,0.4-0.1,0.6,0l6.3,3.9c-1.7-8.6-8.5-16.5-18.4-21.3c-5.5-2.7-11.5-4.1-17.6-4.2c-4.8-0.1-9.6,1.1-13.8,3.4
		c-15.6,9.2-13.6,25.6-11.9,40.1c0.1,1.1,0.3,2.2,0.4,3.2c1.1,9.9,0.2,16.2-0.6,19.6c2.5-3.3,4.5-5.9,4.5-5.9
		C363.5,508,363.7,507.9,363.8,507.9z"/>
	<path class="st0" d="M280.1,741.8c-0.6,0.2-1.2,0.5-1.8,0.7c-0.6,0.7-4.7,5.8-3.3,11.9l2.3,0.4h0.1
		C276.3,749.6,278.8,744.2,280.1,741.8z"/>
	<path class="st1" d="M412.1,755.7c0.5-0.1,0.9-0.1,1.4,0.1c0.7,0.4,1.2,1.2,1.3,2c0.5,2.9,0.9,3.4,2,3.4l0,0c2.1,0,4.7-2,5.3-2.6
		c0.1-0.9,0.4-5,0.9-11c-1.6,0.3-3.2,0.5-4.8,0.5c-2,0-3.9-0.2-5.9-0.5c0.1,1.2,0.1,2.4,0.1,3.6
		C412.3,752.9,412.2,754.4,412.1,755.7z M415.4,750.8c0.1-0.3,0.4-0.4,0.6-0.3c0,0,0,0,0,0c0.3,0.1,0.4,0.4,0.3,0.6c0,0,0,0,0,0
		c0,0-0.7,2.2,0,3.4c0.1,0.2,0,0.5-0.2,0.7c-0.1,0-0.2,0.1-0.3,0.1c-0.2,0-0.3-0.1-0.4-0.3C414.5,753.4,415.4,750.9,415.4,750.8z"/>
	<path class="st1" d="M272.9,743.5c-0.9,0-1.9-0.1-2.8-0.3c-0.2,0.9-0.8,1.6-1.5,2.1c-0.9,0.4-1.9,0.3-2.8-0.2c-1-0.3-2-0.1-2.7,0.7
		c-1.6,1.4-2.9,4.3-2.5,6.5c2.1-0.2,5.6,0.4,13.4,1.8c-0.7-4,0.3-8,2.7-11.3C275.5,743.3,274.2,743.5,272.9,743.5z M270.7,747.5
		c-0.1,0.1-0.2,0.2-0.4,0.2c-0.1,0-0.2,0-0.3-0.1c-0.8-0.7-2.5-0.4-3.2-0.2c-0.3,0.1-0.6-0.1-0.6-0.4s0.1-0.6,0.4-0.6
		c0.3-0.1,2.7-0.7,4.1,0.5C270.8,746.9,270.8,747.2,270.7,747.5C270.7,747.4,270.6,747.4,270.7,747.5L270.7,747.5z"/>
	<path class="st1" d="M379.8,527.3c1.4-1.6,3.1-5.5,3.6-6.7c-1.8-1-3.5-2.1-5.1-3.3c-0.2-0.2-0.3-0.5-0.1-0.7
		c0.2-0.2,0.5-0.3,0.7-0.1c0,0,0,0,0,0c0.1,0.1,14,10.6,18.8,4.5c5-6.3,6.7-21.2,6.7-21.3c0-0.3,0.2-0.4,0.5-0.4
		c2.1-0.1,4.1-0.5,6.1-1.1c-0.5-4.7-1.3-9.4-2.5-14c0-0.1,0-0.1,0-0.2l1.1-8.3c-5.3-1.5-10.7-2.5-16.2-3.1l2.3,3.9
		c0.1,0.2,0.1,0.4,0,0.5c-0.1,0.2-0.3,0.2-0.5,0.2l-11.1-2.1c0.2,7-0.5,14-2.3,20.8c-0.1,0.2-0.2,0.3-0.4,0.4
		c-0.2,0-0.4-0.1-0.5-0.2l-2.2-3.7l-2,4.4c-0.1,0.3-0.4,0.4-0.6,0.3c-0.3-0.1-0.4-0.4-0.4-0.6c0.8-4.1,2.2-15-1-16.5
		c-1.7-0.8-3.6-0.4-4.9,0.9c-2,1.9-2.6,4.7-1.6,7.2c2.1,6,0.5,19.5-1,25c-0.1,0.2-0.2,0.3-0.4,0.4c-0.2,0-0.4-0.1-0.5-0.2l-2.5-3.8
		c-1.3,6-6.1,12.8-8.2,15.6c0.7-0.2,1.3-0.4,2-0.5C365.5,522.7,373,524.4,379.8,527.3z M401.3,487.8c0.9-1.9,1.3-4.1,1.1-6.2
		c-0.1-0.5,0.3-1,0.9-1.1c0.5-0.1,1,0.3,1.1,0.9c0.3,2.6-0.2,5.2-1.3,7.5c-0.3,0.5-0.9,0.6-1.4,0.4S401,488.3,401.3,487.8
		L401.3,487.8z M381.6,505.5c0.4-2.1,2.2-3.5,4.3-3.5l0,0c3.2,0,4,2,4.5,3.4c0.4,1,0.6,1.4,1.2,1.4h1.5c3,0,5.6,0.1,5.6,3.2
		c-0.1,1.4-0.9,2.7-2.2,3.5c-1.3,0.8-2.9,1.3-4.4,1.2c-1.8,0-3.6-0.4-5.3-1.2C382.5,511.7,381.1,508.1,381.6,505.5L381.6,505.5z"/>
	<path class="st3" d="M387.3,512.7c4.9,2,7.8,0.7,8.8,0c1-0.5,1.6-1.5,1.7-2.6c0-2-1.4-2.1-4.6-2.2h-1.5c-1.3,0-1.7-1.1-2-2.1
		c-0.5-1.3-1.1-2.7-3.6-2.7l0,0c-1.6-0.1-3,1.1-3.3,2.7C382.2,507.9,383.5,511,387.3,512.7z"/>
	<path class="st1" d="M537.8,522.3c-1.2,0.2-17.3,3.3-17.5,3.3l-0.2-1c0.5-0.1,8.7-1.7,13.7-2.6c-0.1-0.2-0.2-0.4-0.4-0.6
		c-0.5-0.4-1.1-0.5-1.7-0.5l-2,0.2c-3.8,0.5-10.1,1.2-12.5,0.2c-2-0.8-2-3.8-1.9-6.4c0-1.5,0.1-3-0.3-3.7c-0.3-0.5-0.8-0.8-1.4-0.8
		c-0.4,0-0.8,0.2-1.1,0.5c0.2,1,0.1,7.2-4.6,9.7c-4.2,2.2-4.5,7.4-4.5,7.4v0.3l-0.3,0.1l-62.1,21.9h-0.2c-1-0.3-16.8-4.5-31.1-9.2
		c-0.2,2.7-1.1,13.4-5.5,23.1c19.6,2.2,38.4,3.9,41.4,3.1c5.4-1.3,60.3-31.4,60.9-31.7l0.2-0.1c10.2-0.5,14.3-2,16.1-2.6
		c0.3-0.1,0.5-0.2,0.7-0.2c0.4-0.1,1.6-0.3,3-0.5c2.1-0.3,5.9-0.9,6.4-1.3c0.2-0.2,0.3-0.4,0.3-0.5s-0.1-0.3-0.6-0.5l-2.4,0.3
		c-1.8,0.3-4,0.6-6.5,1l-0.2-1c2.5-0.4,4.7-0.7,6.5-1c5.4-0.8,8.4-1.2,8.5-2.2c0.1-0.7-0.4-1.3-1.1-1.3c0,0-0.1,0-0.1,0
		c-4.1,0.8-15.6,2.7-16.2,2.7l-0.2-1c0.2,0,15.7-2.5,17.3-3c1-0.3,1.4-1,1.3-1.5S538.8,522.1,537.8,522.3z"/>
	<path class="st1" d="M399.1,583c10.2,4.9,21.5,9.9,27.4,10.4c3.7,0.3,7.3-0.6,10.5-2.5v-13.7c-1.8,0.2-7.5,0.8-10.1,1.4
		c-0.1,0-0.3,0-0.4-0.1l-19-12.1C405.8,572.6,402.9,578.2,399.1,583z"/>
	<path class="st2" d="M327.1,664.3c-5.9,0-11.9-0.6-17.7-1.8c-0.8,1-4.4,5.7-4.7,15.1c-0.2,6.2,2.4,12.3,7,16.4
		c7.7,6.9,20.6,9,38.4,6.4c37.9-5.6,56.5-7.3,56.7-7.3l0.8-0.1l-0.3,0.7c0,0.1-4.9,13.7-2.3,23.7c0.7,2.6,1.5,5.3,2.3,8.2
		c1.9,6,3.5,12.1,4.6,18.3c3.8,0.5,7.6,0.5,11.4,0c1.8-21.7,4.9-60.2,4.4-66.7s-47.4-13.2-79-16
		C341.7,663.3,334.4,664.3,327.1,664.3z"/>
	<path class="st0" d="M412,745.1c0.1,0.5,0.1,1.1,0.2,1.6c1.4,0.2,6.6,1,10.9,0c0-0.5,0.1-1.1,0.1-1.6c-1.7,0.3-3.3,0.4-5,0.4
		C416.2,745.4,414.1,745.3,412,745.1z"/>
	<path class="st3" d="M405.8,565.5c-8.8-1-17.8-2.1-25.8-3.2c-0.3,3.4-0.8,6.8-1.4,10.2c0.1,0,0.2,0,0.3,0c0.2,0.1,9,5,19.3,10
		c3.9-4.9,6.8-10.5,8.4-16.6L405.8,565.5z"/>
	<path class="st3" d="M364.6,560.1l0.2-1c9.3,1.5,24,3.5,38.3,5.1c4.6-10,5.4-21.1,5.5-23.3c-8-2.7-15.5-5.5-19.4-7.7
		c-3.1-1.8-6.3-3.5-9.5-4.9l0,0c-6.8-2.9-14.2-4.6-21.9-2.9c-13.3,3-25.3,18.9-35.5,47.4c-10.4,28.9-12.4,83.5-12.6,88.8
		c2.8,0.6,20.7,4.2,38.8-1.3c2.5-1.2,14.1-37.7,20.3-57.2c1.6-5.1,3-9.5,4.1-12.7c3.1-9.1,5.1-18.6,6-28.1
		C373.6,561.5,368.7,560.8,364.6,560.1z"/>
	<path d="M537.7,521.3l-2.8,0.5c-0.1-0.4-0.4-0.8-0.7-1.2c-0.7-0.6-1.6-0.8-2.4-0.7c-0.4,0-1.2,0.1-2.1,0.2c-3.5,0.4-9.9,1.2-12,0.3
		c-1.4-0.6-1.3-3.2-1.3-5.4c0-1.8,0.1-3.3-0.5-4.2c-0.6-1.2-2.1-1.6-3.3-1.1c-0.7,0.3-1.3,0.8-1.2,1.5s0.1,6.4-4.1,8.6
		s-4.9,6.6-5,7.9l-61.4,21.7c-2.7-0.7-40.7-11-51.1-17.1c-2.9-1.7-5.9-3.3-9-4.7c1.4-2.1,2.6-4.3,3.6-6.7c2.8,1.5,6.2,2.8,9.1,2.8
		c2,0.1,3.9-0.7,5.1-2.3c4.8-6,6.6-18.8,6.9-21.4c2.1-0.2,4.2-0.6,6.3-1.3c0.2-0.1,0.4-0.3,0.3-0.5c-0.2-5-2.2-13.5-2.5-14.5l1.1-8
		c3.5,1,5.9,1.8,6,1.8c0.2,0.1,0.4,0,0.5-0.1c0.1-0.1,0.2-0.3,0.1-0.5l-2.1-6.2l6.1,3.8c0.2,0.1,0.4,0.1,0.5,0
		c0.2-0.1,0.2-0.3,0.2-0.5c-1.3-9.4-8.5-18-19.1-23.2c-11.2-5.4-23.9-5.7-32.4-0.7c-16.1,9.5-14.1,26.3-12.4,41
		c0.1,1.1,0.3,2.1,0.4,3.2c1.7,15.1-1.5,22-1.5,22.1c-0.1,0.2,0,0.5,0.2,0.6c0.1,0.1,0.2,0.1,0.3,0.1c0.2,0,0.3-0.1,0.4-0.2
		c1.6-2.2,3.2-4.3,4.3-5.9c-2.2,6.5-7.7,13.5-8.4,14.3c-12.3,4.9-23,20.3-32.5,46.9c-10.6,29.5-12.6,85.6-12.7,89.3
		c-0.8,0.9-4.7,5.7-5,15.9c-0.2,6.6,2.5,12.9,7.3,17.3c0.6,0.5,1.3,1,1.9,1.5l9.5,40c-1.9-0.8-6.8-2.6-15.9-3.6
		c-7-0.8-14.6,2.6-21.2,5.6c-4.8,2.2-9.3,4.2-12.5,4c-4.9-0.2-5.6-1.1-6.7-2.4c-0.8-1-1.7-1.8-2.7-2.5c-2.8-1.9-7.3-2.7-12.3,4.1
		c-3.6,4.9-12,6.8-18.5,6.1c-3.1-0.5-6.2,1.3-7.3,4.3c-0.9,2.7,0.2,5.6,2.7,7c1.9,1.2,5,1.7,8.5,1.7c6.7,0,15.1-1.9,19.7-5.1l1-0.7
		c3-2.2,3-2.2,17.4,0.4l2.5,0.5c18.8,3.3,60.3,1.4,66.2,0c5.8-1.4,7.2-47.3,7.4-54.3c33.3-4.9,51.6-6.8,55.5-7.2
		c-1,3-4.5,14.5-2.1,23.6c0.7,2.6,1.5,5.3,2.3,8.2c2.5,8.4,5.2,17.9,5,25.3c-0.1,3.1-0.5,6.2-1.1,9.3c-0.7,4-1.2,6.6,1.5,7.6
		c1.3,0.5,4.5,0.6,8.5,0.6c4.6,0,10.3-0.2,15-0.4c2.9-0.1,5.4-0.2,6.7-0.2c2.2,0,3.9-0.6,4.9-1.9c1-1.5,1.4-3.4,0.9-5.1
		c-0.5-1.8-1.7-3.3-3.4-4.1c-1.9-1-5.3-1.7-10.3,0.5c-3.9,1.7-9.2,1.2-10.8,1.1c0.6-6.8,6.3-72.3,5.6-81.3
		c-0.7-9.2-67.3-15.8-79-16.9c3-4.3,9.5-23.9,20.1-57c1.6-5.1,3-9.5,4.1-12.7c1.9-5.6,3.4-11.4,4.5-17.2c1.6,0.9,35.8,19.8,48,21
		c0.5,0,1.1,0.1,1.6,0.1c3.5,0,6.8-1,9.8-2.8c0.1-0.1,0.2-0.2,0.2-0.4v-14.5c0-0.3-0.2-0.5-0.5-0.5c0,0,0,0,0,0
		c-0.3,0-7.3,0.7-10.6,1.5l-18.8-12c14.9,1.6,28.7,2.8,34.8,2.8c1,0,2,0,2.9-0.2c5.4-1.3,57.6-29.9,61-31.8
		c10.3-0.5,14.5-2,16.2-2.7c0.3-0.1,0.4-0.2,0.6-0.2c0.4-0.1,1.6-0.3,2.9-0.5c4.5-0.7,6.5-1.1,7-1.5c0.4-0.3,0.6-0.9,0.6-1.4
		c0-0.2-0.1-0.4-0.3-0.6c4-0.6,5.5-1.1,5.6-2.5c0.1-0.6-0.2-1.3-0.7-1.7c1.2-0.3,1.9-1.5,1.6-2.6c-0.3-1.2-1.5-1.9-2.6-1.6
		C537.8,521.3,537.8,521.3,537.7,521.3L537.7,521.3z M358.9,514c0.8-3.4,1.7-9.8,0.6-19.6c-0.1-1-0.2-2.1-0.4-3.2
		c-1.7-14.5-3.7-30.9,11.9-40.1c4.2-2.4,9-3.5,13.9-3.4c6.1,0.1,12.1,1.5,17.6,4.2c9.9,4.8,16.7,12.7,18.4,21.3l-6.3-3.9
		c-0.2-0.1-0.4-0.1-0.6,0c-0.2,0.1-0.2,0.4-0.2,0.5l2.2,6.6c-1.1-0.3-3.2-1-5.7-1.7l0,0c-5.8-1.6-11.7-2.7-17.7-3.3
		c-0.2,0-0.4,0.1-0.5,0.2c-0.1,0.2-0.1,0.4,0,0.5l2.2,3.8l-10.7-2c-0.2,0-0.3,0-0.4,0.1c-0.1,0.1-0.2,0.3-0.2,0.4
		c0.3,6.7-0.4,13.4-1.9,19.9l-2-3.5c-0.1-0.2-0.4-0.3-0.7-0.2c-0.1,0-0.1,0.1-0.2,0.2l-0.8,1.8c0.6-4.7,1-12.3-2.1-13.8
		c-2-0.9-4.4-0.5-6,1.1c-2.3,2.1-3,5.4-1.9,8.3c1.9,5.4,0.6,17.4-0.7,23.4l-2.4-3.5c-0.1-0.1-0.2-0.2-0.4-0.2
		c-0.2,0-0.3,0.1-0.4,0.2C363.5,508.1,361.4,510.7,358.9,514z M363.8,509.4l2.5,3.8c0.1,0.2,0.3,0.3,0.5,0.2c0.2,0,0.3-0.2,0.4-0.4
		c1.5-5.6,3.1-19.1,1-25c-1-2.5-0.3-5.4,1.6-7.2c1.3-1.3,3.3-1.6,4.9-0.9c3.2,1.5,1.8,12.4,1,16.5c-0.1,0.3,0.1,0.6,0.4,0.6
		c0.3,0.1,0.6-0.1,0.6-0.3l2-4.4l2.2,3.7c0.1,0.2,0.3,0.3,0.5,0.2c0.2,0,0.4-0.2,0.4-0.4c1.8-6.8,2.5-13.8,2.3-20.8l11.1,2.1
		c0.2,0,0.4,0,0.5-0.2c0.1-0.2,0.1-0.4,0-0.5l-2.3-3.9c5.5,0.6,10.9,1.6,16.2,3.1l-1.1,8.2c0,0.1,0,0.1,0,0.2
		c1.1,4.6,1.9,9.3,2.5,14c-2,0.6-4,1-6.1,1.1c-0.3,0-0.5,0.2-0.5,0.4c0,0.2-1.7,15-6.7,21.3c-4.8,6-18.7-4.4-18.8-4.5
		c-0.2-0.2-0.5-0.2-0.7,0c-0.2,0.2-0.2,0.5,0,0.7c0,0,0,0,0,0c1.6,1.2,3.3,2.3,5.1,3.3c-0.5,1.3-2.3,5.1-3.6,6.7
		c-6.8-2.9-14.3-4.6-22.2-2.8c-0.7,0.1-1.3,0.3-2,0.5C357.8,522.2,362.5,515.4,363.8,509.4L363.8,509.4z M256.6,754.1
		c-0.3,0.2-0.6,0.5-1,0.7c-6.8,4.7-22,6.5-27.1,3.3c-2.1-1.1-3-3.6-2.2-5.8c1-2.5,3.6-4.1,6.3-3.6c6.8,0.7,15.7-1.3,19.5-6.5
		c3.7-5,7.4-6.3,11-3.9c0.9,0.6,1.8,1.4,2.5,2.3c0.9,1.2,2.2,2.1,3.7,2.4c-0.2,0.6-0.5,1-1,1.4c-0.6,0.2-1.3,0.2-1.9-0.2
		c-1.3-0.5-2.8-0.2-3.8,0.8c-2.1,1.9-3.1,4.7-2.8,7.5C258.5,752.8,257.5,753.4,256.6,754.1z M274,754.1c-7.8-1.4-11.3-2-13.4-1.8
		c-0.5-2.2,0.8-5.1,2.5-6.5c0.7-0.8,1.8-1,2.7-0.7c0.8,0.5,1.9,0.6,2.8,0.2c0.8-0.5,1.3-1.2,1.5-2.1c0.9,0.1,1.9,0.2,2.8,0.3
		c1.3,0,2.6-0.2,3.8-0.5C274.3,746.1,273.3,750.2,274,754.1L274,754.1z M277.3,754.7l-2.3-0.4c-1.4-6.2,2.7-11.3,3.3-11.9
		c0.6-0.2,1.2-0.4,1.8-0.7C278.8,744.1,276.3,749.5,277.3,754.7L277.3,754.7z M343.1,754.7c-5.6,1.3-46,3.1-64.7,0.2
		c-1.4-6.1,2.6-12.9,3.2-13.8c1.3-0.5,2.7-1.2,4.1-1.8c6.6-3,14-6.3,20.7-5.5c11.7,1.3,16.4,3.9,16.5,3.9l1,0.6l-9.7-41.1
		c8,5.1,19.9,6.5,35.5,4.3C349.2,721.9,346.9,753.9,343.1,754.7L343.1,754.7z M434.3,758.3c4.7-2,7.8-1.4,9.5-0.5
		c1.4,0.7,2.5,1.9,2.9,3.5c0.4,1.5,0.2,3-0.7,4.3c-0.8,1-2.2,1.5-4.1,1.5c-1.3,0-3.7,0.1-6.8,0.2c-8.2,0.3-20.5,0.8-23-0.2
		c-1.8-0.7-1.6-2.3-0.8-6.4c0.2-1.2,0.4-2.5,0.7-3.9c0.3-0.2,0.7-0.2,1.1-0.1c0.4,0.3,0.7,0.8,0.7,1.3c0.5,2.5,0.9,4.2,3,4.3h0.1
		c2.4,0,5.2-2.2,5.9-2.8C423.9,759.6,429.9,760.3,434.3,758.3L434.3,758.3z M412.3,747.7c2,0.3,3.9,0.5,5.9,0.5
		c1.6,0,3.2-0.1,4.8-0.5c-0.5,5.9-0.9,10-0.9,11c-0.6,0.5-3.2,2.6-5.3,2.6l0,0c-1.1,0-1.5-0.5-2-3.4c-0.1-0.8-0.6-1.6-1.3-2
		c-0.4-0.2-0.9-0.2-1.4-0.1c0.2-1.3,0.3-2.8,0.3-4.4C412.5,750.1,412.4,748.9,412.3,747.7L412.3,747.7z M423.1,746.7
		c-4.3,1-9.5,0.2-10.9,0c-0.1-0.5-0.1-1.1-0.2-1.6c2.1,0.3,4.1,0.4,6.2,0.4c1.7,0,3.3-0.1,5-0.4
		C423.2,745.6,423.2,746.2,423.1,746.7L423.1,746.7z M427.7,677.3c0.5,6.6-2.6,45-4.4,66.7c-3.8,0.5-7.6,0.5-11.4,0
		c-1.1-6.2-2.6-12.3-4.5-18.3c-0.8-2.9-1.7-5.6-2.3-8.2c-2.6-10.1,2.3-23.6,2.3-23.7l0.3-0.7l-0.8,0.1c-0.2,0-18.8,1.7-56.7,7.3
		c-17.8,2.6-30.7,0.5-38.4-6.4c-4.6-4.2-7.2-10.2-7-16.4c0.3-9.4,3.8-14.2,4.7-15.1c5.8,1.2,11.7,1.8,17.7,1.8c7.3,0,14.6-1,21.7-3
		C380.3,664.2,427.3,670.8,427.7,677.3L427.7,677.3z M373,590.3c-1,3.2-2.5,7.6-4.1,12.7c-6.3,19.6-17.9,56-20.3,57.2
		c-18.1,5.4-36,1.9-38.8,1.3c0.2-5.3,2.3-59.9,12.6-88.8c10.2-28.5,22.2-44.4,35.5-47.4c7.7-1.7,15.2,0,21.9,2.9l0,0
		c3.3,1.4,6.5,3.1,9.5,4.9c3.9,2.3,11.3,5,19.4,7.7c-0.1,2.2-0.9,13.3-5.5,23.3c-14.4-1.6-29.1-3.6-38.3-5.1l-0.2,1
		c4,0.7,9,1.4,14.4,2.1C378.1,571.8,376.1,581.3,373,590.3L373,590.3z M378.9,572.6c-0.1,0-0.2,0-0.3,0c0.7-3.4,1.1-6.8,1.4-10.2
		c8,1.1,17,2.2,25.8,3.2l0.8,0.5c-1.7,6-4.5,11.7-8.4,16.6C387.9,577.6,379.1,572.7,378.9,572.6z M426.5,578.7
		c0.1,0.1,0.2,0.1,0.4,0.1c2.7-0.6,8.3-1.3,10.1-1.4V591c-3.2,1.9-6.8,2.7-10.5,2.5c-5.9-0.5-17.3-5.5-27.4-10.4
		c3.8-4.9,6.7-10.5,8.4-16.5L426.5,578.7z M538.3,524.6c-1.6,0.5-17.1,3-17.3,3l0.2,1c0.6-0.1,12.1-2,16.2-2.7
		c0.7,0,1.2,0.6,1.2,1.2c0,0,0,0.1,0,0.1c0,1-3,1.4-8.5,2.2c-1.8,0.3-4,0.6-6.5,1l0.2,1c2.5-0.4,4.7-0.7,6.5-1l2.4-0.3
		c0.5,0.3,0.6,0.5,0.6,0.5s-0.1,0.3-0.3,0.5c-0.5,0.4-4.3,1-6.4,1.3c-1.5,0.2-2.6,0.4-3,0.5c-0.2,0-0.4,0.1-0.7,0.2
		c-1.8,0.6-5.8,2.1-16.1,2.6l-0.2,0.1c-0.6,0.3-55.5,30.4-60.9,31.7c-3,0.7-21.8-0.9-41.4-3.1c4.4-9.7,5.3-20.4,5.5-23.1
		c14.3,4.7,30.1,8.9,31.1,9.2h0.2l62.1-21.9l0.3-0.1v-0.3c0-0.1,0.3-5.2,4.5-7.4c4.7-2.4,4.8-8.7,4.6-9.7c0.3-0.3,0.7-0.5,1.1-0.5
		c0.6,0,1.2,0.3,1.4,0.8c0.4,0.7,0.4,2.2,0.3,3.7c-0.1,2.6-0.1,5.5,1.9,6.4c2.4,1,8.7,0.2,12.5-0.2l2-0.2c0.6-0.1,1.2,0.1,1.7,0.5
		c0.2,0.2,0.3,0.4,0.4,0.6c-5,1-13.2,2.5-13.7,2.6l0.2,1c0.2,0,16.3-3.1,17.5-3.3s1.6,0.3,1.7,0.8S539.3,524.3,538.3,524.6
		L538.3,524.6z"/>
	<path d="M386.9,513.6c1.7,0.7,3.5,1.1,5.3,1.2c1.6,0,3.1-0.4,4.4-1.2c1.2-0.7,2-2,2.2-3.5c0-3.1-2.6-3.2-5.6-3.2h-1.5
		c-0.5,0-0.8-0.4-1.2-1.4c-0.6-1.4-1.3-3.3-4.5-3.4l0,0c-2.1-0.1-3.9,1.4-4.3,3.5C381.1,508.1,382.5,511.7,386.9,513.6z
		 M382.6,505.7c0.3-1.6,1.7-2.8,3.3-2.7l0,0c2.5,0,3.1,1.4,3.6,2.7c0.4,1,0.8,2,2,2.1h1.5c3.2,0.1,4.6,0.2,4.6,2.2
		c-0.1,1.1-0.7,2.1-1.7,2.6c-1,0.7-3.9,2-8.8,0C383.5,511,382.2,507.9,382.6,505.7L382.6,505.7z"/>
	<path d="M401.7,489.2c0.5,0.3,1.1,0.1,1.4-0.4c0,0,0,0,0,0c1.1-2.3,1.6-4.9,1.3-7.5c-0.1-0.5-0.6-0.9-1.1-0.9
		c-0.5,0.1-0.9,0.6-0.9,1.1c0.2,2.1-0.1,4.3-1.1,6.2C401,488.3,401.2,488.9,401.7,489.2C401.7,489.2,401.7,489.2,401.7,489.2z"/>
	<path d="M266.5,746.3c-0.3,0.1-0.4,0.3-0.4,0.6s0.3,0.4,0.6,0.4c0.6-0.2,2.4-0.4,3.2,0.2c0.1,0.1,0.2,0.1,0.3,0.1
		c0.1,0,0.3-0.1,0.4-0.2c0.2-0.2,0.2-0.5,0-0.7c0,0,0,0,0,0C269.3,745.6,266.8,746.2,266.5,746.3z"/>
	<path d="M415.9,755.3c0.1,0,0.2,0,0.3-0.1c0.2-0.1,0.3-0.4,0.2-0.7c-0.7-1.3,0-3.4,0-3.4c0.1-0.2,0-0.5-0.3-0.6c0,0,0,0,0,0
		c-0.3-0.1-0.5,0-0.6,0.3c0,0,0,0,0,0c0,0.1-0.9,2.6,0,4.3C415.5,755.2,415.7,755.3,415.9,755.3z"/>
	<path class="st3" d="M668.2,336.9c-0.1-26.8,21.6-48.6,48.3-48.7c0.1,0,0.3,0,0.4,0c26.4,0.1,47.8,21.5,47.7,48
		c0.2,26.3-21.2,48.8-48.3,48.9C689.9,385.2,668,363.4,668.2,336.9z M716.7,322.8c-0.3-0.6-0.5-1-0.7-1.4c-2.9-6-8-8.4-14.3-8.3
		c-5.8-0.2-11.1,3.3-13.3,8.6c-3.4,7.1-1.8,13.9,2.1,20.3c5.1,8.2,12.3,14.3,20.5,19.2c6.8,4.1,4.2,4,11.1-0.1
		c4.8-3,9.3-6.5,13.3-10.5c5-4.8,9-10,10.7-16.7c1.7-6.7,0.1-12.7-5-17.3c-4.8-4.4-10.6-4.4-16.3-2.3
		C720.8,315.8,718.2,318.7,716.7,322.8L716.7,322.8z"/>
	<path class="st6" d="M716.7,322.7c1.6-4,4.1-7,8-8.4c5.8-2.1,11.6-2.1,16.3,2.3c5.1,4.6,6.7,10.7,5,17.3
		c-1.7,6.6-5.8,11.9-10.7,16.7c-4,4-8.5,7.5-13.3,10.5c-6.9,4.1-4.3,4.2-11.1,0.1c-8.1-5-15.4-11-20.5-19.2
		c-4-6.4-5.5-13.1-2.1-20.3c2.2-5.4,7.5-8.8,13.3-8.6c6.4-0.1,11.4,2.3,14.3,8.3C716.2,321.8,716.4,322.1,716.7,322.7z"/>
	<path class="st4" d="M1034.1,710.6c0.2-0.7,0.4-1.3,0.6-1.8c1.1-3.1,2.1-6.1,0.7-8.8c-1-1.7-2.6-2.9-4.5-3.3
		c-3.2-0.9-7.3-3.1-12-6.3c-7.8-5.4-13.7-18.6-21.3-39.6c-5.9-16.4-16.9-22.5-22.1-24.6l3.2-35.9c3.2-8.5,4.7-15.8,4.6-22.4
		c-0.3-13-6.2-24.2-17-32.6c-5.2-4-11-7.1-17.3-9.2c-8.4-10.8-16.7-44.1-21.6-72.1l-0.1-0.6c5.9-1.4,10.1-3.3,12.6-5.7
		c0.7-0.7,1.1-1.6,1.1-2.6c-0.4-10.1-1.8-20.1-4-30c-4.9-21.3-13.1-35.6-24.4-42.4c-6.8-4.1-13.6-6.2-20.3-6.2
		c-4.1,0-8.1,0.8-11.9,2.3c-5.9,2.3-10.9,6.5-14.1,11.9c-1.1-0.3-2.3-0.5-3.5-0.5c-0.8,0-1.6,0.1-2.5,0.2c-5.3,0.9-13.7,9-13.7,27
		c0,9.6,0.4,18.2,0.8,23.6c-34.6-16.2-79.2-46.7-85.3-50.9c-1.3-2.3-3.4-4.2-5.8-5.3c0-0.4,0-0.8,0-1.1c0-2.2,0.1-5.6-2.9-6.7
		c-0.6-0.2-1.1-0.3-1.7-0.3c-1.3,0-2.5,0.5-3.5,1.3c-1.8,1.6-2.6,4.1-2,6.5c0,0,0,0.1-0.1,0.3c-0.5,0.8-2.1,1.7-4.4,2.2
		c-0.4,0.1-0.8,0.1-1.3,0.1c-2.2-0.1-4.4-0.4-6.6-0.9c-1.5-0.3-2.9-0.5-4.4-0.6c-1.1-0.1-2.2,0.3-3.1,1c-0.6,0.5-1,1.1-1.3,1.8
		c-0.7,0.3-1.3,0.8-1.8,1.4c-1.4,1.7-1.3,4.3,0.2,5.9c0.6,0.7,1.3,1.2,2.1,1.5c0.1,0.7,0.4,1.3,0.7,1.8c0.9,1.3,2.3,2.2,3.8,2.5
		c0.2,0.4,0.4,0.8,0.7,1.1c1.6,2,4.4,2.6,12.2,2.8h1.1c4.3,0,8.6-0.7,12.7-2c35.9,40.7,70,61.6,92.6,72c0.4,0.3,0.9,0.5,1.4,0.7
		c3.8,1.7,7.5,3.2,11.1,4.6c-1.9,4.1-3,8.7-3,13.2c-0.1,15.4,15.9,20.8,20.9,22.1c7,11.3,26,33.8,30.5,39.1
		c-1.6,39.8,6,78.6,13.7,101.7c6.9,20.7,26.2,65.8,34.2,84.3l0,0l1.2,2.7c-1.2-0.1-2.4-0.1-3.7-0.1c-2.8-0.1-5.5,0.3-8.1,1.2
		c-4.7,1.9-5.8,5.8-5.3,8.6c0.4,2.9,2.8,5.1,5.7,5.2h2.1h8c5.4,0,10,0,13.6-0.1c1.2,0,4.7-0.1,6.4-3.1s0.3-6.7-1.5-9.9
		c-1.9-3.5-5.3-15.7-6.7-21.4c-2.8-11.1-3.6-26.7-2.7-47.9c17.7,23.3,34,34,45.1,39c0.3,0.2,0.7,0.4,1.1,0.5c2,0.9,4,1.6,6.1,2.2
		l-0.1,0.4c-1.2,4.3-2.1,7.7-0.1,12.8c1.3,3.7,4.8,6.1,8.7,6.2c0.5,0,1,0,1.5-0.1c3.5-0.7,6.1-3.8,5.9-7.4c0-1.6-0.4-3.1-1.2-4.5
		C1033.3,714.6,1033,713.9,1034.1,710.6z M1028.1,706.5c-0.2,0.6-0.4,1.3-0.7,2c-1.8,5.6-1,8,0.2,10.3c0.3,0.4,0.4,0.8,0.4,1.3
		c0,0.2,0,0.3-0.1,0.5l0,0h-0.2c-0.1,0-0.1,0-0.2,0c-1-0.1-1.9-0.8-2.1-1.8c-1.1-2.9-0.7-4.4,0.3-8.4c0.2-0.8,0.5-1.7,0.7-2.7
		c0.7-0.6,1.3-1.2,1.8-1.9L1028.1,706.5z M1020,701.1c0.3-0.5,0.6-1,0.8-1.4c0.8,0.4,1.5,0.8,2.3,1.2c-0.2,0.3-0.4,0.6-0.6,0.9
		C1021.9,701.7,1021,701.5,1020,701.1z M964,619.3c2-3.4,4-7.1,6.1-10.9l-1.7,19.7c-0.2,1.8,1.1,3.4,2.8,3.7
		c0.5,0.1,13.4,3.1,19.9,21.1c8,22.3,14.5,36.4,23.9,42.9l0,0c-0.4,0.9-1,1.7-1.6,2.5c-10-4.8-28.1-16.7-47.4-45.2
		c-1.4-7.2-4.8-13.8-9.9-19C957.9,629.9,960.9,624.7,964,619.3L964,619.3z M962.7,716.1c0.7,2.7,1.8,6.8,3,10.8c-0.2,0-0.5,0-0.7,0
		c-0.5,0-0.9,0-1.4-0.1c-8.3-19.1-26.6-62.2-33.2-82.1c-7.4-22.3-14.8-59.4-13.4-97.7c12.3-2.4,26.2-11.2,30.7-14.2
		c6.2,2.2,28.2,11.4,28.8,35.1c0.3,15.2-10.1,33.3-18.4,47.9c-3.7,6.5-7.3,12.7-9.5,18c-0.6,1.5-0.1,3.3,1.2,4.2
		c0.4,0.3,11.1,8.3,10.2,27.6C958.8,688.1,959.7,704.1,962.7,716.1L962.7,716.1z M966.6,733.8c0.4,0,0.8-0.1,1.3-0.2
		c0.2,0.5,0.3,0.9,0.5,1.3H968c-0.3,0-0.6,0-0.9-0.1C966.9,734.6,966.8,734.2,966.6,733.8L966.6,733.8z M966.2,741.8
		c-2.5,0-5.3,0-8.5,0h-7.8h-0.7c0.2-0.1,0.4-0.2,0.6-0.3c1.8-0.6,3.6-0.8,5.5-0.7c1.5,0,3,0.1,4.4,0.2c1.1,0.1,2.2,0.1,3.1,0.1h0.8
		C964.4,741.5,965.3,741.7,966.2,741.8L966.2,741.8z M970.4,741.8c0.3,0,0.6-0.1,0.9-0.2c0,0,0,0.1,0,0.1h-0.2L970.4,741.8z
		 M857.2,442.7c-0.3,3.6-1.6,10.8-6.6,15.8c-22.2-10.5-55.2-31.2-90.1-71.1c12.2,8.3,56,37.7,88.9,52.1c0.3,0.2,0.6,0.3,0.9,0.4
		C852.7,441,855,441.9,857.2,442.7z M744.9,384.3c0-0.1,0-0.3,0-0.4c0-0.2,0-0.4,0-0.7c2.2-0.6,4.2-1.8,5.8-3.4
		c0.5,0.4,1,0.7,1.6,0.9c1.5,0.5,2.8,1.6,3.6,3c0.3,0.6,0.7,1.1,1.2,1.5l1,0.7c-0.3-0.1-0.5-0.1-0.8-0.1c-0.5,0-1,0.1-1.4,0.3
		c-3.1,1.2-6.5,2-9.8,2.2c-0.1-0.6-0.3-1.1-0.6-1.6c0-0.1,0-0.2,0-0.3C745.6,385.7,745.4,384.9,744.9,384.3z M876.1,440.4
		c1.7,0,3.7-0.1,5.8-0.3l-0.1,0.2c-1.3,0.2-2.7,0.4-4.1,0.4h-0.6c-1-0.1-2.1-0.2-3.1-0.3C874.7,440.4,875.3,440.4,876.1,440.4
		L876.1,440.4z M931.5,444.7c-0.6-6.4-1.9-18.3-3.6-26c-0.4-1.9-2.2-3.1-4.1-2.7h-0.1c-1.9,0.4-3.1,2.3-2.7,4.2
		c1.7,7.7,3,20.2,3.5,26.1c-4.6-7.5-12.8-9-18.2-9.3c1.4-9.9,1.5-20,0.4-30c-0.2-1.8-1.7-3.1-3.5-3.1h-0.5c-1.9,0.3-3.2,2-3,3.9
		c1.1,9.7,0.9,19.6-0.5,29.2c-3.3,0.4-6.6,0.9-9.8,1.7c3.2-12.8,4-26,2.3-39.1c-0.2-1.4-1.3-2.6-2.7-2.9
		c-11.5-2.6-16.2-8.8-17.7-11.3c1.4-3.4,5.6-7.7,11.3-10.1c2.9-1.2,6.1-1.8,9.3-1.8c5.4,0,11,1.7,16.7,5.2
		c21,12.7,24.5,55.9,25,64.8C933.2,443.9,932.4,444.3,931.5,444.7L931.5,444.7z M883.7,432.9c-2.5,0.3-5.1,0.5-7.6,0.5
		c-0.9,0-1.8,0-2.8-0.1c-4.4-7.4-5.1-19.2-5.1-19.3c-0.1-1.3-0.8-2.4-2-3l-2.3-1.1l4.6-9.9c0.1-0.2,0.2-0.4,0.2-0.7
		c0.4-1.7,0.8-3.5,1.1-5.1c4.4,4.2,9.7,7.2,15.5,8.7C886.3,412.9,885.7,423,883.7,432.9L883.7,432.9z M861.9,397.4l-5.8,12.7
		c-0.8,1.7-0.1,3.8,1.7,4.6l3.7,1.8c0.5,4.5,2,14.9,7,22c0.2,0.4,0.5,0.7,0.9,0.9c-5-1.4-10-3.1-14.8-5.2c-0.3-4.3-1-14.6-1-26.8
		c0-14.2,5.8-19.8,7.8-20.1c0.4-0.1,0.9-0.1,1.3-0.1c0.5,0,0.9,0,1.3,0.2C863.5,389.7,862.8,393.7,861.9,397.4z M868.2,473.1
		c3.3,1.1,6.8,2,10.2,2.7c0.2,0,0.4,0,0.6,0c1.9,0.2,3.6-1.3,3.8-3.2c0.2-1.9-1.3-3.6-3.2-3.8c-0.1,0-8.5-1.5-22.3-7.3
		c4.4-5.5,6.1-12,6.6-16.5c4.2,1.4,8.5,2.3,12.9,2.6c0.3,0,0.7,0,1,0c3.6,0,7.8-0.9,12.2-1.9s8.8-2,12.4-2c9.8,0,16.6,1.9,18.2,11.3
		c3,17.1,10.9,56.8,21.4,73c-5.3,3.4-17.2,10.5-27.1,12.1c-9.4-11-25.2-30.4-30.2-39c-0.5-0.9-1.4-1.5-2.4-1.7
		c-0.2,0-16.8-3.3-16.8-15.5C865.6,480.1,866.5,476.4,868.2,473.1L868.2,473.1z"/>
	<path class="st3" d="M964.2,738c-1.5,0.2-2.9,0.2-4.4,0c-3.4-0.2-8.1-0.5-11.2,0.8s-2.9,3.5-2.8,4.1c0.2,1.1,1,2,1.8,2h2.1
		c4.6,0,14.1,0.1,21.4-0.1c1.7,0,2.7-0.4,3.1-1.1c0.6-1,0.1-2.8-1.3-5.6c-1.6,0.6-3.2,0.9-4.9,0.9
		C966.7,739.1,965.3,738.7,964.2,738z"/>
	<path class="st1" d="M860.3,440.7c-2.9-1-5.9-2.3-9.1-3.6c-0.1,0-0.2-0.1-0.3-0.1c-38-16.5-91.2-53.7-91.9-54.2
		c-0.1-0.1-0.1-0.1-0.2-0.2c-1.1-2.2-3.1-3.9-5.4-4.7c-1.2-0.4-1.2-2.3-1.1-4.3c0-0.8,0.1-2.7-0.3-2.8c-0.4-0.1-0.9,0-1.3,0.3
		c-0.7,0.7-1,1.7-0.7,2.6c0.2,1.2,0,2.4-0.7,3.3c-1.2,1.8-3.9,3.3-7,3.8c-2.6,0.5-6.3-0.2-9.3-0.8c-1.7-0.3-3.7-0.7-4.1-0.5
		c-0.2,0.2-0.4,0.4-0.4,0.7c0,0.3,0.2,0.6,0.4,0.8c1.4,0.7,11.3,2,12.7,2.1c0.3,0,0.5,0.3,0.5,0.5c0,0.3-0.3,0.5-0.5,0.5
		c0,0,0,0,0,0c-1.1-0.1-11.4-1.3-13.1-2.2l0,0h-0.1c-0.7-0.3-1.6-0.2-2.2,0.3c-0.1,0.1-0.3,0.3,0.1,0.8s2,1.1,3.9,1.5l0,0
		c0.2,0,0.3,0,0.5,0.1c3.8,0.7,7.7,1.1,11.6,1.2c0.3,0,0.5,0.3,0.5,0.5c0,0.3-0.2,0.5-0.5,0.5l0,0c-4-0.2-8-0.6-11.9-1.3
		c-0.4,0.1-0.7,0.4-0.9,0.7c-0.1,0.2,0,0.4,0.1,0.6c1,1.5,8.7,1.7,13.3,1.5c0.3,0,0.5,0.2,0.5,0.5c0,0.3-0.2,0.5-0.5,0.5
		c0,0,0,0,0,0c-0.6,0-2,0.1-3.8,0.1c-1.7,0-3.4-0.1-5.1-0.2c-0.2,0.1-0.3,0.3-0.4,0.4c0,0.1,0,0.3,0.1,0.4c0.8,1,5.6,1.3,9.2,1.4
		c5,0.1,9.9-0.7,14.5-2.5c0.2-0.1,0.4,0,0.6,0.1c36.2,41.5,70.4,62.6,93.3,73.1C859.9,455,860.3,442.7,860.3,440.7z"/>
	<path class="st3" d="M923.5,454.6c-2.1-12.1-11.9-13.8-21.2-13.8c-3.9,0-8.5,1-13,2c-4.6,1-9,2-12.4,1.8c-4.3-0.2-9.7-1.5-15.7-3.7
		c-0.1,2.9-0.8,14.5-9.1,21.5c16.4,7.4,26.7,9.3,26.9,9.3c0.3,0,0.5,0.3,0.5,0.5c0,0.3-0.3,0.5-0.5,0.5h-0.1
		c-4.1-0.8-8.1-2-12.1-3.4c-2.7,4.4-4.2,9.4-4.3,14.5c-0.1,14.9,19.1,18.5,19.3,18.5c0.1,0,0.3,0.1,0.3,0.2
		c6.6,11.3,29.5,38.2,31.6,40.7c13-1.5,29.7-12.6,32.6-14.6C934.9,515.1,926,468.6,923.5,454.6z"/>
	<path class="st0" d="M877,443.7c2.4,0,4.8-0.2,7.2-0.7c0.7-2.1,1.3-4.2,1.8-6.3c-3.3,0.5-6.6,0.7-9.9,0.7c-1.7,0.1-3.4-0.1-5-0.5
		c-0.1,0-0.2-0.1-0.2-0.2c-5.4-7.7-6.4-20.1-6.6-22.2l-5.2-2.5c-0.2-0.1-0.4-0.4-0.2-0.7l6-12.9c1.3-5.4,2.3-11.4,2.5-12.6
		c-0.5-0.5-2.5-2.1-6.5-1.5c-3.4,0.5-10.3,6.9-10.3,23.1c0,14.7,1,26.8,1.2,28.8C861.7,440.5,870.5,443.4,877,443.7z"/>
	<path class="st0" d="M888.6,399.6c0.2,0,0.4,0.2,0.4,0.4c0,0.2,3.2,21.4-3.7,42.7c1.3-0.3,2.5-0.5,3.8-0.8c4.2-1.1,8.5-1.7,12.8-2
		c1.9-10.7,2.2-21.7,0.9-32.5c0-0.3,0.2-0.5,0.4-0.5c0,0,0,0,0,0c0.3,0,0.5,0.2,0.6,0.4c0,0,0,0,0,0c1.2,10.8,0.9,21.8-0.9,32.5
		c5.4,0,16.2,0.4,20.3,10.3c1.7-0.3,3.2-0.7,4.7-1.1c-0.1-1.6-1.7-19.5-3.9-29.5c-0.1-0.3,0.1-0.5,0.4-0.6c0.3,0,0.5,0.1,0.6,0.4
		c2.1,9.8,3.7,26.9,3.9,29.4c3.7-1.1,6.5-2.4,8.1-3.9c-0.1-3.8-2.3-54.3-26.5-68.9c-12.5-7.5-22.5-6.1-28.7-3.6
		c-7.3,3-12.3,8.8-13.5,13.1C868.9,386.9,873.6,396.2,888.6,399.6z"/>
	<path class="st3" d="M881.9,424.9c2.4-1.6,2.6-3.7,2.1-5.1c-0.4-1.3-1.8-2.1-3.1-1.9c-1,0.2-1.9,0.8-2.3,1.7
		c-0.8,1.1-1.7,2.3-4.5,1.7c-0.6-0.1-1.1-0.2-1.7-0.2c-0.7-0.1-1.4,0.2-1.9,0.8c-0.4,1.1-0.1,2.2,0.7,3
		C872.7,426.5,877.6,427.9,881.9,424.9z"/>
	<path class="st1" d="M865.7,398.8l-5.8,12.5l5.1,2.5c0.2,0.1,0.3,0.2,0.3,0.4c0,0.1,0.8,13.8,6.3,21.9c0.7,0.2,4.5,0.9,14.7-0.4
		c2.6-11.5,3.2-23.4,1.8-35.1c-13-3.1-18.3-10.3-20-13.3C867.6,389.5,866.7,394.2,865.7,398.8L865.7,398.8z M874.3,420.4
		c2.2,0.5,2.7-0.2,3.4-1.3c0.6-1.1,1.7-1.9,3-2.1c1.8-0.3,3.6,0.8,4.2,2.5c0.7,1.7,0.4,4.4-2.5,6.3c-1.8,1.2-3.9,1.8-6,1.8
		c-2.2,0.1-4.3-0.6-6-2c-1.1-1.1-1.5-2.7-0.8-4.2C870.1,420.5,871.3,419.7,874.3,420.4L874.3,420.4z M870.5,395.5
		c0.1-0.3,0.4-0.4,0.6-0.3c0,0,0,0,0,0c0.3,0.1,0.4,0.4,0.3,0.6c0,0-1.5,4.2-1.1,7.3c0,0.3-0.2,0.5-0.4,0.5h-0.1
		c-0.3,0-0.5-0.2-0.5-0.4C868.9,400,870.4,395.7,870.5,395.5z"/>
	<path class="st3" d="M1031.8,701.8c-0.5-0.7-1.2-1.2-2-1.3c-0.7-0.2-1.4-0.5-2.1-0.7c-0.3,2.6-1.7,4.8-3.8,6.3
		c-0.3,1.4-0.7,2.6-1,3.7c-1.1,4.2-1.8,6.4-0.3,10.3c0.8,2.4,3.2,3.9,5.7,3.6c1.7-0.3,2.8-1.8,2.7-3.5c0-0.9-0.3-1.9-0.8-2.7
		c-0.8-1.5-1.6-3.1,0-8c0.2-0.7,0.4-1.3,0.7-1.9C1031.8,705,1032.4,703,1031.8,701.8z"/>
	<path class="st1" d="M1026.7,699.3c-2.5-1.1-4.9-2.4-7.2-3.9c-0.5,1.4-2.1,5-4.7,7c2.7,1.2,5.5,2.1,8.4,2.6
		C1023.9,704.8,1026.1,703.2,1026.7,699.3z M1020.8,699.6c-0.3,0-0.5-0.1-0.6-0.4c0-0.3,0.1-0.5,0.4-0.6c0,0,0,0,0,0
		c1.4-0.1,2.8,0.6,3.6,1.8c0.2,0.2,0.1,0.5-0.1,0.7c-0.2,0.1-0.5,0.1-0.7-0.1C1022.9,700.1,1021.9,699.6,1020.8,699.6L1020.8,699.6z
		"/>
	<path class="st2" d="M1018.7,694.9c-0.7-0.4-1.4-0.9-2.1-1.4c-8.7-6-14.9-19.8-22.8-41.5c-7.2-19.8-22-23-22.1-23
		c-0.3,0-0.4-0.3-0.4-0.5l3.2-35.8c-3.7,8.8-8.7,17.5-13.1,25.2c-3.3,5.6-6.4,11.3-9.1,17.2c1.6,1.3,8.3,7.3,10.7,19.4
		c20.5,30.5,39.7,42.7,50.8,47.6C1016.5,700.2,1018.2,696.1,1018.7,694.9z"/>
	<path class="st1" d="M961.9,730.6l2.8,6.6c0.4,0.3,2.5,1.7,7.7,0c-1-2.3-1.9-4.7-2.7-7.1c-1.5,0.6-3.2,0.9-4.8,0.9
		C963.9,730.9,962.9,730.8,961.9,730.6z M968.4,732.2c0.2-0.2,0.5-0.2,0.7,0c0.8,0.8,1.2,2,1,3.1c0,0.3-0.2,0.5-0.5,0.5l0,0
		c-0.3,0-0.5-0.3-0.5-0.5c0,0,0,0,0,0c0.1-0.8-0.1-1.6-0.7-2.3C968.2,732.8,968.2,732.5,968.4,732.2
		C968.4,732.2,968.4,732.2,968.4,732.2L968.4,732.2z"/>
	<path class="st2" d="M962.8,665.9c1-21.3-11.3-30.2-11.4-30.2c-0.2-0.1-0.3-0.4-0.2-0.6c2.1-5,5.6-11.2,9.3-17.6
		c8.5-14.9,19.1-33.5,18.8-49.5c-0.6-28.2-29.5-37.5-32.2-38.3c-2,1.4-19.5,13.3-33.1,14.9c-1.7,39.6,5.8,78.2,13.5,101.2
		c6.8,20.5,26.1,65.6,33.9,83.7c2.7,0.7,5.5,0.6,8.1-0.3c-1.6-4.9-3.1-10.5-3.9-13.7C962.7,703.7,961.8,687.9,962.8,665.9z"/>
	<path class="st4" d="M1031.8,707.8c0.9-2.7,1.7-4.9,0.8-6.5c-0.6-1-1.5-1.6-2.6-1.8c-3.5-1-7.9-3.3-12.9-6.8
		c-8.5-5.9-14.6-19.5-22.4-41c-6.6-18.4-19.9-22.8-22.4-23.5l3.4-38.7c2.8-7.3,4.7-14.7,4.5-21.6c-0.7-29.1-30.6-38.6-33-39.3
		c-11.4-13.2-20.3-60.1-22.8-74.2c-0.2-1.1-0.5-2.3-0.9-3.4c5-1,11.2-2.7,14.2-5.6c0.1-0.1,0.2-0.2,0.2-0.4c0-0.5-1.6-54.6-27-69.9
		c-12.8-7.8-23.2-6.3-29.6-3.6c-7.6,3.1-12.4,8.8-13.9,13.1c-1-0.8-3.2-2-6.9-1.4s-11.2,7.3-11.2,24c0,13.7,0.9,25.2,1.1,28.4
		c-36.9-16.2-88.1-51.7-91-53.7c-1.2-2.5-3.4-4.3-6-5.2c-0.5-0.2-0.5-2.2-0.4-3.3c0-1.8,0.1-3.4-0.9-3.8c-0.8-0.3-1.7-0.1-2.3,0.5
		c-1,0.9-1.3,2.3-1,3.6c0.2,0.9,0,1.8-0.6,2.5c-1.1,1.6-3.5,2.9-6.4,3.4c-2.4,0.4-6-0.2-8.9-0.8s-4.4-0.8-5-0.3
		c-0.5,0.4-0.7,0.9-0.8,1.5c0,0.2,0,0.4,0.1,0.5c-0.8,0-1.6,0.3-2.2,0.9c-0.5,0.6-0.4,1.5,0.1,2c1,0.8,2.1,1.3,3.3,1.5
		c-0.2,0.2-0.4,0.4-0.5,0.7c-0.2,0.5-0.1,1,0.2,1.5c0.6,0.9,2.2,1.4,4.1,1.7c-0.1,0.1-0.1,0.3-0.2,0.4c-0.1,0.4,0,0.9,0.3,1.2
		c0.7,0.9,2.7,1.5,9.9,1.7c5,0.1,10-0.7,14.6-2.5c36.2,41.5,70.5,62.6,93.4,73.1l0,0c0.1,0.1,0.2,0.2,0.4,0.2l0,0
		c5.6,2.6,10.6,4.5,14.6,5.9c-2.8,4.5-4.3,9.6-4.3,14.9c-0.1,14.8,17.6,19,19.8,19.5c6.8,11.6,29.7,38.4,31.6,40.7
		c-1.8,39.8,5.8,78.7,13.5,101.8c6.9,20.6,26.3,66,34.1,84l0,0l3.1,7c-1.2,0-2.5,0-3.7-0.1c-3.5-0.2-8.3-0.5-11.6,0.8
		c-3,1.2-3.8,3.5-3.4,5.2c0.2,1.5,1.3,2.6,2.8,2.8h2.1h7.9c4.3,0,9.3,0,13.5-0.1c2.1,0,3.3-0.5,3.9-1.6c0.8-1.4,0.3-3.5-1.5-7
		c-2.1-4-5.7-16.8-7-22.1c-2.8-11.5-3.8-27.6-2.8-49.3c0.1-3,0-6.1-0.4-9.1c20.2,29.3,39,41.3,50,46.2c0.1,0.1,0.2,0.2,0.4,0.2l0,0
		c2.9,1.3,5.9,2.3,9,2.9c-0.3,1.3-0.6,2.4-0.9,3.4c-1.2,4.2-1.8,6.8-0.2,10.9c0.9,2.5,3.2,4.2,5.9,4.3c0.3,0,0.6,0,0.9-0.1
		c2.1-0.4,3.6-2.3,3.5-4.5c0-1.1-0.3-2.2-0.9-3.1c-0.7-1.4-1.4-2.7,0.1-7.2C1031.4,709,1031.6,708.4,1031.8,707.8z M881.8,372.5
		c6.2-2.5,16.2-4,28.7,3.6c24.2,14.6,26.4,65.1,26.5,68.9c-1.6,1.5-4.4,2.8-8.1,3.9c-0.2-2.5-1.8-19.7-3.9-29.4
		c-0.1-0.3-0.3-0.4-0.6-0.4c-0.3,0.1-0.4,0.3-0.4,0.6c2.1,10,3.7,27.9,3.9,29.5c-1.4,0.4-3,0.7-4.7,1.1
		c-4.1-9.9-14.9-10.3-20.3-10.3c1.8-10.8,2.1-21.7,0.9-32.5c0-0.3-0.3-0.5-0.6-0.4c0,0,0,0,0,0c-0.3,0-0.5,0.3-0.4,0.5c0,0,0,0,0,0
		c1.3,10.8,0.9,21.7-0.9,32.5c-4.3,0.3-8.6,0.9-12.8,2c-1.3,0.3-2.6,0.6-3.8,0.8c6.9-21.3,3.7-42.5,3.7-42.7c0-0.2-0.2-0.4-0.4-0.4
		c-15-3.4-19.7-12.8-20.3-14C869.6,381.3,874.5,375.5,881.8,372.5L881.8,372.5z M868.1,387.2c1.7,3.1,7,10.3,20,13.3
		c1.4,11.7,0.7,23.6-1.8,35.1c-10.2,1.3-13.9,0.6-14.7,0.4c-5.5-8-6.3-21.7-6.3-21.9c0-0.2-0.1-0.3-0.3-0.4l-5.1-2.5l5.8-12.5v-0.1
		C866.7,394.3,867.6,389.5,868.1,387.2L868.1,387.2z M850.5,407.3c0-16.2,7-22.5,10.3-23.1c4-0.7,5.9,1,6.5,1.5
		c-0.2,1.3-1.3,7.2-2.5,12.6l-6,12.9c-0.1,0.2,0,0.5,0.2,0.7l5.2,2.5c0.1,2.1,1.2,14.5,6.6,22.2c0.1,0.1,0.1,0.1,0.2,0.2
		c1.6,0.4,3.3,0.6,5,0.5c3.3,0,6.6-0.3,9.9-0.7c-0.5,2.1-1.1,4.2-1.8,6.3c-2.3,0.5-4.7,0.8-7.2,0.7c-6.5-0.3-15.4-3.2-25.3-7.5
		C851.5,434.1,850.5,422,850.5,407.3L850.5,407.3z M851.2,462.1c-22.8-10.5-57.1-31.6-93.3-73.1c-0.1-0.2-0.4-0.2-0.6-0.1
		c-4.6,1.8-9.6,2.7-14.5,2.5c-3.6-0.1-8.4-0.4-9.2-1.4c-0.1-0.1-0.1-0.3-0.1-0.4c0.1-0.2,0.2-0.3,0.4-0.4c1.7,0.2,3.4,0.2,5.1,0.2
		c1.7,0,3.1-0.1,3.8-0.1c0.3,0,0.5-0.2,0.5-0.5c0,0,0,0,0,0c0-0.3-0.3-0.5-0.5-0.5c-4.6,0.2-12.3,0-13.3-1.5
		c-0.1-0.2-0.2-0.4-0.1-0.6c0.2-0.3,0.5-0.6,0.9-0.7c3.9,0.7,7.9,1.1,11.9,1.3l0,0c0.3,0,0.5-0.2,0.5-0.5c0-0.3-0.2-0.5-0.5-0.5
		c-3.9-0.1-7.7-0.6-11.6-1.2c-0.1-0.1-0.3-0.2-0.5-0.1l0,0c-1.9-0.4-3.4-0.9-3.9-1.5s-0.2-0.7-0.1-0.8c0.6-0.5,1.4-0.7,2.2-0.3h0.1
		l0,0c1.7,0.8,12,2.1,13.1,2.2c0.3,0,0.5-0.2,0.5-0.5c0,0,0,0,0,0c0-0.3-0.2-0.5-0.5-0.5c-1.4-0.1-11.3-1.4-12.7-2.1
		c-0.2-0.2-0.4-0.5-0.4-0.8c0-0.3,0.2-0.6,0.4-0.7c0.4-0.2,2.4,0.2,4.1,0.5c3,0.6,6.7,1.3,9.3,0.8c3.2-0.6,5.8-2,7-3.8
		c0.7-1,1-2.2,0.7-3.3c-0.3-0.9,0-1.9,0.7-2.6c0.3-0.3,0.8-0.4,1.3-0.3c0.3,0.1,0.3,2,0.3,2.8c0,2-0.1,3.9,1.1,4.3
		c2.4,0.8,4.3,2.5,5.4,4.7c0,0.1,0.1,0.2,0.2,0.2c0.7,0.5,53.9,37.6,91.9,54.2c0.1,0.1,0.2,0.1,0.3,0.1c3.2,1.4,6.2,2.6,9.1,3.6
		C860.3,442.7,859.9,455,851.2,462.1L851.2,462.1z M882.2,502.8c-0.1-0.1-0.2-0.2-0.3-0.2c-0.2,0-19.3-3.6-19.3-18.5
		c0.1-5.2,1.6-10.2,4.3-14.5c3.9,1.4,8,2.5,12,3.4h0.1c0.3,0,0.5-0.2,0.5-0.5c0-0.3-0.2-0.5-0.5-0.5c-0.2,0-10.5-1.9-26.9-9.3
		c8.3-7.1,9-18.6,9.1-21.5c6,2.1,11.4,3.4,15.7,3.7c3.4,0.2,7.8-0.8,12.4-1.8c4.4-1,9.1-2,13-2c9.3,0,19,1.6,21.2,13.8
		c2.5,14,11.3,60.5,22.8,74.3c-2.9,2-19.6,13.1-32.6,14.6C911.6,541,888.7,514.1,882.2,502.8L882.2,502.8z M974.3,743.7
		c-0.4,0.7-1.4,1-3.1,1.1c-7.3,0.2-16.8,0.1-21.4,0.1h-2.1c-0.8,0-1.6-0.9-1.8-2c-0.1-0.7-0.3-2.9,2.8-4.1s7.7-1,11.2-0.8
		c1.5,0.2,2.9,0.2,4.4,0c1.1,0.7,2.4,1.1,3.7,1c1.7,0,3.3-0.4,4.9-0.9C974.4,740.9,974.8,742.7,974.3,743.7L974.3,743.7z
		 M972.5,737.1c-5.2,1.7-7.3,0.3-7.7,0l-2.8-6.6c1,0.2,2,0.3,3,0.3c1.7,0,3.3-0.3,4.8-0.9C970.6,732.4,971.4,734.8,972.5,737.1
		L972.5,737.1z M965.7,715.4c0.8,3.2,2.3,8.8,3.9,13.7c-2.6,1-5.4,1.1-8.1,0.3c-7.8-18.2-27.1-63.2-33.9-83.7
		c-7.7-23-15.2-61.7-13.5-101.2c13.6-1.6,31.1-13.5,33.1-14.9c2.7,0.8,31.6,10.1,32.2,38.3c0.3,16-10.3,34.6-18.8,49.5
		c-3.7,6.5-7.2,12.6-9.3,17.6c-0.1,0.2,0,0.5,0.2,0.6c0.1,0.1,12.4,8.9,11.4,30.2C961.8,687.9,962.7,703.7,965.7,715.4L965.7,715.4z
		 M1013.9,702c-11-4.9-30.2-17.1-50.8-47.6c-2.4-12.1-9.2-18.1-10.7-19.4c2.7-5.9,5.8-11.6,9.1-17.2c4.4-7.7,9.4-16.4,13.1-25.2
		l-3.2,35.8c0,0.3,0.1,0.5,0.4,0.5c0.2,0,15,3.2,22.1,23c7.8,21.7,14.1,35.5,22.8,41.5c0.7,0.5,1.4,0.9,2.1,1.4
		C1018.2,696.1,1016.5,700.2,1013.9,702L1013.9,702z M1014.9,702.4c2.6-2,4.1-5.6,4.7-7c2.3,1.5,4.7,2.8,7.2,3.9
		c-0.6,3.9-2.8,5.5-3.4,5.8C1020.5,704.5,1017.6,703.7,1014.9,702.4L1014.9,702.4z M1030.3,709.4c-1.6,4.9-0.8,6.5,0,8
		c0.5,0.8,0.7,1.7,0.8,2.7c0.1,1.7-1,3.2-2.7,3.5c-2.5,0.3-4.9-1.2-5.7-3.6c-1.5-3.8-0.9-6.1,0.3-10.3c0.3-1.1,0.6-2.3,1-3.7
		c2.1-1.4,3.5-3.7,3.8-6.3c0.7,0.3,1.5,0.5,2.1,0.7c0.8,0.2,1.5,0.6,2,1.3c0.6,1.2,0,3.2-0.9,5.7
		C1030.7,708.1,1030.5,708.7,1030.3,709.4L1030.3,709.4z"/>
	<path class="st4" d="M869.6,421.4c-0.6,1.4-0.3,3.1,0.8,4.2c1.7,1.4,3.8,2.1,6,2c2.1,0,4.2-0.6,6-1.8c2.9-1.9,3.1-4.6,2.5-6.3
		c-0.6-1.7-2.4-2.8-4.2-2.5c-1.3,0.2-2.4,1-3,2.1c-0.8,1-1.3,1.8-3.4,1.3C871.3,419.7,870.1,420.5,869.6,421.4z M870.5,421.9
		c0.4-0.6,1.2-0.9,1.9-0.8c0.6,0,1.1,0.1,1.7,0.2c2.8,0.7,3.7-0.6,4.5-1.7c0.5-0.9,1.3-1.5,2.3-1.7c1.3-0.2,2.6,0.6,3.1,1.9
		c0.5,1.4,0.3,3.5-2.1,5.1c-4.3,2.9-9.2,1.5-10.7-0.1C870.3,424.1,870.1,423,870.5,421.9z"/>
	<path class="st4" d="M869.8,404c-0.4,0-0.7-0.3-0.7-0.7c-0.4-3.4,1.1-7.7,1.2-7.9c0.1-0.3,0.4-0.5,0.7-0.5c0.1,0,0.2,0,0.3,0
		c0.2,0.1,0.3,0.2,0.4,0.4c0.1,0.2,0.1,0.4,0,0.6c0,0-1.4,4.2-1.1,7.2C870.6,403.5,870.3,403.9,869.8,404L869.8,404z"/>
	<path class="st4" d="M870.9,395.2c0.1,0,0.1,0,0.2,0c0.3,0.1,0.4,0.4,0.3,0.6c0,0-1.5,4.2-1.1,7.3c0,0.3-0.2,0.5-0.4,0.5h-0.1
		c-0.3,0-0.5-0.2-0.5-0.4c-0.4-3.3,1.1-7.6,1.2-7.8C870.5,395.3,870.7,395.2,870.9,395.2 M870.9,394.7c-0.4,0-0.8,0.3-0.9,0.7
		c-0.9,2.6-1.3,5.3-1.2,8c0.1,0.5,0.5,0.9,1,0.9h0.1c0.5-0.1,0.9-0.5,0.9-1.1c0,0,0,0,0,0c-0.3-3,1.1-7,1.1-7.1
		c0.1-0.2,0.1-0.5,0-0.8c-0.1-0.2-0.3-0.4-0.6-0.5C871.2,394.7,871.1,394.7,870.9,394.7L870.9,394.7z"/>
	<path class="st4" d="M969.1,735.1c0,0.3,0.2,0.5,0.4,0.5c0,0,0,0,0,0l0,0c0.3,0,0.5-0.2,0.5-0.5c0.2-1.1-0.2-2.3-1-3.1
		c-0.2-0.2-0.5-0.2-0.7,0c-0.2,0.2-0.2,0.5,0,0.7C969,733.5,969.2,734.3,969.1,735.1z"/>
	<path class="st4" d="M1023.8,701.2c0.3,0,0.5-0.2,0.5-0.5c0-0.1,0-0.2-0.1-0.3c-0.8-1.2-2.1-1.8-3.6-1.8c-0.3,0-0.5,0.3-0.4,0.5
		c0,0,0,0,0,0c0,0.3,0.3,0.5,0.6,0.4c1.1,0,2,0.5,2.6,1.4C1023.5,701.2,1023.7,701.2,1023.8,701.2z"/>
</g>
</svg>
