<svg id="Layer_1" data-name="Layer 1" xmlns="http://www.w3.org/2000/svg" viewBox="0 0 302 302"><defs><style>.cls-1{fill:#074752;}.cls-2{fill:#ed4848;}.cls-3{fill:#155763;}.cls-4{fill:#fbb03b;}.cls-5{fill:#5abfb6;}</style></defs><title>Artboard 20</title><circle class="cls-1" cx="151" cy="151" r="151"/><polygon class="cls-2" points="222.35 214.78 222.35 202.84 233.8 202.84 233.8 91.04 222.35 91.04 222.35 79.1 257.19 79.1 257.19 91.04 245.74 91.04 245.74 202.84 257.19 202.84 257.19 214.78 222.35 214.78"/><path class="cls-3" d="M254.69,81.6v6.94H243.24v116.8h11.45v6.94H224.85v-6.94H236.3V88.54H224.85V81.6h29.84m5-5H219.85V93.54H231.3v106.8H219.85v16.94h39.84V200.34H248.24V93.54h11.45V76.6Z"/><path class="cls-4" d="M131.56,201.56c-5.75,0-10.32-3.22-12.88-9.08l-6.09-14.25H71.8l-6.37,14.94A13.34,13.34,0,0,1,53,201.56a12.6,12.6,0,0,1-12.67-12.8A14.12,14.12,0,0,1,41.81,183l34.92-78.86c3-6.59,8.34-10.22,15.18-10.22h1.28c6.75,0,12.08,3.63,15,10.21L143.15,183a13,13,0,0,1,1.36,5.45A12.88,12.88,0,0,1,131.56,201.56Zm-29.24-47.8L92.19,129.65,82.07,153.76Z"/><path class="cls-3" d="M93.2,96.42c6,0,10.3,3.29,12.73,8.73L140.87,184a10.86,10.86,0,0,1,1.14,4.44,10.44,10.44,0,0,1-10.45,10.59c-5.15,0-8.59-3-10.59-7.58l-6.73-15.75H70.15l-7,16.46A10.81,10.81,0,0,1,53,199.06a10.14,10.14,0,0,1-10.17-10.3A11.66,11.66,0,0,1,44.09,184L79,105.15c2.44-5.44,6.87-8.73,12.89-8.73H93.2M78.31,156.26h27.77L92.19,123.19,78.31,156.26M93.2,91.42H91.91c-7.77,0-14.13,4.26-17.45,11.69L39.52,182a16.43,16.43,0,0,0-1.72,6.75A15.07,15.07,0,0,0,53,204.06a15.77,15.77,0,0,0,14.75-9.88l5.73-13.45h37.49l5.43,12.71c3,6.87,8.39,10.62,15.19,10.62A15.3,15.3,0,0,0,145.42,182l-34.91-78.83C107.13,95.57,101,91.42,93.2,91.42Zm-7.37,59.84,6.36-15.16,6.37,15.16Z"/><path class="cls-5" d="M178.8,202.14c-7.88,0-15.05-2.36-20.19-6.63-5.66-4.7-8.65-11.4-8.65-19.35v-.29c0-17.14,12.18-27,33.42-27a56.8,56.8,0,0,1,16.12,2.2c-.81-6.3-5.35-9.37-13.83-9.37a47.55,47.55,0,0,0-14.29,2,11.61,11.61,0,0,1-3.89.68A11.32,11.32,0,0,1,156,133.07a11.59,11.59,0,0,1,7.49-10.79c7.69-2.88,15.51-4.17,25.36-4.17,12.18,0,21.49,3.14,27.68,9.33,6,6,9,14.82,9,26.24v34.93a12.89,12.89,0,0,1-13.1,12.95c-5.83,0-10-3-11.84-6.83-5.87,5-13,7.41-21.8,7.41Zm9.73-35.22C183.85,166.92,176,168,176,175v.29c0,6.31,7.18,6.8,9.38,6.8,4.34,0,8.16-1.14,10.78-3.23a9.59,9.59,0,0,0,3.76-7.72v-2.21A32.11,32.11,0,0,0,188.53,166.92Z"/><path class="cls-3" d="M188.82,120.61c11.88,0,20.47,3.15,25.91,8.59,5.73,5.73,8.31,14.18,8.31,24.48v34.93a10.45,10.45,0,0,1-10.6,10.45c-6.3,0-10.45-4.43-10.45-9v-.15c-5.3,5.87-12.6,9.74-23.19,9.74h0c-14.46,0-26.34-8.31-26.34-23.48v-.29c0-16.75,12.74-24.48,30.92-24.48a54.59,54.59,0,0,1,18.76,3.15v-1.29c0-9-5.59-14-16.47-14a49.84,49.84,0,0,0-15,2.15,9.2,9.2,0,0,1-3.15.57,8.86,8.86,0,0,1-9-8.87,9,9,0,0,1,5.87-8.45c6.87-2.58,14.32-4,24.48-4m-3.44,64c10.17,0,17-5.59,17-13.46v-3.87a33.87,33.87,0,0,0-13.89-2.86c-9.3,0-15,3.72-15,10.59v.29c0,5.87,4.87,9.31,11.88,9.31m3.44-69c-10.16,0-18.26,1.34-26.24,4.33a14.09,14.09,0,0,0-9.11,13.13,14,14,0,0,0,18.7,13.06,45.22,45.22,0,0,1,13.5-1.91c3.86,0,7.78.5,9.89,3.33a61.17,61.17,0,0,0-12.18-1.16c-22.49,0-35.92,11-35.92,29.48v.29c0,16.77,12.88,28.48,31.34,28.48,8.19,0,15.29-2.12,21.2-6.3a16,16,0,0,0,12.44,5.72A15.35,15.35,0,0,0,228,188.61V153.68c0-12.11-3.29-21.53-9.77-28-6.67-6.67-16.58-10.06-29.45-10.06Zm-3.44,64c-2.07,0-6.88-.42-6.88-4.31V175a4.13,4.13,0,0,1,1.87-3.75c1.71-1.19,4.61-1.84,8.16-1.84a30.23,30.23,0,0,1,8.89,1.3v.43a7.08,7.08,0,0,1-2.82,5.77,14.9,14.9,0,0,1-9.22,2.69Z"/></svg>