<svg id="Layer_1" data-name="Layer 1" xmlns="http://www.w3.org/2000/svg" viewBox="0 0 302 302"><defs><style>.cls-1{fill:#074752;}.cls-2{fill:#fff;}.cls-3{fill:#fbb03b;}.cls-4{fill:#155763;}.cls-5{fill:#5abfb6;}.cls-6{fill:#ed4848;}</style></defs><title>Artboard 21</title><circle class="cls-1" cx="151" cy="151" r="151"/><path class="cls-2" d="M223.36,87.31h-5.44V75.18a31.37,31.37,0,0,0-31.33-31.32H120.81A31.37,31.37,0,0,0,89.48,75.18V87.31h-5a31.37,31.37,0,0,0-31.33,31.33v50.53A31.37,31.37,0,0,0,84.52,200.5h4.92v39.72a15.68,15.68,0,0,0,15.64,15.64h97.15a15.68,15.68,0,0,0,15.64-15.64V200.5h5.49a31.37,31.37,0,0,0,31.33-31.33V118.64A31.37,31.37,0,0,0,223.36,87.31Z"/><path class="cls-3" d="M114.6,205.48h77.64a6.1,6.1,0,1,0,0-12.19H114.6a6.1,6.1,0,1,0,0,12.19Z"/><path class="cls-4" d="M225.17,109.5H212.8a6.1,6.1,0,1,0,0,12.19h12.37a6.1,6.1,0,1,0,0-12.19Z"/><path class="cls-5" d="M209.69,168.89h-114c-2.12,0-1.39,29.85-3.44,29.55a43.82,43.82,0,0,1-37.56-43.37V133.71A43.82,43.82,0,0,1,98.51,89.89H209.87a43.82,43.82,0,0,1,43.82,43.82v21.36a43.82,43.82,0,0,1-32,42.21C217.91,198.33,213.78,168.89,209.69,168.89Z"/><path class="cls-4" d="M225.31,85.56h-5.6V73.09a32.25,32.25,0,0,0-32.21-32.2H119.88a32.24,32.24,0,0,0-32.2,32.2V85.56h-5.1a32.25,32.25,0,0,0-32.21,32.2v52a32.25,32.25,0,0,0,32.21,32.2h5v40.84a16.12,16.12,0,0,0,16.08,16.08h99.87a16.12,16.12,0,0,0,16.08-16.08V201.91h5.65a32.24,32.24,0,0,0,32.2-32.2V117.76A32.24,32.24,0,0,0,225.31,85.56ZM99.83,73.09a20.05,20.05,0,0,1,20-20h67.57a20.05,20.05,0,0,1,20,20V85.56H99.83ZM207.47,242.84a3.92,3.92,0,0,1-3.89,3.88H103.71a3.91,3.91,0,0,1-3.88-3.88V175.49H207.47Zm37.85-73.09a20.05,20.05,0,0,1-20,20h-5.6V175.49h8a6.1,6.1,0,0,0,0-12.2H78.69a6.1,6.1,0,1,0,0,12.2h9v14.27h-5.1a20,20,0,0,1-20-20V117.81a20,20,0,0,1,20-20H225.31a20.05,20.05,0,0,1,20,20Z"/><path class="cls-3" d="M192.74,218.22H115.05a6.1,6.1,0,1,0,0,12.19H192.7a6.1,6.1,0,0,0,0-12.19Z"/><path class="cls-6" d="M225.17,109.5H212.8a6.1,6.1,0,1,0,0,12.19h12.37a6.1,6.1,0,1,0,0-12.19Z"/></svg>