<svg id="Layer_1" data-name="Layer 1" xmlns="http://www.w3.org/2000/svg" viewBox="0 0 302 302"><defs><style>.cls-1{fill:#074752;}.cls-2{fill:#5abfb6;}.cls-3{fill:#155763;}.cls-4{fill:#fff;}.cls-5{fill:#fff587;}.cls-6{fill:#fdbf00;}.cls-7{fill:#ff9100;}.cls-8{fill:#fbb03b;}.cls-9{fill:#ed4848;}</style></defs><title>Artboard 23</title><circle class="cls-1" cx="151" cy="151" r="151"/><rect class="cls-2" x="76.15" y="77.23" width="171.85" height="170.77"/><path class="cls-3" d="M245.5,79.73V245.5H78.65V79.73H245.5m5-5H73.65V250.5H250.5V74.73Z"/><rect class="cls-4" x="54" y="54" width="171.85" height="170.77"/><path class="cls-3" d="M223.35,56.5V222.27H56.5V56.5H223.35m5-5H51.5V227.27H228.35V51.5Z"/><path class="cls-2" d="M78.65,79.19H201.2v99.32H78.65Z"/><path class="cls-1" d="M139.92,79.19H201.2v99.32H139.92Z"/><path class="cls-5" d="M139.92,109.22a5.54,5.54,0,1,0-5.53-5.53A5.59,5.59,0,0,0,139.92,109.22Z"/><path class="cls-6" d="M139.92,98.15v11.07a5.54,5.54,0,1,0,0-11.07Z"/><path class="cls-7" d="M135.7,147.78v30.73h65.5V157.06l-35.07-38.92Z"/><path class="cls-8" d="M78.65,133.69v44.82h79.74l-51.08-69.17Z"/><path class="cls-9" d="M201.2,157.06l-35.07-38.92-26.21,25.52v34.85H201.2Z"/><path class="cls-7" d="M139.92,153.51v25h18.47Z"/></svg>