<?xml version="1.0" encoding="utf-8"?>
<!-- Generator: Adobe Illustrator 23.0.1, SVG Export Plug-In . SVG Version: 6.00 Build 0)  -->
<svg version="1.1" id="Capa_1" xmlns="http://www.w3.org/2000/svg" xmlns:xlink="http://www.w3.org/1999/xlink" x="0px" y="0px"
	 viewBox="0 0 1052.1 863.6" style="enable-background:new 0 0 1052.1 863.6;" xml:space="preserve">
<style type="text/css">
	.st0{fill:none;stroke:#004552;stroke-width:5;stroke-linecap:round;stroke-linejoin:round;}
	.st1{fill:#FF4645;}
	.st2{fill:#211915;}
	.st3{fill:#00BDB5;}
	.st4{fill:#FFFFFF;}
	.st5{fill:#004552;}
	.st6{fill:#FBFBFB;}
</style>
<title>Mesa de trabajo 1 copy 5</title>
<g id="SEO">
	<polyline class="st0" points="2.5,752.2 72,752.2 72,510 125.2,510 125.2,766.7 139.5,766.7 139.5,652.6 237,652.6 237,752.2 
		322.4,752.2 322.4,577 387,577 387,735.5 408,735.5 408,462.1 457.5,462.1 457.5,691.1 501.9,691.1 501.9,547.7 574.6,547.7 
		574.6,686.9 618,686.9 618,481.8 670.6,481.8 670.6,669.4 700.4,669.4 700.4,581.5 762,581.5 762,691.1 797.6,691.1 797.6,539.4 
		843.9,539.4 843.9,735.5 864,735.5 864,448.2 934.9,448.2 934.9,751.8 1049.6,751.8 	"/>
	<rect x="83.3" y="525.2" class="st1" width="11.4" height="11.4"/>
	<rect x="105.7" y="578.3" class="st1" width="11.4" height="11.4"/>
	<rect x="105.7" y="596.7" class="st1" width="11.4" height="11.4"/>
	<rect x="83.3" y="631.8" class="st1" width="11.4" height="11.4"/>
	<rect x="213.9" y="741.5" class="st1" width="11.4" height="11.4"/>
	<rect x="149.2" y="665.2" class="st1" width="11.4" height="11.4"/>
	<rect x="367.1" y="585" class="st1" width="11.4" height="11.4"/>
	<rect x="418.6" y="471.8" class="st1" width="11.4" height="11.4"/>
	<rect x="418.6" y="490.4" class="st1" width="11.4" height="11.4"/>
	<rect x="436.2" y="516" class="st1" width="11.4" height="11.4"/>
	<rect x="510" y="560.1" class="st1" width="11.4" height="11.4"/>
	<rect x="523.7" y="578.3" class="st1" width="11.4" height="11.4"/>
	<rect x="627.5" y="492.2" class="st1" width="11.4" height="11.4"/>
	<rect x="650.3" y="510.3" class="st1" width="11.4" height="11.4"/>
	<rect x="650.3" y="530.9" class="st1" width="11.4" height="11.4"/>
	<rect x="627.5" y="565.8" class="st1" width="11.4" height="11.4"/>
	<rect x="710.7" y="591" class="st1" width="11.4" height="11.4"/>
	<rect x="737.9" y="608.1" class="st1" width="11.4" height="11.4"/>
	<rect x="806.1" y="548.4" class="st1" width="11.4" height="11.4"/>
	<rect x="823.1" y="578.3" class="st1" width="11.4" height="11.4"/>
	<rect x="871.9" y="474.8" class="st1" width="11.4" height="11.4"/>
	<rect x="914.1" y="501.7" class="st1" width="11.4" height="11.4"/>
	<rect x="871.9" y="619.5" class="st1" width="11.4" height="11.4"/>
	<rect x="890.8" y="530.9" class="st1" width="11.4" height="11.4"/>
	<rect x="890.8" y="548.4" class="st1" width="11.4" height="11.4"/>
	<rect x="890.8" y="639.2" class="st1" width="11.4" height="11.4"/>
	<rect x="914.1" y="583.4" class="st1" width="11.4" height="11.4"/>
	<rect x="823.1" y="596.7" class="st1" width="11.4" height="11.4"/>
	<rect x="806.1" y="631.8" class="st1" width="11.4" height="11.4"/>
	<rect x="710.7" y="639.2" class="st1" width="11.4" height="11.4"/>
	<rect x="523.7" y="659.5" class="st1" width="11.4" height="11.4"/>
	<rect x="538.6" y="560.1" class="st1" width="11.4" height="11.4"/>
	<rect x="559.1" y="637.5" class="st1" width="11.4" height="11.4"/>
	<rect x="329" y="690.2" class="st1" width="11.4" height="11.4"/>
	<path class="st2" d="M376.2,435.9c0.9,0,1.8-0.2,2.7-0.4c4.7,4.6,14.5,13,22.9,13c1.5,0,2.9-0.3,4.3-0.8c6.1-2.4,8.9-9.5,8.8-21.7
		c-0.2-16.3-3-34.1-8.2-52.9c0-0.2-0.1-0.4-0.1-0.5c-4-13.7-8.7-27.2-14.2-40.4c-5.9-14.5-26.7-24.4-35.5-27.5
		c7.9-4.9,18.7-13.5,20.2-22c1.6-8.7,4.6-37.5,5.8-49c3.5,1.2,5.6,2,5.6,2c0.5,0.2,0.9,0.2,1.4,0.3c1.1,0,2.1-0.4,2.9-1.2
		c1-1,1.4-2.4,1.2-3.7l2.5,1.3c0.6,0.3,1.2,0.4,1.9,0.5c2.3,0,4.1-1.8,4.1-4.1c0-0.5-0.1-1-0.2-1.4c-8.1-22.5-28.8-34.3-37.3-38.4
		c-6.6-3.1-15.5-4.9-24.3-4.9s-21.6,1.8-32.4,10.2c-18.9,14.8-15.3,44.5-14.2,54.3c1.7,14.3-2.8,31.2-2.8,31.4
		c-0.5,1.9,0.3,3.8,2,4.7c0.6,0.3,1.3,0.5,1.9,0.5c1.1,0,2.2-0.4,3-1.3l0.3,1.3c0.2,1,0.8,1.9,1.6,2.5c-1.8,7.8-4.5,13-8,15.1
		c-5.3,3.2-11.8,6.4-18.1,9.5c-8.5,4.2-16.6,8.2-21.3,12c-9.6,7.8-18.8,40.5-20.7,58.7c-1.4,13.7-4.3,54.9,0.5,63.6
		c3.2,5.8,10.8,5.8,13.3,5.8c5.1,0,12-1.1,21.4-3.3c1.2,10.2,4.3,36,4.7,48.3c-1.4,3.7-6.6,19-6.6,42c0,24.2,13.4,83,15.3,91.2
		c-1.2,4.4-5.2,21-3,37.1c1,7.4,2.2,13.9,3.3,20.1c2.5,12.3,4.1,24.8,5,37.3c0.8,13.6,0.3,27.3-1.5,40.9c-1,8.3-1.5,12.8-1.2,15.8
		c0.2,2.6,1.1,6.2,5.7,7.5c1.6,0.4,4.7,0.9,14.6,0.9c7.5,0,16.6-0.3,23.9-0.5h0.2c4.6-0.1,8.5-0.3,10.6-0.3c4.9,0.2,9.1-3.6,9.6-8.5
		c0.1-0.9,0.1-1.7,0-2.6l0.5,0.1c2.1,0.2,6.8,0.3,14.1,0.3c7.5,0,16.4-0.1,23.6-0.2h0.5c4.5-0.1,8.3-0.1,10.4-0.1
		c5.2,0,9.1-3.3,9.8-8.3c0.8-5.7-3.2-12.7-12.2-15.2c-2.9-0.7-5.8-1-8.7-0.9c-6.7,0.1-13.5,0.8-20.1,1.9c0.3-2.1,0.7-4.9,1.2-8.2
		c0,0,0-0.1,0-0.1c0.2-1.1,0.3-2.3,0.5-3.5c0,0,0-0.1,0-0.1c2.9-21,7-55.2,10.3-99c5.1-66.9-7.3-132.9-8.8-140.5
		c0.7-4.4,4.5-29.8,6.6-68.7L376.2,435.9z M349.6,767.5c0.5,0.2,1,0.4,1.5,0.6c0.9,0.3,1.8,0.4,2.8,0.4c3.3,0,6.5-1.3,8.9-3.6
		c3.7-0.7,14.7-2.5,23-2.5c2.2-0.1,4.3,0.1,6.4,0.6c5,1.4,6.5,4.5,6.2,6.2c0,0.4-0.2,1.2-1.6,1.2c-2.2,0-6.2,0-10.9,0.1
		c-7.2,0.1-16.1,0.2-23.6,0.2c-6.5,0-10.7-0.1-12.8-0.3C349.5,769.4,349.5,768.4,349.6,767.5L349.6,767.5z M288.8,631.9
		c0.2-0.7,0.2-1.4,0.1-2.1c-0.2-0.7-15.3-65.3-15.3-90.4c-0.1-11.6,1.4-23.1,4.5-34.2c9,4.7,25.8,6.6,33.6,7.3
		c5.8,0.5,12,0.8,17.9,0.8c9.1,0,21.5-0.6,32-3.3c3,16.3,12.5,75,8,134.6c-3.2,41.4-7,74.3-9.8,95.3h-0.3c-2.6,0-5.2-0.4-7.7-1.2
		c0.1-7.3-0.1-14.8-0.6-22.9c-0.9-13.8-3.3-24.3-5.6-34.5c-1.9-7.7-3.3-15.5-4.2-23.3c-1-10.2-1.1-20.4-0.2-30.6c0-0.4,0-0.8,0-1.2
		c-0.1-0.6-2.7-13.3-5.5-22.2c2-15,3.6-29.7,4.9-43.8c0.2-2.3-1.5-4.3-3.7-4.5h-0.3c-2.1,0-3.9,1.6-4.1,3.8
		c-1.8,20.7-5.5,53.5-12.5,92.2L302,747.7c-1.2,0.2-2.4,0.2-3.6,0.3c-1.4,0-2.8-0.1-4.1-0.4c0.4-7.6,0.3-15.2-0.1-22.8
		c-0.9-12.9-2.6-25.6-5.1-38.3c-1.1-6.2-2.3-12.5-3.3-19.8C283.4,650,288.7,632.1,288.8,631.9z M382.7,224.1l0.4,1
		c-9-3-23.6-7.7-36.9-10.7c-0.3-0.1-0.6-0.1-0.9-0.1c-2.3,0-4.1,1.9-4.1,4.1c0,0.5,0.1,0.9,0.2,1.3l-10.1-2.6
		c-0.3-0.1-0.7-0.1-1-0.1c-2.1,0-3.9,1.6-4.1,3.8c0,0.2-1.2,14.5-3.9,28.9h-0.1c1.5-11.4,0-14.5-0.6-15.6c-1.5-3.2-4.6-5.2-8.1-5.3
		c-0.5,0-1,0-1.4,0.1c-4.1,0.6-8.6,4.2-9.6,10.9c-0.3,1.9-0.4,3.8-0.5,5.6c-1.1-10.1-3-33.7,11.3-44.9c8.9-7,19.8-8.5,27.3-8.5
		s15.3,1.6,20.8,4.2c6,2.8,18.9,10.1,27.5,22.9l-0.3-0.2c-0.6-0.3-1.2-0.4-1.9-0.5c-2.3,0-4.1,1.8-4.1,4.1
		C382.5,223.1,382.6,223.6,382.7,224.1L382.7,224.1z M344.9,301.6c-2.4-0.2-12.6-4.3-21.5-16.7c-1.3-1.9-3.9-2.3-5.8-1
		s-2.3,3.9-1,5.8l0,0c9.9,13.8,21.5,19.5,27.3,20.1c-4.6,2.5-11.7,4-19.4,4c-4.1,0-8.2-0.5-12.2-1.5c-7.5-2-10.2-5.3-11.1-7.1
		c9.1-11.7,9.1-35.1,9-38.4c0.2-5.1,0.1-9.6-0.1-13.6c-0.3-4-0.2-8,0.2-12c0.4-2.7,1.9-3.8,2.7-4h0.2c0.1,0,0.4,0,0.7,0.7
		c1.2,2.4-0.5,14.9-2.7,24.5c-0.5,2,0.6,4,2.5,4.8c0.5,0.2,1,0.3,1.5,0.3c1.5,0,2.8-0.8,3.6-2l2-3.4c0.8,1.1,2,1.7,3.3,1.7
		c0.2,0,0.4,0,0.6,0c1.7-0.3,3-1.5,3.4-3.1c2.5-11.3,4.3-22.7,5.5-34.2l16,4.1c0.3,0.1,0.7,0.1,1,0.1c2.3,0,4.1-1.9,4.1-4.1
		c0-0.5-0.1-0.9-0.2-1.4c4.6,1.3,9.2,2.6,13.4,3.9c-1.2,0.4-2.3,0.9-3.3,1.7c-1.9,1.3-2.3,3.8-1,5.7c0,0,0,0,0,0
		c0.8,1.1,2,1.7,3.4,1.7c0.9,0,1.7-0.3,2.4-0.8c0.4-0.3,0.9-0.6,1.4-0.6h0.3c1.1,0.4,2,1.2,2.7,2.3c-1.4,13.5-3.8,35.1-5,42.2
		C367.5,289.2,348.8,300.7,344.9,301.6L344.9,301.6z M302.2,263.7c0,1.5-0.1,3.1-0.2,4.8c-0.1,0.8-0.1,1.6-0.2,2.4l-0.3-0.1h-0.1
		C301.6,268.6,302,266.2,302.2,263.7L302.2,263.7z M324.8,322.1c10.4,0,23-2.6,29.1-9.6c8.5,2.9,26.3,11.9,30.8,22.8
		c3.3,8,8,19.8,12.3,33.9h-0.9c-6.6-0.1-13.1,1.9-18.5,5.7c-0.3-0.7-0.5-1.5-0.8-2.2c0-6.8-0.1-13.5-0.3-20.4
		c-0.1-2.2-1.8-3.9-3.9-4h-0.3c-2.3,0.1-4.1,1.9-4,4.2c0.2,7.1,0.2,14,0.3,21v0.1c0,6.8,0,13.4-0.2,20.2l-12-1.3c-0.2,0-0.5,0-0.7,0
		c-3.4,0-6.3,2.6-6.7,6l-1.6,14.3c-2.8-0.2-3.8-0.6-4.1-0.8c-0.2-0.1-0.4-0.3-0.6-0.4c0.1-0.9,0.2-1.7,0.5-2.6
		c1-4.1-0.7-6.6-1.7-7.8c-1.2-1.3-2.9-2.1-4.6-2.1c-0.3,0-0.6,0-0.8,0.1c-2.6,0.4-3.5,2.7-4.1,4.6c-1.1,3-2,4.7-2.8,4.9
		c-4.6,1.2-8.7,4.1-10.6,7.5l-49.8,2c0.7-10.6,3.3-38.6,11.4-55.8c1-2.1,0.1-4.5-2-5.5c0,0,0,0,0,0c-0.5-0.3-1.2-0.4-1.8-0.4
		c-1.6,0-3,0.9-3.7,2.3c-3.1,6.8-5.4,14-7,21.3c-4.7-2-9.8-2.9-14.8-2.8c-3.3,0-6.6,0.3-9.8,0.8c3-19.3,11.2-42.9,16.9-47.5
		c4-3.2,11.6-7,19.7-11c6-2.9,12-6,17.4-9.1c2.2,3.3,6.6,7.3,15.3,9.7C315,321.5,319.9,322.1,324.8,322.1L324.8,322.1z M378.7,406.1
		c-0.2-0.1-0.4-0.2-0.6-0.3l0.2-1.4C378.4,404.9,378.5,405.5,378.7,406.1L378.7,406.1z M355.7,413.1l1.3-12.3l13.2,1.5l-0.5,4.7
		c-0.1,0.2-0.2,0.5-0.2,0.7c-0.1,0.5-0.1,1.1,0,1.6l-0.5,4.2c-1.6,0-4.4,0-6.1,2c-0.1-0.1-0.2-0.2-0.3-0.3
		C361.1,413.6,359.1,413.2,355.7,413.1L355.7,413.1z M360.1,430.8c0.5-0.5,1-1,1.4-1.7l0,0c0.3,0.5,0.6,0.9,1,1.3
		c0.1,0.6,0.3,1.1,0.6,1.6l0.3,0.5l-5.1-0.6C358.9,431.7,359.5,431.3,360.1,430.8z M385.1,424.8v-0.2l16.7,1.2h0.3
		c2.3,0,4.1-1.8,4.1-4.1c0-2.2-1.7-4-3.8-4.1l-12.3-0.8c-1.5-5.8-5.3-20.3-9.6-33.6c4.3-3.8,9.9-5.8,15.6-5.8c1.1,0,2.2,0.1,3.3,0.2
		c4.6,17.3,7.1,33.6,7.3,48.5c0.1,7.8-1.2,12.9-3.6,13.9c-0.4,0.2-0.8,0.2-1.3,0.2c-4.7,0-12.4-6.1-17.4-11
		C384.7,427.8,384.9,426.3,385.1,424.8z M260.1,422.3c0,1.2,0.4,2.3,1.2,3.1c0.8,0.8,1.8,1.2,2.9,1.2h0.2l57.1-2.4
		c2.1-0.1,3.7-1.7,3.9-3.7c0.2-0.8,2.2-3.1,5.6-3.9c1.5-0.4,2.8-1.1,4-2.1c0.8,1.9,2.1,3.4,3.9,4.4c0.7,0.5,1.5,0.8,2.4,1.1
		c-0.3,1-0.2,2,0.2,2.9c-0.5,0.6-0.9,1.4-1,2.2c-0.1,0.5,0,0.9,0.1,1.4c-0.8,0.7-1.3,1.6-1.4,2.7c0,0.1,0,0.2,0,0.3
		c-9.8-0.6-14.9-3.2-14.9-3.2c-0.6-0.3-1.2-0.5-1.9-0.5c-0.3,0-0.6,0-0.9,0.1c-0.8,0.2-9.8,2.2-38.2,10.4c-13.7,3.9-28.8,8-37.5,8
		c-3.2,0-5.5-0.6-6-1.5c-2.3-4.2-2.2-30.9,0.2-55.9c3.6-0.7,7.2-1,10.9-1.1c5.5,0,10,1,13.1,2.9C261.9,399.7,260.6,411,260.1,422.3
		L260.1,422.3z M285.5,444.1c22.9-6.6,33-9.1,36.3-9.9c3.1,1.3,10.2,3.6,21.7,3.6c1.4,0,2.7,0,3.8-0.1c1.1,1,2.4,1.6,3.8,1.8
		l15.6,1.7c-1.9,31.8-4.9,53.4-5.9,60.3c-7.6,2.2-18.6,3.3-31.1,3.3c-11.2,0-22.5-0.9-33.6-2.8c-10.8-2-15.1-4.2-16.2-5.2
		c-0.5-13.2-3.7-40.3-4.9-49.8C278.3,446.2,281.7,445.2,285.5,444.1L285.5,444.1z M298.1,768.7c-0.8,0.4-1.7,0.7-2.6,0.7h-0.2
		c-0.4-1.5-1.3-2.9-2.6-3.8l0,0c0.2-1.8,0.4-3.6,0.6-5.4c1.5,0.3,3.1,0.4,4.7,0.4c0.5,0,1.1,0,1.6-0.1L298.1,768.7z M291.5,776.9
		c1.3,0.6,2.6,0.9,4,0.8c2.8-0.1,5.5-1,7.8-2.4c7.3-1.3,14.7-2,22.2-2.2c2.3,0,4.7,0.1,7,0.6c5,1,7.3,4.1,7.1,6.5
		c-0.1,0.7-0.3,1.1-1.4,1.1c-2.2,0-6.3,0.1-11,0.3h-0.2c-7.2,0.2-16.1,0.5-23.6,0.5c-7.8,0-10.9-0.3-12.1-0.5
		C291.3,779.9,291.3,778.4,291.5,776.9L291.5,776.9z M356.8,759.1c-0.8,0.6-1.7,1-2.7,1.1c-0.3-2-1.5-3.8-3.2-5
		c0.1-1.5,0.2-2.9,0.3-4.4c2.2,0.5,4.5,0.8,6.8,0.8C357.4,755.2,357.1,757.8,356.8,759.1L356.8,759.1z M341.8,762.1
		c-0.3,2.5-0.5,4.6-0.5,6.3c-2.2-1.4-4.6-2.4-7.2-3c-2.9-0.5-5.8-0.8-8.8-0.7c-6.2,0.1-12.4,0.6-18.5,1.5l2.6-14.4l18.2-99
		c1.6-9.1,3.2-18.4,4.6-27.7c0.2,0.7,0.3,1.3,0.3,1.6c-0.8,10.5-0.8,21.1,0.3,31.6c0.9,8.2,2.4,16.4,4.4,24.4
		c2.2,9.9,4.5,20.1,5.4,33.2C343.7,731.4,343.5,746.9,341.8,762.1L341.8,762.1z"/>
	<path class="st3" d="M363.3,424.2c-0.2,0.3-0.5,0.5-0.8,0.7c-1.1,0.6-2.2,1.1-3.5,1.3c-0.1,0.8-0.5,1.5-1.1,2
		c-0.9,0.7-1.9,1.2-3,1.5c0.3,0.6,0.3,1.2,0,1.8c-0.5,1.1-2,1.9-4.5,2.4c0.3,0.6,0.9,0.9,1.5,1l16.2,1.8c1.1,0.1,2.1-0.7,2.2-1.8
		c0,0,0,0,0,0l0.3-2.7c-2.3-0.3-3.7-1-4.3-1.9c-0.3-0.5-0.3-1.1-0.1-1.7c-0.7-0.3-1.3-0.7-1.7-1.4c-0.3-0.7-0.4-1.5-0.1-2.2
		C364.1,424.8,363.7,424.6,363.3,424.2z"/>
	<path class="st3" d="M372.3,398.9l-16.2-1.8c-1.1-0.1-2.1,0.7-2.2,1.8c0,0,0,0,0,0l-1.9,17.6h1.1c4.2,0.1,6.4,0.2,7.1,1
		s1.2,1.9,0.8,2.7c-0.1,0.1-0.1,0.3-0.3,0.4c0.8,0,1.6,0.3,2.3,0.8c0-0.1,0.1-0.1,0.1-0.2c0.7-0.6,1.7-0.9,2.6-0.8v-0.1
		c-0.4-0.5-0.5-1.2-0.3-1.8c0.4-1.5,1.8-1.6,5.4-1.5h1.5l0.9-8.2c-0.2-0.2-0.2-0.6,0.1-0.8c0,0,0,0,0,0l0.8-7
		C374.2,400,373.4,399,372.3,398.9z"/>
	<path class="st4" d="M290.4,755.7c-0.3,4.1-0.8,7.8-1.1,10.9c-0.1,0.5-0.1,1-0.2,1.5c0.6-0.2,1.3,0,1.8,0.4
		c0.7,0.5,1.2,1.3,1.3,2.2c0.1,0.7,0.4,1.2,1,1.6c3,1.9,7.3-0.7,8.3-1.3l2.7-14.6c-2,0.5-4,0.8-6,0.8
		C295.6,757.2,292.9,756.7,290.4,755.7z M294.8,760.7c-0.4,1-1.3,3.8-0.8,5.3c0.1,0.3,0,0.6-0.3,0.8c0,0,0,0,0,0c-0.1,0-0.1,0-0.2,0
		c-0.2,0-0.5-0.1-0.5-0.4c-0.8-2.1,0.6-5.7,0.8-6.1c0.1-0.3,0.5-0.4,0.8-0.3C294.8,760,295,760.3,294.8,760.7
		C294.9,760.6,294.9,760.6,294.8,760.7L294.8,760.7z"/>
	<path class="st1" d="M295.7,774.2c-1.1,0-2.2-0.3-3.1-0.8c-0.8-0.5-1.3-1.3-1.5-2.3c-0.1-0.6-0.4-1.2-0.9-1.6
		c-0.2-0.2-0.5-0.3-0.8-0.3s-0.5,0.5-0.5,0.6c0,0,0,0.1-0.1,0.1c-1.4,12.2-1.1,14.2,1.5,14.9c4.7,1.2,24.2,0.6,37.2,0.3
		c4.7-0.2,8.7-0.3,10.9-0.3c2.5,0.2,4.7-1.7,4.9-4.3c0,0,0,0,0,0c0.4-4-2.8-8.9-9.9-10.4c-9.7-2-29.5,1.5-31.2,1.8
		C300.3,773.2,298.1,774,295.7,774.2z"/>
	<path class="st4" d="M322.5,429.3c0.1,0,0.3,0,0.4,0.1c0.1,0,7.2,3.8,21,3.8c8.2,0,9.8-1.5,10.1-2.2c0.1-0.3,0.1-0.7-0.1-1
		c-1.9,0.3-3.8,0.5-5.7,0.5c-2.5,0-4.4-0.2-4.6-0.2c-0.3-0.1-0.5-0.4-0.5-0.7c0.1-0.3,0.3-0.5,0.6-0.5c3.4,0.4,6.9,0.3,10.3-0.3l0,0
		c1.2-0.2,2.3-0.7,3.3-1.4c0.3-0.3,0.5-0.6,0.6-0.9c-1.7,0.2-3.3,0.3-5,0.3c-2.7,0-5.3-0.2-8-0.5c-0.3,0-0.5-0.3-0.5-0.6
		c0,0,0,0,0,0c0-0.3,0.3-0.5,0.6-0.5c0,0,0,0,0,0c0.1,0,7.9,1,13.3,0.1c0.1-0.1,0.2-0.1,0.3-0.1c0.1,0,0.1,0,0.2,0
		c1.1-0.2,2.2-0.5,3.2-1.1c0.3-0.2,0.8-0.6,0.8-0.9c0-0.1,0-0.1,0-0.2c0,0,0,0,0-0.1c-0.3-0.6-1.7-1.2-3.1-0.9
		c-0.7,0.1-1.3,0.1-2,0.2h-0.2c-3.8,0.1-10.9,0.1-12.1-0.3c-0.3-0.1-0.5-0.4-0.4-0.7c0.1-0.3,0.4-0.5,0.7-0.4c0,0,0.1,0,0.1,0
		c0.9,0.3,8,0.4,11.7,0.2l0,0c0.7-0.1,2.3-0.4,2.6-1.1c0.2-0.4-0.2-1-0.6-1.5s-3.8-0.5-6.2-0.6c-4.5-0.1-9.5-0.2-12-1.8
		c-3.4-2.1-3-4.3-2.2-8.1c0.4-1.9-0.1-2.9-0.6-3.5c-0.3-0.3-0.7-0.5-1.1-0.6c-0.2,0.5-0.4,1-0.6,1.5c-0.9,2.6-2.5,7-6.1,7.9
		c-4.6,1.2-8,4.6-8.2,7c0,0.3-0.3,0.5-0.6,0.5l-57.1,2.4l0,0c-0.2,0-0.3-0.1-0.4-0.2c-0.1-0.1-0.2-0.3-0.2-0.4
		c0.6-11.9,1.9-23.7,4.1-35.5c-9.3-8.1-28.2-3.9-31.1-3.2c-2.2,21.6-3.4,54.4,0,60.5c3.5,6.5,20.8,3,47.6-4.7
		C313.9,431.2,322.4,429.3,322.5,429.3z"/>
	<path class="st3" d="M305.8,253.4c-0.3-4.3-0.2-8.6,0.3-12.9c0.8-4.9,3.9-7.5,6.7-7.9c2.5-0.4,4.9,0.9,5.8,3.2
		c2.1,4.3-0.2,17.6-1.6,24.1l3.8-6.4c0.1-0.2,0.3-0.3,0.5-0.3c0.2,0,0.4,0.1,0.5,0.3l2.5,4.5c3.8-16.7,5.5-36.6,5.5-36.9
		c0-0.2,0.1-0.3,0.3-0.4c0.1-0.1,0.3-0.1,0.5-0.1l19.1,4.9l-4.7-6.7c-0.2-0.3-0.1-0.6,0.2-0.8c0.1-0.1,0.3-0.1,0.5-0.1
		c17.9,4,38.4,11.2,43.5,13l-2.8-8c-0.1-0.3,0-0.6,0.3-0.8c0.2-0.1,0.3-0.1,0.5,0l10.3,5.3c-7.9-20-26.5-30.6-34.3-34.3
		c-11.8-5.6-35.7-7.9-51.8,4.7c-16.8,13.2-13.5,40.9-12.4,50c1.4,12-1.2,25.5-2.4,30.8l3.7-4.3c0.1-0.1,0.3-0.2,0.5-0.2h0.2
		c0.2,0.1,0.4,0.2,0.4,0.5l1.6,7.9c0.9-2,2.4-6.3,2.9-13.8C306.1,263.6,306.1,258.5,305.8,253.4z"/>
	<path class="st1" d="M349.7,275.8c-1.5-1.6-2.8-3-4.9-3h-0.2c-1.5,0.1-2.9,1-3.5,2.3c-1.2,2.4-1.1,5.2,0.3,7.5
		c1.4,2.4,4.6,4.3,8.4,5c4.1,0.7,7.9-0.1,10.5-2.2c1.3-0.9,2.1-2.5,1.9-4.1c-0.1-1-0.7-1.9-1.5-2.5c-0.8-0.2-1.5-0.2-2.3,0
		c-1.5,0.3-3.1,0.3-4.6,0l0,0C352.1,278.4,350.8,277.1,349.7,275.8z"/>
	<path class="st1" d="M268.3,385.7c1.8-8.9,4.3-18,7.8-25.4c0.1-0.3,0.5-0.4,0.8-0.3c0.3,0.1,0.4,0.5,0.3,0.8c0,0,0,0,0,0
		c-9.8,20.8-11.8,55.9-12,61l56-2.3c0.6-3.1,4.5-6.4,9-7.5c3-0.7,4.4-4.7,5.3-7.1c0.5-1.5,0.8-2.2,1.4-2.3c0.9,0,1.7,0.3,2.3,1
		c0.7,0.7,1.4,2.1,0.9,4.5c-0.9,3.8-0.9,5.1,1.7,6.8c1.8,1.2,5.6,1.4,9.2,1.5l2-17.7c0.2-1.7,1.8-3,3.5-2.8l15.9,1.7
		c0.2-8.1,0.2-16.1,0.2-24.2v0c0-6.9-0.1-13.8-0.3-21c0-0.3,0.3-0.6,0.6-0.6c0,0,0,0,0,0c0.3,0,0.6,0.3,0.6,0.6c0,0,0,0,0,0
		c0.2,7.2,0.2,14.1,0.3,21c0.9,2.4,1.8,4.9,2.7,7.5c2.4-2.6,11.1-10.2,25.8-7.7c-3.9-13.3-8.5-26.4-13.8-39.3
		c-5.4-13.4-26.6-22.8-33.6-25.1c-0.6-0.2-1.2-0.4-1.7-0.7c-4,6.9-16,10.4-27.9,10.4c-4.6,0-9.2-0.6-13.6-1.8
		c-11.4-3.1-14.2-9-14.8-11.5c-0.6,0.5-1.2,1-1.9,1.4c-5.5,3.3-12.1,6.6-18.4,9.7c-8.3,4.1-16.1,8-20.4,11.4
		c-7.6,6.1-16.7,35.3-18.8,54.6C241.1,381.6,258.7,378,268.3,385.7z"/>
	<path class="st4" d="M311.8,315.7c14.1,3.8,35.2,0.8,40.3-8.2c-0.9-0.8-1.5-1.8-1.6-3c-1.5,0.9-3.2,1.5-5,1.8l0,0
		c-3.8,0-15.5-4.7-25.5-18.7c-0.2-0.3-0.1-0.6,0.1-0.8c0.3-0.2,0.6-0.1,0.8,0.1c9.9,13.9,21.4,18.2,24.5,18.2l0,0
		c3.3,0,25.4-12.7,27.3-23.3c1.4-7.5,3.9-31.2,5.3-44.2c0,0-0.1,0-0.1,0c-0.2,0-0.4-0.1-0.5-0.3c0,0-2-3.4-5-4
		c-1.6-0.3-3.2,0.1-4.4,1.1c-0.3,0.2-0.6,0.1-0.8-0.1c0,0,0,0,0,0c-0.2-0.3-0.1-0.6,0.1-0.8c1.5-1.2,3.5-1.7,5.4-1.3
		c2.8,0.6,4.8,3.1,5.5,4.1c0.5-4.5,0.8-7.5,0.8-7.6c0-0.1,0-0.1,0-0.1c-8.5-2.8-20.7-6.6-32-9.2l4.8,6.8c0.2,0.3,0.1,0.6-0.1,0.8
		c-0.1,0.1-0.3,0.1-0.5,0.1l-20-5.1c-0.3,3.8-2.2,22.5-5.8,37.8c-0.1,0.2-0.3,0.4-0.5,0.5c-0.2,0-0.5-0.1-0.6-0.3l-2.8-5l-5.1,8.7
		c-0.2,0.2-0.5,0.4-0.7,0.3c-0.3-0.1-0.4-0.4-0.3-0.7c0-0.2,5-21.7,2.4-26.9c-0.8-1.8-2.7-2.9-4.6-2.6c-2.4,0.4-5,2.7-5.7,6.9
		c-0.5,4.2-0.6,8.5-0.3,12.7c0.1,3.9,0.3,8.4,0,13.4c0,1.4,0.3,27.4-9.5,37.7C297.8,305.7,299.5,312.4,311.8,315.7z M368.8,243.4
		c1.7-0.1,3.3-0.7,4.7-1.8c0.5-0.4,1.2-0.4,1.7,0.1c0,0,0,0,0,0c0.4,0.5,0.4,1.2-0.1,1.7c0,0,0,0,0,0c-1.7,1.4-3.9,2.2-6.1,2.4h-0.1
		c-0.7,0-1.1-0.6-1.1-1.3C367.7,243.9,368.2,243.5,368.8,243.4L368.8,243.4z M356.4,266.2c0.1-0.3,0.4-0.5,0.7-0.5c0,0,0,0,0,0
		c4.7,0.9,7.5,0,8.3-0.4c0.8-9.9-1.8-21.5-1.8-21.6c-0.1-0.3,0.2-0.6,0.5-0.7c0.3-0.1,0.6,0.1,0.7,0.4c0,0.1,2.7,12.2,1.8,22.3
		c0,0.2-0.1,0.4-0.3,0.5c-1.7,0.8-3.5,1.1-5.3,1.1c-1.4,0-2.7-0.1-4.1-0.4C356.5,266.8,356.3,266.5,356.4,266.2
		C356.3,266.2,356.3,266.2,356.4,266.2L356.4,266.2z M354,277.6L354,277.6c1.4,0.3,2.8,0.3,4.2,0c1-0.3,2-0.2,3,0.1
		c1.2,0.7,2.1,1.9,2.2,3.4c0.2,2-0.7,4-2.3,5.2c-2.4,1.8-5.3,2.8-8.3,2.7c-1.1,0-2.1-0.1-3.1-0.3c-4.1-0.7-7.7-2.9-9.2-5.5
		c-1.6-2.6-1.7-5.9-0.3-8.7c0.9-1.7,2.6-2.9,4.6-3c2.7-0.1,4.4,1.8,6,3.4C351.6,276.2,352.7,277.3,354,277.6L354,277.6z
		 M341.5,242.1c0-0.6,0.5-1.2,1.1-1.2c0,0,0,0,0,0c1.7-0.1,3.3-0.7,4.7-1.8c0.5-0.5,1.2-0.5,1.7,0c0.5,0.5,0.5,1.2,0,1.7
		c0,0-0.1,0-0.1,0.1c-1.7,1.4-3.9,2.2-6.1,2.4h-0.1C342.1,243.3,341.5,242.8,341.5,242.1L341.5,242.1z M337,234.5
		c0-0.1,6-7.7,14.1-3.3c0.3,0.1,0.5,0.4,0.4,0.7c-0.1,0.3-0.4,0.5-0.7,0.4c-0.1,0-0.2-0.1-0.2-0.1c-7.3-4-12.4,2.6-12.7,2.9
		c-0.1,0.1-0.3,0.2-0.5,0.2c-0.1,0-0.2,0-0.3-0.1C336.9,235.1,336.8,234.8,337,234.5L337,234.5z"/>
	<path class="st4" d="M348.1,746.1c-0.2,4.8-0.5,8.8-0.8,12.1c0.6-0.3,1.2-0.3,1.8,0c1.1,0.5,1.8,1.8,1.9,3.5
		c0.1,0.9,0.8,1.7,1.8,1.8c2.9,0.6,5.8-0.5,7.7-2.8c0.1-0.9,0.8-5.3,1.9-12.9c-1.3,0.2-2.7,0.3-4,0.3
		C354.8,748.2,351.3,747.5,348.1,746.1z M353.3,752.1c-0.4,1-1.3,3.8-0.8,5.3c0.1,0.3-0.1,0.7-0.4,0.8c-0.1,0-0.1,0-0.2,0
		c-0.2,0-0.5-0.1-0.5-0.4c-0.8-2.1,0.6-5.7,0.8-6.2c0.1-0.3,0.5-0.4,0.8-0.3C353.3,751.5,353.4,751.8,353.3,752.1L353.3,752.1z"/>
	<path class="st1" d="M368.4,437.8h-0.3l-16.2-1.8c-1.2-0.1-2.2-0.9-2.6-2c-1.8,0.2-3.6,0.3-5.5,0.3c-13,0-20.1-3.2-21.3-3.8
		c-1.4,0.3-10.8,2.5-37.7,10.3c-4.7,1.3-9.1,2.5-13.2,3.6c0.6,4.6,4.8,39.2,5.3,53.6c3.7,9,62,14.8,87.5,6.3
		c0.5-3.2,4.4-28.1,6.6-67.7C370.3,437.3,369.4,437.8,368.4,437.8z"/>
	<path class="st4" d="M381.4,420.1c1.1-3.1,0.2-6.5-2.3-8.6c-1.4-1-3-1.7-4.7-2.2l-0.3,3.2c2.3,0.3,2.4,1.7,2.5,2.9v0.5
		c0,0.5-0.1,0.9-0.4,1.3c1.1,0,2.2-0.1,3.2-0.2c0.3-0.1,0.6,0.2,0.7,0.5c0,0,0,0,0,0c0,0.3-0.2,0.6-0.5,0.7
		c-2.2,0.2-4.4,0.3-6.6,0.2h-0.1h-2c-3.7-0.1-4.1,0.1-4.3,0.6c-0.1,0.3,0,0.6,0.2,0.8c0.2,0.3,0.8,0.8,2.2,0.9l0,0
		c3.5,0.3,7,0.3,10.5,0c0.3,0,0.6,0.2,0.6,0.5c0,0,0,0,0,0c0,0.3-0.2,0.6-0.5,0.7c0,0,0,0,0,0c-3.6,0.4-7.1,0.4-10.7,0l0,0
		c-2.3-0.2-4.3-0.3-4.8,0.2c0,0-0.2,0.2-0.2,0.6c0,0.1,0,0.3,0,0.4c0.3,1.8,8.2,2,15.2,1.2c0.3,0,0.6,0.2,0.6,0.5c0,0,0,0,0,0
		c0,0.3-0.2,0.6-0.5,0.6c0,0,0,0,0,0c-2.6,0.3-5.2,0.5-7.9,0.5c-1.9,0-3.8-0.1-5.7-0.5c-0.2,0.4-0.2,0.9,0,1.3
		c0.3,0.5,1.1,1.2,3.5,1.3c3.1,0.2,6.2,0.1,9.3-0.2c0.3,0,0.6,0.3,0.6,0.6c0,0.3-0.2,0.5-0.5,0.6c-0.2,0-3.2,0.3-6.5,0.3
		c-1,0-2.1,0-3.1-0.1c-0.6,0-1.1-0.1-1.7-0.2c-0.1,0.2-0.1,0.5,0,0.7c0.3,0.6,1.7,1.2,4.3,1.4l0,0c1.5,0.1,3,0.2,4.5,0.1
		c3.3-0.1,3.8-2.7,4.3-6.9C380.7,422.9,381,421.5,381.4,420.1z"/>
	<path class="st5" d="M329.8,509.6c-6.2,0-12.2-0.3-17.6-0.7c-14.4-1.2-31.8-4.4-35.8-9.5c-1.5,4-6.1,18.4-6.1,40
		c0,25.5,15.2,90.5,15.4,91.2c0,0.1,0,0.2,0,0.3c-0.1,0.2-5.6,18.7-3.1,36.2c1,7.3,2.2,13.7,3.3,19.9c2.1,11.5,4,22.3,5,37.9
		c0.5,8.4,0.5,16.8,0,25.2c0.9,0.4,5.9,2.4,14.4,0.7l18.1-98.5c7-38.9,10.7-71.8,12.5-92.5c0-0.3,0.3-0.6,0.6-0.5
		c0.3,0,0.6,0.3,0.5,0.6c-1,11.5-2.6,26.6-5,44.4c2.9,8.7,5.6,22.3,5.6,22.5c0,0.1,0,0.1,0,0.2c-0.9,10.4-0.8,20.9,0.2,31.3
		c0.8,8.3,2.5,15.8,4.3,23.8c2.3,10.1,4.6,20.5,5.5,34c0.6,9.9,0.7,18.2,0.6,25.2c4.7,1.9,9.7,2.6,14.7,2c2.7-19.5,6.8-54,10.3-98.3
		c5.1-66.6-7.3-132.2-8.8-139.3C355.1,508.5,342.1,509.6,329.8,509.6z"/>
	<path class="st4" d="M376.7,382.2c5.7,16.9,10.6,37,10.8,37.9l14.9,1.1c0.3,0,0.6,0.3,0.6,0.6c0,0.3-0.3,0.6-0.6,0.6l0,0l-19.9-1.5
		c-0.3,1.2-0.4,2.3-0.6,3.5c-0.1,1.9-0.6,3.9-1.4,5.6c1.3,1.4,15.9,16.5,24.1,13.2c4-1.6,6-7.4,5.8-17.2c-0.2-18.3-3.7-36.1-8-51.6
		C386.8,371.6,378.1,380.6,376.7,382.2z"/>
	<path class="st1" d="M354.1,764.9c-0.6,0-1.2-0.1-1.8-0.2c-1.4-0.3-2.5-1.5-2.6-2.9c-0.1-1.5-0.7-2.3-1.2-2.6
		c-0.4-0.1-0.8-0.1-1.1,0.2c-0.1,0.1-0.2,0.1-0.3,0.1c-0.1,1.1-0.2,2.1-0.3,3.1c-0.9,8.9-1,10.8,2.2,11.1c4.8,0.5,24.4,0.3,37.3,0.1
		c4.8-0.1,8.7-0.1,10.9-0.1c2.8,0,4.8-1.6,5.1-4.2c0.5-3.7-2.4-8.3-8.8-10c-8.5-2.3-30,1.6-32.2,2
		C359.5,763.7,356.9,764.9,354.1,764.9z"/>
	<path class="st3" d="M348.2,742.3c0,0.8,0,1.7-0.1,2.5c4.5,2,9.5,2.7,14.4,1.8c0.1-0.8,0.2-1.5,0.3-2.4c-1.1,0.2-2.2,0.2-3.3,0.2
		C355.6,744.4,351.8,743.7,348.2,742.3z"/>
	<path class="st3" d="M290.8,751.3c-0.1,1.1-0.1,2.1-0.2,3.1c4.4,1.8,9.3,2.1,13.9,0.7l0.6-3.1c-2.1,0.4-4.3,0.6-6.4,0.7
		C295.9,752.7,293.3,752.2,290.8,751.3z"/>
	<path d="M403.5,373.7c-3.9-13.7-8.6-27.1-14.1-40.2c-5.6-13.8-27.2-23.5-34.3-25.7c-2.7-0.9-3.4-2.3-3.6-3.8
		c8.2-4.3,20.9-13.8,22.4-21.9c1.9-10.4,6-51.1,6.2-53.1c5.9,2,9.8,3.4,9.9,3.4c0.2,0.1,0.5,0,0.6-0.1c0.2-0.2,0.2-0.4,0.1-0.6
		l-2.7-7.7l10.3,5.3c0.3,0.2,0.6,0.1,0.8-0.2c0.1-0.2,0.1-0.3,0-0.5c-7.7-21.3-27.4-32.5-35.5-36.4c-12.1-5.8-36.6-8-53,4.9
		c-17.3,13.6-14,41.8-12.8,51.1c1.8,15.1-2.9,32.6-2.9,32.8c-0.1,0.3,0.1,0.5,0.3,0.7c0.2,0.1,0.5,0.1,0.7-0.1l4.5-5.3l1.7,8.3
		c0,0.2,0.2,0.4,0.5,0.5h0.1c0.2,0,0.4-0.1,0.5-0.3c0.9-1.4,1.6-3,2-4.6c-1.2,9.6-4,21.6-11,25.8c-5.5,3.3-12,6.5-18.3,9.7
		c-8.3,4.1-16.2,8-20.6,11.6c-8,6.5-17.3,36.4-19.4,56.3c-2.1,20.9-3.6,54.9,0.1,61.6c1.5,2.8,4.9,4,10.2,4c5.9,0,14.1-1.5,24.4-4.2
		c0.6,5.1,4.8,39,5.2,53.3c-0.6,1.5-6.6,16.9-6.6,41.4c0,25,14.6,87.8,15.4,91.3c-0.5,1.8-5.5,19.6-3.1,36.6c1,7.3,2.2,13.8,3.3,20
		c2.5,12.5,4.2,25.1,5,37.7c0.8,13.9,0.3,27.8-1.5,41.5c-1.9,15.4-1.9,18.5,2,19.5c2.2,0.6,7.4,0.8,13.7,0.8
		c7.4,0,16.3-0.3,23.8-0.5c4.7-0.1,8.7-0.3,10.9-0.3c3.1,0.1,5.8-2.2,6-5.3c0.5-4.6-3.1-10-10.8-11.6c-9.3-1.9-26.8,0.9-30.9,1.6
		l3.5-19.3l0,0l18.2-99c3-16.4,5.3-31.7,7.2-45.5c2.5,8.2,4.6,18.8,4.8,19.9c-0.9,10.5-0.8,21,0.2,31.4c0.9,8,2.3,16,4.3,23.9
		c2.3,10,4.6,20.4,5.5,33.8c1.1,15.5,0.9,31.1-0.8,46.6c-0.9,8.7-1.2,12,3.2,12.4c2.2,0.2,7.5,0.3,13.8,0.3c7.6,0,16.6-0.1,23.7-0.2
		c4.8-0.1,8.7-0.1,10.9-0.1c3.2,0.2,5.9-2.1,6.3-5.2c0.6-4.2-2.6-9.4-9.7-11.3c-8.3-2.3-27.8,1.1-32.1,1.9c0.3-1.7,1-6.2,1.9-13
		c0,0,0,0,0-0.1c0.2-1.1,0.3-2.3,0.5-3.5v-0.1c2.7-19.5,6.9-54.1,10.3-98.8c5.3-69.1-8.3-137.1-8.9-140.2c0.3-1.9,4.6-29,6.8-72.4
		c0.8,0,1.7,0.1,2.6,0.1h1.4c1.3,0,2.5-0.5,3.4-1.3c1.9,2,13.6,13.9,22.3,13.9c1,0,2-0.2,3-0.5c4.5-1.8,6.7-8,6.6-18.3
		c-0.3-18.5-3.8-36.5-8.1-52.1C403.5,373.9,403.5,373.8,403.5,373.7z M302.9,282.5l-1.6-7.9c0-0.2-0.2-0.4-0.4-0.5h-0.2
		c-0.2,0-0.3,0.1-0.5,0.2l-3.7,4.3c1.2-5.4,3.8-18.8,2.4-30.8c-1.1-9.1-4.4-36.8,12.4-50c16.1-12.6,40-10.4,51.8-4.7
		c7.8,3.7,26.5,14.4,34.3,34.3l-10.3-5.3c-0.3-0.2-0.6-0.1-0.8,0.2c-0.1,0.2-0.1,0.3,0,0.5l2.8,8c-5.1-1.8-25.5-8.9-43.5-13
		c-0.3-0.1-0.6,0.1-0.7,0.5c0,0.2,0,0.3,0.1,0.5l4.7,6.7l-19.1-4.9c-0.2,0-0.3,0-0.5,0.1c-0.1,0.1-0.2,0.3-0.3,0.4
		c0,0.2-1.7,20.1-5.5,36.9l-2.5-4.5c-0.1-0.2-0.3-0.3-0.5-0.3c-0.2,0-0.4,0.1-0.5,0.3l-3.8,6.4c1.3-6.5,3.7-19.9,1.6-24.1
		c-1-2.3-3.4-3.6-5.8-3.2c-2.8,0.4-5.9,3-6.7,7.9c-0.5,4.3-0.6,8.6-0.3,12.9c0.3,5.1,0.2,10.3-0.1,15.4
		C305.2,276.2,303.8,280.5,302.9,282.5z M307.1,266.7c0.2-5,0.1-9.5,0-13.4c-0.3-4.2-0.2-8.5,0.3-12.7c0.7-4.3,3.3-6.6,5.7-6.9
		c2-0.3,3.9,0.8,4.6,2.6c2.6,5.2-2.4,26.7-2.4,26.9c-0.1,0.3,0.1,0.6,0.3,0.7c0.3,0.1,0.6,0,0.7-0.3l5.1-8.7l2.8,5
		c0.1,0.2,0.3,0.3,0.6,0.3c0.2,0,0.4-0.2,0.5-0.5c3.7-15.3,5.5-34,5.8-37.8l20,5.1c0.3,0.1,0.6-0.1,0.7-0.4c0.1-0.2,0-0.4-0.1-0.5
		l-4.8-6.8c11.4,2.6,23.5,6.4,32,9.2c0,0,0,0.1,0,0.1c0,0.1-0.3,3.1-0.8,7.6c-0.7-1-2.7-3.5-5.5-4.1c-1.9-0.4-3.9,0.1-5.4,1.3
		c-0.3,0.2-0.3,0.6-0.1,0.8c0.2,0.3,0.5,0.3,0.8,0.1c0,0,0,0,0,0c1.2-1,2.9-1.4,4.4-1.1c3,0.6,5,4,5,4c0.1,0.2,0.3,0.3,0.5,0.3
		c0,0,0.1,0,0.1,0c-1.4,13-3.9,36.7-5.3,44.2c-1.9,10.5-24.1,23.2-27.3,23.3l0,0c-3.1,0-14.6-4.3-24.5-18.2
		c-0.2-0.3-0.6-0.3-0.8-0.1c-0.3,0.2-0.3,0.6-0.1,0.8c10,14,21.7,18.7,25.5,18.7l0,0c1.8-0.3,3.5-0.9,5-1.8c0.2,1.2,0.8,2.2,1.6,3
		c-5,9-26.1,12.1-40.3,8.2c-12.2-3.3-13.9-10-14.1-11.3C307.4,294.1,307.1,268.1,307.1,266.7z M255.9,327.9
		c4.3-3.5,12.1-7.3,20.4-11.4c6.3-3.1,12.9-6.4,18.4-9.7c0.7-0.4,1.3-0.9,1.9-1.4c0.7,2.5,3.4,8.4,14.8,11.5c4.4,1.1,9,1.7,13.6,1.7
		c11.9,0,23.9-3.5,27.9-10.4c0.5,0.3,1.1,0.6,1.7,0.7c7,2.3,28.2,11.7,33.6,25.1c5.3,12.8,9.9,25.9,13.8,39.3
		c-14.7-2.5-23.4,5.2-25.8,7.7c-0.9-2.6-1.8-5.2-2.7-7.5c0-6.8-0.1-13.8-0.3-21c0-0.3-0.3-0.6-0.6-0.6c0,0,0,0,0,0
		c-0.3,0-0.6,0.3-0.6,0.6c0,0,0,0,0,0c0.2,7.2,0.2,14.2,0.3,21v0c0,8.1-0.1,16-0.2,24.2l-15.9-1.7c-1.8-0.2-3.3,1.1-3.5,2.9
		l-1.9,17.7c-3.6-0.1-7.3-0.4-9.2-1.5c-2.6-1.7-2.5-3-1.7-6.8c0.5-2.4-0.2-3.8-0.9-4.5c-0.6-0.7-1.4-1-2.3-1
		c-0.6,0.1-0.9,0.8-1.4,2.3c-0.8,2.4-2.3,6.4-5.3,7.1c-4.5,1.1-8.4,4.4-9,7.5l-56,2.3c0.2-5.1,2.2-40.2,12-61c0.1-0.3,0-0.6-0.3-0.8
		c0,0,0,0,0,0c-0.3-0.1-0.6,0-0.8,0.3c-3.5,7.4-6,16.4-7.8,25.4c-9.6-7.7-27.2-4.1-31.2-3.2C239.2,363.2,248.3,334,255.9,327.9z
		 M379.9,410.6c-1.6-1.1-3.4-2-5.3-2.5l0.8-6.9c0.1-1.4-0.7-2.8-2-3.3c0.2-7.1,0.2-14.1,0.2-21.2c0.7,1.7,1.3,3.5,1.9,5.4
		c0,0.1,0,0.2,0.1,0.2c5.3,15.8,10,34.6,10.8,37.6l-3.6-0.3C383.6,416.4,382.5,412.9,379.9,410.6L379.9,410.6z M373.4,408.1
		c-0.2,0.2-0.3,0.5-0.1,0.8c0,0,0,0,0,0l-0.9,8.2h-1.5c-3.7-0.1-5,0-5.4,1.5c-0.2,0.6-0.1,1.3,0.3,1.8v0.1c-0.9-0.1-1.9,0.2-2.6,0.8
		c0,0.1-0.1,0.1-0.1,0.2c-0.7-0.5-1.4-0.7-2.3-0.8c0.1-0.1,0.2-0.3,0.3-0.4c0.3-0.8,0-1.7-0.8-2.7s-2.9-0.9-7.1-1H352l1.9-17.6
		c0.1-1.1,1.1-1.9,2.2-1.8c0,0,0,0,0,0l16.2,1.8c1.1,0.1,1.9,1.1,1.8,2.2c0,0,0,0,0,0L373.4,408.1z M374,413.7
		c1.3,0.2,1.4,0.7,1.5,1.8c0,0.2,0,0.3,0,0.5c0.1,0.6-1.1,1-1.9,1.1L374,413.7z M364.7,427.1c0.4,0.6,1,1.1,1.7,1.4
		c-0.2,0.6-0.2,1.2,0.1,1.7c0.5,0.9,2,1.6,4.3,1.9l-0.3,2.7c-0.1,1.1-1.1,1.9-2.2,1.8c0,0,0,0,0,0l-16.2-1.8c-0.6-0.1-1.2-0.4-1.5-1
		c2.5-0.5,4-1.2,4.5-2.4c0.3-0.6,0.3-1.2,0-1.8c1.1-0.3,2.1-0.8,3-1.5c0.6-0.5,1-1.2,1.1-2c1.2-0.2,2.4-0.6,3.5-1.3
		c0.3-0.2,0.5-0.4,0.8-0.7c0.4,0.3,0.8,0.6,1.3,0.7C364.4,425.7,364.4,426.5,364.7,427.1L364.7,427.1z M236.9,444.3
		c-3.3-6.1-2.1-38.9,0-60.5c2.9-0.7,21.8-4.9,31.1,3.2c-2.2,11.7-3.6,23.5-4.1,35.4c0,0.2,0.1,0.3,0.2,0.4c0.1,0.1,0.3,0.2,0.4,0.2
		l0,0l57.1-2.4c0.3,0,0.5-0.2,0.6-0.5c0.2-2.4,3.6-5.8,8.2-7c3.6-0.9,5.2-5.3,6.1-7.9c0.2-0.5,0.4-1,0.6-1.5
		c0.4,0.1,0.8,0.3,1.1,0.6c0.5,0.5,1,1.6,0.6,3.5c-0.8,3.7-1.2,5.9,2.2,8.1c2.5,1.6,7.6,1.7,12,1.8c2.5,0.1,5.8,0.1,6.2,0.6
		s0.8,1,0.6,1.5c-0.3,0.7-1.9,1-2.6,1.1l0,0c-3.6,0.1-10.7,0.1-11.7-0.2c-0.3-0.1-0.6,0-0.8,0.3c-0.1,0.3,0,0.6,0.3,0.8
		c0,0,0.1,0,0.1,0c1.2,0.4,8.3,0.4,12.1,0.3h0.2c0.7,0,1.3-0.1,2-0.2c1.4-0.3,2.8,0.2,3.1,0.9c0,0,0,0,0,0.1c0,0.1,0,0.1,0,0.2
		c0,0.4-0.5,0.7-0.8,0.9c-1,0.6-2.1,1-3.2,1.1c-0.1,0-0.1,0-0.2,0c-0.1,0-0.2,0-0.3,0.1c-5.3,0.8-13.2-0.1-13.3-0.1
		c-0.3-0.1-0.6,0.2-0.7,0.5c0,0,0,0,0,0c0,0.3,0.2,0.6,0.5,0.6c0,0,0,0,0,0c2.7,0.3,5.3,0.5,8,0.5c1.7,0,3.3-0.1,5-0.3
		c-0.1,0.4-0.4,0.7-0.6,0.9c-1,0.7-2.1,1.2-3.3,1.4l0,0c-3.4,0.5-6.9,0.6-10.3,0.3c-0.3,0-0.6,0.2-0.6,0.6c0,0.3,0.2,0.6,0.5,0.6
		c0.2,0,2.2,0.2,4.6,0.2c1.9,0,3.8-0.1,5.7-0.5c0.2,0.3,0.2,0.7,0.1,1c-0.3,0.7-1.9,2.2-10.1,2.2c-13.8,0-20.9-3.7-21-3.8
		c-0.1-0.1-0.3-0.1-0.4-0.1c-0.1,0-8.5,1.9-38,10.3C257.7,447.3,240.4,450.8,236.9,444.3z M333.4,770.1c7,1.5,10.3,6.3,9.9,10.4
		c-0.1,2.5-2.3,4.4-4.8,4.3c0,0,0,0,0,0c-2.2,0-6.2,0.1-10.9,0.3c-12.9,0.4-32.5,1-37.2-0.3c-2.6-0.7-2.9-2.6-1.5-14.9
		c0,0,0.1-0.1,0.1-0.1c0-0.1,0.2-0.5,0.5-0.6s0.5,0.1,0.8,0.3c0.5,0.4,0.8,0.9,0.9,1.6c0.1,0.9,0.7,1.8,1.5,2.3
		c0.9,0.6,2,0.9,3.1,0.8c2.3-0.2,4.6-0.9,6.6-2.3C304,771.6,323.8,768.1,333.4,770.1L333.4,770.1z M301.5,771
		c-1,0.6-5.3,3.2-8.3,1.3c-0.6-0.4-0.9-0.9-1-1.6c-0.1-0.9-0.6-1.7-1.3-2.2c-0.5-0.4-1.2-0.6-1.8-0.4c0-0.5,0.1-1,0.2-1.5
		c0.4-3.1,0.8-6.8,1.1-10.9c2.5,1,5.1,1.5,7.8,1.5c2,0,4-0.3,6-0.8L301.5,771z M304.4,755.1c-4.6,1.4-9.5,1.2-13.9-0.7
		c0.1-1,0.2-2,0.2-3.1c2.5,0.9,5.2,1.4,7.8,1.3c2.2,0,4.3-0.2,6.4-0.7L304.4,755.1z M393.4,759.5c6.4,1.8,9.3,6.4,8.8,10
		c-0.3,2.6-2.3,4.2-5.1,4.2c-2.2,0-6.1,0-10.9,0.1c-12.9,0.2-32.4,0.4-37.3-0.1c-3.2-0.3-3.1-2.2-2.2-11.1c0.1-1,0.2-2,0.3-3.1
		c0.1,0,0.2,0,0.3-0.1c0.3-0.3,0.7-0.3,1.1-0.2c0.5,0.2,1.1,1,1.2,2.6c0.1,1.4,1.2,2.6,2.6,2.9c0.6,0.2,1.2,0.2,1.8,0.2
		c2.7,0,5.3-1.2,7.1-3.3C363.5,761.2,385,757.2,393.4,759.5L393.4,759.5z M360.4,760.8c-1.9,2.3-4.8,3.3-7.7,2.8
		c-0.9-0.2-1.6-0.9-1.8-1.8c-0.1-1.8-0.8-3.1-1.9-3.5c-0.6-0.3-1.2-0.3-1.8,0c0.3-3.4,0.6-7.4,0.8-12.1c3.2,1.4,6.7,2.1,10.2,2.1
		c1.3,0,2.7-0.1,4-0.3C361.2,755.4,360.5,759.9,360.4,760.8z M362.5,746.7c-4.9,0.8-9.9,0.2-14.4-1.8c0-0.8,0-1.6,0.1-2.5
		c3.6,1.4,7.4,2.2,11.3,2.2c1.1,0,2.2-0.1,3.3-0.2C362.7,745.1,362.6,745.9,362.5,746.7L362.5,746.7z M373.2,644.8
		c-3.4,44.3-7.6,78.8-10.3,98.3c-5,0.6-10.1-0.1-14.7-2c0.1-6.9,0-15.2-0.6-25.2c-0.8-13.5-3.2-23.9-5.5-34
		c-1.8-7.9-3.5-15.4-4.3-23.8c-1-10.4-1.1-20.9-0.2-31.3c0-0.1,0-0.1,0-0.2c0-0.1-2.7-13.8-5.6-22.5c2.4-17.8,4-33,5-44.4
		c0-0.3-0.2-0.6-0.5-0.6c-0.3,0-0.6,0.2-0.6,0.5c-1.8,20.8-5.5,53.6-12.5,92.5l-18.1,98.5c-8.5,1.8-13.5-0.3-14.4-0.7
		c0.5-8.4,0.5-16.8,0-25.2c-1-15.6-3-26.4-5-37.9c-1.1-6.2-2.3-12.6-3.3-19.9c-2.5-17.6,3.1-36,3.1-36.2c0-0.1,0-0.2,0-0.3
		c-0.2-0.7-15.4-65.7-15.4-91.2c0-21.5,4.7-36,6.1-40c4,5.1,21.3,8.3,35.8,9.5c5.4,0.5,11.4,0.7,17.6,0.7c12.4,0,25.3-1.1,34.7-4.2
		C365.9,512.6,378.3,578.2,373.2,644.8z M364.4,504.3c-25.5,8.5-83.9,2.7-87.5-6.3c-0.4-14.4-4.7-49-5.3-53.6
		c4.1-1.1,8.5-2.3,13.2-3.6c26.9-7.7,36.3-9.9,37.7-10.3c1.3,0.6,8.3,3.8,21.3,3.8c1.8,0,3.6-0.1,5.5-0.3c0.4,1.1,1.4,1.9,2.6,2
		l16.2,1.7h0.3c1,0,1.9-0.5,2.5-1.2C368.8,476.1,364.9,501.1,364.4,504.3L364.4,504.3z M376.4,431.2c-1.5,0.1-3,0-4.5-0.1l0,0
		c-2.7-0.3-4-0.8-4.3-1.4c-0.1-0.2-0.1-0.5,0-0.7c0.5,0.1,1.1,0.2,1.7,0.2c1,0.1,2,0.1,3.1,0.1c3.3,0,6.3-0.3,6.5-0.3
		c0.3-0.1,0.5-0.4,0.5-0.7c-0.1-0.3-0.3-0.5-0.6-0.5c-3.1,0.3-6.2,0.4-9.3,0.2c-2.4-0.2-3.2-0.8-3.5-1.3c-0.2-0.4-0.2-0.9,0-1.3
		c1.9,0.4,3.8,0.6,5.7,0.5c2.6,0,5.3-0.2,7.9-0.5c0.3,0,0.5-0.3,0.5-0.6c0,0,0,0,0,0c0-0.3-0.3-0.5-0.6-0.5c0,0,0,0,0,0
		c-7.1,0.8-14.9,0.6-15.2-1.2c0-0.1,0-0.3,0-0.4c0-0.4,0.1-0.5,0.2-0.6c0.5-0.6,2.5-0.4,4.8-0.2l0,0c3.6,0.4,7.1,0.4,10.7,0
		c0.3,0,0.6-0.3,0.5-0.7c0,0,0,0,0,0c0-0.3-0.3-0.5-0.6-0.5c0,0,0,0,0,0c-3.5,0.3-7,0.3-10.5,0l0,0c-1.4-0.1-2-0.6-2.2-0.9
		c-0.2-0.2-0.2-0.5-0.2-0.8c0.2-0.5,0.6-0.7,4.3-0.6h2h0.1c2.2,0.1,4.4,0,6.6-0.2c0.3,0,0.6-0.3,0.5-0.7c0-0.3-0.3-0.5-0.6-0.5
		c0,0,0,0,0,0c-1,0.1-2.1,0.2-3.2,0.2c0.3-0.3,0.5-0.8,0.4-1.3v-0.5c-0.1-1.2-0.2-2.5-2.5-2.9l0.3-3.2c1.7,0.4,3.3,1.2,4.7,2.2
		c2.5,2.1,3.4,5.5,2.3,8.6c-0.4,1.4-0.6,2.8-0.7,4.2C380.2,428.5,379.7,431.1,376.4,431.2L376.4,431.2z M404.7,443.3
		c-8.2,3.3-22.8-11.8-24.1-13.2c0.8-1.8,1.3-3.7,1.4-5.6c0.1-1.2,0.3-2.4,0.6-3.5l19.9,1.5l0,0c0.3,0,0.6-0.3,0.6-0.6
		c0-0.3-0.3-0.6-0.6-0.6l-14.9-1.1c-0.2-0.9-5.2-21-10.8-37.9c1.4-1.6,10.1-10.7,25.8-7.7c4.3,15.5,7.8,33.3,8,51.6
		C410.6,435.9,408.6,441.7,404.7,443.3L404.7,443.3z"/>
	<path d="M356.8,266.9c1.3,0.3,2.7,0.4,4.1,0.4c1.8,0.1,3.7-0.3,5.3-1.1c0.2-0.1,0.3-0.3,0.3-0.5c1-10.1-1.8-22.2-1.8-22.3
		c-0.1-0.3-0.4-0.5-0.7-0.4c-0.3,0.1-0.5,0.4-0.4,0.7c0,0.1,2.6,11.8,1.8,21.6c-0.8,0.4-3.7,1.3-8.3,0.4c-0.3-0.1-0.6,0.1-0.7,0.4
		c0,0,0,0,0,0C356.3,266.5,356.5,266.8,356.8,266.9C356.8,266.9,356.8,266.9,356.8,266.9z"/>
	<path d="M350.5,275c-1.5-1.6-3.3-3.5-6-3.4c-1.9,0.1-3.7,1.2-4.6,3c-1.4,2.8-1.3,6,0.3,8.7c1.6,2.7,5.1,4.8,9.2,5.5
		c1,0.2,2.1,0.3,3.1,0.3c3,0.1,6-0.9,8.3-2.7c1.7-1.2,2.6-3.2,2.3-5.2c-0.1-1.4-1-2.7-2.2-3.4c-1-0.3-2-0.4-3-0.1
		c-1.4,0.3-2.8,0.3-4.2,0l0,0C352.7,277.3,351.6,276.2,350.5,275z M353.7,278.8c1.5,0.3,3.1,0.3,4.6,0c0.8-0.2,1.5-0.2,2.3,0
		c0.9,0.5,1.4,1.4,1.5,2.5c0.2,1.6-0.6,3.2-1.9,4.1c-2.6,2.1-6.5,2.9-10.5,2.2c-3.8-0.7-7-2.6-8.4-5c-1.4-2.3-1.5-5.1-0.3-7.5
		c0.7-1.4,2-2.3,3.5-2.3h0.2c2.1,0,3.5,1.5,4.9,3C350.8,277,352.1,278.3,353.7,278.8L353.7,278.8z"/>
	<path d="M342.7,243.2c2.2-0.1,4.4-1,6.1-2.4c0.5-0.4,0.6-1.2,0.2-1.7s-1.2-0.6-1.7-0.2c0,0-0.1,0-0.1,0.1c-1.3,1-3,1.6-4.7,1.8
		c-0.6,0.1-1.1,0.7-1,1.3C341.6,242.8,342.1,243.2,342.7,243.2L342.7,243.2z"/>
	<path d="M368.8,245.8L368.8,245.8c2.3-0.1,4.4-1,6.2-2.4c0.5-0.4,0.5-1.2,0.1-1.7c0,0,0,0,0,0c-0.4-0.5-1.2-0.5-1.7-0.1
		c0,0,0,0,0,0c-1.3,1-3,1.6-4.7,1.8c-0.6,0.1-1.1,0.7-1,1.3C367.7,245.3,368.2,245.8,368.8,245.8L368.8,245.8z"/>
	<path d="M337.4,235.4c0.2,0,0.4-0.1,0.5-0.2c0.2-0.3,5.4-6.9,12.7-2.9c0.2,0.2,0.6,0.2,0.8,0c0.2-0.2,0.2-0.6,0-0.8
		c-0.1-0.1-0.2-0.1-0.2-0.1c-8.2-4.5-14.1,3.2-14.1,3.3c-0.2,0.3-0.2,0.6,0.1,0.8c0,0,0,0,0,0C337.2,235.4,337.3,235.4,337.4,235.4z
		"/>
	<path d="M294.5,759.9c-0.3-0.1-0.6,0-0.8,0.3c-0.2,0.4-1.6,4-0.8,6.1c0.1,0.2,0.3,0.4,0.5,0.4c0.1,0,0.1,0,0.2,0
		c0.3-0.1,0.4-0.4,0.3-0.7c0,0,0,0,0,0c-0.6-1.4,0.4-4.3,0.8-5.3C295,760.4,294.9,760.1,294.5,759.9
		C294.6,759.9,294.6,759.9,294.5,759.9z"/>
	<path d="M353,751.3c-0.3-0.1-0.6,0-0.8,0.3c-0.2,0.4-1.6,4-0.8,6.2c0.1,0.2,0.3,0.4,0.5,0.4c0.3,0,0.6-0.3,0.6-0.6
		c0-0.1,0-0.1,0-0.2c-0.6-1.4,0.4-4.3,0.8-5.3C353.4,751.8,353.3,751.5,353,751.3z"/>
	<path class="st3" d="M89.3,738c11.8-2,19.7-13.1,17.7-24.9c-1.4-8.1-7.3-14.8-15.2-17.1c0.1-1,0.2-2,0.2-3
		c0-15.4-12.5-27.9-27.9-27.9c-15.4,0-27.9,12.5-27.9,27.9c0,5.5,1.6,10.9,4.6,15.4c-11.9,0.9-20.8,11.3-19.9,23.2
		c0.7,9.5,7.6,17.4,16.9,19.4c-8.8,3.6-13,13.6-9.4,22.4c3.6,8.8,13.6,13,22.4,9.4c3.9-1.6,7.1-4.6,9-8.5v56.2h8.5v-58.4
		c7.1,9.6,20.6,11.6,30.2,4.5c9.6-7.1,11.6-20.6,4.5-30.2C99.7,742,94.8,739,89.3,738L89.3,738z"/>
	<path class="st3" d="M486.1,652.5c0-32.9-12.1-62.1-30.9-80.9c-18.8,18.8-30.9,48-30.9,80.9c0,29.8,9.9,56.6,25.7,75.3v31h10.3v-31
		C476.2,709,486.1,682.2,486.1,652.5z"/>
	<path class="st3" d="M886.1,706c0-22.4-5.6-77.5-15.1-94.4c-4.8-8.7-15.8-11.8-24.5-7c-2.9,1.6-5.4,4.1-7,7
		c-9.5,16.9-15.1,72-15.1,94.4c0,29.8,11.9,41,25.7,41v31h10.3v-31C874.2,747,886.1,735.8,886.1,706z"/>
	<path class="st3" d="M213.9,720.4c0-17.9-4.5-62-12.1-75.5c-3.9-7-12.7-9.4-19.7-5.5c-2.3,1.3-4.2,3.2-5.5,5.5
		c-7.6,13.5-12.1,57.6-12.1,75.5c0,23.8,9.5,32.8,20.6,32.8V778h8.2v-24.8C204.4,753.2,213.9,744.2,213.9,720.4z"/>
	<path class="st3" d="M647.4,646.6c0-8.3-4.6-15.9-11.9-19.8c-2.6-19.9-20.9-33.9-40.8-31.2c-19.9,2.6-33.9,20.9-31.2,40.8
		c1.1,8.3,5,15.9,11.1,21.6c-9.1,1.1-15.6,9.4-14.4,18.5c0.9,7.5,6.9,13.5,14.4,14.4c-0.1,0.6-0.1,1.1-0.1,1.7
		c0,9.2,7.4,16.6,16.6,16.6c3.1,0,6.2-0.9,8.8-2.5V735h10.4v-26.8c15.9,4.1,32.2-5.5,36.3-21.4c0.6-2.4,0.9-4.9,0.9-7.4
		c0-6.4-2-12.6-5.9-17.7C645.4,657.6,647.5,652.2,647.4,646.6z"/>
	<path class="st3" d="M784.1,809.5l-53.1-164.6l-53.1,164.6H726v39.8h10v-39.8H784.1z"/>
	<path class="st3" d="M1026.5,717.3c0-11.9-8.8-21.9-20.6-23.5c-1.2-17-16.1-29.9-33.1-28.6c-6.6,0.5-12.9,3.1-17.9,7.4
		c-11.6-6-25.9-1.4-31.9,10.2c-4.5,8.7-3.2,19.3,3.4,26.6c-19.3,9.8-27.1,33.3-17.4,52.7c9.8,19.3,33.3,27.1,52.7,17.4
		c1.1-0.5,2.1-1.1,3.1-1.7v36.7h13v-37.9c10.7,7.5,25.5,4.9,33-5.8c6.6-9.4,5.5-22.2-2.6-30.3
		C1018.9,737.9,1026.5,728.3,1026.5,717.3z"/>
	<path class="st3" d="M214.9,863.6h-103c-8,0-6.8-8.5,5-9s31.3,1.5,31.3,1.5s1.8-13.3,16-13.3s17.8,9.3,17.8,9.3s0.5-31,31-31
		s49.3,24.5,49.3,24.5s4.8-4.8,16.8-4.8s14.5,10.3,14.5,10.3s5.8-4.3,17.8-1.8s11.8,14.3,6.3,14.3H213.9"/>
	<path class="st3" d="M871.2,836h72.3c5.6,0,4.7-6-3.5-6.3s-21.9,1-21.9,1s-1.2-9.3-11.2-9.3s-12.4,6.5-12.4,6.5
		s-0.3-21.7-21.8-21.7s-34.5,17.2-34.5,17.2s-3.3-3.3-11.8-3.3s-10.2,7.2-10.2,7.2s-4-3-12.4-1.2s-8.3,10-4.4,10h72.6"/>
	<path class="st3" d="M524.7,779.9h-25.5c-4.6,0-3.1-6.8,0.8-8.6s9.2,0,9.2,0s-0.3-6,4-10.1c2.7-2.5,6.1-3.9,9.7-4
		c0,0-3.3-8.4,2.4-13.6s14.8-3.6,18,0.9s1.5,10.5,1.5,10.5c5-2.3,10.9-1.6,15.3,1.7c7.8,5.7,1.4,12.2,1.4,12.2s6.9-2.7,11,1.6
		c4.4,4.7-1.5,9.4-9.1,9.4L524.7,779.9z"/>
	<path class="st2" d="M967.8,134.4L938,104.6c1.5-3.4,0.8-7.5-1.9-10.1c-1.7-1.7-4-2.7-6.4-2.7c-1.3,0-2.6,0.3-3.7,0.8l-29.8-29.8
		c-0.6-0.6-1.4-1-2.3-0.9c-0.4,0-0.7,0.1-1.1,0.2c-1.2,0.4-2,1.5-2.1,2.7l-1.5,13.9l-61.8,95.6h-0.2c-2.4,0-4.7,0.9-6.4,2.6
		l-7.4,7.4c-3.5,3.4-5.6,8.1-5.8,13c-0.1,3.7,0.9,7.3,2.8,10.5c-2.6,4.3-1.3,9.9,3,12.5c2.9,1.8,6.6,1.8,9.5,0c3,1.8,6.5,2.8,10,2.8
		h0.5c3.8-0.1,7.4-1.4,10.5-3.6l12.6,12.6c2.6,2.6,6.9,2.7,9.6,0c0,0,0,0,0,0l0.8-0.8c2.6-2.7,2.6-6.9,0-9.6l-12.5-12.5
		c1.3-1.6,2.1-3.6,2.1-5.7v-0.2l95.6-61.7l13.8-1.6c1.8-0.2,3.1-1.8,2.8-3.6C968.6,135.6,968.3,134.9,967.8,134.4L967.8,134.4z
		 M861.5,227.3c-0.1,0-0.1,0.1-0.2,0.1c-0.1,0-0.1,0-0.2-0.1l-12.4-12.4l1.2-1.2l12.4,12.4c0.1,0.1,0.1,0.1,0.1,0.2
		c0,0.1,0,0.2-0.1,0.2L861.5,227.3z M853.9,197.1l-0.1-0.1l-20.2-20.2l-0.1-0.1l59.4-91.9l52.9,53L853.9,197.1z M827.2,180.6
		c0.7,0,1.3,0.3,1.8,0.7l20.2,20.2c1,1,1,2.6,0,3.5c0,0,0,0,0,0l-1.7,1.7l-5.8,5.8c-0.1,0.1-0.2,0.2-0.3,0.3
		c-2.2,2.1-5.1,3.4-8.2,3.5H833c-4.1,0-8.3-2.1-12.5-6.4s-6.5-8.6-6.4-12.8c0.2-3.2,1.5-6.2,3.7-8.4h0.1l0.1-0.1l7.5-7.5
		C825.9,180.9,826.5,180.7,827.2,180.6z M958.4,134.2l-6.4,0.7l-56.4-56.4l0.7-6.4l35.2,35.2L958.4,134.2z"/>
	<path class="st5" d="M811.3,197.3c-0.1,4.9,2.3,9.9,7.2,14.8s9.9,7.3,14.8,7.2c3.9-0.2,7.5-1.8,10.3-4.6c0-0.1,0.1-0.1,0.1-0.1
		l5.8-5.8l0,0l1.7-1.7c2.1-2.1,2.1-5.4,0-7.5L831,179.4c-2.1-2.1-5.4-2.1-7.5,0l-7.5,7.5l0,0C813.2,189.6,811.5,193.4,811.3,197.3z"
		/>
	<polygon class="st5" points="933.5,105.4 894.2,66.1 892.8,79.6 951.1,137.8 964.5,136.3 933.5,105.4 933.5,105.4 	"/>
	<path class="st1" d="M933.5,97.1c-2-2-5.1-2.1-7.3-0.3l7.6,7.6C935.6,102.2,935.5,99,933.5,97.1z"/>
	<path class="st3" d="M859.1,229.3c1.2,1.2,3.1,1.2,4.3,0l0.8-0.8c1.2-1.2,1.2-3.2,0-4.4l-14.4-14.4l-4.4,4.4l-0.7,0.7L859.1,229.3z
		"/>
	<path class="st1" d="M814.4,216.2c2.1,2.1,5.5,2.1,7.6,0c-1.5-1.1-2.8-2.2-4.1-3.5l0,0c-1.3-1.3-2.5-2.6-3.5-4.1
		C812.3,210.7,812.3,214.1,814.4,216.2z"/>
	<path class="st3" d="M829.7,177.4C829.7,177.4,829.7,177.4,829.7,177.4c0.7,0.4,1.4,0.8,1.9,1.4l20.2,20.2c0.6,0.6,1,1.2,1.3,2
		c0,0,0,0,0.1,0l97-62.6l-57.8-57.8L829.7,177.4z"/>
	<path class="st2" d="M965.8,136.4L934.5,105c2.2-2.5,2-6.3-0.3-8.6c-2.3-2.3-6.1-2.5-8.6-0.3l-31.3-31.3c-0.2-0.2-0.5-0.2-0.7,0
		c-0.1,0.1-0.1,0.2-0.1,0.3l-1.6,14.5l-62.9,97.3c-0.1,0.1-0.1,0.2-0.1,0.3c-0.5-0.2-1.1-0.2-1.7-0.2c-1.7,0-3.2,0.7-4.4,1.8
		l-7.4,7.5c-3,2.9-4.8,6.8-5,11c0,3.8,1.2,7.5,3.4,10.6l-0.1,0.1c-2.5,2.5-2.5,6.5,0,8.9c0,0,0,0,0,0c2.5,2.5,6.5,2.5,8.9,0
		c0,0,0-0.1,0.1-0.1c3,2.1,6.5,3.3,10.2,3.4h0.4c4-0.2,7.8-1.8,10.7-4.6l14.4,14.4c1.6,1.6,4.1,1.6,5.7,0c0,0,0,0,0,0l0.8-0.8
		c1.6-1.6,1.6-4.1,0-5.7c0,0,0,0,0,0l-14.4-14.4l1.4-1.4c1.2-1.2,1.8-2.7,1.8-4.4c0-0.6-0.1-1.1-0.2-1.7l0,0c0.1,0,0.2,0,0.3-0.1
		l97.5-62.8l14.5-1.6c0.3,0,0.4-0.3,0.4-0.5C965.9,136.6,965.9,136.5,965.8,136.4L965.8,136.4z M929.7,95.5c3,0,5.4,2.4,5.4,5.4
		c0,1.3-0.5,2.5-1.3,3.5l-7.6-7.6C927.2,95.9,928.4,95.5,929.7,95.5L929.7,95.5z M818.2,217.8c-3,0-5.4-2.4-5.4-5.4
		c0-1.4,0.6-2.8,1.5-3.8c1.1,1.5,2.2,2.8,3.5,4.1l0,0c1.3,1.3,2.6,2.4,4.1,3.5C820.9,217.2,819.6,217.8,818.2,217.8z M864.2,224.2
		c1.2,1.2,1.2,3.2,0,4.4l-0.8,0.8c-1.2,1.2-3.1,1.2-4.3,0l-14.4-14.4l0.7-0.7l4.4-4.4L864.2,224.2z M851.2,207.1l-1.7,1.7l0,0
		l-5.8,5.8c0,0-0.1,0.1-0.1,0.1c-2.7,2.7-6.4,4.4-10.3,4.6c-4.9,0.1-9.9-2.3-14.8-7.2s-7.3-9.9-7.2-14.8c0.2-3.9,1.9-7.6,4.7-10.4
		l0,0l7.5-7.5c2.1-2.1,5.4-2.1,7.5,0l20.2,20.2C853.2,201.7,853.2,205.1,851.2,207.1L851.2,207.1z M853.2,200.9
		C853.2,200.9,853.2,200.9,853.2,200.9c-0.4-0.7-0.8-1.3-1.4-1.9l-20.2-20.2c-0.6-0.6-1.3-1-2-1.3c0,0,0,0,0.1-0.1l62.7-96.9
		l57.8,57.8L853.2,200.9z M951.1,137.8l-58.3-58.3l1.5-13.4l39.3,39.3l0,0l31,31L951.1,137.8z"/>
	<path class="st2" d="M567.8,181.5c-10.3-10.3-26.9-10.3-37.2,0c-8.2,8.2-10.1,20.9-4.5,31.2l20.9,41.7c0.6,1.2,2.1,1.7,3.3,1.1
		c0.5-0.2,0.9-0.6,1.1-1.1l20.9-41.7C577.9,202.4,576.1,189.7,567.8,181.5z M568,210.3L568,210.3l-18.7,37.4l-18.7-37.4
		c0,0,0,0,0-0.1c-4.5-8.3-3-18.6,3.7-25.3c8.3-8.3,21.8-8.3,30.1,0C571,191.7,572.5,202,568,210.3z"/>
	<path class="st3" d="M565.6,183.7c-9.1-9-23.8-9-32.8,0.1c-7.3,7.3-8.9,18.5-3.9,27.5l20.4,40.7l20.4-40.7
		C574.5,202.2,572.9,191,565.6,183.7z"/>
	<path class="st2" d="M566.5,182.8c-9.5-9.5-25-9.6-34.5,0c-7.7,7.7-9.4,19.5-4.2,29l20.9,41.8c0.1,0.2,0.3,0.3,0.5,0.3
		c0.2,0,0.4-0.1,0.5-0.3l20.9-41.8C575.8,202.3,574.1,190.5,566.5,182.8z M569.6,211.2l-20.4,40.7l-20.4-40.7
		c-6.1-11.2-2-25.3,9.2-31.5c11.2-6.1,25.3-2,31.5,9.2C573.4,195.9,573.4,204.3,569.6,211.2L569.6,211.2z"/>
	<circle class="st4" cx="549.2" cy="198" r="6.9"/>
	<path class="st2" d="M798.7,79.6c-0.4-0.5-1-0.8-1.6-1l-7.6-2.1c0.4-6.6-0.4-13.3-2.4-19.6l6.9-3.9c0.6-0.4,1.1-0.9,1.4-1.6
		c0.4-0.9,0.3-2-0.2-2.8l-7.6-13.4c-0.4-0.8-1.2-1.3-2-1.5c-0.3-0.1-0.6-0.1-0.9-0.1c-0.6,0-1.1,0.1-1.6,0.4l-6.9,3.9
		c-4.4-5-9.7-9.1-15.6-12.1l2.1-7.6c0.5-1.7-0.5-3.5-2.3-4L745.5,10c-0.3-0.1-0.6-0.1-0.9-0.1c-1.5,0-2.7,1-3.1,2.4l-2.2,7.7
		c-1.1-0.1-2.2-0.1-3.3-0.1c-4.2,0-8.4,0.5-12.6,1.5c-0.2,0-0.5,0-0.7,0.1c-1,0.3-2,0.6-3,0.9l-3.9-6.9c-0.9-1.6-2.8-2.1-4.4-1.2
		c0,0,0,0,0,0l-13.4,7.6c-1.6,0.9-2.1,2.9-1.2,4.4l3.9,6.9c-4.1,3.6-7.6,7.9-10.4,12.6l-0.2,0.3c-0.4,0.7-0.8,1.4-1.2,2.1l-0.1,0.3
		l0,0c-0.1,0.1-0.1,0.3-0.2,0.4l-7.6-2.1c-0.3-0.1-0.6-0.1-0.9-0.1c-1.5,0-2.7,1-3.1,2.4l-4.1,15c-0.2,0.8-0.1,1.7,0.3,2.5
		c0.4,0.8,1.2,1.3,2,1.5l7.6,2.1c-0.1,1.2-0.1,2.4-0.1,3.7c0,1,0,2.1,0.1,3.1v0.1v0.4c0.1,1,0.2,1.9,0.3,2.6c0,0.2,0.1,0.4,0.1,0.6
		l0.1,0.5l0,0c0.1,0.6,0.2,1.3,0.3,2c0.1,0.4,0.2,0.9,0.3,1.3l0.2,0.8c0.1,0.3,0.1,0.6,0.2,0.9c0.3,1.1,0.6,2.3,1,3.5l-6.9,3.9
		c-1.6,0.9-2.1,2.9-1.2,4.4l7.6,13.4c0.4,0.8,1.2,1.3,2,1.5c0.3,0.1,0.6,0.1,0.9,0.1c0.6,0,1.1-0.1,1.6-0.4l6.9-3.9
		c1.8,2,3.8,3.9,5.9,5.7l0.4,0.3c0.5,0.4,1,0.8,1.5,1.2l1.1,0.8l0.2,0.2l0.9,0.6c1.8,1.2,3.7,2.4,5.6,3.4l-2.1,7.6
		c0,0.1-0.1,0.3-0.1,0.4c-0.1,0.7,0,1.4,0.4,2.1c0.4,0.8,1.2,1.3,2,1.6l14.9,4.1c0.3,0.1,0.6,0.1,0.9,0.1c1.5,0,2.7-1,3.1-2.4
		l2.1-7.6l0,0h0.4h0.1c1,0,1.9,0.1,2.8,0.1h0.2h0.6h0.3c0.8,0,1.5,0,2.2-0.1h0.5h0.3c0.8-0.1,1.6-0.1,2.3-0.2l0.5-0.1
		c1-0.1,1.9-0.3,2.9-0.4c2.2-0.4,4.3-1,6.5-1.6l3.9,6.9c0.6,1,1.7,1.6,2.8,1.6c0.6,0,1.1-0.1,1.6-0.4l13.4-7.6
		c0.7-0.4,1.3-1.1,1.5-1.9c0.2-0.8,0.1-1.7-0.3-2.5l-3.9-6.9c2.1-1.9,4.1-3.9,5.8-6.1c0.5-0.6,1-1.3,1.5-1.9l0.2-0.3
		c0.4-0.5,0.9-1.2,1.3-1.9v-0.1c0,0,0-0.1,0-0.1c0.7-1,1.3-2,1.9-3.1l0.1-0.1c0.3-0.4,0.5-0.8,0.7-1.2s0.3-0.5,0.4-0.8l7.6,2.1
		c1.7,0.5,3.5-0.5,4-2.3l4.1-14.9C799.7,81.6,799.4,80.5,798.7,79.6z M789.9,92.6l-7.1-2c-0.3-0.1-0.6-0.1-0.9-0.1
		c-1.3,0-2.4,0.8-2.9,1.9l-0.1,0.1v0.1l-0.1,0.3c-0.2,0.5-0.5,0.9-0.7,1.4l-0.1,0.2l-0.4,0.8c-0.2,0.3-0.4,0.7-0.6,1l-0.1,0.2
		c-0.6,1-1.2,1.9-1.7,2.8l-0.1,0.1l0,0c-0.4,0.6-0.8,1.2-1.2,1.7l-0.2,0.3c-0.4,0.6-0.8,1.1-1.3,1.7c-1.9,2.3-3.9,4.3-6.2,6.2
		l-0.2,0.2l-0.3,0.3c-0.1,0.1-0.2,0.1-0.2,0.2c-1.3,1-1.6,2.8-0.8,4.1l3.6,6.4l-7.8,4.4l-3.6-6.4c-0.6-1-1.7-1.6-2.8-1.6
		c-0.4,0-0.8,0.1-1.2,0.2c-2.6,1-5.3,1.7-8,2.2c-0.8,0.2-1.6,0.3-2.5,0.4l-0.5,0.1c-0.6,0.1-1.3,0.1-2,0.2h-0.3h-0.5
		c-0.5,0-1.1,0-1.9,0.1h-0.9c-0.8,0-1.6,0-2.4-0.1h-0.4c-0.8,0-1.6-0.1-2.3-0.2h-0.2h-0.3c-1.5,0-2.7,1-3.1,2.4l-2,7.1l-8.7-2.4
		l2-7.1c0.4-1.5-0.3-3.2-1.8-3.8c-2.5-1.1-4.9-2.5-7.2-4l-0.7-0.5l-0.3-0.2l-0.9-0.7c-0.4-0.3-0.9-0.7-1.3-1l-0.4-0.4
		c-2.5-2-4.7-4.3-6.7-6.8c-0.6-0.8-1.5-1.2-2.5-1.2c-0.6,0-1.1,0.1-1.6,0.4l-6.4,3.6l-4.4-7.8l6.4-3.6c1.4-0.8,2-2.4,1.4-3.9
		l-0.1-0.3v-0.1c-0.1-0.2-0.2-0.5-0.2-0.7l-0.1-0.3c-0.5-1.5-0.9-2.8-1.2-4.1c-0.1-0.2-0.1-0.5-0.2-0.7l-0.2-0.9v-0.1
		c-0.1-0.3-0.2-0.7-0.2-1c-0.1-0.6-0.2-1.1-0.3-1.8l-0.1-0.5c0-0.2,0-0.3-0.1-0.4c-0.1-0.7-0.2-1.4-0.2-2.4v-0.1v-0.4
		c-0.1-0.9-0.1-1.8-0.1-2.7c0-1.9,0.1-3.8,0.3-5.6c0.2-1.6-0.8-3.1-2.3-3.5l-7.1-2l2.4-8.7l7.1,2c0.3,0.1,0.6,0.1,0.9,0.1
		c1.3,0,2.5-0.7,3-1.9c0.4-0.8,0.8-1.6,1.2-2.5l0.1-0.3c0.3-0.6,0.6-1.1,0.9-1.6c0.1-0.1,0.1-0.2,0.2-0.3c2.9-4.9,6.7-9.3,11.2-12.8
		c1.3-1,1.6-2.8,0.8-4.1l-3.6-6.4l7.8-4.4l3.6,6.4c0.6,1,1.7,1.6,2.8,1.6c0.4,0,0.8-0.1,1.2-0.2c1.4-0.5,2.9-1,4.4-1.4
		c0.2,0,0.4,0,0.6-0.1c3.8-1,7.7-1.4,11.6-1.4c1.8,0,3.5,0.1,5.3,0.3h0.3c1.5,0,2.7-1,3.1-2.4l2-7.2l8.7,2.4l-2,7.1
		c-0.4,1.5,0.3,3.2,1.8,3.8c6.8,3.1,12.8,7.7,17.5,13.6c1,1.3,2.7,1.6,4.1,0.8l6.4-3.6l4.4,7.8l-6.4,3.6c-1.4,0.8-2,2.5-1.4,4
		c2.7,7,3.6,14.6,2.8,22c-0.2,1.6,0.8,3.1,2.4,3.5l7.1,2L789.9,92.6z"/>
	<path class="st2" d="M736.2,59.1c-7.8,0-14.1,6.3-14.1,14.1c0,7.8,6.3,14.1,14.1,14.1s14.1-6.3,14.1-14.1c0,0,0,0,0,0
		C750.3,65.4,744,59.1,736.2,59.1z M736.2,80.8c-4.2,0-7.6-3.4-7.6-7.6c0-4.2,3.4-7.6,7.6-7.6c4.2,0,7.6,3.4,7.6,7.6c0,0,0,0,0,0
		C743.8,77.4,740.4,80.8,736.2,80.8L736.2,80.8z"/>
	<path class="st3" d="M785.6,78.8c0.9-7.9-0.1-15.8-2.9-23.3c-0.1-0.2,0-0.5,0.2-0.6l8.8-5l-7.2-12.6l-8.8,5
		c-0.2,0.1-0.5,0.1-0.6-0.1c-4.9-6.2-11.3-11.1-18.5-14.4c-0.2-0.1-0.3-0.3-0.3-0.6l2.7-9.8l-14-3.9l-2.8,9.9
		c-0.1,0.2-0.3,0.4-0.5,0.3c-1.9-0.2-3.7-0.3-5.6-0.3c-4.1,0-8.2,0.5-12.2,1.5c-0.1,0-0.2,0-0.3,0l0,0c-1.7,0.4-3.4,1-5.1,1.6
		c-0.2,0.1-0.5,0-0.6-0.2l-5-8.8l-12.7,7.1l5,8.8c0.1,0.2,0.1,0.5-0.1,0.6c-4.7,3.8-8.8,8.4-11.8,13.6l-0.1,0.1
		c-0.4,0.6-0.7,1.2-1,1.8l-0.2,0.3c-0.5,1-0.9,1.8-1.3,2.7c-0.1,0.2-0.3,0.3-0.5,0.3l-9.8-2.7l-3.9,14l9.8,2.7
		c0.2,0.1,0.4,0.3,0.3,0.5c-0.2,2-0.3,4-0.3,6c0,1,0,2,0.1,2.9v0.4c0.1,1,0.2,1.8,0.2,2.5c0,0.2,0,0.3,0.1,0.5l0.1,0.5
		c0.1,0.6,0.2,1.3,0.3,1.9c0.1,0.4,0.2,0.8,0.3,1.2l0.2,0.9c0,0.3,0.1,0.5,0.2,0.8c0.3,1.3,0.8,2.8,1.3,4.3l0.1,0.3
		c0.1,0.3,0.2,0.5,0.3,0.8l0.1,0.3c0.1,0.2,0,0.4-0.2,0.6l-8.8,5l7.2,12.6l8.8-5c0.2-0.1,0.5-0.1,0.6,0.1c2.1,2.6,4.5,5.1,7.1,7.2
		l0.4,0.4l1.4,1.1c0.3,0.3,0.7,0.5,1,0.7l0.2,0.2c0.3,0.2,0.5,0.4,0.8,0.6c2.4,1.6,4.9,3.1,7.6,4.3c0.2,0.1,0.3,0.3,0.3,0.5
		l-2.7,9.8l14,3.9l2.7-9.8c0.1-0.2,0.3-0.4,0.5-0.3h0.2c0.8,0.1,1.6,0.2,2.4,0.2h0.4c0.9,0,1.8,0.1,2.6,0.1l0.2,0.5v-0.5h0.8
		c0.7,0,1.3,0,2-0.1h0.5h0.3c0.7,0,1.4-0.1,2.2-0.2l0.5-0.1c0.9-0.1,1.8-0.3,2.6-0.4c2.9-0.5,5.7-1.3,8.5-2.4c0.2-0.1,0.5,0,0.6,0.2
		l5,8.8l12.7-7.2l-5-8.8c-0.1-0.2-0.1-0.5,0.1-0.6l0.3-0.3l0.3-0.2l0.2-0.2c2.4-2,4.6-4.2,6.5-6.6c0.5-0.6,1-1.2,1.4-1.8l0.2-0.3
		c0.4-0.6,0.8-1.2,1.3-1.8l0.5,0.1l-0.4-0.3c0.6-0.9,1.2-1.9,1.8-2.9l0.1-0.2c0.2-0.4,0.4-0.7,0.6-1.1s0.3-0.5,0.4-0.8l0.1-0.2
		c0.3-0.5,0.5-1,0.8-1.5c0-0.1,0.1-0.2,0.1-0.3l0.1-0.3c0.1-0.2,0.3-0.3,0.6-0.3l9.8,2.7l3.9-14l-9.8-2.7
		C785.7,79.3,785.5,79,785.6,78.8z M736.2,84.5c-6.3,0-11.3-5.1-11.3-11.3s5.1-11.3,11.3-11.3c6.3,0,11.3,5.1,11.3,11.3c0,0,0,0,0,0
		C747.5,79.4,742.4,84.5,736.2,84.5L736.2,84.5L736.2,84.5z"/>
	<path class="st2" d="M796.4,81.3l-9.8-2.7c0.8-7.8-0.2-15.6-2.9-22.9l8.9-5c0.1-0.1,0.2-0.1,0.2-0.2c0.1-0.1,0.1-0.3,0-0.4
		l-7.7-13.5c-0.1-0.1-0.2-0.2-0.3-0.2c-0.1,0-0.2,0-0.3,0l-8.9,5c-4.9-6.1-11.1-10.9-18.2-14.2l2.7-9.8c0.1-0.2-0.1-0.5-0.3-0.6
		c0,0,0,0,0,0l-14.9-4.1c-0.2-0.1-0.5,0.1-0.6,0.3l-2.8,10c-1.8-0.2-3.5-0.3-5.3-0.3c-4.2,0-8.3,0.5-12.3,1.5l0,0
		c-0.1,0-0.2,0-0.3,0c-1.7,0.4-3.4,1-5,1.6l-5-8.9c-0.1-0.2-0.4-0.3-0.6-0.2c0,0,0,0,0,0l-13.4,7.6c-0.1,0.1-0.2,0.2-0.2,0.3
		c0,0.1,0,0.2,0,0.4l5,8.9c-4.7,3.8-8.6,8.3-11.7,13.5c0,0-0.1,0.1-0.1,0.1c-0.4,0.6-0.7,1.3-1.1,1.9l-0.2,0.3
		c-0.4,0.8-0.8,1.6-1.2,2.4l-9.8-2.7c-0.2-0.1-0.5,0.1-0.6,0.3l-4.1,14.9c0,0.1,0,0.2,0.1,0.4c0.1,0.1,0.2,0.2,0.3,0.2l9.8,2.7
		c-0.2,1.9-0.3,3.8-0.3,5.7c0,1,0,2,0.1,2.9v0.4c0.1,1,0.2,1.8,0.2,2.6c0,0.2,0.1,0.3,0.1,0.5l0.1,0.5c0.1,0.6,0.2,1.3,0.3,1.9
		c0.1,0.4,0.2,0.8,0.3,1.2l0.2,0.8l0.2,0.8c0.3,1.4,0.8,2.8,1.3,4.4l0.1,0.3l0.3,0.8l-8.9,5c-0.1,0-0.2,0.1-0.2,0.2
		c-0.1,0.1-0.1,0.3,0,0.4l7.8,13.5c0.1,0.1,0.2,0.2,0.3,0.2c0.1,0,0.2,0,0.3-0.1l8.9-5c2.1,2.6,4.4,5,7,7.1l0.4,0.3
		c0.5,0.4,0.9,0.7,1.4,1.1s0.7,0.5,1,0.8l0.2,0.2l0.8,0.6c2.3,1.6,4.8,3,7.4,4.2l-2.7,9.8c0,0,0,0,0,0.1c0,0.1,0,0.2,0,0.3
		c0.1,0.1,0.2,0.2,0.3,0.2l14.9,4.1h0.1c0.2,0,0.4-0.1,0.4-0.3l2.7-9.9c0.8,0.1,1.5,0.1,2.3,0.2h0.4c0.9,0,1.8,0.1,2.7,0.1h1
		c0.7,0,1.4,0,2.1-0.1h0.5h0.3c0.7-0.1,1.5-0.1,2.3-0.2l0.5-0.1c0.9-0.1,1.8-0.3,2.7-0.4c2.8-0.5,5.6-1.3,8.3-2.3l5,8.9
		c0.1,0.2,0.4,0.3,0.6,0.2c0,0,0,0,0,0l13.4-7.6c0.1-0.1,0.2-0.2,0.2-0.3c0-0.1,0-0.2,0-0.4l-5-8.9l0,0l0.5-0.4
		c2.4-2,4.7-4.3,6.7-6.8c0.5-0.6,1-1.2,1.4-1.8l0.2-0.3c0.4-0.6,0.9-1.2,1.3-1.8l0.1-0.1c0.6-0.9,1.3-1.9,1.8-3l0.1-0.2
		c0.2-0.4,0.4-0.8,0.6-1.1s0.3-0.6,0.4-0.8l0.1-0.2c0.3-0.5,0.5-1,0.8-1.6l0.1-0.2l9.9,2.7c0.2,0.1,0.5-0.1,0.6-0.3c0,0,0,0,0,0
		l4.1-14.9c0-0.2,0-0.3-0.1-0.4C796.5,81.4,796.4,81.3,796.4,81.3z M791.8,96l-9.8-2.7c-0.2-0.1-0.5,0.1-0.6,0.3l-0.1,0.3
		c0,0.1-0.1,0.2-0.1,0.3c-0.2,0.5-0.5,1-0.8,1.5l-0.1,0.2c-0.1,0.3-0.3,0.5-0.4,0.8s-0.4,0.7-0.6,1.1l-0.1,0.2c-0.6,1-1.2,2-1.8,2.9
		l0.4,0.3l-0.5-0.1c-0.4,0.6-0.8,1.2-1.3,1.8l-0.2,0.3c-0.4,0.6-0.9,1.2-1.4,1.8c-2,2.4-4.2,4.6-6.5,6.6l-0.2,0.2l-0.3,0.2l-0.3,0.3
		c-0.2,0.1-0.2,0.4-0.1,0.6l5,8.8l-12.7,7.2l-5-8.8c-0.1-0.2-0.4-0.3-0.6-0.2c-2.8,1-5.6,1.8-8.5,2.4c-0.9,0.2-1.8,0.3-2.6,0.4
		l-0.5,0.1c-0.7,0.1-1.4,0.2-2.2,0.2h-0.3h-0.5c-0.7,0-1.3,0.1-2,0.1h-0.8v0.5l-0.2-0.5c-0.9,0-1.7,0-2.6-0.1h-0.4
		c-0.8,0-1.6-0.1-2.4-0.2h-0.2c-0.2,0-0.4,0.1-0.5,0.3l-2.7,9.8l-14-3.9l2.7-9.8c0.1-0.2-0.1-0.4-0.3-0.5c-2.6-1.2-5.2-2.6-7.6-4.3
		c-0.3-0.2-0.5-0.4-0.8-0.6l-0.2-0.2c-0.3-0.2-0.7-0.5-1-0.7l-1.4-1.1l-0.4-0.4c-2.6-2.2-5-4.6-7.1-7.2c-0.1-0.2-0.4-0.2-0.6-0.1
		l-8.8,5l-7.2-12.6l8.8-5c0.2-0.1,0.3-0.3,0.2-0.6l-0.1-0.3c-0.1-0.3-0.2-0.5-0.3-0.8l-0.1-0.3c-0.5-1.6-1-3-1.3-4.3
		c-0.1-0.3-0.1-0.5-0.2-0.8l-0.2-0.9c-0.1-0.4-0.2-0.8-0.3-1.2c-0.1-0.6-0.2-1.3-0.3-1.9l-0.1-0.5c0-0.2,0-0.3-0.1-0.5
		c-0.1-0.7-0.2-1.5-0.2-2.5v-0.4c-0.1-0.9-0.1-1.9-0.1-2.9c0-2,0.1-4,0.3-6c0-0.2-0.1-0.4-0.3-0.5l-9.8-2.7l3.9-14l9.8,2.7
		c0.2,0.1,0.4-0.1,0.5-0.3c0.4-0.9,0.8-1.7,1.3-2.7l0.2-0.3c0.3-0.6,0.7-1.2,1-1.8l0.1-0.1c3.1-5.2,7.1-9.8,11.8-13.6
		c0.2-0.1,0.2-0.4,0.1-0.6l-5-8.8l12.6-7.2l5,8.8c0.1,0.2,0.3,0.3,0.6,0.2c1.7-0.6,3.4-1.2,5.1-1.6l0,0c0.1,0,0.2,0,0.3,0
		c4-1,8.1-1.5,12.2-1.5c1.9,0,3.7,0.1,5.6,0.3c0.2,0,0.4-0.1,0.5-0.3l2.8-9.9l14,3.9l-2.7,9.8c-0.1,0.2,0.1,0.5,0.3,0.6
		c7.2,3.3,13.5,8.2,18.4,14.4c0.1,0.2,0.4,0.2,0.6,0.1l8.8-5l7.2,12.6l-8.8,5c-0.2,0.1-0.3,0.3-0.2,0.6c2.8,7.4,3.8,15.4,2.9,23.3
		c0,0.2,0.1,0.4,0.3,0.5l9.8,2.7L791.8,96z"/>
	<path class="st2" d="M736.2,61.9c-6.3,0-11.3,5.1-11.3,11.3s5.1,11.3,11.3,11.3c6.3,0,11.3-5.1,11.3-11.3c0,0,0,0,0,0
		C747.5,66.9,742.4,61.9,736.2,61.9z M736.2,83.6c-5.7,0-10.4-4.6-10.4-10.4c0-5.7,4.6-10.4,10.4-10.4c5.7,0,10.4,4.6,10.4,10.4
		c0,0,0,0,0,0C746.6,78.9,741.9,83.6,736.2,83.6L736.2,83.6z"/>
	<path class="st2" d="M661.1,34.1c-0.2-0.3-0.5-0.4-0.8-0.5l-3.7-1c0.2-3.2-0.2-6.5-1.2-9.6l3.4-1.9c0.3-0.2,0.5-0.5,0.7-0.8
		c0.2-0.5,0.2-1-0.1-1.4l-3.7-6.6c-0.2-0.4-0.6-0.6-1-0.7c-0.1,0-0.3-0.1-0.4-0.1c-0.3,0-0.6,0.1-0.8,0.2l-3.4,1.9
		c-2.1-2.4-4.7-4.4-7.6-5.9l1-3.7c0.3-0.8-0.2-1.7-1.1-2c0,0,0,0-0.1,0L635,0c-0.1,0-0.3,0-0.4,0c-0.7,0-1.3,0.5-1.5,1.2l-1,3.8
		c-0.6,0-1.1,0-1.6,0c-2.1,0-4.1,0.2-6.1,0.7c-0.1,0-0.2,0-0.3,0c-0.5,0.1-1,0.3-1.5,0.4l-1.9-3.4c-0.3-0.5-0.8-0.8-1.4-0.8
		c-0.3,0-0.5,0.1-0.8,0.2l-6.6,3.7c-0.8,0.4-1,1.4-0.6,2.1c0,0,0,0,0,0l1.9,3.4c-2,1.8-3.7,3.8-5.1,6.1c0,0-0.1,0.1-0.1,0.1
		c-0.2,0.3-0.4,0.7-0.6,1l-0.1,0.1l0,0c0,0.1-0.1,0.1-0.1,0.2l-3.7-1c-0.1,0-0.3-0.1-0.4-0.1c-0.7,0-1.3,0.5-1.5,1.2l-2,7.3
		c-0.1,0.4-0.1,0.8,0.2,1.2c0.2,0.4,0.6,0.6,1,0.7l3.7,1c0,0.6-0.1,1.2-0.1,1.8s0,1,0.1,1.5l0,0v0.2c0,0.5,0.1,0.9,0.1,1.3
		c0,0.1,0,0.2,0,0.3v0.2l0,0c0,0.3,0.1,0.6,0.2,1s0.1,0.4,0.1,0.6l0.1,0.4c0,0.1,0.1,0.3,0.1,0.4c0.1,0.5,0.3,1.1,0.5,1.7l-3.4,1.9
		c-0.8,0.4-1,1.4-0.6,2.1c0,0,0,0,0,0l3.7,6.6c0.2,0.4,0.5,0.6,0.9,0.8c0.1,0,0.3,0.1,0.4,0.1c0.3,0,0.5-0.1,0.8-0.2l3.3-1.9
		c0.9,1,1.9,1.9,2.9,2.8l0.2,0.2l0.7,0.6l0.5,0.4l0.1,0.1l0.4,0.3c0.9,0.6,1.8,1.2,2.8,1.6l-1,3.7c0,0.1,0,0.1,0,0.2
		c-0.1,0.3,0,0.7,0.2,1c0.2,0.4,0.6,0.7,1,0.8l7.3,2c0.4,0.1,0.8,0.1,1.2-0.1c0.4-0.2,0.6-0.6,0.7-1l1-3.7h0.3c0.5,0,0.9,0,1.4,0
		h0.5h1.1h0.3h0.1l1.2-0.1h0.3c0.5-0.1,0.9-0.1,1.4-0.2c1.1-0.2,2.1-0.5,3.2-0.8l1.9,3.4c0.3,0.5,0.8,0.8,1.4,0.8
		c0.3,0,0.5-0.1,0.8-0.2l6.6-3.7c0.4-0.2,0.6-0.5,0.7-0.9c0.1-0.4,0.1-0.8-0.1-1.2l-1.9-3.4c1-0.9,2-1.9,2.8-3
		c0.3-0.3,0.5-0.6,0.7-0.9l0.1-0.1c0.2-0.3,0.4-0.6,0.7-0.9l0,0l0,0c0.3-0.5,0.6-1,0.9-1.5v-0.1c0.1-0.2,0.2-0.4,0.3-0.6l0.2-0.4
		l3.7,1c0.1,0,0.3,0,0.4,0c0.7,0,1.3-0.5,1.5-1.2l2-7.3C661.4,35,661.4,34.5,661.1,34.1z M656.7,40.4l-3.5-1c-0.1,0-0.3-0.1-0.4-0.1
		c-0.6,0-1.2,0.4-1.4,0.9v0.1l0,0c0,0,0,0.1-0.1,0.1c-0.1,0.2-0.2,0.5-0.3,0.7l-0.1,0.1l-0.2,0.4l-0.3,0.5v0.1
		c-0.3,0.5-0.6,0.9-0.8,1.4l0,0l0,0l-0.6,0.8l-0.1,0.1c-0.2,0.3-0.4,0.5-0.7,0.8c-0.9,1.1-1.9,2.1-3,3l-0.1,0.1l-0.2,0.1l-0.1,0.1
		c-0.6,0.5-0.8,1.3-0.4,2l1.8,3.1l-3.8,2.2l-1.8-3.1c-0.3-0.5-0.8-0.8-1.4-0.8c-0.2,0-0.4,0-0.6,0.1c-1.3,0.5-2.6,0.8-3.9,1.1
		c-0.4,0.1-0.8,0.1-1.2,0.2h-0.3l-1,0.1h-0.1H632h-0.9h-0.4h-1.2h-0.2l-1.1-0.1h-0.3c-0.7,0-1.3,0.5-1.5,1.2l-1,3.5l-4.2-1.2l1-3.5
		c0.1-0.7-0.3-1.4-1-1.6c-1.2-0.6-2.4-1.2-3.5-2l-0.3-0.3l-0.1-0.1l-0.4-0.3c-0.2-0.1-0.4-0.3-0.6-0.5l-0.2-0.2
		c-1.2-1-2.3-2.1-3.3-3.3c-0.5-0.6-1.3-0.8-2-0.4l-3.1,1.8l-2.2-3.8l3.1-1.8c0.7-0.4,1-1.2,0.7-1.9v-0.1l0,0c0-0.1-0.1-0.2-0.1-0.3
		l-0.1-0.1c-0.3-0.7-0.4-1.4-0.6-2c0-0.1,0-0.2-0.1-0.3l-0.1-0.4l0,0c0-0.2-0.1-0.3-0.1-0.5s-0.1-0.6-0.1-0.9V34c0-0.1,0-0.1,0-0.2
		c0-0.3-0.1-0.7-0.1-1.2l0,0v-0.2c0-0.4,0-0.9,0-1.3c0-0.9,0-1.8,0.1-2.8c0.1-0.8-0.4-1.5-1.2-1.7l-3.5-0.9l1.2-4.2l3.5,1
		c0.1,0,0.3,0.1,0.4,0.1c0.6,0,1.2-0.4,1.4-0.9c0.2-0.4,0.4-0.8,0.6-1.2l0.1-0.1c0.2-0.3,0.3-0.5,0.4-0.8l0.1-0.1
		c1.4-2.4,3.3-4.5,5.4-6.3c0.6-0.5,0.8-1.3,0.4-2l-1.8-3.1l3.8-2.2l1.8,3.1c0.3,0.5,0.8,0.8,1.4,0.8c0.2,0,0.4,0,0.6-0.1
		c0.7-0.3,1.4-0.5,2.2-0.7c0.1,0,0.2,0,0.3,0c1.8-0.5,3.7-0.7,5.7-0.7c0.9,0,1.7,0.1,2.6,0.2h0.2c0.7,0,1.3-0.5,1.5-1.2l1-3.5
		l4.2,1.2l-1,3.5c-0.2,0.7,0.2,1.5,0.9,1.9c3.3,1.5,6.3,3.8,8.5,6.6c0.3,0.4,0.8,0.6,1.2,0.6c0.3,0,0.5-0.1,0.8-0.2l3.1-1.8l2.2,3.8
		l-3.1,1.8c-0.7,0.4-1,1.2-0.7,1.9c1.3,3.4,1.7,7.1,1.3,10.7c-0.1,0.8,0.4,1.5,1.2,1.7l3.5,0.9L656.7,40.4z"/>
	<path class="st2" d="M630.5,24c-3.8,0-6.9,3.1-6.9,6.9s3.1,6.9,6.9,6.9c3.8,0,6.9-3.1,6.9-6.9C637.4,27.1,634.3,24,630.5,24z
		 M630.5,34.6c-2.1,0-3.7-1.7-3.7-3.7c0-2.1,1.7-3.7,3.7-3.7c2.1,0,3.7,1.7,3.7,3.7c0,0,0,0,0,0C634.2,33,632.6,34.6,630.5,34.6z"/>
	<path class="st3" d="M654.7,33.7c0.4-3.8-0.1-7.7-1.4-11.4c0-0.1,0-0.2,0.1-0.3l4.3-2.4l-3.5-6.2l-4.3,2.4c-0.1,0.1-0.2,0-0.3-0.1
		c-2.4-3-5.5-5.4-9-7c-0.1,0-0.1-0.2-0.1-0.3l1.3-4.8l-6.8-1.9l-1.3,4.8c0,0.1-0.1,0.2-0.2,0.2c-0.9-0.1-1.8-0.2-2.7-0.2
		c-2,0-4,0.2-6,0.7c0,0-0.1,0-0.1,0l0,0c-0.8,0.2-1.7,0.5-2.5,0.8c-0.1,0-0.2,0-0.3-0.1l-2.4-4.3L613,7.3l2.4,4.3
		c0.1,0.1,0,0.2-0.1,0.3c-2.3,1.8-4.3,4.1-5.8,6.7l0,0c-0.2,0.3-0.3,0.6-0.5,0.9l-0.1,0.1c-0.3,0.5-0.5,0.9-0.7,1.3
		c0,0.1-0.2,0.1-0.3,0.1l-4.8-1.3l-1.9,6.9l4.8,1.3c0.1,0,0.2,0.1,0.2,0.3c-0.1,1-0.2,1.9-0.2,2.9c0,0.5,0,1,0,1.4v0.2
		c0,0.5,0.1,0.9,0.1,1.2v0.2v0.3c0,0.3,0.1,0.6,0.2,0.9s0.1,0.4,0.1,0.6l0.1,0.4c0,0.1,0,0.3,0.1,0.4c0.2,0.7,0.4,1.4,0.6,2.1V39
		c0,0.1,0.1,0.3,0.1,0.4l0.1,0.2c0,0.1,0,0.2-0.1,0.3l-4.3,2.4l3.5,6.2l4.3-2.4c0.1-0.1,0.2,0,0.3,0.1c1,1.3,2.2,2.5,3.5,3.5
		l0.2,0.2c0.2,0.2,0.4,0.4,0.7,0.5s0.3,0.2,0.5,0.4l0.1,0.1c0.1,0.1,0.3,0.2,0.4,0.3c1.2,0.8,2.4,1.5,3.7,2.1c0.1,0,0.2,0.2,0.1,0.3
		l-1.3,4.8L626,60l1.3-4.8c0-0.1,0.1-0.2,0.2-0.2h0.1c0.4,0,0.8,0.1,1.2,0.1h0.2h1.3l0.1,0.2v-0.2h0.4h1h0.3h0.1
		c0.4,0,0.7-0.1,1-0.1h0.3l1.3-0.2c1.4-0.3,2.8-0.7,4.2-1.2c0.1,0,0.2,0,0.3,0.1l2.4,4.3l6.2-3.5l-2.4-4.3c-0.1-0.1,0-0.2,0.1-0.3
		l0.2-0.1l0.1-0.1l0.1-0.1c1.2-1,2.2-2,3.2-3.2c0.3-0.3,0.5-0.6,0.7-0.9l0.1-0.1c0.2-0.3,0.4-0.6,0.6-0.9l0.2,0.1l-0.2-0.1
		c0.3-0.4,0.6-0.9,0.9-1.4V43c0.1-0.2,0.2-0.4,0.3-0.6s0.1-0.3,0.2-0.4l0.1-0.1c0.1-0.3,0.3-0.5,0.4-0.8l0.1-0.1l0.1-0.1
		c0-0.1,0.2-0.1,0.3-0.1l4.8,1.3l1.9-6.8l-4.8-1.3C654.5,33.9,654.6,33.7,654.7,33.7z M630.5,36.4c-3.1,0-5.5-2.5-5.5-5.5
		c0-3.1,2.5-5.5,5.5-5.5c3.1,0,5.5,2.5,5.5,5.5C636,34,633.6,36.4,630.5,36.4z"/>
	<path class="st2" d="M659.9,34.9l-4.8-1.3c0.4-3.8-0.1-7.6-1.4-11.2l4.3-2.5c0,0,0.1-0.1,0.1-0.1c0-0.1,0-0.1,0-0.2l-3.7-6.6
		c0-0.1-0.1-0.1-0.1-0.1c-0.1,0-0.1,0-0.2,0l-4.3,2.5c-2.4-3-5.4-5.3-8.9-6.9l1.3-4.8c0-0.1,0-0.2-0.1-0.3c0,0,0,0,0,0l-7.3-2
		c-0.1,0-0.2,0-0.3,0.2l-1.4,4.9c-0.9-0.1-1.7-0.1-2.6-0.1c-2,0-4,0.3-6,0.7l0,0c0,0-0.1,0-0.1,0c-0.8,0.2-1.6,0.5-2.4,0.8l-2.5-4.3
		c-0.1-0.1-0.2-0.1-0.3-0.1L612.6,7c-0.1,0-0.1,0.1-0.1,0.1c0,0.1,0,0.1,0,0.2l2.5,4.3c-2.3,1.8-4.2,4.1-5.7,6.6l0,0
		c-0.2,0.3-0.4,0.6-0.5,1l-0.1,0.1c-0.2,0.4-0.4,0.8-0.6,1.2l-4.8-1.3c-0.1,0-0.2,0-0.3,0.2l-2,7.3c0,0.1,0,0.1,0,0.2
		c0,0,0.1,0.1,0.1,0.1l4.8,1.3c-0.1,0.9-0.1,1.9-0.1,2.8c0,0.5,0,1,0,1.4v0.2c0,0.5,0.1,0.9,0.1,1.3c0,0.1,0,0.2,0,0.3v0.3
		c0,0.3,0.1,0.6,0.2,0.9s0.1,0.4,0.1,0.6l0.1,0.4c0,0.1,0.1,0.3,0.1,0.4c0.2,0.7,0.4,1.4,0.6,2.1l0.1,0.1c0,0.1,0.1,0.2,0.1,0.4
		l-4.3,2.5c0,0-0.1,0.1-0.1,0.1c0,0.1,0,0.1,0,0.2l3.7,6.6c0,0.1,0.1,0.1,0.1,0.1c0.1,0,0.1,0,0.2,0l4.3-2.5c1,1.3,2.2,2.4,3.4,3.5
		l0.2,0.2l0.7,0.5l0.5,0.4l0.1,0.1l0.4,0.3c1.1,0.8,2.3,1.4,3.6,2l-1.3,4.8l0,0c0,0,0,0.1,0,0.1c0,0.1,0.1,0.1,0.1,0.1l7.3,2h0.1
		c0,0,0.1,0,0.1,0c0.1,0,0.1-0.1,0.1-0.1l1.3-4.8l1.1,0.1h0.2h1.3h0.5h1h0.2h0.1c0.4,0,0.7-0.1,1.1-0.1h0.2l1.3-0.2
		c1.4-0.3,2.7-0.6,4-1.1l2.5,4.3c0.1,0.1,0.2,0.1,0.3,0.1l6.6-3.7c0.1,0,0.1-0.1,0.1-0.1c0-0.1,0-0.1,0-0.2l-2.5-4.3l0,0l0.2-0.2
		c1.2-1,2.3-2.1,3.3-3.3l0.7-0.9l0.1-0.1c0.2-0.3,0.4-0.6,0.6-0.9v-0.1c0.3-0.4,0.6-0.9,0.9-1.5v-0.1c0.1-0.2,0.2-0.4,0.3-0.6
		l0.2-0.4v-0.1c0.1-0.3,0.3-0.5,0.4-0.8v-0.1l4.8,1.3c0.1,0,0.2,0,0.3-0.2l2-7.3c0-0.1,0-0.1,0-0.2C659.8,35,659.9,34.9,659.9,34.9z
		 M657.7,42.1l-4.8-1.3c-0.1,0-0.2,0-0.3,0.1l-0.1,0.1l-0.1,0.1c-0.1,0.3-0.2,0.5-0.4,0.8l-0.1,0.1c-0.1,0.1-0.1,0.3-0.2,0.4
		s-0.2,0.4-0.3,0.6V43c-0.3,0.5-0.6,1-0.9,1.4l0.2,0.1l-0.2-0.1c-0.2,0.3-0.4,0.6-0.6,0.9l-0.1,0.1c-0.2,0.3-0.4,0.6-0.7,0.9
		c-1,1.2-2,2.2-3.2,3.2l-0.1,0.1l-0.1,0.1l-0.2,0.1c-0.1,0.1-0.1,0.2-0.1,0.3l2.4,4.3l-6.2,3.5l-2.4-4.3c-0.1-0.1-0.2-0.1-0.3-0.1
		c-1.3,0.5-2.7,0.9-4.2,1.2l-1.3,0.2h-0.3c-0.3,0-0.7,0.1-1,0.1h-0.1h-0.3h-1h-0.4v0.2l-0.1-0.2h-1.3h-0.2c-0.4,0-0.8-0.1-1.2-0.1
		h-0.1c-0.1,0-0.2,0.1-0.2,0.2l-1.3,4.8l-6.8-1.9l1.3-4.8c0-0.1,0-0.2-0.1-0.3c-1.3-0.6-2.5-1.3-3.7-2.1c-0.1-0.1-0.3-0.2-0.4-0.3
		l-0.1-0.1c-0.2-0.1-0.3-0.2-0.5-0.4s-0.4-0.3-0.7-0.5l-0.2-0.2c-1.3-1.1-2.4-2.2-3.5-3.5c-0.1-0.1-0.2-0.1-0.3-0.1l-4.3,2.4
		l-3.5-6.2l4.3-2.4c0.1-0.1,0.1-0.2,0.1-0.3l-0.1-0.2c0-0.1-0.1-0.3-0.1-0.4v-0.1c-0.3-0.8-0.5-1.5-0.6-2.1c0-0.1-0.1-0.3-0.1-0.4
		l-0.1-0.4c0-0.2-0.1-0.4-0.1-0.6s-0.1-0.6-0.2-0.9v-0.3v-0.2c0-0.4-0.1-0.7-0.1-1.2v-0.2c0-0.5,0-0.9,0-1.4c0-1,0-2,0.2-2.9
		c0-0.1-0.1-0.2-0.2-0.3l-4.8-1.3l1.9-6.8l4.8,1.3c0.1,0,0.2,0,0.3-0.1c0.2-0.4,0.4-0.9,0.7-1.3l0.1-0.1c0.2-0.3,0.3-0.6,0.5-0.9
		l0,0c1.5-2.6,3.5-4.8,5.8-6.7c0.1-0.1,0.1-0.2,0.1-0.3l-2.4-4.3l6.2-3.5l2.4,4.3c0,0.1,0.2,0.1,0.3,0.1c0.8-0.3,1.7-0.6,2.5-0.8
		l0,0c0,0,0.1,0,0.1,0c2-0.5,4-0.7,6-0.7c0.9,0,1.8,0.1,2.7,0.2c0.1,0,0.2-0.1,0.2-0.2l1.3-4.8l6.8,1.9l-1.3,4.8
		c0,0.1,0,0.2,0.1,0.3c3.5,1.6,6.6,4,9,7c0.1,0.1,0.2,0.1,0.3,0.1l4.3-2.4l3.5,6.2l-4.3,2.4c-0.1,0.1-0.1,0.2-0.1,0.3
		c1.4,3.6,1.9,7.5,1.4,11.4c0,0.1,0.1,0.2,0.2,0.3l4.8,1.3L657.7,42.1z"/>
	<path class="st2" d="M630.5,25.4c-3.1,0-5.5,2.5-5.5,5.5c0,3.1,2.5,5.5,5.5,5.5c3.1,0,5.5-2.5,5.5-5.5
		C636,27.9,633.6,25.4,630.5,25.4z M630.5,36c-2.8,0-5.1-2.3-5.1-5.1s2.3-5.1,5.1-5.1c2.8,0,5.1,2.3,5.1,5.1c0,0,0,0,0,0
		C635.6,33.7,633.3,36,630.5,36z"/>
	<path class="st2" d="M745.4,341.8H542.3c-1.8,0-3.2,1.4-3.2,3.2v112.3c0,1.8,1.5,3.2,3.2,3.2h203.1c1.8,0,3.2-1.5,3.2-3.2V345
		C748.6,343.2,747.2,341.8,745.4,341.8z M742.1,364.6v89.5H545.5v-89.5L742.1,364.6z M742.1,348.3v9.9H545.5v-9.9H742.1z"/>
	<rect x="542.8" y="345.5" class="st3" width="202.1" height="15.4"/>
	<rect x="542.8" y="361.8" class="st4" width="202.1" height="95.1"/>
	<path class="st2" d="M745.4,344.5H542.3c-0.3,0-0.5,0.2-0.5,0.5l0,0v112.3c0,0.3,0.2,0.5,0.5,0.5c0,0,0,0,0,0h203.1
		c0.3,0,0.5-0.2,0.5-0.5V345C745.8,344.7,745.6,344.5,745.4,344.5z M744.9,456.9H542.8v-95.1h202.1V456.9z M744.9,360.9H542.8v-15.4
		h202.1V360.9z"/>
	<polygon class="st1" points="627.5,388.5 627.5,428.8 660.2,409 	"/>
	<rect x="547.9" y="350.1" class="st4" width="158.1" height="6.3"/>
	<circle class="st5" cx="715.3" cy="353.2" r="3.1"/>
	<circle class="st5" cx="725" cy="353.2" r="3.1"/>
	<circle class="st1" cx="734.5" cy="353.2" r="3.1"/>
	<path class="st3" d="M703.1,486.2c-0.1-6.8,5.3-12.4,12.1-12.5c6.8-0.1,12.4,5.3,12.5,12.1c0.1,6.7-5.3,12.3-12,12.5
		C708.8,498.4,703.2,493,703.1,486.2C703.1,486.2,703.1,486.2,703.1,486.2z M716.5,491.2L716.5,491.2c1,0,2,0,3.1,0
		c0.8,0,1.2-0.5,0.9-1.3c-0.1-0.1,0-0.3,0.1-0.4c0.4-0.3,0.5-0.8,0.2-1.2c0,0,0-0.1-0.1-0.1c-0.1-0.2-0.1-0.3,0.1-0.4
		c0.4-0.3,0.5-1,0.2-1.4c0,0,0,0,0,0c-0.1-0.1-0.1-0.3,0-0.4c0,0,0,0,0,0c0.3-0.3,0.4-0.8,0.2-1.3c-0.2-0.4-0.7-0.7-1.1-0.7
		c-1,0-1.9,0-2.9,0c-0.3,0-0.4-0.1-0.3-0.4s0.3-0.8,0.5-1.2c0.3-0.8,0.4-1.7,0.1-2.5c-0.1-0.6-0.6-0.9-1.2-0.9
		c-0.6,0.1-0.8,0.4-0.8,1.1c0,0.5-0.2,1-0.5,1.3c-0.3,0.3-0.5,0.5-0.7,0.8c-0.8,0.9-1.4,2-1.6,3.2c-0.2,1.6,0,3.2-0.1,4.8
		c0,0.7,0.2,0.9,0.9,0.9L716.5,491.2z M709,488.2c0,1,0,2,0,2.9c0,0.4,0.2,0.6,0.6,0.6c0.6,0,1.2,0,1.8,0c0.3,0.1,0.5-0.1,0.6-0.3
		c0-0.1,0-0.2,0-0.2c0-2,0-4,0-6c0-0.4-0.2-0.5-0.6-0.5c-0.6,0-1.2,0-1.8,0c-0.4,0-0.6,0.2-0.6,0.6
		C709.1,486.3,709.1,487.3,709,488.2L709,488.2z"/>
	<path class="st6" d="M716.5,491.2h-3c-0.7,0-0.9-0.2-0.9-0.9c0-1.6-0.1-3.2,0.1-4.8c0.2-1.2,0.8-2.3,1.6-3.2
		c0.2-0.3,0.5-0.6,0.7-0.8c0.4-0.4,0.5-0.8,0.5-1.3c0-0.7,0.2-1,0.8-1.1c0.6-0.1,1.1,0.3,1.2,0.9c0.3,0.8,0.2,1.7-0.1,2.5
		c-0.2,0.4-0.3,0.8-0.5,1.2s-0.1,0.4,0.3,0.4c1,0,1.9,0,2.9,0c0.5,0,0.9,0.2,1.1,0.7c0.2,0.4,0.2,0.9-0.2,1.3
		c-0.1,0.1-0.1,0.3,0,0.4c0,0,0,0,0,0c0.3,0.4,0.3,1.1-0.1,1.4c0,0,0,0,0,0c-0.2,0.1-0.2,0.2-0.1,0.4c0.3,0.4,0.3,0.9-0.1,1.2
		c0,0-0.1,0-0.1,0.1c-0.1,0.1-0.2,0.3-0.1,0.4c0.3,0.8-0.1,1.3-0.9,1.3C718.6,491.3,717.6,491.3,716.5,491.2L716.5,491.2z"/>
	<path class="st6" d="M709.1,488.3c0-1,0-1.9,0-2.9c0-0.5,0.2-0.6,0.6-0.6c0.6,0,1.2,0,1.8,0c0.4,0,0.6,0.1,0.6,0.5c0,2,0,4,0,6
		c0,0.3-0.1,0.5-0.4,0.6c-0.1,0-0.2,0-0.2,0c-0.6,0-1.2,0-1.8,0c-0.4,0-0.6-0.2-0.6-0.6C709.1,490.2,709.1,489.2,709.1,488.3z"/>
	<path class="st3" d="M907.8,290.5c-0.1-10.2,8-18.5,18.2-18.6s18.5,8,18.6,18.2c0.1,10.1-7.9,18.4-18,18.6
		c-10.2,0.2-18.6-7.9-18.8-18.1C907.8,290.6,907.8,290.6,907.8,290.5z M928,298.1h4.6c1.3,0,1.8-0.8,1.4-2c-0.1-0.2,0-0.5,0.2-0.6
		c0.6-0.4,0.8-1.2,0.4-1.8c0-0.1-0.1-0.1-0.1-0.2c-0.2-0.3-0.1-0.4,0.1-0.6c0.6-0.5,0.8-1.4,0.3-2c0,0-0.1-0.1-0.1-0.1
		c-0.2-0.2-0.2-0.5,0-0.6c0,0,0,0,0,0c0.5-0.5,0.6-1.3,0.3-1.9c-0.3-0.6-1-1-1.7-1c-1.4,0-2.9,0-4.3,0c-0.5,0-0.6-0.1-0.4-0.6
		c0.3-0.6,0.5-1.2,0.7-1.8c0.5-1.2,0.6-2.5,0.2-3.8c-0.2-0.8-0.9-1.4-1.8-1.3c-0.8,0.1-1.2,0.6-1.1,1.7c0,0.7-0.2,1.5-0.8,2
		c-0.4,0.4-0.7,0.8-1.1,1.2c-1.3,1.3-2.1,2.9-2.4,4.7c-0.2,2.4-0.1,4.8-0.1,7.2c0,1,0.3,1.3,1.3,1.3
		C925.1,298.1,926.5,298.1,928,298.1L928,298.1z M916.8,293.6c0,1.5,0,2.9,0,4.4c0,0.6,0.2,0.9,0.9,0.9c0.9,0,1.8,0,2.7,0.1
		c0.6,0.1,0.9-0.2,0.9-0.9c0-3,0-5.9,0-8.9c0-0.6-0.3-0.8-0.9-0.8c-0.9,0-1.8,0-2.7,0c-0.7,0-0.9,0.3-0.9,0.9
		C916.8,290.8,916.8,292.2,916.8,293.6z"/>
	<path class="st6" d="M928.1,298.1c-1.5,0-3,0-4.5,0c-1,0-1.3-0.3-1.3-1.3c0-2.4-0.1-4.8,0.1-7.2c0.3-1.8,1.2-3.4,2.4-4.7
		c0.3-0.4,0.7-0.8,1.1-1.2c0.5-0.5,0.8-1.3,0.8-2c0-1.1,0.3-1.5,1.1-1.7c0.8-0.1,1.6,0.5,1.8,1.3c0.4,1.2,0.4,2.6-0.2,3.8
		c-0.2,0.6-0.5,1.2-0.7,1.8c-0.2,0.4-0.1,0.6,0.4,0.6c1.4,0,2.9,0,4.3,0c0.7,0,1.4,0.4,1.7,1c0.3,0.6,0.2,1.4-0.3,1.9
		c-0.2,0.2-0.2,0.5,0,0.6c0,0,0,0,0,0c0.5,0.6,0.5,1.5-0.1,2c0,0-0.1,0.1-0.1,0.1c-0.2,0.2-0.3,0.3-0.1,0.6c0.5,0.5,0.5,1.4-0.1,1.9
		c-0.1,0-0.1,0.1-0.2,0.1c-0.2,0.1-0.3,0.4-0.2,0.6c0.4,1.2-0.1,1.9-1.4,2h-4.6V298.1z"/>
	<path class="st6" d="M916.8,293.6c0-1.4,0-2.9,0-4.3c0-0.7,0.3-0.9,0.9-0.9c0.9,0,1.8,0,2.7,0c0.6,0,0.9,0.2,0.9,0.8
		c0,3,0,5.9,0,8.9c0,0.6-0.4,0.9-0.9,0.9c-0.9-0.1-1.8-0.1-2.7-0.1c-0.6,0-0.9-0.2-0.9-0.9C916.8,296.6,916.8,295.1,916.8,293.6z"/>
	<path class="st3" d="M816.8,62.2c-0.2-15.4,12.2-28.1,27.6-28.2c15.4-0.2,28.1,12.2,28.2,27.6c0.2,15.3-12,27.9-27.3,28.2
		C830.1,90.2,816.8,77.6,816.8,62.2z M847.4,73.7L847.4,73.7c2.3,0,4.7,0,7,0c1.9,0,2.7-1.2,2.1-2.9c-0.2-0.3,0-0.7,0.3-0.9
		c1-1,1.2-1.7,0.4-3c-0.3-0.4-0.2-0.6,0.2-0.9c1-0.7,1.2-2.1,0.5-3.1c0-0.1-0.1-0.1-0.1-0.1c-0.3-0.4-0.3-0.6,0-1
		c0.7-0.8,0.9-1.9,0.4-2.9c-0.5-1-1.5-1.5-2.6-1.5c-2.2,0.1-4.4,0-6.5,0c-0.7,0-0.9-0.2-0.6-0.9c0.4-0.9,0.8-1.8,1.1-2.7
		c0.8-1.8,0.9-3.8,0.3-5.7c-0.3-1.3-1.4-2.1-2.7-2c-1.3,0.2-1.8,0.9-1.7,2.5c0.1,1.1-0.4,2.2-1.2,3c-0.6,0.6-1.1,1.2-1.6,1.9
		c-1.7,2.1-3.4,4.3-3.7,7.2c-0.4,3.6-0.1,7.3-0.2,10.9c0,1.5,0.4,2,2,2C842.9,73.7,845.1,73.7,847.4,73.7L847.4,73.7z M830.4,66.9
		c0,2.2,0,4.4,0,6.6c0,1,0.4,1.3,1.3,1.4c1.3-0.1,2.7,0,4,0.1c0.8,0.1,1.4-0.3,1.4-1.3c0-4.5,0-9,0-13.5c0-1-0.4-1.3-1.3-1.2
		c-1.3,0-2.7,0-4,0c-1,0-1.4,0.4-1.4,1.4C830.4,62.6,830.3,64.8,830.4,66.9L830.4,66.9z"/>
	<path class="st6" d="M847.4,73.7c-2.3,0-4.5,0-6.8,0c-1.6,0-2-0.5-2-2c0.1-3.6-0.2-7.3,0.2-10.9c0.3-2.9,2-5,3.7-7.2
		c0.5-0.6,1.1-1.3,1.6-1.9c0.8-0.8,1.2-1.9,1.2-3c-0.1-1.7,0.4-2.4,1.7-2.5c1.3-0.1,2.4,0.7,2.7,2c0.6,1.9,0.5,3.9-0.3,5.7
		c-0.4,0.9-0.7,1.8-1.1,2.7c-0.3,0.6-0.1,0.9,0.6,0.9c2.2,0,4.3,0,6.5,0c1.1-0.1,2.1,0.5,2.6,1.5c0.5,0.9,0.4,2.1-0.4,2.9
		c-0.3,0.4-0.3,0.6,0,1c0.8,0.9,0.7,2.3-0.2,3.1c0,0-0.1,0.1-0.1,0.1c-0.3,0.3-0.4,0.4-0.2,0.9c0.8,1.3,0.7,2-0.4,3
		c-0.3,0.2-0.4,0.6-0.3,0.9c0.6,1.8-0.2,2.9-2.1,2.9C852.1,73.8,849.8,73.8,847.4,73.7L847.4,73.7z"/>
	<path class="st6" d="M830.3,66.9c0-2.2,0-4.4,0-6.5c0-1,0.4-1.4,1.4-1.4c1.3,0,2.7,0,4,0c0.9,0,1.3,0.3,1.3,1.2c0,4.5,0,9,0,13.5
		c0,1-0.6,1.4-1.4,1.3c-1.3-0.1-2.7-0.2-4-0.1c-0.9,0-1.3-0.4-1.3-1.4C830.4,71.4,830.3,69.2,830.3,66.9z"/>
	<path class="st3" d="M430.1,301.5c-0.5-27,21.5-50,48.3-50.6c28.2-0.7,51,20.6,51.7,49c0.5,27.5-21.3,50.3-48.8,51
		C453.8,351.5,430.1,329.1,430.1,301.5z M484.9,322.1L484.9,322.1c4.2,0,8.3,0,12.5,0c3.4,0,4.9-2.1,3.8-5.3
		c-0.3-0.6-0.1-1.3,0.5-1.7c1.9-1.7,2-3.1,0.7-5.3c-0.5-0.8-0.3-1,0.3-1.6c1.9-1.7,2.1-3.6,0.6-5.8c-0.5-0.5-0.5-1.2,0-1.7
		c0,0,0.1-0.1,0.1-0.1c1.3-1.4,1.5-3.4,0.7-5.1c-0.9-1.7-2.7-2.8-4.6-2.6c-3.9,0.1-7.8,0-11.7,0.1c-1.3,0-1.5-0.4-1-1.5
		c0.7-1.6,1.4-3.2,2-4.8c1.4-3.2,1.6-6.9,0.5-10.2c-0.8-2.5-2.6-3.9-4.8-3.6s-3.2,1.5-3.1,4.5c0.1,2-0.6,4-2.1,5.5
		c-1,1.1-2,2.2-3,3.3c-3.1,3.8-6.1,7.7-6.6,12.8c-0.7,6.5-0.2,13-0.3,19.5c-0.1,2.8,0.8,3.6,3.6,3.6
		C476.8,322.1,480.9,322.1,484.9,322.1L484.9,322.1z M454.4,310c0,4,0.1,7.9,0,11.9c0,1.8,0.7,2.4,2.4,2.4c2.4-0.1,4.8,0,7.2,0.2
		c1.5,0.2,2.5-0.5,2.5-2.3c0-8.1,0-16.1,0-24.2c0-1.7-0.8-2.3-2.3-2.2c-2.4,0-4.8,0.1-7.3,0c-1.8-0.1-2.5,0.7-2.5,2.5
		C454.4,302.2,454.4,306.1,454.4,310L454.4,310z"/>
	<path class="st6" d="M484.9,322.1c-4,0-8.1,0-12.1,0c-2.8,0-3.7-0.9-3.6-3.6c0.2-6.5-0.3-13,0.3-19.5c0.5-5.2,3.5-9,6.6-12.8
		c0.9-1.1,1.9-2.2,3-3.3c1.4-1.4,2.2-3.4,2.1-5.5c-0.1-3,0.8-4.2,3.1-4.5s4,1.1,4.8,3.6c1.1,3.4,1,7-0.5,10.2
		c-0.7,1.6-1.3,3.2-2,4.8c-0.5,1.1-0.2,1.5,1,1.5c3.9-0.1,7.8,0,11.7-0.1c1.9-0.1,3.8,0.9,4.6,2.6c0.9,1.7,0.6,3.7-0.7,5.1
		c-0.5,0.4-0.6,1.2-0.2,1.7c0,0,0.1,0.1,0.1,0.1c1.5,2.1,1.3,4-0.6,5.8c-0.6,0.6-0.7,0.8-0.3,1.6c1.3,2.3,1.2,3.6-0.7,5.3
		c-0.6,0.3-0.8,1.1-0.5,1.7c1.1,3.2-0.3,5.3-3.8,5.3C493.3,322.1,489.1,322.1,484.9,322.1L484.9,322.1z"/>
	<path class="st6" d="M454.4,310c0-3.9,0-7.8,0-11.7c0-1.8,0.7-2.6,2.5-2.5c2.4,0.1,4.8,0,7.3,0c1.5,0,2.4,0.5,2.3,2.2
		c0,8.1,0,16.1,0,24.2c0,1.8-1,2.5-2.5,2.3c-2.4-0.2-4.8-0.3-7.2-0.2c-1.7,0-2.4-0.6-2.4-2.4C454.4,317.9,454.3,313.9,454.4,310z"/>
	<path class="st1" d="M805.2,376.3c0-8.2,6.6-14.8,14.7-14.8c0,0,0.1,0,0.1,0c8,0,14.5,6.6,14.5,14.6c0,8.1-6.5,14.8-14.7,14.9
		C811.8,390.9,805.2,384.4,805.2,376.3C805.2,376.3,805.2,376.3,805.2,376.3z M819.9,372l-0.2-0.4c-0.8-1.7-2.5-2.7-4.4-2.5
		c-1.7,0-3.3,1-4,2.6c-0.9,2-0.7,4.4,0.6,6.1c1.6,2.4,3.7,4.4,6.2,5.9c2.1,1.3,1.3,1.2,3.4,0c1.5-0.9,2.8-2,4-3.2
		c1.5-1.3,2.7-3.1,3.3-5.1c0.6-1.9,0-4-1.5-5.3c-1.4-1.2-3.3-1.5-5-0.7C821.2,369.9,820.3,370.8,819.9,372L819.9,372z"/>
	<path class="st6" d="M819.9,372c0.4-1.2,1.3-2.1,2.4-2.5c1.7-0.8,3.6-0.5,5,0.7c1.5,1.3,2.1,3.4,1.5,5.3c-0.6,2-1.7,3.7-3.3,5.1
		c-1.2,1.2-2.5,2.3-4,3.2c-2.1,1.2-1.3,1.3-3.4,0c-2.5-1.4-4.6-3.4-6.2-5.9c-1.3-1.8-1.6-4.1-0.6-6.1c0.7-1.6,2.3-2.6,4-2.6
		c1.8-0.2,3.6,0.8,4.4,2.5L819.9,372z"/>
	<path class="st1" d="M500.3,399.8c0-8.1,6.5-14.8,14.7-14.8c0.1,0,0.1,0,0.2,0c8,0,14.5,6.5,14.5,14.6c0,8.1-6.5,14.8-14.7,14.9
		C506.8,414.4,500.3,407.9,500.3,399.8z M515,395.5c-0.1-0.2-0.2-0.3-0.2-0.4c-0.8-1.7-2.5-2.7-4.4-2.5c-1.8,0-3.4,1-4,2.6
		c-0.9,2-0.7,4.4,0.6,6.2c1.6,2.4,3.7,4.4,6.2,5.8c2.1,1.3,1.3,1.2,3.4,0c1.5-0.9,2.8-2,4-3.2c1.5-1.3,2.7-3.1,3.3-5.1
		c0.6-1.9,0-4-1.5-5.3c-1.4-1.2-3.3-1.5-5-0.7C516.2,393.4,515.4,394.3,515,395.5L515,395.5z"/>
	<path class="st6" d="M515,395.5c0.4-1.2,1.3-2.1,2.4-2.5c1.7-0.8,3.6-0.5,5,0.7c1.5,1.3,2.1,3.4,1.5,5.3c-0.6,2-1.7,3.7-3.3,5.1
		c-1.2,1.2-2.5,2.3-4,3.2c-2.1,1.2-1.3,1.3-3.4,0c-2.5-1.4-4.6-3.4-6.2-5.8c-1.3-1.8-1.6-4.1-0.6-6.2c0.7-1.6,2.3-2.7,4-2.6
		c1.8-0.2,3.6,0.8,4.4,2.5C514.8,395.2,514.9,395.3,515,395.5z"/>
	<path class="st1" d="M897.1,213.3c0-16,12.9-29,28.9-29.1c0.1,0,0.1,0,0.2,0c15.8,0.1,28.5,12.9,28.5,28.6
		c0,16-12.9,29.1-28.9,29.2C910,242.2,897.1,229.3,897.1,213.3C897.1,213.4,897.1,213.4,897.1,213.3z M926.1,204.9
		c-0.2-0.4-0.3-0.6-0.4-0.8c-1.8-3.6-4.8-5-8.6-4.9c-3.5-0.1-6.7,1.9-8,5.1c-2,4.3-1.1,8.3,1.3,12.1c3.1,4.7,7.3,8.7,12.2,11.5
		c4,2.5,2.5,2.4,6.6,0c2.9-1.8,5.5-3.9,7.9-6.3c3-2.8,5.4-6,6.4-10c1.1-3.7-0.1-7.8-3-10.3c-2.9-2.6-6.3-2.6-9.8-1.3
		C928.5,200.8,926.7,202.6,926.1,204.9L926.1,204.9z"/>
	<path class="st6" d="M926,204.9c0.8-2.3,2.5-4.1,4.8-5c3.5-1.3,6.9-1.3,9.8,1.3c2.9,2.6,4.1,6.6,3,10.3c-1,4-3.4,7.1-6.4,10
		c-2.4,2.4-5.1,4.5-7.9,6.3c-4.1,2.4-2.6,2.5-6.6,0c-4.9-2.8-9.1-6.7-12.2-11.5c-2.4-3.8-3.3-7.8-1.3-12.1c1.3-3.2,4.5-5.3,8-5.1
		c3.8-0.1,6.8,1.4,8.6,4.9C925.7,204.3,925.8,204.6,926,204.9z"/>
	<path class="st1" d="M603.8,123.3c0-11.8,9.5-21.3,21.3-21.4c0.1,0,0.1,0,0.2,0c11.6,0,21,9.4,21,21c0,0,0,0,0,0.1
		c0,11.8-9.4,21.3-21.2,21.5c-11.7,0-21.2-9.4-21.2-21.1C603.8,123.4,603.8,123.4,603.8,123.3z M625.1,117.1l-0.3-0.6
		c-1.1-2.4-3.6-3.9-6.3-3.6c-2.5-0.1-4.9,1.4-5.8,3.8c-1.5,3.1-0.8,6.1,0.9,8.9c2.3,3.5,5.4,6.4,9,8.4c3,1.8,1.8,1.7,4.9,0
		c2.1-1.3,4.1-2.9,5.8-4.6c2.2-1.9,3.9-4.5,4.7-7.3c0.8-2.7,0-5.7-2.2-7.6c-2.1-1.9-4.6-1.9-7.2-1
		C626.9,114.1,625.6,115.5,625.1,117.1L625.1,117.1z"/>
	<path class="st6" d="M625.1,117.1c0.6-1.7,1.8-3,3.5-3.7c2.5-0.9,5.1-0.9,7.2,1c2.2,1.9,3,4.8,2.2,7.6c-0.8,2.8-2.5,5.4-4.7,7.3
		c-1.8,1.8-3.7,3.3-5.8,4.6c-3,1.8-1.9,1.9-4.9,0c-3.6-2.1-6.7-5-9-8.4c-1.7-2.8-2.4-5.8-0.9-8.9c1-2.3,3.3-3.8,5.8-3.8
		c2.7-0.2,5.2,1.2,6.3,3.6L625.1,117.1z"/>
	<path class="st1" d="M439.8,194.4c0-11.3,9.2-20.5,20.5-20.6c0.1,0,0.1,0,0.2,0c11.2,0,20.2,9.1,20.2,20.3
		c0,11.3-9.1,20.6-20.4,20.7C449,214.8,439.9,205.7,439.8,194.4C439.8,194.4,439.8,194.4,439.8,194.4z M460.4,188.4l-0.3-0.6
		c-1.1-2.3-3.5-3.7-6.1-3.5c-2.4,0-4.7,1.4-5.6,3.6c-1.4,3-0.8,5.9,0.9,8.6c2.2,3.4,5.2,6.2,8.7,8.1c2.9,1.7,1.8,1.7,4.7,0
		c2-1.3,3.9-2.8,5.6-4.5c2.2-1.9,3.7-4.3,4.5-7c0.8-2.6,0-5.5-2.1-7.3c-2-1.9-4.5-1.9-6.9-1C462.1,185.5,460.9,186.8,460.4,188.4
		L460.4,188.4z"/>
	<path class="st6" d="M460.4,188.4c0.5-1.6,1.8-2.9,3.4-3.5c2.5-0.9,4.9-0.9,6.9,1c2.1,1.8,2.9,4.7,2.1,7.3c-0.8,2.7-2.4,5.2-4.5,7
		c-1.7,1.7-3.6,3.2-5.6,4.5c-2.9,1.7-1.8,1.8-4.7,0c-3.5-2-6.5-4.8-8.7-8.1c-1.7-2.7-2.3-5.5-0.9-8.6c1-2.3,3.2-3.7,5.6-3.6
		c2.6-0.2,5,1.2,6.1,3.5L460.4,188.4z"/>
	<path class="st5" d="M860.7,390.4c-1.7,0-3.2-1.4-3.2-3.1c0-1,0.5-1.9,1.2-2.5l43-33.1l-56.7-34.5c-1.5-0.9-2-2.8-1.1-4.3
		c0.9-1.5,2.8-2,4.3-1.1l0,0l60.6,36.9c0.9,0.5,1.4,1.5,1.5,2.5c0.1,1-0.4,2-1.2,2.7l-46.6,35.9
		C862.1,390.1,861.4,390.4,860.7,390.4z"/>
	<circle class="st3" cx="846.7" cy="314.4" r="25.1"/>
	<circle class="st3" cx="907.3" cy="351.4" r="16.3"/>
	<circle class="st3" cx="860.7" cy="387.2" r="11"/>
	<circle class="st5" cx="865.1" cy="265.1" r="14.3"/>
	<path class="st4" d="M859.8,269.8l1.3-3.2c0.6,0.5,1.2,0.8,1.9,1.1c0.6,0.3,1.3,0.4,1.9,0.4c0.3,0,0.6-0.1,0.9-0.2
		c0.2-0.1,0.3-0.3,0.3-0.6c0-0.2-0.1-0.4-0.3-0.5c-0.4-0.2-0.9-0.3-1.4-0.4l-1.2-0.3c-0.9-0.1-1.7-0.6-2.3-1.2
		c-1.2-1.4-1.1-3.5,0.3-4.9c0.8-0.7,1.8-1.2,2.9-1.3v-1.3h2v1.2c0.6,0,1.3,0.1,1.9,0.3c0.6,0.2,1.2,0.4,1.7,0.7l-1.3,3.1
		c-0.5-0.3-1-0.6-1.6-0.8c-0.4-0.2-0.9-0.3-1.3-0.3c-0.3,0-0.7,0.1-1,0.2c-0.2,0.1-0.3,0.3-0.3,0.6c0,0.3,0.5,0.6,1.6,0.8h0.1
		l1.2,0.2c0.9,0.1,1.7,0.5,2.3,1.1c0.5,0.5,0.8,1.3,0.8,2.1c0.1,1.1-0.3,2.1-1.1,3c-0.9,0.8-2,1.3-3.2,1.4v1.4h-2v-1.4
		c-0.8,0-1.6-0.1-2.3-0.4C861.1,270.6,860.4,270.2,859.8,269.8z"/>
	<circle class="st5" cx="630.5" cy="491.2" r="19.1"/>
	<path class="st4" d="M623.4,497.5l1.8-4.3c0.8,0.6,1.6,1.1,2.6,1.5c0.8,0.3,1.7,0.5,2.6,0.5c0.4,0,0.9-0.1,1.2-0.3
		c0.3-0.2,0.5-0.4,0.4-0.8c0-0.3-0.2-0.5-0.4-0.6c-0.6-0.2-1.2-0.4-1.8-0.5l-1.7-0.3c-1.2-0.2-2.2-0.8-3-1.6
		c-1.6-1.9-1.4-4.7,0.3-6.5c1.1-1,2.4-1.6,3.9-1.7v-1.7h2.6v1.6c0.8,0,1.7,0.1,2.5,0.4c0.8,0.2,1.6,0.6,2.3,1l-1.8,4.1
		c-0.7-0.4-1.3-0.7-2.1-1c-0.6-0.2-1.2-0.3-1.8-0.3c-0.4,0-0.9,0.1-1.3,0.3c-0.3,0.1-0.5,0.4-0.5,0.8c0,0.4,0.7,0.8,2.1,1h0.2
		l1.5,0.3c1.2,0.2,2.2,0.7,3.1,1.5c0.7,0.7,1.1,1.7,1.1,2.8c0.1,1.5-0.4,2.9-1.4,3.9c-1.2,1.1-2.7,1.7-4.2,1.9v1.8h-2.7v-1.8
		c-1,0-2-0.2-3-0.5C625.2,498.6,624.3,498.1,623.4,497.5z"/>
	<circle class="st5" cx="807.6" cy="441.2" r="32.9"/>
	<path class="st4" d="M795.4,451.9l3.1-7.4c1.3,1.1,2.8,1.9,4.4,2.6c1.4,0.6,3,0.9,4.5,0.9c0.7,0,1.5-0.1,2.1-0.5
		c0.5-0.3,0.8-0.8,0.8-1.3c0-0.4-0.3-0.8-0.7-1c-1-0.4-2.1-0.7-3.2-0.9l-2.8-0.6c-2-0.3-3.8-1.3-5.2-2.8c-1.3-1.5-1.9-3.3-1.9-5.3
		c0-2.2,0.8-4.4,2.5-5.9c1.8-1.7,4.2-2.7,6.7-2.9V424h4.6v2.8c1.5,0,2.9,0.3,4.3,0.6c1.4,0.4,2.7,0.9,4,1.7l-3,7.1
		c-1.1-0.7-2.3-1.3-3.6-1.8c-1-0.4-2-0.6-3.1-0.6c-0.8,0-1.5,0.1-2.2,0.5c-0.5,0.3-0.8,0.8-0.8,1.3c0,0.7,1.2,1.3,3.7,1.8l0.3,0.1
		l2.7,0.5c2,0.3,3.9,1.2,5.3,2.5c1.3,1.3,1.9,3,1.9,4.8c0.1,2.5-0.8,4.9-2.5,6.8c-2,1.9-4.6,3-7.3,3.2v3.2h-4.6v-3.2
		c-1.8,0-3.6-0.3-5.3-0.9C798.5,453.8,796.9,453,795.4,451.9z"/>
	<circle class="st5" cx="539.1" cy="104.3" r="45.9"/>
	<path class="st4" d="M522.1,119.4l4.3-10.4c1.9,1.5,4,2.7,6.2,3.6c2,0.8,4.1,1.2,6.3,1.2c1,0.1,2.1-0.2,3-0.6
		c0.7-0.4,1.1-1.1,1.1-1.8c0-0.6-0.4-1.2-1-1.4c-1.4-0.6-2.9-1-4.4-1.2l-4-0.8c-2.8-0.5-5.3-1.8-7.2-3.9c-1.8-2-2.7-4.7-2.6-7.4
		c-0.1-3.1,1.2-6.1,3.5-8.2c2.6-2.3,5.8-3.7,9.3-4v-4.1h6.4v3.9c2,0.1,4,0.4,6,0.9c1.9,0.5,3.8,1.3,5.6,2.3l-4.2,9.9
		c-1.6-1-3.2-1.9-5-2.5c-1.4-0.5-2.8-0.8-4.3-0.8c-1.1-0.1-2.1,0.2-3.1,0.7c-0.7,0.4-1.1,1.1-1.1,1.8c0,1,1.7,1.9,5.2,2.5l0.4,0.1
		l3.7,0.7c2.8,0.4,5.4,1.6,7.4,3.6c1.7,1.8,2.7,4.2,2.7,6.6c0.2,3.5-1.1,6.9-3.5,9.4c-2.3,2.4-5.7,3.9-10.2,4.5v4.4h-6.4v-4.4
		C531,123.8,526.2,122.2,522.1,119.4L522.1,119.4z"/>
	
		<ellipse transform="matrix(0.1602 -0.9871 0.9871 0.1602 186.1782 826.6083)" class="st5" cx="578.9" cy="303.9" rx="17.5" ry="17.5"/>
	<path class="st4" d="M572.4,309.6l1.7-3.9c0.7,0.6,1.5,1,2.4,1.4c0.8,0.3,1.6,0.5,2.4,0.5c0.4,0,0.8-0.1,1.1-0.3
		c0.3-0.1,0.4-0.4,0.4-0.7c0-0.2-0.1-0.5-0.4-0.5c-0.5-0.2-1.1-0.4-1.7-0.5l-1.5-0.3c-1.1-0.2-2-0.7-2.8-1.5c-0.7-0.8-1-1.8-1-2.8
		c0-1.2,0.5-2.3,1.3-3.1c1-0.9,2.2-1.4,3.5-1.5v-1.6h2.4v1.5c0.8,0,1.5,0.1,2.3,0.3c0.7,0.2,1.5,0.5,2.1,0.9l-1.6,3.8
		c-0.6-0.4-1.2-0.7-1.9-1c-0.5-0.2-1.1-0.3-1.6-0.3c-0.4,0-0.8,0.1-1.2,0.3c-0.3,0.1-0.4,0.4-0.4,0.7c0,0.4,0.7,0.7,2,1h0.2l1.4,0.3
		c1.1,0.2,2.1,0.6,2.8,1.4c0.7,0.7,1,1.6,1,2.5c0.1,1.3-0.4,2.6-1.3,3.6c-1.1,1-2.4,1.6-3.9,1.7v1.7h-2.4v-1.7
		C575.8,311.3,574,310.7,572.4,309.6L572.4,309.6z"/>
</g>
</svg>
