<svg xmlns="http://www.w3.org/2000/svg" viewBox="0 0 1235.81 1022.67"><defs><style>.cls-1{isolation:isolate;}.cls-2{fill:#e8eaec;}.cls-3{fill:#c9cbce;}.cls-4{fill:#fff;}.cls-5{fill:#a88383;}.cls-6{fill:#9b5756;}.cls-7{fill:#c38882;}.cls-8{fill:#9ac465;}.cls-9{fill:#d1d2d5;}.cls-10{fill:#31567a;}.cls-11{mix-blend-mode:multiply;}.cls-12{fill:#dfe4f3;}.cls-13{fill:#074752;}.cls-14{fill:#4b88c1;}.cls-15{fill:#f7d1a0;}.cls-16{fill:#e9af94;}.cls-17{fill:#ed4848;}.cls-18{fill:#1f3a49;}.cls-19{fill:#43253d;}.cls-20{fill:#daa77b;}.cls-21{fill:#5abfb6;}</style></defs><title>Artboard 14</title><g class="cls-1"><g id="Layer_1" data-name="Layer 1"><rect class="cls-2" x="746.59" y="804.26" width="16.7" height="12.16" transform="translate(1509.88 1620.68) rotate(180)"/><rect class="cls-2" x="736.91" y="808.12" width="38.55" height="155.99"/><polygon class="cls-2" points="795.12 1018.98 795.12 904.02 785.73 904.02 785.73 885.56 782.95 885.56 782.95 876.36 745.94 876.36 745.94 1018.98 795.12 1018.98"/><rect class="cls-2" x="745.17" y="782.56" width="3.24" height="74.62" transform="translate(1493.58 1639.73) rotate(180)"/><rect class="cls-2" x="752.37" y="782.56" width="3.24" height="74.62" transform="translate(1507.97 1639.73) rotate(180)"/><path class="cls-3" d="M739.67,915.89H701.73V748.94h37.94Zm-33.56-4.38H735.3V753.31H706.11Z"/><rect class="cls-2" x="647.83" y="799.31" width="69.73" height="219.68"/><rect class="cls-2" x="709.49" y="857.12" width="63.9" height="161.86"/><rect class="cls-2" x="703.92" y="876.36" width="38.55" height="142.63"/><rect class="cls-4" x="719.03" y="880.07" width="33.14" height="6.42" transform="translate(1471.2 1766.56) rotate(180)"/><rect class="cls-4" x="719.03" y="891.79" width="33.14" height="6.41" transform="translate(1471.2 1790) rotate(180)"/><rect class="cls-4" x="719.03" y="903.51" width="33.14" height="6.41" transform="translate(1471.2 1813.43) rotate(180)"/><rect class="cls-4" x="719.03" y="915.22" width="33.14" height="6.41" transform="translate(1471.2 1836.86) rotate(180)"/><rect class="cls-4" x="719.03" y="926.94" width="33.14" height="6.42" transform="translate(1471.2 1860.29) rotate(180)"/><rect class="cls-4" x="719.03" y="938.65" width="33.14" height="6.42" transform="translate(1471.2 1883.72) rotate(180)"/><rect class="cls-4" x="719.03" y="950.37" width="33.14" height="6.41" transform="translate(1471.2 1907.16) rotate(180)"/><rect class="cls-4" x="719.03" y="962.09" width="33.14" height="6.41" transform="translate(1471.2 1930.59) rotate(180)"/><rect class="cls-4" x="719.03" y="973.8" width="33.14" height="6.41" transform="translate(1471.2 1954.02) rotate(180)"/><rect class="cls-2" x="880.88" y="711.47" width="19.95" height="154.3"/><rect class="cls-2" x="865.47" y="717.3" width="72.67" height="190.67"/><path class="cls-3" d="M567.23,1017.33h-77V778.84h77ZM494.56,1013h68.3V783.21h-68.3Z"/><rect class="cls-5" x="857.27" y="859.63" width="13.19" height="4.08" transform="translate(1727.74 1723.33) rotate(180)"/><rect class="cls-5" x="855.59" y="862.82" width="16.56" height="1.78" transform="translate(1727.74 1727.42) rotate(180)"/><rect class="cls-6" x="851.45" y="864.6" width="24.84" height="29.72" transform="translate(1727.74 1758.91) rotate(180)"/><polygon class="cls-2" points="949.04 1018.98 949.04 824.01 877.54 785.43 851.02 785.43 851.02 778.62 849.99 778.62 849.99 839 844.56 839 844.56 798.41 815.34 798.41 815.34 839 810.45 839 810.45 901.58 804.95 901.58 804.95 1018.98 949.04 1018.98"/><polygon class="cls-2" points="949.04 1018.98 949.04 824 892.38 793.44 892.38 1018.98 949.04 1018.98"/><path class="cls-3" d="M882,1021.17H843.91V847.42H882Zm-33.75-4.37h29.38v-165H848.29Z"/><rect class="cls-4" x="871.26" y="869.54" width="2.77" height="129.27"/><rect class="cls-4" x="865.09" y="869.54" width="2.77" height="129.27"/><rect class="cls-4" x="858.93" y="869.54" width="2.77" height="129.27"/><rect class="cls-4" x="852.77" y="869.54" width="2.77" height="129.27"/><path class="cls-3" d="M912.76,872.22H888.89V843.78h23.87Zm-19.5-4.38h15.13V848.16H893.26Z"/><rect class="cls-2" x="626.42" y="861.01" width="25.03" height="157.98"/><rect class="cls-7" x="565.84" y="856.26" width="43.73" height="23.22" transform="translate(1175.42 1735.75) rotate(180)"/><rect class="cls-2" x="652.9" y="733.55" width="23.91" height="28.59" transform="translate(1329.71 1495.68) rotate(180)"/><polygon class="cls-2" points="688.79 1018.98 688.79 913.7 688.79 859.24 681.78 859.24 681.78 742.72 619.5 742.72 619.5 727.14 616.08 727.14 616.08 742.72 603.94 742.72 603.94 863.77 597.48 863.77 597.48 827.47 542.71 834.06 542.71 852.49 539.38 852.49 536.81 1018.98 688.79 1018.98"/><rect class="cls-2" x="571.39" y="821.06" width="13.55" height="23.22" transform="translate(1156.33 1665.33) rotate(180)"/><rect class="cls-2" x="580.01" y="834.21" width="17.68" height="17.68" transform="translate(1177.7 1686.1) rotate(180)"/><rect class="cls-2" x="596.7" y="834.08" width="46.3" height="184.91"/><rect class="cls-2" x="554.28" y="872.01" width="34.51" height="146.98"/><rect class="cls-4" x="550.74" y="873.47" width="23.73" height="7.53" transform="translate(1125.21 1754.46) rotate(180)"/><rect class="cls-4" x="550.74" y="887.22" width="23.73" height="7.53" transform="translate(1125.21 1781.97) rotate(180)"/><rect class="cls-4" x="550.74" y="900.97" width="23.73" height="7.53" transform="translate(1125.21 1809.47) rotate(180)"/><rect class="cls-4" x="550.74" y="914.72" width="23.73" height="7.53" transform="translate(1125.21 1836.98) rotate(180)"/><rect class="cls-4" x="550.74" y="928.48" width="23.73" height="7.53" transform="translate(1125.21 1864.48) rotate(180)"/><rect class="cls-4" x="550.74" y="942.23" width="23.73" height="7.53" transform="translate(1125.21 1891.99) rotate(180)"/><rect class="cls-4" x="550.74" y="955.98" width="23.73" height="7.53" transform="translate(1125.21 1919.5) rotate(180)"/><rect class="cls-4" x="550.74" y="969.74" width="23.73" height="7.53" transform="translate(1125.21 1947) rotate(180)"/><rect class="cls-4" x="550.74" y="983.49" width="23.73" height="7.53" transform="translate(1125.21 1974.51) rotate(180)"/><polygon class="cls-3" points="680.93 1021.17 618.86 1021.17 618.86 761.28 680.93 761.28 680.93 765.65 623.23 765.65 623.23 1016.8 680.93 1016.8 680.93 1021.17"/><rect class="cls-4" x="650.96" y="778.1" width="33.23" height="4.46" transform="translate(1335.15 1560.66) rotate(180)"/><rect class="cls-4" x="650.96" y="786.24" width="33.23" height="4.46" transform="translate(1335.15 1576.93) rotate(180)"/><rect class="cls-4" x="650.96" y="794.38" width="33.23" height="4.46" transform="translate(1335.15 1593.21) rotate(180)"/><rect class="cls-4" x="650.96" y="802.52" width="33.23" height="4.46" transform="translate(1335.15 1609.49) rotate(180)"/><rect class="cls-4" x="650.96" y="810.65" width="33.23" height="4.46" transform="translate(1335.15 1625.76) rotate(180)"/><rect class="cls-4" x="650.96" y="818.79" width="33.23" height="4.46" transform="translate(1335.15 1642.04) rotate(180)"/><rect class="cls-4" x="650.96" y="826.93" width="33.23" height="4.46" transform="translate(1335.15 1658.32) rotate(180)"/><rect class="cls-4" x="650.96" y="835.07" width="33.23" height="4.46" transform="translate(1335.15 1674.6) rotate(180)"/><rect class="cls-4" x="650.96" y="843.21" width="33.23" height="4.46" transform="translate(1335.15 1690.87) rotate(180)"/><rect class="cls-2" x="1138.75" y="849.07" width="4.86" height="169.91"/><polygon class="cls-2" points="1111.98 965.62 1139.46 965.62 1139.46 925.77 1111.98 965.62"/><rect class="cls-2" x="1111.04" y="963.58" width="42.3" height="55.4"/><rect class="cls-2" x="1141.88" y="914.31" width="4.41" height="51.5"/><path class="cls-3" d="M1162.23,1021.17h-36.29V1014h-14.8V877.21h36.28V906.3h14.81Zm-31.91-4.37h27.54V910.67H1143V881.58h-27.53v128h14.81Z"/><path class="cls-2" d="M1049.74,940.88v-124h-8.44V811h-1.9l-.78-.91h-6.83V811h-1.9v5.9h-23.48l-13.54,19.13V940.88Z"/><path class="cls-3" d="M1014.22,877.35H983.29V849h30.93ZM987.67,873h22.18V853.34H987.67Z"/><path class="cls-3" d="M1018.82,1021.17H964.59v-133h54.23ZM969,1016.8h45.48V892.57H969Z"/><path class="cls-2" d="M1068.62,1019V840.45h-2.43v40h-26.51V865h-14.5v-6.42h-7.7V865H981.06c-.13.25-.25.5-.39.74v68.63H965.42V1019Z"/><rect class="cls-4" x="960.86" y="946.46" width="27.08" height="3.84"/><rect class="cls-4" x="960.86" y="956.5" width="27.08" height="3.84"/><rect class="cls-4" x="960.86" y="965.63" width="27.08" height="3.84"/><rect class="cls-4" x="960.86" y="974.77" width="27.08" height="3.84"/><rect class="cls-4" x="960.86" y="983.9" width="27.08" height="3.84"/><rect class="cls-4" x="960.86" y="993.04" width="27.08" height="3.84"/><rect class="cls-4" x="960.86" y="1002.17" width="27.08" height="3.84"/><rect class="cls-4" x="960.86" y="1011.31" width="27.08" height="3.84"/><path class="cls-3" d="M1070.81,1021.17H996.57V878.25h74.24Zm-69.87-4.37h65.49V882.62h-65.49Z"/><rect class="cls-2" x="1054.51" y="926.8" width="31.91" height="92.19"/><rect class="cls-2" x="1039.7" y="953.92" width="31.91" height="65.06"/><rect class="cls-2" x="1065.62" y="992.22" width="31.91" height="26.77"/><rect class="cls-4" x="1038.5" y="899.75" width="13.31" height="119.23"/><rect class="cls-2" x="393.68" y="769.37" width="19.95" height="96.4"/><rect class="cls-2" x="356.37" y="775.2" width="72.67" height="132.77"/><rect class="cls-5" x="424.04" y="859.63" width="13.19" height="4.08"/><rect class="cls-5" x="422.36" y="862.82" width="16.56" height="1.78"/><rect class="cls-6" x="418.22" y="864.6" width="24.84" height="29.72"/><polygon class="cls-2" points="345.46 1018.98 345.46 824.01 416.96 785.43 443.48 785.43 443.48 778.62 444.51 778.62 444.51 839 449.94 839 449.94 733.55 479.16 733.55 479.16 839 484.06 839 484.06 901.58 489.55 901.58 489.55 1018.98 345.46 1018.98"/><polygon class="cls-2" points="231.95 1020.76 229.97 775.63 226.64 775.63 226.64 757.19 171.87 750.6 171.87 786.91 165.41 786.91 165.41 713.23 153.27 713.23 153.27 683.75 152.31 683.75 152.31 713.23 143.44 713.23 143.44 1020.76 231.95 1020.76"/><rect class="cls-2" x="180.55" y="795.14" width="34.51" height="225.62"/><rect class="cls-4" x="143.44" y="746.59" width="6.14" height="12.62"/><rect class="cls-4" x="205.37" y="767.75" width="6.77" height="12.62" transform="translate(417.51 1548.12) rotate(180)"/><path class="cls-3" d="M220.77,842H192.68v-11.9h28.09Zm-23.72-4.37H216.4v-3.15H197.05Z"/><path class="cls-3" d="M220.77,855.74H192.68v-11.9h28.09Zm-23.72-4.37H216.4v-3.16H197.05Z"/><path class="cls-3" d="M220.77,869.49H192.68v-11.9h28.09Zm-23.72-4.37H216.4V862H197.05Z"/><path class="cls-3" d="M220.77,883.25H192.68V871.34h28.09Zm-23.72-4.38H216.4v-3.16H197.05Z"/><path class="cls-3" d="M220.77,897H192.68V885.1h28.09Zm-23.72-4.37H216.4v-3.16H197.05Z"/><path class="cls-3" d="M220.77,910.75H192.68v-11.9h28.09Zm-23.72-4.37H216.4v-3.16H197.05Z"/><path class="cls-3" d="M220.77,923.8H192.68V912.6h28.09Zm-23.72-4.37H216.4V917H197.05Z"/><rect class="cls-2" x="143.44" y="849.07" width="4.86" height="169.91"/><polygon class="cls-2" points="116.67 965.62 144.15 965.62 144.15 925.77 116.67 965.62"/><rect class="cls-2" x="115.73" y="963.58" width="42.3" height="55.4"/><rect class="cls-2" x="146.57" y="914.31" width="4.41" height="51.5"/><path class="cls-3" d="M166.92,1021.17H130.63V1014h-14.8V877.21h36.28V906.3h14.81ZM135,1016.8h27.53V910.67H147.73V881.58H120.2v128H135Z"/><path class="cls-2" d="M90.76,940.88v-124H82.32V811h-1.9l-.77-.91H72.81V811h-1.9v5.9H47.44L33.9,836.05V940.88Z"/><path class="cls-3" d="M55.24,877.35H24.31V849H55.24ZM28.69,873H50.87V853.34H28.69Z"/><path class="cls-3" d="M59.84,1021.17H5.62v-133H59.84ZM10,1016.8H55.47V892.57H10Z"/><path class="cls-2" d="M109.64,1019V840.45h-2.42v40H80.7V865H66.21v-6.42H58.5V865H22.08c-.13.25-.24.5-.38.74v68.63H6.44V1019Z"/><rect class="cls-4" x="1.88" y="946.46" width="27.08" height="3.84"/><rect class="cls-4" x="1.88" y="956.5" width="27.08" height="3.84"/><rect class="cls-4" x="1.88" y="965.63" width="27.08" height="3.84"/><rect class="cls-4" x="1.88" y="974.77" width="27.08" height="3.84"/><rect class="cls-4" x="1.88" y="983.9" width="27.08" height="3.84"/><rect class="cls-4" x="1.88" y="993.04" width="27.08" height="3.84"/><rect class="cls-4" x="1.88" y="1002.17" width="27.08" height="3.84"/><rect class="cls-4" x="1.88" y="1011.31" width="27.08" height="3.84"/><path class="cls-3" d="M111.83,1021.17H37.59V878.25h74.24ZM42,1016.8h65.5V882.62H42Z"/><rect class="cls-2" x="95.54" y="926.8" width="31.91" height="92.19"/><rect class="cls-2" x="80.73" y="953.92" width="31.91" height="65.06"/><rect class="cls-2" x="106.64" y="992.22" width="31.91" height="26.77"/><rect class="cls-4" x="79.52" y="899.75" width="13.31" height="119.23"/><polygon class="cls-2" points="345.46 1018.98 345.46 824 402.12 793.44 402.12 1018.98 345.46 1018.98"/><path class="cls-3" d="M450.59,1021.17H412.47V847.42h38.12Zm-33.75-4.37h29.37v-165H416.84Z"/><rect class="cls-4" x="420.48" y="869.54" width="2.77" height="129.27" transform="translate(843.72 1868.34) rotate(180)"/><rect class="cls-4" x="426.64" y="869.54" width="2.77" height="129.27" transform="translate(856.05 1868.34) rotate(180)"/><rect class="cls-4" x="432.8" y="869.54" width="2.77" height="129.27" transform="translate(868.37 1868.34) rotate(180)"/><rect class="cls-4" x="438.96" y="869.54" width="2.77" height="129.27" transform="translate(880.69 1868.34) rotate(180)"/><path class="cls-3" d="M405.61,872.22H381.74V843.78h23.87Zm-19.5-4.38h15.13V848.16H386.11Z"/><path class="cls-2" d="M336.61,940.88V836.05l-13.54-19.13H299.59V811h-1.9v-.91h-6.83l-.78.91h-1.9v5.9h-8.44v124Z"/><path class="cls-3" d="M346.19,877.35H315.26V849h30.93ZM319.64,873h22.18V853.34H319.64Z"/><path class="cls-3" d="M364.89,1021.17H310.66v-133h54.23ZM315,1016.8h45.48V892.57H315Z"/><path class="cls-2" d="M260.86,1019V840.45h2.43v40H289.8V865h14.5v-6.42H312V865h36.43c.12.25.24.5.38.74v68.63h15.25V1019Z"/><rect class="cls-4" x="341.54" y="946.46" width="27.08" height="3.84" transform="translate(710.16 1896.77) rotate(180)"/><rect class="cls-4" x="341.54" y="956.5" width="27.08" height="3.84" transform="translate(710.16 1916.84) rotate(180)"/><rect class="cls-4" x="341.54" y="965.63" width="27.08" height="3.84" transform="translate(710.16 1935.11) rotate(180)"/><rect class="cls-4" x="341.54" y="974.77" width="27.08" height="3.84" transform="translate(710.16 1953.38) rotate(180)"/><rect class="cls-4" x="341.54" y="983.9" width="27.08" height="3.84" transform="translate(710.16 1971.65) rotate(180)"/><rect class="cls-4" x="341.54" y="993.04" width="27.08" height="3.84" transform="translate(710.16 1989.92) rotate(180)"/><rect class="cls-4" x="341.54" y="1002.17" width="27.08" height="3.84" transform="translate(710.16 2008.19) rotate(180)"/><rect class="cls-4" x="341.54" y="1011.31" width="27.08" height="3.84" transform="translate(710.16 2026.46) rotate(180)"/><path class="cls-3" d="M332.91,1021.17H258.68V878.25h74.23Zm-69.86-4.37h65.49V882.62H263.05Z"/><rect class="cls-2" x="243.06" y="926.8" width="31.91" height="92.19"/><rect class="cls-2" x="257.87" y="953.92" width="31.91" height="65.06"/><rect class="cls-2" x="231.95" y="992.22" width="31.91" height="26.77"/><rect class="cls-4" x="277.67" y="899.75" width="13.31" height="119.23"/><path class="cls-8" d="M550,846c-20.73,29.84,11.86,62.44,41.7,41.7a10.61,10.61,0,0,0,2.73-2.74c20.73-29.84-11.85-62.42-41.69-41.69A10.94,10.94,0,0,0,550,846Z"/><path class="cls-8" d="M544,821.28c-19,22.36,4.6,51.14,30.25,36.87a9.32,9.32,0,0,0,2.48-2c19-22.36-4.6-51.15-30.25-36.88A9,9,0,0,0,544,821.28Z"/><path class="cls-8" d="M526.27,885.13c-34.06,49.87,20.07,104,69.94,70a20.69,20.69,0,0,0,5.42-5.42c34.06-49.87-20.07-104-69.94-69.95A20.69,20.69,0,0,0,526.27,885.13Z"/><path class="cls-8" d="M527.83,852.48c-18,26,10.33,54.28,36.29,36.29a9.59,9.59,0,0,0,2.44-2.44c18-26-10.33-54.28-36.29-36.29A9.92,9.92,0,0,0,527.83,852.48Z"/><path class="cls-9" d="M564,988.16a2.19,2.19,0,0,1-2.19-2.19V860.2a2.19,2.19,0,1,1,4.38,0V986A2.19,2.19,0,0,1,564,988.16Z"/><path class="cls-9" d="M564,943.49a2.18,2.18,0,0,1-1.63-3.64l18.21-20.59a2.19,2.19,0,0,1,3.27,2.9l-18.21,20.59A2.19,2.19,0,0,1,564,943.49Z"/><path class="cls-9" d="M564,884.11a2.12,2.12,0,0,1-1.4-.51,2.18,2.18,0,0,1-.27-3.08l12.53-14.9a2.19,2.19,0,0,1,3.35,2.81l-12.54,14.9A2.16,2.16,0,0,1,564,884.11Z"/><path class="cls-9" d="M563.67,914.7a2.22,2.22,0,0,1-1.58-.67L546,897.11a2.19,2.19,0,1,1,3.16-3L565.25,911a2.17,2.17,0,0,1-.07,3.09A2.14,2.14,0,0,1,563.67,914.7Z"/><circle class="cls-8" cx="1004.31" cy="862.77" r="23.54"/><path class="cls-8" d="M1037,817.21c21.65,25.48-5.24,58.26-34.46,42a10.5,10.5,0,0,1-2.82-2.32c-21.67-25.48,5.23-58.27,34.45-42A10.4,10.4,0,0,1,1037,817.21Z"/><path class="cls-8" d="M1013.53,871.39c21.66,25.48-5.24,58.27-34.46,42a10.55,10.55,0,0,1-2.83-2.32c-21.65-25.48,5.25-58.27,34.46-42A10.4,10.4,0,0,1,1013.53,871.39Z"/><circle class="cls-8" cx="1018.38" cy="919.32" r="47.28"/><ellipse class="cls-8" cx="1033.36" cy="872.05" rx="29.41" ry="17.75" transform="translate(-313.97 986.11) rotate(-45)"/><path class="cls-9" d="M1014.27,1022.67a2.19,2.19,0,0,1-2.19-2.18V861.56a2.19,2.19,0,1,1,4.37,0v158.93A2.19,2.19,0,0,1,1014.27,1022.67Z"/><path class="cls-9" d="M1014.27,888.5a2.19,2.19,0,0,1-1.68-.78l-14.28-17a2.19,2.19,0,1,1,3.35-2.81l14.28,17a2.17,2.17,0,0,1-.27,3.07A2.14,2.14,0,0,1,1014.27,888.5Z"/><path class="cls-9" d="M1014.58,923.34a2.18,2.18,0,0,1-1.58-3.7l18.4-19.26a2.19,2.19,0,0,1,3.16,3l-18.4,19.27A2.15,2.15,0,0,1,1014.58,923.34Z"/><path class="cls-8" d="M852.09,913.32c-10.32,15,6,31.38,21.06,21.06a6,6,0,0,0,1.54-1.55c10.33-15-6-31.38-21.05-21.05A6,6,0,0,0,852.09,913.32Z"/><path class="cls-8" d="M843.16,895c-13.31,15.71,3.26,35.91,21.27,25.93a6.54,6.54,0,0,0,1.82-1.49C879.56,903.7,863,883.51,845,893.49A6.54,6.54,0,0,0,843.16,895Z"/><path class="cls-8" d="M857.67,928.44c-13.31,15.72,3.25,35.91,21.27,25.94a6.5,6.5,0,0,0,1.81-1.49C894.07,937.17,877.5,917,859.49,927A6.54,6.54,0,0,0,857.67,928.44Z"/><path class="cls-8" d="M832.16,938.21c-21.08,30.31,12,63.42,42.34,42.34a11.1,11.1,0,0,0,2.76-2.75c21.07-30.31-12-63.42-42.35-42.34A10.89,10.89,0,0,0,832.16,938.21Z"/><ellipse class="cls-8" cx="845.45" cy="928.81" rx="11.26" ry="18.16" transform="translate(-409.14 869.87) rotate(-45)"/><path class="cls-9" d="M857.24,1022.67a2.19,2.19,0,0,1-2.18-2.18V922.33a2.19,2.19,0,1,1,4.37,0v98.16A2.19,2.19,0,0,1,857.24,1022.67Z"/><path class="cls-9" d="M857.24,939.8a2.12,2.12,0,0,1-1.4-.51,2.18,2.18,0,0,1-.27-3.08l8.82-10.49a2.19,2.19,0,0,1,3.35,2.82L858.92,939A2.16,2.16,0,0,1,857.24,939.8Z"/><path class="cls-9" d="M857.05,961.33a2.17,2.17,0,0,1-1.58-.68l-11.36-11.9a2.19,2.19,0,1,1,3.16-3l11.36,11.9a2.19,2.19,0,0,1-.07,3.09A2.22,2.22,0,0,1,857.05,961.33Z"/><path class="cls-8" d="M313.72,1021.92a34.23,34.23,0,0,1-.75-7.06,33.84,33.84,0,1,1,66.91,7.06Z"/><path class="cls-8" d="M226.93,1021.92a26.4,26.4,0,0,1,50.9,0Z"/><path class="cls-8" d="M251,1021.92a39.16,39.16,0,1,1,77,0Z"/><path class="cls-8" d="M1127,1021.92a41.17,41.17,0,1,0-58.3,0Z"/><path class="cls-8" d="M1163.12,1021.92a31.8,31.8,0,1,0-61.59,0Z"/><path class="cls-8" d="M1189.13,1021.92a25.05,25.05,0,0,0-50,0Z"/><path class="cls-8" d="M1113.39,1021.92a28.6,28.6,0,0,0-56.69,0Z"/><path class="cls-8" d="M1117.18,1021.92a47.1,47.1,0,0,0-93.36,0Z"/><path class="cls-8" d="M1235.81,1021.9a35.6,35.6,0,0,0-70.58,0Z"/><path class="cls-8" d="M617.87,1021.92H554.18a45.49,45.49,0,1,1,63.69,0Z"/><path class="cls-8" d="M492.4,1021.92a45.49,45.49,0,0,1,87.89,0Z"/><path class="cls-8" d="M561.1,1021.92H520a32.17,32.17,0,1,1,41.11,0Z"/><path class="cls-8" d="M590.05,1021.92c0-.36,0-.73,0-1.1a47.18,47.18,0,1,1,94.36,0c0,.37,0,.74,0,1.1Z"/><path class="cls-8" d="M590.36,1021.92a37.23,37.23,0,1,1,55.53,0Z"/><path class="cls-8" d="M527.86,1021.92a42.46,42.46,0,0,1,78.37,0Z"/><path class="cls-8" d="M93.43,1021.92H46a33.88,33.88,0,1,1,47.43,0Z"/><path class="cls-8" d="M0,1021.92a33.88,33.88,0,0,1,65.45,0Z"/><path class="cls-8" d="M51.15,1021.92H20.54a24,24,0,1,1,30.61,0Z"/><path class="cls-8" d="M72.71,1021.92c0-.27,0-.54,0-.82a35.14,35.14,0,0,1,70.27,0c0,.28,0,.55,0,.82Z"/><path class="cls-8" d="M72.94,1021.92a27.72,27.72,0,1,1,41.36,0Z"/><path class="cls-8" d="M26.4,1021.92a31.62,31.62,0,0,1,58.36,0Z"/><path class="cls-8" d="M727.56,1021.92a36.63,36.63,0,1,1,58.43,0Z"/><path class="cls-8" d="M682.77,1021.92a36.6,36.6,0,0,1,68,0Z"/><path class="cls-8" d="M799.35,1021.92a38,38,0,0,1,73.25,0Z"/><path class="cls-8" d="M763.94,1021.92a30,30,0,1,1,58.93,0Z"/><path class="cls-8" d="M712,1021.92a34.12,34.12,0,0,1,58.92,0Z"/><path class="cls-8" d="M205.59,922.73c-14.41,20.83,8.3,43.54,29.13,29.13a7.93,7.93,0,0,0,2-2c14.43-20.83-8.3-43.56-29.13-29.13A7.93,7.93,0,0,0,205.59,922.73Z"/><path class="cls-8" d="M201.38,905.42c-13.22,15.61,3.23,35.68,21.13,25.76a6.25,6.25,0,0,0,1.8-1.48c13.22-15.61-3.23-35.66-21.12-25.75A6.57,6.57,0,0,0,201.38,905.42Z"/><path class="cls-8" d="M189.28,949.66c-24.39,35.07,13.92,73.38,49,49a12.89,12.89,0,0,0,3.19-3.19c24.37-35.06-13.93-73.36-49-49A12.89,12.89,0,0,0,189.28,949.66Z"/><circle class="cls-8" cx="203.66" cy="939.03" r="17.49"/><path class="cls-9" d="M215.37,1022.67a2.19,2.19,0,0,1-2.19-2.18v-87.9a2.19,2.19,0,0,1,4.37,0v87.9A2.19,2.19,0,0,1,215.37,1022.67Z"/><path class="cls-9" d="M215.37,991.46a2.15,2.15,0,0,1-1.45-.55,2.19,2.19,0,0,1-.19-3.09l12.73-14.39a2.19,2.19,0,0,1,3.27,2.9L217,990.72A2.16,2.16,0,0,1,215.37,991.46Z"/><path class="cls-9" d="M215.37,950a2.15,2.15,0,0,1-1.41-.51,2.18,2.18,0,0,1-.27-3.08L222.45,936a2.19,2.19,0,0,1,3.35,2.81L217,949.18A2.16,2.16,0,0,1,215.37,950Z"/><path class="cls-9" d="M215.17,971.34a2.19,2.19,0,0,1-1.58-.68l-11.28-11.82a2.19,2.19,0,0,1,3.16-3l11.28,11.82a2.17,2.17,0,0,1-.07,3.09A2.14,2.14,0,0,1,215.17,971.34Z"/><path class="cls-10" d="M346.39,692.89c.37,21.57,16.36,136.22,16.53,172.51s5.91,116.23,5.91,116.23l30.57-.71s3.15-66.77,9-143.89,3.92-144.44,3.92-144.44Z"/><g class="cls-11"><path class="cls-12" d="M388.88,768.29c-4.48,33.93-11.1,67.5-15.4,101.47-2.53,20-5,40.18-8,60.39-1.31-22.88-2.53-48.3-2.61-64.75-.17-36.29-16.16-150.94-16.53-172.51l42.59-.2C394.49,716.59,392.24,742.87,388.88,768.29Z"/></g><path class="cls-13" d="M401.3,992.89c-8.36,3.8-32,2.05-32,2.05v25.5l64.86.76s2.76-8.84-9.4-14.91S401.3,992.89,401.3,992.89Z"/><rect class="cls-14" x="369.28" y="981.63" width="35.09" height="13.31" transform="translate(773.66 1976.57) rotate(180)"/><path class="cls-15" d="M409.46,490a39.66,39.66,0,0,1,17.86,25.84c3.8,18.24,8.82,83.62,9.88,94.23.76,7.6-11.4,18.24-19.76,11.4S403,562.93,401.1,558.75s-13.3-32.29-13.3-32.29Z"/><path class="cls-16" d="M433.72,570.49c1.66,18.17,3,34.67,3.48,39.56.76,7.6-11.4,18.24-19.76,11.4S403,562.93,401.1,558.75s-13.3-32.29-13.3-32.29l10.58-17.81C410.61,529,422,549.82,433.72,570.49Z"/><path class="cls-13" d="M404.17,405.28s-9.1-17-21.52-23.8-30.08-3.08-38,3.11-12.8,3.93-14.68,20.35c-2.19,19.13,20.23,49.31,18.83,55.47s5.67,12.36,5.67,12.36-3.31-16.2,7.26-34.24S404.17,405.28,404.17,405.28Z"/><path class="cls-15" d="M401,403.82c-50.3-11.16-27.51,19.18-36.62,23.1s-8.76-4.22-15.48-4.25-6.94,8.66-2.83,15.8a56.52,56.52,0,0,0,4.79,7.29c5.1,7,1.9,14.9,17.47,23.16,8.37,4.44,21-.47,29.07-12.85s13.4-49.29,13.4-49.29S410.27,405.87,401,403.82Z"/><path class="cls-15" d="M375.28,464.74c-1.36,6.8,1.82,21.31,1.82,21.31S348,482,339.41,480.13c0,0,12.67-23.59,13.68-33.15Z"/><path class="cls-15" d="M360.32,479.7l-10.88-6.34s-13.15,4.08-24.49,6.34-14.49,3.07-14.49,3.07S322.68,531,357.15,531.4,398.41,487,398.41,487l-22.22-8.16Z"/><path class="cls-10" d="M299.84,692.89c.37,21.57,16.35,136.22,16.53,172.51s5.9,116.23,5.9,116.23l30.57-.71s3.16-66.77,9-143.89,3.91-144.44,3.91-144.44Z"/><path class="cls-17" d="M406.2,548.19c-2.88,7.91-1.44,46-4.32,68.3-2.55,19.83,8.87,42,15.59,72.9-34.72,14.21-70.84,8.57-107,4.83-3.55-.37-7.1-.8-10.65-1.26a.17.17,0,0,1,0-.07C304.15,647.6,301.76,521,301.76,521s12.29-8,11.58-17.34-7.55-20.13-7.55-20.13l26.72-5.39s19.05,19,34.15,15.46,16.53-11.51,16.53-11.51c19.41,5,26.27,7.93,26.27,7.93,3.19,5.71-4.18,33.82-4.18,33.82C407.44,533.14,409.07,540.29,406.2,548.19Z"/><path class="cls-17" d="M409.46,490s14.61,2.65,17.86,25.84,6.4,54.67,6.4,54.67l-37.94,2.28s-18.55-28.51-8-46.31Z"/><path class="cls-15" d="M403,552.29s3.3,29,5.58,45.51c.05.3.07.57.12.84,2.28,16.35,8.34,25.86,14.43,26.61s12.93-4.56,14.07-15.21-6.84-21.27-11.4-34.19c-1.19-3.4-2.49-6.94-3.72-10.31-3.44-9.53-6.54-17.81-6.54-17.81Z"/><path class="cls-16" d="M403,552.29s3.3,29,5.58,45.51l9.6-7.5,3.9-24.76c-3.44-9.53-6.54-17.81-6.54-17.81Z"/><path class="cls-15" d="M412.12,544.31c-1.52-2.66-8-12.54-8-12.54l-7.6-.37-3,11.77,6.46,8Z"/><rect class="cls-13" x="386.66" y="540.89" width="26.6" height="51.68" rx="0.42" ry="0.42" transform="translate(694.53 1194.74) rotate(-169.92)"/><path class="cls-15" d="M305.79,483.49s-12.6,1.55-19.44,15.23-7.86,109.14-2.28,114c8.93,7.77,19.38,3.18,47.21-3.61,26.79-6.53,64.5-28.31,64.5-28.31l-3.42-17.1s-22.94,9-36.48,11.21c-20.52,3.42-46.73,7-46.73,7s2.38-48,3.47-58.18S318.39,496.77,305.79,483.49Z"/><path class="cls-15" d="M378.3,567.11l4.94-12.92,6.84-6.08-2.66,11s10.26.38,13.68-.38,15.2-4.94,15.2-4.94l3.42,4.56-1.9,2.66,2.28,4.18-1.52,5.7,2.28,4.18-3.42,3.42,1.52,4.18s-2.66.38-3.42,1.9-8.74,0-13.3-.76-21.28,0-21.28,0Z"/><path class="cls-13" d="M354.75,992.89c-8.36,3.8-32,2.05-32,2.05v25.5l69.92.76s2.75-8.84-9.41-14.91S354.75,992.89,354.75,992.89Z"/><path class="cls-18" d="M384.67,426.35a3,3,0,0,1-4.22,4.21,1.61,1.61,0,0,1-.45-.45,3,3,0,0,1,4.22-4.21A1.92,1.92,0,0,1,384.67,426.35Z"/><ellipse class="cls-18" cx="402.55" cy="433.18" rx="3.01" ry="2.15" transform="translate(-188.4 411.52) rotate(-45)"/><path class="cls-19" d="M384.81,455.25c-3.85,0-8.06-1.26-10.69-4.88l2.17-1.58c2.85,3.93,8.24,4.26,12,3.37l.62,2.61A17.82,17.82,0,0,1,384.81,455.25Z"/><path class="cls-17" d="M305.79,483.49s-17,.68-23.21,25.16-7.16,64.12-7.16,64.12h35S325.05,533.13,325,516.6,316.12,479.36,305.79,483.49Z"/><path class="cls-13" d="M414.52,409.18c-3.72,8.12-14.26,7.36-25.91,0s-25.05-3.67-27.8-5.05-17.46-18.42-17.46-18.42,6.9-21.06,37.8-13.71C408.76,378.56,421.34,394.31,414.52,409.18Z"/><rect class="cls-14" x="322.73" y="981.63" width="35.09" height="13.31" transform="translate(680.55 1976.57) rotate(180)"/><path class="cls-20" d="M391.16,443.77c-.57,3.47-4.62.57-5.4,1.83l4.66-18.07C390.29,432.35,391.76,440.31,391.16,443.77Z"/><path class="cls-19" d="M388.23,419.65a6.55,6.55,0,0,0-3.59-2.74,6.34,6.34,0,0,0-4.83,1l-1.38-2.3a8.84,8.84,0,0,1,6.9-1.31,9.26,9.26,0,0,1,5.22,4Z"/><path class="cls-19" d="M409.45,425.07a6.5,6.5,0,0,0-3.59-2.73,6.28,6.28,0,0,0-4.82,1l-1.39-2.29a8.87,8.87,0,0,1,6.9-1.32,9.17,9.17,0,0,1,5.22,4Z"/><path class="cls-2" d="M360.09,278.85a43.35,43.35,0,1,0-75.71,0Z"/><path class="cls-2" d="M415.49,278.85a30.46,30.46,0,0,0,.54-5.6,30.81,30.81,0,1,0-61.61,0,31.36,31.36,0,0,0,.53,5.6Z"/><path class="cls-2" d="M452.15,278.85a26.28,26.28,0,0,0-50.49,0Z"/><path class="cls-2" d="M278.89,278.85a26.27,26.27,0,0,0-50.48,0Z"/><path class="cls-2" d="M244,278.85h68.71a36.11,36.11,0,1,0-68.91-.15C243.9,278.74,244,278.8,244,278.85Z"/><path class="cls-2" d="M465.76,675.25a39.78,39.78,0,0,1-.68-7.12,39.2,39.2,0,1,1,77.71,7.12Z"/><path class="cls-2" d="M438.51,675.25a26.78,26.78,0,0,1,51.45,0Z"/><path class="cls-2" d="M540.77,675.07a22.87,22.87,0,0,1,43.94,0Z"/><path class="cls-2" d="M565.69,675.25H513.42a27.47,27.47,0,1,1,52.42-.11C565.79,675.17,565.75,675.22,565.69,675.25Z"/><path class="cls-13" d="M1177.68,257.64h-70.56a6.69,6.69,0,0,1-6.67-6.68V180.41a6.68,6.68,0,0,1,6.67-6.67h70.56a6.67,6.67,0,0,1,6.67,6.67V251A6.68,6.68,0,0,1,1177.68,257.64Zm-70.56-79.53a2.3,2.3,0,0,0-2.29,2.3V251a2.31,2.31,0,0,0,2.29,2.31h70.56A2.31,2.31,0,0,0,1180,251V180.41a2.3,2.3,0,0,0-2.3-2.3Z"/><rect class="cls-2" x="1165.86" y="366.69" width="10.76" height="16.7" transform="translate(-33.24 623.42) rotate(-29.41)"/><path class="cls-13" d="M1169.82,387.94l-10.35-18.36,13.19-7.43L1183,380.51Zm-4.39-16.69,6,10.73,5.57-3.13L1171,368.11Z"/><rect class="cls-21" x="1180.16" y="378.73" width="17.7" height="55.67" rx="0.73" ry="0.73" transform="translate(-46.43 636.22) rotate(-29.41)"/><path class="cls-13" d="M1196.18,436.2a5.38,5.38,0,0,1-4.67-2.73l-24.22-43a5.37,5.37,0,0,1,2-7.3l9.89-5.57a5.5,5.5,0,0,1,7.3,2l24.22,43a5.37,5.37,0,0,1-2,7.3l-9.88,5.57A5.38,5.38,0,0,1,1196.18,436.2Zm-14.34-54.89a.91.91,0,0,0-.48.13l-9.89,5.57a1,1,0,0,0-.37,1.34l24.21,43a1,1,0,0,0,1.35.38l9.89-5.57a1,1,0,0,0,.46-.6.92.92,0,0,0-.09-.75l-24.22-43A1,1,0,0,0,1181.84,381.31Z"/><path class="cls-21" d="M1163.88,295c47,23.3,29.13,87.36-23.15,83a18.41,18.41,0,0,1-6.66-1.86c-47-23.3-29.14-87.36,23.15-83A18.27,18.27,0,0,1,1163.88,295Z"/><path class="cls-4" d="M1159.61,305.18c35.65,17.21,22.15,65.58-17.26,61.84a11.77,11.77,0,0,1-4-1.12c-35.64-17.22-22.14-65.57,17.26-61.84A11.77,11.77,0,0,1,1159.61,305.18Z"/><path class="cls-13" d="M1149,369a33.51,33.51,0,1,1,16.42-4.32A33.53,33.53,0,0,1,1149,369Zm0-62.63a29.13,29.13,0,1,0,25.39,14.83A29.16,29.16,0,0,0,1149,306.41Z"/><path class="cls-4" d="M761,173.57c19.66,28.29-11.24,59.18-39.53,39.52a10.45,10.45,0,0,1-2.59-2.59c-19.65-28.28,11.24-59.17,39.53-39.52A10.45,10.45,0,0,1,761,173.57Z"/><path class="cls-13" d="M747.25,227.25H732.64l-1.44-7.12a30.44,30.44,0,0,1-4.94-2l-6,4-10.33-10.33,4-6.05a29.23,29.23,0,0,1-2-4.94l-7.12-1.44V184.73l7.12-1.43a30.08,30.08,0,0,1,2-4.94l-4-6.06L720.21,162l6,4A29.72,29.72,0,0,1,731.2,164l1.44-7.12h14.61l1.43,7.12a29.37,29.37,0,0,1,4.94,2.05l6.06-4L770,172.3l-4,6.06a28.89,28.89,0,0,1,2,4.94l7.13,1.43v14.61L768,200.78a29.23,29.23,0,0,1-2,4.94l4,6.05-10.33,10.34-6.06-4a30.08,30.08,0,0,1-4.94,2Zm-11-4.37h7.45l1.26-6.26,1.32-.34a25.59,25.59,0,0,0,6.37-2.64l1.18-.69,5.31,3.53,5.28-5.27-3.54-5.32.69-1.18a24.82,24.82,0,0,0,2.63-6.36l.35-1.33,6.26-1.25v-7.46l-6.26-1.25-.35-1.33a24.68,24.68,0,0,0-2.63-6.36l-.69-1.18,3.54-5.32-5.28-5.28-5.32,3.54-1.17-.69a25.28,25.28,0,0,0-6.37-2.64l-1.32-.34-1.26-6.26h-7.45L735,167.46l-1.33.34a25.06,25.06,0,0,0-6.36,2.64l-1.18.69-5.32-3.54-5.27,5.28,3.53,5.31-.69,1.18a24.83,24.83,0,0,0-2.63,6.37l-.35,1.33-6.26,1.25v7.46l6.26,1.25.35,1.33a24.91,24.91,0,0,0,2.63,6.36l.69,1.18-3.53,5.32,5.27,5.28,5.32-3.54,1.18.69a25.52,25.52,0,0,0,6.36,2.64l1.33.34Z"/><path class="cls-21" d="M739.94,212.75A20.71,20.71,0,1,1,760.65,192,20.73,20.73,0,0,1,739.94,212.75Z"/><path class="cls-4" d="M750.37,183c9.54,13.88-5.56,29-19.43,19.44a5.4,5.4,0,0,1-1.43-1.43c-9.53-13.87,5.56-29,19.44-19.43A5.64,5.64,0,0,1,750.37,183Z"/><path class="cls-13" d="M739.94,207.65A15.61,15.61,0,1,1,755.55,192,15.63,15.63,0,0,1,739.94,207.65Zm0-26.85A11.24,11.24,0,1,0,751.18,192,11.25,11.25,0,0,0,739.94,180.8Z"/><polygon class="cls-21" points="668.41 172.11 689.18 151.34 703.49 172.85 689.92 186.41 668.41 172.11"/><polygon class="cls-21" points="643.79 105.94 623.02 126.71 608.72 105.2 622.28 91.64 643.79 105.94"/><polygon class="cls-21" points="689.18 126.71 668.41 105.94 689.92 91.64 703.49 105.2 689.18 126.71"/><polygon class="cls-21" points="623.02 151.34 643.79 172.11 622.28 186.41 608.72 172.85 623.02 151.34"/><polygon class="cls-21" points="688.2 153.71 688.2 124.34 713.52 129.43 713.52 148.62 688.2 153.71"/><polygon class="cls-21" points="624 124.34 624 153.71 598.68 148.62 598.68 129.43 624 124.34"/><polygon class="cls-21" points="670.79 106.92 641.41 106.92 646.51 81.6 665.69 81.6 670.79 106.92"/><polygon class="cls-21" points="641.41 171.13 670.79 171.13 665.69 196.45 646.51 196.45 641.41 171.13"/><path class="cls-21" d="M693.12,107.51c33.2,48.82-19.72,101.73-68.53,68.53a20.89,20.89,0,0,1-5.51-5.5C585.89,121.72,638.8,68.81,687.62,102A21,21,0,0,1,693.12,107.51Z"/><path class="cls-4" d="M656.1,175a36,36,0,1,1,36-36A36,36,0,0,1,656.1,175Zm0-67.64A31.64,31.64,0,1,0,687.74,139,31.68,31.68,0,0,0,656.1,107.39Z"/><path class="cls-4" d="M674.15,123.25c16.78,24.19-9.63,50.6-33.82,33.83a8.83,8.83,0,0,1-2.28-2.28c-16.77-24.2,9.63-50.6,33.83-33.83A9,9,0,0,1,674.15,123.25Z"/><rect class="cls-21" x="921.83" y="568.59" width="27.11" height="65.02"/><path class="cls-4" d="M942.38,575.14v51.91h-14V575.14h14M955.5,562H915.27v78.14H955.5V562Z"/><rect class="cls-21" x="944.52" y="549.84" width="27.11" height="83.77"/><path class="cls-4" d="M965.07,556.4v70.65h-14V556.4h14m13.12-13.12H938v96.89h40.23V543.28Z"/><rect class="cls-21" x="967.21" y="568.59" width="27.11" height="65.02"/><path class="cls-4" d="M987.77,575.14v51.91h-14V575.14h14M1000.88,562H960.66v78.14h40.22V562Z"/><rect class="cls-21" x="989.9" y="554.17" width="27.11" height="79.44"/><path class="cls-4" d="M1010.46,560.73v66.32h-14V560.73h14m13.11-13.12H983.35v92.56h40.22V547.61Z"/><rect class="cls-21" x="1012.6" y="531.1" width="27.11" height="102.51"/><path class="cls-4" d="M1033.15,537.66v89.39h-14V537.66h14m13.11-13.12H1006V640.17h40.22V524.54Z"/><polygon class="cls-4" points="902.82 576.75 962.51 538.58 987.96 558.13 1025.71 530.75 1018.48 520.78 1058.72 518.22 1044.49 556.63 1037.86 547.5 987.61 583.95 961.42 563.84 913.96 594.18 902.82 576.75"/><path class="cls-13" d="M915.1,590.05l-7.92-12.4,55.41-35.43,25.56,19.64,42-30.45-5.8-8,30.24-1.92-10.69,28.87-5.11-7-50.86,36.9-26.09-20ZM913.22,579l3.22,5L962,554.85,988,574.76l51.77-37.54,2.86,3.95,5.52-14.89-15.6,1,3.71,5.11-48.16,34.93-25.71-19.75Z"/><g id="_Group_" data-name="&lt;Group&gt;"><g id="_Group_2" data-name="&lt;Group&gt;"><path class="cls-13" d="M871.41,151.75A28.54,28.54,0,1,1,900,123.22,28.56,28.56,0,0,1,871.41,151.75Zm0-52.69a24.16,24.16,0,1,0,24.16,24.16A24.19,24.19,0,0,0,871.41,99.06Z"/></g><g id="_Group_3" data-name="&lt;Group&gt;"><path class="cls-21" d="M871,106.22a12,12,0,0,0-11.26,11.59,11.76,11.76,0,0,0,1.88,6.7c2.44,3.79,10,15.82,10,15.82s7.67-12.21,10-15.73a11.75,11.75,0,0,0,1.94-6.5A11.9,11.9,0,0,0,871,106.22Zm.53,17.18a5.3,5.3,0,1,1,5.3-5.3A5.29,5.29,0,0,1,871.48,123.4Z"/></g></g><g id="_Group_4" data-name="&lt;Group&gt;"><g id="_Group_5" data-name="&lt;Group&gt;"><g id="_Group_6" data-name="&lt;Group&gt;"><circle class="cls-4" cx="958.08" cy="49.53" r="47.34" transform="translate(-0.36 7.48) rotate(-0.45)"/></g></g><g id="_Group_7" data-name="&lt;Group&gt;"><g id="_Group_8" data-name="&lt;Group&gt;"><path class="cls-13" d="M958.06,99.05a49.53,49.53,0,0,1-.59-99h.62a49.71,49.71,0,0,1,49.51,48.92,49.54,49.54,0,0,1-48.92,50.13Zm0-94.68h-.57a45.14,45.14,0,0,0-44.59,45.7,45.31,45.31,0,0,0,45.13,44.6h.57A45.17,45.17,0,0,0,1003.23,49,45.32,45.32,0,0,0,958.09,4.37Z"/></g></g><g id="_Group_9" data-name="&lt;Group&gt;"><path class="cls-21" d="M979.53,35.68h0l-.42-.39a14.72,14.72,0,0,0-20.34.64l-.85.87-.87-.85a14.72,14.72,0,0,0-20.75.26h0A14.72,14.72,0,0,0,936.55,57L952.48,72.5a8.31,8.31,0,0,0,11.76-.14l15.54-15.93A14.72,14.72,0,0,0,979.53,35.68Z"/></g></g><g id="_Group_10" data-name="&lt;Group&gt;"><g id="_Group_11" data-name="&lt;Group&gt;"><path class="cls-21" d="M814.57,97.08h0a34.35,34.35,0,0,1-34.35-34.35h0a34.34,34.34,0,0,1,34.35-34.34h0a34.34,34.34,0,0,1,34.34,34.34h0A34.35,34.35,0,0,1,814.57,97.08Z"/></g><g id="_Group_12" data-name="&lt;Group&gt;"><g id="_Group_13" data-name="&lt;Group&gt;"><path class="cls-4" d="M809,56.37V71.53a1.3,1.3,0,0,1-1.3,1.3h-7.5a1.3,1.3,0,0,1-1.3-1.3V56.37a1.3,1.3,0,0,1,1.3-1.3h7.5A1.3,1.3,0,0,1,809,56.37Z"/></g><g id="_Group_14" data-name="&lt;Group&gt;"><path class="cls-4" d="M832.43,71.38A1.43,1.43,0,0,1,831,72.81h-1.54v0H812.74a1.9,1.9,0,0,1-1.9-1.9V58.07a2.6,2.6,0,0,1,0-.55V57a1.88,1.88,0,0,1,1.73-1.87A9.82,9.82,0,0,1,813.9,54c1.36-1,1.79-5.06,2-6.46a2.26,2.26,0,0,1,2.24-2h.08a2.25,2.25,0,0,1,2.25,2.25s.09,1.19.11,2.82c0,0,0,0,0,0a33.08,33.08,0,0,1-.21,3.54h.1c0,.34-.06.67-.1,1H831a1.43,1.43,0,0,1,1.43,1.43V71.38Z"/></g></g></g><path class="cls-21" d="M845.67,564.41l-16.88,7.5-8.06-18.13,16.88-7.5a9.92,9.92,0,0,1,13.09,5h0A9.91,9.91,0,0,1,845.67,564.41Z"/><path class="cls-21" d="M789.21,633.52c.48-.7,1-1.38,1.47-2.07-9.85-5.92-13.9-13.37-15.88-27.22l-19.7,6.94c1.38,14.55,11.54,29.75,24.42,37.83C782.52,643.67,785.74,638.56,789.21,633.52Z"/><polygon class="cls-4" points="824.55 523.27 854.76 591.25 838.72 594.27 830.19 595.87 772.72 606.67 758.12 573.83 804.65 538.41 811.56 533.15 824.55 523.27"/><path class="cls-13" d="M771.42,609.14l-16-36,70-53.28,32.46,73Zm-10.6-34.62L774,604.21l77.63-14.6-28-62.93Z"/><path class="cls-21" d="M757.9,613.26l-5.64,2.51a18.27,18.27,0,0,1-24.12-9.28h0a18.26,18.26,0,0,1,9.28-24.11l5.64-2.51Z"/><rect class="cls-4" x="746.31" y="575.74" width="19.83" height="36.54" transform="translate(-176.07 358.32) rotate(-23.96)"/><path class="cls-13" d="M753.48,617.62l-16.62-37.39L759,570.4l16.61,37.39Zm-10.84-35.17,13.06,29.4,14.13-6.28-13.06-29.4Z"/><polygon class="cls-21" points="838.72 594.27 811.56 533.15 804.65 538.41 830.19 595.87 838.72 594.27"/><path class="cls-21" d="M1009.59,323.62A108.63,108.63,0,0,1,897.47,435.73c-56.87-1.82-103.18-48.14-105-105A108.63,108.63,0,0,1,904.58,218.61C961.45,220.43,1007.77,266.75,1009.59,323.62Z"/><path class="cls-4" d="M842.33,331.58a23.4,23.4,0,0,0,11.84,3.34c6.76,0,10.7-3.57,10.7-8.73,0-4.78-2.73-7.52-9.64-10.17-8.35-3-13.51-7.29-13.51-14.5,0-8,6.61-13.9,16.55-13.9a23.21,23.21,0,0,1,11.31,2.51l-1.82,5.39a20.25,20.25,0,0,0-9.72-2.43c-7,0-9.64,4.17-9.64,7.67,0,4.78,3.12,7.13,10.17,9.86,8.66,3.35,13.07,7.52,13.07,15,0,7.89-5.85,14.73-17.93,14.73-4.93,0-10.32-1.45-13.05-3.27Z"/><path class="cls-4" d="M907.18,315.64h-19.9v18.45h22.17v5.54H880.68V288.46h27.63V294h-21v16.17h19.9Z"/><path class="cls-4" d="M961.77,313.51c0,17.61-10.7,26.95-23.76,26.95-13.51,0-23-10.47-23-26,0-16.25,10.09-26.88,23.76-26.88C952.74,287.62,961.77,298.33,961.77,313.51Zm-39.7.84c0,10.93,5.92,20.72,16.32,20.72s16.4-9.64,16.4-21.26c0-10.17-5.32-20.8-16.32-20.8S922.07,303.11,922.07,314.35Z"/><path class="cls-4" d="M845.27,357.39c0,3.78-2.3,5.79-5.1,5.79s-4.93-2.25-4.93-5.57c0-3.49,2.16-5.77,5.1-5.77S845.27,354.14,845.27,357.39Zm-8.52.18c0,2.35,1.28,4.45,3.51,4.45s3.51-2.07,3.51-4.56c0-2.18-1.14-4.46-3.5-4.46S836.75,355.17,836.75,357.57Z"/><path class="cls-4" d="M850.37,352.16a15.59,15.59,0,0,1,2.71-.22,4.48,4.48,0,0,1,3.08.92,2.94,2.94,0,0,1,1,2.29,3.24,3.24,0,0,1-.84,2.34,4.58,4.58,0,0,1-3.36,1.21,5,5,0,0,1-1.14-.1V363h-1.41Zm1.41,5.29a4.84,4.84,0,0,0,1.17.11c1.71,0,2.75-.83,2.75-2.35s-1-2.15-2.58-2.15a6.26,6.26,0,0,0-1.34.12Z"/><path class="cls-4" d="M864.37,353.23H861V352h8.13v1.21h-3.35V363h-1.44Z"/><path class="cls-4" d="M875.05,352v11h-1.41V352Z"/><path class="cls-4" d="M890,358.18c-.08-1.53-.18-3.37-.16-4.74h0c-.38,1.29-.83,2.65-1.39,4.17l-1.93,5.32h-1.08l-1.77-5.22c-.52-1.55-1-3-1.27-4.27h0c0,1.37-.12,3.21-.22,4.85l-.29,4.71h-1.35l.76-11h1.81l1.87,5.31c.46,1.35.83,2.56,1.11,3.69h.05c.28-1.1.67-2.31,1.16-3.69l2-5.31H891l.69,11H890.3Z"/><path class="cls-4" d="M898.55,352v11h-1.41V352Z"/><path class="cls-4" d="M903.53,362.16l6.09-8.9v-.05h-5.57V352h7.41v.87l-6.06,8.87v0h6.14V363h-8Z"/><path class="cls-4" d="M918.31,359.55,917.17,363h-1.46l3.72-11h1.72l3.74,11h-1.51l-1.17-3.45Zm3.6-1.11-1.08-3.16c-.24-.72-.4-1.37-.56-2h0c-.17.65-.35,1.32-.56,2l-1.08,3.18Z"/><path class="cls-4" d="M930.59,353.23h-3.34V352h8.13v1.21H932V363h-1.43Z"/><path class="cls-4" d="M941.27,352v11h-1.41V352Z"/><path class="cls-4" d="M956.38,357.39c0,3.78-2.29,5.79-5.1,5.79s-4.92-2.25-4.92-5.57c0-3.49,2.16-5.77,5.1-5.77S956.38,354.14,956.38,357.39Zm-8.51.18c0,2.35,1.27,4.45,3.5,4.45s3.52-2.07,3.52-4.56c0-2.18-1.15-4.46-3.5-4.46S947.87,355.17,947.87,357.57Z"/><path class="cls-4" d="M961.48,363V352H963l3.51,5.55a30.82,30.82,0,0,1,2,3.57l0,0c-.13-1.46-.16-2.8-.16-4.51V352h1.34v11h-1.43l-3.49-5.57a34.93,34.93,0,0,1-2-3.67l0,0c.09,1.39.11,2.7.11,4.53V363Z"/><path class="cls-13" d="M1083.73,126.23V72l31.42,27.13Zm4.38-44.7v35.15l20.35-17.57Z"/><path class="cls-21" d="M1098.86,99.32l-31.09-26.85v18c-44.7,0-44.7,35.71-44.7,35.71,12.46-25.81,44.7-17.87,44.7-17.87v17.87Z"/><path class="cls-21" d="M1086.8,170.95h79.09a0,0,0,0,1,0,0V245a1.26,1.26,0,0,1-1.26,1.26h-76.58a1.26,1.26,0,0,1-1.26-1.26V170.95A0,0,0,0,1,1086.8,170.95Z"/><path class="cls-4" d="M1088.06,158.56h76.58a1.26,1.26,0,0,1,1.26,1.26v20a0,0,0,0,1,0,0H1086.8a0,0,0,0,1,0,0v-20A1.26,1.26,0,0,1,1088.06,158.56Z"/><path class="cls-13" d="M1168.08,182h-83.47v-18a7.69,7.69,0,0,1,7.68-7.68h68.11a7.69,7.69,0,0,1,7.68,7.68ZM1089,177.64h74.72V164.06a3.32,3.32,0,0,0-3.31-3.31h-68.11a3.31,3.31,0,0,0-3.3,3.31Z"/><path class="cls-13" d="M1102.1,163h0a1.88,1.88,0,0,1-1.87-1.88v-6.25a1.88,1.88,0,0,1,1.87-1.88h0a1.88,1.88,0,0,1,1.88,1.88v6.25A1.88,1.88,0,0,1,1102.1,163Z"/><path class="cls-13" d="M1118,163h0a1.88,1.88,0,0,1-1.88-1.88v-6.25A1.88,1.88,0,0,1,1118,153h0a1.88,1.88,0,0,1,1.87,1.88v6.25A1.88,1.88,0,0,1,1118,163Z"/><path class="cls-13" d="M1133.83,163h0a1.88,1.88,0,0,1-1.88-1.88v-6.25a1.88,1.88,0,0,1,1.88-1.88h0a1.88,1.88,0,0,1,1.87,1.88v6.25A1.88,1.88,0,0,1,1133.83,163Z"/><path class="cls-13" d="M1149.69,163h0a1.88,1.88,0,0,1-1.87-1.88v-6.25a1.88,1.88,0,0,1,1.87-1.88h0a1.88,1.88,0,0,1,1.88,1.88v6.25A1.88,1.88,0,0,1,1149.69,163Z"/><path class="cls-13" d="M1102.1,165.16a4.07,4.07,0,0,1-4.06-4.06v-6.25a4.06,4.06,0,0,1,8.12,0v6.25A4.06,4.06,0,0,1,1102.1,165.16Z"/><path class="cls-13" d="M1118,165.16a4.07,4.07,0,0,1-4.06-4.06v-6.25a4.07,4.07,0,0,1,8.13,0v6.25A4.07,4.07,0,0,1,1118,165.16Z"/><path class="cls-13" d="M1133.83,165.16a4.06,4.06,0,0,1-4.06-4.06v-6.25a4.06,4.06,0,0,1,8.12,0v6.25A4.06,4.06,0,0,1,1133.83,165.16Z"/><path class="cls-13" d="M1149.69,165.16a4.06,4.06,0,0,1-4.06-4.06v-6.25a4.06,4.06,0,1,1,8.12,0v6.25A4.06,4.06,0,0,1,1149.69,165.16Z"/><path class="cls-4" d="M1102.22,224a12,12,0,0,0,2.29-.1,8,8,0,0,0,4.42-2,9.22,9.22,0,0,0,2.78-5.61h-.09a6.2,6.2,0,0,1-5,2.27,6.12,6.12,0,0,1-6.23-6.46,7.23,7.23,0,0,1,7.2-7.48c4.31,0,7,3.5,7,8.88,0,4.64-1.55,7.88-3.63,9.89a10.53,10.53,0,0,1-6.13,2.82,13.57,13.57,0,0,1-2.62.16Zm1-12.13c0,2.63,1.59,4.48,4.06,4.48a4.72,4.72,0,0,0,4.15-2.21,1.9,1.9,0,0,0,.25-1c0-3.59-1.32-6.35-4.31-6.35C1105,206.74,1103.25,208.88,1103.25,211.86Z"/><path class="cls-4" d="M1131.22,215.23c0,7.17-2.66,11.12-7.33,11.12-4.12,0-6.91-3.85-7-10.82s3-11,7.34-11C1128.69,204.57,1131.22,208.52,1131.22,215.23Zm-11.45.33c0,5.48,1.69,8.59,4.28,8.59,2.91,0,4.32-3.4,4.32-8.79,0-5.18-1.34-8.59-4.28-8.59C1121.59,206.77,1119.77,209.82,1119.77,215.56Z"/><path class="cls-4" d="M1143.36,210.85c0,4.45-2.34,6.65-5.06,6.65s-4.9-2.1-4.93-6.35,2.31-6.58,5.09-6.58C1141.41,204.57,1143.36,206.84,1143.36,210.85Zm-7.72.2c-.07,2.69.94,4.74,2.72,4.74s2.73-2,2.73-4.8c0-2.57-.75-4.7-2.73-4.7C1136.58,206.29,1135.64,208.39,1135.64,211.05Zm2.47,15.3,12.38-21.78h1.82l-12.39,21.78Zm19-6.77c0,4.44-2.34,6.65-5,6.65s-4.89-2.11-4.92-6.33,2.3-6.61,5.09-6.61C1155.16,213.29,1157.07,215.56,1157.07,219.58Zm-7.71.19c0,2.69,1,4.73,2.75,4.73s2.73-2,2.73-4.79c0-2.56-.75-4.71-2.73-4.71C1150.33,215,1149.36,217.11,1149.36,219.77Z"/><g id="_Group_15" data-name="&lt;Group&gt;"><path class="cls-21" d="M704.93,538.21h0A30.94,30.94,0,0,1,674,507.27h0a30.94,30.94,0,0,1,30.94-30.94h0a30.94,30.94,0,0,1,30.94,30.94h0A30.94,30.94,0,0,1,704.93,538.21Z"/></g><g id="_Group_16" data-name="&lt;Group&gt;"><path class="cls-4" d="M704.93,538.21h0A30.94,30.94,0,0,1,674,507.27h0a30.94,30.94,0,0,1,30.94-30.94h0a30.94,30.94,0,0,1,30.94,30.94h0A30.94,30.94,0,0,1,704.93,538.21Z"/></g><g id="_Group_17" data-name="&lt;Group&gt;"><path class="cls-13" d="M704.93,535.69a28.42,28.42,0,1,1,28.42-28.42A28.45,28.45,0,0,1,704.93,535.69Zm0-52.46a24,24,0,1,0,24,24A24.08,24.08,0,0,0,704.93,483.23Z"/></g><path class="cls-21" d="M704,491.22h2.13v3.37a7.08,7.08,0,0,1,4.39,2.13,6.2,6.2,0,0,1,1.67,4.46h-3.47c0-2.06-1.57-3.41-3.93-3.41-2.13,0-3.9,1.28-3.9,3.12,0,1.44,1,2.42,3,2.95l2.89.75c4.45,1.18,6.45,3.7,6.09,7s-3,5.73-6.75,6v3.63H704V517.6a8,8,0,0,1-4.92-2.26,6.41,6.41,0,0,1-1.86-4.55h3.47a3.69,3.69,0,0,0,1.31,2.59,4.55,4.55,0,0,0,3.18,1.11c2.52,0,4-1.34,4.26-3.08.1-1.87-1.08-3.08-3.57-3.67L703,507c-3.74-1-5.61-3-5.61-6.07a5.53,5.53,0,0,1,1.9-4.32,7.93,7.93,0,0,1,4.69-2.07Z"/><g id="_Group_18" data-name="&lt;Group&gt;"><path class="cls-4" d="M639.79,531h0a48.86,48.86,0,0,1-48.86-48.86h0a48.87,48.87,0,0,1,48.86-48.86h0a48.87,48.87,0,0,1,48.87,48.86h0A48.86,48.86,0,0,1,639.79,531Z"/></g><g id="_Group_19" data-name="&lt;Group&gt;"><path class="cls-21" d="M639.79,523.53h0a41.42,41.42,0,0,1-41.42-41.42h0a41.42,41.42,0,0,1,41.42-41.42h0a41.42,41.42,0,0,1,41.43,41.42h0A41.42,41.42,0,0,1,639.79,523.53Z"/></g><path class="cls-4" d="M638.25,456.76h3.36v5.33a11.24,11.24,0,0,1,6.94,3.36,9.84,9.84,0,0,1,2.64,7H645.7c0-3.26-2.48-5.38-6.21-5.38-3.36,0-6.16,2-6.16,4.92,0,2.28,1.61,3.83,4.76,4.66l4.56,1.19c7,1.86,10.2,5.85,9.62,11.07s-4.65,9.06-10.66,9.53v5.74h-3.36v-5.8a12.59,12.59,0,0,1-7.76-3.57,10.08,10.08,0,0,1-3-7.19H633a5.84,5.84,0,0,0,2.07,4.09,7.16,7.16,0,0,0,5,1.76c4,0,6.32-2.12,6.73-4.87.15-2.95-1.71-4.86-5.64-5.79l-4.5-1.14c-5.9-1.61-8.85-4.76-8.85-9.58a8.76,8.76,0,0,1,3-6.83,12.48,12.48,0,0,1,7.4-3.26Z"/><polygon class="cls-13" points="1144.27 495.2 1070.16 482.61 1103.79 448.47 1106.91 451.54 1079.17 479.7 1145 490.89 1144.27 495.2"/><path class="cls-21" d="M1113.94,442.65c7.77,11.37-4.58,23.72-16,16a4.68,4.68,0,0,1-1.23-1.24c-7.77-11.37,4.57-23.72,16-15.95A4.68,4.68,0,0,1,1113.94,442.65Z"/><path class="cls-21" d="M1146,474.18c22.78,4.18,22.78,33.55,0,37.73a7,7,0,0,1-2.66,0c-22.78-4.18-22.78-33.55,0-37.73A7.43,7.43,0,0,1,1146,474.18Z"/><path class="cls-21" d="M1084.41,468.57a13.78,13.78,0,1,1-19.49,0A13.77,13.77,0,0,1,1084.41,468.57Z"/><rect class="cls-4" x="533" y="275.83" width="202.49" height="121.06"/><polygon class="cls-21" points="619.51 369.06 619.51 336.69 651.88 352.88 619.51 369.06"/><path class="cls-13" d="M737.67,399.08H530.81V273.65H737.67Zm-202.48-4.37H733.3V278H535.19Z"/><path class="cls-13" d="M737.67,312.18H530.81V273.65H737.67Zm-202.48-4.37H733.3V278H535.19Z"/><rect class="cls-21" x="709.82" y="284.78" width="16.26" height="16.26" rx="0.35" ry="0.35"/><rect class="cls-21" x="548.1" y="284.78" width="148.05" height="17.51" rx="0.34" ry="0.34"/><path class="cls-4" d="M563.73,291.22l1,3.69c.21.81.41,1.56.55,2.31h0c.16-.73.4-1.51.64-2.29l1.19-3.71h1.11l1.12,3.63c.28.87.49,1.64.65,2.37h0a20.13,20.13,0,0,1,.55-2.36l1-3.64h1.3l-2.34,7.27h-1.2L568.28,295a22.64,22.64,0,0,1-.64-2.39h0a20.46,20.46,0,0,1-.66,2.4l-1.17,3.46h-1.2l-2.19-7.27Z"/><path class="cls-4" d="M575,291.22l1,3.69c.21.81.41,1.56.55,2.31h0c.17-.73.41-1.51.65-2.29l1.18-3.71h1.12l1.12,3.63c.27.87.48,1.64.64,2.37h0a20.3,20.3,0,0,1,.56-2.36l1-3.64h1.31l-2.34,7.27h-1.2L579.51,295a22.66,22.66,0,0,1-.65-2.39h0a20.45,20.45,0,0,1-.67,2.4L577,298.49H575.8l-2.2-7.27Z"/><path class="cls-4" d="M586.18,291.22l1,3.69c.21.81.41,1.56.54,2.31h.05c.16-.73.4-1.51.64-2.29l1.19-3.71h1.11l1.12,3.63c.28.87.48,1.64.65,2.37h0a20.13,20.13,0,0,1,.55-2.36l1-3.64h1.31L593,298.49h-1.2L590.73,295a22.64,22.64,0,0,1-.64-2.39h0a20.46,20.46,0,0,1-.66,2.4l-1.17,3.46H587l-2.19-7.27Z"/><path class="cls-4" d="M595.8,297.7a.88.88,0,0,1,.9-.94.95.95,0,1,1-.9.94Z"/><path class="cls-4" d="M598.9,297.7a.9.9,0,1,1,.89.95A.88.88,0,0,1,598.9,297.7Z"/><path class="cls-4" d="M602,297.7a.88.88,0,0,1,.9-.94.95.95,0,1,1-.9.94Z"/><path class="cls-4" d="M605.12,297.7a.89.89,0,1,1,.88.95A.88.88,0,0,1,605.12,297.7Z"/><g id="_Group_20" data-name="&lt;Group&gt;"><path class="cls-4" d="M684.78,288.24a5.59,5.59,0,1,0-.91,8.65l2.78,2.78a1.18,1.18,0,0,0,1.65,0,1.16,1.16,0,0,0,0-1.65l-2.78-2.78A5.6,5.6,0,0,0,684.78,288.24ZM683.65,295a4,4,0,1,1,0-5.63A4,4,0,0,1,683.65,295Z"/></g><path class="cls-2" d="M1022.77,774.28a38.8,38.8,0,0,1-.68-7.12,39.2,39.2,0,1,1,78.39,0,38.8,38.8,0,0,1-.68,7.12Z"/><path class="cls-2" d="M995.52,774.28a26.78,26.78,0,0,1,51.45,0Z"/><path class="cls-2" d="M1097.77,774.1a22.88,22.88,0,0,1,44,0Z"/><path class="cls-2" d="M1122.7,774.28h-52.27a27.47,27.47,0,1,1,52.42-.11Z"/></g></g></svg>