<svg id="Layer_1" data-name="Layer 1" xmlns="http://www.w3.org/2000/svg" viewBox="0 0 302 302"><defs><style>.cls-1{fill:#074752;}.cls-2{fill:#5abfb6;}.cls-3{fill:#d8d8d8;}.cls-4{fill:#afafaf;}.cls-5{fill:#fbb03b;}.cls-6{fill:#e2b061;}.cls-7{fill:#fff;}.cls-8{fill:#ed4848;}.cls-9{fill:#155763;}</style></defs><title>Artboard 8</title><circle class="cls-1" cx="151" cy="151" r="151"/><path class="cls-2" d="M122.56,49.52h44.18a9.92,9.92,0,0,1,9.67,7.71l2.21,9.65v6.66H122.56Z"/><path class="cls-2" d="M78.57,49.52h48.48a9.92,9.92,0,0,1,9.67,7.71l2.21,9.65v6.66H78.57Z"/><path class="cls-3" d="M274.28,94.17V76.8a9.92,9.92,0,0,0-9.92-9.92H95.19L93,57.23a9.92,9.92,0,0,0-9.67-7.71H37.64a9.92,9.92,0,0,0-9.92,9.92V94.17Z"/><path class="cls-4" d="M274.28,76.8V94.17H259.4V76.8a9.92,9.92,0,0,0-9.93-9.92h14.89A9.92,9.92,0,0,1,274.28,76.8Z"/><path class="cls-5" d="M27.72,84.24V233.07A9.92,9.92,0,0,0,37.64,243H264.36a9.92,9.92,0,0,0,9.92-9.92V84.24Z"/><path class="cls-6" d="M274.28,84.24V233.07a9.92,9.92,0,0,1-9.92,9.92H249.47a9.92,9.92,0,0,0,9.93-9.92V84.24Z"/><path class="cls-7" d="M256.92,228.11a2.48,2.48,0,0,0,2.48-2.48V84.24H42.6V225.63a2.48,2.48,0,0,0,2.48,2.48Z"/><path class="cls-8" d="M242,199.83a2.48,2.48,0,0,0,2.48-2.48v-24.8a2.48,2.48,0,0,0-2.48-2.48H157.7a2.48,2.48,0,0,0-2.48,2.48v24.8a2.48,2.48,0,0,0,2.48,2.48Z"/><path class="cls-2" d="M226.28,225l-44.81-34.33a2.48,2.48,0,0,0-4,1.86L175,248.94a2.49,2.49,0,0,0,3.53,2.37l16.91-7.89,14.08,30.19a5,5,0,0,0,6.6,2.41l4.51-2.11a5,5,0,0,0,2.4-6.6l-14.07-30.19,16.9-7.88A2.49,2.49,0,0,0,226.28,225Z"/><path class="cls-9" d="M264.36,63.16H181.58L180,56.4a13.58,13.58,0,0,0-13.3-10.6H37.64A13.66,13.66,0,0,0,24,59.44V84.25A3.73,3.73,0,0,0,27.72,88H38.88V225.63a6.21,6.21,0,0,0,6.2,6.2H172l-.33,7.45h-134a6.21,6.21,0,0,1-6.2-6.21V82.76a3.72,3.72,0,0,0-7.44,0V233.07a13.66,13.66,0,0,0,13.64,13.65h133.7l-.1,2.06a6.21,6.21,0,0,0,8.83,5.9l13.53-6.31,12.51,26.81a8.7,8.7,0,0,0,11.55,4.21l4.5-2.1a8.69,8.69,0,0,0,4.21-11.55l-8.87-19h46.86A13.66,13.66,0,0,0,278,233.07V76.8A13.66,13.66,0,0,0,264.36,63.16Zm-91.58-5.1,1.17,5.1H141.89l-1.54-6.76a13.84,13.84,0,0,0-1.15-3.16h27.54A6.16,6.16,0,0,1,172.78,58.06Zm-45.73-4.82a6.16,6.16,0,0,1,6,4.82l1.17,5.1H98.16L96.61,56.4a13.84,13.84,0,0,0-1.15-3.16ZM46.32,224.39V88H242a3.72,3.72,0,0,0,0-7.44H31.44V59.44a6.21,6.21,0,0,1,6.2-6.2H83.31a6.18,6.18,0,0,1,6,4.82l2.2,9.65a3.73,3.73,0,0,0,3.63,2.89H264.36a6.21,6.21,0,0,1,6.2,6.2v3.73H259.4a3.71,3.71,0,0,0-3.72,3.72V224.39H230.41a6.15,6.15,0,0,0-1.86-2.33l-24.15-18.5H242a6.21,6.21,0,0,0,6.2-6.2V172.55a6.21,6.21,0,0,0-6.2-6.2H157.7a6.21,6.21,0,0,0-6.2,6.2v24.81a6.21,6.21,0,0,0,6.2,6.2h15.56l-.93,20.83Zm131-37.36a6.21,6.21,0,0,0-3.58,5.35l-.16,3.74H158.94V173.79h81.85v22.33H194.68l-11-8.4A6.2,6.2,0,0,0,177.33,187Zm42.33,82.81a1.2,1.2,0,0,1-.64.7l-4.51,2.1a1.25,1.25,0,0,1-1.66-.6l-14.08-30.19a3.71,3.71,0,0,0-4.94-1.8l-15.06,7,2.07-46.45a4.13,4.13,0,0,0,.08-.78,3.29,3.29,0,0,0,0-.45l.19-4.32,9.74,7.46a4.11,4.11,0,0,0,.62.48l31,23.72-15.05,7a3.71,3.71,0,0,0-1.8,4.94l14.07,30.19A1.24,1.24,0,0,1,219.66,269.84Zm44.7-30.56H214l-.17-.36s14.4-6.79,14.78-7.09h28.28a6.21,6.21,0,0,0,6.2-6.2V88h7.44v145.1A6.21,6.21,0,0,1,264.36,239.28Z"/><path class="cls-1" d="M73.61,63.16H48.31a3.72,3.72,0,0,0,0,7.44h25.3a3.72,3.72,0,1,0,0-7.44Z"/><path class="cls-1" d="M161.71,145H162a3.75,3.75,0,0,0,3.08-2.13L178,115.6a3.72,3.72,0,0,0-6.73-3.18L161.14,133.8l-6.79-10a3.71,3.71,0,0,0-3.07-1.63h0a3.74,3.74,0,0,0-3.08,1.63l-6.83,10-10.09-21.39a3.72,3.72,0,0,0-6.73,3.18l12.88,27.28a3.71,3.71,0,0,0,6.44.51l7.4-10.91,7.37,10.9A3.72,3.72,0,0,0,161.71,145Z"/><path class="cls-1" d="M196.45,142.88a3.72,3.72,0,0,0,6.45.51l7.4-10.91,7.37,10.9a3.71,3.71,0,0,0,3.08,1.64H221a3.73,3.73,0,0,0,3.08-2.13L237,115.6a3.72,3.72,0,0,0-6.73-3.18L220.17,133.8l-6.78-10a3.72,3.72,0,0,0-3.08-1.63h0a3.71,3.71,0,0,0-3.08,1.63l-6.83,10-10.09-21.39a3.72,3.72,0,0,0-6.73,3.18Z"/><path class="cls-1" d="M116.64,110.65a3.71,3.71,0,0,0-5,1.77L101.61,133.8l-6.79-10a3.71,3.71,0,0,0-3.08-1.63h0a3.72,3.72,0,0,0-3.08,1.63l-6.83,10L71.74,112.42A3.72,3.72,0,0,0,65,115.6l12.88,27.28a3.71,3.71,0,0,0,6.44.51l7.4-10.91,7.37,10.9a3.71,3.71,0,0,0,3.08,1.64h.29a3.75,3.75,0,0,0,3.08-2.13l12.87-27.28A3.71,3.71,0,0,0,116.64,110.65Z"/><path class="cls-1" d="M94.45,166.35H57.73a3.72,3.72,0,0,0,0,7.44H94.45a3.72,3.72,0,0,0,0-7.44Z"/><path class="cls-1" d="M132.64,166.35H111.81a3.72,3.72,0,0,0,0,7.44h20.83a3.72,3.72,0,1,0,0-7.44Z"/><path class="cls-1" d="M94.45,181.23H57.73a3.72,3.72,0,0,0,0,7.44H94.45a3.72,3.72,0,0,0,0-7.44Z"/><path class="cls-1" d="M132.64,181.23H111.81a3.72,3.72,0,0,0,0,7.44h20.83a3.72,3.72,0,1,0,0-7.44Z"/><path class="cls-1" d="M94.45,196.12H57.73a3.72,3.72,0,1,0,0,7.44H94.45a3.72,3.72,0,1,0,0-7.44Z"/><path class="cls-1" d="M132.64,196.12H111.81a3.72,3.72,0,1,0,0,7.44h20.83a3.72,3.72,0,1,0,0-7.44Z"/></svg>