<svg id="Layer_1" data-name="Layer 1" xmlns="http://www.w3.org/2000/svg" viewBox="0 0 302 302"><defs><style>.cls-1{fill:#074752;}.cls-2{fill:#fff;}.cls-3{fill:#155763;}.cls-4{fill:#d8d8d8;}.cls-5{fill:#ed4848;}.cls-6{fill:#5abfb6;}.cls-7{fill:#fbb03b;}</style></defs><title>Artboard 9</title><circle class="cls-1" cx="151" cy="151" r="151"/><path class="cls-2" d="M45.06,171.12v-90a23,23,0,0,1,23-23H233.94a23,23,0,0,1,23,23v90"/><path class="cls-3" d="M261.94,178.19a7.05,7.05,0,0,1-7.06-7.07v-90c0-8.79-12.16-15.94-20.94-15.94H68.06c-8.78,0-20.93,7.15-20.93,15.94v90a7.06,7.06,0,0,1-7.07,7.07c-3.9,0-2.06-3.16-2.06-7.07v-90A30.1,30.1,0,0,1,68.06,51.06H233.94A30.1,30.1,0,0,1,264,81.13v90C264,175,265.84,178.19,261.94,178.19Z"/><path class="cls-4" d="M45.06,171.12H256.94v26.44a23,23,0,0,1-23,23H68.07a23,23,0,0,1-23-23Z"/><path class="cls-3" d="M233.94,227.62H68.06A30.09,30.09,0,0,1,38,197.56V171.12a7.06,7.06,0,0,1,7.06-7.06H256.94a7.06,7.06,0,0,1,7.06,7.06v26.44A30.09,30.09,0,0,1,233.94,227.62ZM47.5,174.36v23.28c0,9.2,7.49,20.69,16.69,20.69H237.82c9.19,0,16.68-11.49,16.68-20.69V174.36Z"/><path class="cls-3" d="M165.13,195.84a10.6,10.6,0,1,1-10.6-10.59A10.61,10.61,0,0,1,165.13,195.84Z"/><path class="cls-4" d="M193.38,255.87H115.69l14.12-35.31h49.44Z"/><path class="cls-3" d="M193.38,262.94H115.69a7.07,7.07,0,0,1-6.56-9.69l14.12-29.31a7.07,7.07,0,0,1,6.56-4.44h49.44a7.07,7.07,0,0,1,6.56,4.44l14.12,29.31a7.07,7.07,0,0,1-6.55,9.69Zm-72.26-9.13H188l-13.48-26.19H134.59Z"/><path class="cls-5" d="M66.25,121.69A21.19,21.19,0,0,1,45.06,100.5V58.12H87.44V100.5A21.19,21.19,0,0,1,66.25,121.69Z"/><path class="cls-3" d="M66.25,128.75A28.28,28.28,0,0,1,38,100.5V58.12a7.06,7.06,0,0,1,7.06-7.06H87.44a7.06,7.06,0,0,1,7.06,7.06V100.5A28.28,28.28,0,0,1,66.25,128.75ZM52.13,65.19V100.5a14.13,14.13,0,0,0,28.25,0V65.19Z"/><path class="cls-6" d="M108.63,121.69A21.19,21.19,0,0,1,87.44,100.5V58.12h42.37V100.5A21.19,21.19,0,0,1,108.63,121.69Z"/><path class="cls-3" d="M108.63,128.75A28.28,28.28,0,0,1,80.38,100.5V58.12a7.05,7.05,0,0,1,7.06-7.06h42.37a7.06,7.06,0,0,1,7.07,7.06V100.5A28.28,28.28,0,0,1,108.63,128.75ZM94.5,65.19V100.5a14.13,14.13,0,0,0,28.25,0V65.19Z"/><path class="cls-7" d="M151,121.69a21.19,21.19,0,0,1-21.19-21.19V58.12h42.38V100.5A21.19,21.19,0,0,1,151,121.69Z"/><path class="cls-3" d="M151,128.75a28.28,28.28,0,0,1-28.25-28.25V58.12a7.06,7.06,0,0,1,7.06-7.06h42.38a7.06,7.06,0,0,1,7.06,7.06V100.5A28.28,28.28,0,0,1,151,128.75ZM136.88,65.19V100.5a14.13,14.13,0,0,0,28.25,0V65.19Z"/><path class="cls-6" d="M193.38,121.69a21.19,21.19,0,0,1-21.19-21.19V58.12h42.37V100.5A21.19,21.19,0,0,1,193.38,121.69Z"/><path class="cls-3" d="M193.38,128.75a28.28,28.28,0,0,1-28.25-28.25V58.12a7.05,7.05,0,0,1,7.06-7.06h42.37a7.06,7.06,0,0,1,7.07,7.06V100.5A28.28,28.28,0,0,1,193.38,128.75ZM179.25,65.19V100.5a14.13,14.13,0,0,0,28.25,0V65.19Z"/><path class="cls-5" d="M235.75,121.69a21.19,21.19,0,0,1-21.19-21.19V58.12h42.38V100.5A21.19,21.19,0,0,1,235.75,121.69Z"/><path class="cls-3" d="M235.75,128.75A28.28,28.28,0,0,1,207.5,100.5V58.12a7.06,7.06,0,0,1,7.06-7.06h42.38A7.06,7.06,0,0,1,264,58.12V100.5A28.28,28.28,0,0,1,235.75,128.75ZM221.63,65.19V100.5a14.13,14.13,0,0,0,28.25,0V65.19Z"/></svg>