<svg id="Layer_1" data-name="Layer 1" xmlns="http://www.w3.org/2000/svg" xmlns:xlink="http://www.w3.org/1999/xlink" viewBox="0 0 417 189"><defs><style>.cls-1{fill:url(#linear-gradient);}.cls-2,.cls-6{fill:none;}.cls-3{fill:#fff;}.cls-4{fill:#101b2c;}.cls-5{clip-path:url(#clip-path);}.cls-6{stroke:#101b2c;stroke-miterlimit:10;stroke-width:4px;}.cls-7{clip-path:url(#clip-path-2);}.cls-8{fill:url(#linear-gradient-3);}</style><linearGradient id="linear-gradient" x1="156.38" y1="-0.74" x2="88.38" y2="221.51" gradientUnits="userSpaceOnUse"><stop offset="0" stop-color="#00a9a6"/><stop offset="0.72" stop-color="#026093"/><stop offset="1" stop-color="#026093"/></linearGradient><clipPath id="clip-path"><path class="cls-1" d="M190,48.7h0a4.54,4.54,0,0,0-6.35-4.13l-17.42,7.56c-6.82-9.43-16.74-15.38-27.78-15.38-11.32,0-21.47,6.27-28.3,16.14L91,44.56a4.53,4.53,0,0,0-6.34,4.13h0A192.82,192.82,0,0,0,87.9,81.91a.32.32,0,0,0,0,.07c.48,2.57,1,5.22,1.65,7.9,0,.14.1.25.14.38,2.18,9.16,6.22,23.62,11.59,31.59h0c7.59,13.79,18.63,25.42,34.72,30.23a4.43,4.43,0,0,0,2.6,0c12.95-3.87,22.64-12.16,29.88-22.45,14.39-19.81,18.68-50.23,18.68-50.23A193.67,193.67,0,0,0,190,48.7"/></clipPath><clipPath id="clip-path-2"><path class="cls-2" d="M178.28,96.54a4.6,4.6,0,0,1-3.41-5.28c1.23-6.9,4.76-23.46,5.2-27.91a4.53,4.53,0,0,0-6.33-4.59c-7.69,3.33-10.77,4.5-18.92,8a4.54,4.54,0,1,1-3.63-8.33l32.35-13.86A4.62,4.62,0,0,1,190,48.69h0A161.25,161.25,0,0,1,183.9,93a4.73,4.73,0,0,1-5.62,3.55"/></clipPath><linearGradient id="linear-gradient-3" x1="-903.79" y1="573.79" x2="-902.14" y2="573.79" gradientTransform="matrix(25.05, 0, 0, -25.05, 22787, 14442.74)" gradientUnits="userSpaceOnUse"><stop offset="0" stop-color="#00a9a6"/><stop offset="1" stop-color="#026093"/></linearGradient></defs><title>Artboard 5 copy 3</title><rect class="cls-3" width="417" height="189"/><path class="cls-4" d="M217.13,108.23a11.78,11.78,0,0,0-1.5-.77,11,11,0,0,0-1.45-.54,5.27,5.27,0,0,0-1.58-.26,2.16,2.16,0,0,0-1,.2.67.67,0,0,0-.37.65.75.75,0,0,0,.21.55,2.28,2.28,0,0,0,.63.4,9.39,9.39,0,0,0,1,.35l1.34.41a18,18,0,0,1,2.13.79,6.79,6.79,0,0,1,1.62,1,4,4,0,0,1,1,1.44,5.19,5.19,0,0,1,.36,2,5.32,5.32,0,0,1-.57,2.58,4.58,4.58,0,0,1-1.49,1.68,6.39,6.39,0,0,1-2.1.9,10.32,10.32,0,0,1-2.34.28,12.84,12.84,0,0,1-1.93-.15,14.84,14.84,0,0,1-2-.41,15.92,15.92,0,0,1-1.88-.62,12.35,12.35,0,0,1-1.67-.82l2-4.12a14.12,14.12,0,0,0,1.76.94,12,12,0,0,0,1.74.65,7,7,0,0,0,2,.29,2,2,0,0,0,1.07-.21.61.61,0,0,0,.3-.54.77.77,0,0,0-.3-.61,2.78,2.78,0,0,0-.83-.45c-.35-.12-.76-.25-1.22-.38s-.94-.28-1.45-.46a13.12,13.12,0,0,1-1.95-.83,5.41,5.41,0,0,1-1.35-1,3.6,3.6,0,0,1-.79-1.29,5.27,5.27,0,0,1-.25-1.66,5.69,5.69,0,0,1,.52-2.51,5,5,0,0,1,1.41-1.8,6.14,6.14,0,0,1,2-1.1,7.75,7.75,0,0,1,2.42-.37,9.16,9.16,0,0,1,1.83.18,13.72,13.72,0,0,1,1.73.46,14.72,14.72,0,0,1,1.55.6c.48.21.91.42,1.3.61Z"/><rect class="cls-4" x="231.27" y="102.64" width="4.7" height="17.1"/><path class="cls-4" d="M248.53,119.74v-17.1h6.58a9.58,9.58,0,0,1,3.73.68,7.42,7.42,0,0,1,2.7,1.83,7.7,7.7,0,0,1,1.64,2.71,10.38,10.38,0,0,1-.06,6.84,7.51,7.51,0,0,1-1.75,2.69,7.75,7.75,0,0,1-2.72,1.74,9.74,9.74,0,0,1-3.54.61ZM259,111.17a6.09,6.09,0,0,0-.26-1.81,4.1,4.1,0,0,0-.76-1.4,3.56,3.56,0,0,0-1.22-.9,3.83,3.83,0,0,0-1.61-.32h-1.88v8.91h1.88a3.91,3.91,0,0,0,1.64-.34,3.5,3.5,0,0,0,1.21-.94,4.19,4.19,0,0,0,.75-1.42,6,6,0,0,0,.25-1.78"/><path class="cls-4" d="M285.63,108.23a12.49,12.49,0,0,0-1.5-.77,10.67,10.67,0,0,0-1.46-.54,5.16,5.16,0,0,0-1.57-.26,2.16,2.16,0,0,0-1,.2.67.67,0,0,0-.38.65.76.76,0,0,0,.22.55,2.14,2.14,0,0,0,.63.4,8.66,8.66,0,0,0,1,.35c.39.11.84.25,1.33.41A17.54,17.54,0,0,1,285,110a6.79,6.79,0,0,1,1.62,1,4,4,0,0,1,1,1.44,5.19,5.19,0,0,1,.36,2,5.32,5.32,0,0,1-.57,2.58,4.58,4.58,0,0,1-1.49,1.68,6.39,6.39,0,0,1-2.1.9,10.34,10.34,0,0,1-2.35.28,12.81,12.81,0,0,1-1.92-.15,14.84,14.84,0,0,1-2-.41,15.33,15.33,0,0,1-1.88-.62,12.48,12.48,0,0,1-1.68-.82l2-4.12a14,14,0,0,0,1.75.94,12.6,12.6,0,0,0,1.75.65,7,7,0,0,0,2,.29,2,2,0,0,0,1.07-.21.61.61,0,0,0,.3-.54.77.77,0,0,0-.3-.61,2.78,2.78,0,0,0-.83-.45c-.36-.12-.76-.25-1.22-.38s-.94-.28-1.45-.46a13.75,13.75,0,0,1-2-.83,5.8,5.8,0,0,1-1.35-1,3.72,3.72,0,0,1-.78-1.29,5,5,0,0,1-.25-1.66,5.69,5.69,0,0,1,.52-2.51,5,5,0,0,1,1.41-1.8,6.14,6.14,0,0,1,2-1.1,7.71,7.71,0,0,1,2.42-.37,9.16,9.16,0,0,1,1.83.18,13.13,13.13,0,0,1,1.72.46,14.91,14.91,0,0,1,1.56.6c.48.21.91.42,1.3.61Z"/><polygon class="cls-4" points="311.95 115.65 311.95 119.74 299.76 119.74 299.76 102.64 311.73 102.64 311.73 106.74 304.46 106.74 304.46 109.14 310.67 109.14 310.67 112.95 304.46 112.95 304.46 115.65 311.95 115.65"/><polygon class="cls-4" points="328.47 111.34 328.47 119.74 323.78 119.74 323.78 102.64 327.44 102.64 334.3 111.34 334.3 102.64 339 102.64 339 119.74 335.26 119.74 328.47 111.34"/><polygon class="cls-4" points="213.84 126.92 217.08 134.87 220.31 126.92 221.24 126.92 217.46 135.98 216.68 135.98 212.9 126.92 213.84 126.92"/><rect class="cls-4" x="223.31" y="126.92" width="0.89" height="9.06"/><path class="cls-4" d="M227.24,136v-9.06h3.08a4.62,4.62,0,0,1,1.89.35,4,4,0,0,1,1.36,1,4.08,4.08,0,0,1,.81,1.44,5.73,5.73,0,0,1,0,3.63,4.11,4.11,0,0,1-.88,1.42,3.68,3.68,0,0,1-1.36.92,4.64,4.64,0,0,1-1.79.33Zm6.52-4.55a4.44,4.44,0,0,0-.23-1.49,3.23,3.23,0,0,0-.67-1.19,2.92,2.92,0,0,0-1.08-.77,3.69,3.69,0,0,0-1.46-.27h-2.19v7.48h2.19a3.62,3.62,0,0,0,1.48-.29,3,3,0,0,0,1.08-.79,3.45,3.45,0,0,0,.66-1.19,4.71,4.71,0,0,0,.22-1.49"/><polygon class="cls-4" points="243.22 135.19 243.22 135.98 237.13 135.98 237.13 126.92 243.11 126.92 243.11 127.71 238.03 127.71 238.03 130.97 242.46 130.97 242.46 131.73 238.03 131.73 238.03 135.19 243.22 135.19"/><path class="cls-4" d="M249.13,136a3.85,3.85,0,0,1-1.73-.39,4.41,4.41,0,0,1-1.35-1,4.64,4.64,0,0,1-.86-1.48,4.72,4.72,0,0,1-.31-1.69,4.85,4.85,0,0,1,1.23-3.21,4.35,4.35,0,0,1,1.35-1,3.92,3.92,0,0,1,3.41,0,4.23,4.23,0,0,1,1.34,1.06,4.73,4.73,0,0,1,.87,1.47,4.78,4.78,0,0,1-.92,4.88,4.59,4.59,0,0,1-1.34,1,3.87,3.87,0,0,1-1.69.37m-3.36-4.59a4,4,0,0,0,.25,1.42,3.7,3.7,0,0,0,.69,1.21,3.24,3.24,0,0,0,1.06.85,3.11,3.11,0,0,0,2.75,0,3.46,3.46,0,0,0,1.06-.87,3.81,3.81,0,0,0,.67-1.22,4.12,4.12,0,0,0,0-2.8,4,4,0,0,0-.7-1.2,3.34,3.34,0,0,0-1.06-.84,2.89,2.89,0,0,0-1.35-.31,3.06,3.06,0,0,0-1.39.32,3.32,3.32,0,0,0-1.06.87,4,4,0,0,0-.67,1.21,4.09,4.09,0,0,0-.24,1.38"/><polygon class="cls-4" points="255.46 126.92 258.7 134.87 261.94 126.92 262.87 126.92 259.09 135.98 258.31 135.98 254.53 126.92 255.46 126.92"/><rect class="cls-4" x="264.93" y="126.92" width="0.9" height="9.06"/><path class="cls-4" d="M275.42,134.65A3.85,3.85,0,0,1,272.5,136a3.72,3.72,0,0,1-1.69-.39,4.68,4.68,0,0,1-2.22-2.52,4.54,4.54,0,0,1-.32-1.7,4.82,4.82,0,0,1,.31-1.73,4.64,4.64,0,0,1,.87-1.46,4.38,4.38,0,0,1,1.33-1,3.76,3.76,0,0,1,1.67-.38,4.5,4.5,0,0,1,1.21.15,3.48,3.48,0,0,1,1,.41,3,3,0,0,1,.74.62,3.83,3.83,0,0,1,.53.8l-.69.46a3,3,0,0,0-1.16-1.24,3.32,3.32,0,0,0-1.62-.4,2.9,2.9,0,0,0-1.36.32,3.29,3.29,0,0,0-1,.86,3.64,3.64,0,0,0-.66,1.21,4.43,4.43,0,0,0-.23,1.41,4.14,4.14,0,0,0,.26,1.45,4,4,0,0,0,.72,1.21,3.6,3.6,0,0,0,1.08.82,2.91,2.91,0,0,0,1.35.31,3.09,3.09,0,0,0,1.48-.37,4.33,4.33,0,0,0,1.37-1.15v-1.51h-2v-.69h2.77V136h-.75Z"/><rect class="cls-4" x="278.77" y="126.92" width="0.9" height="9.06"/><polygon class="cls-4" points="282.7 135.98 282.7 126.92 283.6 126.92 283.6 135.19 288.83 135.19 288.83 135.98 282.7 135.98"/><path class="cls-4" d="M293.72,126.92h.75l3.77,9.06h-.95l-1.17-2.84h-4.07L290.89,136h-1Zm2.2,5.52L294.09,128l-1.85,4.48Z"/><polygon class="cls-4" points="301.2 128.57 301.2 135.98 300.31 135.98 300.31 126.92 301 126.92 307 134.46 307 126.93 307.89 126.93 307.89 135.98 307.11 135.98 301.2 128.57"/><path class="cls-4" d="M310.33,131.38a5,5,0,0,1,.28-1.63,4.82,4.82,0,0,1,.84-1.44,4.36,4.36,0,0,1,1.35-1,4,4,0,0,1,1.83-.41,3.8,3.8,0,0,1,2.07.55,3.35,3.35,0,0,1,1.27,1.43l-.7.44a2.65,2.65,0,0,0-.53-.76,2.81,2.81,0,0,0-.67-.49,2.89,2.89,0,0,0-.74-.28,3.25,3.25,0,0,0-.75-.08,3,3,0,0,0-1.44.33,3.32,3.32,0,0,0-1.06.87,3.69,3.69,0,0,0-.64,1.21,4.21,4.21,0,0,0,0,2.8,4.37,4.37,0,0,0,.72,1.22,3.5,3.5,0,0,0,1.07.84,2.91,2.91,0,0,0,1.35.31,3.09,3.09,0,0,0,.78-.1,2.86,2.86,0,0,0,.78-.3,3.85,3.85,0,0,0,.7-.52,2.79,2.79,0,0,0,.53-.76l.74.38a2.76,2.76,0,0,1-.61.9,4.05,4.05,0,0,1-.88.66,4.59,4.59,0,0,1-1,.4,4,4,0,0,1-1.06.14,3.69,3.69,0,0,1-1.72-.4,4.79,4.79,0,0,1-1.34-1.07,5,5,0,0,1-.87-1.49,4.83,4.83,0,0,1-.31-1.71"/><rect class="cls-4" x="320.45" y="126.92" width="0.89" height="9.06"/><path class="cls-4" d="M327.19,126.92h.75l3.77,9.06h-.95l-1.17-2.84h-4.07L324.36,136h-1Zm2.19,5.52L327.56,128l-1.85,4.48Z"/><path class="cls-1" d="M190,48.7h0a4.54,4.54,0,0,0-6.35-4.13l-17.42,7.56c-6.82-9.43-16.74-15.38-27.78-15.38-11.32,0-21.47,6.27-28.3,16.14L91,44.56a4.53,4.53,0,0,0-6.34,4.13h0A192.82,192.82,0,0,0,87.9,81.91a.32.32,0,0,0,0,.07c.48,2.57,1,5.22,1.65,7.9,0,.14.1.25.14.38,2.18,9.16,6.22,23.62,11.59,31.59h0c7.59,13.79,18.63,25.42,34.72,30.23a4.43,4.43,0,0,0,2.6,0c12.95-3.87,22.64-12.16,29.88-22.45,14.39-19.81,18.68-50.23,18.68-50.23A193.67,193.67,0,0,0,190,48.7"/><g class="cls-5"><path class="cls-3" d="M117.76,52.92s23.11-16.67,39.78,0l8.53-7.19L138.56,32.6,111.88,45.66Z"/></g><polyline class="cls-6" points="88.53 95.9 91.57 104.61 98.34 96.94"/><path class="cls-4" d="M194.39,76.34a162.1,162.1,0,0,0,2.24-27.48v-.2h0v-.25a1.79,1.79,0,0,0,0-.23,11.19,11.19,0,0,0-11.14-10.64,11.06,11.06,0,0,0-4.45.93l-.18.08L168.16,44c-8-8.88-18.63-13.88-29.71-13.88-11.43,0-22.25,5.28-30.37,14.64L93.62,38.47a11,11,0,0,0-4.45-.93A11.2,11.2,0,0,0,78,48.38v.32a197.56,197.56,0,0,0,2.71,30.64l0,0,.71,3.78c.5,2.69,1.07,5.46,1.73,8.28,0,.22.13.42.19.64a1.52,1.52,0,0,1,.06.2c2.52,10.49,6.64,24.48,12.22,33,7,12.67,15.84,22,26.44,28,.31.17.61.36.93.53l1.73.89c.48.24,1,.48,1.47.71l1.52.68c.63.28,1.27.53,1.91.78.42.16.83.33,1.25.48,1,.39,2.11.74,3.18,1.07l.1,0c.34.1.69.16,1,.23a13.64,13.64,0,0,0,1.43.19c.25,0,.49.05.74.05a8.89,8.89,0,0,0,.89-.07,10.11,10.11,0,0,0,1.33-.18c.33-.07.66-.12,1-.22h0c1.07-.32,2.11-.68,3.14-1l1-.37c.8-.3,1.59-.63,2.37-1,.51-.22,1-.45,1.51-.69s1.24-.58,1.85-.89,1.1-.58,1.64-.88l.87-.49a66.42,66.42,0,0,0,22-21C189,111.6,193.41,82.7,193.74,80.42,194,79,194.19,77.68,194.39,76.34ZM168.5,129.62c-.23.33-.48.66-.71,1-.4.55-.8,1.09-1.22,1.62-.26.33-.51.67-.78,1-.59.74-1.19,1.46-1.81,2.16-.26.3-.52.59-.79.88-.51.57-1,1.13-1.57,1.67-.22.22-.42.45-.64.66-.7.7-1.42,1.37-2.16,2l-.78.69c-.77.67-1.56,1.32-2.36,2l-.47.34q-1.1.84-2.25,1.62l-.71.48c-.88.58-1.79,1.14-2.71,1.67l-.63.35c-.85.47-1.71.92-2.6,1.34l-.52.26c-1,.48-2,.91-3.09,1.33l-.73.27c-1.1.41-2.21.8-3.35,1.14a4.45,4.45,0,0,1-1.3.19,4.4,4.4,0,0,1-1.3-.19h0c-1.15-.34-2.27-.73-3.38-1.15l-1-.41c-.76-.3-1.5-.62-2.24-.95l-1.11-.53c-.72-.34-1.41-.7-2.1-1.08l-1-.53c-1-.55-1.89-1.12-2.81-1.72-.23-.15-.45-.32-.68-.48-.69-.47-1.36-.94-2-1.44-.39-.29-.76-.59-1.14-.89s-1-.77-1.44-1.17l-1.19-1-1.24-1.15c-.4-.38-.81-.76-1.2-1.16s-.66-.69-1-1c-.83-.87-1.64-1.77-2.42-2.69-.23-.28-.47-.55-.7-.82q-.69-.84-1.35-1.71l-.6-.78c-.46-.62-.91-1.24-1.35-1.87l-.34-.48c-1.58-2.3-3-4.69-4.4-7.15h0A102.35,102.35,0,0,1,96,110.74a4.54,4.54,0,0,1,4.19-6.23,4.63,4.63,0,0,1,1.09.13l.12,0a4.56,4.56,0,0,1,3.17,2.76c6.2,15.35,15.92,29.22,31.18,35a4.47,4.47,0,0,0,3.06,0c12.15-4.6,20.79-14.33,26.94-25.86a4.52,4.52,0,0,0-3-6.48L92.93,93.29a4.49,4.49,0,0,1-3.22-3v0c0-.13-.11-.24-.14-.37l-.06-.28c-.29-1.24-.56-2.48-.82-3.7v-.08c-.27-1.29-.52-2.57-.75-3.83,0-.15-.06-.3-.08-.45-.17-.88-.32-1.75-.46-2.61,0-.13,0-.27-.07-.4-.16-.92-.3-1.84-.44-2.74,0-.18-.05-.36-.08-.54-.13-.89-.26-1.77-.37-2.63l-.06-.45c-.12-.9-.24-1.78-.34-2.65v-.09c-.11-.91-.21-1.81-.3-2.68v-.07c-.09-.87-.18-1.71-.25-2.53,0-.06,0-.12,0-.18-.07-.82-.14-1.62-.21-2.39v-.07c-.58-7.19-.59-12-.58-12.82h0v0a4.62,4.62,0,0,1,6.45-4.06l.5.22,47.54,20.71a4.54,4.54,0,1,1-3.6,8.33c-8.16-3.54-26.95-11.77-34.64-15.11a4.61,4.61,0,0,0-1.82-.38,4.54,4.54,0,0,0-4.5,5c.53,5.43,1.39,12,2.78,19a4.53,4.53,0,0,0,3.38,3.5l75,18.06a4.53,4.53,0,0,1,3.15,6.06,94,94,0,0,1-10.38,19.61Zm-58-25.29,48.07,11.55c-5.76,9.88-12.9,16.61-21.25,20-11.17-4.55-20.1-15-26.56-30.95C110.68,104.74,110.59,104.53,110.5,104.33Zm59.78-24.28c-.77,3.88-1.5,7.55-1.94,10a11.15,11.15,0,0,0,.33,5.31l-36.54-8.8L103.6,79.73c-.83-4.35-1.52-8.86-2-13.45l13.5,5.89L132.89,80a11.17,11.17,0,0,0,15.21-7.28,11.13,11.13,0,0,0,9.36.21c4.1-1.77,6.93-3,9.67-4.11,1.79-.74,3.62-1.51,5.78-2.43C172.27,70,171.19,75.44,170.28,80.05ZM183.9,93a4.84,4.84,0,0,1-4.54,3.68,4.55,4.55,0,0,1-1.08-.13,4.6,4.6,0,0,1-3.41-5.28c1.23-6.9,4.76-23.47,5.2-27.91a4.54,4.54,0,0,0-4.51-5,4.38,4.38,0,0,0-1.81.39c-7.7,3.33-10.78,4.5-18.93,8a4.54,4.54,0,1,1-3.62-8.33l15-6.42,0,.07,17.32-7.52A4.62,4.62,0,0,1,190,48.69h0A190.27,190.27,0,0,1,187.88,75,159.85,159.85,0,0,1,183.9,93ZM161.64,46.77l-13.06,5.6a11.17,11.17,0,0,0-6.34,7.32c-.16-.08-.3-.18-.46-.25L114.49,47.56c6.48-6.74,14.84-10.82,24-10.82C147.22,36.74,155.28,40.5,161.64,46.77Z"/><path class="cls-2" d="M135.53,73.86c-8.16-3.54-26.95-11.77-34.64-15.1a4.53,4.53,0,0,0-6.32,4.59c.53,5.43,1.39,12,2.78,19a4.53,4.53,0,0,0,3.38,3.5l75,18.06a4.53,4.53,0,0,1,3.15,6.06c-7.4,18.7-19.73,35.94-40.27,42.08a4.43,4.43,0,0,1-2.6,0c-20.27-6.06-32.55-22.92-40-41.33a4.54,4.54,0,0,1,5.28-6.1l.12,0a4.56,4.56,0,0,1,3.17,2.76c6.2,15.35,15.92,29.22,31.18,35a4.36,4.36,0,0,0,3.06,0c12.15-4.6,20.79-14.33,26.93-25.86a4.53,4.53,0,0,0-3-6.49L92.93,93.29a4.54,4.54,0,0,1-3.36-3.36A194.87,194.87,0,0,1,84.64,48.7h0a4.61,4.61,0,0,1,6.46-4.08l48,20.92a4.54,4.54,0,1,1-3.6,8.33"/><g class="cls-7"><rect class="cls-8" x="148.46" y="43.31" width="42.03" height="53.87"/></g><g class="cls-7"><rect class="cls-8" x="148.46" y="43.31" width="42.03" height="53.87"/></g><path class="cls-3" d="M135.53,73.86c-8.16-3.54-26.95-11.77-34.64-15.1a4.53,4.53,0,0,0-6.32,4.59c.53,5.43,1.39,12,2.78,19a4.53,4.53,0,0,0,3.38,3.5l75,18.06a4.53,4.53,0,0,1,3.15,6.06c-7.4,18.7-19.73,35.94-40.27,42.08a4.43,4.43,0,0,1-2.6,0c-20.27-6.06-32.55-22.92-40-41.33a4.54,4.54,0,0,1,5.28-6.1l.12,0a4.56,4.56,0,0,1,3.17,2.76c6.2,15.35,15.92,29.22,31.18,35a4.36,4.36,0,0,0,3.06,0c12.15-4.6,20.79-14.33,26.94-25.86a4.54,4.54,0,0,0-3-6.49L92.93,93.29a4.54,4.54,0,0,1-3.36-3.36A194.87,194.87,0,0,1,84.64,48.7h0A4.63,4.63,0,0,1,91.1,44.6l48,20.93a4.54,4.54,0,1,1-3.6,8.33"/><path class="cls-3" d="M178.28,96.54a4.6,4.6,0,0,1-3.41-5.28c1.23-6.9,4.76-23.46,5.19-27.91a4.52,4.52,0,0,0-6.31-4.59c-7.7,3.33-10.78,4.5-18.93,8a4.54,4.54,0,1,1-3.63-8.33l32.35-13.86A4.61,4.61,0,0,1,190,48.69h0A161,161,0,0,1,183.9,93a4.73,4.73,0,0,1-5.62,3.55"/></svg>