<svg id="Layer_1" data-name="Layer 1" xmlns="http://www.w3.org/2000/svg" viewBox="0 0 417 189"><defs><style>.cls-1{fill:#fff;}</style></defs><title>Artboard 5 copy 2</title><rect class="cls-1" width="417" height="189"/><path d="M66.62,73c1.18.22,2.37.4,3.54.66A12.71,12.71,0,0,1,80.39,85a6.72,6.72,0,0,1,0,.85h-6.6c-1.27-7.06-7.57-9.25-15-5.1,0-2-.05-3.94,0-5.86a1.44,1.44,0,0,1,.9-1c1.46-.37,3-.6,4.45-.89Z"/><path d="M56.63,73.86v29.45c0,7.36-4.83,12.34-12.22,12.65a17.22,17.22,0,0,1-8.88-1.66,10.2,10.2,0,0,1-5.45-10.57h6.49c.09.41.21.85.28,1.3.54,3.62,2.7,5.37,6.57,5.33a6.12,6.12,0,0,0,6.15-5.6,17.42,17.42,0,0,0,.06-2.05q0-13.48,0-27V73.86Z"/><path d="M58.69,88.57c3.59,1.25,7.16,2.39,10.65,3.75a39.21,39.21,0,0,1,6.35,3.09,10.73,10.73,0,0,1-1.4,18.86c-5.56,2.56-14,2.24-19-1l2.87-5.07c3.27,2.34,6.95,2.62,10.77,1.75,2.7-.61,4.35-2.37,4.61-4.57a5.29,5.29,0,0,0-3.34-5.86A62.32,62.32,0,0,0,63,97c-4.3-1.37-4.31-1.34-4.31-5.8Z"/><path d="M179,106.72h-2.18V88l-.4-.12-9,16.81-9-16.81-.33.07v18.77h-2.25V82.41a2.25,2.25,0,0,1,3.11,1.36c2.67,5.24,5.5,10.4,8.42,15.87.39-.65.67-1.1.92-1.57,2.53-4.73,5.11-9.43,7.53-14.22.73-1.43,1.59-1.92,3.16-1.46Z"/><path d="M201.19,93.77c.59.43,1.1.78,1.59,1.16a6.32,6.32,0,0,1,2.39,6.73,5.85,5.85,0,0,1-4.91,4.77,44.32,44.32,0,0,1-6.43.35c-2.3,0-4.61,0-7,0V82.38c4.14,0,8.23-.17,12.3.06a5.35,5.35,0,0,1,5.1,4.45,5.73,5.73,0,0,1-2.49,6.47C201.57,93.46,201.42,93.59,201.19,93.77Zm-12,10.8c3.18,0,6.22.13,9.25,0A4.78,4.78,0,0,0,203,100a4.5,4.5,0,0,0-3.95-4.76c-3.27-.26-6.58-.06-9.93-.06Zm0-11.79c3.07,0,6.07.17,9-.06a4.09,4.09,0,0,0,3.86-4.07,4,4,0,0,0-3.67-4.08c-3-.26-6.14-.06-9.22-.06Z"/><path d="M235.31,94.63A12.5,12.5,0,1,1,223,81.83,12.57,12.57,0,0,1,235.31,94.63ZM222.68,105c5.5.11,10.24-4.64,10.37-10.37A10.23,10.23,0,1,0,222.68,105Z"/><path d="M387,94.47a12.53,12.53,0,1,1-12.63-12.64A12.68,12.68,0,0,1,387,94.47ZM374.56,105a10.5,10.5,0,1,0-10.28-10.45A10.5,10.5,0,0,0,374.56,105Z"/><path d="M326.6,82c4.12.26,8.22.07,12.12.85,6,1.19,9.34,6.23,9,12.62a11.44,11.44,0,0,1-10.15,10.94c-3.57.4-7.22.08-11,.08Zm2.24,22.55c2.49,0,4.91.18,7.3,0a9.9,9.9,0,0,0,9.35-9.4A9.61,9.61,0,0,0,338,84.85c-2.93-.61-6-.46-9.13-.66Z"/><path d="M251.37,103.12l1.33-1.66c2.29,2.08,4.83,3.56,7.91,3.48a12.36,12.36,0,0,0,4.23-.93,3.77,3.77,0,0,0,2.3-3.67A3.56,3.56,0,0,0,264.72,97c-1.45-.6-3-1-4.46-1.51s-2.74-.76-4.05-1.28c-2.06-.82-3.63-2.13-3.88-4.53a6.48,6.48,0,0,1,2.91-6.39,9.51,9.51,0,0,1,7.12-1.3,11.89,11.89,0,0,1,6.53,3.34c-.44.57-.86,1.12-1.36,1.75-2.11-1.71-4.28-3-7-3.09a5.93,5.93,0,0,0-4.83,1.86c-1.83,2-1.45,4.58,1,5.77a40.16,40.16,0,0,0,4.74,1.64,33.56,33.56,0,0,1,4.73,1.69,6.2,6.2,0,0,1,.39,10.76C262.37,108.43,254.63,107.16,251.37,103.12Z"/><path d="M128.37,82.3h2.29V84c0,4.47-.1,8.95,0,13.42a7.58,7.58,0,0,0,11.39,6.62c2.75-1.54,3.84-4.08,3.87-7.11,0-4.26,0-8.53,0-12.79v-1.8h2.2a2.44,2.44,0,0,1,.16.57c0,5,.2,9.91-.14,14.83-.4,5.9-4.28,9.38-9.81,9.4s-9.53-3.39-9.94-9.26C128.09,92.77,128.37,87.61,128.37,82.3Z"/><path d="M299.16,82.29h2.08c0,.57.08,1.12.09,1.67,0,4.37-.05,8.73,0,13.1.07,5.69,5.08,9.37,10.25,7.54a6.85,6.85,0,0,0,4.87-6c.32-3.39.23-6.82.29-10.23,0-2,0-3.89,0-6h2.13c0,.47.09.92.09,1.38,0,4.47,0,8.94,0,13.41a10,10,0,0,1-19.9.08c0-4.52,0-9,0-13.57C299.07,83.26,299.12,82.85,299.16,82.29Z"/><path d="M293.25,82.36v2h-8.31v22.37h-2.39V84.42h-8.33V82.36Z"/><path d="M106.1,103.16l1.57-1.69.88,1.08a6.28,6.28,0,0,0,6.63,2.22c2.21-.76,3.6-2.9,3.62-5.75,0-5,0-9.89,0-14.84V82.36h2.27c0,.43.1.88.1,1.33,0,5,0,10,0,15,0,4.47-2.42,7.78-6.18,8.35S108.43,106.19,106.1,103.16Z"/><path d="M356.16,106.71H354V82.35h2.13Z"/><path d="M93.67,76.27v36.51l-.42.11a6,6,0,0,1-.32-1.35c0-2.68,0-5.37,0-8.05q0-12.87,0-25.73a10.91,10.91,0,0,1,.24-1.59Z"/></svg>