<svg id="Layer_1" data-name="Layer 1" xmlns="http://www.w3.org/2000/svg" viewBox="0 0 188.07 64.31"><defs><style>.cls-1{fill:#c1c7d0;}</style></defs><title>Artboard 7</title><path class="cls-1" d="M47.47.1l1.9.3a10.1,10.1,0,0,1,5.8,4.1c1,1.3,1.8,2.8,2.7,4.2,6.6,10.6,13.2,21.1,19.8,31.6a12.81,12.81,0,0,1,1.7,4.2A4.62,4.62,0,0,1,76,49.9a15.26,15.26,0,0,1-3,.3c-2.3,0-4.6-.1-7-.1-.2,0-.5-.1-.5-.3-1.7-3.1-3.5-6.1-5.2-9.2,0-.1-.1-.2-.2-.3h3.2L47.77,14.5c-.1.2-.2.3-.3.5-3.8,7.8-7.7,15.6-11.5,23.4a.66.66,0,0,1-.8.5c-2.6-.1-5.2-.1-7.8-.2l-5.2-.1h-.3l.2-.4L38,8.5c.7-1.2,1.2-2.6,1.9-3.8A8.69,8.69,0,0,1,46,.1a2.77,2.77,0,0,1,.9-.1Z"/><path class="cls-1" d="M27.87.1a12.86,12.86,0,0,1,1.9.4A10.65,10.65,0,0,1,35.47,5c.4.6.8,1.3,1.2,2a.45.45,0,0,1,0,.5c-2,3.7-3.9,7.5-5.9,11.2l-.1.1-2.8-4.3-12,25.3h1.2l21.6.4c1.4,0,2.8,0,4.1.1a.76.76,0,0,1,.5.2c1.8,3.1,3.7,6.2,5.5,9.3,0,.1,0,.1.1.2h-.2l-14.4-.1h-6.7l-17.4-.3c-1.4,0-2.8,0-4.2-.1a6,6,0,0,1-5.1-2.7A5.78,5.78,0,0,1,.27,42a12,12,0,0,1,1.5-3.5L18.37,7.4c.5-1,1.1-2,1.7-3a8.81,8.81,0,0,1,6-3.9l.8-.1Z"/><path class="cls-1" d="M188.07,43.2H85.17V41.7h102.9v1.5Z"/><path class="cls-1" d="M90.57,55.8a11,11,0,0,0-1.8-.2c-1,0-2,0-3,.1a.9.9,0,0,1-.5-.1v-.2c.2,0,.4-.1.7-.1a1.11,1.11,0,0,0,1.1-1.1h0a14.92,14.92,0,0,0,.2-2.1c0-1.7.1-3.4.1-5.1,0-.3-.1-.7-.1-1a1.07,1.07,0,0,0-1-1c-.1,0-.2-.2-.3-.3.1-.1.2-.1.4-.1,1.8,0,3.6.1,5.3.2A5.6,5.6,0,0,1,97,50.7a5.89,5.89,0,0,1-2.6,4.5,4.28,4.28,0,0,1-2.2.6c-.1,0-.3.1-.4.1Zm-1.8-4.7h0v2.8a1.2,1.2,0,0,0,.9,1.2,3.86,3.86,0,0,0,4.1-1,6.12,6.12,0,0,0,1.3-5.2,4.59,4.59,0,0,0-2-3.2,5.67,5.67,0,0,0-3.4-.7c-.7,0-.7.1-.8.8C88.87,47.6,88.77,49.3,88.77,51.1Z"/><path class="cls-1" d="M118.27,55.8c-.3-.1-.7-.1-1-.2a5.14,5.14,0,0,1-3.6-3.8,6,6,0,0,1,2.6-6.5,5.11,5.11,0,0,1,7,1.5,10.09,10.09,0,0,1,.7,1.5,5.89,5.89,0,0,1-4.1,7.3h-.2l-.7.1h-.7Zm-2.9-6.4a8.54,8.54,0,0,0,.8,4.2,2.87,2.87,0,0,0,3.9,1.3,2.54,2.54,0,0,0,1.2-1.1,7.3,7.3,0,0,0,1.1-4.3,5.88,5.88,0,0,0-1.3-3.6,2.84,2.84,0,0,0-3.9-.6c-.2.1-.3.3-.4.4A5.88,5.88,0,0,0,115.37,49.4Z"/><path class="cls-1" d="M151.87,55.8a6.15,6.15,0,0,1-1.4-.1l-7.1-.1a.75.75,0,0,1-.5-.1v-.1a.35.35,0,0,0,.2-.1c1.4-.1,1.4-.7,1.4-1.7,0-2.6,0-5.2-.1-7.7a.73.73,0,0,0-.6-.7l-.8-.3v-.2a.6.6,0,0,1,.4-.1l8.2.2.4,2.6-.1.1-.3-.3a5.58,5.58,0,0,1-.5-.8,3.37,3.37,0,0,0-2.8-1.4,13.4,13.4,0,0,0-2,.1.45.45,0,0,0-.3.3v4.3a6.93,6.93,0,0,0,2-.3c.7-.2.8-1.1,1.2-1.6h.1v4c0,.1-.1.2-.2.3l-.2-.2c-.1-.2-.1-.4-.2-.6a1.6,1.6,0,0,0-1.4-1.1l-1.5-.1c0,1.4.1,2.8.2,4.1a1.19,1.19,0,0,0,1.2,1A6.66,6.66,0,0,0,150,55a3.24,3.24,0,0,0,2-1.8c0-.1.1-.2.2-.3s.1-.1.2-.1a.35.35,0,0,0,.1.2c-.2.8-.4,1.7-.6,2.5q.3.15,0,.3Z"/><path class="cls-1" d="M187.07,55.8h-.4l-7.9-.1a1.27,1.27,0,0,1-.6-.1v-.1c.1,0,.3-.1.4-.1.9-.1,1.2-.3,1.2-1.3V46.8h0a1.28,1.28,0,0,0-.9-1.6.37.37,0,0,1-.3-.1c-.1,0-.2-.2-.2-.3a.37.37,0,0,1,.3-.1c.7,0,1.4.1,2.1.1,1.9,0,3.8.1,5.7.1h.5l.5,2.7-.1.1c-.1-.1-.2-.1-.2-.2a5.55,5.55,0,0,0-.6-.8,3.1,3.1,0,0,0-2.7-1.3,14.77,14.77,0,0,0-2.1.1.32.32,0,0,0-.3.3c-.1,1.4-.1,2.8-.1,4.2a5,5,0,0,0,2.1-.2c.7-.3.8-1.1,1.1-1.6h.1v4.2h-.2c-.2-.6-.3-1.4-1-1.7a4.09,4.09,0,0,0-2.2-.3c0,1.4.1,2.8.2,4.1a1,1,0,0,0,.8.9,5.58,5.58,0,0,0,4-.5,2.76,2.76,0,0,0,1.2-1.4c.1-.2.2-.3.3-.5h.1v.5c-.1.7-.3,1.4-.4,2,0,.1-.2.3-.3.4Z"/><path class="cls-1" d="M107.17,55.8h-.7l-7.6-.1a.9.9,0,0,1-.5-.1v-.1a.37.37,0,0,1,.3-.1c1.2-.1,1.3-.4,1.4-1.5.1-2.4,0-4.8,0-7.2,0-1,0-1.1-1-1.5-.1-.1-.3-.1-.4-.2v-.1a.75.75,0,0,1,.5-.1c2.6,0,5.2.1,7.9.2.1,0,.3.1.3.2a18.66,18.66,0,0,1,.4,2.5l-.1.1-.3-.3-.6-.9a3,3,0,0,0-2.6-1.2,12.75,12.75,0,0,0-2,.1.45.45,0,0,0-.3.3V50a4.42,4.42,0,0,0,2-.2c.7-.3.8-1.1,1.2-1.8.1.1.1.3.2.5,0,1.2,0,2.3-.1,3.5a.76.76,0,0,1-.2.4c-.1-.1-.1-.2-.2-.3-.3-1.2-.8-1.6-2.2-1.7h-.8v.9c0,1,0,2,.1,3a1.24,1.24,0,0,0,1.3,1.2,6.66,6.66,0,0,0,2.8-.2,3.24,3.24,0,0,0,2-1.8,1.76,1.76,0,0,1,.4-.5,10.47,10.47,0,0,1-.5,3Z"/><path class="cls-1" d="M46.17,21.4,49,25.9c6,9.8,12.1,19.6,18.1,29.4a6.56,6.56,0,0,1,.2,7,3.86,3.86,0,0,1-3.7,2l-18.4-.4L26,63.5c-4.2-.1-8.3-.2-12.5-.2a4.5,4.5,0,0,1-4.2-3.2,8.58,8.58,0,0,1,1.4-8.3,2,2,0,0,1,2-1l13,.3h.2l-.8,2.2,27,.5c-.1-.2-.1-.3-.2-.4-3.7-6.7-7.5-13.4-11.3-20.1a1.05,1.05,0,0,1,0-1.3c1.8-3.4,3.5-6.8,5.3-10.1Z"/><path class="cls-1" d="M110.17,40.3h-3l-4.7-.1c-.5,0-.7-.2-.7-.6s.2-.6.7-.7.9-.1,1.4-.1a2.34,2.34,0,0,0,1.9-2.1,19.42,19.42,0,0,0,.2-2.4c.1-4.8.3-9.6.3-14.5a28.28,28.28,0,0,0-.3-4.1c-.2-1.5-1.2-1.9-2.4-2h-.3c-.5-.1-.6-.3-.6-.7s.4-.5.7-.5l2.9.3c1.8.1,3.6.1,5.4.1s3.5-.2,5.3-.1a16.43,16.43,0,0,1,7.2,1.9,12.57,12.57,0,0,1,5.6,6.8,15.47,15.47,0,0,1,.8,6.7,13.94,13.94,0,0,1-2.9,7.5,11.17,11.17,0,0,1-7.6,4.3,36.22,36.22,0,0,1-5.7.2h-4.2Zm1.4-9.8h0v1.4c.1,1.5.1,3.1.2,4.6a2.36,2.36,0,0,0,2.1,2.2,4.87,4.87,0,0,0,1.2.1,7.7,7.7,0,0,0,6.6-3,12.28,12.28,0,0,0,2.3-6.7,18.16,18.16,0,0,0-.2-5.2,15.61,15.61,0,0,0-2.1-5.8c-2.2-3.4-5.5-4.3-9-3.9a.77.77,0,0,0-.7.8c-.1,1.9-.2,3.8-.2,5.7,0,3.4-.1,6.6-.2,9.8Z"/><path class="cls-1" d="M154.67,13.2c.3,1.4.5,2.9.8,4.3a13.8,13.8,0,0,1,.3,2,1.85,1.85,0,0,1-.2.7.49.49,0,0,1-.7-.1h0c-.5-.7-1-1.5-1.6-2.2a6.91,6.91,0,0,0-4.2-2.9,15.26,15.26,0,0,0-3-.3,26.35,26.35,0,0,0-2.8.2c-.3,0-.4.1-.4.4l-.3,7.2v2.8a7.42,7.42,0,0,0,3.9-.5,3.25,3.25,0,0,0,1.3-1.3,12.44,12.44,0,0,0,1-2c0-.1.1-.2.1-.3a.52.52,0,0,1,.7-.3.45.45,0,0,1,.3.6,71.23,71.23,0,0,0-.2,8,6.75,6.75,0,0,0,.2,1.4c0,.1.1.3,0,.4s-.2.5-.4.5a.86.86,0,0,1-.6-.3,3.58,3.58,0,0,1-.4-1.1,4.37,4.37,0,0,0-3.6-3.4l-2.3-.3c0,1-.1,2-.1,3,0,2.2,0,4.4.1,6.6a2.26,2.26,0,0,0,2,2.2,13.56,13.56,0,0,0,7.7-1,7.67,7.67,0,0,0,3.5-3.4c.1-.3.3-.5.4-.8a.52.52,0,0,1,.7-.3.45.45,0,0,1,.3.6c-.1.8-.3,1.6-.4,2.3l-.9,4.2h-.4c-3.4,0-6.9,0-10.3-.1-2.5,0-5-.1-7.5-.2-1,0-2,.1-3,.1a4.87,4.87,0,0,1-1.2-.1.57.57,0,0,1-.4-.7.66.66,0,0,1,.5-.4c.4,0,.8-.1,1.2-.1a2.26,2.26,0,0,0,2-2.2,28.25,28.25,0,0,0,.2-2.9c.1-4.8.1-9.6.1-14.4,0-1.1-.1-2.1-.2-3.2a1.75,1.75,0,0,0-1.5-1.8c-.3-.1-.7-.1-1-.2-.6-.1-.8-.3-.7-.7s.3-.5.8-.5c1.3,0,2.6.1,3.9.1,5.2,0,10.4.1,15.6.1Z"/><path class="cls-1" d="M169.67,30.1h-3.6a.52.52,0,0,0-.4.2c-.5,1.7-1,3.4-1.5,5.2-.5,2,.4,2.9,2.4,3.3.6.1.9.3.8.7s-.3.5-1,.5c-1.7,0-3.4-.1-5.1-.2a14.92,14.92,0,0,0-2.1.2c-.7.1-.9-.2-.8-.7.1-.2.2-.3.3-.5a.35.35,0,0,1,.2-.1,5.17,5.17,0,0,0,3.6-3.7c1-2.5,1.8-5,2.7-7.5,1.8-5,3.7-10.1,5.6-15.1a.55.55,0,0,1,.5-.3c1,0,1.1,0,1.4,1,2.5,6.6,5.1,13.2,7.6,19.8.5,1.4,1.1,2.7,1.7,4.1a3.31,3.31,0,0,0,2.7,2,.71.71,0,0,1,.6.3.45.45,0,0,1,0,.5.6.6,0,0,1-.6.3c-.8,0-1.7-.1-2.5-.1-1.8,0-3.5-.1-5.2-.1-1.1,0-2.2.1-3.3.2h-.5a.56.56,0,0,1-.5-.6c0-.3.3-.4.6-.5a8.33,8.33,0,0,0,1.5-.4,1.81,1.81,0,0,0,.9-2,33.29,33.29,0,0,0-2.1-6.3.52.52,0,0,0-.4-.2,20.44,20.44,0,0,1-3.5,0Zm0-10.7c-1.1,3-2.2,6-3.2,8.9h6.6Z"/><path class="cls-1" d="M91.27,26.7V19.3c0-1.1-.2-2.2-.3-3.3a1.67,1.67,0,0,0-1.7-1.6c-.2,0-.5-.1-.7-.1-.5-.1-.7-.3-.7-.7s.2-.6.7-.5c1.6,0,3.2.2,4.8.2,1.8,0,3.6-.1,5.4-.1h1.1c.3,0,.6.1.6.5s-.1.6-.4.6H100a2.92,2.92,0,0,0-.9.2,2,2,0,0,0-1.9,1.8,12.41,12.41,0,0,0-.3,2.7c-.1,3.3-.1,6.5-.1,9.8,0,1.7,0,3.4.1,5a26,26,0,0,0,.5,3.9,1.81,1.81,0,0,0,2,1.6h.6a.56.56,0,0,1,.6.5c.1.3-.2.6-.5.7h0a7.57,7.57,0,0,1-1.5.1c-2.1-.1-4.1-.2-6.2-.2-1.2,0-2.5.1-3.7.2h-.3c-.3,0-.6-.1-.6-.5s.2-.5.5-.6.8-.2,1.2-.3a2,2,0,0,0,1.4-1.5,17.33,17.33,0,0,0,.3-3.2C91.37,31.6,91.27,29.1,91.27,26.7Z"/><path class="cls-1" d="M131.67,50a3.48,3.48,0,0,1,2.3,3.1c.1.3.2.7.3,1a1.88,1.88,0,0,0,1.5,1.2c.1,0,.2.1.3.2-.1.1-.2.2-.3.2-.8,0-1.6-.1-2.3-.1a.85.85,0,0,1-.8-.7,23.81,23.81,0,0,1-.5-2.6c-.1-.2-.1-.5-.2-.8a2,2,0,0,0-1.9-1.4c-1.7,0-1.4-.2-1.5,1.4a23.48,23.48,0,0,0,.1,2.6c.1.9.4,1,1.2,1.2.1,0,.3.1.4.1v.1c-.1.1-.2.1-.4.1h-4c-.1,0-.2-.1-.3-.2.1-.1.2-.1.3-.2a1.2,1.2,0,0,0,1.2-1.1V46.4a1.7,1.7,0,0,0-.1-.7,1.09,1.09,0,0,0-.8-.8,1.42,1.42,0,0,1-.6-.2v-.1a.6.6,0,0,1,.4-.1c1.8,0,3.5-.1,5.2-.1a3.17,3.17,0,0,1,2.7,1.1,2.42,2.42,0,0,1-.3,3.5c-.2.1-.4.3-.6.4A3.93,3.93,0,0,1,131.67,50Zm-3.1-.3h1.2a3.1,3.1,0,0,0,2.4-1,2.35,2.35,0,0,0,.4-2.4,2,2,0,0,0-1.7-1.5,5.83,5.83,0,0,0-2.3.2Z"/><path class="cls-1" d="M158.17,55.6h-4.5v-.2a.37.37,0,0,1,.3-.1c1.5-.1,1.6-.6,1.6-1.8,0-2.1,0-4.2-.2-6.3a2.25,2.25,0,0,0-1.6-2.1l-.3-.2v-.1a.6.6,0,0,1,.4-.1h2a.55.55,0,0,1,.5.3l6.4,7.7.1.1c0-.4.1-.8.1-1.2V47.4a3.4,3.4,0,0,0-.1-1,1.62,1.62,0,0,0-1.6-1.2c-.2,0-.3-.1-.5-.1a9.78,9.78,0,0,1,4.5-.1c-.2.1-.3.1-.5.2a1.37,1.37,0,0,0-1.3,1.5v.1c-.1,2.8-.1,5.6-.2,8.5a.9.9,0,0,1-.1.5l-.2.1-7.1-8.5V48c0,1.6.1,3.2.1,4.9a7.72,7.72,0,0,0,.2,1.5,1.38,1.38,0,0,0,1.2,1.1,1.85,1.85,0,0,1,.7.2Z"/><path class="cls-1" d="M172.47,45.2c0,1-.1,2-.1,3,0,1.9.1,3.8.2,5.7,0,1,.5,1.4,1.5,1.4a.9.9,0,0,1,.5.1v.2a.6.6,0,0,1-.4.1h-4.7c-.1,0-.2-.1-.3-.2.1-.1.2-.2.3-.2a1.47,1.47,0,0,0,1.5-1.5V47.3c0-.7-.1-1.4-.1-2.2-1.8-.3-3.5.1-4.3,1.9,0,.1-.2.2-.3.3,0-.1-.1-.2-.1-.4a19.53,19.53,0,0,0,.2-2.3h10.7a7.84,7.84,0,0,0,.2,1.4c0,.3.1.5.1.8,0,.1-.1.3-.1.4-.1-.1-.2-.1-.3-.2s-.3-.3-.4-.5a2.61,2.61,0,0,0-2.2-1.3A12,12,0,0,0,172.47,45.2Z"/><path class="cls-1" d="M137.07,44.6H141a.76.76,0,0,1,.4.2c-.1.1-.2.2-.3.2-.9.2-1,.4-1,1.3V54c0,.9.2,1.1,1.1,1.3.1,0,.2.1.3.2l-.1.1h-3.9a.22.22,0,0,1-.2-.2l.2-.2c.9-.3.9-.3.9-1.2V46.4a1.7,1.7,0,0,0-.1-.7.85.85,0,0,0-.7-.7c-.2-.1-.3-.1-.5-.2Z"/></svg>