<svg id="Layer_1" data-name="Layer 1" xmlns="http://www.w3.org/2000/svg" viewBox="0 0 222.4 56.14"><defs><style>.cls-1{fill:#c1c7d0;}</style></defs><title>Artboard 14</title><path class="cls-1" d="M8.6,0V17.5a10.82,10.82,0,0,1,3.3-3.1,7.82,7.82,0,0,1,3.9-1,9.25,9.25,0,0,1,7,3.2,12.56,12.56,0,0,1,2.9,8.5,13.14,13.14,0,0,1-3.1,9.3A9.47,9.47,0,0,1,15,37.9a8.6,8.6,0,0,1-3.9-.9,11.24,11.24,0,0,1-3.6-2.9,20,20,0,0,1-2.8,3.7l-1-.4a24.58,24.58,0,0,0,.7-6V4.8a2.32,2.32,0,0,0-.9-1.9A3.67,3.67,0,0,0,1,2.2H0V.3Zm6.3,15.5A5.32,5.32,0,0,0,10.3,18c-1.2,1.7-1.8,4.4-1.8,8.2,0,3.6.6,6.2,1.8,7.7a5.33,5.33,0,0,0,4.5,2.3,4.87,4.87,0,0,0,4.1-2.3c1.3-1.9,2-4.7,2-8.3s-.6-6.1-1.7-7.7A5.07,5.07,0,0,0,14.9,15.5Z"/><path class="cls-1" d="M25.6,14l9.4-.3V33.9a1.75,1.75,0,0,0,.4,1.2,2.46,2.46,0,0,0,1.5.5h2.7v1.9H26.2V35.6h2.5a1.81,1.81,0,0,0,2.1-2.1V18.7a2.35,2.35,0,0,0-.8-2.1,3.41,3.41,0,0,0-2.4-.7H25.7V14ZM32.1,0a2.52,2.52,0,0,1,2,.9,3.37,3.37,0,0,1,.9,2,2.8,2.8,0,0,1-5.6-.2A2.69,2.69,0,0,1,32.1,0Z"/><path class="cls-1" d="M90.1,35.6a2.51,2.51,0,0,1-1.9-.5,3,3,0,0,1-.6-1.8V21.9a9.47,9.47,0,0,0-1-4.4,6.4,6.4,0,0,0-2.5-2.9,7.48,7.48,0,0,0-3.9-.9A9.47,9.47,0,0,0,75.3,15a12.19,12.19,0,0,0-3.7,3.8,46.33,46.33,0,0,0-.7-5.2l-7.8.5v1.6h1.2a3.07,3.07,0,0,1,2.4.8,2.74,2.74,0,0,1,.8,2.3V34a1.31,1.31,0,0,1-.6,1.2,3,3,0,0,1-1.9.5H63.7l-.5-.7a3.23,3.23,0,0,1-2.1.8,1.6,1.6,0,0,1-1.4-.8,4.34,4.34,0,0,1-.5-2.5V19.7A5.45,5.45,0,0,0,57,15.3a10,10,0,0,0-6.4-1.8,12.39,12.39,0,0,0-7.3,2c-1.9,1.4-2.8,2.9-2.8,4.5a3.49,3.49,0,0,0,.8,2.2,2.88,2.88,0,0,0,2.1.9,2.64,2.64,0,0,0,1.9-.7,2.2,2.2,0,0,0,.7-1.8,3.59,3.59,0,0,0-.7-1.8,2.28,2.28,0,0,1-.6-1.2c0-.4.4-.9,1.1-1.3a8.19,8.19,0,0,1,3.8-.9,5.25,5.25,0,0,1,3.9,1.4A4.13,4.13,0,0,1,55,20.1v3.6a30.89,30.89,0,0,0-11.5,3.2c-2.9,1.6-4.3,3.6-4.3,6.1a5.12,5.12,0,0,0,1.9,4,8.89,8.89,0,0,0,5.5,1.6,10.29,10.29,0,0,0,4.3-.8,15.32,15.32,0,0,0,4.2-3.4,7.58,7.58,0,0,0,2,3.2,4.2,4.2,0,0,0,2.9.9,5.16,5.16,0,0,0,3.3-1.2v.5H75.8V35.9H74.2a2.88,2.88,0,0,1-2-.5,2.47,2.47,0,0,1-.6-1.8V24.9A9.07,9.07,0,0,1,73.5,19a5.82,5.82,0,0,1,4.7-2.3,4.89,4.89,0,0,1,4.3,2.2,9.22,9.22,0,0,1,1,4.9V33.9a2.27,2.27,0,0,1-.6,1.6,3.72,3.72,0,0,1-2.3.5H79.4v1.9H91.8V36ZM55,28.4A7.38,7.38,0,0,1,52.8,34a7,7,0,0,1-5.1,2.2A3.86,3.86,0,0,1,45,35.1a4.06,4.06,0,0,1-1-3,5.08,5.08,0,0,1,2-4.3c1.8-1.3,4.8-2.3,9-2.9Z"/><path class="cls-1" d="M108.6,30.6l1.6.5c-1.3,4.8-4.2,7.2-8.6,7.2a10.86,10.86,0,0,1-8-3.2,11.75,11.75,0,0,1-3.1-8.6c0-4.2,1.1-7.4,3.4-9.6a11,11,0,0,1,8-3.4,8.37,8.37,0,0,1,5.7,1.9,5.62,5.62,0,0,1,2.3,4.2,3.57,3.57,0,0,1-.8,2.3,2.79,2.79,0,0,1-3.8.3.1.1,0,0,1-.1-.1,2.73,2.73,0,0,1-.8-1.9,2.88,2.88,0,0,1,.9-2.1,1.23,1.23,0,0,0,.4-.8,2.07,2.07,0,0,0-1-1.4,5,5,0,0,0-2.7-.7,5.18,5.18,0,0,0-4.6,2.2,14.92,14.92,0,0,0-2.3,8.5c0,3.4.7,5.9,2,7.6a6.17,6.17,0,0,0,5.1,2.6C105,36.1,107.2,34.2,108.6,30.6Z"/><path class="cls-1" d="M120.6,13.3a10.51,10.51,0,0,1,8,3.4,12.5,12.5,0,0,1,3.2,9,13.79,13.79,0,0,1-1.4,6.6,10.62,10.62,0,0,1-4.1,4.3,11.47,11.47,0,0,1-5.8,1.6,10.19,10.19,0,0,1-7.8-3.5,14.43,14.43,0,0,1,0-18A10.82,10.82,0,0,1,120.6,13.3Zm0,1.8a5.41,5.41,0,0,0-4.6,2.6c-1.2,1.7-1.8,4.4-1.8,8s.6,6.4,1.8,8.2a5.41,5.41,0,0,0,4.6,2.6,5.89,5.89,0,0,0,4.8-2.6c1.2-1.7,1.8-4.5,1.8-8.5,0-3.6-.6-6.2-1.8-7.9A5.46,5.46,0,0,0,120.6,15.1Z"/><path class="cls-1" d="M140.3,0V34.1a1.5,1.5,0,0,0,.4,1.1,2.69,2.69,0,0,0,1.5.5h2.5v1.9H131.4V35.7h2.4a2.72,2.72,0,0,0,1.7-.6,2.27,2.27,0,0,0,.6-1.6V4.9a2,2,0,0,0-.7-1.8,3.78,3.78,0,0,0-2.3-.8H131V.4Z"/><path class="cls-1" d="M168.6,34.9l.9,1.4a5.64,5.64,0,0,1-4,1.9,5,5,0,0,1-2.9-.9,6.44,6.44,0,0,1-2-3.2,15.32,15.32,0,0,1-4.2,3.4,9.39,9.39,0,0,1-4.3.8,8.3,8.3,0,0,1-5.5-1.6,5.12,5.12,0,0,1-1.9-4c0-2.4,1.4-4.5,4.3-6.1a30.89,30.89,0,0,1,11.5-3.2V19.8a4.46,4.46,0,0,0-1.5-3.3,6.21,6.21,0,0,0-3.9-1.4,8.49,8.49,0,0,0-3.8.9c-.8.4-1.1.9-1.1,1.3a3.38,3.38,0,0,0,.6,1.2,2.87,2.87,0,0,1,.7,1.8,2.27,2.27,0,0,1-.7,1.8,2.64,2.64,0,0,1-1.9.7,2.88,2.88,0,0,1-2.1-.9,2.65,2.65,0,0,1-.8-2.2,5.56,5.56,0,0,1,2.8-4.5,12.59,12.59,0,0,1,7.3-2,10,10,0,0,1,6.4,1.8,5.45,5.45,0,0,1,2.2,4.4V32.2a4.19,4.19,0,0,0,.5,2.5,1.6,1.6,0,0,0,1.4.8A2.21,2.21,0,0,0,168.6,34.9ZM160.3,25c-4.3.6-7.3,1.5-9,2.9a5.08,5.08,0,0,0-2,4.3,4.06,4.06,0,0,0,1,3,3.86,3.86,0,0,0,2.7,1.1,7,7,0,0,0,5.1-2.2,7.77,7.77,0,0,0,2.2-5.6Z"/><path class="cls-1" d="M220.8,30.4c-2,3.7-4.6,5.6-7.9,5.6a7.29,7.29,0,0,1-5.5-2.5c-1.3-1.5-1.9-4-2-7.6h16.8a19,19,0,0,0-.9-5.8,10.8,10.8,0,0,0-3.7-5,10.27,10.27,0,0,0-5.9-1.8,10,10,0,0,0-7.8,3.5,13.7,13.7,0,0,0-3.2,9.3,22.75,22.75,0,0,0,.2,2.6h-1.4a9.25,9.25,0,0,1-1.4,5.2,3.48,3.48,0,0,1-2.9,1.6,3.1,3.1,0,0,1-2.4-1,4,4,0,0,1-.9-3V16.4h7.6V14.1h-7.6V4.5h-1.7a13.62,13.62,0,0,1-2.3,7.8,5.71,5.71,0,0,1-3.9,1.8h-7.6V4.5h-1.7a13.62,13.62,0,0,1-2.3,7.8,6.56,6.56,0,0,1-4.3,2.3v1.8h4.1V32.2a5.43,5.43,0,0,0,1.6,4.2,6.34,6.34,0,0,0,4.6,1.6,6.17,6.17,0,0,0,5.1-2.3c1.3-1.5,2-3.8,2.1-7h-1.7a9.25,9.25,0,0,1-1.4,5.2,3.36,3.36,0,0,1-2.9,1.6,3.1,3.1,0,0,1-2.4-1,4.12,4.12,0,0,1-.9-3V16.4h11.4V32.2a5.43,5.43,0,0,0,1.6,4.2,6.34,6.34,0,0,0,4.6,1.6,6.17,6.17,0,0,0,5.1-2.3,10.27,10.27,0,0,0,2.1-5.8,10.83,10.83,0,0,0,2.8,5,10.66,10.66,0,0,0,7.9,3.4c4.6,0,8.1-2.4,10.6-7.1ZM207.3,17.2a5.54,5.54,0,0,1,4.4-2.3,5.33,5.33,0,0,1,4.1,1.9,6.82,6.82,0,0,1,1.7,4.7,3.14,3.14,0,0,1-.5,2.1,1.82,1.82,0,0,1-1.4.6H205.4C205.4,21,206,18.7,207.3,17.2Z"/><path class="cls-1" d="M48.1,52.1a3.37,3.37,0,0,1,3.4-3.4A3.58,3.58,0,0,1,54,49.8l-.2.2a3.18,3.18,0,1,0-.1,4.5h0V52.9H51.4v-.2h2.5v2a3.35,3.35,0,0,1-4.8.1,4.49,4.49,0,0,1-1-2.7Z"/><path class="cls-1" d="M51.6,56.1a3.9,3.9,0,0,1-3.9-3.9,4,4,0,0,1,6.8-2.8l.4.4-.9.9-.4-.4a2.66,2.66,0,0,0-3.7-.2,2.44,2.44,0,0,0-.8,2,2.65,2.65,0,0,0,2.6,2.6,2.72,2.72,0,0,0,1.7-.6v-.9H51.1V51.9h3.6v2.7l-.1.1A4.4,4.4,0,0,1,51.6,56.1Z"/><path class="cls-1" d="M58.4,55.5V48.8h3.9V49H58.7v3h2.5v.2H58.7v3.1h3.6v.2Z"/><polygon class="cls-1" points="62.8 56 57.9 56 57.9 48.2 62.8 48.2 62.8 49.5 59.2 49.5 59.2 51.4 61.7 51.4 61.7 52.7 59.2 52.7 59.2 54.7 62.8 54.7 62.8 56"/><path class="cls-1" d="M66.8,55.5V48.8h.3v6.5h3.6v.3Z"/><polygon class="cls-1" points="71.2 56 66.3 56 66.3 48.2 67.6 48.2 67.6 54.7 71.2 54.7 71.2 56"/><path class="cls-1" d="M77.5,48.7l2.2,6.7h-.3l-.5-1.6h-3l-.5,1.6h-.3l2.4-6.7Zm0,.7-1.4,4.2h2.7Z"/><path class="cls-1" d="M80.4,56H79l-.5-1.6H76.3L75.8,56H74.4L77,48.2h.3l.1-.5.1.5h.2l.2.4Zm-3.6-2.9h1.3l-.7-2Z"/><path class="cls-1" d="M86.3,49v6.5H86V49H83.9v-.2h4.5V49Z"/><polygon class="cls-1" points="86.8 56 85.5 56 85.5 49.5 83.4 49.5 83.4 48.2 88.9 48.2 88.9 49.5 86.8 49.5 86.8 56"/><path class="cls-1" d="M92.6,52.1a3.16,3.16,0,1,1,3.1,3.4,3.24,3.24,0,0,1-3.2-3.3C92.6,52.2,92.6,52.2,92.6,52.1Zm.3,0a2.86,2.86,0,1,0,5.7-.5,2.94,2.94,0,0,0-2.9-2.7,3,3,0,0,0-2.8,3.2Z"/><path class="cls-1" d="M95.8,56.1a4,4,0,1,1,3.7-4.3v.3A3.7,3.7,0,0,1,96,56C95.9,56.1,95.9,56.1,95.8,56.1Zm0-6.6a2.66,2.66,0,1,0,2.4,2.9v-.3a2.54,2.54,0,0,0-2.4-2.6Z"/><path class="cls-1" d="M113.5,53.3a2.15,2.15,0,1,1-4.3.1h0a2.25,2.25,0,0,1,1.6-2.1,1.39,1.39,0,0,1-.7-1.2,1.3,1.3,0,1,1,2.6-.2v.2h-.2a1.15,1.15,0,1,0-1.3,1.1h.2v.2a2,2,0,0,0,0,3.9,2,2,0,0,0,1.9-1.9h-1.2v-.2h1.7a2.1,2.1,0,0,0,1.1-.4l.2.2a1.85,1.85,0,0,1-1.2.5Z"/><path class="cls-1" d="M111.4,56a2.75,2.75,0,0,1-2.7-2.7,2.51,2.51,0,0,1,1.2-2.2,2.1,2.1,0,0,1-.4-1.1,1.86,1.86,0,1,1,3.7-.3v.8h-1.3V50a.6.6,0,1,0-.6.6h.5v.6l.1.1-.1.1v.5h-.5a1.4,1.4,0,1,0,0,2.8,1.42,1.42,0,0,0,1.3-.9h-1.1V52.5h2.3a.91.91,0,0,0,.7-.3l.4-.4.9,1-.4.4a2,2,0,0,1-1.4.6A2.59,2.59,0,0,1,111.4,56Z"/><path class="cls-1" d="M130.3,55.1a4.8,4.8,0,0,1-1.7.5,3.4,3.4,0,1,1,0-6.8,4.07,4.07,0,0,1,1.8.5h.1l-.2.2a4.8,4.8,0,0,0-1.7-.5,3.21,3.21,0,0,0-.4,6.4h.4a3.37,3.37,0,0,0,1.7-.5l.2.2Z"/><path class="cls-1" d="M128.5,56.1a4,4,0,0,1-1.1-7.9,2,2,0,0,1,1.1,0,4.55,4.55,0,0,1,2,.5l.6.4-.7,1-.4-.2a4.19,4.19,0,0,0-1.5-.4,2.7,2.7,0,0,0,0,5.4,4.19,4.19,0,0,0,1.5-.4l.4-.2.4.5.4.5-.6.3A8,8,0,0,1,128.5,56.1Z"/><path class="cls-1" d="M136.8,48.7l2.2,6.7h-.2l-.5-1.6h-3l-.5,1.6h-.3l2.3-6.7Zm0,.7-1.4,4.2h2.8Z"/><path class="cls-1" d="M139.8,56h-1.4l-.5-1.6h-2.2l-.5,1.6h-1.4l2.6-7.8h.3l.2-.5.2.5h.2l.2.4Zm-3.7-2.9h1.3l-.7-2Z"/><path class="cls-1" d="M143.7,49v3h2.6v.2h-2.6v3.3h-.3V48.8h3.9V49Z"/><polygon class="cls-1" points="144.2 56 142.9 56 142.9 48.2 147.8 48.2 147.8 49.5 144.2 49.5 144.2 51.5 146.8 51.5 146.8 52.7 144.2 52.7 144.2 56"/><path class="cls-1" d="M151.9,49v3h2.6v.2h-2.6v3.3h-.3V48.8h3.9V49Z"/><polygon class="cls-1" points="152.4 56 151.1 56 151.1 48.2 156 48.2 156 49.5 152.4 49.5 152.4 51.5 155 51.5 155 52.7 152.4 52.7 152.4 56"/><path class="cls-1" d="M159.9,55.5V48.7h3.9v.2h-3.6v3h2.5v.2h-2.5v3.1h3.6v.2Z"/><polygon class="cls-1" points="164.3 56 159.3 56 159.3 48.2 164.3 48.2 164.3 49.5 160.7 49.5 160.7 51.4 163.2 51.4 163.2 52.7 160.7 52.7 160.7 54.7 164.3 54.7 164.3 56"/><path class="cls-1" d="M161.5,47.3l-.1-.1.5-.7.4.2Z"/><polygon class="cls-1" points="161.5 48 160.7 47.3 161.7 45.8 163.1 46.7 161.5 48"/></svg>