<svg id="Layer_1" data-name="Layer 1" xmlns="http://www.w3.org/2000/svg" viewBox="0 0 81.6 81.6"><defs><style>.cls-1{fill:#c1c7d0;}.cls-2{fill:#fff;}.cls-3{fill:#ebecf0;}</style></defs><title>Artboard 22</title><path class="cls-1" d="M40.8,0A40.8,40.8,0,1,0,81.6,40.8,40.84,40.84,0,0,0,40.8,0Zm.5,72.9A31.8,31.8,0,1,1,73.1,41.1,31.82,31.82,0,0,1,41.3,72.9Z"/><path class="cls-2" d="M18.6,67.3a5.88,5.88,0,0,1-1.7,1.8,1.6,1.6,0,0,1-2.2-.8,1.48,1.48,0,0,1,0-1.3,3.92,3.92,0,0,1,.8-1,3.92,3.92,0,0,1,1-.8,1.6,1.6,0,0,1,2.2.8,2,2,0,0,1-.1,1.3Zm-1.9-1.5a2.7,2.7,0,0,0-.8.7,3.11,3.11,0,0,0-.7.9,1,1,0,0,0,1.4,1.4,5.72,5.72,0,0,0,.8-.7,3.11,3.11,0,0,0,.7-.9,1,1,0,0,0-.5-1.3A.65.65,0,0,0,16.7,65.8Z"/><path class="cls-2" d="M12.5,66.1h0l-.4-.4v-.1h0l3-2.4v-.1l-1.3-1.7v-.1h0l.3-.3h.1l1.7,2.1v.1h0Z"/><path class="cls-2" d="M13.2,59.7h0l-1.5,1.1-1.5,2.5h-.1l-.2-.4v-.1L11,60.9h0l-2.2.2H8.7l-.2-.4v-.1l2.9-.3,1.5-1H13Z"/><path class="cls-2" d="M7.5,58.9h0l-.3-.4v-.1l2.2-2.5h0L6.1,56a.1.1,0,0,1-.1-.1l-.2-.4v-.1h0l4-1.8h.1l.2.4v.1h0L7.3,55.4H10c.1,0,.1,0,.1.1l.1.2v.1l-1.8,2h0l2.9-1.3h.1l.2.4V57Z"/><path class="cls-2" d="M9.4,51.8h0L5.2,53.1H5.1l-.4-1.5a1.26,1.26,0,0,1,.8-1.7,1.26,1.26,0,0,1,1.7.8c0,.1,0,.1.1.2l.3,1h0l1.6-.5h.1ZM5.7,50.3a.78.78,0,0,0-.6.9v.1l.3,1h0l1.4-.4h0l-.3-1c.1-.3-.3-.6-.8-.6Z"/><path class="cls-2" d="M3.9,48.3h0l-.2-.5a.1.1,0,0,1,.1-.1l4.3-.8h.1l.1.5v.1Z"/><path class="cls-2" d="M5.7,45.5a2.85,2.85,0,0,1-1.3,0A1.57,1.57,0,0,1,4,42.6h.1l.2.4v.1a.88.88,0,0,0-.5,1,1,1,0,0,0,.7.9,2.05,2.05,0,0,0,1.1,0,3.59,3.59,0,0,0,1.1-.2.89.89,0,0,0,.6-1,1.07,1.07,0,0,0-.7-.9v-.1l.2-.4h.1a1.5,1.5,0,0,1,1,1.4,1.43,1.43,0,0,1-1,1.6A4.48,4.48,0,0,1,5.7,45.5Z"/><path class="cls-2" d="M5.6,38.5a2.66,2.66,0,0,1-1.2-.3,1.54,1.54,0,0,1-.9-1.6,1.5,1.5,0,0,1,1.1-1.3h.1l.1.4v.1a1.06,1.06,0,0,0-.2,1.9,4.25,4.25,0,0,0,1.1.2,2.05,2.05,0,0,0,1.1,0,1.09,1.09,0,0,0,.8-.8.88.88,0,0,0-.5-1V36l.2-.4h.1a1.62,1.62,0,0,1-.5,2.9A2.85,2.85,0,0,1,5.6,38.5Z"/><path class="cls-2" d="M4.2,33.2h0l.7-2.7a.1.1,0,0,1,.1-.1H5l.4.1a.1.1,0,0,1,.1.1l-.6,2.1m0,.1,1.3.3h0l.5-1.8h.1l.4.1v.1l-.5,1.8h0l1.3.4h.1l.5-2.1h.1l.4.1v.1l-.7,2.6H8.3Z"/><path class="cls-2" d="M5.6,28.5h0l.2-.5.1-.1,3.9-.6h0L6.7,26v-.1l.2-.4H7l4,1.7v.1l-.2.4-.1.1-3.9.6h0l3.1,1.3v.1l-.2.4s0,.1-.1,0Z"/><path class="cls-2" d="M12.2,24.8c0,.1-.1.1,0,0h0L8.8,22.9H8.7L8.1,24H8l-.4-.2v-.1L9.2,21h.1l.4.2v.1h0l-.6,1.1v.1l3.3,2v.1h0Z"/><path class="cls-2" d="M10.4,19.5h0l1.7-2.2h.1l.3.3v.1h0l-1.3,1.7m-.1-.1,1,.8m.1,0,1.1-1.5h.1l.3.3V19l-1.1,1.4m0,.1,1.1.8h0L15,19.6h.1l.3.3V20h0l-1.7,2.1h-.1Z"/><path class="cls-2" d="M18.4,17h0l-2-.7-.7.7m0,.1L17,18.4v.1h0l-.3.3h-.1l-3.1-3.1v-.1h0l1.2-1.1a1.39,1.39,0,0,1,1.8-.2l.1.1a1.21,1.21,0,0,1,.2,1.5l2,.7c.1,0,.1,0,0,.1Zm.4-2.3a.77.77,0,0,0-1-.1l-.1.1-.8.7m.1.1,1,1h0l.8-.7a.78.78,0,0,0,.2-1,.1.1,0,0,0-.1-.1Z"/><path class="cls-2" d="M22.6,13.8h0l-2.2-3.2h0l-1,.7h-.1l-.2-.4v-.1h0l2.6-1.7h.1l.2.4v.1l-1,.7h0l2.1,3.2v.1h0Z"/><path class="cls-2" d="M23.9,7.9V7.8l.4-.2h.1l3.3,3.2m0,.1-.4.2h-.1l-.7-.7-1.6.8.1,1v.1l-.4.2h-.1ZM26.1,10,24.5,8.5h0l.3,2.1Z"/><path class="cls-2" d="M27.6,6.2h0l2.6-1h.1l.1.4v.1l-2,.7m0,.1.4,1.3h0l1.7-.6h.1l.1.4v.1L29,8.3m0,0,.4,1.3h0l2-.7h.1l.1.4v.1l-2.6.9h-.1Z"/><path class="cls-2" d="M32.3,4.8h0l.5-.2h.1l.4,2.3,1.4-2.7a.1.1,0,0,1,.1-.1l.5-.1s.1,0,0,.1L34.3,6l2,2.3v.1l-.5.1h-.1L34,6.6l-.6,1.1.2,1.2V9l-.4.1h-.1Z"/><path class="cls-2" d="M40.9,8.2h0L39.8,4.8h0L39,8.2a.1.1,0,0,1-.1.1h-.4a.1.1,0,0,1-.1-.1L37.2,3.9V3.8h.4a.1.1,0,0,1,.1.1l.9,3.3h0l.8-3.4a.1.1,0,0,1,.1-.1h.3a.1.1,0,0,1,.1.1L41,7.1h0l.7-3.4a.1.1,0,0,1,.1-.1h.4a.1.1,0,0,1,.1.1l-.9,4.4a.1.1,0,0,1-.1.1Z"/><path class="cls-2" d="M43.8,7.3a2.85,2.85,0,0,1,0-1.3,2.38,2.38,0,0,1,.3-1.2,1.64,1.64,0,0,1,2.2-.7,1.59,1.59,0,0,1,.8,1,2.85,2.85,0,0,1,0,1.3,2.38,2.38,0,0,1-.3,1.2,1.75,1.75,0,0,1-2.3.6,1.6,1.6,0,0,1-.7-.9Zm2.5.2a4.25,4.25,0,0,0,.2-1.1,2.05,2.05,0,0,0,0-1.1,1,1,0,0,0-1.2-.8,1.06,1.06,0,0,0-.7.6,7.8,7.8,0,0,0-.3,2.2,1,1,0,0,0,1.2.8,1.56,1.56,0,0,0,.8-.6Z"/><path class="cls-2" d="M49.5,4.7h0l.5.1a.1.1,0,0,1,.1.1l1.1,3.8h0l.9-3.3h.1l.4.1a.1.1,0,0,1,.1.1h0L51.5,9.8a.1.1,0,0,1-.1.1h0L51,9.8a.1.1,0,0,1-.1-.1L49.8,5.9h0l-.9,3.2h-.1L48.4,9V8.9h0Z"/><path class="cls-2" d="M54.8,6.4c0-.1.1-.1,0,0l1.5.6a1.42,1.42,0,0,1,1,1.5,5.64,5.64,0,0,1-.4,1.2,3.88,3.88,0,0,1-.6,1.1,1.38,1.38,0,0,1-1.7.3l-1.4-.6v-.1Zm-1,3.8.8.3a1,1,0,0,0,1.2-.1,3.13,3.13,0,0,0,.5-1,3,3,0,0,0,.4-1,1,1,0,0,0-.7-1l-.8-.3h0l-1.3,3Z"/><path class="cls-2" d="M57.7,11.6a2.38,2.38,0,0,1,.6-1.1,3.92,3.92,0,0,1,.8-1,1.62,1.62,0,0,1,2.3.3,1.59,1.59,0,0,1,.3,1.3,2.38,2.38,0,0,1-.6,1.1,3.92,3.92,0,0,1-.8,1,1.62,1.62,0,0,1-2.3-.3A2.08,2.08,0,0,1,57.7,11.6ZM60,12.8a5.5,5.5,0,0,0,.7-.9,3.13,3.13,0,0,0,.5-1,1,1,0,0,0-.5-1.1.92.92,0,0,0-1.2.1,7.61,7.61,0,0,0-1.2,1.9,1,1,0,0,0,.5,1.1A1.07,1.07,0,0,0,60,12.8Z"/><path class="cls-3" d="M42.3,17.6c.2.1.1.5.4.5.1.1.3.2.4.1a1.7,1.7,0,0,1,.7.1c.1.1.2.1.4.2a39.21,39.21,0,0,1,3.6,1.6,5.39,5.39,0,0,1,1.3.7c.1.1.1.1.2.1l.2.1c.4.3.8.5,1.1.7-.4-.3-.8-.5-1.2-.8s-.7-.2-.9-.6c0-.2.1-.4.3-.4h.4a.6.6,0,0,1,.4.1,16.54,16.54,0,0,1,3.6,2.2,9.15,9.15,0,0,0,1.7.9,5.26,5.26,0,0,1,1.4,1.2l.3.3c.3.3.6.5.5,1a.1.1,0,0,1-.1.1h.1c.1,0,.1.1.2.1.1.2.4.3.5.5a1.38,1.38,0,0,1,.3.4c0,.2.2.3.4.4a3.36,3.36,0,0,1,1.3,2,3,3,0,0,0,.4,1c.1.2.2.5.3.7a3.32,3.32,0,0,1,.3,2.4c0,.3-.1.5-.1.8,0,.1-.1.1-.2.1-.3,0-.3-.3-.4-.5-.3-1.1-.7-2.2-1-3.3a.66.66,0,0,0-.7-.6.1.1,0,0,1-.1-.1v.1a5.07,5.07,0,0,1,.9,1.6,6.94,6.94,0,0,0,.5,1.3,4.09,4.09,0,0,1,.3,2.2,16.16,16.16,0,0,1-.1,5.8c-.2,1.2-.4,2.4-.7,3.6a13.36,13.36,0,0,1-1.6,3.9,34.07,34.07,0,0,1-3,4.4,2.84,2.84,0,0,1-1,.9,4.35,4.35,0,0,0-.7.4c-.2.1-.1.2-.1.4a6,6,0,0,1-2.1,1.4,24.23,24.23,0,0,1-7,1.9,19.53,19.53,0,0,1-2.3.2c-1.2-.1-2.3,0-3.5-.1-.7-.1-1.4-.1-2.2-.2a16.39,16.39,0,0,1-5.4-1.8c-.4-.2-.7-.5-1.1-.7a9.18,9.18,0,0,1-2.8-2.4c-.4-.5-.9-.9-1.3-1.4a2.38,2.38,0,0,1-.6-1.1,2.2,2.2,0,0,0-1.2-1.6c-.2-.1-.2-.3-.2-.5a3.92,3.92,0,0,0-.4-1.8,8.57,8.57,0,0,1-.5-2.7,12.79,12.79,0,0,1-.1-3.4,22,22,0,0,1,1.3-5.2,4.62,4.62,0,0,1,.9-1.5v-.2a3.59,3.59,0,0,1,.7-1,8.79,8.79,0,0,0,.6-1,1.56,1.56,0,0,1,.6-.8,5.36,5.36,0,0,0,1.5-1.5c.2-.3.6-.4.8-.6s.1-.2.2-.2a1.21,1.21,0,0,0,.5-.5.75.75,0,0,1,.7-.5,4.59,4.59,0,0,0,1.6-.7,7.65,7.65,0,0,1,3.9-1.1,1.5,1.5,0,0,1,1.1.4,1.21,1.21,0,0,0,1.4.1c.7-.3,1.4-.6,2-.9a2.47,2.47,0,0,0,1.2-1.9,2,2,0,0,0-.1-1.1,6.17,6.17,0,0,1-.2-2.3.38.38,0,0,1,.3-.5c.3-.1.1-.5.3-.7C41.9,17.9,42,17.5,42.3,17.6Z"/><path class="cls-1" d="M57.1,25.6c-.2-.3-.1-.8-.6-.9s-.3-.4-.5-.6c-.7-.5-1.4-1-2.1-1.4a9.39,9.39,0,0,1-1.8-1.2,14.8,14.8,0,0,0-1.3-.8,6.38,6.38,0,0,1-1.4-.8c-.2-.1-.3,0-.5,0-.4.1-.7-.2-1-.3-.1-.1-.1-.2-.3-.3a.27.27,0,0,1-.3-.3c.1-.2.2-.1.3-.2.2.1.4-.2.6-.1h0c.2,0,.3.1.5.1h.7a.9.9,0,0,1,.5-.1h.5c.1.1.3,0,.5.1v.1a5.84,5.84,0,0,1,1.8.4h0c.2.1.4,0,.5.3l.2.1a.52.52,0,0,1,.4.2h0a4.85,4.85,0,0,1,2.1.8.76.76,0,0,0,.4.2l.6.2a.67.67,0,0,1,.7.4h0a.6.6,0,0,1,.4.1,3.59,3.59,0,0,0,1,.7v.3c.2.2.6,0,.7.4l.1.1a.55.55,0,0,1,.6.4h0c.1,0,.2.2.2.2a1,1,0,0,1,.7.7l.1.1c0,.3.3.4.4.6h0a1.47,1.47,0,0,1,.6.5c.3.4.8.6,1.1,1v.1c.2.2.3.4-.1.5m.1.3h0l.1.1a.85.85,0,0,1,.7.8v.7c.1.1.1.2.2.3v.1a.1.1,0,0,0,.1.1h.2c.3.1.4.4.5.6a2.19,2.19,0,0,0,.3.5v.5c-.1.2-.2.4.1.5a12.2,12.2,0,0,1,.7,1.7c.1.2.1.5.3.6l.1.2v.1a.19.19,0,0,0,0,.3,2.84,2.84,0,0,0,.4,1.3c0,.2.1.3,0,.5s.2.2.2.3h.1l-.1.1v.8a.76.76,0,0,0,.2.5c.1.2.1.4-.1.5h0v.1a.3.3,0,0,1,0,.4v.1a3.18,3.18,0,0,1-.2,1.4h0c-.1.2-.1.3-.2.5-.1.7-.2,1.3-.3,2,0,.1-.1.3-.1.4v.2a.37.37,0,0,1-.1.3c-.2.7-.3,1.4-.5,2.1v.2a1.45,1.45,0,0,1-.2.7h0c-.1.1,0,.4-.1.5h0a1.28,1.28,0,0,1-.4,1v.1a.6.6,0,0,1-.1.4c-.1.1-.1.2-.1.4s0,.4-.2.5l-.6,1.3a.48.48,0,0,1-.2.6c-.1.1-.1.2-.1.4-.2.2-.4,0-.6-.1h0c-.1-.1-.2,0-.3.1h0c-.2.2-.2.6-.5.7l-.1.1c-.2-.1-.2.1-.4.1l-.1.1c0,.2-.2.3-.3.4l-.1.2v.1c-.5.4-.6,1-1,1.4a15.76,15.76,0,0,1-1.2,1.5l-.6.6c-.1,0-.2.1-.2.3s-.2.2-.2.3h-.1l.1-.1c.1-.1.1-.1.2-.1s.1,0,.2.1v.3c0,.4-.4.4-.5.8-.3.2-.5.7-1,.7-.2,0-.5-.4-.7,0a3.74,3.74,0,0,1-1.3,1.5h0c-.1.2-.2.2-.3.3l-.1.1a.43.43,0,0,1-.4.4h0a12.13,12.13,0,0,0-3.2,1.1c-.3.1-.6.2-1,.3a31.29,31.29,0,0,1-4.4,1,24.33,24.33,0,0,1-3.8.3c-.6,0-1.3.2-1.9.2-1.3,0-2.6-.1-3.8-.2a18.81,18.81,0,0,1-3.3-.5,31.49,31.49,0,0,1-6.5-2.3c-.6-.3-1.1-.7-1.7-1-.3-.1-.4-.3-.5-.6,0-.1,0-.2.1-.2.3-.2.6,0,1,0a5.67,5.67,0,0,0-1.8-1.2c-.2-.1-.5-.2-.7-.3s-.4-.2-.6-.1c-.2-.1-.4,0-.6-.2a3.4,3.4,0,0,0-1-.1c-.1-.1-.4-.1-.5-.3l-.4-.2a.37.37,0,0,1-.1-.3l-.1-.1c-.1-.1-.3-.1-.3-.3v-.1c.1-.2.1-.2.6-.1a.35.35,0,0,1,.2.1,17.41,17.41,0,0,1-1.2-1.4.76.76,0,0,1,.2.4c0,.1-.2.2-.3.2l-.3-.2c-.1-.2-.4-.4-.5-.6h0c-.1,0-.1-.1-.1-.2-.1-.3-.4-.4-.5-.6a.35.35,0,0,1-.1-.2c0-.1-.1-.3-.2-.3h0c-.1-.1-.1-.3-.2-.4l-.1-.1c.1-.3.2-.2.4-.1s.2.2.3.2.1.3.2,0c0-.1.1-.1.2-.1.3,0,.4.4.8.4a1.14,1.14,0,0,0-.8-.7c-.2,0-.3-.4-.6-.2a.46.46,0,0,1-.5-.3,15.11,15.11,0,0,1-1.3-2.9c-.1-.2-.2-.3-.2-.5a5.64,5.64,0,0,1-.4-1.2V48c-.3-.9-.6-1.9-.9-2.9v0c0,.3.3.6-.2.8-.5-.3-.3-.8-.3-1.1v-.1c-.1-.1,0-.3-.1-.4h0c-.2-.2,0-.4-.1-.6v-.1a1.39,1.39,0,0,1,0-.9h0c-.3-.4,0-.8-.1-1.2-.1-.1-.1-.2,0-.2s0-.2.1-.3v-.2a.19.19,0,0,1,0-.3v-.4a1.18,1.18,0,0,1,.1-1v-.3a1.7,1.7,0,0,0-.1-.7.3.3,0,0,0,0-.4v-.1c0-.3.2-.1.3-.2v-.2c-.1-.2-.1-.6.2-.7v-.6c-.2-.6.2-1.1.2-1.7a.9.9,0,0,0,.1-.5,1.61,1.61,0,0,1,.5-1.1v-.3a5.15,5.15,0,0,1,.9-2c.3.1.4-.2.4-.4h0V30c-.1.2-.1.4-.3.3s-.1-.1,0-.2h0V30c0-.1,0-.2.1-.2l.1-.1c-.1-.5.4-.8.6-1.2l.1-.3a6.08,6.08,0,0,1,1.5-2.4c.1,0,.2-.1.2-.3s.1-.1.2-.2h0c.2,0,.2-.2.4-.3l.5-.6a.9.9,0,0,1,.6-.6h.1c.1,0,.1,0,.1-.1l.2-.2a2.7,2.7,0,0,0,.7-.8.76.76,0,0,0,.2-.5c.1-.2.3-.2.4-.3h.1c.1-.6.6-.9,1-1.3a.32.32,0,0,0,.3-.3c.1-.1.1-.2.2-.2h0c.1-.1.1-.3.3-.3l.4-.3c.2-.1.2-.2.4-.3h.1c.1-.1.1-.3.3-.2l.5-.3a1.83,1.83,0,0,1,1-.7l2.4-1.1a2,2,0,0,1,.8-.4.52.52,0,0,1,.4-.2.66.66,0,0,1,.7-.2,4.18,4.18,0,0,1,1-.4,1.37,1.37,0,0,1,1.2-.4H33l.2-.1h.5c-.1,0-.1,0-.2-.1V15a.92.92,0,0,1,1-.1.64.64,0,0,0,.6,0,.64.64,0,0,1,.6,0h1.2a.55.55,0,0,1,.6.4c.1.1.1.2.2.3l.3.3.1.1c.3-.1.6-.5,1-.1l.2-.1c.4-.2.6,0,.8.3a1,1,0,0,0,.7.4c.3,0,.2.1.2.2a.55.55,0,0,0,.3.5c.1.2.2.4,0,.6a.9.9,0,0,0-.1.5c0,.2.2.3,0,.5s-.3-.1-.5-.2a12.41,12.41,0,0,0,.3,2.7,3,3,0,0,1-.8,3c-.2.2-.4.2-.7.4s-.7.1-.7.5a.35.35,0,0,1-.2.1c-.5-.3-.8.2-1.2.3a1.29,1.29,0,0,1-1.2-.1,2.29,2.29,0,0,0-2.1-.4,9.34,9.34,0,0,0-3.6,1.4,1.14,1.14,0,0,1-.8.3c-.5,0-.7.2-.8.7,0,.3-.4.1-.6.3s-.1.1-.1.2a18.26,18.26,0,0,0-1.3,1.6,3.92,3.92,0,0,1-1,.8c-.3.2-.2.5-.3.8-.4.6-.8,1.1-1.2,1.7-.1.1-.1.1,0,.2,0,.3-.2.4-.4.6a13,13,0,0,0-1,2.5,11.5,11.5,0,0,0-.8,4.1,30,30,0,0,0,.3,4.3,18.66,18.66,0,0,0,.7,2.2v.9c0,.2,0,.3.3.3s.6.5.8.8a4.18,4.18,0,0,1,.4,1A3,3,0,0,0,26,51.4a.1.1,0,0,1,.1.1,5.48,5.48,0,0,0,1.6,1.8,12.71,12.71,0,0,0,2.7,1.8,11.18,11.18,0,0,0,2.5,1.1,11.63,11.63,0,0,0,1.8.4,12.86,12.86,0,0,0,1.9.4,38.54,38.54,0,0,0,4.8.2c.4,0,.9-.2,1.3-.2a9.74,9.74,0,0,0,1.6-.1,20.13,20.13,0,0,0,7.3-2.3,10.54,10.54,0,0,0,1.1-.7c.1-.4.6-.5.7-.8a15.23,15.23,0,0,0,3-3.7,23.7,23.7,0,0,0,1.9-3.5,18.35,18.35,0,0,0,1.2-4.6,22.26,22.26,0,0,0,.5-3.6,9.19,9.19,0,0,0-.4-3.7c0-.1-.1-.2,0-.2.4,0,.2-.3.1-.4A22,22,0,0,0,58,29.5c0-.1.2-.1.2-.1.5,0,.7.3.9.7.5,1.3.8,2.6,1.2,3.9.3.3.1.8.4,1.1v1.5c0,.1-.1.1-.1.2v0c.3,0,.2.3.3.5a15,15,0,0,1-.2-2.2c0-.1-.1-.2-.2-.4a2.2,2.2,0,0,1-.1-.8c0-.2-.2-.5.1-.8v-.3a.51.51,0,0,1,.1-.5c.2-.2,0-.3,0-.5l-.9-2.1c-.1-.3-.2-.7-.3-1a2.22,2.22,0,0,0-.8-1.3c-.3-.2-.7-.4-.8-.9a.1.1,0,0,1,.1-.1.1.1,0,0,0-.1-.1l-.1-.1c-.1-.2-.2-.3-.3-.5s-.5-.2-.6-.4Z"/><path class="cls-1" d="M24.6,60.5c.3.4.7.5,1.1.8a28.64,28.64,0,0,0,4.7,2.2,23.2,23.2,0,0,0,5.8,1.3,32.47,32.47,0,0,0,5.4.1c1.4-.1,2.7-.1,4.1-.3a34.1,34.1,0,0,0,5.5-1.4c.9-.3,1.8-.7,2.7-1a.9.9,0,0,1,.5-.1,1,1,0,0,0,.7-.2l.2.1c.1.1.3.2.2.4s-.2-.3-.3-.1-.6.3-.8.5a14.17,14.17,0,0,0-1.8.8l-.5.3h0c-.1.2-.4.4-.6.3h-.1c-.1-.1-.2.1-.4,0s-.3.1-.4.1-.4.5-.7.3a1.27,1.27,0,0,0-.6.1c-.3.4-.8.2-1.1.3-.1-.1-.4.1-.4-.2,0-.1.1-.1.2-.1a2.35,2.35,0,0,0,.8-.2c-.3.2-.7.1-1.1.3-.1.1-.3.1-.4.2a12.29,12.29,0,0,1-2.7.2,3.59,3.59,0,0,0-1.1.2.9.9,0,0,0-.5.1h-.4c-.4,0-.8.3-1.3.3a10.45,10.45,0,0,0-2.5,0c-.1,0-.4,0-.4-.1s.3-.1.4-.2h.1a5.44,5.44,0,0,1-1.8,0,1.7,1.7,0,0,0-1,0,23.21,23.21,0,0,1-3.8-.7c-.3-.1-.6.1-.9-.1a.6.6,0,0,1-.4-.1.22.22,0,0,1,.2-.2c-.1,0-.3-.1-.4-.1a1.91,1.91,0,0,0-1.5-.4.37.37,0,0,1-.3-.1c-.1-.1-.2-.2-.3-.1s-.2.4-.3.5c-.2-.2,0-.5-.2-.6a.35.35,0,0,1-.1-.2c-.1-.2-.3-.2-.5-.3l-.6-.3a.6.6,0,0,0-.4-.1c-.3-.1-.3-.5-.7-.4s-.4-.1-.5-.3-.3-.2-.4-.3-.3-.1-.4-.2a1.56,1.56,0,0,0-.8-.6.22.22,0,0,1-.2-.2c.4-.4,1,0,1.4-.4l-1.6-.9h0v-.1a7.22,7.22,0,0,1,2,.9,2.19,2.19,0,0,1,.9,1,5,5,0,0,0-1.3-.4C24.8,60.5,24.6,60.4,24.6,60.5Z"/><path class="cls-1" d="M65.5,30.8c-.3-.1-.3-.5-.4-.7a2.19,2.19,0,0,0-.3-.5v-.1h0c.2,0,.3-.2.4-.3.1.2.4.4.6.3s.5.2.4.5c-.1.1,0,.3.1.4s-.1.1-.1.2v.1c-.1.2.1.3.2.4h.1c.1.2,0,.5.1.7v.1a.76.76,0,0,0,.2.4h.1c.1.3.5.1.5.4,0,.1.2.2,0,.3s-.1.2,0,.2.5,0,.3.3-.3,0-.5-.1h-.1c0-.1-.1-.1-.1-.2h-.1l-.3.3c-.1,0-.2.1-.3,0a6.7,6.7,0,0,1-.7-1.8c-.1-.1-.2-.2-.1-.4S65.7,31,65.5,30.8Z"/><path class="cls-1" d="M59,58.3h-.2c-.1-.1,0-.2.1-.3a9.09,9.09,0,0,0,1.8-2.1,4.74,4.74,0,0,1,1-1c.2-.2.4-.4.8-.2h-.1l-.4.7a.55.55,0,0,1-.3.5l-.1.2c-.1.3-.1.6-.4.8l-.2.3a.78.78,0,0,1-.4.4l.1.2c0,.1-.1.1-.2.2h0a.76.76,0,0,1-.5.2l-.2.3a4.81,4.81,0,0,1-.9,1.1l-.1.1a.1.1,0,0,1-.1.1h0c-.2-.1-.2-.2-.3-.4s.1-.2.2-.4.4-.3.4-.6C59,58.5,59.1,58.4,59,58.3Z"/><path class="cls-1" d="M47.7,19.1l-.3.1-.1.1h.1c.2.1.3.1.5.2l.3.3a.74.74,0,0,1,.6.6l.9.5c.1.1.1.2,0,.2h-.2a.22.22,0,0,1-.2-.2c-1.7-.7-3.3-1.6-5-2.2-.1,0-.2-.1-.3-.2a2.2,2.2,0,0,0-.8-.1c-.1,0-.2,0-.1-.1s.2-.1.2-.2h.1c.2-.1.3-.2.5-.1H44a9.83,9.83,0,0,0,1.6.5h.5a.6.6,0,0,0,.4-.1c.3,0,.3.2.5.4h.2c.1,0,.2,0,.2.1h.4C47.7,18.9,47.7,19,47.7,19.1Z"/><path class="cls-1" d="M58.7,59.2l-.2.3c-.1,1-.9,1.3-1.6,1.8-.1.1-.3.1-.4.3a1.23,1.23,0,0,1-1-.2c.3-.7,1.1-.9,1.2-1.6a.66.66,0,0,1,.6.1.1.1,0,0,0,.1.1h.1c.4-.1.5-.5.9-.7C58.5,59.1,58.6,59,58.7,59.2Z"/><path class="cls-1" d="M62.4,54.7a1.23,1.23,0,0,0-.8.4c-.7.9-1.5,1.8-2.2,2.7-.2.2-.5.2-.6.5l-.2.1c-.1,0-.1,0-.1-.1l.2-.3c.1-.1.1-.2.2-.3a14.62,14.62,0,0,0,1.6-1.9,3.53,3.53,0,0,0,.8-1.3c0-.1.1-.1.2-.1h0c.3.1.3-.2.5-.2s.2.2.4.2S62.6,54.6,62.4,54.7Z"/><path class="cls-1" d="M17.4,53.9c-.1-.1-.2-.3-.4,0-.3-.1-.5-.2-.3-.5a.19.19,0,0,0,0-.3A8.42,8.42,0,0,1,15.6,51a.6.6,0,0,0-.1-.4c0-.3-.5-.5-.3-.9.2-.2.3-.1.4,0,.4,1,1,2,1.4,3.1a1.06,1.06,0,0,0,.6.7c.2,0,.2.1.3.2s0,.3,0,.5l.1.1c0,.1.2.2,0,.3s-.2,0-.2-.1l-.2-.3A.77.77,0,0,0,17.4,53.9Z"/><path class="cls-1" d="M43.1,65.2a1.22,1.22,0,0,1,.9-.3c1,0,2.1,0,3.1-.1.2.1.3-.1.5,0s.3,0,.3.2l-.8.1a.73.73,0,0,1-.6.2c-.2,0-.4.1-.6,0s-.2.2-.4.1h-.3c-.1.1-.2,0-.3,0h-.5a.9.9,0,0,1-.5.1c-.1,0-.2,0-.2.1s-.2.1-.4.1H43c-.1,0-.2,0-.2-.1S43,65.3,43.1,65.2Z"/><path class="cls-1" d="M15.3,49.6c0,.4.3.6.4.9.1.1,0,.2.1.3A6.5,6.5,0,0,0,16.9,53c.1.1.2.3.1.4s-.2,0-.3-.1v-.1c-.2-.1-.2-.3-.3-.4s0,0,0-.1-.2-.2-.2-.3l-.1-.3c-.1-.1-.2-.2-.2-.3h0a.37.37,0,0,1-.2-.5l-.2-.3c-.1-.1-.1-.3-.2-.4h0c-.2-.2-.4-.4-.3-.7v-.1a4.71,4.71,0,0,1-.6-1.5c0-.3-.4-.5-.2-.8v-.1c-.2-.4-.5-.8-.3-1.2s-.1-.5,0-.8c.3.1.3.4.3.6a9.89,9.89,0,0,0,.9,2.4h0A1.32,1.32,0,0,1,15.3,49.6Z"/><path class="cls-1" d="M56.4,21.3a8,8,0,0,1-2.5-1.1c.1-.5.4-.4.8-.5s.2.7.7.6c.1-.1-.1-.2.1-.4.3.2.5.6,1,.6,0,0-.2.3.1.3-.1.1-.2,0-.4.1Z"/><path class="cls-1" d="M31.1,64.5a1.7,1.7,0,0,1,1.4,0c1.1.3,2.2.5,3.3.7,0,.2-.2.3-.4.3h0a.37.37,0,0,0-.3-.1h-.4c-.2.2-.4,0-.6-.1h-.3a1.08,1.08,0,0,1-.8-.2l-1.4-.4a.76.76,0,0,1-.5-.2Z"/><path class="cls-1" d="M35.4,65.5c.2-.1.1-.4.4-.3.5-.3,1,0,1.5,0s.9.1,1.3.1v.1h0l-.4.2.3.1c.1.1.2,0,.2.2h-.9a1.38,1.38,0,0,0-1.1-.1h-.5c-.1-.1-.3,0-.4-.1S35.6,65.7,35.4,65.5Z"/><path class="cls-1" d="M18.4,25.9a12.74,12.74,0,0,0-1.3,1.9,2.19,2.19,0,0,1-.3.5c-.3-.4-.3-.7.1-1a2.09,2.09,0,0,0,.4-.6c.2-.7.8-.9,1.3-1.3h.1l-.1.2C18.6,25.7,18.6,25.9,18.4,25.9Z"/><path class="cls-1" d="M14.9,32.7a19.16,19.16,0,0,0-.9,3.2c-.2,0-.1-.5-.4-.2h0c-.1-.1-.2-.2,0-.3.5-.4.3-1,.6-1.4.1-.1-.1-.1-.2-.1s-.1-.1.1-.2.1-.2,0-.3C14.1,32.7,14.1,32.7,14.9,32.7Z"/><path class="cls-1" d="M28.8,63.4c.3.1.7-.1,1,.1s.5.2.8.3.5.2.7.4l-.6.2c-.4-.1-.8-.4-1.2-.3a.91.91,0,0,1-.7-.3c-.1,0-.3,0-.3-.2S28.6,63.4,28.8,63.4Z"/><path class="cls-1" d="M67.4,36.5a3.74,3.74,0,0,1-.5-1.8H67c.2,0,.3.1.2.3s-.1.2,0,.3a.19.19,0,0,0,.3,0q.6-.3.6.3a.75.75,0,0,0,.1.5c.1.1-.1.3-.2.2C67.6,36,67.6,36.4,67.4,36.5Z"/><path class="cls-1" d="M63.7,27A3.91,3.91,0,0,1,62,25.6c.3-.2.5-.2.7.1.1.1.2.2.3,0s.2-.3.3-.1-.1.1-.2.2,0,.4.2.6h.1c.2,0,.4.3.3.6Z"/><path class="cls-1" d="M14.3,47.5l.8,2.3c-.3,0-.3-.6-.7-.4a.1.1,0,0,1-.1-.1c.3-.2,0-.5,0-.8,0-.1.2-.5-.2-.3-.1,0-.1-.2-.1-.4A.27.27,0,0,1,14.3,47.5Z"/><path class="cls-1" d="M63.6,27.4c.3,0,.1-.2.1-.4.1,0,.1-.1.2-.1.4-.3.6-.1.6.3h0c-.2,0-.3.1-.2.4a.75.75,0,0,1,.1.8h-.1c0-.5-.6-.5-.7-.8Z"/><path class="cls-1" d="M14,46.2l.3,1.2a.35.35,0,0,0-.2-.1c-.2-.4-.5-.8-.7-1.2.3-.2.2-.5.2-.7s-.1-.2.2-.3Z"/><path class="cls-1" d="M15.9,30.2v.2h0a8,8,0,0,0-.8,1.6c-.1.1-.1.3-.2.4,0-.4-.2-.9.3-1.2l.1-.1C15.3,30.7,15.4,30.3,15.9,30.2Z"/><path class="cls-1" d="M23.2,20.9a12,12,0,0,0-1.1,1.2,1.09,1.09,0,0,1,.4-.9.87.87,0,0,0,.4-.9c.2.1.3.4.4.1,0-.1.2-.1.3,0a.37.37,0,0,1-.1.3C23.4,20.7,23.3,20.8,23.2,20.9Z"/><path class="cls-1" d="M56.4,61.6c.1-.2.1-.2.6-.5s1.1-.6,1.2-1.3c0-.1.2-.2.3-.3l.2.3c0,.1,0,.2-.1.2l-.2.1a.9.9,0,0,1-.6.6l-.1.1c-.2.3-.4.6-.8.6Z"/><path class="cls-1" d="M38.8,65.8l-.2-.2a3.4,3.4,0,0,0,1-.1,3.81,3.81,0,0,1,1.5.1s.1.1,0,.1h-.5a2.44,2.44,0,0,1-1.2,0A1.27,1.27,0,0,1,38.8,65.8Z"/><path class="cls-1" d="M23.4,60.3a2.07,2.07,0,0,1,1.4,1c.1,0,.1.1,0,.2h0l-.1-.1A1.61,1.61,0,0,1,24,61c-.1-.1-.2-.2-.3-.2s-.3,0-.4-.2h0c-.1,0-.2,0-.2-.1m0-.1c0-.1.1-.2.2-.1h.1Z"/><path class="cls-1" d="M67.7,38.8c.1-.4-.2-.7,0-1.1.1.3.5.4.5.8S68.2,39,67.7,38.8Z"/><path class="cls-1" d="M64.5,29.5c-.2,0-.2-.2-.3-.3s.2-.4.2-.6.4-.1.4,0a.78.78,0,0,1-.2.8C64.7,29.5,64.6,29.5,64.5,29.5Z"/><path class="cls-1" d="M45.4,18.6a2.27,2.27,0,0,1-1.6-.6,2.08,2.08,0,0,0,1.1.1c.2,0,.3.4.6.1a.1.1,0,0,0,.1.1A.77.77,0,0,1,45.4,18.6Z"/><path class="cls-1" d="M20.1,57.1c-.2.2-.4-.2-.5,0-.1-.1-.2-.2-.2-.3a.22.22,0,0,1-.2-.2l-.1-.2.2-.3c.1,0,.2,0,.2.1C19.5,56.7,20.3,56.6,20.1,57.1Z"/><path class="cls-1" d="M41.1,65.7v-.2a2.84,2.84,0,0,1,1.3-.4c.1.2-.1.3-.2.4l-.1.1C41.8,65.9,41.4,65.7,41.1,65.7Z"/><path class="cls-1" d="M52.8,19.6a11.63,11.63,0,0,1-1.8-.4,2,2,0,0,1,1.7.2h0Z"/><path class="cls-1" d="M21.7,22.4c.2.3,0,.4-.2.5a6,6,0,0,0-.8.8l-.1.2c-.1.1-.2.2-.3.1v-.2L21,23a.22.22,0,0,1,.2-.2l.1-.1C21.4,22.5,21.4,22.3,21.7,22.4Z"/><path class="cls-1" d="M56.9,61.4l.8-.6c0,.2-.1.4-.1.6s-.2.3-.4.3S56.9,61.6,56.9,61.4Z"/><path class="cls-1" d="M26.7,62.5l.6.3c.2.2.5.2.6.4v.2h-.2a2,2,0,0,1-.8-.4l-.1-.1c-.2-.1-.4,0-.5-.2l-.1-.1h0A.51.51,0,0,1,26.7,62.5Z"/><path class="cls-1" d="M26.7,18.2a3.59,3.59,0,0,1-1,.7C25.5,18.3,25.9,18,26.7,18.2Z"/><path class="cls-1" d="M65.7,48.8a3,3,0,0,1,.4-1c.1.3.1.3.4.2C66.6,48.6,66,48.5,65.7,48.8Z"/><path class="cls-1" d="M59.2,22.8a2.63,2.63,0,0,1-1.4-.9c.2-.2.4-.2.6.1S59,22.4,59.2,22.8Z"/><path class="cls-1" d="M33.1,15.4l-1.2.4c0-.3.5-.4.4-.7,0-.1.2-.1.3,0A.55.55,0,0,0,33.1,15.4Z"/><path class="cls-1" d="M58.9,59.7a3.13,3.13,0,0,1,.9-1.1c.2.1.4.1.1.3S59.3,59.6,58.9,59.7Z"/><path class="cls-1" d="M41.7,17.9a.64.64,0,0,1,0-.6.47.47,0,0,1,.6.1v.1l-.2.1C42.1,18,42.1,18,41.7,17.9Z"/><path class="cls-1" d="M40.5,16.3l-.8-.3c.1-.5.4-.2.7-.2S40.7,16,40.5,16.3Z"/><path class="cls-1" d="M67.5,40.8a6.75,6.75,0,0,1,.2-1.4.75.75,0,0,1,0,.9.3.3,0,0,0,0,.4c.1,0,.1.1,0,.2h0C67.6,41,67.5,40.8,67.5,40.8Z"/><path class="cls-1" d="M54.5,62.7c0,.2.2.6-.4.4-.2,0-.5.4-.8.1.2-.4.6-.3.9-.5C54.3,62.7,54.4,62.5,54.5,62.7Z"/><path class="cls-1" d="M61.5,24.8l-.8-.6c0-.1,0-.2.1-.2h.5C61.3,24.3,61.7,24.5,61.5,24.8Z"/><path class="cls-1" d="M37.8,15.5a1.13,1.13,0,0,0-1.1-.3,1.27,1.27,0,0,1-.6-.1c.4-.1.9,0,1.4-.1S37.8,15.3,37.8,15.5Z"/><path class="cls-1" d="M16.7,28.6l-.6,1.2c-.3-.2-.1-.4,0-.6A1.7,1.7,0,0,1,16.7,28.6Z"/><path class="cls-1" d="M54.2,62.8l-.9.5-.4.2a.37.37,0,0,1-.3.1h-.2a5.56,5.56,0,0,1,1.7-.9A.1.1,0,0,1,54.2,62.8Z"/><path class="cls-1" d="M30.9,16.2a1,1,0,0,1-.7.2c.1-.3.2-.5.3-.8A.68.68,0,0,0,30.9,16.2Z"/><path class="cls-1" d="M13.6,39.2a3.4,3.4,0,0,1-.1,1C13.1,39.8,13.1,39.5,13.6,39.2Z"/><path class="cls-1" d="M39.5,16c-.4-.1-.7.2-1,.1.2-.1.2-.4.5-.4A.46.46,0,0,1,39.5,16Z"/><path class="cls-1" d="M57.8,60.7l.6-.6C58.5,60.9,58.4,60.9,57.8,60.7Z"/><path class="cls-1" d="M34.8,15c-.3.1-.7-.2-1,.1-.1.1-.2.2-.3,0A1,1,0,0,1,34.8,15Z"/><path class="cls-1" d="M64.5,27.3c.1,0,.3-.3.4,0s.3.7-.3.8c.1-.3.2-.6-.1-.8Z"/><path class="cls-1" d="M13.5,42.9v.9c-.5-.1-.2-.5-.3-.8S13.4,42.9,13.5,42.9Z"/><path class="cls-1" d="M13.7,38.1a2,2,0,0,1-.1.8.63.63,0,0,1-.1-.9A.31.31,0,0,1,13.7,38.1Z"/><path class="cls-1" d="M13.4,41.6a4.87,4.87,0,0,1,.1,1.2C13,42.5,13.3,42,13.4,41.6Z"/><path class="cls-1" d="M18.3,55.7c.3.1.4.3.5.6-.2,0-.4-.5-.4.1h-.1a.1.1,0,0,1-.1-.1h0C18.2,56,18.2,55.8,18.3,55.7Z"/><path class="cls-1" d="M62.9,53.2a1.79,1.79,0,0,1,.5-.7,1.78,1.78,0,0,1-.4,1C62.8,53.5,63,53.3,62.9,53.2Z"/><path class="cls-1" d="M60.6,23.9l-.6-.4c.3-.4.5.1.7.1S60.6,23.8,60.6,23.9Z"/><path class="cls-1" d="M25.6,62c.4-.3.5.2.7.3s0,.1-.1.2h0C25.9,62.6,25.9,62.1,25.6,62Z"/><path class="cls-1" d="M65.4,28.7c.1,0,.3,0,.3.2s-.4,0-.4.3c0-.1-.1-.1-.1-.2S65.3,28.7,65.4,28.7Z"/><path class="cls-1" d="M34.1,65.3a1.27,1.27,0,0,1,.6.1c0,.2-.1.4-.3.3S34.2,65.4,34.1,65.3Z"/><path class="cls-1" d="M14,36.6l-.2.7c-.3-.1-.2-.3-.2-.5S13.7,36.4,14,36.6Z"/><path class="cls-1" d="M66.4,33.5c.1-.1.2-.2.3,0l.1.5c0,.1-.1.2-.2.1A1.42,1.42,0,0,1,66.4,33.5Z"/><path class="cls-1" d="M61.2,57l.4-.8c.1.2,0,.4-.1.7S61.4,57.1,61.2,57Z"/><path class="cls-1" d="M46.8,18.8c-.3,0-.3-.3-.5-.4v-.1s.1-.2.2-.1S46.9,18.5,46.8,18.8Z"/><path class="cls-1" d="M59.9,23.4c-.1-.3-.6-.1-.7-.4.2,0,.5.2.7-.1C60.1,23.2,59.9,23.3,59.9,23.4Z"/><path class="cls-1" d="M57.8,21.9l-.7-.4C57.4,21.3,57.7,21.5,57.8,21.9Z"/><path class="cls-1" d="M15.1,49.9l.3.7C15.2,50.4,14.7,50.4,15.1,49.9Z"/><path class="cls-1" d="M64.4,52.1l.2-.6c.3.1.1.4.1.6S64.5,52.1,64.4,52.1Z"/><path class="cls-1" d="M39.4,65.8h1.2A1.27,1.27,0,0,1,39.4,65.8Z"/><path class="cls-1" d="M65.2,50.2a.76.76,0,0,1,.2-.5c.2.2,0,.5.1.7C65.3,50.6,65.3,50.3,65.2,50.2Z"/><path class="cls-1" d="M21.7,22.4l-.4.3c0-.5.4-.5.7-.6Z"/><path class="cls-1" d="M26.3,62.7a.76.76,0,0,1,.5.2c-.5.1-.5.1-.6.4A.43.43,0,0,1,26.3,62.7Z"/><path class="cls-1" d="M13.5,43.9a1.27,1.27,0,0,1,.1.6.3.3,0,0,1-.4,0c-.1-.1.1-.1.2-.2S13.3,44,13.5,43.9Z"/><path class="cls-1" d="M31.1,64.5a.76.76,0,0,1,.5.2c-.1.1-.1.3-.3.2S31,64.7,31.1,64.5Z"/><path class="cls-1" d="M24,61a1.61,1.61,0,0,1,.7.4C24.3,61.6,24.1,61.4,24,61Z"/><path class="cls-1" d="M55,62.3c.1.3.3.6-.3.7.3-.2.2-.3.1-.5S54.9,62.3,55,62.3Z"/><path class="cls-1" d="M29.8,16.7a2,2,0,0,1-.8.4A.63.63,0,0,1,29.8,16.7Z"/><path class="cls-1" d="M20.3,23.8h0l-.6.7C19.6,24.1,19.9,23.9,20.3,23.8Z"/><path class="cls-1" d="M22,58.6a1.42,1.42,0,0,1,.6.2c-.3,0-.6.2-.8,0C21.8,58.7,21.9,58.7,22,58.6Z"/><path class="cls-1" d="M36.8,65.7a3.75,3.75,0,0,1,1.1-.1c.1,0,0,.1,0,.2Z"/><path class="cls-1" d="M33,65.1a1.88,1.88,0,0,1,.8.2A.63.63,0,0,1,33,65.1Z"/><path class="cls-1" d="M60.5,58.1c0-.1-.2-.1-.1-.2s.2,0,.3,0c.3.1.2.3.1.5Z"/><path class="cls-1" d="M67.7,36.9h0l.3-.5c-.1.3.2.4.2.6C68,37,67.8,36.8,67.7,36.9Z"/><path class="cls-1" d="M55,62.3a.22.22,0,0,0-.2.2l-.3.1-.3.1-.1-.1a3.18,3.18,0,0,1,.9-.3Z"/><path class="cls-1" d="M63.7,52.4l.6.1.1.1h0C64.1,53.1,64,52.5,63.7,52.4Z"/><path class="cls-1" d="M64.4,28.6l.2.5c-.3-.2-.3,0-.4.1-.3-.3.2-.5.1-.8h.1Z"/><path class="cls-1" d="M30.7,64.7a.22.22,0,0,1-.2.2c-.1,0-.2,0-.3-.2h0c0-.1,0-.2.1-.2S30.6,64.6,30.7,64.7Z"/><path class="cls-1" d="M28.8,63.8c.2.1.5.2.7.3C29.2,64.2,28.9,64.2,28.8,63.8Z"/><path class="cls-1" d="M45.5,65.4a.6.6,0,0,1,.4-.1c.1.3-.2.3-.3.3S45.5,65.5,45.5,65.4Z"/><path class="cls-1" d="M26.9,62.9a2,2,0,0,1,.8.4C27.4,63.3,27.1,63.4,26.9,62.9Z"/><path class="cls-1" d="M66.9,34.3v-.1l.2-.3c-.3,0,.5.6-.2.5C66.9,34.5,66.8,34.4,66.9,34.3Z"/><path class="cls-1" d="M60.6,57.7c.1-.2.1-.4.4-.4C61.3,57.8,60.8,57.6,60.6,57.7Z"/><path class="cls-1" d="M43.7,17.9c-.2,0-.3.2-.5.1.1-.1-.1-.2,0-.3a.37.37,0,0,1,.5.2Z"/><path class="cls-1" d="M19.2,56.7c.1.1.2.1.2.2-.2.1-.2.2-.3.4C19,57,18.9,56.8,19.2,56.7Z"/><path class="cls-1" d="M47.7,19.1l-.1-.1c.2,0,.4-.5.7-.1C48,18.9,47.9,19.2,47.7,19.1Z"/><path class="cls-1" d="M23.9,20l-.3.3-.1-.3C23.6,19.8,23.8,19.6,23.9,20Z"/><path class="cls-1" d="M53.3,19.9a2.19,2.19,0,0,1-.5-.3c.2-.1.3,0,.5,0S53.4,19.8,53.3,19.9Z"/><path class="cls-1" d="M23.4,20c-.1,0-.2-.1-.3-.2s.1-.1.2-.1.2,0,.2.2S23.4,20,23.4,20Z"/><path class="cls-1" d="M20.5,58.2c.2.1.4.1.5.3h-.7C20.3,58.3,20.5,58.4,20.5,58.2Z"/><path class="cls-1" d="M60,58.3c.1-.2.3-.2.5-.2C60.4,58.4,60.3,58.6,60,58.3Z"/><path class="cls-1" d="M15.7,51.3c.1.2.2.3.2.5C15.5,51.8,15.5,51.6,15.7,51.3Z"/><path class="cls-1" d="M19.6,57.3c.2,0,.2.1.3.3-.2,0-.3,0-.4-.1C19.3,57.2,19.5,57.3,19.6,57.3Z"/><path class="cls-1" d="M48.8,19.1a.75.75,0,0,1-.5-.1C48.5,18.5,48.6,18.9,48.8,19.1Z"/><path class="cls-1" d="M42.1,65.7h0c.2-.2.3-.4.6-.3v.2C42.5,65.9,42.3,65.6,42.1,65.7Z"/><path class="cls-1" d="M62,53.9c0-.2.2-.3.3-.4C62.4,53.9,62.4,54,62,53.9Z"/><path class="cls-1" d="M62.2,24.3c-.1,0-.1-.1-.2-.1h0c0-.1,0-.1.1-.1h0c.1,0,.2,0,.2.1S62.3,24.3,62.2,24.3Z"/><path class="cls-1" d="M28.8,63.4l-.3.1v-.1c0-.1-.2-.2,0-.2S28.8,63.1,28.8,63.4Z"/><path class="cls-1" d="M53.9,20.2a.76.76,0,0,1-.4-.2l.4-.4A.63.63,0,0,0,53.9,20.2Z"/><path class="cls-1" d="M42.7,65.6v-.2s-.1-.1,0-.1h0a.6.6,0,0,1,.4-.1c0,.1-.4.2-.1.4Z"/><path class="cls-1" d="M46.5,65.3a1.42,1.42,0,0,1,.6-.2c0,.1-.1.2-.2.3A.76.76,0,0,1,46.5,65.3Z"/><path class="cls-1" d="M45.4,18.4h0l.3-.1a.37.37,0,0,1,.3.1h.1c.1.2,0,.2-.1.2A.85.85,0,0,1,45.4,18.4Z"/><path class="cls-1" d="M46,18.3a.37.37,0,0,1-.3-.1.37.37,0,0,1,.3-.1h.2Z"/><path class="cls-1" d="M61.7,56a.55.55,0,0,1,.3-.5C62.1,55.7,62.1,56,61.7,56Z"/><path class="cls-1" d="M25.1,19.1l-.3.2a.52.52,0,0,1,.2-.4C25.2,18.9,25.1,19,25.1,19.1Z"/><path class="cls-1" d="M60.9,23.3l-.4-.4A.37.37,0,0,1,60.9,23.3Z"/><path class="cls-1" d="M36,15h-.6a.38.38,0,0,1,.6,0Z"/><path class="cls-1" d="M66.2,47.3a1.45,1.45,0,0,1,.2-.7A.66.66,0,0,1,66.2,47.3Z"/><path class="cls-1" d="M62,25.6c-.2-.2-.4-.3-.4-.6A.68.68,0,0,1,62,25.6Z"/><path class="cls-1" d="M62.4,53.5c.1-.1.2-.3.4-.1C62.8,53.8,62.6,53.5,62.4,53.5Z"/><path class="cls-1" d="M13.5,40.6v.3c-.2,0-.3-.1-.2-.3S13.4,40.6,13.5,40.6Z"/><path class="cls-1" d="M16.2,52.4c.1.1.2.2.2.3s-.3.1-.4,0S16.2,52.6,16.2,52.4Z"/><path class="cls-1" d="M13.5,41.1a.37.37,0,0,1-.1.3c-.1.1-.2-.1-.2-.3S13.4,41.1,13.5,41.1Z"/><path class="cls-1" d="M66.8,44.2a.37.37,0,0,1,.1-.3l.3-.2A1.08,1.08,0,0,1,66.8,44.2Z"/><path class="cls-1" d="M43.1,18.1c-.1.1-.3.1-.1.3-.3.1-.2-.2-.3-.3Z"/><path class="cls-1" d="M66.7,31.7c.3.1.3.3.2.5h0a.37.37,0,0,1-.2-.5Z"/><path class="cls-1" d="M13.7,38.1c-.1,0-.2,0-.2-.1s-.1-.2,0-.2C13.9,37.7,13.6,38,13.7,38.1Z"/><path class="cls-1" d="M16.4,52.8l.3.4C16.2,53.3,16.6,52.9,16.4,52.8Z"/><path class="cls-1" d="M17.4,54.3c.1,0,.3-.1.4.1s-.1.2-.1.2l-.2-.2Z"/><path class="cls-1" d="M34.9,65.4c.1-.1.1-.1.2,0s.1.3-.1.3S35,65.4,34.9,65.4Z"/><path class="cls-1" d="M49.1,64.7h0c.2,0,.4-.3.6-.1Z"/><path class="cls-1" d="M23.2,59c0,.1-.1.2-.3.2s-.1-.1-.1-.1A2.27,2.27,0,0,1,23.2,59Z"/><path class="cls-1" d="M50.8,64.1l.4-.2h.1l-.1.2Z"/><path class="cls-1" d="M64.4,52.6c0-.1,0-.2.2-.2s.1.1.1.2h0c-.1.2-.2,0-.3,0Z"/><path class="cls-1" d="M15.9,51.8c.1.1.2.2.2.3C15.7,52.2,15.8,52,15.9,51.8Z"/><path class="cls-1" d="M24.8,61.5v-.2c.1.1.5.1.3.4Z"/><path class="cls-1" d="M43.7,17.5c-.1,0-.1,0-.2-.1s0-.1.1-.1.1,0,.1.2Z"/><path class="cls-1" d="M16,29.9l-.1.2c-.1-.1-.3-.3-.2-.5C15.9,29.7,15.9,29.9,16,29.9Z"/><path class="cls-1" d="M15.4,50.6a.76.76,0,0,1,.2.4C15.2,51,15.4,50.8,15.4,50.6Z"/><path class="cls-1" d="M44.9,65.4c.1-.1.2,0,.3,0s0,.2-.1.2S45,65.5,44.9,65.4Z"/><path class="cls-1" d="M43.9,65.5a.9.9,0,0,1,.5-.1C44.3,65.5,44.1,65.7,43.9,65.5Z"/><path class="cls-1" d="M19.2,25.1c-.1.2-.1.4-.4.3A1.38,1.38,0,0,1,19.2,25.1Z"/><path class="cls-1" d="M33.5,15.1c.1.1.2,0,.3,0v.1c.1.2-.1.1-.2.2h-.2a.19.19,0,0,1,0-.3Z"/><path class="cls-1" d="M65.3,50.9a.27.27,0,0,1,.3-.3C65.6,50.8,65.5,50.8,65.3,50.9Z"/><path class="cls-1" d="M67.7,42h0c-.2.1-.2.1-.2,0s0-.1.1-.1Z"/><path class="cls-1" d="M20,57.7c.2.1.2.2.1.3C19.8,57.9,19.7,57.9,20,57.7Z"/><path class="cls-1" d="M24,61.7a.1.1,0,0,1-.1-.1.35.35,0,0,1,.2-.1.1.1,0,0,1,.1.1A.35.35,0,0,1,24,61.7Z"/><path class="cls-1" d="M43.3,65.6l.4-.1c0,.1.1.2,0,.2S43.4,65.7,43.3,65.6Z"/><path class="cls-1" d="M47,65.4l.3.3C47,65.8,47.1,65.5,47,65.4Z"/><path class="cls-1" d="M60.8,24c.1.1.1.2-.1.2s-.1-.2-.1-.3A.35.35,0,0,1,60.8,24Z"/><path class="cls-1" d="M13.8,37.5c0,.1-.2.1-.3.2s-.2-.1-.1-.2S13.6,37.5,13.8,37.5Z"/><path class="cls-1" d="M51,19.1a.75.75,0,0,1-.5-.1C50.6,19,50.9,18.8,51,19.1Z"/><path class="cls-1" d="M50.2,64.8a.1.1,0,0,1-.1.1H50c0-.1,0-.1.1-.1h0C50.1,64.7,50.2,64.8,50.2,64.8Z"/><path class="cls-1" d="M23.3,60.6l.4.2C23.5,60.9,23.3,60.9,23.3,60.6Z"/><path class="cls-1" d="M13.6,35.7c-.1.1-.2.3-.4,0Z"/><path class="cls-1" d="M64,26.6c0,.1,0,.1-.1.1a.1.1,0,0,1-.1-.1v-.1Z"/><path class="cls-1" d="M50,19a.9.9,0,0,1-.5.1c.1-.2.3-.2.5-.1Z"/><path class="cls-1" d="M66.3,30.6c.3,0,.2.3.3.4h0C66.2,31,66.2,30.8,66.3,30.6Z"/><path class="cls-1" d="M13.3,35.2a.1.1,0,0,1,.1.1l-.1.1-.1-.1Z"/><path class="cls-1" d="M67.3,41.3c0-.2,0-.4.2-.5C67.5,41,67.5,41.2,67.3,41.3Z"/><path class="cls-1" d="M26.6,63.1h0a.14.14,0,0,1,0,.2l-.1-.1Z"/><path class="cls-1" d="M67.2,33.3l-.2.4a.3.3,0,0,1,0-.4Z"/><path class="cls-1" d="M21.2,22.8a.22.22,0,0,1-.2.2c-.1,0-.1-.2,0-.3S21.1,22.8,21.2,22.8Z"/><path class="cls-1" d="M52.7,19.4c0-.1,0-.2.1-.2a.1.1,0,0,1,.1.1A.35.35,0,0,1,52.7,19.4Z"/><path class="cls-1" d="M64,53.2h0c-.1,0,0-.1,0-.1Z"/><path class="cls-1" d="M47.2,18.9l-.2-.1c0-.1,0-.2.1-.1S47.1,18.9,47.2,18.9Z"/><path class="cls-1" d="M63.4,52.5l.2-.3v.2Z"/><path class="cls-1" d="M15.7,28.6a.1.1,0,0,1,.1.1c0,.1,0,.1-.1.1a.1.1,0,0,1-.1-.1Z"/><path class="cls-1" d="M23,60.7a.45.45,0,0,1,0-.5Z"/><path class="cls-1" d="M23.3,60.3l-.2.1c0-.1,0-.3.2-.3S23.3,60.2,23.3,60.3Z"/><path class="cls-1" d="M23.1,60.5l.2.1c-.1,0-.1.4-.3.1Z"/><path class="cls-1" d="M65.6,49.3a.6.6,0,0,1,.1-.4C65.8,49.1,65.8,49.2,65.6,49.3Z"/><path class="cls-1" d="M52.6,63.6l.3-.1C52.8,63.5,52.9,63.8,52.6,63.6Z"/><path class="cls-1" d="M58.6,60l.1-.2h.1c0,.1.1.2,0,.3S58.6,60,58.6,60Z"/><path class="cls-1" d="M55.1,61.7c0-.2.3-.2.3-.3C55.5,61.7,55.3,61.7,55.1,61.7Z"/><path class="cls-1" d="M27.8,17.3a.19.19,0,0,1,.3,0A.19.19,0,0,1,27.8,17.3Z"/><path class="cls-1" d="M45.9,18.6a.22.22,0,0,0,.2-.2h.1v.1c0,.2-.1.3-.3.2h0Z"/><path class="cls-1" d="M66,47.8a.75.75,0,0,1,.1-.5C66.1,47.4,66.4,47.7,66,47.8Z"/><path class="cls-1" d="M24.8,19.4c-.1.1-.2.3-.4.3C24.4,19.5,24.6,19.4,24.8,19.4Z"/><path class="cls-1" d="M67.2,33.3H67v-.2c-.1-.1-.1-.2,0-.2A.76.76,0,0,1,67.2,33.3Z"/><path class="cls-1" d="M50.8,64.1v.1a.6.6,0,0,1-.4.1C50.5,64.1,50.6,64.1,50.8,64.1Z"/><path class="cls-1" d="M13.2,45.9l.2-.1v.1s0,.2-.2,0C13.2,46,13.3,46,13.2,45.9Z"/><path class="cls-1" d="M28.4,64.1h0c-.1-.1,0-.1,0-.2a.1.1,0,0,1,.1.1Z"/><path class="cls-1" d="M22.4,20.7l-.1.1h-.1s0-.1.2-.1Z"/><path class="cls-1" d="M67.7,39.3v-.4C67.9,39,67.8,39.2,67.7,39.3Z"/><path class="cls-1" d="M66.9,43.7a.6.6,0,0,1,.1-.4C67.1,43.5,67,43.6,66.9,43.7Z"/><path class="cls-1" d="M13.6,44.5a.6.6,0,0,1,.1.4C13.4,44.9,13.6,44.7,13.6,44.5Z"/><path class="cls-1" d="M18.1,55.5l.1.2H18C17.9,55.7,18.1,55.5,18.1,55.5Z"/><path class="cls-1" d="M14.8,32.4Z"/><path class="cls-1" d="M66.9,34.3l.1.1v.2h-.1C66.7,34.5,66.8,34.4,66.9,34.3Z"/><path class="cls-1" d="M35.9,65.6a.6.6,0,0,1,.4.1C36.2,65.6,36,65.8,35.9,65.6Z"/><path class="cls-1" d="M33.4,15.1v.3h-.2C33.3,15.3,33.2,15.2,33.4,15.1Z"/><path class="cls-1" d="M17.1,54a.52.52,0,0,1,.2.4A.76.76,0,0,1,17.1,54Z"/><path class="cls-1" d="M38.4,16.1l-.3-.3c.1-.1.3.1.3.3Z"/><path class="cls-1" d="M17.4,54.5l.2.2v.2A.76.76,0,0,1,17.4,54.5Z"/><path class="cls-1" d="M64.5,29.5c0-.1.1-.1.2-.1l.1.1v.1l-.1.1c-.2,0-.1-.2-.2-.2Z"/><path class="cls-1" d="M15,30.5h0c.1.1.1.1,0,.2s-.1-.1,0-.2Z"/><path class="cls-1" d="M49.6,21.1v-.2l1.6,1c.1.1.3.1.2.2s-.2,0-.3,0C50.4,22,50.1,21.4,49.6,21.1Z"/><path class="cls-1" d="M52.5,22.7c-.2.1-.4-.4-.5.1a1.37,1.37,0,0,1-.8-.5,1.21,1.21,0,0,1,1.4.2C52.6,22.7,52.6,22.7,52.5,22.7Z"/><path class="cls-1" d="M53.6,53.3c0,.5-.4.6-.7.8-.1-.2-.2.1-.4-.1Z"/><path class="cls-1" d="M48.7,20.4a6.47,6.47,0,0,0-.9-.8v-.1h0c.1,0,.2,0,.2.1.3.1.6.4,1,.4h0C48.8,20.1,48.7,20.2,48.7,20.4Z"/><path class="cls-1" d="M54.2,24.2c.5-.2.8.1,1,.5,0,.3-.2.2-.3.1a1.38,1.38,0,0,1-.4-.3Q54.2,24.35,54.2,24.2Z"/><path class="cls-1" d="M54.4,24.3c.3,0,.5.5.8.3.1,0,.2.1,0,.2s-.2,0-.1.1V25h0a5.55,5.55,0,0,1-.8-.6Z"/><path class="cls-1" d="M57.7,26c.2,0,.3.2.3.4v.1c-.1.1-.2.1-.2,0s-.4-.3-.5-.5C57.4,25.9,57.5,26,57.7,26Z"/><path class="cls-1" d="M57.7,26c-.1.2-.3,0-.4,0l-.1-.1c-.1-.1-.1-.1-.1-.2v-.1C57.4,25.5,57.6,25.7,57.7,26Z"/><path class="cls-1" d="M60.7,34.1a.75.75,0,0,1,.1.8.3.3,0,0,1,0,.4,4.25,4.25,0,0,1-.2-1.1Z"/><path class="cls-1" d="M53.3,23.7a2,2,0,0,1-.9-.6,1.8,1.8,0,0,1,.9.6Z"/><path class="cls-1" d="M57.9,27.6c.1.2.1.3.2.5v.1H58a.54.54,0,0,1-.3-.4C57.6,27.7,57.7,27.6,57.9,27.6Z"/><path class="cls-1" d="M57.3,27.1c.2-.1.3,0,.3.1s.1.1,0,.2-.2,0-.3-.1-.1-.2,0-.2Z"/><path class="cls-1" d="M58.5,29.7l-.2.1-.3-.4C58.2,29.4,58.3,29.6,58.5,29.7Z"/><path class="cls-1" d="M52.5,22.7l.1-.1c.1.1.3.1.3.4C52.7,23.1,52.6,22.9,52.5,22.7Z"/><path class="cls-1" d="M54.4,24.3l-.1.1a1.38,1.38,0,0,1-.4-.3c.1-.1.2,0,.3.1Z"/><path class="cls-1" d="M57.1,25.7l.1.2c-.2,0-.3-.2-.5-.3C56.9,25.5,56.9,25.7,57.1,25.7Z"/><path class="cls-1" d="M55.1,25.1V25h.4C55.4,25.1,55.3,25.3,55.1,25.1Z"/><path class="cls-1" d="M55,23.8c-.1,0-.1.1-.2.1s-.1,0-.1-.1.1,0,.1,0Z"/><path class="cls-1" d="M28.8,28.2c-.1,0-.3,0-.2-.2s.2,0,.3,0Z"/><path class="cls-1" d="M41.9,57.1c.1,0,.2,0,.2.1a.1.1,0,0,1-.1.1.35.35,0,0,1-.1-.2Z"/><path class="cls-1" d="M57.8,26.6H58c.1.1.3.1.2.3h-.1Z"/><path class="cls-1" d="M49.2,20.9a.22.22,0,0,1,.2.2.19.19,0,0,1-.3,0C49,21,49.1,21,49.2,20.9Z"/><path class="cls-1" d="M51,55h0l-.1.2h-.1C50.9,55.1,50.9,55,51,55Z"/><path class="cls-1" d="M49,20.1h0c.2-.2.3-.2.4,0Z"/><path class="cls-1" d="M24.6,33.2c-.1,0-.2.1-.2,0s.2-.2.2-.2Z"/><path class="cls-1" d="M56.3,25.4a.35.35,0,0,0-.1-.2.14.14,0,0,1,.2,0,.1.1,0,0,0,.1.1Z"/><path class="cls-1" d="M53.3,23.6l.3.2c-.1,0-.2,0-.3-.2Z"/><path class="cls-1" d="M40,57.2c.2,0,.3-.1.4,0A.3.3,0,0,1,40,57.2Z"/><path class="cls-1" d="M57,27.2a.22.22,0,0,1-.2-.2c0-.1.1,0,.2.1S57,27.2,57,27.2Z"/><path class="cls-1" d="M57,27.2v-.1l.3-.1v.2Z"/><path class="cls-1" d="M56.6,26.6l-.1-.1s.1-.1.1,0l.1.1C56.7,26.5,56.7,26.6,56.6,26.6Z"/><path class="cls-1" d="M43.8,18.5c.1,0,.3.1.3.2S43.9,18.7,43.8,18.5Z"/><path class="cls-1" d="M14.9,39.4a5.85,5.85,0,0,1-.4,1.9.31.31,0,0,0,.1.2,4.3,4.3,0,0,1,.2,2.5c0,.4.3.7.4,1.1.2,1,.5,1.9.8,2.9a.69.69,0,0,1-.8-.5,14.81,14.81,0,0,1-.9-5.1,7.63,7.63,0,0,1,.2-2.6V38.7a2.92,2.92,0,0,1,.2-.9s0-.2.1-.2.2,0,.2.2c0,.4-.1.8-.1,1.2C14.9,39.2,15,39.3,14.9,39.4Z"/><path class="cls-1" d="M20.1,26.1h-.2c-.1,0-.1-.1-.1-.2s.3-.2.3-.4.1-.1.1-.2a1.56,1.56,0,0,1,.6-.8h0a10.08,10.08,0,0,1,1.7-1.9c.1-.1.4-.2.5,0s-.1.3-.2.4-.2,0-.2.2v.1c-.1.1-.1.2.1.2h0c.2.1.2.3.1.5l-.1.1a.85.85,0,0,0-.3.5c-.1.1-.2.3-.3.4a.78.78,0,0,0-.4.4l-.1.1h-.1a.35.35,0,0,1-.2-.1c-.1-.3.2-.4.3-.5l.1-.1-.1.1a3,3,0,0,0-.5.7,1.77,1.77,0,0,1-.7.7Z"/><path class="cls-1" d="M24.3,22.7h-.2c-.1,0-.3.1-.3-.1s.1-.2.2-.3.2-.1.4-.1c-.3-.2-.3-.3,0-.6a4,4,0,0,1,1.2-1c.3,0,.5-.2.8-.4h.1l.8-.5c.1.1.1.1.1.2a.37.37,0,0,1-.1.3.1.1,0,0,1-.1.1c0,.1-.1.1-.2.1a12.06,12.06,0,0,0-2.4,2.1c0,.3-.2.3-.3.2Z"/><path class="cls-1" d="M31.4,18.3a.37.37,0,0,1,.3.1c.1.1,0,.2-.1.2s-.3.2-.4.3a13.5,13.5,0,0,0-2.6,1.5.37.37,0,0,1-.3.1h-.6c-.1,0-.1,0-.1-.1v-.1c.1-.1.1-.3.2-.4.3-.1.5-.2.5-.5a8.86,8.86,0,0,0,1.7-.8.9.9,0,0,1,.5-.1v.1h0c-.4.4-1,.5-1.4.9h.1a15.05,15.05,0,0,0,1.7-1C30.9,18.3,31.1,18.3,31.4,18.3Z"/><path class="cls-1" d="M20.4,25.6l.2-.4a.76.76,0,0,1,.4.1c.2,0,.3,0,.4-.2h0c.1-.2.3-.3.4-.5l.3-.3a3,3,0,0,1,.8-.8l.3-.1c.1,0,.1.1.1.2h0a2.73,2.73,0,0,1-.9,1.2c-.4.4-.7.8-1.1,1.2s-.7.5-1.2.1h0C20.2,25.9,20.3,25.8,20.4,25.6Z"/><path class="cls-1" d="M15.9,49.1c1.1.7,1.2,2,1.8,3,.1.2.1.3-.1.4s-.5,0-.5-.2a16,16,0,0,0-1-2.3c-.1-.4-.3-.6-.2-.9Z"/><path class="cls-1" d="M31.4,63.3c-1.8-.1-3.3-1.2-4.9-1.8l.1-.2C28.2,61.9,29.7,62.7,31.4,63.3Z"/><path class="cls-1" d="M42.5,64.5a8.6,8.6,0,0,1-1.6.1,33.81,33.81,0,0,1-4.5-.1c-.1,0-.3-.1-.4-.1s-.1-.1,0-.2a43.49,43.49,0,0,0,5.1.2,2.77,2.77,0,0,0,.9-.1C42.3,64.2,42.4,64.3,42.5,64.5Z"/><path class="cls-1" d="M60.8,35.3v-.4c.3,0,.3.3.3.5a14.92,14.92,0,0,0,.2,2.1v.4c0,.1-.1.2-.3.2s-.1-.2,0-.3a1.1,1.1,0,0,0,0-.8.1.1,0,0,1-.1-.1Z"/><path class="cls-1" d="M15.2,48.4c-.1.1-.3,0-.4-.1h0a18.24,18.24,0,0,1-.7-2.5c0-.1-.1-.2-.2-.4v-.3c0-.1,0-.2.1-.2a.22.22,0,0,1,.2.2C14.5,46.2,14.8,47.3,15.2,48.4Z"/><path class="cls-1" d="M17.8,53.6l-.2-.3a1.69,1.69,0,0,0-.2-.5c.6.6,1.5.7,1.8,1.6a1,1,0,0,1-1.2-.6C18,53.9,17.9,53.8,17.8,53.6Z"/><path class="cls-1" d="M19.9,25.9V26a.68.68,0,0,1-.4.6.52.52,0,0,1-.3.7h-.1c-.2.1-.2.5-.5.4a.1.1,0,0,1-.1-.1v-.4a14.31,14.31,0,0,1,1.1-1.5h.1C19.7,25.8,19.8,25.8,19.9,25.9Z"/><path class="cls-1" d="M15.4,35.2a2.57,2.57,0,0,0-.1,1.5.66.66,0,0,1-.1.6c-.2-.1-.3.3-.4,0-.1-.1,0-.2-.1-.3a12.09,12.09,0,0,1,.5-1.8Z"/><path class="cls-1" d="M15.7,33.2a7.49,7.49,0,0,1,.5-1.6h.2a.76.76,0,0,1,.2.5l-.1.1c.3.5,0,.8-.4,1.1a.25.25,0,0,1-.4-.1Z"/><path class="cls-1" d="M20.1,57.1l-.8-1-.6-.9.1-.1,2.1,2.3C20.5,57.6,20.3,57.3,20.1,57.1Z"/><path class="cls-1" d="M47.7,63.7l3.4-1,.1.2a11.05,11.05,0,0,1-3.1.9C47.9,63.8,47.7,63.9,47.7,63.7Z"/><path class="cls-1" d="M14.1,44.6c-.3,0-.3-.2-.3-.4.1-.8-.2-1.5-.1-2.2,0-.1,0-.2.1-.2a.22.22,0,0,1,.2.2A23.48,23.48,0,0,0,14.1,44.6Z"/><path class="cls-1" d="M18.6,27.7h0c.2.4-.1.7-.1,1l.1.1a.37.37,0,0,1-.1.3c0,.1-.1.1-.2.2H18c.2-.2-.4-.3-.1-.5.1-.1.2-.2.2-.3.2-.2.1-.4.1-.6S18.4,27.5,18.6,27.7Z"/><path class="cls-1" d="M42.5,64.5a.75.75,0,0,1-.5-.1l2.8-.2c.1,0,.1,0,.1.1A3.91,3.91,0,0,1,42.5,64.5Z"/><path class="cls-1" d="M44.9,64.2h0l2.8-.6.3.1A8.08,8.08,0,0,1,44.9,64.2Z"/><path class="cls-1" d="M34.7,64.3a7.94,7.94,0,0,1-2.2-.6l2.9.5C35.2,64.5,35,64.3,34.7,64.3Z"/><path class="cls-1" d="M20,27c.1-.1.3-.3.4-.1s-.1.3-.2.4a2.65,2.65,0,0,1-.5.6c-.2.2-.3.1-.3-.2A.73.73,0,0,1,20,27Z"/><path class="cls-1" d="M29,19.5c.2-.3.6-.4.9-.6l.5-.3c.3-.1.6-.3.9-.4l.1.1L29,19.5Z"/><path class="cls-1" d="M15.7,33.2h.4c.1.1.2.2,0,.4a.57.57,0,0,0-.4.7c-.2.1-.3,0-.2-.2A2.39,2.39,0,0,1,15.7,33.2Z"/><path class="cls-1" d="M20,27a1.79,1.79,0,0,1-.5.7c-.1-.1-.1-.3-.3-.3l.3-.7.2.1a.37.37,0,0,0,.3.1Z"/><path class="cls-1" d="M18.4,29.1c-.1-.1-.1-.2.1-.3s.2-.1.2-.2.2-.2.4-.2.2.2.1.4a1.38,1.38,0,0,1-.3.4C18.8,29.3,18.4,29.4,18.4,29.1Z"/><path class="cls-1" d="M15.3,49.6c-.1-.2-.3-.3-.1-.6s-.2-.4,0-.6l.5,1.2C15.6,49.7,15.4,49.6,15.3,49.6Z"/><path class="cls-1" d="M47.8,19.5v.1c-.3-.2-.8-.2-1.2-.4.3-.2.5,0,.8,0l.4.1v.2Z"/><path class="cls-1" d="M58.7,59.2a.19.19,0,0,0-.3,0h0c0-.4.4-.4.5-.7.1,0,.1.1.2.1C59.2,59,58.8,59,58.7,59.2Z"/><path class="cls-1" d="M20.8,56.8l.6.3a.22.22,0,0,1,.2.2.37.37,0,0,1-.3.1C21,57.3,20.9,57.1,20.8,56.8Z"/><path class="cls-1" d="M23.3,23.6c-.1-.1-.1-.1-.1-.2.2-.2.4-.4.7-.3H24A1.53,1.53,0,0,1,23.3,23.6Z"/><path class="cls-1" d="M27.6,20c.1.1.1.3-.1.3s-.3,0-.3-.2v-.3a.52.52,0,0,1,.4-.2C27.7,19.8,27.7,19.9,27.6,20Z"/><path class="cls-1" d="M14.4,36.4a1.39,1.39,0,0,1-.2,1.1A1.39,1.39,0,0,1,14.4,36.4Z"/><path class="cls-1" d="M26.3,20.4a2.65,2.65,0,0,0-.6.5c-.2.2-.3.1-.2-.2h0a2.19,2.19,0,0,0,.5-.3l.2-.1C26.3,20.3,26.4,20.3,26.3,20.4Z"/><path class="cls-1" d="M27.6,20v-.3h0c.1-.1.3-.1.4-.2l.1-.1C28.4,19.9,27.9,19.9,27.6,20Z"/><path class="cls-1" d="M27.8,20.9a1.09,1.09,0,0,1-.9.4c.1-.5.7-.2.9-.6Z"/><path class="cls-1" d="M20.7,23.7a1.09,1.09,0,0,1,.8-.8A2,2,0,0,1,20.7,23.7Z"/><path class="cls-1" d="M15.4,35.2h-.2c.2-.3,0-.7.2-1,.1.1.2.2.1.4A.61.61,0,0,1,15.4,35.2Z"/><path class="cls-1" d="M34.7,64.3a1.7,1.7,0,0,0,.7-.1l.6.1v.2Z"/><path class="cls-1" d="M22.9,23.5l-.8.8c0-.3.2-.4.4-.6s.2-.3.1-.5Z"/><path class="cls-1" d="M57.5,59.9l-.2.1h0c-.2-.1-.4-.1-.6-.2C57,59.5,57.2,59.6,57.5,59.9Z"/><path class="cls-1" d="M27.8,20.9v-.2c.1-.1.3-.2.4-.3h.4A9.22,9.22,0,0,1,27.8,20.9Z"/><path class="cls-1" d="M15,33.8a1.69,1.69,0,0,1,.3-1Z"/><path class="cls-1" d="M58.2,26.8l-.2-.3.3.1c.2,0,.4,0,.3.2S58.3,26.9,58.2,26.8Z"/><path class="cls-1" d="M14,40.2c.1.4-.2.7,0,1h-.1v-1Z"/><path class="cls-1" d="M31.3,18.2a1.8,1.8,0,0,1-.9.4v-.1A1.61,1.61,0,0,1,31.3,18.2Z"/><path class="cls-1" d="M18.4,29.1c.1.1.3.4.4,0H19c-.1.2-.2.4-.5.4-.1,0-.2,0-.2-.1v-.1Z"/><path class="cls-1" d="M65.6,31.3c0,.1.2.2.1.4s-.3.1-.3-.1.2-.3.2-.5v.2Z"/><path class="cls-1" d="M18.6,27.7c-.2,0-.2.2-.4.1l.4-.5C19,27.4,18.6,27.5,18.6,27.7Z"/><path class="cls-1" d="M22.6,23.3c-.3,0-.4.5-.8.5l.7-.7Z"/><path class="cls-1" d="M15.4,32.5a1.14,1.14,0,0,1,.3-.8A6.89,6.89,0,0,1,15.4,32.5Z"/><path class="cls-1" d="M14.5,35.3a1.41,1.41,0,0,1-.1.9A1.41,1.41,0,0,1,14.5,35.3Z"/><path class="cls-1" d="M14.8,34.4c-.1.2,0,.5-.3.8a1.6,1.6,0,0,1,.3-.8Z"/><path class="cls-1" d="M60.9,40.1c0-.3-.1-.5.1-.7C61.1,39.7,61,39.8,60.9,40.1Z"/><path class="cls-1" d="M24,23.1h0c-.1-.2.2-.3.3-.4h.3c0,.2,0,.2-.2.2S24.1,23,24,23.1Z"/><path class="cls-1" d="M52,62.4c-.1.3-.3.3-.6.3Z"/><path class="cls-1" d="M31.4,18a.48.48,0,0,1,.6-.2C31.8,18,31.7,18.1,31.4,18Z"/><path class="cls-1" d="M20,26.8c-.1.1-.1.3-.3.2s-.1-.2,0-.3S19.9,26.7,20,26.8Z"/><path class="cls-1" d="M15.9,30.4c.2-.1.2-.3.3-.4s.1,0,.1,0c-.1.2.1.6-.4.4Z"/><path class="cls-1" d="M18,30a.91.91,0,0,1-.3.7A1.08,1.08,0,0,1,18,30Z"/><path class="cls-1" d="M61,39v-.6A.63.63,0,0,1,61,39Z"/><path class="cls-1" d="M18.4,25.9c0-.1.1-.2.2-.3a.25.25,0,0,1-.1.4h0C18.5,26.1,18.4,26,18.4,25.9Z"/><path class="cls-1" d="M15.5,34.6l-.1-.4c0-.1,0-.1.1-.2a.22.22,0,0,0,.2.2C15.7,34.4,15.7,34.5,15.5,34.6Z"/><path class="cls-1" d="M53.6,61.5a.6.6,0,0,1-.6.3c.2-.2.4-.2.6-.3Z"/><path class="cls-1" d="M15.9,49.1a1.42,1.42,0,0,1-.2-.6c.2.2.3.4.2.6Z"/><path class="cls-1" d="M20.3,24l.3-.1c0,.2-.1.3-.2.3S20.3,24.1,20.3,24Z"/><path class="cls-1" d="M65.6,31.3v-.1c-.1-.1,0-.2,0-.4C65.8,31.2,65.8,31.3,65.6,31.3Z"/><path class="cls-1" d="M22.5,23c-.1,0-.2,0-.2-.1a.19.19,0,0,1,.3-.1Z"/><path class="cls-1" d="M16.3,30h0a.86.86,0,0,1,.3-.6A.71.71,0,0,1,16.3,30Z"/><path class="cls-1" d="M14,38.7v-.5C14.1,38.4,14.2,38.6,14,38.7Z"/><path class="cls-1" d="M18.3,29.6c0,.1,0,.2-.2.3s-.1-.1-.1-.1l.2-.2Z"/><path class="cls-1" d="M33.6,15.4l.2-.2h.4v.1Z"/><path class="cls-1" d="M27.4,20.4h0l-.1.3c-.2,0-.3-.1-.2-.2v-.1c.1-.1.3-.1.3,0Z"/><path class="cls-1" d="M59.1,58.6l-.2-.1.1-.2c.1-.1.2-.2.3-.1s-.1.1-.1.2S59.1,58.5,59.1,58.6Z"/><path class="cls-1" d="M16.6,32a.4.4,0,0,1-.2-.4h.1A.6.6,0,0,1,16.6,32Z"/><path class="cls-1" d="M63.6,27.4v.1a.76.76,0,0,1-.2-.4C63.6,27.1,63.6,27.3,63.6,27.4Z"/><path class="cls-1" d="M17.4,53.9c.2,0,.3,0,.3.2C17.5,54.2,17.4,54.1,17.4,53.9Z"/><path class="cls-1" d="M15.9,31.2a.1.1,0,1,1,.1-.1.1.1,0,0,1-.1.1Z"/><path class="cls-1" d="M14.9,39.4c-.1-.1-.3,0-.2-.2s.2,0,.3,0S15,39.4,14.9,39.4Z"/><path class="cls-1" d="M18.6,28.6c.1.1.2.1.1.2s-.2,0-.3,0v-.1Z"/><path class="cls-1" d="M64.5,29.5l.2.2.1.3C64.6,29.8,64.5,29.7,64.5,29.5Z"/><path class="cls-1" d="M14,40.2h-.2v-.4A.76.76,0,0,1,14,40.2Z"/><path class="cls-1" d="M58.3,58.6c-.1.1-.2.2-.3.1s-.1-.1,0-.2.2,0,.3.1Z"/><path class="cls-1" d="M58.5,58.3l.1.1c-.1.1-.2.2-.3.2v-.1C58.3,58.4,58.3,58.3,58.5,58.3Z"/><path class="cls-1" d="M26.3,20.4l-.1-.1c0-.1.1-.3.2-.2s0,.2-.1.3Z"/><path class="cls-1" d="M24.4,22.9a.22.22,0,0,0,.2-.2c.1,0,.2,0,.1.1S24.6,23.2,24.4,22.9Z"/><path class="cls-1" d="M26,20.4a.55.55,0,0,1-.5.3A.55.55,0,0,1,26,20.4Z"/><path class="cls-1" d="M18.3,29.6h0c-.1-.1-.2-.2,0-.2l.2.1Z"/><path class="cls-1" d="M18.9,29.1h-.2c.1-.1,0-.4.3-.3Z"/><path class="cls-1" d="M28.2,20.4c-.1.1-.2.3-.4.3l.1-.2C27.9,20.4,28,20.4,28.2,20.4Z"/><path class="cls-1" d="M18,28.4c.1.2.1.3-.2.3Z"/><path class="cls-1" d="M23.2,20.9c.1-.1,0-.4.3-.3C23.5,20.7,23.3,20.8,23.2,20.9Z"/><path class="cls-1" d="M16.5,31.6h-.3c0-.2.2-.2.3-.2S16.5,31.5,16.5,31.6Z"/><path class="cls-1" d="M14.8,34.4h0a.25.25,0,0,1,.1-.4C15,34.2,14.8,34.3,14.8,34.4Z"/><path class="cls-1" d="M60.8,36.9l.1.1a.6.6,0,0,1-.1.4Z"/><path class="cls-1" d="M47.8,19.5v-.2c.2,0,.3.1.2.3Z"/><path class="cls-1" d="M17.8,53.6c.2,0,.2.2.3.3L18,54C17.9,53.9,17.9,53.8,17.8,53.6Z"/><path class="cls-1" d="M65,30.7l-.1-.4C65.1,30.3,65.1,30.5,65,30.7Z"/><path class="cls-1" d="M20.1,25.1c.1,0,.2.1.1.2s-.1.1-.2.1h-.1C19.9,25.3,20,25.2,20.1,25.1Z"/><path class="cls-1" d="M14,39a.3.3,0,0,1,0,.4C13.9,39.2,13.9,39.1,14,39Z"/><path class="cls-1" d="M53.6,61.5h0l.3-.2h.2A.76.76,0,0,1,53.6,61.5Z"/><path class="cls-1" d="M27.1,20.5a.22.22,0,0,0,.2.2c-.2.1-.2,0-.3-.1Z"/><path class="cls-1" d="M54.1,61.3h-.2c.1-.1.2-.2.3-.1S54.2,61.3,54.1,61.3Z"/><path class="cls-1" d="M59.9,32.2h-.2a.1.1,0,0,1,0-.2C59.8,32,59.7,32.1,59.9,32.2Z"/><path class="cls-1" d="M58.9,57.7c0,.1,0,.3-.2.3C58.7,57.9,58.8,57.7,58.9,57.7Z"/><path class="cls-1" d="M24.6,60.5a.35.35,0,0,1-.2-.1h.3Z"/><path class="cls-1" d="M14.7,37.1a.37.37,0,0,1,.1.3C14.5,37.3,14.7,37.2,14.7,37.1Z"/><path class="cls-1" d="M19.6,25.8a.27.27,0,0,1,.3-.3h0q.15.3-.3.3Z"/><path class="cls-1" d="M55,60.8h0c0-.1,0-.2.1-.2s.1,0,.1.1Z"/><path class="cls-1" d="M28,19.5a.52.52,0,0,1-.4.2A.4.4,0,0,1,28,19.5Z"/><path class="cls-1" d="M59.1,30.2h0a.35.35,0,0,1-.2-.1s0-.1.1,0A.1.1,0,0,1,59.1,30.2Z"/><path class="cls-1" d="M47.4,64.7l1.7-.4v.2l-1.5.3C47.7,64.7,47.5,64.8,47.4,64.7Z"/><path class="cls-1" d="M42.7,65.2v.2c-.2,0-.3.3-.6.2,0-.2.2-.2.3-.4Z"/><path class="cls-1" d="M28,63.2c-.2-.2-.5-.2-.6-.4a1.45,1.45,0,0,0,.7.2C28.4,63,28.1,63.1,28,63.2Z"/><path class="cls-1" d="M54,62.4a.86.86,0,0,1-.6.3A.71.71,0,0,1,54,62.4Z"/><path class="cls-1" d="M47.4,64.7a.37.37,0,0,1,.3.1h-.2c-.2,0-.3.2-.5,0Z"/><path class="cls-1" d="M52.5,63.2c0,.1-.1.1-.2.2s-.1,0-.1-.1.1-.1.2-.1S52.4,63.1,52.5,63.2Z"/><path class="cls-1" d="M52.6,63.1a.37.37,0,0,1,.5-.2A.76.76,0,0,1,52.6,63.1Z"/><path class="cls-1" d="M51.7,63.3c.2,0,.2.1.2.2a.1.1,0,0,1-.1.1s-.2,0-.1-.1A.14.14,0,0,0,51.7,63.3Z"/><path class="cls-1" d="M38.7,65.4h0a.4.4,0,0,1,.4-.2A.4.4,0,0,1,38.7,65.4Z"/><path class="cls-1" d="M26.3,62.5l.1-.2c.2,0,.3.1.4.1A.51.51,0,0,1,26.3,62.5Z"/><path class="cls-1" d="M51.9,63.8h-.2l.1-.1.1.1Z"/><path class="cls-1" d="M66.3,30.6c.1.1.1.4.3.4l-.2.2c-.2-.1-.3-.3-.4-.4A.21.21,0,0,1,66.3,30.6Z"/><path class="cls-1" d="M66.7,31.7l.2.5-.1.1C66.6,32.2,66.3,32,66.7,31.7Z"/><path class="cls-1" d="M67,32.9v.2c0-.1-.1-.2-.1-.3v-.1C67,32.8,67,32.8,67,32.9Z"/><path class="cls-1" d="M45.9,18.6v.1c-.2,0-.4.1-.5-.1v-.2A.76.76,0,0,1,45.9,18.6Z"/><path class="cls-1" d="M57.3,60c0,.1,0,.2-.2.2H57c0-.2.2-.2.3-.2Z"/><path class="cls-1" d="M15.8,50.8a.37.37,0,0,1-.1-.3C16,50.6,15.9,50.7,15.8,50.8Z"/><path class="cls-1" d="M67.5,35.7c-.2-.1-.2-.2,0-.2s.3,0,.3.2c0,0,.1.2-.1.2v-.1C67.6,35.6,67.5,35.7,67.5,35.7Z"/><path class="cls-1" d="M67.5,35.7c.1-.1.1-.1.2,0l-.2.2Z"/><path class="cls-1" d="M14.8,43.9a.6.6,0,0,1-.1-.4C14.9,43.6,14.8,43.7,14.8,43.9Z"/><path class="cls-1" d="M21,25.4c-.1,0-.3-.1-.3-.2a4.35,4.35,0,0,1,.6-.7h0c0,.2-.3.2-.2.5a.6.6,0,0,1-.1.4Z"/><path class="cls-1" d="M19.6,25.8l.3-.3.2-.1c0,.2-.2.3-.3.5S19.6,26,19.6,25.8Z"/><path class="cls-1" d="M21.4,25.1c-.1.1,0,.5-.4.3h0c0-.1.1-.2.4-.3Z"/><path class="cls-1" d="M21.8,24.6a1,1,0,0,1-.4.5A.66.66,0,0,1,21.8,24.6Z"/><path class="cls-1" d="M20.4,25.6c0,.2-.1.4-.3.4C20,25.8,20.2,25.7,20.4,25.6Z"/><path class="cls-1" d="M21.3,25.1c-.1.1-.2.3-.3.3l.1-.4Z"/><path class="cls-1" d="M20.8,24.3c.1,0,.2.1.1.2l-.1.1v-.3Z"/><path class="cls-1" d="M21.3,24.5a.32.32,0,0,1,.3-.3q-.15.3-.3.3Z"/><path class="cls-1" d="M27.4,20.4h-.3c-.1,0-.1-.2.1-.2s.3,0,.2.2Z"/><path class="cls-1" d="M29,19.5c-.1.3-.3.2-.5.3,0-.2.2-.3.5-.3Z"/><path class="cls-1" d="M23.9,65.7a3.19,3.19,0,0,0,1.9.3h1.9a.59.59,0,0,0-.7-.1l.2-.4-.2-.2-.1.1H25.1v.1l-.4-.2v-.1h.8a10,10,0,0,0,1.6-.2c.1,0,.2-.1.3-.1s.2-.3.3,0h.1l.8-.3a.76.76,0,0,0,.1.4l.2-.1.1.1.4-.3.1-.1-.2-.1.2-.2.2.3.3-.3a.22.22,0,0,0,.2-.2c0-.1,0-.3-.1-.3a.1.1,0,0,1-.1-.1l.7-.3v.4l-.4.2v.1c.2-.1.5,0,.6-.2a.35.35,0,0,1,.2-.1c.1,0,.1-.1.2-.1s.2-.1.4,0l-.1-.3a1.69,1.69,0,0,1-.5.2h-.2l-.2-.3.5-.3v-.1l.4.1a1.38,1.38,0,0,1,.4-.3c.2-.1.3-.2.3.2,0,.1.1.2,0,.3-.1-.1-.1-.2-.2-.4,0,.1-.1.2-.1.3a.22.22,0,0,0,.2.2l.2.2-.2-.1v.1l.4.2c0-.1.1-.2.1-.3l-.2-.1.6-.3-.2-.4.4-.2c-.4,0-.6.3-1,.2.3-.2.6-.2.7-.6l.2.1v-.2a2.25,2.25,0,0,1-.5-.5l-.3.2.1.1c-.1,0-.1.1-.2.1a.52.52,0,0,0-.4.2c-.1.1-.2.1-.3.2v.1l-.3.2s-.1.1-.1,0-.1-.1-.1-.2.1-.2.2-.3a5.5,5.5,0,0,0,.9-.7,1.52,1.52,0,0,1,.6-.4c.1,0,.2-.1.4-.1-.2.5,0,.8.5.8.1,0,.1,0,.2-.1s0-.1-.1-.2-.2-.2-.1-.3-.1-.1-.2-.2v-.1l-.2-.2.2-.2c.1,0,.2-.1.3-.1.3-.1.3-.1.2-.4l.3-.2c.1-.1.2-.1.2-.2l.2.1.4-.6-.5.1v-.1l.6-.4c.3.1.6.2.8-.1l-.3-.2-.3.1h0a17.88,17.88,0,0,0,1.3-1.4c.2,0,.4.1.4-.3l-.4.1.4-.6.3.2h0l-.1-.1a2.65,2.65,0,0,0,.6-.5,2,2,0,0,0,.4-.8L38,55c.2-.4.3-.7.5-1.1h0l.2-.4c.2,0,.2,0,.2-.3a1.07,1.07,0,0,1,.2-.6l.1-.3.2.1a1.67,1.67,0,0,1,.4-1.5l.2.3c0-.3-.1-.6-.1-.9l.3-.2-.3-.1v-.1c.1-.5.3-1,.4-1.6.1-.4.2-.7.3-1.1v-.4a4.4,4.4,0,0,1,.2-1c.1-.4.1-.5.2-.8,0-.1-.1-.2-.1-.3a1.69,1.69,0,0,1-.5.2c-.6.1-1.2.2-1.9.3a1.28,1.28,0,0,1-1-.4,1.49,1.49,0,0,0-.9-.4l-.1-.1a1.44,1.44,0,0,1-.3-.2l-.6-.5h0a8.26,8.26,0,0,1-1.3-5.3v-.2l-1.5.7a1.33,1.33,0,0,1-.8.3,1.27,1.27,0,0,0-.6.1l-.1.1c-.1,0-.3.1-.4.1a4.23,4.23,0,0,1-1.2.4h-.2c-.3-.3-.5,0-.7.1l-.6-.1c.1-.2.1-.3.2-.5l-.2-.1v-.1a.75.75,0,0,0,.1-.5c0-.1.1-.3.2-.3a6.07,6.07,0,0,1,1-.7,1.85,1.85,0,0,0,.7-.8c.1-.1.2-.3.3-.3s.3-.2.4-.3a42.41,42.41,0,0,1,5.6-3.8,21.76,21.76,0,0,1,2.7-1.1,5,5,0,0,1,1.2-.2h1.3l.1.1-.2.1c.1.1.3.2.4.3a.9.9,0,0,1,.1.5,1.27,1.27,0,0,0,.1.6v.1a8.75,8.75,0,0,1-1,2.2l-.6.9c-.1.2-.3.4-.4.6a1.52,1.52,0,0,0,0,2c.3.3.6.2,1,.2a2.45,2.45,0,0,0,1.6-.6,5.58,5.58,0,0,1,.8-.5.1.1,0,0,1,.1-.1c.1-.1.2-.2.2-.3s.3-.1.4-.2.2-.2.3-.2.1-.2.2-.2c.4-.1.6-.5.9-.8s.3-.2.5-.4l.3-.3a.78.78,0,0,1,.4-.4.78.78,0,0,0,.4-.4c.1-.2.2-.5.5-.6l.1-.1a1.56,1.56,0,0,1,.6-.8l.1-.1.4-.4c0-.3,0-.4.3-.6l.1-.1c.1-.2.2-.3.3-.5l.6-.8a5.5,5.5,0,0,0,.7-.9,3.33,3.33,0,0,0,.6-1,2.38,2.38,0,0,1,.6-1.1c.1-.2.2-.3.3-.5l.1-.1c.2,0,.3-.1.2-.3s0-.1.1-.2c0,.1,0,.1.1.2l.2-.5-.1-.1.4-.3.2-.1h.1a2.74,2.74,0,0,0,.4-.5c.1-.1.3-.2.4-.3.1-.3.5-.3.7-.5.3.2.4,0,.4-.2s.1-.1.2-.1.4-.1.6-.2h.2l-.1-.4a1.16,1.16,0,0,0,1-.2v.1h.5l.2-.3.1.1c.3-.5.9-.1,1.2-.5a.3.3,0,0,0,.4,0l.1-.1h.1v.4c-.2.1-.2.1-.1.3a.22.22,0,0,1,.2-.2l.1.2c0-.1.1-.1.1-.2a.1.1,0,0,0,.1.1l.1.5c0,.1.3.2.5.1h.1l-.2.4.2-.1.1.2.4-.2c0-.1-.1-.3.2-.2.1,0,.2-.2.4-.2l-1,1,.1.1.4-.2h0l-.1.1h0l.9-.7.1.1-.5.4v.2c-.1.1-.1.2-.2.2s-.2.2-.1.4v.2l-1,1a.31.31,0,0,0-.1.2c-.1.1-.1.2-.2.2h-.1l-.3.9h-.1c-.1.2-.2.4-.5.4-.1,0-.2.2-.3.4l-.2.2c-.2.2-.3.5-.7.6.1.5-.5.5-.6.9s-.4.4-.7.6c0,.1,0,.1.1.2l-.4.4c-.1.1-.2.1-.2.2a.44.44,0,0,0-.1.5l-.2.1-.1.1c0,.3-.4.5-.4.7s-.3.4-.5.6v.1c.1.2-.1.3-.2.4l-.3.3v.5c-.1.1-.3.2-.4.3l-.3.3c-.3.2-.3.5-.5.8a1.87,1.87,0,0,1-.3.4c-.1.1-.3.1-.2.3l-.1.1a.45.45,0,0,0,0,.5l-.3.2.2.2c-.2,0-.3.2-.4-.1-.1.2-.1.4-.2.6h-.2c-.1,0,0,.1,0,.1-.2.3-.4.5-.6.8s-.4.9-.6,1.3a2.65,2.65,0,0,1-.5.6c-.1.1-.1.2-.2.4a4.49,4.49,0,0,0-.6,1.2.1.1,0,0,0-.1.1,2.18,2.18,0,0,0-.5.8.37.37,0,0,0,.1.3l-.2-.1v.1l-.3.3c-.1.1-.1.4-.3.4v.1c-.1.3-.2.5-.3.8s-.1.3-.2.5-.2.3-.2.5,0,.4-.3.4a.35.35,0,0,0-.1.2c0,.2,0,.5-.3.6-.1,0-.2.5-.2.6h0l-.3.6c-.1.2-.3.3-.4.5l-.1-.1v.2c0,.1.1.2.1.3-.1.3-.3.6-.4.9s-.2.5-.3.8-.1.5-.2.7a.78.78,0,0,1-.4.4.3.3,0,0,1,0,.4.35.35,0,0,1-.2.1c-.1,0-.2.2-.3.3v.1h.2l.1.1a2.18,2.18,0,0,1-.4.5l.2.1-.5.5c.2.1.4.1.2.3s-.1.3-.2.5c-.2.4-.4.8-.6,1.3s-.3.7-.4,1-.4.6-.5.9l-.5,1a.35.35,0,0,1-.1.2l-.9,1.5a2.18,2.18,0,0,1-.4.5c-.2.1-.2.5-.5.5,0,.4-.5.5-.6.9h0a3,3,0,0,0-.8.8c-.2.3-.7.3-.8.7l-.1.1a5.36,5.36,0,0,1-1.1.5,9.44,9.44,0,0,0-.9.3h-.1c-.2,0-.2,0-.3.3l-.6-.1.2-.4-.1-.1c-.1.3-.4.3-.6.4v-.1l-.6.3c-.2.2-.4.1-.6.2-.1-.2-.1-.3-.2-.4a4.88,4.88,0,0,1-.3.7l-.2-.2c-.2.3-.4.1-.6.1l.2-.2-.6.1v.4l-.4.1c0,.2,0,.3-.3.2H30a5.64,5.64,0,0,1,1.2-.4l-.3-.2c-.2.3-.5.2-.8.1l-.1.2-.3-.2c0,.2,0,.4-.3.1a.37.37,0,0,0-.3-.1v-.1l.4-.1v.4l.2.2v-.3H30a.37.37,0,0,0-.1-.3h.3l-.1.2.4-.2-.6-.2v.1c-.1-.1-.1-.3-.2-.5.3.1.5.2.6,0l.7-.1a.37.37,0,0,1,.1-.3l.3.2.2-.4-.1-.1-.9.4v-.2l-1.1.3-.1-.2-.3.3-.2-.1c-.1.5-.4.2-.6.2l-.2.2c-.1.1-.1.2-.2.3,0-.1-.1-.2-.1-.3L27,66a3.4,3.4,0,0,0-1,.1c-.2,0-.3.1-.4-.2a.35.35,0,0,0-.2-.1c-.1,0-.4.1-.6.1l-.1.2h-.1l-.1-.4-.9-.1c-.2,0-.3,0-.4-.2Zm5.6-.4h0l-.5.1c.1.1.2.2.2.3l.3-.1-.3-.1v-.1Z"/><path class="cls-1" d="M36,31.6c-.2-.3-.4,0-.6-.1a1.7,1.7,0,0,0-.7-.1c-.1,0-.2-.1-.3-.2a.82.82,0,0,1-.5-.5c-.2-.5-.5-1-.7-1.5a2.34,2.34,0,0,1-.1-2,4.35,4.35,0,0,1,.4-.7c.1-.2.2-.3.2-.5s.2-.3.4-.4a8,8,0,0,1,4.8-1.2.6.6,0,0,1,.4.1,1.38,1.38,0,0,1,.3.4s-.2.2-.3.2-.1,0-.2.1a3.38,3.38,0,0,1-1.2.6A1.59,1.59,0,0,0,37,27h.1c.3-.3.7-.2,1-.2a.27.27,0,0,1,.3.3c0,.2-.1.5-.1.7a2.54,2.54,0,0,1-.2.7h.6c.7,0,.8.2.6.9a1.35,1.35,0,0,1-.9.9,1,1,0,0,0-.5.4c-.1,0-.1.1-.2.1l-1.4.5Q36,31.45,36,31.6Z"/><path class="cls-1" d="M29.5,65.3l-.3.1v.1l.3.1-.3.1c-.1-.1-.1-.2-.2-.3l.5-.1Z"/><path class="cls-3" d="M33.2,18.7v-.3H33a2.9,2.9,0,1,1,2.9-2.9,2.94,2.94,0,0,1-1.8,2.7v.6a3.45,3.45,0,1,0-4.3-2.3A3.42,3.42,0,0,0,33.1,19h.2a.37.37,0,0,0-.1-.3Z"/><path class="cls-3" d="M33.5,19.7h-.4a4.18,4.18,0,1,1,1.2-.2l-.3.1h-.2Zm-.4-6.4a2.25,2.25,0,1,0,.1,4.5h.3l.3-.1a2.17,2.17,0,0,0,1.4-2,2.18,2.18,0,0,0-2.1-2.4Z"/><path class="cls-3" d="M39.7,19a2.87,2.87,0,1,1-3.9-3.1.9.9,0,0,1,.1-.5v-.1a3.43,3.43,0,0,0,.6,6.7h.8a3.4,3.4,0,0,0,3-3,.63.63,0,0,1-.6,0Z"/><path class="cls-3" d="M37.3,22.8h-.9a4.13,4.13,0,0,1-3.7-4.5,4.2,4.2,0,0,1,2.9-3.5l.8-.3v1.1a1.27,1.27,0,0,1-.1.6l-.1.4-.3.1a2.3,2.3,0,0,0-1.3,2.9,2.22,2.22,0,0,0,2.9,1.3,2.18,2.18,0,0,0,1.4-1.8l.1-.8.8.2c.2,0,.3.1.5.1l.7.1-.1.7a4.14,4.14,0,0,1-3.6,3.4Z"/><path class="cls-3" d="M36.7,15.8h.2a2.89,2.89,0,0,1,2.8,2.3,1.27,1.27,0,0,0,.6.1,3.45,3.45,0,0,0-3.4-3h-.2v.6Z"/><path class="cls-3" d="M41,19l-.9-.1a2.35,2.35,0,0,1-.8-.2l-.3-.1-.1-.4a2.36,2.36,0,0,0-2.2-1.8h-.9l.1-.8v-.4l-.1-.7h.9a4.11,4.11,0,0,1,4.1,3.6Z"/><path class="cls-3" d="M33.2,18.7v-.3H33a2.9,2.9,0,1,1,2.9-2.9,2.94,2.94,0,0,1-1.8,2.7v.6a3.45,3.45,0,1,0-4.3-2.3A3.42,3.42,0,0,0,33.1,19h.2a.37.37,0,0,0-.1-.3Z"/><path class="cls-3" d="M33.5,19.7h-.4a4.18,4.18,0,1,1,1.2-.2l-.3.1h-.2Zm-.4-6.4a2.25,2.25,0,1,0,.1,4.5h.3l.3-.1a2.17,2.17,0,0,0,1.4-2,2.18,2.18,0,0,0-2.1-2.4Z"/><path class="cls-3" d="M37.7,15.2a2.87,2.87,0,1,1,3.9,3.1v.6a3.45,3.45,0,1,0-2-6.6,3.32,3.32,0,0,0-2.4,2.9c.2-.1.4,0,.5,0Z"/><path class="cls-3" d="M41,19.7v-1a1.27,1.27,0,0,1,.1-.6l.1-.4.3-.1a2.17,2.17,0,0,0,1.4-2,2.3,2.3,0,0,0-2.2-2.3,2.21,2.21,0,0,0-2.3,2l-.1.8-.8-.2c-.2,0-.3-.1-.5-.1l-.7-.1.1-.7a4.13,4.13,0,0,1,8.2,1,4,4,0,0,1-2.9,3.4Z"/><path class="cls-3" d="M40.7,18.7v-.3h-.2a2.89,2.89,0,0,1-2.8-2.3,1.27,1.27,0,0,0-.6-.1,3.45,3.45,0,0,0,3.4,3h.2v-.3Z"/><path class="cls-3" d="M40.6,19.7a4.11,4.11,0,0,1-4.1-3.6l-.1-.9.9.1a2.35,2.35,0,0,1,.8.2l.3.1.1.4a2.1,2.1,0,0,0,2.3,1.7h.8l-.1.8v.4l.1.7h-1Z"/><path class="cls-3" d="M47.2,19a2.87,2.87,0,1,1-3.9-3.1.9.9,0,0,1,.1-.5v-.1A3.43,3.43,0,0,0,44,22h.8a3.4,3.4,0,0,0,3-3,.63.63,0,0,1-.6,0Z"/><path class="cls-3" d="M44.8,22.8h-.9a4.13,4.13,0,0,1-3.7-4.5,4.2,4.2,0,0,1,2.9-3.5l.8-.3v1.7l-.1.4-.3.1a2.3,2.3,0,0,0-1.3,2.9,2.22,2.22,0,0,0,2.9,1.3,2.18,2.18,0,0,0,1.4-1.8l.1-.8.8.2c.2,0,.3.1.5.1l.7.1-.1.7a4.26,4.26,0,0,1-3.7,3.4Z"/><path class="cls-3" d="M44.2,15.6v.3h.2a2.79,2.79,0,0,1,2.8,2.3,1.27,1.27,0,0,0,.6.1,3.45,3.45,0,0,0-3.4-3h-.1a.37.37,0,0,0-.1.3Z"/><path class="cls-3" d="M48.5,19l-.9-.1a2.35,2.35,0,0,1-.8-.2l-.3-.1-.1-.4a2.36,2.36,0,0,0-2.2-1.8h-.9l.1-.8v-.4l-.1-.7h.9a4.11,4.11,0,0,1,4.1,3.6Z"/><path class="cls-3" d="M48.1,12.1a3.45,3.45,0,0,0-3.4,3c.2,0,.4.1.6.1a2.89,2.89,0,1,1,5.7.9,2.86,2.86,0,0,1-3.3,2.4,3,3,0,0,1-2.4-2.4,1.27,1.27,0,0,0-.6-.1,3.55,3.55,0,0,0,3.9,3,3.46,3.46,0,0,0-.5-6.9Z"/><path class="cls-3" d="M48.1,19.7A4.11,4.11,0,0,1,44,16.1v-.4h0v-.5h.1V15a4.13,4.13,0,0,1,8.2,1,4.22,4.22,0,0,1-4.2,3.7Zm-2.2-4,.1.4a2.18,2.18,0,1,0,1.8-2.5A2.23,2.23,0,0,0,46,15.4Z"/><path class="cls-1" d="M33.2,18.7v-.3H33a2.9,2.9,0,1,1,2.9-2.9,2.94,2.94,0,0,1-1.8,2.7v.6a3.45,3.45,0,1,0-4.3-2.3A3.42,3.42,0,0,0,33.1,19h.2a.37.37,0,0,0-.1-.3Z"/><path class="cls-1" d="M39.7,19a2.87,2.87,0,1,1-3.9-3.1.9.9,0,0,1,.1-.5v-.1a3.43,3.43,0,0,0,.6,6.7h.8a3.4,3.4,0,0,0,3-3,.63.63,0,0,1-.6,0Z"/><path class="cls-1" d="M36.7,15.8h.2a2.89,2.89,0,0,1,2.8,2.3,1.27,1.27,0,0,0,.6.1,3.45,3.45,0,0,0-3.4-3h-.2v.6Z"/><path class="cls-1" d="M33.2,18.7v-.3H33a2.9,2.9,0,1,1,2.9-2.9,2.94,2.94,0,0,1-1.8,2.7v.6a3.45,3.45,0,1,0-4.3-2.3A3.42,3.42,0,0,0,33.1,19h.2a.37.37,0,0,0-.1-.3Z"/><path class="cls-1" d="M37.7,15.2a2.87,2.87,0,1,1,3.9,3.1v.6a3.45,3.45,0,1,0-2-6.6,3.32,3.32,0,0,0-2.4,2.9c.2-.1.4,0,.5,0Z"/><path class="cls-1" d="M40.7,18.7v-.3h-.2a2.89,2.89,0,0,1-2.8-2.3,1.27,1.27,0,0,0-.6-.1,3.45,3.45,0,0,0,3.4,3h.2v-.3Z"/><path class="cls-1" d="M47.2,19a2.87,2.87,0,1,1-3.9-3.1.9.9,0,0,1,.1-.5v-.1A3.43,3.43,0,0,0,44,22h.8a3.4,3.4,0,0,0,3-3,.63.63,0,0,1-.6,0Z"/><path class="cls-1" d="M44.2,15.6v.3h.2a2.79,2.79,0,0,1,2.8,2.3,1.27,1.27,0,0,0,.6.1,3.45,3.45,0,0,0-3.4-3h-.1a.37.37,0,0,0-.1.3Z"/><path class="cls-1" d="M48.1,12.1a3.45,3.45,0,0,0-3.4,3c.2,0,.4.1.6.1a2.89,2.89,0,1,1,5.7.9,2.86,2.86,0,0,1-3.3,2.4,3,3,0,0,1-2.4-2.4,1.27,1.27,0,0,0-.6-.1,3.55,3.55,0,0,0,3.9,3,3.46,3.46,0,0,0-.5-6.9Z"/></svg>