<svg id="Layer_1" data-name="Layer 1" xmlns="http://www.w3.org/2000/svg" viewBox="0 0 243.3 61.36"><defs><style>.cls-1{fill:#c1c7d0;}</style></defs><title>Artboard 8</title><path class="cls-1" d="M34,43a21.45,21.45,0,1,1,21.4-21.5h0A21.45,21.45,0,0,1,34,43Zm0-37.5a16.05,16.05,0,1,0,16.1,16h0A16.2,16.2,0,0,0,34,5.46Z"/><path class="cls-1" d="M25.2,8.06s-8.7,2.5-12.6,14.4a2.93,2.93,0,0,0,.4,1.6c1.1,1.6,5.5,3.3,4.9-1.8a25.73,25.73,0,0,1,.6-5.5A16.94,16.94,0,0,1,25.2,8.06Z"/><path class="cls-1" d="M44.7,61.36a21.45,21.45,0,1,1,21.4-21.5h0A21.45,21.45,0,0,1,44.7,61.36Zm0-37.5A16.05,16.05,0,1,0,60.7,40h0A16.07,16.07,0,0,0,44.7,23.86Z"/><path class="cls-1" d="M21.5,61.36a21.45,21.45,0,1,1,21.4-21.5h0A21.32,21.32,0,0,1,21.5,61.36Zm0-37.5A16.05,16.05,0,1,0,37.5,40h0A16,16,0,0,0,21.5,23.86Z"/><path class="cls-1" d="M23.2,40.06A21.46,21.46,0,0,1,44.6,2.86,21,21,0,0,1,48.7,6l-3.3,4.3A16,16,0,1,0,24,34.06l-.3,1.4-.3,1.6-.2,1.6Z"/><rect class="cls-1" x="71.5" y="42.76" width="50.9" height="0.8"/><rect class="cls-1" x="130.8" y="42.76" width="112.5" height="0.8"/><path class="cls-1" d="M94.4,20.16l.2,2.2a8.8,8.8,0,0,1,.1,1.4l-.4.1a7.84,7.84,0,0,0-2.4-3.3,6.3,6.3,0,0,0-3.5-1.1,9.08,9.08,0,0,0-4,.6,8.08,8.08,0,0,0-3.5,3.1,9,9,0,0,0-1.4,5.3,11.27,11.27,0,0,0,.5,3.2,11.74,11.74,0,0,0,1.5,2.7,11.5,11.5,0,0,0,2.3,2.1,6.67,6.67,0,0,0,2.1.9,13.55,13.55,0,0,0,2,.2,11.08,11.08,0,0,0,1.9-.2,3.29,3.29,0,0,0,1.6-.7,2,2,0,0,0,.7-.9,6.8,6.8,0,0,0,.2-2,7,7,0,0,0-.3-2.9c-.2-.3-.9-.5-2.1-.5H88.7l-.2-.4c0-.1,0-.1.1-.2,1.1-.1,2.2-.1,3.3-.1h1.8l1.5.1h2.3v.1a.6.6,0,0,1-.1.4,2.77,2.77,0,0,1-.9.1h-.9a1.14,1.14,0,0,0-.8.3,3.59,3.59,0,0,0-.2,1.1v1.7a10.55,10.55,0,0,1-.2,2.5,2.09,2.09,0,0,1-.4.6,2.73,2.73,0,0,1-1.2.6,15.46,15.46,0,0,1-2.3.7,23.08,23.08,0,0,1-3.7.3,12.49,12.49,0,0,1-4.7-.7,8.25,8.25,0,0,1-3.2-2,8.32,8.32,0,0,1-1.9-2.6,8,8,0,0,1-.8-4,10.63,10.63,0,0,1,1.3-5,10.38,10.38,0,0,1,4.3-4,12.36,12.36,0,0,1,5.7-1.1,19,19,0,0,1,4.1.4A10.21,10.21,0,0,1,94.4,20.16Z"/><path class="cls-1" d="M98.5,37.76l-.1-.2c0-.1.1-.2.1-.3l.9-.2,1.2-.2a.22.22,0,0,0,.2-.2,4.1,4.1,0,0,0,.1-1.1c0-3.3,0-5.2-.1-5.7a1.69,1.69,0,0,0-.3-1,1.69,1.69,0,0,0-1-.3,2.35,2.35,0,0,1-.8-.2V28a7.81,7.81,0,0,0,2-1.1,6.57,6.57,0,0,0,1.2-1.7h.5a22.94,22.94,0,0,1,.1,3.2v.5a6.23,6.23,0,0,1,1.4-1.8l.3-.3c.1-.1.2-.3.4-.4a4,4,0,0,1,1.5-.6,1.78,1.78,0,0,1,1,.4,1.43,1.43,0,0,1,.4,1,1.14,1.14,0,0,1-.3.8,1.49,1.49,0,0,1-.9.4,2.92,2.92,0,0,1-.9-.2,2.92,2.92,0,0,0-.9-.2,1.27,1.27,0,0,0-.6.1,6.42,6.42,0,0,0-1,1.3,2.3,2.3,0,0,0-.4,1.4l.1,2.4v2.9a1.27,1.27,0,0,0,.1.6c.1.1.2.2.3.2,1,.1,1.7.2,1.8.2h.3a1.49,1.49,0,0,1,.9.2c.1,0,.1.1.1.2a.35.35,0,0,1-.1.2h-5.4Z"/><path class="cls-1" d="M109.3,26.36h3.8v.3c0,1.4,0,2.7-.1,4V32a17.2,17.2,0,0,0,.2,3.2,1.59,1.59,0,0,0,.8,1,2.6,2.6,0,0,0,1.5.4,6.47,6.47,0,0,0,2-.4,4.57,4.57,0,0,0,1.6-1.1,4.87,4.87,0,0,0,.1-1.2v-3.7a8.22,8.22,0,0,0-.2-2.7,3.14,3.14,0,0,0-1.8-.5c-.2,0-.5-.1-.7-.1a.37.37,0,0,1-.1-.3v-.2H121v1c-.1,1.5-.1,3.3-.1,5.5v3.2c.1.1.1.2.2.3a1.7,1.7,0,0,0,.7.1h.1l1.1.1v.5a28.06,28.06,0,0,0-3.1.8,3.09,3.09,0,0,1-.8.2c0-.2-.1-.4-.1-.6v-1.6l-.4.3a12,12,0,0,1-2.4,1.5,3.29,3.29,0,0,1-1.7.4A3.25,3.25,0,0,1,112,37a5.76,5.76,0,0,1-1-3.8v-.5c0-.5.1-.8.1-1v-3.8a.52.52,0,0,0-.2-.4l-1.2-.3c-.2,0-.3-.1-.5-.1Z"/><path class="cls-1" d="M123.7,45.26v-.5l1.5-.3a2.09,2.09,0,0,0,.6-.4c0-.2.1-.3.1-.5,0-1.5,0-4.3-.1-8.5v-5.3a4.4,4.4,0,0,0-.2-1.6c0-.1-.1-.2-.2-.3a3.36,3.36,0,0,0-1.4-.5l.1-.4a20,20,0,0,0,2.1-1,4.74,4.74,0,0,0,1-1h.2a.37.37,0,0,1,.3.1v2.8a9.41,9.41,0,0,1,2.2-1.2,6.72,6.72,0,0,1,2.4-.4,5.07,5.07,0,0,1,3.8,1.6,5.42,5.42,0,0,1,1.5,4,6.29,6.29,0,0,1-.9,3.3,5.13,5.13,0,0,1-2.4,2.2,6.7,6.7,0,0,1-3.1.7,7.75,7.75,0,0,1-3-.7l-.5-.2v2.1a27.9,27.9,0,0,0,.2,5c.1.2.4.3.8.3a3.65,3.65,0,0,1,1.5.3.55.55,0,0,1,.3.5h-4.9Zm3.8-16.5v.4c0,3.4,0,5.4.1,5.8a3,3,0,0,0,.8,1.6,4.23,4.23,0,0,0,2.7.7,4,4,0,0,0,3.1-1.3,4.28,4.28,0,0,0,1.2-3.2,5.2,5.2,0,0,0-1.3-3.8,5.21,5.21,0,0,0-5.2-1.1A4.19,4.19,0,0,0,127.5,28.76Z"/><path class="cls-1" d="M139.5,32a7.79,7.79,0,0,1,.4-2.1,6,6,0,0,1,3-3.3,8.66,8.66,0,0,1,3.2-.6,6,6,0,0,1,4.5,1.9,6.27,6.27,0,0,1,1.8,4.5,5.33,5.33,0,0,1-1.9,4.1,6.55,6.55,0,0,1-4.8,1.8,5.9,5.9,0,0,1-5.4-3A8,8,0,0,1,139.5,32Zm6.4,5.6a4.27,4.27,0,0,0,3.8-2.5,7.65,7.65,0,0,0,.6-3,7.51,7.51,0,0,0-.5-2.6,3.68,3.68,0,0,0-1.4-2.2,3.31,3.31,0,0,0-2.3-.7,4.55,4.55,0,0,0-2,.5,4.62,4.62,0,0,0-1.7,1.7,7.49,7.49,0,0,0-.7,3.6,5.76,5.76,0,0,0,1.2,4A4.07,4.07,0,0,0,145.9,37.56Z"/><path class="cls-1" d="M161.7,36.46a5.07,5.07,0,0,0,.9-.2,6.36,6.36,0,0,0,1.8-.6,1.61,1.61,0,0,0,.3-.9c0-.1,0-1.6.1-4.4v-9a1.42,1.42,0,0,0-.2-.6c-.1-.1-.2-.1-.6-.1a2.77,2.77,0,0,0-.9.1c-.4,0-.8.1-1.1.1h-.3v-1.2a20.48,20.48,0,0,1,2.4-.5,35,35,0,0,1,6.5-.4,24.18,24.18,0,0,1,4.7.4,10.38,10.38,0,0,1,3.7,1.7,9.9,9.9,0,0,1,2.5,12.7,9.12,9.12,0,0,1-8.3,4.2l-3-.1H165l-1.5.1h-1.9A4.89,4.89,0,0,0,161.7,36.46Zm7-16.1v8.4l.1,2.3-.1,1.4a4.23,4.23,0,0,0,.7,2.7,4.06,4.06,0,0,0,3,1,7.61,7.61,0,0,0,2.1-.3,4.82,4.82,0,0,0,2.2-1.5,5.81,5.81,0,0,0,1.3-2.6,13.17,13.17,0,0,0,.4-3.4,11.39,11.39,0,0,0-.9-4.8,6.39,6.39,0,0,0-2.6-2.8,6.78,6.78,0,0,0-3.7-.9,12.29,12.29,0,0,0-2.5.5Z"/><path class="cls-1" d="M197.6,35l.3.2.2.2v.1a3.1,3.1,0,0,1-.9,1.8,2.39,2.39,0,0,1-1.4.5,2.26,2.26,0,0,1-1.5-.5,3.37,3.37,0,0,1-1.1-1.7,4.24,4.24,0,0,1-1.8,1.7,6.71,6.71,0,0,1-2.8.6,3.34,3.34,0,0,1-2.2-.6,2.06,2.06,0,0,1-.7-1.7,3.55,3.55,0,0,1,.2-1,3.59,3.59,0,0,1,.7-1,14.31,14.31,0,0,1,1.5-1.1c.1-.1.5-.2,1.1-.5l3.6-1.5v-1.1a5.2,5.2,0,0,0-.5-2.7,1,1,0,0,0-1-.4,2.77,2.77,0,0,0-1.3.3,1.6,1.6,0,0,0-.9.7,2.66,2.66,0,0,0-.3,1.2,1.45,1.45,0,0,1-.2.7,2.18,2.18,0,0,1-.8.5,2,2,0,0,1-.8.3,5.64,5.64,0,0,1-1.2.4.76.76,0,0,1-.2-.5,3.19,3.19,0,0,1,.3-1.4,4.89,4.89,0,0,1,1.6-1.6,7.81,7.81,0,0,1,2-1.1,10.32,10.32,0,0,1,3-.4,4.48,4.48,0,0,1,2,.4,3,3,0,0,1,1.2,1.3,7.69,7.69,0,0,1,.3,3v4.7a1.08,1.08,0,0,0,.2.8.76.76,0,0,0,.4.2.37.37,0,0,0,.3-.1l.4-.7Zm-4.8-3.4a6.63,6.63,0,0,0-1.9.9,3.53,3.53,0,0,0-1.4,1.3,2.66,2.66,0,0,0-.3,1.2,1.28,1.28,0,0,0,.4,1,1,1,0,0,0,.9.4,1.87,1.87,0,0,0,1.4-.5,2.84,2.84,0,0,0,.9-1,7.41,7.41,0,0,0,.1-2.1C192.9,32.46,192.8,32,192.8,31.56Z"/><path class="cls-1" d="M198.9,37a.76.76,0,0,1,.5-.2,3.51,3.51,0,0,0,1.4-.6,9.06,9.06,0,0,0,.1-2.3,45.68,45.68,0,0,0-.2-4.9.52.52,0,0,0-.2-.4,3.81,3.81,0,0,0-1-.3.32.32,0,0,1-.3-.3v-.5a4,4,0,0,0,1.9-.7,4.89,4.89,0,0,0,1.3-1.2,2.18,2.18,0,0,1,.4-.5h1a4.33,4.33,0,0,0,.1.5V28c.3-.5.6-.9.9-1.4a2.7,2.7,0,0,1,.8-.7,2.1,2.1,0,0,1,1.1-.4,1.9,1.9,0,0,1,1.3.5,1.43,1.43,0,0,1,.6,1.2,2.45,2.45,0,0,1-.4,1.2,1.07,1.07,0,0,1-1.1.5,2.11,2.11,0,0,1-1.3-.5.91.91,0,0,0-.7-.3H205a2.65,2.65,0,0,0-.6.5,2.82,2.82,0,0,0-.4,1.5v.4c0,.7.1,2.4.1,5a.91.91,0,0,0,.3.7c.2.1.3.2.5.3s.6.1.9.2a1.88,1.88,0,0,1,.8.2c.1.1.2.3.1.4a.6.6,0,0,1-.1.4h-1.4l-2.8-.1a12.1,12.1,0,0,0-1.9.1h-.3l-1.5.1v-.4C198.9,37.16,198.9,37.06,198.9,37Z"/><path class="cls-1" d="M209.4,37.66v-.8a3.81,3.81,0,0,1,1-.3l.9-.3a.76.76,0,0,0,.2-.4v-.4a11.93,11.93,0,0,1,.1-1.5v-.8l-.1-2.5v-3.2h-1.9v-.6a1.85,1.85,0,0,1,.2-.7,13.05,13.05,0,0,0,1.7-.1,8.66,8.66,0,0,1,.6-3.2,7,7,0,0,1,1.3-2.4l.4-.4a4.18,4.18,0,0,1,1.8-1.1,6.28,6.28,0,0,1,1.9-.3,3.92,3.92,0,0,1,1.8.4,2.19,2.19,0,0,1,1,.9,3.81,3.81,0,0,1,.3,1,1.58,1.58,0,0,1-2.5,1.3,5.5,5.5,0,0,1-.7-.9l-.6-.9a1.42,1.42,0,0,0-.6-.2.91.91,0,0,0-.8.4,3.13,3.13,0,0,0-.5,1,11.33,11.33,0,0,0-.1,2.6v2h2.4c.1.1.2.2.2.3v.7a.35.35,0,0,1-.4.4h-1.7a.6.6,0,0,0-.4.1v6.9c0,.9.1,1.4.3,1.6a2.72,2.72,0,0,0,1.7.6c.2,0,.3,0,.4.1a1.09,1.09,0,0,0,.1.5.9.9,0,0,1-.1.5h-1l-1.7-.1-.8-.1H212A9.32,9.32,0,0,0,209.4,37.66Z"/><path class="cls-1" d="M218,37.66v-.9l1.6-.2a.55.55,0,0,0,.5-.3,1.41,1.41,0,0,0,.1-.9v-6.5a2.77,2.77,0,0,0-.1-.9,2.09,2.09,0,0,0-.6-.4,7.72,7.72,0,0,0-1.5-.2v-.8a7.6,7.6,0,0,0,2.6-.6,6.57,6.57,0,0,0,1.7-1.2h1v4.7l-.1,5.9a4.1,4.1,0,0,0,.1,1.1l1.5.3a1.42,1.42,0,0,1,.6.2v.8h-1.3c-1,0-2.3-.1-3.9-.1H218Zm2-17.3a2.11,2.11,0,0,1,.5-1.3,1.9,1.9,0,0,1,1.3-.5,2.39,2.39,0,0,1,1.4.5,1.43,1.43,0,0,1,.6,1.2,3.55,3.55,0,0,1-.2,1,2.7,2.7,0,0,1-.7.8,1.69,1.69,0,0,1-1,.3,1.61,1.61,0,0,1-1.3-.6,1.68,1.68,0,0,1-.6-1.4Z"/><path class="cls-1" d="M232.1,32.76v1H232a2,2,0,0,0-.4-.8.78.78,0,0,0-.8-.2,2.35,2.35,0,0,0-.8.2.71.71,0,0,0-.3.6c0,.2.1.3.2.5a2.07,2.07,0,0,0,1,.6c.3.2.6.3.9.5a1,1,0,0,1,.4.5,1.27,1.27,0,0,1,.1.6,1.88,1.88,0,0,1-.2.8c-.1.2-.4.4-.6.6a2.6,2.6,0,0,1-2,0c-.1,0-.2-.1-.4-.2l-.1-.1v-.1a2,2,0,0,1,.1-.8v-.2h.2v.1a1.19,1.19,0,0,0,.5.9,1.4,1.4,0,0,0,1.5.3.78.78,0,0,0,.4-.4c.1-.1.1-.3.2-.5a1.42,1.42,0,0,0-.2-.6,2.36,2.36,0,0,0-.9-.6c-.3-.2-.6-.3-.9-.5s-.4-.3-.5-.6a1.09,1.09,0,0,1-.1-.5,1.27,1.27,0,0,1,.4-.9,1.75,1.75,0,0,1,1.2-.4,1.7,1.7,0,0,1,.7.1A.9.9,0,0,1,232.1,32.76Z"/><path class="cls-1" d="M233,37.46a.35.35,0,1,1,.1.3A.37.37,0,0,1,233,37.46Z"/><path class="cls-1" d="M240,37.46a.35.35,0,1,1,.1.3A.37.37,0,0,1,240,37.46Z"/><path class="cls-1" d="M239,32.86v.8h-.2a1.34,1.34,0,0,0-.6-.7,1,1,0,0,0-.9-.2.9.9,0,0,0-.5.1l-.6.3c-.2.1-.3.3-.5.5s-.2.5-.3.7a2.77,2.77,0,0,0-.1.9,3.19,3.19,0,0,0,.3,1.4,1.78,1.78,0,0,0,.7.8,1.49,1.49,0,0,0,.9.2h.2l.4-.1c.2,0,.3-.1.5-.2s.3-.2.4-.3a2.19,2.19,0,0,0,.3-.5h.1v.1c-.1.5-.2.8-.2.9h-.2a5,5,0,0,1-1.2.2,3.4,3.4,0,0,1-1-.1c-.2-.1-.5-.2-.7-.3a3,3,0,0,1-.7-.5,1.23,1.23,0,0,1-.4-.8,3.55,3.55,0,0,1-.2-1,2.77,2.77,0,0,1,.1-.9,3,3,0,0,1,.4-.8,2.52,2.52,0,0,1,1.5-1,2.77,2.77,0,0,1,.9-.1,2,2,0,0,1,.8.1C238.6,32.66,238.8,32.66,239,32.86Z"/></svg>