<svg id="Layer_1" data-name="Layer 1" xmlns="http://www.w3.org/2000/svg" viewBox="0 0 246.56 55.2"><defs><style>.cls-1{fill:#c1c7d0;}</style></defs><title>Artboard 15</title><path class="cls-1" d="M92.1,37.2V2.5c.4,0,.7-.1,1.1-.1,5,0,10-.1,15,0a19.14,19.14,0,0,1,6.3,1.3c3.1,1.2,4.5,3.8,4.7,7,.2,3.4-.7,6.3-3.8,8.2l-.8.5c4.8,2.5,6.3,4.9,5.9,9.6a8.18,8.18,0,0,1-6.4,7.5,19.68,19.68,0,0,1-3.5.6C104.6,37.3,98.5,37.2,92.1,37.2Zm5.7-14.9V32.6h8.4a21.23,21.23,0,0,0,4.4-.3,4.66,4.66,0,0,0,4.2-5c0-2.7-1.6-4.8-4.3-5C106.4,22.1,102.1,22.3,97.8,22.3Zm0-4.8h10.6a4.71,4.71,0,0,0,1.7-.4,4.79,4.79,0,0,0,3.4-4.9c0-2.4-1.2-4.4-3.5-4.7-4-.5-8.1-.5-12.2-.8Z"/><path class="cls-1" d="M19.3,24.3l8.6,12.9c-2.2,0-4.1.1-6,0-.4,0-1-.6-1.3-1-2.3-3.5-4.6-7.1-6.9-10.6a2.75,2.75,0,0,0-1.9-1c-2-.1-4-.1-6.2-.1V37H0V2.2H8.3a78.6,78.6,0,0,1,9.7.3c5.6.8,8.6,4.1,9,9.2.5,6.6-1.6,10-7.3,12A.68.68,0,0,1,19.3,24.3ZM5.7,19.8c3.7,0,7.2.2,10.7-.1,3.1-.2,4.9-2.5,5-5.5.2-3.8-1.1-6.2-4.4-6.7A105.46,105.46,0,0,0,5.7,6.8Z"/><path class="cls-1" d="M83.6,37.3c-1.3,0-2.5.1-3.7,0-.3,0-.8-.6-.9-1a25.35,25.35,0,0,1-.4-2.9,7.53,7.53,0,0,0-.9.9c-3,3.1-6.5,4.5-10.7,3.3s-5.8-4.4-6.7-8.3a20.11,20.11,0,0,1,.4-10.6,10.57,10.57,0,0,1,12.4-7.5c1.7.3,3.4.9,5.2,1.4V0h5.3ZM78.4,23.8V20c0-3.5-.3-3.8-3.8-4.4l-1-.1c-3.7-.5-6.6,1.1-7.4,4.7a19,19,0,0,0-.4,7.5c1,6.3,5.9,8.1,11,4.3a4.35,4.35,0,0,0,.7-.6,4.55,4.55,0,0,0,.8-1.9A54.21,54.21,0,0,0,78.4,23.8Z"/><path class="cls-1" d="M245.9,33c.2.7.3,1.3.4,1.8.5,2.3.5,2.3-1.9,2.9-3.9.9-6.4-.2-7.9-3.7a10.59,10.59,0,0,1-1.2,1,12,12,0,0,1-10.6,2.6,6.26,6.26,0,0,1-5.3-5.1,6.92,6.92,0,0,1,2.6-7.3c2.8-2.2,6.1-2.9,9.5-3.3,1.5-.2,3.1-.3,4.6-.4.8-3.6-1-5.9-4.5-6.1a17.84,17.84,0,0,0-8.5,1.8l-1.6.7a15,15,0,0,1-.6-2.9,1.43,1.43,0,0,1,.6-1.2,19,19,0,0,1,14-2.2c3.6.9,5.8,3.7,6.1,7.9.2,2.9.1,5.8.1,8.6v1.8C241.7,33.3,242.6,33.9,245.9,33Zm-9.7-8.9a37.76,37.76,0,0,0-4.7.6,23.6,23.6,0,0,0-5.2,2.1,3.73,3.73,0,0,0-1.3,4.6,3.66,3.66,0,0,0,3.6,2.4,9.48,9.48,0,0,0,7.1-2.7,1.61,1.61,0,0,0,.5-1.1c.1-1.8,0-3.7,0-5.9Z"/><path class="cls-1" d="M152.2,32.9a17.66,17.66,0,0,1,.4,2c.4,2.2.4,2.2-1.8,2.8-4,1-6.6-.1-8-3.7-2,1.8-4.1,3.4-6.8,3.7a18.13,18.13,0,0,1-5.2-.1,6.27,6.27,0,0,1-5.2-5,7,7,0,0,1,2.4-7.2c2.8-2.3,6.2-3,9.7-3.4,1.5-.2,3.1-.3,4.6-.4.8-3.3-.9-5.8-4.2-6.1a18.49,18.49,0,0,0-8.7,1.6l-1.7.8a15.94,15.94,0,0,1-.6-3,1.38,1.38,0,0,1,.6-1.1,18.37,18.37,0,0,1,14.1-2.2c3.5.9,5.6,3.6,5.9,7.5.2,3.1.1,6.2.2,9.3v1.8C148,33.3,149,34,152.2,32.9Zm-9.6-8.8a34.74,34.74,0,0,0-5.5.8,15.12,15.12,0,0,0-4.5,2,3.85,3.85,0,0,0-.8,5.4,3.94,3.94,0,0,0,3,1.6,9.27,9.27,0,0,0,7.2-2.8,1.62,1.62,0,0,0,.5-.9C142.6,28.2,142.6,26.3,142.6,24.1Z"/><path class="cls-1" d="M55.6,25.7H37.1c-.3,4.7,2.4,7.6,7.3,7.8a18.4,18.4,0,0,0,9.2-2.2,15.94,15.94,0,0,1,.6,3,1.52,1.52,0,0,1-.7,1.2,20.81,20.81,0,0,1-14.9,1.8,9.43,9.43,0,0,1-5.1-3.6c-3.8-5.2-2.9-15.1,1.9-19.5,3.7-3.4,11-4.1,15.3-1.5,3.2,2,4.3,5.1,4.7,8.6A31.68,31.68,0,0,1,55.6,25.7Zm-5-3.1c.2-4.3-1.8-7.1-5.2-7.3-4.7-.4-7.9,2.4-8.3,7.3Z"/><path class="cls-1" d="M155.8,32.7c3.3.4,6.4.9,9.4,1.1a8.78,8.78,0,0,0,3.5-1,3,3,0,0,0,1.8-3,2.79,2.79,0,0,0-2.1-2.7c-1.6-.6-3.3-.9-4.9-1.4-1.3-.4-2.7-.7-4-1.2a5.79,5.79,0,0,1-4.1-5.7,6.59,6.59,0,0,1,3.8-6.2c3.5-1.7,7.2-1.7,11-1.3a40.41,40.41,0,0,1,4.6.8l-.7,3.5c-3-.1-5.8-.3-8.6-.3a6.11,6.11,0,0,0-3,.8,3.8,3.8,0,0,0-1.6,2.5,2.8,2.8,0,0,0,1.4,2.2,55.75,55.75,0,0,0,5.8,1.8c1.2.4,2.4.6,3.5,1,2.3.9,4.1,2.4,4.4,5,.3,2.9-.5,5.6-3.1,7a18.54,18.54,0,0,1-6.4,2.1,20.6,20.6,0,0,1-9.8-1.2c-1.3-.4-1.9-1-1.3-2.4A5.73,5.73,0,0,0,155.8,32.7Z"/><path class="cls-1" d="M213.9,16.9a15.72,15.72,0,0,0-8.3-1.1c-4,.7-5.9,2.4-6.4,6.4a16.74,16.74,0,0,0,.3,6.3c.7,3.2,3.3,5,7.1,5,2.5-.2,5.1-.5,7.6-.9l.8,3.8a56.75,56.75,0,0,1-6.9,1.5,19.53,19.53,0,0,1-5.9-.3,10,10,0,0,1-8.3-7.9,19.12,19.12,0,0,1,.3-10.6c1.6-4.9,5.1-7.4,10.2-7.9a21.28,21.28,0,0,1,9,1.1c1.1.4,1.6.9,1.1,2.1C214.3,15.2,214.1,16,213.9,16.9Z"/><path class="cls-1" d="M182.2,11.9h5.2V37.2h-5.2Z"/><path class="cls-1" d="M135.9,8.8c1.2-2.8,2.2-5.1,3.2-7.4A1,1,0,0,1,140,1a36.72,36.72,0,0,1,4.3.9,64.31,64.31,0,0,1-5,6.2C138.7,8.6,137.3,8.5,135.9,8.8Z"/><path class="cls-1" d="M221.8,55.1c-1.6-.9-2.1-2.5-3.1-3.7a37.88,37.88,0,0,0-3.2-3.8V55h-.6V45.5l.4-.2,5.5,7.6h.4V45.5h.6Z"/><path class="cls-1" d="M184.7,8.5c-1.9,0-3-1-3-2.6s1.2-2.6,3.1-2.6,3,1,3,2.6S186.7,8.6,184.7,8.5Z"/><path class="cls-1" d="M178.2,45.4v9.5h-.5V47.5l-.4-.1-3.1,4-2.9-4h-.4v7.8c-1-1.2-1.1-7.8-.4-10.2l3.7,5,3.6-4.8Z"/><path class="cls-1" d="M157.6,54.9c-2.5.4-4.7-2.4-4.6-4.8a4.76,4.76,0,0,1,9.5-.5v.6C162.4,52.4,160.5,55.4,157.6,54.9Zm.1-8.9a4,4,0,0,0-3.9,4,3.85,3.85,0,1,0,7.7-.3A3.78,3.78,0,0,0,157.7,46Z"/><path class="cls-1" d="M206.9,55.1c-.9-1.3-1.3-2.7-3.4-2.7s-2.5,1.4-3.2,2.7l-.5-.4c1.2-3.1,2.4-6.3,3.6-9.4l.6-.1c1.2,3.1,2.3,6.3,3.5,9.4Zm-3.3-8.2-1.8,4.8h3.5C204.7,50.2,204.2,48.7,203.6,46.9Z"/><path class="cls-1" d="M19.3,45.3l3.5,9.4-.4.3c-1-1-1.3-2.6-3.4-2.6s-2.5,1.5-3.4,2.7l-.5-.4,3.6-9.4Zm-2.2,6.4h3.6L19,47Z"/><path class="cls-1" d="M116,53a5.08,5.08,0,0,0,1.8.9,5.66,5.66,0,0,0,2.6.1,2.48,2.48,0,0,0,1.4-1.6c0-.5-.7-1.3-1.3-1.7a22.5,22.5,0,0,0-2.4-.8c-1.1-.4-2.2-1-2-2.5a2.56,2.56,0,0,1,2.3-2.3,3.22,3.22,0,0,1,3.9,1.8,10.09,10.09,0,0,0-1.5-.7,4.44,4.44,0,0,0-2.3-.2,2.4,2.4,0,0,0-1.5,1.6c-.1.4.7,1.2,1.3,1.5a14,14,0,0,0,2.9.9c1.2.5,2,1.4,1.6,2.7a2.49,2.49,0,0,1-2.6,2.1C118.4,55,116.7,55,116,53Z"/><path class="cls-1" d="M38.4,47.1c-2.6-1.4-5-1.8-6.9.9a3.6,3.6,0,0,0-.1,4.2c1.8,2.8,4.2,2.4,7,1-.8,1.7-2.5,2.2-4.8,1.7a5,5,0,0,1,.7-9.7A3.41,3.41,0,0,1,38.4,47.1Z"/><path class="cls-1" d="M144.3,47.2c-2.1-1.3-4.2-1.8-6-.2a4.69,4.69,0,0,0-1.4,2.9,4.14,4.14,0,0,0,1.1,3,5.09,5.09,0,0,0,3.1,1.3c1,.1,2-.5,3.2-.8-.7,1.5-2.8,2.1-4.9,1.5a5.12,5.12,0,0,1-3.4-5.1,5.21,5.21,0,0,1,4.5-4.7A3.5,3.5,0,0,1,144.3,47.2Z"/><path class="cls-1" d="M2.4,45.5H7.9V46H3.1v3.7l4.2.2v.6L3,50.8v4.1C2.2,54.4,1.9,48.9,2.4,45.5Z"/><path class="cls-1" d="M105.8,50.5h-4.3v3.8h4.8v.5h-5.6V46a1.21,1.21,0,0,1,.7-.7c1.7-.1,3.3,0,5,0V46l-4.9.3v3.5h4.2Z"/><path class="cls-1" d="M188,51.2c-.1,1.2-.2,2.4-.2,3.7h-.5V45.6c2.9-.8,5.3-.1,5.7,1.9a2.59,2.59,0,0,1-1.3,3.1A25.83,25.83,0,0,1,188,51.2Zm0-1.1c1.5,0,3.1.5,3.9-1a2.34,2.34,0,0,0-.1-2c-1-1.4-2.4-.9-3.8-.8v3.8Z"/><path class="cls-1" d="M233.4,55c1.2-3.9-1.2-6.6-3.2-9.4l.6-.4,3.2,4.2,3.2-4.2.6.4a25.49,25.49,0,0,0-3,4.3c-.7,1.6-.5,3.3-.6,5Z"/><path class="cls-1" d="M81.3,46.2l-3.2-.3v-.5h7.2v.5l-3.2.3v8.6l-.6.1c-.5-.8-.2-1.8-.2-2.6V46.2Z"/><path class="cls-1" d="M56.8,54.1l4.8.2v.4H56.1V45.1c.7.8.7.8.7,4.4Z"/><path class="cls-1" d="M47.2,45c.9,1.6.8,9,0,10Z"/><path class="cls-1" d="M69.5,54.8V45.3C70.4,46.2,70.5,53.6,69.5,54.8Z"/><path class="cls-1" d="M91.9,54.9V45.5h.5c.5,3.1.1,6.3,0,9.4Z"/></svg>