<svg id="Layer_1" data-name="Layer 1" xmlns="http://www.w3.org/2000/svg" viewBox="0 0 155.8 52.6"><defs><style>.cls-1{fill:#c1c7d0;}</style></defs><title>Artboard 19</title><path class="cls-1" d="M109.4,36.4a6.2,6.2,0,0,0-1.8-4.4l-5.3-5.3,5.4-5.4a5.51,5.51,0,0,0,1.7-4.2V4.8A4.48,4.48,0,0,0,105.3,0H93.7a5.82,5.82,0,0,0-4.3,1.8c-1.9,1.9-3.8,3.9-5.8,5.8h0L77.8,1.8A5.82,5.82,0,0,0,73.5,0h-11a4.32,4.32,0,0,0-2.8,1.5A5.14,5.14,0,0,0,56,0H44.6a5.31,5.31,0,0,1-6.9,0H26.3a5.26,5.26,0,0,1-6.9,2.8A4.83,4.83,0,0,1,16.6,0H5.2C2.3,0,0,2.4,0,6V47.9c0,2.1,2.3,4.5,5.2,4.5H16.6a5.26,5.26,0,0,1,6.9-2.8,4.83,4.83,0,0,1,2.8,2.8H37.7a5.31,5.31,0,0,1,6.9,0H56a5,5,0,0,0,3.1-1,5.5,5.5,0,0,0,3.5,1.2H74a6,6,0,0,0,4.4-1.9l5.2-5.2.1-.1c1.8,1.8,3.6,3.5,5.3,5.3a5.82,5.82,0,0,0,4.3,1.8h11.4a4.52,4.52,0,0,0,4.9-4.9V44.4A52.78,52.78,0,0,1,109.4,36.4ZM39.2,47.2a1.54,1.54,0,0,1-1.5,1.5H26.3a1.54,1.54,0,0,1-1.5-1.5h0V37.1a.94.94,0,0,0-1-1H19.2a.94.94,0,0,0-1,1V47.2a1.54,1.54,0,0,1-1.5,1.5H5.3a1.76,1.76,0,0,1-1.5-.8V6c0-1.6.7-2.3,1.5-2.3H16.7a1.54,1.54,0,0,1,1.5,1.5v9.3a.94.94,0,0,0,1,1h4.6a.94.94,0,0,0,1-1V5.3a1.54,1.54,0,0,1,1.5-1.5H37.7a1.54,1.54,0,0,1,1.5,1.5h0Zm18.2,0a1.54,1.54,0,0,1-1.5,1.5H44.5A1.54,1.54,0,0,1,43,47.2h0V5.3a1.54,1.54,0,0,1,1.5-1.5H55.9a1.54,1.54,0,0,1,1.5,1.5h0Zm48.2-.7a2.21,2.21,0,0,1-1.9,2.4h-11c-.7,0-.6,0-1-.5-2.4-2.4-5-4.9-7.3-7.3a1.09,1.09,0,0,0-.9-.4,1.49,1.49,0,0,0-.9.4l-7.2,7.2c-.5.5-.5.5-1.2.5H63.7c-1.4,0-2.4-.5-2.4-2.4V35.9c0-.6-.1-.5.4-1,2.4-2.4,5-5,7.4-7.3a1.15,1.15,0,0,0,.1-1.7l-.1-.1-7.4-7.4c-.5-.5-.4-.4-.4-1V6.1a2.05,2.05,0,0,1,1.8-2.3H73.7c.7,0,.6,0,1.1.5l7.8,7.8a1,1,0,0,0,.9.4,1.49,1.49,0,0,0,.9-.4c2.5-2.5,5.3-5.2,7.8-7.8.5-.5.4-.5,1.1-.5h10.1a2.1,2.1,0,0,1,2.3,2.1V17.6c0,.6.1.5-.3.9L98,25.9a1.25,1.25,0,0,0-.2,1.7l.2.2,7.2,7.2c.5.5.5.4.5,1.1-.1,3.7-.1,6.7-.1,10.4Z"/><path class="cls-1" d="M84.4,21.4l3.9,3.9a1.39,1.39,0,0,1,0,1.9l-3.9,3.9a1.39,1.39,0,0,1-1.9,0l-3.9-3.9a1.39,1.39,0,0,1,0-1.9l3.9-3.9A1.23,1.23,0,0,1,84.4,21.4Z"/><path class="cls-1" d="M143.6,24.5v1.7a.9.9,0,0,0,.5-.1c.1-.1.1-.2.1-.6v-.4a.9.9,0,0,0-.1-.5A.9.9,0,0,0,143.6,24.5Z"/><path class="cls-1" d="M114.9,24.5a.6.6,0,0,0-.4-.1v5c.3,0,.5-.1.5-.2a2.77,2.77,0,0,0,.1-.9V24.6C115,24.7,115,24.6,114.9,24.5Z"/><path class="cls-1" d="M109.3,28.1h.7c-.1-.9-.2-1.9-.3-3.2A30.21,30.21,0,0,0,109.3,28.1Z"/><path class="cls-1" d="M153.7,18.3H105.4c-.1.2-.2.3-.3.5L98,25.9a1.25,1.25,0,0,0-.2,1.7l.2.2,7,7a2.09,2.09,0,0,1,.4.6h48.4a2,2,0,0,0,2-2v-13A2.18,2.18,0,0,0,153.7,18.3ZM110.1,30.8l-.1-1.4h-.7l-.1,1.4h-2l1-7.6H111l1.1,7.6Zm7-2.3a6.6,6.6,0,0,1-.1,1.4,2.19,2.19,0,0,1-.3.5l-.6.3a3.4,3.4,0,0,1-1,.1h-2.5V23.2h1.5a12.1,12.1,0,0,1,1.9.1,2,2,0,0,1,.8.4.91.91,0,0,1,.3.7,7.57,7.57,0,0,1,.1,1.5Zm4.4,2.3h-3l-1.1-7.6h2.1c.2,2.1.4,3.9.5,5.3q.15-2.25.3-3.9l.1-1.4h2.1Zm4.7,0h-3.4V23.2h3.3v1.5h-1.3v1.4H126v1.4h-1.2v1.7h1.4Zm5,0h-1.7l-1-3.4v3.4h-1.7V23.2h1.7l1.1,3.4V23.2h1.7Zm4.8-6.1h-1.2v6.1h-2V24.7h-1.2V23.2h4.3Zm4.9,3.6a4.87,4.87,0,0,1-.1,1.2,4.88,4.88,0,0,1-.3.7,1.79,1.79,0,0,1-.7.5,3.59,3.59,0,0,1-1.1.2,5,5,0,0,1-1.2-.2,1.56,1.56,0,0,1-.8-.6,1.14,1.14,0,0,1-.3-.8V23.1h2v6.3c0,.1.1.1.2.1s.2,0,.2-.1a1.7,1.7,0,0,0,.1-.7V23.1h2Zm4.9-1.1a.76.76,0,0,1,.2.4v3.1h-1.8V28.3a2.2,2.2,0,0,0-.1-.8c-.1-.1-.2-.1-.5-.1v3.4h-2V23.2H143a12.1,12.1,0,0,1,1.9.1,2.18,2.18,0,0,1,.8.5,3.19,3.19,0,0,1,.3,1.4,2.54,2.54,0,0,1-.2,1.2,1.27,1.27,0,0,1-.9.4,3.55,3.55,0,0,1,.9.4Zm4.5,3.6h-3.4V23.2h3.3v1.5h-1.3v1.4h1.2v1.4h-1.2v1.7h1.4Z"/></svg>