<svg id="Layer_1" data-name="Layer 1" xmlns="http://www.w3.org/2000/svg" viewBox="0 0 232.9 44.9"><defs><style>.cls-1{fill:#c1c7d0;}</style></defs><title>Artboard 23</title><path class="cls-1" d="M54.3,38.3l-2-4.6-.4,5a.1.1,0,0,1-.1.1h-.3v-.1l.6-5.8a.1.1,0,0,1,.1-.1h.3a.1.1,0,0,1,.1.1l2.2,4.8,2.1-4.8a.1.1,0,0,1,.1-.1h.3c.1,0,.1,0,.1.1l.6,5.8c0,.1,0,.1-.1.1h-.2c-.1,0-.1,0-.1-.1h0l-.4-5-2.1,4.6v.1h-.3Z"/><path class="cls-1" d="M59.5,38.7V32.9c0-.1,0-.1.1-.1h4c.1,0,.1,0,.1.1v.2c0,.1,0,.1-.1.1H60v2.2h2.9c.1,0,.2,0,.2.1v.2c0,.1,0,.1-.2.1H60v2.5h3.7c.1,0,.1,0,.1.1v.2c0,.1,0,.1-.1.1H59.5Z"/><path class="cls-1" d="M65.5,38.7V33c0-.1,0-.1.1-.1h1.9a5,5,0,0,1,1.2.2,3.33,3.33,0,0,1,1,.6,2.07,2.07,0,0,1,.6,1,2.54,2.54,0,0,1,.2,1.2,5,5,0,0,1-.2,1.2,3.59,3.59,0,0,1-.7,1,2.07,2.07,0,0,1-1,.6,2.54,2.54,0,0,1-1.2.2H65.5C65.6,38.9,65.5,38.8,65.5,38.7Zm.5-.3h1.6a3.55,3.55,0,0,0,1-.2,1.56,1.56,0,0,0,.8-.6,5.55,5.55,0,0,0,.6-.8,3.55,3.55,0,0,0,.2-1,3.55,3.55,0,0,0-.2-1,1.56,1.56,0,0,0-.6-.8,2.18,2.18,0,0,0-.8-.5,3.55,3.55,0,0,0-1-.2H66Z"/><path class="cls-1" d="M72.4,38.7V33c0-.1,0-.1.1-.1h.2c.1,0,.2,0,.2.1v5.7c0,.1-.1.1-.2.1h-.2c0,.1-.1,0-.1-.1Z"/><path class="cls-1" d="M79.4,37.9h.2l.1.2v.1l-.1.1a3.16,3.16,0,0,1-1.9.7,5,5,0,0,1-1.2-.2,3.51,3.51,0,0,1-1.7-1.7,2.54,2.54,0,0,1-.2-1.2,5,5,0,0,1,.2-1.2,3.59,3.59,0,0,1,.7-1,3.1,3.1,0,0,1,2.2-.9,3.55,3.55,0,0,1,1,.2,4.05,4.05,0,0,1,.9.5l.1.1v.1l-.1.2h-.2a2.51,2.51,0,0,0-.7-.4,2.92,2.92,0,0,0-.9-.2,3.55,3.55,0,0,0-1,.2,3.16,3.16,0,0,0-1.4,1.4,3.55,3.55,0,0,0-.2,1,3.55,3.55,0,0,0,.2,1,2.36,2.36,0,0,0,.6.9,5.55,5.55,0,0,0,.8.6,3.55,3.55,0,0,0,1,.2,2.92,2.92,0,0,0,.9-.2C78.9,38.2,79.2,38.1,79.4,37.9Z"/><path class="cls-1" d="M81.5,38.7V33c0-.1,0-.1.1-.1h.2c.1,0,.1,0,.2.1h0v5.7c0,.1,0,.1-.1.1h-.2c-.1.1-.2,0-.2-.1Z"/><path class="cls-1" d="M88.7,38V32.9c0-.1,0-.1.1-.1H89c.1,0,.1,0,.1.1h0v5.8c0,.1,0,.1-.1.1h-.4l-4.1-5.2v5.1c0,.1,0,.1-.1.1h-.2c-.1,0-.1,0-.2-.1h0V33c0-.1,0-.1.1-.1h.4Z"/><path class="cls-1" d="M93.6,32.9,96,38.7v.1s-.1.1-.1,0h-.2a.1.1,0,0,1-.1-.1L95,37.3H91.9l-.6,1.4c0,.1,0,.1-.1.1h-.3v-.1l2.4-5.8a.1.1,0,0,1,.1-.1h.2Zm-.2.7L92,36.9h2.7Z"/><path class="cls-1" d="M101.2,38.7V32.9h2.1a1.9,1.9,0,0,1,1.3.5,2.09,2.09,0,0,1,.4.6,1.85,1.85,0,0,1,.2.7.84.84,0,0,1-.2.7,1.75,1.75,0,0,1-1.7,1.1h-1.7v2.2h-.4Zm3.5-4a1.27,1.27,0,0,0-.1-.6,2,2,0,0,0-.8-.8,1.27,1.27,0,0,0-.6-.1h-1.7v2.9h1.7a1.27,1.27,0,0,0,.6-.1,1.38,1.38,0,0,0,.4-.3,2.19,2.19,0,0,0,.3-.5c.2-.1.2-.3.2-.5Z"/><path class="cls-1" d="M109.4,32.8a1.48,1.48,0,0,1,.7.1,1.84,1.84,0,0,1,1,1,1.94,1.94,0,0,1-.2,1.8,2.7,2.7,0,0,1-.8.7l1,2.2v.1s-.1.1-.1,0h-.3a.1.1,0,0,1-.1-.1l-1-2.2h-2.4v2.1a.1.1,0,0,1-.1.1h-.2c-.1,0-.1,0-.1-.1V32.8c0-.1,0-.1.1-.1h0Zm-.2,3.3a1.27,1.27,0,0,0,.6-.1,2.19,2.19,0,0,0,.5-.3.85.85,0,0,0,.3-.5,1.27,1.27,0,0,0,.1-.6.75.75,0,0,0-.1-.5c-.1-.2-.2-.3-.3-.5s-.3-.2-.4-.3a1.27,1.27,0,0,0-.6-.1h-2v2.9Z"/><path class="cls-1" d="M113.2,38.7V32.9c0-.1,0-.1.1-.1h3.9c.1,0,.1,0,.1.1v.2c0,.1,0,.1-.1.1h-3.6v2.2h2.9c.1,0,.2,0,.2.1v.2c0,.1-.1.1-.2.1h-2.9v2.5h3.7c.1,0,.1,0,.1.1v.2c0,.1,0,.1-.1.1h-4C113.2,38.8,113.2,38.8,113.2,38.7Z"/><path class="cls-1" d="M123.9,33l-2.4,5.7a.1.1,0,0,1-.1.1h-.1c-.1,0-.1,0-.1-.1L118.8,33v-.1h.3c.1,0,.1,0,.1.1l2.1,5.2,2.1-5.2a.1.1,0,0,1,.1-.1h.4Z"/><path class="cls-1" d="M125.5,38.7V32.9c0-.1,0-.1.1-.1h3.9c.1,0,.1,0,.1.1v.2c0,.1,0,.1-.1.1h-3.6v2.2h2.9c.1,0,.2,0,.2.1v.2c0,.1,0,.1-.2.1h-2.9v2.5h3.7c.1,0,.1,0,.1.1v.2c0,.1,0,.1-.1.1h-4c-.1.2-.1.1-.1,0Z"/><path class="cls-1" d="M136.1,38V32.9c0-.1,0-.1.1-.1h.2c.1,0,.1,0,.1.1h0v5.8c0,.1,0,.1-.1.1H136l-4.1-5.2v5.1c0,.1,0,.1-.1.1h-.2c-.1,0-.1,0-.2-.1h0V33c0-.1,0-.1.1-.1h.4Z"/><path class="cls-1" d="M138.2,32.8h4.3v.3c0,.1-.1.1-.2.1h-1.9v5.4c0,.1,0,.1-.1.1h-.2c-.1,0-.1,0-.1-.1V33.3h-1.8c-.1,0-.2,0-.2-.2v-.2a.35.35,0,0,1,.2-.1Z"/><path class="cls-1" d="M144.3,38.7V33c0-.1,0-.1.1-.1h.2c.1,0,.2,0,.2.1v5.7c0,.1,0,.1-.2.1h-.2c0,.1,0,0-.1-.1Z"/><path class="cls-1" d="M151.6,33l-2.4,5.7a.1.1,0,0,1-.1.1h-.2c-.1,0-.1,0-.1-.1L146.4,33v-.1h.3a.1.1,0,0,1,.1.1l2.1,5.2L151,33a.1.1,0,0,1,.1-.1h.4C151.6,32.9,151.7,32.9,151.6,33Z"/><path class="cls-1" d="M154.7,32.9l2.4,5.8v.1h-.3c-.1,0-.1,0-.1-.1l-.6-1.4H153l-.6,1.4c0,.1,0,.1-.1.1H152v-.1l2.4-5.8a.1.1,0,0,1,.1-.1h.2Zm-.2.7-1.4,3.3h2.7Z"/><path class="cls-1" d="M163.6,36.2l-2-3.2v-.1h.4l.1.1,1.7,2.8,1.7-2.8a.1.1,0,0,1,.1-.1h.4V33l-1.9,3.2v2.5c0,.1,0,.1-.1.1h-.3V36.2Z"/><path class="cls-1" d="M176,33l-2.2,5.7a.22.22,0,0,1-.2.2h-.7a.22.22,0,0,1-.2-.2L170.5,33v-.1h1a.35.35,0,0,1,.2.1l1.6,4.2,1.6-4.2c0-.1.1-.2.2-.1h.9c-.1,0,0,0,0,.1Z"/><path class="cls-1" d="M176,38.7l2.3-5.7c0-.1.1-.1.2-.1h.7a.35.35,0,0,1,.2.1l2.3,5.7v.1s-.1.1-.1,0h-.9a.35.35,0,0,1-.2-.1l-.4-1h-2.5l-.4,1c0,.1-.1.2-.2.1h-.9C176,38.9,176,38.8,176,38.7Zm2.8-4.3-.9,2.3h1.7Z"/><path class="cls-1" d="M186.9,37.4a.19.19,0,0,1,.3,0l.4.7.1.1-.1.1a2,2,0,0,1-.8.4,3.55,3.55,0,0,1-1,.2,5,5,0,0,1-1.2-.2,3.59,3.59,0,0,1-1-.7,3.1,3.1,0,0,1-.9-2.2,5,5,0,0,1,.2-1.2,3.51,3.51,0,0,1,1.7-1.7,2.54,2.54,0,0,1,1.2-.2,3.4,3.4,0,0,1,1,.1,3,3,0,0,1,.8.4l.1.1v.1l-.4.7c0,.1-.1.1-.2,0l-.6-.3a1.27,1.27,0,0,0-.6-.1,2.2,2.2,0,0,0-.8.1,1.84,1.84,0,0,0-1,1,2,2,0,0,0,0,1.5c.1.2.2.5.4.6a2.09,2.09,0,0,0,.6.4,1.06,1.06,0,0,0,.8.1,1.27,1.27,0,0,0,.6-.1C186.6,37.6,186.8,37.6,186.9,37.4Z"/><path class="cls-1" d="M190.6,33v3.5a.75.75,0,0,0,.1.5,1.38,1.38,0,0,0,.3.4c.1.1.3.2.4.3a.9.9,0,0,0,.5.1.75.75,0,0,0,.5-.1,1.38,1.38,0,0,0,.4-.3c.1-.1.2-.3.3-.4a.9.9,0,0,0,.1-.5V32.9s.1-.1.1,0h.9l.1.1v3.5a3.55,3.55,0,0,1-.2,1,2.1,2.1,0,0,1-1.3,1.3,2.12,2.12,0,0,1-1.9,0,2.1,2.1,0,0,1-1.3-1.3,3.55,3.55,0,0,1-.2-1V32.9l.1-.1h.9C190.5,32.9,190.6,32.9,190.6,33Z"/><path class="cls-1" d="M196.4,33v-.1s.1-.1.1,0h1a.1.1,0,0,1,.1.1l2.7,3.9V33a.1.1,0,0,1,.1-.1h1l.1.1v5.7a.22.22,0,0,1-.2.2h-.9l-.1-.1-2.8-4.1v4c0,.1,0,.2-.1.2h-.8c-.1,0-.2,0-.2-.1h0Z"/><path class="cls-1" d="M203.1,38.7l2.3-5.7c0-.1.1-.1.2-.1h.7a.35.35,0,0,1,.2.1l2.3,5.7v.1s-.1.1-.1,0h-.9a.35.35,0,0,1-.2-.1l-.4-1h-2.5l-.4,1c0,.1-.1.2-.2.1h-.9C203.1,38.9,203.1,38.8,203.1,38.7Zm2.9-4.3-.9,2.3h1.7Z"/><path class="cls-1" d="M214,37.4a.19.19,0,0,1,.3,0l.4.7v.1l-.1.1a2,2,0,0,1-.8.4,3.55,3.55,0,0,1-1,.2,5,5,0,0,1-1.2-.2,3.59,3.59,0,0,1-1-.7,3.1,3.1,0,0,1-.9-2.2,5,5,0,0,1,.2-1.2,3.59,3.59,0,0,1,.7-1,3.1,3.1,0,0,1,2.2-.9,3.4,3.4,0,0,1,1,.1,3,3,0,0,1,.8.4l.1.1v.1l-.4.7c0,.1-.1.1-.2,0l-.6-.3a1.27,1.27,0,0,0-.6-.1,2.2,2.2,0,0,0-.8.1,1.84,1.84,0,0,0-1,1,2,2,0,0,0,0,1.5c.1.2.2.5.4.6a2.09,2.09,0,0,0,.6.4,1.06,1.06,0,0,0,.8.1,1.27,1.27,0,0,0,.6-.1C213.7,37.7,213.9,37.6,214,37.4Z"/><path class="cls-1" d="M216.6,38.7V33c0-.1,0-.2.1-.2h.9a.35.35,0,0,1,.2.1h0v5.7a.35.35,0,0,1-.1.2h-.9c-.1.1-.2,0-.2-.1Z"/><path class="cls-1" d="M225.8,35.8a3.1,3.1,0,0,1-.9,2.2,3.59,3.59,0,0,1-1,.7,3.31,3.31,0,0,1-2.4,0,3.51,3.51,0,0,1-1.7-1.7,3.31,3.31,0,0,1,0-2.4,3.51,3.51,0,0,1,1.7-1.7,3.31,3.31,0,0,1,2.4,0,3.59,3.59,0,0,1,1,.7,3.1,3.1,0,0,1,.9,2.2Zm-1.2,0a2,2,0,0,0-.6-1.4,2.09,2.09,0,0,0-.6-.4,2,2,0,0,0-1.5,0,1.84,1.84,0,0,0-1,1,2,2,0,0,0,0,1.5,1.84,1.84,0,0,0,1,1,2,2,0,0,0,1.5,0,2.09,2.09,0,0,0,.6-.4,1.38,1.38,0,0,0,.6-1.3Zm-1-4.8-.4.9a.22.22,0,0,1-.2.2h-.7v-.3l.3-.8c.1-.1.1-.2.2-.2h.6c.1,0,.1,0,.1.1a.1.1,0,0,1,.1.1Z"/><path class="cls-1" d="M227.7,33v-.1s.1-.1.1,0h1.1a.1.1,0,0,1,.1.1l2.7,3.9V33a.1.1,0,0,1,.1-.1h1l.1.1v5.7a.22.22,0,0,1-.2.2h-.9l-.1-.1-2.8-4.1v4a.22.22,0,0,1-.2.2h-.8a.22.22,0,0,1-.2-.2Z"/><path class="cls-1" d="M59.7,27.2V10a.47.47,0,0,1,.5-.5h8a5.93,5.93,0,0,1,2.3.5,4.89,4.89,0,0,1,1.8,1.4,7.61,7.61,0,0,1,1.2,1.9,6.64,6.64,0,0,1,0,4.4,7.61,7.61,0,0,1-1.2,1.9A6.23,6.23,0,0,1,70.5,21a5.93,5.93,0,0,1-2.3.5H64.4v5.9a.68.68,0,0,1-.4.6H60.2a.46.46,0,0,1-.5-.4Zm7.5-13.9H64.5v4.1h2.7a1.82,1.82,0,0,0,1.4-.6,2.39,2.39,0,0,0,.5-1.4c0-.3-.1-.5-.1-.7a2.51,2.51,0,0,0-.4-.7,2.65,2.65,0,0,0-.6-.5A1.88,1.88,0,0,0,67.2,13.3Z"/><path class="cls-1" d="M74.9,27.2V10a.6.6,0,0,1,.1-.4.52.52,0,0,1,.4-.2h8.2a6.87,6.87,0,0,1,2.4.5,6.22,6.22,0,0,1,1.9,1.4,8.17,8.17,0,0,1,1.2,2,5.87,5.87,0,0,1,.4,2.3,5.38,5.38,0,0,1-.8,2.8,5.81,5.81,0,0,1-2.2,2.2L90,27.2c.1.1.1.2.1.4s-.2.2-.3.2H85.3a.6.6,0,0,1-.4-.1c-.1-.1-.2-.3-.3-.4l-2.9-5.6h-2v5.6a.46.46,0,0,1-.4.5H75.5Q74.9,27.65,74.9,27.2Zm7.5-14H79.7v4.5h2.7a2.92,2.92,0,0,0,.9-.2A1.79,1.79,0,0,0,84,17a3,3,0,0,0,.5-.7,2.35,2.35,0,0,0,.2-.8,2.35,2.35,0,0,0-.2-.8A1.79,1.79,0,0,0,84,14a1.79,1.79,0,0,0-.7-.5,1.1,1.1,0,0,0-.9-.3Z"/><path class="cls-1" d="M90.7,18.6a9.37,9.37,0,0,1,.7-3.7,12.09,12.09,0,0,1,2-3,9.85,9.85,0,0,1,3-2,9.26,9.26,0,0,1,7.3,0,9.85,9.85,0,0,1,3,2,9.45,9.45,0,0,1,.1,13.3l-.1.1a12.09,12.09,0,0,1-3,2,9.26,9.26,0,0,1-7.3,0,9.85,9.85,0,0,1-3-2,9.85,9.85,0,0,1-2-3A12.1,12.1,0,0,1,90.7,18.6Zm4.8,0a5.82,5.82,0,0,0,.3,1.9A4.6,4.6,0,0,0,98.3,23a5,5,0,0,0,3.8,0,4,4,0,0,0,1.5-1,4.92,4.92,0,0,0,1-1.5,4.22,4.22,0,0,0,.3-1.9,5.82,5.82,0,0,0-.3-1.9,4,4,0,0,0-1-1.5,3.07,3.07,0,0,0-1.5-1,5,5,0,0,0-3.8,0,4,4,0,0,0-1.5,1,4.92,4.92,0,0,0-1,1.5,5.82,5.82,0,0,0-.3,1.9Z"/><path class="cls-1" d="M110.7,9.9c.2.5.5,1.2.8,2s.7,1.6,1,2.6a23.58,23.58,0,0,0,1.2,2.8c.4.9.8,1.9,1.2,2.8s.7,1.7,1,2.5a17.78,17.78,0,0,0,.8,1.8l.8-1.8c.3-.8.6-1.6,1-2.5s.7-1.8,1.1-2.8.8-1.9,1.2-2.8.7-1.8,1-2.5.6-1.5.8-2a.75.75,0,0,1,.7-.5h1.1c.4,0,.6.1.6.4v.3l-7.1,17.1c-.1.1-.1.2-.2.3a.76.76,0,0,1-.5.2h-.7a.52.52,0,0,1-.4-.2c-.1-.1-.2-.2-.2-.3l-7-16.9a.35.35,0,0,0-.1-.2c0-.1-.1-.2-.1-.4s.2-.4.6-.4h1.1A.69.69,0,0,1,110.7,9.9Z"/><path class="cls-1" d="M123.6,23.7l-1.4,3.5a.75.75,0,0,1-.7.5h-1.1c-.3,0-.5-.1-.5-.4V27l3-7.2,2-4.8,1.2-2.9q.45-1,.6-1.5l.3-.7c0-.1.1-.2.2-.3a.59.59,0,0,1,.5-.2h.7c.2,0,.3,0,.4.2s.1.2.2.3l7.1,17.2v.3c0,.3-.2.4-.5.4h-1.1a.75.75,0,0,1-.7-.5l-1.4-3.5h-8.8Zm4.6-11.1-3.6,9h7.2Z"/><path class="cls-1" d="M150.3,11a.54.54,0,0,1,.3.4c0,.1,0,.2-.1.2s-.1.1-.1.2l-.5.8c-.2.2-.3.3-.4.3l-.2-.1c-.1,0-.2-.1-.3-.1a6.81,6.81,0,0,0-2.1-1,5.7,5.7,0,0,0-2.2-.4,7.65,7.65,0,0,0-3,.6,6.34,6.34,0,0,0-2.3,1.6,6.51,6.51,0,0,0-1.5,2.3,6.71,6.71,0,0,0-.6,2.8,7.17,7.17,0,0,0,.6,2.9,6.34,6.34,0,0,0,1.6,2.3,8.27,8.27,0,0,0,2.3,1.5,5.39,5.39,0,0,0,2.8.5,11,11,0,0,0,1.8-.2,7.22,7.22,0,0,0,2-.9c.2-.1.3-.2.5-.3a.76.76,0,0,1,.4-.2c.2,0,.3.1.4.3l.6.9c0,.1.1.2.1.4s-.1.3-.3.4a13,13,0,0,1-2.6,1.4,10.47,10.47,0,0,1-3,.5,9.37,9.37,0,0,1-3.7-.7,10.14,10.14,0,0,1-5-5,9.26,9.26,0,0,1,0-7.3,10.14,10.14,0,0,1,5-5,9.37,9.37,0,0,1,3.7-.7,10.47,10.47,0,0,1,3,.5A5.35,5.35,0,0,1,150.3,11Z"/><path class="cls-1" d="M166.8,11a.54.54,0,0,1,.3.4c0,.1,0,.2-.1.2s-.1.1-.1.2l-.5.8c-.2.2-.3.3-.4.3l-.2-.1c-.1,0-.2-.1-.3-.1a7.5,7.5,0,0,0-2-1,6.2,6.2,0,0,0-2.3-.4,7.65,7.65,0,0,0-3,.6,6.34,6.34,0,0,0-2.3,1.6,7.54,7.54,0,0,0-2.1,5.1,7.17,7.17,0,0,0,.6,2.9,6.34,6.34,0,0,0,1.6,2.3,8.27,8.27,0,0,0,2.3,1.5,5.39,5.39,0,0,0,2.8.5,12.25,12.25,0,0,0,1.9-.2,7.22,7.22,0,0,0,2-.9c.2-.1.3-.2.5-.3a.76.76,0,0,1,.4-.2c.2,0,.3.1.4.3l.6.9c.1.1.1.2.1.4s-.1.3-.3.4a13,13,0,0,1-2.6,1.4,10.47,10.47,0,0,1-3,.5,9.37,9.37,0,0,1-3.7-.7,12.09,12.09,0,0,1-3-2,9.85,9.85,0,0,1-2-3,9.26,9.26,0,0,1,0-7.3,10.14,10.14,0,0,1,5-5,9.37,9.37,0,0,1,3.7-.7,10.47,10.47,0,0,1,3,.5A5.36,5.36,0,0,1,166.8,11Z"/><path class="cls-1" d="M172.2,9.9V27.1a.46.46,0,0,1-.4.5h-1.1a.68.68,0,0,1-.6-.4V9.9c0-.3.1-.5.4-.5h1.1c.3,0,.5.1.5.4A.1.1,0,0,1,172.2,9.9Z"/><path class="cls-1" d="M191.2,27.7H190a.76.76,0,0,1-.5-.2L178.2,12.7V27.2a.68.68,0,0,1-.4.6h-1.1c-.3,0-.5-.1-.5-.4V10.1c0-.2,0-.3.2-.4a.52.52,0,0,1,.4-.2h1.4a.76.76,0,0,1,.5.2l11.1,14.4V9.9a.54.54,0,0,1,.5-.5h1c.1,0,.3.1.4.1a.52.52,0,0,1,.2.4V27.1A.66.66,0,0,1,191.2,27.7Z"/><path class="cls-1" d="M196.3,9.4h11.9c.4,0,.5.2.5.6v1a.71.71,0,0,1-.6.6H197.8v5.5H206a.6.6,0,0,1,.4.1.76.76,0,0,1,.2.4v1a.6.6,0,0,1-.1.4.76.76,0,0,1-.4.2h-8.2v6.4h10.3a.53.53,0,0,1,.6.6v1c0,.3-.1.5-.4.5H196.3c-.3,0-.5-.1-.5-.4V10C195.7,9.6,195.9,9.4,196.3,9.4Z"/><path class="cls-1" d="M222,13.2c-.2-.2-.5-.4-.7-.6s-.7-.5-1-.7a6.12,6.12,0,0,0-1.2-.5,7.72,7.72,0,0,0-1.5-.2,5.66,5.66,0,0,0-1.8.3,2.4,2.4,0,0,0-1.2.7,2.61,2.61,0,0,0-1,2,1.5,1.5,0,0,0,.4,1.1,3.92,3.92,0,0,0,1,.8c.5.2.9.4,1.4.6s1,.3,1.6.5,1.5.4,2.3.6a9.49,9.49,0,0,1,2.1.9,7,7,0,0,1,1.6,1.4,3.94,3.94,0,0,1,.6,2.1,6.44,6.44,0,0,1-.5,2.4,5.86,5.86,0,0,1-3.7,2.9,8.42,8.42,0,0,1-2.7.4,9.46,9.46,0,0,1-3.7-.8,6.63,6.63,0,0,1-2.9-2.3.76.76,0,0,1-.2-.4.52.52,0,0,1,.2-.4l.8-.7c.1-.1.2-.1.4-.1s.2.1.3.2l.2.2a10.59,10.59,0,0,0,1.2,1,8.08,8.08,0,0,0,2.7,1.1,3.75,3.75,0,0,0,1.1.1,8.75,8.75,0,0,0,1.6-.2,6.71,6.71,0,0,0,1.5-.6,2.91,2.91,0,0,0,1.1-1.1,2.28,2.28,0,0,0,.4-1.6A2,2,0,0,0,222,21a3.13,3.13,0,0,0-1.1-.9,4.42,4.42,0,0,0-1.6-.6l-1.9-.5a13.2,13.2,0,0,1-4.6-1.9,3.56,3.56,0,0,1-1.5-3,4.8,4.8,0,0,1,1.7-3.7,5.38,5.38,0,0,1,2-1,7.46,7.46,0,0,1,2.6-.4,7.65,7.65,0,0,1,3,.6,9,9,0,0,1,2.6,1.7l.3.4c.2.1.2.4.1.6l-.1.1-.7.7c-.1.1-.2.2-.3.2A.4.4,0,0,1,222,13.2Z"/><path class="cls-1" d="M34.2,34h5.5a5.48,5.48,0,0,0,5.5-5.5h0A5.48,5.48,0,0,0,39.7,23H28.8a5.48,5.48,0,0,0-5.5,5.5V39.4a5.48,5.48,0,0,0,5.5,5.5h0a5.48,5.48,0,0,0,5.5-5.5Z"/><path class="cls-1" d="M11,34H5.5A5.48,5.48,0,0,1,0,28.5H0A5.48,5.48,0,0,1,5.5,23H16.4a5.48,5.48,0,0,1,5.5,5.5V39.4a5.48,5.48,0,0,1-5.5,5.5h0a5.48,5.48,0,0,1-5.5-5.5Z"/><path class="cls-1" d="M34.2,10.9h5.5a5.48,5.48,0,0,1,5.5,5.5h0a5.48,5.48,0,0,1-5.5,5.5H28.8a5.46,5.46,0,0,1-5.5-5.4V5.5A5.48,5.48,0,0,1,28.8,0h0a5.48,5.48,0,0,1,5.5,5.5Z"/><path class="cls-1" d="M11,10.9H5.5A5.48,5.48,0,0,0,0,16.4H0a5.48,5.48,0,0,0,5.5,5.5H16.4a5.48,5.48,0,0,0,5.5-5.5V5.5A5.48,5.48,0,0,0,16.4,0h0a5.48,5.48,0,0,0-5.5,5.5Z"/></svg>