<svg id="Layer_1" data-name="Layer 1" xmlns="http://www.w3.org/2000/svg" viewBox="0 0 135.74 84.53"><defs><style>.cls-1{fill:#c1c7d0;}</style></defs><title>Artboard 9</title><path class="cls-1" d="M135.62,29.68c-.7-9.5-7.1-9.3-13.8-9.2-10.7.1-20.6-1.9-30.2-7.9C72.72.88,53,4.48,33.92,13c-7.8,3.5-15,7.79-24.1,6.6-1.7-.2-4,1.8-5.6,3.3S1.62,26.48,0,29c-.3-9.8,3.4-13.6,12.1-14.5A31.05,31.05,0,0,0,24,10.88c25.4-14,50.4-15.5,75.1,1.5,8.2,5.69,18.1,4.69,27.4,5.6C134,18.77,136.32,21.08,135.62,29.68Z"/><path class="cls-1" d="M58.22,17.68h33.2c-7.1-5.6-21-7.9-33.2-7Z"/><path class="cls-1" d="M56.52,10.78c-8.7.8-16.4,3.1-20,6.9h20Z"/><path class="cls-1" d="M9.82,25.77h12.8a37.4,37.4,0,0,1,4.6.3c5,1,8.1,5.4,7.6,10.7a16,16,0,0,1-.7,3.8A8,8,0,0,1,30.62,45c-.3.29-.7.5-1.1.9.3.2.4.4.6.5a9.41,9.41,0,0,1,3.8,8,13.39,13.39,0,0,1-2.1,8,9.63,9.63,0,0,1-8,4.8c-6.5.1-13,.1-19.5.2a8.75,8.75,0,0,1-1.6-.2C5,53.38,7.42,39.68,9.82,25.77Zm6.6,34.8h0l4.9-.2a5.63,5.63,0,0,0,5.1-6.1,4.2,4.2,0,0,0-4-4.2h-.1c-2.5-.09-5,0-7.5,0a2,2,0,0,0-2,1.8c-.3,1.3-.6,2.6-.9,4a24.73,24.73,0,0,0-.4,3.6c-.1.8.3,1.2,1.1,1.1C13.92,60.48,15.22,60.57,16.42,60.57Zm-2.1-18.3a30.53,30.53,0,0,0,9.1-.2,5.13,5.13,0,0,0,4.3-5.4,3.33,3.33,0,0,0-3.1-3.7h-.4c-2-.1-4.1-.1-6.1-.1a2.23,2.23,0,0,0-2.5,1.9h0C15.12,37.27,14.72,39.77,14.32,42.27Z"/><path class="cls-1" d="M125.62,25.88c-.2,1.29-.3,2.6-.5,4a4.18,4.18,0,0,0-.2,1.1c-.2,1.9-.2,1.9-2.1,1.9H109c-1.9,0-2.7.7-3,2.6s-.5,3.59-.8,5.29c-.2,1.1.3,1.3,1.3,1.3h16c-.3,2.2-.6,4.3-1,6.41-.1.79-.8.79-1.4.79h-13.3c-2.2,0-2.8.3-3.3,2.6-.5,2.5-.8,5.1-1.2,7.7a1.7,1.7,0,0,0,.1.7h19c-.2,2.1-.4,4.11-.6,6a1.46,1.46,0,0,1-1.6,1.3H95.92a21.51,21.51,0,0,1-2.3-.2c.2-1.2.3-2.2.5-3.3,2.1-12.4,4.3-24.8,6.4-37.3.1-.6.2-1,.9-1h23.9A.74.74,0,0,1,125.62,25.88Z"/><path class="cls-1" d="M46.22,42h17.5c-.3,2.29-.7,4.4-1,6.4-.1.8-.8.9-1.5.9H47.62c-2.1,0-2.7.5-3,2.7s-.7,4.6-1.1,6.9a5.72,5.72,0,0,0-.1,1.4h19q-.3,3-.6,5.7a1.62,1.62,0,0,1-1.5,1.6H36.82c-.8,0-1.5-.2-2.4-.2,2.4-13.9,4.7-27.7,7.1-41.5h25.4c-.3,2.1-.6,4.1-.9,6.1-.1.9-.8.9-1.4.9H50.12c-1.8,0-2.3.3-2.7,2C46.92,37.18,46.62,39.48,46.22,42Z"/><path class="cls-1" d="M87.32,38.07a4.12,4.12,0,0,0-.2-.9c-.9-4.2-3.5-5.9-7.7-4.9a4.79,4.79,0,0,0-3.5,3.5,3.57,3.57,0,0,0,1.7,4c2,1.3,4.2,2.5,6.2,3.7,1.2.7,2.5,1.5,3.7,2.3,3,2.1,4.1,5.2,4.4,8.7.4,4.8-1.1,8.8-5.1,11.6a10.11,10.11,0,0,1-6.3,2.1,32.42,32.42,0,0,1-6.2-.5c-5.8-1.3-9-5.1-9.5-11-.1-.9-.1-1.8-.2-2.9l6.7-.5c.2,1,.3,1.9.5,2.8.4,2.7,1.7,4.2,4.4,4.5a17.52,17.52,0,0,0,5.1-.3,4.15,4.15,0,0,0,3.2-3.8,4.1,4.1,0,0,0-2-4.3c-2-1.2-4.1-2.4-6.2-3.6a25.73,25.73,0,0,1-3.1-2c-4.2-3-5.1-7.3-4.3-12.09s3.5-7.9,8.2-9c5.4-1.3,11.3-.1,14.5,4.79A13.35,13.35,0,0,1,93.82,37a.94.94,0,0,1-.7.79C91.42,38,89.42,38,87.32,38.07Z"/><path class="cls-1" d="M96.92,71.78c2.6,0,5-.1,7.4,0,1.6.1,2.5,1.3,2.8,3.2a2.61,2.61,0,0,1-1.6,3.19c-.8.5-.9.9-.3,1.6,1,1.3,1.8,2.6,2.7,4-1.6.5-2.1.4-2.9-.8a36.17,36.17,0,0,0-2.2-3.2,3.52,3.52,0,0,0-1.9-1c-1.3-.2-1.9.3-2,1.7v2.4c0,.8-.2,1.2-1.1,1.1s-1-.3-1-1.1C97,79.28,96.92,75.57,96.92,71.78Zm5,1.5h-.7a2.08,2.08,0,0,0-2.3,2,2.66,2.66,0,0,0,.3,1.2.69.69,0,0,0,.6.4,29.54,29.54,0,0,0,4.2-.2,1.72,1.72,0,0,0,1.3-1.8,1.61,1.61,0,0,0-1.4-1.6Z"/><path class="cls-1" d="M35.52,80.57V73c0-1.41,0-1.41,1.7-1.2.1,1.5.3,3,.3,4.6.1,2,.1,4.1,0,6.1a2,2,0,0,1-.7,1.59,1.42,1.42,0,0,1-1.9-.8c-1.3-2.1-2.8-4.1-4.2-6.2-.3-.5-.7-.9-1.2-1.59l-.3,1.8c0,1.9.1,3.8.1,5.6,0,.69,0,1.19-.9,1.19s-1.1-.3-1.1-1.19c.1-3.31,0-6.7.1-10,0-.4.2-1.1.4-1.2a1.35,1.35,0,0,1,1.8.6c1.5,2.2,3,4.4,4.5,6.7l1.2,1.69Z"/><path class="cls-1" d="M13.42,83.88c-1.3.3-2.2.4-2.9-.81-.6-1-1.2-1.9-1.8-2.8a2.78,2.78,0,0,0-1.2-1.2A3.87,3.87,0,0,0,5.12,79c-.4.09-.6,1.09-.7,1.69-.2.9,0,1.81-.2,2.6,0,.3-.6.6-.9.7a.75.75,0,0,1-1-.7V71.47c2.7.1,5.3.1,7.8.4a3,3,0,0,1,2.3,3,3,3,0,0,1-1.4,3.3c-.9.5-.9.9-.3,1.7C11.72,81.17,12.52,82.48,13.42,83.88Zm-6.7-6.81h0a14.15,14.15,0,0,0,2-.09,1.83,1.83,0,0,0,1.7-2h0a1.71,1.71,0,0,0-1.9-1.6,15,15,0,0,0-3,0,1.44,1.44,0,0,0-1.1.9c-.8,2.1-.2,2.8,1.9,2.8Z"/><path class="cls-1" d="M15.52,71.67h8.3c.2,0,.6.5.6.81s-.4.8-.6.8c-1.4.1-2.8.1-4.2.1-1.8,0-2.4.69-2.2,2.4.1.7.4,1,1.1,1h4.6c.7,0,1,.2,1,.9s-.4.8-1,.8c-1.3,0-2.6,0-3.9.1-.5,0-1.4.4-1.5.8a13.2,13.2,0,0,0-.2,2.8c0,.1.6.2.9.2h5.3c.7,0,1,.2,1,.9s-.3.9-.9.8c-2.5,0-5,0-7.6-.1-.5,0-1-.1-1-.8,0-3.6,0-7.3.1-10.9A1.46,1.46,0,0,1,15.52,71.67Z"/><path class="cls-1" d="M83.62,83.78l4.5-11.4a1.44,1.44,0,0,1,1.1-.7,1,1,0,0,1,1.3.5c0,.1,0,.1.1.2,1.2,2.8,2.3,5.5,3.5,8.19.4,1.1.9,2.2,1.3,3.31-1.6.4-2,.3-2.4-.81-1-2.5-1-2.5-3.7-2.5-1.8,0-2.2.31-2.8,2S85.62,84.38,83.62,83.78Zm6.1-9.11h-.3c-.5,1.31-1,2.5-1.6,4h3.4Z"/><path class="cls-1" d="M66,84c-1.3.19-2.1.19-2.6-1.1-.8-2.4-.9-2.4-3.4-2.31-1.9,0-2.3.2-2.9,2.1-.6,1.5-1,1.81-2.8,1.2l1.9-4.9c.8-2.1,1.6-4.1,2.4-6.2.2-.6.3-1.1,1.2-1.1a1.4,1.4,0,0,1,1.5,1.1l3.5,8.2A30.24,30.24,0,0,0,66,84Zm-5.7-9.31H60l-1.5,4h3.4Z"/><path class="cls-1" d="M80.82,79.57l1.5.41c.7,2.3-1.4,4.09-3.4,4.4a6,6,0,0,1-6.6-3c-1.3-2.6-1-6.31.8-8.2,2.6-2.7,7.4-2.2,8.9,1,.2.3,0,.8,0,1.2-.5-.1-1.4-.1-1.6-.4a3,3,0,0,0-3.2-1.81,3.65,3.65,0,0,0-3.2,2.6,10.82,10.82,0,0,0-.2,4.4,3.12,3.12,0,0,0,3.2,2.5,3.19,3.19,0,0,0,3.4-2.3A2,2,0,0,0,80.82,79.57Z"/><path class="cls-1" d="M39.62,71.67h9.7l.2,1.6c-.7,0-1.4.1-2.1.1-1.5.1-1.8.4-1.8,1.9v7.5c0,.6.1,1.3-.8,1.3-.7,0-1.2-.19-1.2-1.09.1-2.7,0-5.41,0-8.2,0-1-.2-1.6-1.4-1.4a7.57,7.57,0,0,1-1.5-.1C39.52,73.38,39.22,72.78,39.62,71.67Z"/><path class="cls-1" d="M120.52,73.88a7.39,7.39,0,0,1,0,2.1c0,.19-.8.5-1,.4a1.12,1.12,0,0,1,.1-1.9A10.58,10.58,0,0,1,120.52,73.88Z"/><path class="cls-1" d="M117.12,73.78l1,2.9c-1.1-1.2-1.3-1.2-2.2-.3l.8-2.6Z"/><path class="cls-1" d="M114.52,74.38l-1.2-.2c.5.7.9,1.3,1.3,1.9,0,0-.5.6-.7.6a2.38,2.38,0,0,1-1.1-.6l.2-.3c.1.1.2.1.3.2.3.09.5.19.8.3.1,0,.3-.3.2-.3-.2-.2-.4-.41-.6-.6a2.18,2.18,0,0,1-.7-.9c0-.2.4-.6.6-.7a3.58,3.58,0,0,1,1.1.4Z"/><path class="cls-1" d="M122.42,76.38c-.3,0-.9.19-1,.1a2.06,2.06,0,0,1-.4-1.31,1.22,1.22,0,0,1,.7-.69c.2,0,.6.5,1.1.9l-1.4.3V76l1,.09Z"/><path class="cls-1" d="M116.72,80.67c-.5.2-1,.7-1.2.6a1.78,1.78,0,0,1-.9-1.2,2.42,2.42,0,0,1,.9-1.5c.1-.09.7.31,1.2.41-.7.09-1.4,0-1.6.3a1.6,1.6,0,0,0,.1,1.5C115.32,80.78,116,80.67,116.72,80.67Z"/><path class="cls-1" d="M118.72,81.28a25.82,25.82,0,0,1-.8-2.6l.3-.1.7,2,.7-2,.3.1-.8,2.6Z"/></svg>