<svg id="Layer_1" data-name="Layer 1" xmlns="http://www.w3.org/2000/svg" viewBox="0 0 147.04 85.2"><defs><style>.cls-1{fill:#c1c7d0;}.cls-2{fill:#ebecf0;}</style></defs><title>Artboard 13</title><path class="cls-1" d="M36.37,31.3a17.85,17.85,0,0,1,.1-4C38.37,11.8,62.07.7,86,1.3a75.43,75.43,0,0,1,22.6,3.8,49.79,49.79,0,0,1,18,11.6,22.05,22.05,0,0,1,3,4.5h.1a28.51,28.51,0,0,0-3.1-4.6,49.79,49.79,0,0,0-18-11.6,75.56,75.56,0,0,0-27.8-5c-29.7,0-58.6,17.5-57.3,45.9l.6-1.5A35,35,0,0,1,27,39a21.05,21.05,0,0,1,3.9-4.5,16.12,16.12,0,0,1,4.8-3,1.85,1.85,0,0,0,.7-.2,16.79,16.79,0,0,1,5-.7h0A15.91,15.91,0,0,0,36.37,31.3Z"/><path class="cls-1" d="M44.57,31.4a8.82,8.82,0,0,0-3.2-.8h-.1a7.26,7.26,0,0,1,3.21.8,6.17,6.17,0,0,1,2.4,1.8c.2.2.3.4.5.6h.1a2.65,2.65,0,0,0-.5-.6A7.36,7.36,0,0,0,44.57,31.4Z"/><path class="cls-2" d="M114.37,15.8a6.62,6.62,0,0,1,5.5-.4l6.6,3.2a9.86,9.86,0,0,0-2.4.3,53.8,53.8,0,0,0,5.5,2.4,22.05,22.05,0,0,0-3-4.5,49.79,49.79,0,0,0-18-11.6A75.43,75.43,0,0,0,86,1.4c-23.9-.6-47.7,10.4-49.5,26a17.85,17.85,0,0,0-.1,4,14.09,14.09,0,0,1,5-.7h.1a7.22,7.22,0,0,1,3.2.8,6.09,6.09,0,0,1,2.4,1.8c.2.2.3.4.5.6,7.8-1.5,17.5-6.4,24.91-11.9a7.65,7.65,0,0,1,3.9-5.9,9.26,9.26,0,0,1,7.8-.5l9.2,4.5.3-.3a17.11,17.11,0,0,1,1.8-2,7.35,7.35,0,0,1,1.9-1.6,7.56,7.56,0,0,1,6.4-.4l7.7,3.7a4.13,4.13,0,0,1,.7-1.1A4.67,4.67,0,0,1,114.37,15.8Z"/><path class="cls-1" d="M93.47,20.1l-.2-.1-.1.1Z"/><path class="cls-1" d="M124.67,20.8l5.7,3.4a6.89,6.89,0,0,1-.3-.8C129.47,21.1,127,20.4,124.67,20.8Z"/><path class="cls-1" d="M109.47,22l6.6,3.9-.3-.9C115,22.4,112.07,21.6,109.47,22Z"/><path class="cls-1" d="M91.17,23.2l8,4.7c-.1-.3-.2-.7-.3-1C97.87,23.7,94.27,22.7,91.17,23.2Z"/><path class="cls-1" d="M93.17,20.1h0l.2-.1-9.2-4.5a9.28,9.28,0,0,0-7.8.5,7.67,7.67,0,0,0-3.9,5.9,1.27,1.27,0,0,1-.1.6,6.73,6.73,0,0,0,.7-1.1h0a2.91,2.91,0,0,0,1-.4c-.4.7-1.5,1.1-1.3,2.2.3,0,.5-.4.71-.7.2,0,.29-.3.59-.4s1.1-.4.6-.1c-.4.5-1.2,1-.9,1.8.6-.4.9-1.3,1.8-1.4-.2.6-.9,1-1,1.7.8.2.8-1.3,1.8-1.1a14,14,0,0,0-1,1.6.52.52,0,0,0,.4.2c.4-.4.5-1,1.1-1.3.4.5-.6.9-.5,1.6.7,0,.8-1.2,1.6-1.2-.2.7-1.4,1.4-.8,2.2.5-.6.5-1.4,1.5-1.7-.1.6-1,1.2-1.1,2,.3.2.5-.3.4-.5.7-.3.6-.7,1.5-.9-.4.6-1.4,1.3-1,1.9a4.74,4.74,0,0,1,1.9-1.8,7.76,7.76,0,0,0-1.2,2.2c0,.1.2.1.3.1a2.88,2.88,0,0,1,1.5-2c-.3.9-1.2,1.4-1.1,2.5a1.2,1.2,0,0,0,.7-1,6.81,6.81,0,0,0,1.2-1.2c0,.2.1.3.21.2-.91.7-.6,1.7-1.1,2.5a4.33,4.33,0,0,0,.1.5,5.86,5.86,0,0,1,.09,1.3C81.57,28.6,84.77,19.3,93.17,20.1Z"/><path class="cls-1" d="M111,19.4h.4l-7.7-3.7a7.56,7.56,0,0,0-6.4.4,5.81,5.81,0,0,0-1.9,1.6l-.6.9h0a6.07,6.07,0,0,0,.7-1v-.1h0c.4,0,.6.1.9-.1-.4.7-1.3,1-1.2,2,.3,0,.5-.4.7-.6.2.1.3-.3.6-.4s1-.4.5-.1c-.3.5-1.1.9-.8,1.6.6-.4.8-1.2,1.6-1.3-.2.6-.9.9-.9,1.6.7.2.8-1.2,1.7-1-.2.5-.7.9-.9,1.5a.52.52,0,0,0,.4.2c.4-.4.4-.9,1-1.2.4.5-.6.9-.5,1.5.6,0,.8-1.1,1.5-1.1-.1.7-1.3,1.2-.7,2,.4-.6.5-1.3,1.4-1.5-.1.5-.9,1.1-1,1.9.3.1.5-.2.4-.5.6-.2.5-.6,1.3-.8-.3.5-1.3,1.2-1,1.8.5-.6.8-1.3,1.7-1.6a5.64,5.64,0,0,0-1.1,2c0,.1.1.1.3.1.2-.8.7-1.7,1.4-1.8-.2.8-1.09,1.3-1,2.3a.89.89,0,0,0,.6-1,5.73,5.73,0,0,0,1.1-1.1.22.22,0,0,0,.2.2c-.5.7-.9,1.6-1.4,2.3,0,.1-.1.1-.1,0a1.27,1.27,0,0,1-.1.6h.1C103.77,22.3,106.47,19.1,111,19.4Z"/><path class="cls-1" d="M119.87,15.4a6.27,6.27,0,0,0-5.5.4,6.14,6.14,0,0,0-2.3,2.5c-.09.2-.2.5-.3.7a1.82,1.82,0,0,1,.5.4v-.1a6.15,6.15,0,0,0,.5-.9,5.62,5.62,0,0,0,.71-.3c-.21.6-.91.9-.8,1.6h.09a1,1,0,0,0,.41-.5c.2,0,.2-.2.4-.4s.8-.4.4-.1c-.2.4-.7.7-.6,1.2l.2.1c.3-.4.5-.9,1.1-1.1-.1.5-.6.8-.6,1.2l.2.1c.4-.1.5-1,1.1-1-.1.4-.5.8-.6,1.2l.3.2c.3-.3.3-.8.7-1,.4.3-.4.7-.3,1.2.5-.1.5-.9,1.1-1-.1.5-.7,1-.5,1.5l.2.1c.3-.5.3-1.1,1-1.3,0,.4-.7,1-.7,1.6.3.1.4-.2.3-.4.5-.2.4-.6,1-.8-.2.5-1,1-.6,1.5.3-.5.5-1.1,1.3-1.4a3.63,3.63,0,0,0-.7,1.7c0,.1.1.1.2,0a2.14,2.14,0,0,1,1-1.6c-.1.7-.8,1.1-.7,1.9a.68.68,0,0,0,.4-.8c.3-.3.5-.6.8-.9a.22.22,0,0,0,.2.2c-.3.5-.5,1.1-.8,1.6,1.3-2.1,3.6-4.5,7.2-4.2h.3Z"/><path class="cls-1" d="M127.47,18.8a5.85,5.85,0,0,0-1.3-.2c-3.6-.3-5.9,2.1-7.2,4.2l-.2.4h0a13.35,13.35,0,0,0-.6,1.2,8.12,8.12,0,0,0-1.9-2.9l-.2-.1a3.59,3.59,0,0,0-1-.7l-.3-.2c-.2-.1-.3-.2-.5-.2l-.2-.1-.5-.2-.2-.1-.6-.2h-.2a7.72,7.72,0,0,0-1.5-.2c-4.5-.4-7.3,2.9-8.7,5.4a8.26,8.26,0,0,0-.7,1.3A9.36,9.36,0,0,0,95,20.4a11.27,11.27,0,0,0-1.8-.3c-8.3-.8-11.5,8.6-12,10,0,.1,0,.1-.1.2-.8,3.4.1,4.4,1,3.7s2.1-5.7,4.8-8.8a6.79,6.79,0,0,1,4.3-2.1c3.2-.5,6.7.5,7.7,3.7.1.4.2.7.3,1,1.3,3.8,2.7,4,3.1,3,0-.1.1-.2.1-.4.7-1.2,1.7-4.6,3.7-6.9a5.81,5.81,0,0,1,3.5-1.7c2.6-.4,5.5.4,6.3,3l.3.9c1.1,3.1,2.2,3.3,2.5,2.5h0c.6-.8,1.5-4,3.3-6a4.69,4.69,0,0,1,2.9-1.4c2.2-.4,4.8.3,5.5,2.6a6.89,6.89,0,0,0,.3.8c.9,2.6,1.9,2.7,2.1,2A7,7,0,0,0,127.47,18.8Z"/><path class="cls-1" d="M53.87,45.7c-.1-.1-.2-.3-.4-.4-.1.2-.1.3-.2.4s-.2.3-.3.4a1.38,1.38,0,0,1-.4.3c-.1.1-.3.1-.4.2a1,1,0,0,1-.9-.1,4.35,4.35,0,0,1-.7-.6,4.05,4.05,0,0,1-.5-.9c-.1-.3-.2-.7-.3-1s-.1-.7-.2-1V42c0-.3.1-.7.1-1l.3-.9c.1-.1.1-.3.2-.4a.52.52,0,0,0,.2-.4l.3-.3c.1-.1.2-.1.3-.2h.6c.1,0,.1,0,.2-.1s.1,0,.2-.1.3,0,.4.1.3.2.4.3a3.59,3.59,0,0,1,.7,1,5.64,5.64,0,0,1,.4,1.2,5,5,0,0,1,.2,1.2v1.2c0,.2-.1.4-.1.6l-.2.6a1.76,1.76,0,0,1,.4.5,1.42,1.42,0,0,1,.2.6v.6a.1.1,0,0,1-.1.1h-.09l-.1-.1v-.4C54.17,46.1,54.07,45.9,53.87,45.7Zm-1.1-.8-.4-.2-.5-.3a2.19,2.19,0,0,1-.5-.3c-.2-.1-.3-.3-.5-.4s-.3-.4-.3-.6a5.7,5.7,0,0,0,.1,1.3c.1.2.1.4.2.6l.3.6a1,1,0,0,0,.5.4,1.09,1.09,0,0,0,.5.1c.1,0,.2-.1.3-.1s.2-.1.3-.2l.2-.2c.1-.1.1-.2.2-.3-.1-.3-.3-.4-.4-.4ZM51.17,43a4.35,4.35,0,0,0,.7.6c.3.2.5.3.8.5a3.51,3.51,0,0,1,.8.5c0-.1.1-.1.1-.2s.1-.2.1-.3V42.6a2.92,2.92,0,0,0-.2-.9c-.1-.2-.1-.5-.2-.7a3,3,0,0,0-.4-.8,2.65,2.65,0,0,0-.5-.6.66.66,0,0,0-.6-.1,2.19,2.19,0,0,0-.5.3,2.09,2.09,0,0,0-.4.6,1.85,1.85,0,0,0-.2.7v.7a.9.9,0,0,0,.1.5A1.27,1.27,0,0,0,51.17,43Z"/><path class="cls-1" d="M55.07,43.2c0-.3-.09-.6-.09-.9a.65.65,0,0,1,.09-.4c.1-.1.2-.2.3-.2s.2,0,.2.2v1.5a1.27,1.27,0,0,0,.1.6c0,.2.1.4.1.6s0,.2.1.2.1.1.2.1.2-.1.3-.2.2-.3.2-.5a1.42,1.42,0,0,0,.2-.6,6.37,6.37,0,0,0,.2-.7,1.49,1.49,0,0,0,.1-.6c0-.1.1-.3.1-.4v-.4c0-.1,0-.1.1-.2s.1-.1.2-.1h.1l.1.1v1.5a1.27,1.27,0,0,0,.1.6c0,.2.1.3.1.5v.2c0,.1.1.1.1.2s.1.1.1.2a.35.35,0,0,0,.2.1q.15,0,.3-.3l.3-.6.2-.6a1,1,0,0,0,.1-.4.31.31,0,0,1,.1-.2l.1-.1h.1a.1.1,0,0,0,.1.1v.2a1.42,1.42,0,0,1-.2.6c-.1.3-.2.5-.3.8a2.09,2.09,0,0,1-.4.6,1,1,0,0,1-.5.4.37.37,0,0,1-.3-.1l-.3-.3c-.1-.1-.1-.3-.2-.4s-.1-.3-.1-.4v-.4l-.2.6-.3.6a2.19,2.19,0,0,1-.3.5c-.1.1-.3.2-.4.3a.6.6,0,0,1-.4-.1l-.3-.3c-.1-.1-.1-.3-.2-.4a.76.76,0,0,1-.1-.4Z"/><path class="cls-1" d="M60.17,43.2c0,.1.1.2.1.3a.22.22,0,0,0,.2.2c0,.1.1.1.2.1s.2-.1.3-.3.2-.3.3-.5a1.42,1.42,0,0,0,.2-.6,1.09,1.09,0,0,0,.1-.5c0-.1,0-.1.1-.2a.1.1,0,0,1,.1-.1h.1v.6l-.2.6a3.33,3.33,0,0,1-.3.6,2.19,2.19,0,0,1-.3.5,1.38,1.38,0,0,1-.4.3c-.2,0-.3,0-.4-.1s-.3-.2-.3-.4-.2-.3-.2-.5-.1-.4-.2-.5-.1-.4-.1-.6v-.6a.9.9,0,0,1,.1-.5q.15-.3.3-.3c.1,0,.2,0,.2.2V42a2.92,2.92,0,0,0,.2.9C60.07,43.1,60.07,43.2,60.17,43.2Zm-.4-3.8.2.2V40a.22.22,0,0,1-.2.2c-.1,0-.2,0-.2-.1s-.1-.1-.1-.2v-.4a.22.22,0,0,1,.2-.2c-.1,0,0,0,.1.1Z"/><path class="cls-1" d="M61.87,44.1a.35.35,0,0,1-.1-.2,8.57,8.57,0,0,1-.2-1.5c0-.5-.09-1.1-.09-1.5v-1a.65.65,0,0,1,.09-.4c.1-.1.2-.2.3-.2h.2c.1.1.1.1.1.2s.1.4.1.6v1.2l.1.6.2-.5a1.85,1.85,0,0,0,.2-.7l.3-.6q.15-.3.3-.3h.2c.1.1.1.2.2.2a.37.37,0,0,1,.1.3c0,.1.1.2.1.3s.1.5.2.7.1.5.2.7v.2c0,.1,0,.1.1.2a.1.1,0,0,0,.1.1h.2c.1,0,.2-.1.3-.2a.76.76,0,0,0,.2-.4c.1-.2.1-.3.2-.5s.1-.3.1-.4v-.2c0-.1,0-.1.1-.1h.1l.1.1V41c0,.2-.1.4-.1.6s-.1.4-.2.6a2.09,2.09,0,0,1-.4.6c-.1.1-.3.3-.4.3a.6.6,0,0,1-.4-.1l-.3-.3c-.1-.1-.1-.3-.2-.4s-.1-.3-.1-.4-.1-.4-.1-.6-.1-.4-.1-.6v-.1a.1.1,0,1,0-.2,0,.1.1,0,0,1-.1.1,1.42,1.42,0,0,0-.2.6c-.1.2-.1.5-.2.7s-.1.5-.2.8-.1.5-.1.8c0,.1,0,.2-.1.2s-.1.1-.2.1C62,44.1,62,44.1,61.87,44.1Z"/><path class="cls-1" d="M66.17,38.7c-.1.3-.1.7-.2,1v.2c0,.1-.1.1-.1.2v.4c0,.1.1.2.1.4s.2.4.2.6a2.19,2.19,0,0,0,.3.5c.1.1.2.2.3.2a.32.32,0,0,0,.3-.3c.1-.2.2-.3.3-.5a1.42,1.42,0,0,0,.2-.6,4.33,4.33,0,0,1,.1-.5v-.2a.1.1,0,0,1,.1-.1h.1l.1.1v.4a1.42,1.42,0,0,1-.2.6c-.1.2-.2.5-.3.7a2.09,2.09,0,0,1-.4.6.55.55,0,0,1-.5.3.6.6,0,0,1-.4-.1c-.1-.1-.3-.2-.4-.3s-.2-.3-.3-.5l-.3-.6a1.42,1.42,0,0,1-.2-.6c0-.2-.1-.3-.1-.5a3,3,0,0,1-.2-1,3.4,3.4,0,0,1-.1-1c-.1,0-.1.1-.2.1s-.2,0-.3-.2a.35.35,0,0,1,.4-.4v-.8a3.4,3.4,0,0,1,.1-1,2.92,2.92,0,0,1,.2-.9c.1-.2.2-.4.4-.4h.2l.2.2a.37.37,0,0,1,.1.3c0,.1.1.2.1.3.1.3.1.5.2.8a2.2,2.2,0,0,0,.1.8l.3-.1c.1,0,.2-.1.3-.1s.1,0,.2.1v.1a.1.1,0,0,1-.1.1l-.1.1a.35.35,0,0,1-.2.1l-.2.1-.1.1A2.77,2.77,0,0,1,66.17,38.7Zm-.8.3c.1.3.1.5.2.8,0-.1.1-.3.1-.4s.1-.3.1-.5a.75.75,0,0,1,.1-.5c.1-.1,0-.3,0-.4l-.3.1c-.1,0-.2.1-.3.1,0,.3.1.5.1.8Zm-.1-3.3a1.7,1.7,0,0,0-.1.7v1.3l.3-.1c.1,0,.2-.1.3-.1v-.9a2.92,2.92,0,0,0-.2-.9v-.3m.1,0c-.3,0-.3.1-.4.3Z"/><path class="cls-1" d="M71.57,39.8c0,.1,0,.2-.09.2a1.52,1.52,0,0,1-.21.5c-.09.2-.09.4-.2.6s-.2.3-.3.5a1.25,1.25,0,0,1-.4.3.6.6,0,0,1-.4-.1,1.38,1.38,0,0,1-.3-.4c-.1-.2-.2-.3-.2-.5s-.1-.3-.1-.4c0,.1-.1.3-.1.4a5.21,5.21,0,0,1-.2.5c-.09.2-.09.3-.2.4s-.2.2-.3.2h-.3c-.09-.1-.2-.1-.2-.2s-.09-.2-.2-.3-.1-.2-.1-.3a3.06,3.06,0,0,1-.09-.9,3.23,3.23,0,0,1,.2-1,3.55,3.55,0,0,1,.4-.9,1.47,1.47,0,0,1,.6-.5c.1,0,.2,0,.2.1s.1.1.2.2v.2l-.3.4c-.1.2-.2.3-.3.5a3.81,3.81,0,0,0-.3,1,4.1,4.1,0,0,0,.1,1.1.1.1,0,0,0,.1.1l.1.1h0c.09,0,.09-.1.2-.2s.1-.3.2-.4a.9.9,0,0,0,.1-.5,4.76,4.76,0,0,1,.09-.5,4.33,4.33,0,0,0,.1-.5V39c0-.1.1-.1.2-.1h.1a.1.1,0,0,1,.1.1v1.2c0,.2.1.4.1.6s0,.1.1.2.1.2.1.3.1.2.2.3.1.1.2.1.2-.1.3-.2a2.19,2.19,0,0,0,.3-.5c.1-.2.2-.3.2-.5a.76.76,0,0,0,.1-.4v-.2a.1.1,0,0,1,.1-.1c.1,0,.1,0,.2.1C71.47,39.7,71.57,39.7,71.57,39.8Z"/><path class="cls-1" d="M.67,54c-.1,0-.2-.1-.3-.2s-.2-.1-.2-.2a.31.31,0,0,1-.1-.2.33.33,0,0,1,0-.4c.1-.1.1-.2.2-.2s.21-.1.3-.2.2-.1.3-.2a2,2,0,0,0,.3-1.1,10.87,10.87,0,0,0-.1-1.8c-.09-.7-.2-1.4-.3-2.2A21.92,21.92,0,0,1,.57,45a9,9,0,0,1,0-2.2,4.07,4.07,0,0,1,.5-1.8,2.65,2.65,0,0,1,.5-.6,1.67,1.67,0,0,1,.7-.4.75.75,0,0,1,.8.1,1.79,1.79,0,0,1,.7.5,2,2,0,0,1,.5.8c.1.3.21.5.3.8v.3c0,.1-.09.1-.2.2s-.3-.1-.4-.3a4.88,4.88,0,0,1-.3-.7c-.1-.2-.3-.5-.4-.7a.62.62,0,0,0-.7-.2.79.79,0,0,0-.5.8A10.87,10.87,0,0,0,2,43.4a20.93,20.93,0,0,0,.1,2.4,22.86,22.86,0,0,1,.2,2.5c0,.8.2,1.5.2,2.1a3.3,3.3,0,0,1,0,1.4,3.4,3.4,0,0,1,1-.1h2a3.4,3.4,0,0,0,1-.1,2.07,2.07,0,0,0,1-.6,8.79,8.79,0,0,0,.6-1c.1-.3.3-.6.4-.9s.2-.4.3-.4H9a.1.1,0,0,1,.1.1v.4l-.3.9a4.05,4.05,0,0,1-.5.9,5,5,0,0,1-.7.8,2.62,2.62,0,0,1-.9.5c-.3.1-.6.1-1,.2l-1,.1-1,.1a4.4,4.4,0,0,0-1,.2,3.13,3.13,0,0,0-1,.5,5.5,5.5,0,0,0-.9.7c-.1.1-.1.1-.2.1C.77,53.9.67,53.9.67,54Z"/><path class="cls-1" d="M15.87,47.2a.6.6,0,0,0-.1.4,4.93,4.93,0,0,1-.4.9c-.2.3-.3.6-.5.9a2.7,2.7,0,0,1-.7.8,2.18,2.18,0,0,1-.8.5.88.88,0,0,1-.7-.1,2.65,2.65,0,0,1-.5-.6,2,2,0,0,1-.4-.8,2.54,2.54,0,0,1-.2-.7,4.88,4.88,0,0,0-.3.7,3.55,3.55,0,0,1-.4.9,1.79,1.79,0,0,1-.5.7c-.1.2-.4.3-.6.4a.44.44,0,0,1-.5-.1.78.78,0,0,1-.4-.4c-.1-.2-.2-.3-.3-.5s-.1-.4-.2-.5a7.57,7.57,0,0,1-.1-1.5,8.47,8.47,0,0,1,.4-1.7,4.62,4.62,0,0,1,.9-1.5,2,2,0,0,1,1.2-.8.64.64,0,0,1,.41.1l.3.3v.1l-.1.1a5.72,5.72,0,0,0-.7.8,6.11,6.11,0,0,0-.6.9,4.92,4.92,0,0,0-.6,1.7,3.67,3.67,0,0,0,.1,1.8c0,.1,0,.1.1.2s.09.1.2.1h0q.3-.15.3-.3a6.35,6.35,0,0,0,.3-.7l.29-.9a2.94,2.94,0,0,0,.21-.9,1.75,1.75,0,0,1,.2-.8,1.26,1.26,0,0,0,.09-.6c0-.1.1-.3.1-.4s.2-.2.3-.2H12a.22.22,0,0,1,.2.2v.5a.75.75,0,0,1-.1.5v.9a2.92,2.92,0,0,0,.2.9c0,.1.1.2.1.4s.1.3.2.5a1.38,1.38,0,0,0,.3.4c.1.1.2.2.3.1a2.09,2.09,0,0,0,.6-.4,3.51,3.51,0,0,0,.5-.8,3.55,3.55,0,0,0,.4-.9,4.88,4.88,0,0,1,.3-.7c.1-.2.1-.2.1-.3a.22.22,0,0,1,.2-.2c.2,0,.3,0,.3.2C16,46.9,16,47,15.87,47.2Z"/><path class="cls-1" d="M17,43.7a2.7,2.7,0,0,0,.7.8l.8.8c.2.3.5.6.7.9a3,3,0,0,1,.4,1,1.48,1.48,0,0,1,.1.7c0,.2-.1.5-.1.7.2-.1.5-.2.6-.4s.4-.5.6-.8a4.05,4.05,0,0,0,.5-.9c.1-.2.2-.5.3-.7l.1-.3a.22.22,0,0,1,.2-.2h.2c.1.1.1.1.1.2v.4l-.6,1.5a5,5,0,0,1-.8,1.2,2.73,2.73,0,0,1-1.2.9,4.71,4.71,0,0,1-1.5.6c-.3.1-.7.1-1,.2a1.8,1.8,0,0,1-1-.2c-.1,0-.1-.1-.2-.1s-.1-.1-.1-.2,0-.3.2-.3h.4a1.27,1.27,0,0,0,.6.1,1.27,1.27,0,0,0,.6-.1,1.46,1.46,0,0,0,.9-.6,1.38,1.38,0,0,0,.1-1.1c-.1-.3-.2-.5-.3-.8a3.51,3.51,0,0,0-.5-.8,4.35,4.35,0,0,0-.6-.7l-.6-.6a2.75,2.75,0,0,1-.09.8,2.68,2.68,0,0,1-.21.9,3.24,3.24,0,0,0-.2.9c-.09.2-.2.5-.3.7l-.09.2c-.1.1-.1.1-.2.1a.36.36,0,0,1-.3-.1v-.3a.36.36,0,0,1,.09-.2,10.9,10.9,0,0,0,.91-3.5,3.37,3.37,0,0,1-.41-.8c0-.2-.09-.4-.09-.6a1.88,1.88,0,0,1,.09-.7,1.31,1.31,0,0,1,.21-.6.53.53,0,0,1,.5-.3h.29a.22.22,0,0,1,.21.2c.09.1.09.2.2.3s.09.2.09.3a2.49,2.49,0,0,1,.1.8C17.07,43,17.07,43.4,17,43.7Z"/><path class="cls-1" d="M28.07,61.7a22.13,22.13,0,0,0,1.5,5c1.1,2.9,3.2,3.8,5,4.6a13.76,13.76,0,0,0,5.6,1.2,16.25,16.25,0,0,0,7.2-1.4,19.06,19.06,0,0,0,5.9-4.3,5.77,5.77,0,0,0,1-1.3c.3-.4.6-.9.91-1.3a5,5,0,0,1,.7-.8,1.09,1.09,0,0,1,.9-.4.91.91,0,0,1,.7.3.84.84,0,0,1,.2.7,1.69,1.69,0,0,1-.3,1c-.2.3-.3.6-.5.9a22.46,22.46,0,0,1-3.4,4.1,21.86,21.86,0,0,1-9.4,5.2,15.73,15.73,0,0,1-5.3.6,24.14,24.14,0,0,1-8.7-2,15.7,15.7,0,0,1-4.8-4.8,20.66,20.66,0,0,1-2.9-6.2,23.48,23.48,0,0,1-.7-7,26.35,26.35,0,0,1,.8-5.6,26.69,26.69,0,0,1,1.9-5.7,35,35,0,0,1,2.9-5.4,21.05,21.05,0,0,1,3.9-4.5,16.12,16.12,0,0,1,4.8-3,14,14,0,0,1,5.7-1,7.22,7.22,0,0,1,3.2.8,6.09,6.09,0,0,1,2.4,1.8,7.64,7.64,0,0,1,1.5,2.6,8.59,8.59,0,0,1,.5,3.2c0,.5-.1,1.2-.2,2.1s-.3,1.9-.5,2.9a27.59,27.59,0,0,1-.8,2.7,3.55,3.55,0,0,1-1.1,1.6,2.3,2.3,0,0,1-1.4.4,3.55,3.55,0,0,1-1-.2.81.81,0,0,1-.4-.9,1.88,1.88,0,0,1,.2-.8c.1-.3.3-.7.4-1s.3-.7.5-1.1a6.31,6.31,0,0,0,.4-.9,10.55,10.55,0,0,0,.6-2.4,10.68,10.68,0,0,0,.3-2.5,5.34,5.34,0,0,0-1-3.5,3.89,3.89,0,0,0-3.2-1.6,6.12,6.12,0,0,0-3.9,1.1,12.19,12.19,0,0,0-3.3,3.1,20,20,0,0,0-2.7,4.4,43,43,0,0,0-3.4,9.7,18.25,18.25,0,0,0-.5,4A14.81,14.81,0,0,0,28.07,61.7Z"/><path class="cls-1" d="M147,36.5l-.3-.6a.47.47,0,0,0-.6-.1,1.08,1.08,0,0,0-.7.6,9.44,9.44,0,0,1-.3.9,18,18,0,0,1-.8,2.1,21.48,21.48,0,0,1-1.4,2.6c-.5.8-1.1,1.6-1.7,2.4a3,3,0,0,1-1.7,1.2,6.28,6.28,0,0,0,.3-1.9,12.25,12.25,0,0,0-.2-1.9,11.07,11.07,0,0,0-1.2-2.7,15.45,15.45,0,0,0-1.9-2.4c-.7-.8-1.4-1.5-2.2-2.3a22,22,0,0,1-2-2.3,19.27,19.27,0,0,0,.1-2.4,9.86,9.86,0,0,0-.3-2.4c-.1-.3-.2-.5-.3-.8a1.79,1.79,0,0,0-.5-.7,2.65,2.65,0,0,0-.6-.5,2,2,0,0,0-.8-.1,2.12,2.12,0,0,0-1.3,1,8.65,8.65,0,0,0-.7,1.7,12.25,12.25,0,0,0-.2,1.9,7.77,7.77,0,0,0,.2,1.6,7,7,0,0,0,1.1,2.3,28.59,28.59,0,0,1-1.7,8.7l-.9,1.8a9.39,9.39,0,0,1-1.2,1.8,2.56,2.56,0,0,1-1.3,1,.83.83,0,0,1-.8-.3,2.07,2.07,0,0,1-.6-1c-.2-.4-.3-.7-.5-1.1a4.65,4.65,0,0,0-.3-.9,14.16,14.16,0,0,1-.4-2,7.41,7.41,0,0,1-.1-2.1,5.74,5.74,0,0,1,.1-1.2,2.05,2.05,0,0,0,0-1.1c-.1-.2-.2-.4-.4-.4h-.6a1.06,1.06,0,0,0-.7.6,2.92,2.92,0,0,0-.2.9,10.5,10.5,0,0,1-.2,1.3,11.63,11.63,0,0,1-.4,1.8c-.2.6-.3,1.4-.5,2.1s-.4,1.3-.6,2a10.09,10.09,0,0,1-.7,1.5,1.39,1.39,0,0,1-.8.7.37.37,0,0,1-.5-.2c-.1-.2-.2-.3-.2-.5a8.11,8.11,0,0,1-.2-4.1,11.57,11.57,0,0,1,2.6-5.8c.5-.6,1-1.2,1.5-1.7l.2-.2V35a.9.9,0,0,0-.6-.6,1,1,0,0,0-.9-.1,5.43,5.43,0,0,0-2.8,1.9,14.13,14.13,0,0,0-1.9,3.4,13.77,13.77,0,0,0-.9,3.9,6,6,0,0,0,0,1.9,7.72,7.72,0,0,1-.6,1.5c-.3.6-.6,1.4-1,2.1a12.74,12.74,0,0,1-1.3,1.9,2.21,2.21,0,0,1-1.3,1,.52.52,0,0,1-.7-.3h0c-.1-.3-.2-.5-.3-.8a23.81,23.81,0,0,1-.5-2.6,24.52,24.52,0,0,1-.2-2.7,7.72,7.72,0,0,0-.2-1.5,3.25,3.25,0,0,0-1-1.8,6,6,0,0,0-1.5-.9,10.93,10.93,0,0,0-1.7-.5,3.68,3.68,0,0,1-1.5-.8,11.63,11.63,0,0,0-.4-1.8c-.1-.3-.1-.5-.2-.8s-.3-.6-.4-.9a4.35,4.35,0,0,0-.6-.7,1,1,0,0,0-.7-.2,1.14,1.14,0,0,0-.8.7,6.47,6.47,0,0,0-.4,1.3,3.3,3.3,0,0,0,0,1.4,5,5,0,0,0,.2,1.2,5.58,5.58,0,0,0,.7,1.6,4.26,4.26,0,0,0,1.1,1.2,9.76,9.76,0,0,1-.2,3.8c-.3,1.1-.6,2.1-.9,3.1a.35.35,0,0,1-.1.2,11.25,11.25,0,0,1-1.2,2.1,8.52,8.52,0,0,1-1.6,1.7,7.81,7.81,0,0,1-2,1.1,2.33,2.33,0,0,1-2-.2A3.22,3.22,0,0,1,90,53a7.77,7.77,0,0,1-.2-1.6,5.72,5.72,0,0,0,1.5-1.6,10.46,10.46,0,0,0,1.3-2.3,12.09,12.09,0,0,0,.8-2.5,4.11,4.11,0,0,0,0-2.2,2.07,2.07,0,0,0-1-1.4,2,2,0,0,0-1.7-.2,3.94,3.94,0,0,0-2.3,1.9,9.5,9.5,0,0,0-1.3,3.3,15.53,15.53,0,0,0-.4,3.7,10.87,10.87,0,0,0,.1,1.8c-.1.4-.3.8-.4,1.2a14.72,14.72,0,0,1-1,2.2,13.73,13.73,0,0,1-1.3,2,3.27,3.27,0,0,1-1.5,1.1,1.34,1.34,0,0,1-1.4-.6A7.07,7.07,0,0,1,80,56a21.4,21.4,0,0,1-1-2.2,12,12,0,0,1-.6-1.7c0-.1-.1-.2-.1-.4v-.4c0-.2.1-.3.1-.4s.1-.3.2-.5.2-.6.3-.8l.3-.9c.3-1.1.6-2.4.9-3.6a15.42,15.42,0,0,0,.3-3.7l.6-.3.8-.5a5.58,5.58,0,0,0,.8-.5,1.76,1.76,0,0,0,.5-.4,1.38,1.38,0,0,0,.3-.4.3.3,0,0,0,0-.4c0-.2-.3-.4-.5-.4h-.1c-.4.1-.8.3-1.2.4a6.12,6.12,0,0,1-1.2.5c0-1-.1-2-.2-3a13.56,13.56,0,0,0-.6-2.9c-.1-.3-.2-.6-.3-1a3.13,3.13,0,0,0-.5-1,2.34,2.34,0,0,0-.7-.7,1.18,1.18,0,0,0-1-.1,3.24,3.24,0,0,0-2,1.8A11.66,11.66,0,0,0,74,35.8a22,22,0,0,0-.4,3.6c-.1,1.2-.1,2.1-.1,2.9a2.38,2.38,0,0,0-1.1.6A1,1,0,0,0,72,44a.86.86,0,0,0,.8.8.37.37,0,0,0,.3-.1,4.88,4.88,0,0,0,.7-.3,23.48,23.48,0,0,0,.5,3.7,23.69,23.69,0,0,0,.9,3.6c.1.5.3,1,.5,1.7.1.2.1.4.2.6l-.3,1.2a11.92,11.92,0,0,1-.8,2,9.91,9.91,0,0,1-1.1,1.7,2.56,2.56,0,0,1-1.3,1,.85.85,0,0,1-.7,0,2.18,2.18,0,0,1-.5-.4,1.49,1.49,0,0,1-.3-.7,1.85,1.85,0,0,1-.2-.7c-.2-.9-.4-1.7-.6-2.6s-.4-1.7-.6-2.6c-.1-.3-.2-.6-.3-1a3.7,3.7,0,0,0-.5-1.1,6.47,6.47,0,0,0-.8-.9.92.92,0,0,0-1-.1,2.76,2.76,0,0,0-1.4,1.2,18.34,18.34,0,0,0-1.3,2.4c-.4.9-.8,1.7-1.1,2.6s-.6,1.5-.7,2a16.35,16.35,0,0,1-.2-2.2,8.1,8.1,0,0,1,0-2.2,13.42,13.42,0,0,0,.1-2.1,14.92,14.92,0,0,0-.2-2.1,1.37,1.37,0,0,0-.5-.8,1,1,0,0,0-.9-.1,2.15,2.15,0,0,0-1.2.9,2.39,2.39,0,0,0-.5,1.4,11,11,0,0,0,.2,1.8l.1,1h-.1a1.79,1.79,0,0,0-.7.5c-.1.2-.2.5-.3.7a13,13,0,0,1-.8,1.7l-1.2,2.1a9,9,0,0,1-1.5,1.9,3.55,3.55,0,0,1-1.6,1.1,1,1,0,0,1-.9-.2,5.5,5.5,0,0,1-.7-.9,5.36,5.36,0,0,1-.5-1.1,4.65,4.65,0,0,0-.3-.9,14.16,14.16,0,0,1-.4-2,14.77,14.77,0,0,1-.1-2.1,7.38,7.38,0,0,1,.2-1.2,2,2,0,0,0,0-1.1.46.46,0,0,0-.5-.4,1.7,1.7,0,0,0-.7.1,1,1,0,0,0-.8.6,3.18,3.18,0,0,0-.3.9,10,10,0,0,0-.3,1.3,14.19,14.19,0,0,1-.5,1.9c-.2.7-.5,1.4-.7,2.1a11.92,11.92,0,0,1-.8,2,16.9,16.9,0,0,1-.9,1.6,2,2,0,0,1-1,.8.48.48,0,0,1-.6-.2c-.09-.2-.2-.3-.2-.5A8,8,0,0,1,43,58.2a10.29,10.29,0,0,1,1.79-4,15.58,15.58,0,0,1,1.6-2c.6-.6,1.2-1.2,1.9-1.8l.21-.2a.39.39,0,0,0,.09-.3,1,1,0,0,0-.7-.6,1.73,1.73,0,0,0-1-.1,6.73,6.73,0,0,0-3.3,2.1A14.39,14.39,0,0,0,40,58.9a8.31,8.31,0,0,0,.1,3.5c.1.4.3.8.4,1.1a4.13,4.13,0,0,0,.7,1.1,4.44,4.44,0,0,0,1.1.8,1.7,1.7,0,0,0,1.4,0,3.36,3.36,0,0,0,1.6-1,5.94,5.94,0,0,0,1.3-1.8,12.44,12.44,0,0,0,1-2c.3-.7.5-1.2.7-1.7a9.83,9.83,0,0,0,.5,1.6,5.56,5.56,0,0,0,.9,1.7,5.26,5.26,0,0,0,1.4,1.2,2.56,2.56,0,0,0,1.91.2,4.42,4.42,0,0,0,2.09-1.2A13.38,13.38,0,0,0,57,60.3c.5-.7,1-1.5,1.4-2.2a10,10,0,0,0,.9-1.8c.1,1.3.2,2.6.3,4a28.41,28.41,0,0,0,1,5.7,2.09,2.09,0,0,0,.4.6.59.59,0,0,0,.7.1,1.56,1.56,0,0,0,.8-.6,3,3,0,0,0,.4-1c.2-1,.3-2,.5-3s.4-2,.7-3c.2-.8.5-1.7.8-2.6A18.89,18.89,0,0,1,66,54a2.19,2.19,0,0,0,.3-.5c.1-.2.2-.3.4-.3s.3,0,.3.2.1.3.2.4a16,16,0,0,1,.5,2.1,16,16,0,0,0,.5,2.1,8.8,8.8,0,0,0,.5,1.5,5.48,5.48,0,0,0,.8,1.5,3.46,3.46,0,0,0,1.1,1,2.22,2.22,0,0,0,1.6.1,4.74,4.74,0,0,0,1.9-1.2,17.68,17.68,0,0,0,1.6-2.2,12.14,12.14,0,0,0,1.09-2.4c.3.6.6,1.1.91,1.7a13.3,13.3,0,0,0,1.4,1.9,4.81,4.81,0,0,0,1.6,1.2,2.26,2.26,0,0,0,1.8.1,3.94,3.94,0,0,0,2-1.3,20.71,20.71,0,0,0,1.7-2.3,16,16,0,0,0,1.2-2.7v-.1l.3.6a8,8,0,0,0,1.09,1.4,3.68,3.68,0,0,0,3.5.6A8.5,8.5,0,0,0,95,56.1a11.51,11.51,0,0,0,2.2-2.1,13.2,13.2,0,0,0,1.59-2.5c0-.1.1-.1.1-.2a5.09,5.09,0,0,0,.7-1.7c.2-.6.3-1.3.5-1.9a12,12,0,0,0,.3-2c.1-.7.1-1.2.2-1.8a4.71,4.71,0,0,1,1.7.4,2,2,0,0,1,1.1,1.3c.2.7.3,1.4.5,2s.3,1.3.5,2c.1.4.3.9.5,1.5a4.81,4.81,0,0,0,.8,1.6,5.73,5.73,0,0,0,1.1,1.1,2.19,2.19,0,0,0,1.6.2,4.39,4.39,0,0,0,1.8-1.2,17.68,17.68,0,0,0,1.6-2.2,16.65,16.65,0,0,0,1.2-2.3l.1.3a4.13,4.13,0,0,0,.7,1.1,3.92,3.92,0,0,0,1,.8,1.67,1.67,0,0,0,1.2.1,3,3,0,0,0,1.3-.9,9.91,9.91,0,0,0,1.1-1.7,15.39,15.39,0,0,0,.8-1.9c.2-.6.4-1.2.5-1.6a9.83,9.83,0,0,0,.5,1.6,7.57,7.57,0,0,0,.9,1.8,7.41,7.41,0,0,0,1.2,1.3,1.84,1.84,0,0,0,1.6.2,4.18,4.18,0,0,0,1.8-1.1,11,11,0,0,0,1.4-1.8c.1-.1.1-.2.2-.3a2.09,2.09,0,0,0,.6-.4c.1-.2.3-.4.4-.6a7.22,7.22,0,0,0,.9-2,21.72,21.72,0,0,0,.7-2.4,22.11,22.11,0,0,0,.5-2.5,19.88,19.88,0,0,0,.2-2.2,12.09,12.09,0,0,1,1.6,1.6c.6.6,1.1,1.3,1.7,2s1,1.4,1.4,2.1a9.49,9.49,0,0,1,.9,2.1A4.18,4.18,0,0,1,136,47a3.51,3.51,0,0,1-2.4,1.9,5.08,5.08,0,0,1-1.7.3,4.67,4.67,0,0,1-1.7-.3l-.5-.1h-.5c-.5.1-.7.4-.5.9a.55.55,0,0,0,.3.5,1.76,1.76,0,0,1,.5.4,4.86,4.86,0,0,0,2.9.5,16.5,16.5,0,0,0,7.2-2.3,11.8,11.8,0,0,0,3.2-2.7,19.18,19.18,0,0,0,2.3-3.5,32,32,0,0,0,1.7-4.3,4.33,4.33,0,0,1,.1-.5C147.07,36.9,147.07,36.7,147,36.5Zm-70.8.2a10.89,10.89,0,0,1,.5-2.6c.2-.8.5-1.2,1-1.3a.37.37,0,0,1,.3.1c.1.1.1.2.2.3s.1.2.1.4a.35.35,0,0,0,.1.2A18,18,0,0,1,79,37a18.21,18.21,0,0,1,.1,3.3,4.24,4.24,0,0,1-1.4.6c-.5.2-1,.4-1.4.6a12.1,12.1,0,0,1-.1-1.9,14,14,0,0,1,0-2.9Zm1.3,12.7-.6-3c-.2-1-.3-2-.4-3l1.2-.6,1.2-.6c0,.6-.1,1.1-.1,1.6s-.2,1.3-.29,2a10.55,10.55,0,0,1-.5,1.9,7.3,7.3,0,0,1-.51,1.7Zm12.2-.9a17.85,17.85,0,0,1,.2-2.3,16,16,0,0,1,.5-2.1c.2-.6.5-1,.9-1.1a.65.65,0,0,1,.6.1c.1.2.2.3.3.5a4.3,4.3,0,0,1,0,1.6,6.36,6.36,0,0,1-.6,1.8,11.46,11.46,0,0,1-1.9,3A3.79,3.79,0,0,1,89.67,48.5Zm40.9-18.4s-.8.4-.8-.6a5.29,5.29,0,0,1,.21-1.8C130.87,26.4,130.57,30.1,130.57,30.1Z"/><path class="cls-1" d="M52.87,85.2c-.5-1.1-.7-1.6-1.2-2.7l.6-.4,1.4,2.6Zm-1.6-4.3a.43.43,0,0,1,.7.1h0a.74.74,0,0,1-.1.9.43.43,0,0,1-.7-.1h0a.64.64,0,0,1,.1-.9Z"/><path class="cls-1" d="M53,79.2l-1,.7a6.89,6.89,0,0,1-.3-.8c1.1-.8,1.7-1.2,2.8-1.9l.3.8-1,.7c.6,1.3.9,2,1.5,3.3l-.8.5C53.87,81.2,53.57,80.6,53,79.2Z"/><path class="cls-1" d="M57.37,76.7l.8,2c.2.4.3.7.4.9l-.7.4-.2-.4h0a1.38,1.38,0,0,1-.6,1.1A.78.78,0,0,1,56,80.6a.35.35,0,0,1-.1-.2c-.1-.2-.2-.3-.3-.5-.3-.6-.4-1-.7-1.6l.8-.5c.3.6.4,1,.7,1.6.1.1.1.3.2.4s.2.2.4.2h.1c.3-.2.3-.7.1-1.3l-.6-1.4Z"/><path class="cls-1" d="M62.47,77a2.36,2.36,0,0,1-.9.8,1.16,1.16,0,0,1-1.7-.2c-.1-.1-.1-.1-.1-.2a1.9,1.9,0,0,1,.5-2.6h0a1,1,0,0,1,1.4.2v.1c.4.7-1.2,1.7-1.2,2,.1.1.2.2.3.2a.61.61,0,0,0,.6-.1,4.35,4.35,0,0,0,.7-.6ZM61,75.5c-.1-.1-.2-.1-.4,0a.81.81,0,0,0-.3.9c.1.1.8-.7.7-.9Z"/><path class="cls-1" d="M62.47,73.6l.8,1.1.5.7h0c0-.2-.1-.5-.1-.9,0-.6-.1-.9-.1-1.5l.91-.5v3.6l-.8.5c-.8-1-1.2-1.5-2-2.4Z"/><path class="cls-1" d="M68.07,73.8a3.3,3.3,0,0,1-.9.8,1.17,1.17,0,0,1-1.7-.3c0-.1-.1-.1-.1-.2a2,2,0,0,1,.7-2.6h.1a1,1,0,0,1,1.4.3v.1c.41.7-1.2,1.6-1.3,1.9,0,0,.1.2.21.2a.88.88,0,0,0,.7-.1,1.34,1.34,0,0,0,.7-.6A.52.52,0,0,0,68.07,73.8Zm-1.4-1.6c-.1-.1-.2-.2-.4-.1-.4.2-.4.9-.4.9s.9-.6.8-.8Z"/><path class="cls-1" d="M68.67,73.7c-.2-.8-.4-1.2-.6-2.1a9.45,9.45,0,0,0-.3-1l.8-.4.2.5h0a1.43,1.43,0,0,1,.71-1,.82.82,0,0,1,1.09.3.1.1,0,0,0,.1.1c.1.2.1.3.2.5.2.7.3,1.1.5,1.8l-.8.4-.5-1.7c0-.1-.09-.2-.09-.3s-.21-.3-.5-.2-.41.6-.21,1.3l.41,1.4Z"/><path class="cls-1" d="M71.87,67.7l.2.8.6-.3.2.7-.6.3.21,1c0,.1.09.3.09.4s.2.2.3.2H73l.2-.1c.1.3.1.4.2.7a2.19,2.19,0,0,1-.5.3c-.5.2-.9.1-1-.3-.1-.2-.1-.4-.2-.6-.1-.5-.2-.7-.3-1.2l-.4.2c-.1-.3-.1-.4-.2-.7l.4-.2a1.27,1.27,0,0,1-.1-.6Z"/><path class="cls-1" d="M75.27,70.6a1.28,1.28,0,0,1-1.7-.5V70a1.82,1.82,0,0,1,.8-2.5.1.1,0,0,0,.1-.1,1.28,1.28,0,0,1,1.7.5.1.1,0,0,0,.1.1,2,2,0,0,1-1,2.6Zm-.2-.7c.5-.2.41-1,.2-1.5a.56.56,0,0,0-.7-.4c-.5.2-.4,1-.2,1.5S74.77,70.1,75.07,69.9Z"/><path class="cls-1" d="M77,70.6a6.7,6.7,0,0,0,0-2l.9-.4a7.61,7.61,0,0,1-.3,2.1Z"/><path class="cls-1" d="M79.77,68.7l-.4-2.1c-.1-.4-.1-.7-.2-1l.8-.3c0,.2.1.3.1.5h0a1.22,1.22,0,0,1,.8-.9.73.73,0,0,1,1,.4c0,.1,0,.1.1.2a.9.9,0,0,1,.1.5l.3,1.8-.9.3-.3-1.7c0-.1-.1-.2-.1-.3s-.2-.3-.4-.2a1.34,1.34,0,0,0-.4,1.3l.2,1.4Z"/><path class="cls-1" d="M85.37,63.3c.1.9.2,1.3.3,2.1a3,3,0,0,0,.2,1l-.8.3c0-.2-.09-.3-.09-.5h0a1.24,1.24,0,0,1-.8.9.73.73,0,0,1-1-.4c0-.1,0-.1-.1-.2a1.27,1.27,0,0,1-.1-.6c-.1-.7-.2-1.1-.3-1.8l.9-.3c.1.7.1,1,.2,1.7,0,.1.1.3.1.4s.2.3.4.2a1.23,1.23,0,0,0,.4-1.2c-.1-.6-.1-.9-.2-1.5Z"/><path class="cls-1" d="M89,65.3a2.07,2.07,0,0,1-1,.6,1.2,1.2,0,0,1-1.6-.6c0-.1-.1-.1-.1-.2a1.92,1.92,0,0,1,1.21-2.4h0a1,1,0,0,1,1.29.5v.1c.21.8-1.5,1.4-1.7,1.6a1.44,1.44,0,0,0,.2.3.87.87,0,0,0,.71,0,2,2,0,0,0,.79-.4C88.77,64.9,88.87,65,89,65.3Zm-1.1-1.9c0-.1-.2-.2-.4-.1-.4.1-.6.8-.5.8s1-.4.9-.7Z"/><path class="cls-1" d="M89.47,64.5a1.1,1.1,0,0,0,.8,0c.2-.1.3-.2.3-.4s-.2-.2-.5-.3a1.15,1.15,0,0,1-.9-.6c-.2-.6.3-1.2,1.1-1.4a2.49,2.49,0,0,1,.8-.1v.7h-.7c-.2.1-.4.2-.3.4s.2.2.5.2a1,1,0,0,1,.9.6c.2.7-.3,1.2-1.1,1.5a1.7,1.7,0,0,1-1,0A1.49,1.49,0,0,1,89.47,64.5Z"/><path class="cls-1" d="M92.87,60.3v.9l.7-.2v.7l-.7.2A4.48,4.48,0,0,0,93,63v.4c0,.1.1.2.3.2s.2,0,.2-.1a1.7,1.7,0,0,0,.1.7c-.2.1-.3.2-.5.2a.83.83,0,0,1-1-.4c0-.2-.1-.4-.1-.6a5.7,5.7,0,0,0-.1-1.3l-.4.1v-.7l.4-.1v-.6Z"/><path class="cls-1" d="M94.27,64l-.1-1.9c0-.5-.1-1-.1-1.3l.8-.2c0,.2.1.4.1.6h0a1.22,1.22,0,0,1,.8-.9H96v.9h-.2c-.6.1-.7.7-.7,1.3a4.87,4.87,0,0,0,.1,1.2Z"/><path class="cls-1" d="M98.57,63.1c0-.2-.09-.4-.09-.6h0a1.2,1.2,0,0,1-.91.9,1.1,1.1,0,0,1-1.2-.8v-.1A2.15,2.15,0,0,1,98,59.9h.2a4.1,4.1,0,0,1,1.1-.1v1.7a6.75,6.75,0,0,0,.2,1.4Zm-.3-2.5H98a1.15,1.15,0,0,0-.7,1.5c.1.3.2.5.5.4s.5-.4.5-1.2Z"/><path class="cls-1" d="M104.17,57.4c-.1,1.4-.1,2-.1,3.4V62l-.8.1v-.5h0a1.07,1.07,0,0,1-.9.7c-.5.1-1-.2-1.2-1a2,2,0,0,1,1.5-2.4h.5a6.15,6.15,0,0,1,.1-1.4Zm-1,2.4a.6.6,0,0,0-.4-.1c-.6.1-.8.8-.7,1.4.1.4.3.6.5.5a1.32,1.32,0,0,0,.6-1A1.1,1.1,0,0,1,103.17,59.8Z"/><path class="cls-1" d="M104.67,62c0-1.3.1-1.9.1-3.2l.9-.1c-.1,1.3-.1,1.9-.2,3.2Zm.7-3.7c-.2,0-.5-.1-.5-.4h0a.56.56,0,0,1,.5-.6h0a.38.38,0,0,1,.5.3v.1a.5.5,0,0,1-.5.6Z"/><path class="cls-1" d="M106.37,60.9a2.49,2.49,0,0,0,.8.1c.2,0,.4-.2.3-.3a1.4,1.4,0,0,0-.4-.4,1.14,1.14,0,0,1-.8-.7c-.1-.6.4-1.1,1.3-1.2a2,2,0,0,1,.8.1l-.2.7a1.48,1.48,0,0,0-.7-.1c-.2,0-.4.1-.4.3s.2.2.4.3.8.3.8.8c.1.7-.5,1.2-1.3,1.3a1.73,1.73,0,0,1-1-.1C106.37,61.3,106.37,61.2,106.37,60.9Z"/><path class="cls-1" d="M110.47,57.2a3.08,3.08,0,0,1-.1.9l.7-.1a1.88,1.88,0,0,1-.09.7l-.71.1c0,.4-.09.6-.09,1.1v.4c0,.1.09.2.3.2h.2v.7a.9.9,0,0,1-.5.1.7.7,0,0,1-.91-.6v-.6c0-.5.1-.8.1-1.2H109a1.7,1.7,0,0,1,.1-.7h.4a1.27,1.27,0,0,1,.1-.6Z"/><path class="cls-1" d="M111.27,61.2c.1-1.3.2-1.9.3-3.2l1-.1c-.2,1.3-.2,1.9-.3,3.2Zm.9-3.7c-.2,0-.5-.1-.5-.4h0a.63.63,0,0,1,.5-.6c.2,0,.5.1.5.4h0a.47.47,0,0,1-.5.6Z"/><path class="cls-1" d="M113,61c.1-.9.1-1.3.2-2.1,0-.4.1-.7.1-1l.8-.1v.5h0a1.15,1.15,0,0,1,1.1-.6.78.78,0,0,1,.9.7v.7c-.1.7-.2,1.1-.3,1.8l-.9.1c.1-.7.1-1.1.2-1.8v-.3c0-.2-.1-.4-.3-.4s-.6.4-.7,1.1-.1.8-.2,1.4Z"/><path class="cls-1" d="M119,60.6a2.92,2.92,0,0,1-.9.2,1.25,1.25,0,0,1-1.4-1v-.2a2.08,2.08,0,0,1,1.9-2.1h.1a1.7,1.7,0,0,1,.7.1c-.1.3-.1.4-.2.7a1.08,1.08,0,0,0-1.4.7c0,.1-.1.3-.1.4a.56.56,0,0,0,.5.6h.1c.2,0,.4-.1.6-.1A1.7,1.7,0,0,1,119,60.6Z"/><path class="cls-1" d="M119.47,60.7l.5-3.1h1a28.37,28.37,0,0,1-.6,3.1Zm1.1-3.5c-.2,0-.5-.2-.5-.4h0a.47.47,0,0,1,.5-.5h0c.2,0,.5.2.5.4h0c.1.2-.2.5-.5.5Z"/><path class="cls-1" d="M122.57,60.7a1.18,1.18,0,0,1-1.3-1.2v-.1a1.91,1.91,0,0,1,1.8-2h.2a1.16,1.16,0,0,1,1.3,1.1v.2a2,2,0,0,1-1.8,2c-.1,0-.1.1-.2,0Zm.2-.7c.5,0,.8-.7.8-1.3,0-.3-.1-.6-.5-.6s-.8.8-.8,1.2.1.7.5.7Zm1.6-3.8-.9,1h-.7l.6-1Z"/><path class="cls-1" d="M124.77,60.7c.2-.8.3-1.3.5-2.1a4.4,4.4,0,0,0,.2-1h.8a.9.9,0,0,1-.1.5h0a1.43,1.43,0,0,1,1.2-.6.79.79,0,0,1,.8.8v.2a.9.9,0,0,1-.1.5,11.63,11.63,0,0,0-.4,1.8h-.9c.2-.7.2-1,.4-1.7v-.3c0-.1-.1-.4-.3-.4a1.23,1.23,0,0,0-.8,1l-.3,1.4Z"/><path class="cls-1" d="M129,60.9a.47.47,0,0,1-.5-.5h0a.67.67,0,0,1,.7-.6h0a.47.47,0,0,1,.5.5h0a.56.56,0,0,1-.7.6Zm0-1.4c.2-1.1.4-1.7.6-2.9l1,.1c-.4,1.1-.6,1.7-.9,2.8Z"/></svg>