<svg id="Layer_1" data-name="Layer 1" xmlns="http://www.w3.org/2000/svg" viewBox="0 0 206.4 44.5"><defs><style>.cls-1{fill:#c1c7d0;}</style></defs><title>Artboard 26</title><path class="cls-1" d="M119,35h.8v6.1a5.7,5.7,0,0,1-.1,1.3,2.22,2.22,0,0,1-.5,1.1,2.29,2.29,0,0,1-1,.7,4.15,4.15,0,0,1-1.6.3,5.85,5.85,0,0,1-1.3-.2,4.05,4.05,0,0,1-.9-.5,2.65,2.65,0,0,1-.5-.6,1.45,1.45,0,0,1-.2-.7h.8a.86.86,0,0,0,.3.6,1,1,0,0,0,.5.4,1.42,1.42,0,0,0,.6.2h.7a3.08,3.08,0,0,0,1.3-.3,1.58,1.58,0,0,0,.7-.7,1.69,1.69,0,0,0,.3-1,4.48,4.48,0,0,0,.1-1.1,2.19,2.19,0,0,1-1,.9,3.19,3.19,0,0,1-1.4.3,2.77,2.77,0,0,1-1.3-.3,2.36,2.36,0,0,1-.9-.8,2.22,2.22,0,0,1-.5-1.1,5.9,5.9,0,0,1-.2-1.4,6.75,6.75,0,0,1,.2-1.4,3.7,3.7,0,0,1,.5-1.1,6.47,6.47,0,0,1,.9-.8,3.19,3.19,0,0,1,1.4-.3,2,2,0,0,1,.7.1,4.88,4.88,0,0,0,.7.3c.2.1.4.3.6.4a2.09,2.09,0,0,1,.4.6h0Zm0,3.4a2,2,0,0,0-.2-1.1,3.55,3.55,0,0,0-.4-.9c-.2-.2-.4-.5-.7-.6a1.8,1.8,0,0,0-1-.2,2.92,2.92,0,0,0-.9.2,1.79,1.79,0,0,0-.7.5,2.18,2.18,0,0,0-.5.8,4.25,4.25,0,0,0-.2,1.1,4.87,4.87,0,0,0,.1,1.2,3,3,0,0,0,.4,1,1.34,1.34,0,0,0,.7.6,1.23,1.23,0,0,0,1,.2,3.55,3.55,0,0,0,1-.2c.3-.1.5-.4.7-.6a4.05,4.05,0,0,0,.5-.9A4.25,4.25,0,0,0,119,38.4Z"/><path class="cls-1" d="M122.2,38.5a3.55,3.55,0,0,0,.2,1,2,2,0,0,0,.4.8,4.35,4.35,0,0,0,.7.6,3.55,3.55,0,0,0,1,.2,2,2,0,0,0,1.3-.4,1.9,1.9,0,0,0,.7-1.1h.9a3.55,3.55,0,0,1-.4.9,2,2,0,0,1-.6.7,2.18,2.18,0,0,1-.8.5,4.25,4.25,0,0,1-1.1.2,3.19,3.19,0,0,1-1.4-.3,2.54,2.54,0,0,1-1-.8,2.22,2.22,0,0,1-.5-1.1,5.9,5.9,0,0,1-.2-1.4,6.75,6.75,0,0,1,.2-1.4,2.38,2.38,0,0,1,.6-1.1,3.92,3.92,0,0,1,1-.8,3.08,3.08,0,0,1,1.3-.3,2.84,2.84,0,0,1,2.2,1,4,4,0,0,1,.8,2.8Zm4.4-.6a2.77,2.77,0,0,0-.1-.9,3,3,0,0,0-.4-.8,1.79,1.79,0,0,0-.7-.5,2.13,2.13,0,0,0-1.8,0,1.79,1.79,0,0,0-.7.5,5.58,5.58,0,0,0-.5.8,2.92,2.92,0,0,0-.2.9Z"/><path class="cls-1" d="M129.4,39.6a1.85,1.85,0,0,0,.7,1.2,2.2,2.2,0,0,0,1.3.4,1.48,1.48,0,0,0,.7-.1,2.19,2.19,0,0,0,.5-.3,1.38,1.38,0,0,0,.3-.4.75.75,0,0,0,.1-.5.78.78,0,0,0-.3-.7,2,2,0,0,0-.8-.4,3.55,3.55,0,0,0-1-.2c-.3-.1-.7-.2-1-.3a1.56,1.56,0,0,1-.8-.6,1.69,1.69,0,0,1-.3-1,2,2,0,0,1,.6-1.4,2.27,2.27,0,0,1,1.8-.5,3.09,3.09,0,0,1,1.8.5,2.09,2.09,0,0,1,.8,1.6H133a1.38,1.38,0,0,0-.6-1.1,2.66,2.66,0,0,0-1.2-.3,2,2,0,0,0-1.1.3,1,1,0,0,0-.1,1.5,2,2,0,0,0,.8.4l1,.3c.3.1.7.2,1,.3a1.56,1.56,0,0,1,.8.6,1.69,1.69,0,0,1,.3,1,1.88,1.88,0,0,1-.2.8,1.17,1.17,0,0,1-.6.6,3.55,3.55,0,0,1-.9.4,4.1,4.1,0,0,1-1.1.1,3,3,0,0,1-1-.2,2.18,2.18,0,0,1-.8-.5,1.79,1.79,0,0,1-.5-.7,2.92,2.92,0,0,1-.2-.9Z"/><path class="cls-1" d="M137.8,41.7a.6.6,0,0,0-.4.1c-.2,0-.3.1-.5.1a1.61,1.61,0,0,1-.9-.3,1.69,1.69,0,0,1-.3-1V35.7h-.9v-.6h.9v-2h.8V35h1.3v.6h-1.3v5a.37.37,0,0,0,.1.3c0,.1.1.1.2.2h1Z"/><path class="cls-1" d="M141.7,41.9a5,5,0,0,1-1.2-.2,2.29,2.29,0,0,1-1-.7,4.13,4.13,0,0,1-.7-1.1,2.62,2.62,0,0,1-.2-1.5,6.75,6.75,0,0,1,.2-1.4,2.38,2.38,0,0,1,.6-1.1,3.92,3.92,0,0,1,1-.8,3.19,3.19,0,0,1,1.4-.3,3.53,3.53,0,0,1,1.4.3,2.54,2.54,0,0,1,1,.8,2.38,2.38,0,0,1,.6,1.1,6.75,6.75,0,0,1,.2,1.4,7.72,7.72,0,0,1-.2,1.5,2.38,2.38,0,0,1-.6,1.1,2.29,2.29,0,0,1-1,.7A10.4,10.4,0,0,1,141.7,41.9Zm2.3-3.5a3.75,3.75,0,0,0-.1-1.1,3.55,3.55,0,0,0-.4-.9c-.2-.2-.4-.5-.7-.6a2.6,2.6,0,0,0-2,0,4.35,4.35,0,0,0-.7.6,3.55,3.55,0,0,0-.4.9,4.11,4.11,0,0,0,0,2.2,3.55,3.55,0,0,0,.4.9,4.35,4.35,0,0,0,.7.6,2.6,2.6,0,0,0,2,0,4.35,4.35,0,0,0,.7-.6,3.55,3.55,0,0,0,.4-.9c0-.4.1-.8.1-1.1Z"/><path class="cls-1" d="M147,41.7h-.8V35h.8v1.3h0a2.26,2.26,0,0,1,.8-1.1,3.19,3.19,0,0,1,1.4-.3v.8a4.25,4.25,0,0,0-1.1.2,1.34,1.34,0,0,0-.7.6,1.61,1.61,0,0,0-.3.9,4.1,4.1,0,0,0-.1,1.1Z"/><path class="cls-1" d="M150,34.3l1.4-1.8h1l-1.8,1.8Zm.6,7.4V35h.8v6.7Z"/><path class="cls-1" d="M156.5,37.8l.5-.1c.2,0,.3-.1.5-.1s.2-.2.2-.3v-.4a1.28,1.28,0,0,0-.4-1,2,2,0,0,0-1.3-.4,1.7,1.7,0,0,0-.7.1,1.42,1.42,0,0,0-.6.2,1,1,0,0,0-.4.5,1.85,1.85,0,0,0-.2.7h-.8a1.93,1.93,0,0,1,.3-1,1.34,1.34,0,0,1,.6-.7,3.55,3.55,0,0,1,.9-.4,5.05,5.05,0,0,1,2,0,3,3,0,0,1,.8.4,2.65,2.65,0,0,1,.5.6,3.55,3.55,0,0,1,.2,1v3.6c0,.3,0,.5.2.6s.3.1.7-.1v.6l-.3.1h-.6a.37.37,0,0,1-.3-.1l-.2-.2c0-.1-.1-.2-.1-.3v-.3a2.84,2.84,0,0,1-1.1.8,3.19,3.19,0,0,1-1.4.3,2,2,0,0,1-.8-.1,1.61,1.61,0,0,1-.7-.4,2.65,2.65,0,0,1-.5-.6,2.92,2.92,0,0,1-.2-.9c0-1.1.8-1.8,2.3-2Zm1.3.4c-.3.1-.7.2-1,.3s-.7.1-1,.1a3.26,3.26,0,0,0-1.4.4,1.23,1.23,0,0,0-.5,1,.75.75,0,0,0,.1.5c.1.1.2.3.3.4a.76.76,0,0,0,.5.2,4.33,4.33,0,0,1,.5.1,2.77,2.77,0,0,0,.9-.1,3,3,0,0,0,.8-.4,2.65,2.65,0,0,0,.5-.6,2.92,2.92,0,0,0,.2-.9Z"/><path class="cls-1" d="M168.9,37.1a2.4,2.4,0,0,0-.7-1.2,2,2,0,0,0-1.3-.4,3.55,3.55,0,0,0-1,.2,4.35,4.35,0,0,0-.7.6,3.55,3.55,0,0,0-.4.9,5,5,0,0,0,0,2,3.55,3.55,0,0,0,.4.9,1.34,1.34,0,0,0,.7.6,1.8,1.8,0,0,0,1,.2,1.87,1.87,0,0,0,1.4-.5,2.39,2.39,0,0,0,.7-1.3h.8c-.1.3-.2.7-.3,1a1.56,1.56,0,0,1-.6.8,2.18,2.18,0,0,1-.8.5,4.25,4.25,0,0,1-1.1.2,3.19,3.19,0,0,1-1.4-.3,2.54,2.54,0,0,1-1-.8,2.22,2.22,0,0,1-.5-1.1,5.9,5.9,0,0,1-.2-1.4,5.07,5.07,0,0,1,.2-1.3,2.38,2.38,0,0,1,.6-1.1,3.92,3.92,0,0,1,1-.8,3.08,3.08,0,0,1,1.3-.3,3.29,3.29,0,0,1,1.9.6,2.84,2.84,0,0,1,.9,1.7Z"/><path class="cls-1" d="M175.9,35h.8v6.7h-.8v-.9a1.38,1.38,0,0,0-.3.4,2.18,2.18,0,0,1-.5.4l-.6.3a2,2,0,0,1-.8.1,3.59,3.59,0,0,1-1.1-.2,1.79,1.79,0,0,1-.7-.5,2,2,0,0,1-.4-.8,3.4,3.4,0,0,1-.1-1V35.1h.8v4.4a2,2,0,0,0,.4,1.3,1.95,1.95,0,0,0,2.8-.2,2,2,0,0,0,.4-.8,3.4,3.4,0,0,0,.1-1Z"/><path class="cls-1" d="M178.7,41.7V32.4h.8v9.3Z"/><path class="cls-1" d="M183.8,41.7a.76.76,0,0,0-.4.1c-.2,0-.3.1-.5.1a1.61,1.61,0,0,1-.9-.3,1.69,1.69,0,0,1-.3-1V35.7h-.9v-.6h1v-2h.8V35h1.3v.6h-1.3v5a.37.37,0,0,0,.1.3l.2.2h1v.6Z"/><path class="cls-1" d="M189.6,35h.8v6.7h-.8v-.9l-.3.4a2.18,2.18,0,0,1-.5.4l-.6.3a2,2,0,0,1-.8.1,3.59,3.59,0,0,1-1.1-.2,1.79,1.79,0,0,1-.7-.5,2,2,0,0,1-.4-.8,3.4,3.4,0,0,1-.1-1V35.1h.8v4.4a2,2,0,0,0,.4,1.3,2.11,2.11,0,0,0,1.3.5,2.92,2.92,0,0,0,.9-.2,1,1,0,0,0,.6-.5,2,2,0,0,0,.4-.8,3.4,3.4,0,0,0,.1-1Z"/><path class="cls-1" d="M193.1,41.7h-.8V35h.8v1.3h0a2.26,2.26,0,0,1,.8-1.1,3.08,3.08,0,0,1,1.3-.3v.8a4.25,4.25,0,0,0-1.1.2,1.34,1.34,0,0,0-.7.6,1.61,1.61,0,0,0-.3.9,4.1,4.1,0,0,0-.1,1.1Z"/><path class="cls-1" d="M199.6,37.8l.5-.1c.2,0,.3-.1.5-.1s.2-.2.2-.3v-.4a1.28,1.28,0,0,0-.4-1,2,2,0,0,0-1.3-.4,1.7,1.7,0,0,0-.7.1,1.42,1.42,0,0,0-.6.2,1,1,0,0,0-.4.5,1.85,1.85,0,0,0-.2.7h-.8a1.93,1.93,0,0,1,.3-1,1.34,1.34,0,0,1,.6-.7,3,3,0,0,1,.8-.4,5.05,5.05,0,0,1,2,0,3,3,0,0,1,.8.4,2.65,2.65,0,0,1,.5.6,3.55,3.55,0,0,1,.2,1v3.6c0,.3,0,.5.2.6s.3.1.7-.1v.6l-.3.1h-.6a.37.37,0,0,1-.3-.1l-.2-.2c0-.1-.1-.2-.1-.3v-.3a2.84,2.84,0,0,1-1.1.8,3.19,3.19,0,0,1-1.4.3,2,2,0,0,1-.8-.1,1.61,1.61,0,0,1-.7-.4,2.65,2.65,0,0,1-.5-.6,2.92,2.92,0,0,1-.2-.9c0-1.1.8-1.8,2.3-2Zm1.4.4-1,.3c-.3,0-.7.1-1,.1a3.26,3.26,0,0,0-1.4.4,1.23,1.23,0,0,0-.5,1,.75.75,0,0,0,.1.5c.1.1.2.3.3.4a.76.76,0,0,0,.5.2,4.33,4.33,0,0,1,.5.1,2.77,2.77,0,0,0,.9-.1,3,3,0,0,0,.8-.4,2.65,2.65,0,0,0,.5-.6,2.92,2.92,0,0,0,.2-.9Z"/><path class="cls-1" d="M203.9,41.7V32.4h.8v9.3Z"/><path class="cls-1" d="M0,21.3V0H5.5V20.6c0,1.6.3,2.1,2,2.1h.7v4.5a24.37,24.37,0,0,1-2.7.1C1.9,27.4,0,26,0,21.3Z"/><path class="cls-1" d="M10.2,21.5c0-5.6,3.9-7,12.8-7h.8c0-1.8-.5-2.7-3.9-2.7a12.05,12.05,0,0,0-5.8,1.6l-2.8-4A17.24,17.24,0,0,1,20.4,7c7.2,0,8.7,2.3,8.7,7.9V21c0,1.6.1,1.8,1.7,1.8v4.5a9.06,9.06,0,0,1-2.3.1c-2.1,0-3-.4-3.8-2-1,1.4-3.2,2.2-7,2.2C11.5,27.6,10.2,25,10.2,21.5Zm13.5-2.4v-.7h-.5c-7,0-7.9.6-7.9,2.7,0,1.5.8,2.2,3.3,2.2C22.2,23.2,23.7,22,23.7,19.1Z"/><path class="cls-1" d="M40.8,17.3c0-5.6,1.8-10.4,10.4-10.4,8.8,0,9,5.8,8.9,12.5H46.2c.3,2.4,1.5,3.8,5,3.8a10.1,10.1,0,0,0,6.3-1.8L60.3,25a13.79,13.79,0,0,1-9,2.7C42.6,27.7,40.8,23,40.8,17.3Zm5.4-1.8h8.9c-.1-2.3-.6-3.9-4-3.9s-4.7,1.5-4.9,3.9Z"/><path class="cls-1" d="M61.6,25.1,64.4,21a14.32,14.32,0,0,0,7,2.1c2.8,0,3.6-.3,3.6-1.6s-.8-1.4-3.5-1.8c-4.9-.7-8.7-1.4-8.7-6.6,0-4,2.4-6.2,8.7-6.2a17.45,17.45,0,0,1,8.4,1.8L77.3,13a13.52,13.52,0,0,0-5.6-1.3c-2.8,0-3.4.5-3.4,1.4,0,1.1.7,1.4,3.3,1.7,5.1.7,8.9,1.3,8.9,6.3,0,4.6-2.5,6.5-9.3,6.5A16.3,16.3,0,0,1,61.6,25.1Z"/><path class="cls-1" d="M82.7,17.3c0-5.8,1.9-10.4,10.5-10.4a10.35,10.35,0,0,1,8.1,3.2l-3.9,3.7A5.26,5.26,0,0,0,93.2,12c-3.9,0-4.9,2.1-4.9,5.5s.9,5.5,4.9,5.5a6.36,6.36,0,0,0,4.5-1.9l3.5,3.4a10.77,10.77,0,0,1-8.3,3.2C84.6,27.6,82.7,23.2,82.7,17.3Z"/><path class="cls-1" d="M103.9,18V7.4h5.5V18.1c0,2.8.1,4.7,4,4.7s4-2,4-4.8V7.3h5.4V17.9c0,6.8-1.8,9.6-9.4,9.6S103.9,24.9,103.9,18Z"/><path class="cls-1" d="M125.8,21.5c0-5.6,3.9-7,12.8-7h.8c0-1.8-.5-2.7-3.9-2.7a12.05,12.05,0,0,0-5.8,1.6l-2.8-4A17.24,17.24,0,0,1,136,7c7.2,0,8.7,2.3,8.7,7.9V21c0,1.6.1,1.8,1.7,1.8v4.5a9.06,9.06,0,0,1-2.3.1c-2.1,0-3-.4-3.8-2-1,1.4-3.2,2.2-7,2.2C127.1,27.6,125.8,25,125.8,21.5Zm13.5-2.4v-.7h-.5c-7,0-7.9.6-7.9,2.7,0,1.5.8,2.2,3.3,2.2C137.8,23.2,139.3,22,139.3,19.1Z"/><path class="cls-1" d="M148.6,17.3c0-5.7,1.9-10.3,8.8-10.3,3.6,0,5.3.8,6.2,1.9V.1h5.5v27l-4.2.4-.6-2c-1.2,1.4-3.3,2.2-7.1,2.2C150.4,27.7,148.6,23,148.6,17.3Zm15,0c0-3.8-1-5.4-5.1-5.4-3.6,0-4.4,2.2-4.4,5.4s.7,5.7,4.4,5.7c3.9,0,5.1-1.9,5.1-5.7Z"/><path class="cls-1" d="M173.5,7.7l4.3-.3.6,2.2c.8-1.3,3.3-2.3,6.4-2.4v5.3c-4.7,0-5.7,1.9-5.7,5v9.9h-5.5Z"/><path class="cls-1" d="M185.7,21.5c0-5.6,3.9-7,12.8-7h.8c0-1.8-.5-2.7-3.9-2.7a12.05,12.05,0,0,0-5.8,1.6l-2.7-4A17.24,17.24,0,0,1,196,7c7.2,0,8.7,2.3,8.7,7.9V21c0,1.6.1,1.8,1.7,1.8v4.5a9.06,9.06,0,0,1-2.3.1c-2.1,0-3-.4-3.8-2-1,1.4-3.2,2.2-7,2.2C187.1,27.6,185.7,25,185.7,21.5Zm13.6-2.4v-.7h-.5c-7,0-7.9.6-7.9,2.7,0,1.5.8,2.2,3.3,2.2C197.8,23.2,199.3,22,199.3,19.1Z"/></svg>