<svg id="Layer_1" data-name="Layer 1" xmlns="http://www.w3.org/2000/svg" viewBox="0 0 240.56 29.05"><defs><style>.cls-1{fill:#c1c7d0;}</style></defs><title>Artboard 20</title><path class="cls-1" d="M24.66.1c.8.1,1.6.3,2.4.4A8.61,8.61,0,0,1,34,8.1v.6h-4.4c-.8-4.8-5.1-6.2-10.1-3.4v-4a1.06,1.06,0,0,1,.6-.7l3-.6Z"/><path class="cls-1" d="M18,.6V20.5c0,5-3.2,8.3-8.2,8.5a11.3,11.3,0,0,1-6-1.1,6.92,6.92,0,0,1-3.7-7.1h4.4c.1.3.1.6.2.9.4,2.4,1.8,3.6,4.4,3.6a4,4,0,0,0,4.1-3.8V.6Z"/><path class="cls-1" d="M19.26,10.6c2.4.8,4.8,1.6,7.2,2.5a34.18,34.18,0,0,1,4.3,2.1,7.26,7.26,0,0,1,2.2,10,7.63,7.63,0,0,1-3.2,2.7c-3.7,1.7-9.4,1.5-12.8-.7l1.9-3.4a8.94,8.94,0,0,0,7.3,1.2,3.73,3.73,0,0,0,.9-7.1,28.42,28.42,0,0,0-4.9-1.7c-2.9-.9-2.9-.9-2.9-3.9Z"/><path class="cls-1" d="M100.36,22.8h-1.5V10.2l-.3-.1-6.1,11.3-6.1-11.3h-.2V22.7h-1.5V6.3a1.47,1.47,0,0,1,2,.7c0,.1.1.1.1.2,1.8,3.5,3.7,7,5.7,10.7.2-.4.4-.7.6-1.1l5.1-9.6a1.71,1.71,0,0,1,2-1.1c.1,0,.1,0,.2.1Z"/><path class="cls-1" d="M115.36,14.1a10.47,10.47,0,0,1,1.1.8,4.13,4.13,0,0,1,1.6,4.5,3.82,3.82,0,0,1-3.3,3.2,20.67,20.67,0,0,1-4.3.2h-4.7V6.4c2.8,0,5.6-.1,8.3,0a3.62,3.62,0,0,1,3.4,3,3.9,3.9,0,0,1-1.7,4.4A1.38,1.38,0,0,0,115.36,14.1Zm-8.1,7.3c2.1,0,4.2.1,6.2,0a3.26,3.26,0,0,0,3.1-3.1,3.07,3.07,0,0,0-2.7-3.2c-2.2-.2-4.4,0-6.7,0v6.3Zm0-8c2.1,0,4.1.1,6.1,0a2.73,2.73,0,0,0,2.6-2.7,2.81,2.81,0,0,0-2.5-2.8c-2.1-.2-4.1,0-6.2,0Z"/><path class="cls-1" d="M138.36,14.6a8.4,8.4,0,1,1-8.2-8.6A8.59,8.59,0,0,1,138.36,14.6Zm-8.5,7a7.11,7.11,0,1,0-6.8-7.4v.2a7,7,0,0,0,6.8,7.2Z"/><path class="cls-1" d="M240.56,14.5a8.45,8.45,0,1,1-8.5-8.5A8.47,8.47,0,0,1,240.56,14.5Zm-8.4,7.1a7.05,7.05,0,1,0-6.9-7.2v.2a7.07,7.07,0,0,0,6.9,7Z"/><path class="cls-1" d="M199.86,6.1a56.56,56.56,0,0,1,8.2.6c4.1.8,6.3,4.2,6.1,8.5a7.81,7.81,0,0,1-6.8,7.4c-2.5.1-4.9.1-7.4,0V6.1Zm1.5,15.2c1.7,0,3.3.1,4.9,0a6.7,6.7,0,0,0,6.3-6.3,6.45,6.45,0,0,0-5.1-6.9c-2-.3-4.1-.4-6.2-.5Z"/><path class="cls-1" d="M149.16,20.4l.9-1.1a7.19,7.19,0,0,0,5.3,2.3,6.71,6.71,0,0,0,2.8-.6,2.64,2.64,0,0,0,1.6-2.5,2.51,2.51,0,0,0-1.6-2.3c-1-.4-2-.7-3-1a21.36,21.36,0,0,1-2.7-.9,3.66,3.66,0,0,1-2.6-3,4.34,4.34,0,0,1,2-4.3,6.67,6.67,0,0,1,4.8-.9,8.18,8.18,0,0,1,4.4,2.3l-.9,1.2a7.54,7.54,0,0,0-4.7-2.1,4.51,4.51,0,0,0-3.3,1.2A2.35,2.35,0,0,0,152,12a1.46,1.46,0,0,0,.9.6,30.05,30.05,0,0,0,3.2,1.1,30.05,30.05,0,0,1,3.2,1.1,4.23,4.23,0,0,1,1.7,5.7,3.86,3.86,0,0,1-1.5,1.6C156.56,24,151.36,23.1,149.16,20.4Z"/><path class="cls-1" d="M66.26,6.3h1.5V7.5c0,3-.1,6,0,9a5.15,5.15,0,1,0,10.3-.1V6.3h1.5a.6.6,0,0,1,.1.4c0,3.3.1,6.7-.1,10-.3,4-2.9,6.3-6.6,6.3a6.28,6.28,0,0,1-6.7-5.8v-.4C66.06,13.4,66.26,9.9,66.26,6.3Z"/><path class="cls-1" d="M181.36,6.3h1.4c0,.4.1.8.1,1.1v8.8c.1,3.8,3.4,6.3,6.9,5.1a4.74,4.74,0,0,0,3.3-4.1c.2-2.3.2-4.6.2-6.9v-4h1.4a2.77,2.77,0,0,0,.1.9v9a6.7,6.7,0,0,1-13.4.1V7.2C181.26,7,181.36,6.7,181.36,6.3Z"/><path class="cls-1" d="M177.36,6.4V7.7h-5.6V22.8h-1.6V7.8h-5.6V6.4Z"/><path class="cls-1" d="M51.26,20.4l1-1.1a4.35,4.35,0,0,0,.6.7,4.25,4.25,0,0,0,4.5,1.5,3.71,3.71,0,0,0,2.4-3.9V6.4h1.5c0,.3.1.6.1.9V17.4c0,3-1.6,5.2-4.2,5.6A5.82,5.82,0,0,1,51.26,20.4Z"/><path class="cls-1" d="M219.76,22.8h-1.4V6.4h1.4Z"/><path class="cls-1" d="M42.86,2.3V26.9l-.3.1a2.92,2.92,0,0,1-.2-.9V3.4a4.25,4.25,0,0,1,.2-1.1Z"/></svg>