<svg id="Layer_1" data-name="Layer 1" xmlns="http://www.w3.org/2000/svg" viewBox="0 0 98.23 57.5"><defs><style>.cls-1{fill:#c1c7d0;}</style></defs><title>Artboard 18</title><path class="cls-1" d="M59.83,38.8h4.3l-.9,1.5a28.39,28.39,0,0,1-3.7,4.7l-.2.1c-.3.3-.4.3-.7,0l-1.4-1.5-2-2.1-4.8-5.2c-.1-.1-.2-.2-.2-.3a.45.45,0,0,1,0-.5h.1l2.9-2.4c1.2-1,2.4-2,3.5-3a5.92,5.92,0,0,0,1.8-3.7,5.31,5.31,0,0,0-1.2-4,7.71,7.71,0,0,0-4.7-2.8A11.78,11.78,0,0,0,47,20a8.47,8.47,0,0,0-3,1.5,5.17,5.17,0,0,0-2,3.9,7.11,7.11,0,0,0,.7,3.2,16.54,16.54,0,0,0,2.8,4.1c.7.7,1.3,1.5,2,2.2.3.3.2.5-.1.7-1.5,1.2-3,2.4-4.4,3.6a9.32,9.32,0,0,0-2.9,4.6,8.1,8.1,0,0,0-.2,3.8,6.62,6.62,0,0,0,2.7,4.2,10.11,10.11,0,0,0,4,1.7,9.8,9.8,0,0,0,4.5-.2A10.69,10.69,0,0,0,56,50.4c1-.9,1.9-1.8,2.8-2.7.3-.3.4-.3.7,0,.7.9,1.5,1.8,2.2,2.7l2.2,2.7,2.8,3.5c.1.1.1.2.2.2a.25.25,0,0,1-.1.4c-.1.1-.1.1-.2.1h-9c-.5,0-.6,0-.6-.5V53.1c0-.2-.1-.5-.4-.5a.76.76,0,0,0-.5.2,10.89,10.89,0,0,1-9.6,3.6,11.71,11.71,0,0,1-6.1-2.5,26.82,26.82,0,0,1-2.8-3l-.1-.1c-.3-.5-.5-.4-.8-.1l-1.5,1.5c-.9.9-1.9,1.7-2.8,2.5a12,12,0,0,1-5.1,2.1A44.22,44.22,0,0,1,21,57H3.83c-1.1,0-2.3-.1-3.4-.1-.3,0-.5-.2-.4-.5.1-.7.3-1.4.4-2.1.3-1.3.5-2.6.8-3.9.2-1.1.4-2.1.6-3.2s.5-2.5.7-3.7.5-2.5.7-3.7l.9-4.2c.7-2.9,1.3-5.7,2-8.6l1.5-6.3c.4-1.7.8-3.5,1.2-5.2a18.43,18.43,0,0,0,.5-2.5,1.09,1.09,0,0,1,1.1-1h10.7c3.3,0,6.5,0,9.8.1,1.1,0,2.2-.1,3.2-.1a6.72,6.72,0,0,1,4.3,1.6,15.82,15.82,0,0,1,2.7,3.1c.2.2.3.5.5.7s.4.4.8.2l2.2-.8a10.88,10.88,0,0,1,3-.7,16.08,16.08,0,0,1,3.1-.1,11.86,11.86,0,0,1,6.1,1.9,9.34,9.34,0,0,1,3.8,4.3,20.94,20.94,0,0,1,.8,2.3c0,.1,0,.1.1.2s.2.3.4.3.3-.1.4-.3c.2-.6.3-1.3.5-2l.9-4.3,1-4.8c.1-.3.1-.6.2-.9a.94.94,0,0,1,1.1-.8h19.6c1.6,0,3.2.1,4.8,0a6.2,6.2,0,0,1,3.2.9,8.58,8.58,0,0,1,3.3,3.5,6.94,6.94,0,0,1,.8,2.8,14.77,14.77,0,0,1,.1,2.1,14.71,14.71,0,0,1-.6,4.2,16.12,16.12,0,0,1-4.6,7.6c-.5.5-.9,1-1.4,1.5a.47.47,0,0,0-.1.7.1.1,0,0,0,.1.1,7.22,7.22,0,0,1,2.6,4,15.07,15.07,0,0,1,.3,5.2,15.44,15.44,0,0,1-.5,3.1A12.25,12.25,0,0,1,92,51.1a11.36,11.36,0,0,1-3.4,3.5,14.7,14.7,0,0,1-4,1.9,16.23,16.23,0,0,1-5.8.7,21.75,21.75,0,0,1-2.5-.1c-.2,0-.5-.1-.7-.1a.63.63,0,0,1-.5-.6c0-.2.1-.4.3-.4h0l1.7-.3,2.5-.3c1.1-.2,2.3-.4,3.4-.7a12,12,0,0,0,3.1-1.3,19.52,19.52,0,0,0,2.3-1.7,12,12,0,0,0,3.4-5.6,10.3,10.3,0,0,0,.6-3.5,7.11,7.11,0,0,0-1-3.5A9.24,9.24,0,0,0,88,35.7c-.7-.4-.7-.5-.1-1l3-2.7a16.13,16.13,0,0,0,4.7-7.8,8.81,8.81,0,0,0-1.2-6.7,6.73,6.73,0,0,0-3.6-2.8,6.9,6.9,0,0,0-2.5-.4H67.73a1,1,0,0,0-1.1.9h0c-.4,1.5-.7,3.1-1.1,4.6s-.7,2.9-1,4.3c-.6,2.5-1.2,5-1.7,7.5a9.36,9.36,0,0,1-.4,1.6.22.22,0,0,1-.2.2h-3V29.9L53,36l6.2,6.2Zm-31.6-3.9.8.8a13.66,13.66,0,0,1,2.3,2.5,6.68,6.68,0,0,1,1.3,4.1,8.15,8.15,0,0,1-.6,3.1,12,12,0,0,1-3.8,5.6,7.26,7.26,0,0,1-3.1,1.7,13.06,13.06,0,0,1-3.9.5H8.63a1.22,1.22,0,0,0-1.2.6,2,2,0,0,0,0,1.1c.1.5.2.5.6.5h5.9c2.5,0,5.1,0,7.6-.1,1.1,0,2.2,0,3.3-.1a15.94,15.94,0,0,0,3-.6,14.1,14.1,0,0,0,5.6-3.4,10.49,10.49,0,0,0,2.7-4.1,11.26,11.26,0,0,0,.4-6.3,7.65,7.65,0,0,0-3.3-4.9c-.4-.3-.9-.5-1.3-.8-.1-.1-.2-.2-.1-.4l.1-.1c.2-.1.4-.3.6-.4l3-2.7a19.07,19.07,0,0,0,3.1-3.8,11,11,0,0,0,1.6-5.3,10.23,10.23,0,0,0-.5-3.9,5.74,5.74,0,0,0-2.9-3.6A8.49,8.49,0,0,0,33,14H11.13c-.7,0-.7.2-.8.7-.5,2.3-1,4.6-1.4,6.9-.2,1-.5,2.1-.7,3.1-.3,1.4-.6,2.9-.9,4.3s-.6,2.9-.9,4.3c-.5,2.1-.9,4.3-1.3,6.4-.3,1.6-.7,3.1-1,4.7-.5,2.2-.9,4.5-1.4,6.8-.2,1-.5,2.1-.7,3.1-.1.6,0,.7.6.8H4a1.43,1.43,0,0,0,1.2-.6,6.89,6.89,0,0,0,.3-.8l1.5-6,1.9-7.5c.3-1.4.7-2.7,1-4.1.3-1.2.6-2.5.9-3.7L12,27.3c.5-1.9.9-3.7,1.4-5.6.4-1.6.8-3.1,1.2-4.7a.52.52,0,0,1,.2-.4,1.19,1.19,0,0,1,1.1-.4h11.8a15.53,15.53,0,0,1,3.1.3,5.94,5.94,0,0,1,4.5,4.4,7.72,7.72,0,0,1,0,3.7,14.36,14.36,0,0,1-2.8,5.5,26.51,26.51,0,0,1-3.4,3.3C29.23,34,28.73,34.4,28.23,34.9ZM14.73,51.6h5.2a14.69,14.69,0,0,0,4.6-.7A9.18,9.18,0,0,0,28,49a8.65,8.65,0,0,0,2.6-4.4,8.22,8.22,0,0,0,.1-3.5,8.86,8.86,0,0,0-2.2-4.3A5.79,5.79,0,0,0,26,35.3a7.49,7.49,0,0,0-2.1-.2l-10-.2a1.68,1.68,0,0,0-1.6,1,4.88,4.88,0,0,0-.3.7c-.4,1.6-.7,3.2-1.1,4.8s-.6,3.1-.9,4.6-.6,3-1,4.5c-.1.6.1.9.8,1h4.9Zm6.8-33.4h0l-4.6.1a1.15,1.15,0,0,0-1.3,1v.1L15,22.5c-.3,1.6-.7,3.2-1,4.9-.2,1.2-.5,2.5-.7,3.7-.1.7-.2,1.5-.3,2.2,0,.4,0,.5.5.6h10a6.13,6.13,0,0,0,2.7-.4,30.71,30.71,0,0,0,3.1-1.7,12.18,12.18,0,0,0,3.6-3.9,7.65,7.65,0,0,0,1.2-5.5,4.4,4.4,0,0,0-2.9-3.4,7.79,7.79,0,0,0-2.1-.4c-1-.1-2-.2-3-.2A37,37,0,0,0,21.53,18.2ZM40,39.6l4.9-4.7L40.23,30l-4.9,4.7Z"/><path class="cls-1" d="M79.53,16.4h6.9a4.68,4.68,0,0,1,2.8.9,7.8,7.8,0,0,1,2.4,3,8.75,8.75,0,0,1,.5,3.6A11.64,11.64,0,0,1,90,29.5a16.68,16.68,0,0,1-2.5,2.8c-.8.7-1.7,1.4-2.5,2.1-.3.3-.3.5,0,.8.8,1,1.7,2,2.5,3.1a8.1,8.1,0,0,1,1.4,5,9.47,9.47,0,0,1-.7,2.9,13.59,13.59,0,0,1-2.6,4.1,8.77,8.77,0,0,1-4.7,2.8,24.52,24.52,0,0,1-2.7.2h-5.1c-.4,0-.6-.1-.6-.5a1.7,1.7,0,0,1,0-1c.1-.2.2-.3.4-.3a7.57,7.57,0,0,1,1.5-.1h2.1c.7,0,1.2-.1,1.8-.1A10.13,10.13,0,0,0,85,48.1a6.58,6.58,0,0,0,1.7-4,8.52,8.52,0,0,0-.2-3.2A7.49,7.49,0,0,0,84,37.1a6.57,6.57,0,0,0-3.6-1.3c-2.3,0-4.7-.1-7-.1h-1.5c-.3,0-.4-.1-.4-.4V33.8c0-.3.2-.4.5-.4h7.1a11.6,11.6,0,0,0,10.3-6.8,7.27,7.27,0,0,0,.7-2.9,5.69,5.69,0,0,0-1.9-4.2,5.85,5.85,0,0,0-1.7-1,4.25,4.25,0,0,0-1.1-.2l-6.9-.1c-1.4,0-2.9-.1-4.3-.1h-1.3a.77.77,0,0,0-.8.7c-.2.9-.4,1.7-.6,2.6-.4,2-.9,4.1-1.3,6.1-.3,1.5-.6,3-1,4.4a1.17,1.17,0,0,1-1.1.9h-.2c-.3,0-.4-.2-.4-.6a14.35,14.35,0,0,1,.4-2.2c.5-2.3,1.1-4.6,1.6-7,.4-1.8.9-3.7,1.4-5.5a1.27,1.27,0,0,1,1.4-1.2h.2Z"/><path class="cls-1" d="M48.53,52.2A8.12,8.12,0,0,1,44,50.9a6.4,6.4,0,0,1-2.5-2.9,5.13,5.13,0,0,1,0-4.2,11.3,11.3,0,0,1,3.2-4.3A20.44,20.44,0,0,1,48,37c.7-.4,1-.3,1.6.3l2.8,3.1,3.5,4,1.2,1.3a1,1,0,0,1,.1,1.6h0a12.78,12.78,0,0,1-6,4.5A12.59,12.59,0,0,1,48.53,52.2Zm1-2.9c.4-.1,1.1-.2,1.7-.3a3.1,3.1,0,0,0,1.8-.9.67.67,0,0,0,.1-1L53,47c-.3-.4-.7-.8-1-1.2-.9-1.1-1.8-2.1-2.7-3.2l-1.9-2.2c-.2-.2-.3-.3-.6-.1a7.69,7.69,0,0,0-2.2,3.2,4,4,0,0,0,.2,3.2,5.48,5.48,0,0,0,4.7,2.6Z"/><path class="cls-1" d="M71.43,57.5h-1.2a1.23,1.23,0,0,1-1-.5c-1-1.1-2-2.2-3-3.4s-2.2-2.5-3.3-3.7c-.8-.8-1.5-1.7-2.2-2.5a1.09,1.09,0,0,1-.1-1.5h0l1.8-2.7c1-1.4,1.9-2.8,2.9-4.2.5-.8,1-1.6,1.5-2.3a2.6,2.6,0,0,1,2.6-1c.4.1.5.3.4.6a18,18,0,0,1-.8,2.1,47.5,47.5,0,0,1-3.1,5.9,1.36,1.36,0,0,0-.2,1.6c.2.3.3.5.5.8l3.7,5.4,3.2,4.6c.1.1.1.2.2.2.2.4.1.6-.4.6Z"/><path class="cls-1" d="M56.93,26.1a4.76,4.76,0,0,1-1.4,3.4,13.51,13.51,0,0,1-3.2,2.6c-1,.6-2.1,1.3-3.2,1.9a.48.48,0,0,1-.7,0,19.48,19.48,0,0,1-3.9-4.2,7,7,0,0,1-1.2-3.4,4.63,4.63,0,0,1,1.5-4,6.77,6.77,0,0,1,3.1-1.4,10.24,10.24,0,0,1,3.9.1,8.24,8.24,0,0,1,3.8,2A4.82,4.82,0,0,1,56.93,26.1Zm-10.2.2c0,.3.1.6.1.9a6.06,6.06,0,0,0,1.6,2.8,1.92,1.92,0,0,0,2.7.3h0a5.6,5.6,0,0,0,2.5-4,2.83,2.83,0,0,0-1.4-2.9,3.39,3.39,0,0,0-2.6-.4,3.61,3.61,0,0,0-2.9,3.3Z"/><path class="cls-1" d="M78,31.2l-3.2-.4a.46.46,0,0,1-.4-.5v-.1c.1-.6.2-1.2.3-1.9.4-1.8.7-3.5,1.1-5.3.1-.5.3-1,.4-1.6a.64.64,0,0,1,.8-.6c1.4,0,2.8-.1,4.2,0a4.56,4.56,0,0,1,2.3.5,2.84,2.84,0,0,1,1.2,2.1,6.89,6.89,0,0,1-.1,3.2,5.36,5.36,0,0,1-4.2,4.1l-1.2.3a4.3,4.3,0,0,1-1.2.2Zm.7-8.6h-.6c-.6,0-.7.1-.8.7-.4,1.8-.7,3.5-1.1,5.2-.1.4,0,.5.3.6l1.7.3a7.77,7.77,0,0,0,1.6-.2A3.83,3.83,0,0,0,83,24.9a2.24,2.24,0,0,0-2.2-2.3h-2.1Z"/><path class="cls-1" d="M76.13,38.1c1,.1,1.9.1,2.9.2a2.65,2.65,0,0,1,2.3,2.3,6.56,6.56,0,0,1,.1,2A5.73,5.73,0,0,1,78,47.8a10.15,10.15,0,0,1-2.5.6,22.88,22.88,0,0,1-3.7-.1,4.33,4.33,0,0,1-.5-.1c-.3-.1-.4-.4-.3-1,.6-2.6,1.1-5.1,1.7-7.7a4.33,4.33,0,0,1,.1-.5.76.76,0,0,1,.8-.6h2.6v-.3Zm.4,1.7v.1h-2c-.5,0-.6.1-.7.6-.3,1.3-.5,2.6-.8,3.9-.1.5-.2.9-.3,1.3s-.1.6.3.7a6.93,6.93,0,0,0,2,.3,6.28,6.28,0,0,0,1.9-.3,3.82,3.82,0,0,0,2.5-2.3,5,5,0,0,0,.2-2.1A2,2,0,0,0,78,40,7.72,7.72,0,0,0,76.53,39.8Z"/><path class="cls-1" d="M96.93,6.1V1.7h1.3V7.9h-1.7a.22.22,0,0,1-.2-.2l-2.4-4V3.6l-.1.1V8h-1.4V2c0-.3.1-.4.3-.4H94a.52.52,0,0,1,.4.2c.6,1,1.2,2,1.8,2.9Z"/><path class="cls-1" d="M36.23,8h-1.7a.22.22,0,0,1-.2-.2c-.8-1.4-1.7-2.7-2.5-4.1a.35.35,0,0,0-.2-.1V7.9h-1.3V1.7H32q.15,0,.3.3l2.1,3.4a4.35,4.35,0,0,1,.4.7V1.7h1.4Z"/><path class="cls-1" d="M87.63,1.6a3.12,3.12,0,0,1,3,1.6,3.24,3.24,0,0,1-1.1,4.5,3,3,0,0,1-.8.4,4,4,0,0,1-3.2-.5,2.91,2.91,0,0,1-1.2-2.7,3.08,3.08,0,0,1,1.8-2.8,2.1,2.1,0,0,1,1.5-.5Zm2,3.3a2,2,0,1,0-3.9.1,2,2,0,0,0,3.9.1c-.1-.1-.1-.2,0-.2Z"/><path class="cls-1" d="M52.53,8.1a3,3,0,0,1-3-1.7A3.17,3.17,0,0,1,50.83,2a1.93,1.93,0,0,1,1-.3,3.37,3.37,0,0,1,3.2.9,3,3,0,0,1,.8,2,3,3,0,0,1-.5,2.1,3,3,0,0,1-2.6,1.4Zm0-1.2a1.89,1.89,0,0,0,2-1.8V4.9a1.81,1.81,0,0,0-1.6-2h-.4a1.74,1.74,0,0,0-1.9,1.7v.3a1.91,1.91,0,0,0,1.9,2Z"/><path class="cls-1" d="M20.53,5.3l1.6,2.6h-1.6c-.1,0-.1-.1-.2-.2-.3-.6-.7-1.3-1-1.9-.2-.4-.3-.5-.9-.4V7.9H17V1.7h.3a26.2,26.2,0,0,1,2.8.1,1.78,1.78,0,0,1,1.6,1,1.82,1.82,0,0,1-.8,2.4c-.1,0-.2.1-.3.1Zm-2-1c.6-.1,1.1-.1,1.6-.2.3,0,.4-.3.4-.6a.55.55,0,0,0-.4-.6,4.33,4.33,0,0,0-1.6-.1Z"/><path class="cls-1" d="M58.63,5.5V8h-1.3V1.7h.1c1,0,2,0,3,.1a1.88,1.88,0,0,1,1.8,1.9,2.1,2.1,0,0,1-.4,1.1,5.5,5.5,0,0,1-.9.7L62.43,8h-1.6c-.1,0-.1-.1-.2-.2-.3-.6-.7-1.2-1-1.8S59.33,5.4,58.63,5.5Zm0-1.2h1.3a.85.85,0,0,0,.8-.7.67.67,0,0,0-.6-.7,5.7,5.7,0,0,0-1.3-.1Z"/><path class="cls-1" d="M29.13,7.9h-1.5l-.5-1.3h-2.3a.22.22,0,0,0-.2.2,4.87,4.87,0,0,0-.4,1.1h-1.5c.4-1,.8-1.9,1.2-2.8s.9-2.1,1.3-3.1a.55.55,0,0,1,.5-.3c.6-.1.9.1,1.1.7.7,1.8,1.5,3.6,2.3,5.4Zm-2.5-2.4-.8-2-.8,2Z"/><path class="cls-1" d="M68.93,8h-1.5c.3-.8.7-1.6,1-2.4.5-1.2,1-2.4,1.5-3.5a.66.66,0,0,1,.5-.4c.8,0,.8,0,1,.7.8,1.8,1.5,3.6,2.3,5.4,0,.1,0,.1.1.2h-1.4a.22.22,0,0,1-.2-.2,6.89,6.89,0,0,0-.4-1c-.1-.1-.2-.2-.3-.2h-2.1a.22.22,0,0,0-.2.2Zm1.8-4.4h0l-.8,1.9h1.5Z"/><path class="cls-1" d="M44.83,5.5V7.9h-1.3V1.7h0c1.1,0,2.2,0,3.3.1a1.5,1.5,0,0,1,1.3,1.5,2.77,2.77,0,0,1-.1.9,1.62,1.62,0,0,1-1.6,1.2c-.3,0-.5.1-.8.1Zm0-1.1a5.28,5.28,0,0,0,1.3-.1.63.63,0,0,0,.5-.6.57.57,0,0,0-.4-.7,2.57,2.57,0,0,0-1.5-.1V4.4Z"/><path class="cls-1" d="M37.53,7.3l.9-1c.3.2.7.3,1,.5a2,2,0,0,0,.8-.1.66.66,0,0,0,.4-.5.71.71,0,0,0-.3-.6c-.4-.2-.8-.3-1.2-.5a1.86,1.86,0,0,1-1.2-.9,2,2,0,0,1,.9-2.5,3.12,3.12,0,0,1,3.1.2L42,2l-.9,1a1.57,1.57,0,0,0-1.3-.4.63.63,0,0,0-.6.5.44.44,0,0,0,.1.5h0c.5.2.9.4,1.4.6.8.3,1.3.8,1.3,1.5a1.69,1.69,0,0,1-1.2,1.9,2.69,2.69,0,0,1-3.3-.3Z"/><path class="cls-1" d="M79.13,6.2l1.1.8a2.8,2.8,0,0,1-2.8,1.1,2.9,2.9,0,0,1-2.7-2.7,3.1,3.1,0,0,1,1.8-3.5,3.21,3.21,0,0,1,3.7.6l-1,.9a1.53,1.53,0,0,0-1.9-.3,1.85,1.85,0,0,0-1.1,1.7,2,2,0,0,0,.4,1.5,1.7,1.7,0,0,0,2.3.4l.2-.2Z"/><path class="cls-1" d="M67.63,2.9h-1.7v5h-1.4v-5h-1.8V1.7h4.9Z"/><path class="cls-1" d="M15.93,1.7V2.9h-1.5c-.3,0-.4.1-.4.4V8h-1.3V3h-1.8V1.7Z"/><path class="cls-1" d="M81.53,7.9V1.7h1.3V7.9Z"/><path class="cls-1" d="M89.43,0A13.44,13.44,0,0,1,88,1.1a1.27,1.27,0,0,1-.6.1h-.7l.8-1.1c.1-.1.1-.1.2-.1Z"/><path class="cls-1" d="M18.43,48.7c-1.2-.1-2.1-.2-3.1-.3-.7-.1-.9-.4-.7-1,.4-1.9.8-3.7,1.2-5.5l.6-2.7c.1-.5.3-.8.9-.8,1.4,0,2.8-.1,4.2,0a5.82,5.82,0,0,1,1.9.3A2.81,2.81,0,0,1,25,41a6.51,6.51,0,0,1-.1,3.1,5.68,5.68,0,0,1-4.1,4.1A7.36,7.36,0,0,1,18.43,48.7Zm4.9-5.9v-.6A2.59,2.59,0,0,0,22,40.3l-1.8-.3c-.7,0-1.4.1-2,.1-.4,0-.5.1-.6.5s-.2.9-.3,1.3l-.9,4a.45.45,0,0,0,.3.6h.1a5.33,5.33,0,0,0,2.5.2,5.81,5.81,0,0,0,2.5-.9,3.22,3.22,0,0,0,1.5-3Z"/><path class="cls-1" d="M21.73,31l-2.8-.3c-.5,0-.8-.4-.7-1,.5-2.2,1-4.5,1.4-6.7l.3-1.5a.82.82,0,0,1,.9-.8h3.6a8.2,8.2,0,0,1,2.2.2,3,3,0,0,1,2,2.5,10.45,10.45,0,0,1,0,2.5,5.68,5.68,0,0,1-1.2,2.6,6,6,0,0,1-3.9,2.2A11.27,11.27,0,0,1,21.73,31Zm1.9-8.6-2,.1a.66.66,0,0,0-.5.4h0l-1.2,5.4c-.1.4,0,.6.4.7a5.78,5.78,0,0,0,3.2.1,4.52,4.52,0,0,0,2.4-1.4,3.85,3.85,0,0,0,.8-3.4A2,2,0,0,0,25,22.5,7.08,7.08,0,0,0,23.63,22.4Z"/></svg>