<svg id="Layer_1" data-name="Layer 1" xmlns="http://www.w3.org/2000/svg" viewBox="0 0 103.1 84.6"><defs><style>.cls-1{fill:#c1c7d0;}.cls-2{fill:#ebecf0;}</style></defs><title>Artboard 21</title><path class="cls-1" d="M19.8,79.4l-2.2,5h.8l.5-1.2h2.4l.5,1.2h.8l-2.1-5ZM21,82.6H19.2l.9-2.3h0Z"/><polygon class="cls-1" points="26.7 79.4 26 79.4 26 84.4 29 84.4 29 83.8 26.7 83.8 26.7 79.4"/><rect class="cls-1" x="32.5" y="79.4" width="0.7" height="5"/><polygon class="cls-1" points="39.9 83.2 39.9 83.2 38.3 79.4 37.3 79.4 37.3 84.4 37.9 84.4 37.9 80.3 38 80.3 39.6 84.4 40.1 84.4 41.8 80.3 41.8 80.3 41.8 84.4 42.5 84.4 42.5 79.4 41.5 79.4 39.9 83.2"/><polygon class="cls-1" points="47.3 82.2 49.6 82.2 49.6 81.6 47.3 81.6 47.3 80.1 49.8 80.1 49.8 79.4 46.6 79.4 46.6 84.4 50 84.4 50 83.8 47.3 83.8 47.3 82.2"/><polygon class="cls-1" points="57.4 83.5 57.4 83.5 54.6 79.4 53.7 79.4 53.7 84.4 54.4 84.4 54.4 80.3 54.4 80.3 57.2 84.4 58.1 84.4 58.1 79.4 57.4 79.4 57.4 83.5"/><polygon class="cls-1" points="61.5 80.1 63.2 80.1 63.2 84.4 63.9 84.4 63.9 80.1 65.5 80.1 65.5 79.4 61.5 79.4 61.5 80.1"/><path class="cls-1" d="M73.9,81.3l-.1-.4-.2-.5-.3-.4-.4-.3-.4-.2-.6-.2h-.7l-.5.1-.4.1-.5.3-.3.3-.3.4-.2.4-.2.6v.6l.1.5.1.4.2.5.3.4.4.3.4.2.1.1.4.1h.7l.5-.1.4-.1.5-.2.3-.3.3-.4.2-.4.2-.6V81.3Zm-.7.9v.3l-.1.2-.1.2-.1.2-.2.2-.2.2-.2.1-.2.1-.2.1H70.7l-.2-.1-.2-.1-.2-.1-.2-.2-.2-.2-.1-.2-.1-.2-.1-.2v-1l.1-.2.1-.2.1-.2.2-.2.2-.2.2-.1.2-.1.2-.1h1.2l.2.1.2.1.2.1.2.2.2.2.1.2.1.2.1.2v.7Z"/><polygon class="cls-1" points="80.6 82.5 80.4 82.3 80.3 82.1 80.2 82 80 81.9 79.8 81.8 79.6 81.7 79.4 81.7 79.2 81.6 79 81.5 78.8 81.5 78.6 81.4 78.5 81.3 78.4 81.2 78.3 81.1 78.2 80.9 78.2 80.6 78.2 80.5 78.3 80.3 78.5 80.1 78.6 80.1 78.7 80 78.8 80 79 80 79.4 80 79.5 80 79.7 80.1 79.8 80.2 80 80.2 80 80.4 80.6 79.9 80.4 79.7 80.2 79.5 79.9 79.4 79.7 79.4 79.4 79.3 78.9 79.3 78.6 79.4 78.4 79.5 78.2 79.6 78 79.7 77.9 79.8 77.7 79.9 77.6 80.1 77.6 80.2 77.5 80.4 77.5 80.6 77.5 81 77.5 81.3 77.7 81.5 77.8 81.7 77.9 81.8 78.1 81.9 78.3 82 78.5 82.1 78.7 82.2 78.9 82.2 79.1 82.3 79.3 82.4 79.5 82.4 79.6 82.5 79.7 82.6 79.9 82.7 79.9 82.9 79.9 83.2 79.9 83.3 79.8 83.4 79.8 83.5 79.7 83.6 79.6 83.7 79.5 83.7 79.4 83.8 79.3 83.8 79.2 83.9 79 83.9 78.7 83.9 78.5 83.8 78.4 83.8 78.2 83.7 78 83.5 77.9 83.4 77.3 83.8 77.5 84.1 77.7 84.2 78 84.4 78.4 84.5 78.9 84.5 79.1 84.5 79.4 84.5 79.6 84.4 79.8 84.3 80 84.2 80.1 84.1 80.3 84 80.4 83.8 80.5 83.6 80.6 83.4 80.6 83.2 80.6 82.7 80.6 82.5"/><path class="cls-1" d="M90.4,45.1,77.2,73.3h4.3l3-6.5H95.9l2.8,6.5h4.4Zm-4.2,18,4.1-9,3.9,9Z"/><rect class="cls-1" y="46.7" width="4" height="26.6"/><polygon class="cls-1" points="31.8 46.7 27.2 46.7 21.8 55.7 16.8 46.7 12.2 46.7 19.5 59.4 11.1 73.3 15.7 73.3 21.8 63.1 27.6 73.3 32.1 73.3 24.1 59.4 31.8 46.7"/><polygon class="cls-1" points="36.4 50.5 42.5 50.5 42.5 73.3 46.5 73.3 46.5 50.5 52.6 50.5 52.6 46.7 36.4 46.7 36.4 50.5"/><polygon class="cls-1" points="63.7 46.7 59.7 46.7 59.7 73.3 71.5 73.3 71.5 69.5 63.7 69.5 63.7 46.7"/><path class="cls-1" d="M74.5,17.3l-.1-.5-.1-.5-.1-.5-.1-.5-.1-.4-.3-.9-.3-.8-.1-.2,1.7-.8-.6-1.1-1.7.9-.2-.4-.5-.7-.6-.7-.7-.6-.6-.5-.9-.6-.9-.6-.9-.5L66.5,7l-1-.3-1-.2-1-.1H62l-1.1.1-1,.2-.9.2-.9.3-.8.4-.8.4-.8.5L55,9l-.7.6-.7.7L53,11l-.2.2h0l-.2.2-.1.2-.1.2V10.2l-.1-.5-.1-.5-.1-.5L52,8.2l-.1-.4-.2-.4L51.5,7l-.2-.4-.2-.4-.2-.4-.2-.4L50.4,5l-.3-.4-.4-.5-.3-.3-.3-.3-.3-.3-.3-.3-.4-.3-.3-.3L47.4,2,47,1.8l-.4-.2-.4-.2-.4-.2-.4-.1L44.9,1h-.2l-.1.5-.1.5V4.9l.1.5.1.5.1.4.1.5.1.4.2.4.2.4.2.4h0l.2.4.2.4.2.4.3.4.3.4.3.4.3.4.3.3.3.3.3.3.3.2.4.3.4.3.4.2.4.2.4.2.4.2.4.2.3.1-.2.4-.2.4-.1.4v.1l-.1.2-.1.2-.1.2h0l-.2-.1-.2-.1-.2-.1-.4-.1-.4-.1-.4-.2-.6-.3-.4-.2-.4-.2-.4-.2-.4-.2-.4-.3-.4-.3-.5-.4-.3-.3-.3-.3-.3-.3-.3-.3-.3-.4-.3-.4-.3-.4-.2-.4-.2-.4-.2-.4-.2-.4-.2-.4-.2-.5-.2-.5L42,7.3l-.1-.4V3.4l-.2-.8-.3-.8-.3-.4L40.8,1,40.4.6,39.9.3,39.3.1,38.7,0H38l-.5.1L37,.2l-.4.2-.4.3-.3.3-.3.4-.2.4-.1.3-.2.4-.1.4-.1.5V4.5H33.1V5.6h1.8V23.1l.1.4.1.4.1.5.1.4.1.5.1.5.1.5.2.5.2.5.2.5.2.4.2.4.2.4.2.4.2.4.2.4.2.4.3.4.3.4.3.3.3.3.3.3.3.3.5.4.4.3.4.3.4.2.4.2.4.2.4.2.4.2.4.2.4.2.4.1.4.1.4.1.4.1.5.1.5.1h1.2l-3.4,3.9.7.8,3.6-4.1,3.6,4.1.7-.8-3.5-4,.4-.1.4-.1.4-.1.4-.1L51,35l.4-.1.4-.1.4-.1.4-.2.4-.2.4-.2.4-.2.4-.2.4-.2.4-.2.4-.2.4-.2.4-.3.4-.3L57,32l.3-.3.3-.3.3-.3.3-.3.3-.3.3-.3v-.1l.4.1.4.1.4.1.5.1.5.1h.2V19l.3.5.3.4.4.4.4.4.4.3.2.1h0l.4.2.2.1.2.1.5.2.5.2.5.1h.2l.4.1h1.8l.5-.1H69l.4.1.4.2.4.2.4.4.1.1.2.3.2.4.1.4v.8l-.1.4-.2.4-.3.4-.2.2.1.2.1.1.1.2.2.3.6-.6.5-.7.5-.8.3-.5.2-.4.4-.8.3-.9.2-.9.2-.9.1-.9V18.2Z"/><polygon class="cls-2" points="60.7 12.2 60.2 12.5 59.6 12.9 59 13.2 58.4 13.5 57.8 13.7 57.2 14 56.5 14.1 55.9 14.3 55.2 14.4 54.5 14.4 53.8 14.5 53.4 14.4 53 14.4 52.5 14.4 52.1 14.3 51.9 14.8 51.7 15.2 51.6 15.7 51.5 16.1 51.4 16.6 51.3 17.1 51.3 17.5 51.2 18 51.2 18.5 51.2 19 51.3 19.4 51.3 19.9 51.4 20.3 51.4 20.8 51.6 21.3 51.7 21.7 51.8 22.2 52 22.6 52.2 23 52.4 23.4 52.6 23.1 52.9 22.8 53.2 22.4 53.5 22.1 53.8 21.7 54.1 21.4 54.4 21.1 54.8 20.8 55.1 20.5 55.5 20.3 55.9 20 56.2 19.8 56.6 19.6 57 19.4 57.4 19.2 57.9 19 58.3 18.8 58.7 18.7 59.2 18.6 59.6 18.4 60.1 18.3 60.5 18.3 60.5 17.4 60.5 16.5 60.5 16.1 60.6 15.5 60.6 15 60.7 14.6 60.8 14 61 13.5 61.3 13.1 61.5 12.6 61.8 12.2 62.1 11.8 62.5 11.4 62.9 11.1 63.3 10.8 63.7 10.5 64.2 10.3 64.6 10.1 65.1 9.9 65.6 9.8 66.1 9.7 66.7 9.7 67.2 9.7 67.7 9.8 68.3 9.9 68.8 10.1 69.2 10.2 69.6 10.4 70 10.6 70.4 10.8 70 10.4 69.7 10.1 69.4 9.8 69 9.5 68.6 9.3 68.2 9 67.8 8.8 67.4 8.6 67 8.4 66.5 8.2 66.1 8 65.6 7.9 65.2 7.8 64.7 7.7 64.3 7.6 64 8.2 63.7 8.7 63.3 9.3 63 9.8 62.6 10.4 62.1 10.8 61.7 11.3 61.2 11.7 60.7 12.2"/><polygon class="cls-2" points="40.4 4 40.4 3.5 40.3 3.1 40.2 2.7 40.1 2.4 39.9 2 39.6 1.6 39.2 1.3 38.8 1.1 38.4 1 38.3 1 38 1 37.8 1 37.6 1 37.1 1.1 36.7 1.2 36.3 1.4 36 1.8 35.8 2.1 35.6 2.4 35.4 2.9 35.3 3.3 35.3 3.8 35.3 4.3 35.3 4.7 35.3 5 35.3 6.2 35.3 8.5 35.3 20.5 35.3 21 35.3 21.9 35.3 22.6 35.4 23.4 35.5 24.3 35.8 25.2 36 26.1 36.2 26.7 36.8 26.9 37.7 27 38.6 27.1 39 27.1 39.4 27.1 40.3 27 41.2 26.9 41.7 26.8 42.2 26.6 42.7 26.5 43.1 26.3 44.1 25.9 44.9 25.4 45.7 24.9 46.5 24.3 47.2 23.6 47.8 22.8 48.1 22.4 48.4 22 48.7 21.6 49 21.1 49.3 20.4 49.7 19.6 50 18.7 50.2 17.8 50.3 16.9 50.2 16.9 50 16.8 49.8 16.8 49.6 16.7 49.1 16.6 48.3 16.2 47.7 16 47.2 15.8 46.7 15.5 46.2 15.2 45.8 14.9 45.3 14.6 44.9 14.3 44.4 13.9 44 13.6 43.7 13.2 43.3 12.8 43 12.4 42.6 12 42.3 11.5 42 11.1 41.8 10.6 41.5 10.1 41.3 9.6 41 9.1 40.8 8.6 40.7 8.1 40.6 7.6 40.5 7.2 40.4 6.8 40.4 6.4 40.4 6 40.4 5.7 40.5 5.3 40.4 4.8 40.4 4.3 40.4 4"/><polygon class="cls-2" points="53 24.6 53.2 24.9 53.4 25.2 53.7 25.6 54 26 54.3 26.3 54.7 26.7 55 27 55.4 27.3 55.7 27.6 56.1 27.8 56.5 28.1 56.9 28.3 57.3 28.5 57.7 28.7 58.1 28.9 58.6 29.1 59.2 29.3 59.6 29.4 60.1 29.5 60.5 29.7 60.5 19.2 60.4 19.2 60.3 19.2 59.7 19.3 59.2 19.5 58.7 19.6 58.3 19.8 57.9 20 57.4 20.2 57 20.4 56.6 20.6 56.2 20.9 55.9 21.1 55.5 21.4 55.1 21.7 54.8 22 54.5 22.3 54.1 22.7 53.8 23 53.5 23.4 53.3 23.8 53 24.2 52.9 24.3 52.9 24.4 53 24.6"/><polygon class="cls-2" points="72.4 15.9 72.3 15.3 72.3 14.8 72.1 14.3 72 13.8 71.8 13.4 71.5 13 71.2 12.6 70.9 12.2 70.6 11.8 70.2 11.5 69.8 11.2 69.4 11 68.9 10.8 68.4 10.6 67.9 10.5 67.4 10.4 66.9 10.4 66.9 10.4 66.3 10.4 65.8 10.5 65.3 10.6 64.9 10.8 64.4 11 64 11.2 63.6 11.5 63.2 11.8 62.8 12.2 62.5 12.6 62.2 13 62 13.4 61.8 13.9 61.6 14.3 61.5 14.8 61.4 15.3 61.4 15.9 61.4 15.9 61.4 16.4 61.5 16.9 61.6 17.4 61.8 17.9 62 18.4 62.3 18.8 62.5 19.2 62.9 19.6 63.2 19.9 63.6 20.2 64 20.5 64.4 20.8 64.9 21 65.4 21.1 65.9 21.3 66.4 21.3 66.9 21.4 66.9 21.4 67.4 21.3 68 21.2 68.4 21.1 68.9 21 69.4 20.8 69.8 20.5 70.2 20.2 70.6 19.9 70.9 19.6 71.3 19.2 71.5 18.8 71.8 18.3 72 17.9 72.1 17.4 72.3 16.9 72.3 16.4 72.4 15.9"/><polygon class="cls-1" points="70 15.3 70.5 15.4 70.5 14.9 70.5 14.5 70.3 14.1 70.1 13.7 69.8 13.4 69.4 13.2 69 13.1 68.9 13.6 69.3 13.8 69.7 14.1 69.9 14.4 70 14.9 70 15.3"/><polygon class="cls-2" points="73.6 19.4 73.6 19.2 73.6 18.6 73.6 18.1 73.5 17.5 73.5 17 73.4 16.5 73.4 16 73.3 15.7 73.2 15.3 73.1 15.2 73.1 15.6 73.1 16.1 73.1 16.6 73 17 72.9 17.4 72.8 17.9 72.7 18.3 72.5 18.7 72.3 19.1 72 19.5 71.8 19.8 71.5 20.2 71.1 20.5 70.8 20.8 70.4 21.2 70.4 21.2 70.8 21.4 71.2 21.7 71.5 22 71.8 22.3 72.1 22.7 72.3 23.2 72.4 23.6 72.5 23.3 72.7 22.9 72.9 22.5 73.1 22.1 73.2 21.6 73.3 21.2 73.4 20.7 73.5 20.3 73.5 19.8 73.6 19.4"/><polygon class="cls-2" points="56.3 9.3 55.9 9.6 55.5 9.8 55.1 10.2 54.8 10.5 54.4 10.8 54.1 11.1 53.8 11.5 53.6 11.8 53.3 12.2 53 12.6 52.8 12.9 52.6 13.3 53 13.4 53.4 13.4 53.9 13.4 54.5 13.4 55.1 13.3 55.7 13.2 56.3 13.1 56.9 13 57.5 12.8 58 12.6 58.5 12.3 59 12 59.5 11.7 60 11.4 60.5 11.1 60.9 10.7 61.3 10.3 61.7 9.8 62.1 9.4 62.4 8.9 62.7 8.4 63 7.9 63.3 7.4 63.2 7.4 62.8 7.4 62.3 7.4 61.9 7.4 61.4 7.4 61 7.5 60.5 7.6 60.1 7.6 59.7 7.7 59.2 7.9 58.8 8 58.4 8.2 57.9 8.4 57.5 8.6 57.1 8.8 56.7 9 56.3 9.3"/><polygon class="cls-2" points="51.3 12.7 51.3 12.6 51.3 12.1 51.3 11.6 51.3 11 51.3 10.4 51.1 9.8 51 9.2 50.9 8.6 50.7 8 50.4 7.5 50.2 7 49.9 6.4 49.6 5.9 49.3 5.5 48.9 5 48.5 4.6 48.1 4.1 47.6 3.7 47.2 3.4 46.7 3 46.2 2.7 45.7 2.4 45.2 2.2 45.1 2.3 45.1 2.8 45.1 3.2 45.1 3.9 45.2 4.5 45.3 5.1 45.4 5.7 45.6 6.3 45.8 6.8 46 7.4 46.2 7.9 46.5 8.4 46.8 8.9 47.2 9.4 47.5 9.9 47.9 10.3 48.3 10.7 48.8 11.1 49.2 11.5 49.7 11.8 50.2 12.1 50.7 12.4 51.3 12.7"/><polygon class="cls-2" points="36.7 27.9 37.1 28.7 37.6 29.5 38.1 30.3 38.7 31 39.4 31.6 40.1 32.2 40.8 32.8 41.6 33.2 42.4 33.6 43.4 34 44.3 34.3 45.2 34.5 46.1 34.6 47 34.7 47.4 34.7 47.9 34.7 48.9 34.6 49.9 34.4 50.9 34.2 51.8 33.9 52.8 33.5 53.7 33.1 54.6 32.6 55.4 32.1 56.2 31.4 57 30.8 57.7 30.2 58 29.8 57.8 29.7 57.4 29.6 57 29.4 56.6 29.2 56.1 28.9 55.7 28.6 55.3 28.4 55 28.1 54.6 27.8 54.3 27.5 53.9 27.2 53.6 26.8 53.3 26.5 53 26.2 52.7 25.8 52.5 25.4 52.2 25.1 52 24.7 51.7 24.2 51.5 23.8 51.3 23.4 51.2 23.1 51 22.6 50.9 22.2 50.8 21.8 50.6 21.3 50.6 20.9 50.5 20.4 50.3 20.9 50.1 21.3 49.9 21.7 49.7 22.1 49.4 22.5 49.2 22.8 48.9 23.2 48.6 23.6 48.3 23.9 48 24.2 47.7 24.6 47.4 24.9 47 25.2 46.6 25.5 46.2 25.7 45.8 26 45.4 26.3 44.8 26.6 44.4 26.8 44 27 43.6 27.2 43.2 27.4 42.7 27.5 42.3 27.7 41.9 27.8 41.4 27.9 41 27.9 40.5 28 40 28.1 39.6 28.1 39.1 28.1 38.7 28.1 38.3 28.1 37.8 28 37.4 28 36.9 27.9 36.7 27.9"/><circle class="cls-1" cx="58.1" cy="24.3" r="0.7"/><circle class="cls-1" cx="37.8" cy="3.6" r="0.9"/></svg>