<svg id="Layer_1" data-name="Layer 1" xmlns="http://www.w3.org/2000/svg" viewBox="0 0 142.4 77.1"><defs><style>.cls-1{fill:#c1c7d0;}</style></defs><title>Artboard 25</title><path class="cls-1" d="M70.9,50a25,25,0,1,1,25-25h0A25,25,0,0,1,70.9,50Zm0-49A23.9,23.9,0,1,0,94.8,24.9,23.9,23.9,0,0,0,70.9,1Z"/><path class="cls-1" d="M70.8,38.5a4.43,4.43,0,0,1-1.5-1.2c-.2-.3.2-.9.4-1.3a.6.6,0,0,0,.1-.4c.2-1.5.5-3,.6-4.6a46.85,46.85,0,0,0,0-5.3c-.2-3.6-.3-7.1-.7-10.7a6.43,6.43,0,0,0-1-2.4,2.08,2.08,0,0,1,.7-2.4,3.53,3.53,0,0,1,3.3.5c.8.6.5,1.2.2,1.9a12.23,12.23,0,0,0-1,2.4c-.3,5.3-1,10.6-.6,16,.1,1.5.4,3.1.6,4.6,0,.1,0,.3.1.3a.88.88,0,0,1,.5,1.2.35.35,0,0,1-.1.2A4.19,4.19,0,0,1,70.8,38.5Z"/><path class="cls-1" d="M73.3,29.3a6.11,6.11,0,0,1,1.4.7c1.1.6,2.3,1.1,3.4,1.7a.37.37,0,0,0,.3.1c1.2-.2,2.4.5,3.6,0,.2-.1.5,0,.6-.1.4-1,1.3-1.2,2.1-1.6l1.6.6c-.2.6.5,1.1.2,2a3.84,3.84,0,0,1-4.8,2.6c-.1,0-.2-.1-.3-.1-.8-.3-1.7-.5-2.5-.8a14,14,0,0,1-4.4-2.9,3.92,3.92,0,0,1-.8-1,10.91,10.91,0,0,1-.6-1.1Z"/><path class="cls-1" d="M59.1,35.5c-1.7-.3-3.7-.8-3.9-3.2,0-.6.2-1.6.4-1.6.7-.1,1.1-.8,2-.4a5.83,5.83,0,0,1,1.5,1.1,4.55,4.55,0,0,0,2,.5c.2,0,.5-.1.8-.1a6.89,6.89,0,0,0,3.9-1.2c.8-.5,1.6-.9,2.4-1.3h.4s.2.4.1.5a6.55,6.55,0,0,1-1.5,1.8,33,33,0,0,1-5.1,3.1A7.41,7.41,0,0,1,59.1,35.5Z"/><path class="cls-1" d="M68.9,26.3a8,8,0,0,1-3.4,1.8,9.38,9.38,0,0,1-4.4.5c-1.8-.3-3.5-1-4.3-2.9a2,2,0,0,1,.9-2.2c1.1-.6,1.8-.5,2.3.4.3.5.5,1.3,1,1.5a9.58,9.58,0,0,0,3.2,1.2,19.92,19.92,0,0,0,4.2-.4A1.09,1.09,0,0,1,68.9,26.3Z"/><path class="cls-1" d="M73.1,26.3a.75.75,0,0,1,.5-.1,34.25,34.25,0,0,0,4.4.4,10.21,10.21,0,0,0,2.9-1.1.68.68,0,0,0,.4-.6A2.77,2.77,0,0,1,83,23.1a2.08,2.08,0,0,1,1.5.7,1.86,1.86,0,0,1,.5,2.1,5.1,5.1,0,0,1-4.8,2.8,19.89,19.89,0,0,1-4.8-.7A9.46,9.46,0,0,1,73,26.6Z"/><path class="cls-1" d="M72.6,23.1c2.7-.5,5.1-1.3,6.5-3.4,0-.5-.2-.9,0-1.2.4-.7.8-1.6,1.8-1.2a1.75,1.75,0,0,1,1.2,1.3c.2,1.9-.7,3-2.3,3.9a10,10,0,0,1-6.6,1c-.1,0-.2-.1-.3-.1Z"/><path class="cls-1" d="M62.4,19.4c1.6,2.4,4,3.3,6.6,3.9-1.9.4-3.7.8-5.5-.1a24.87,24.87,0,0,1-2.8-1.5,3.25,3.25,0,0,1-1-3.5,2.15,2.15,0,0,1,1.2-.9,1.31,1.31,0,0,1,1.2.6C62.5,18.3,63.7,18.8,62.4,19.4Z"/><path class="cls-1" d="M76.6,15.6l-.4-2.2a2.77,2.77,0,0,1,1.3-.3c.8.1,1.4.3,1.5,1.4A5,5,0,0,1,76.3,19a15.45,15.45,0,0,1-2.2,1.2,4.87,4.87,0,0,1-1.2.1l4-4.5Z"/><path class="cls-1" d="M65.6,13.6l-.4,2.1-.4.1,4,4.5c-.3,0-.6.1-.8,0a12.91,12.91,0,0,1-4.2-2.6,4,4,0,0,1-.8-3.8,1.62,1.62,0,0,1,1.8-.7Z"/><path class="cls-1" d="M11.6,69.7h-.2l-.2-.1-.2-.1-.2-.1-.3-.3-.1-.2-.1-.2V67.3l.1-.4v-.4l.1-.2v-.2l.1-.2v-.2l.1-.2v-.2l.1-.3.1-.3v-.2l.1-.2v-.2l.1-.2v-.2l.1-.4v-.2l.1-.6v-.6l-.1-.2-.1-.1h-.6l-.2.1-.5.3-.2.1-.3.3-.1.2-.2.1-.1.2-.1.2-.1.2-.1.2-.1.2-.1.2-.1.2-.1.2-.1.2-.2.4-.1.2-.1.4v.2l-.1.3-.1.3-.1.2-.1.3-.1.3-.1.2-.1.5V68l-.1.3-.1.4-.1.3-.1.2v.2l-.1.2-.1.2.1.1-.2.1h-1l-.2-.1L5,69.8v-.7l.1-.3.1-.2.1-.3.1-.4.1-.3.1-.3v-.2l.1-.5.1-.6.1-.2.1-.2.1-.3V65l.1-.2v-.2l.1-.5.1-.3.1-.2v-.3l.1-.4v-.7L6.5,62l-.2-.1H5.6l-.3.1-.2.1-.2.2-.3.3-.2.2-.2.2-.1.2-.1.2-.1.2-.1.2-.2-.4-.2.2-.2.2-.1.2-.2.2-.3.6-.1.2-.1.2v.2l-.1.4v.4l-.1.6-.1.2-.1.4-.1.2v.2l-.1.2v.6l-.1.2-.1.2-.2.2-.3.2H.6l-.4-.1L0,69.1v-.5l.1-.2v-.1l.1-.2v-.2l.1-.3.1-.3v-.2l.1-.4v-.2l.1-.2v-.2l.1-.2v-.2l.1-.2.1-.3.1-.3v-.2l.1-.4.1-.3.1-.3.1-.2v-.4l.1-.2v-.2l.1-.3.1-.3.1-.4v-.2l.2-1,.1-.2.1-.2.2-.1.2-.1h.9l.2.1.2.1.1.2v.2l-.1.2-.1.2v.2l-.1.2v.2l-.1.2.2.4v.1h.1L4,62l.1-.2.1-.2.1-.2.1-.2.1-.2.2-.2.1-.1.1-.1.3-.3.4-.2.1-.1.2-.1.2-.1.2-.1.2-.1h1l.2.1.2.1.2.1.1.1.1.2.2.4.1.2.1.2v1.2h0l.1-.1.1-.2.1-.2.2-.3.2-.2.1-.1.3-.3.1-.2.2-.1.3-.3.2-.1.2-.1.2-.1.2-.1h1.5l.3.1.3.1.2.1.1.1.1.2.1.2v.2l.1.2v1.2l-.1.4-.1.3L13.4,64l-.1.3-.1.2v.3l-.1.2-.1.2-.1.3-.1.3-.1.2-.1.5v1.3l.1.3.1.1h.4l.2-.1.2-.1.2-.1.2-.1.3-.3.1-.2.3-.4.1-.1.1-.2.8-1.2.1-.2.2-.4.1-.1.1-.2.1-.2.2-.1h.3l.2.2v.2l-.1.2-.1.2-.1.2-.1.2-.2.4-.2.3-.1.2-.1.2-.1.2-.3.5-.1.2-.2.3-.1.2-.2.3-.3.3-.1.2-.1.1-.3.3-.2.1-.5.3-.2.1h-.9Z"/><path class="cls-1" d="M26.7,65.2v.1l-.1.2-.1.2-.1.2-.1.2-.1.2-.2.4-.1.2-.1.2-.1.2-.1.2-.1.2-.1.2-.1.2-.2.3-.1.2-.4-.2-.6.5-.2.1-.2.1-.2.1-.3.1-.2.1h-.7l-.3-.1-.2-.1-.2-.1-.2-.1-.2-.2-.2-.2-.1-.2-.1-.3V67h-.1l-.1.2-.2.4-.2.3-.1.2-.1.2-.1.2-.1.2-.2.1-.1.1-.2.1-.2.1-.2.1-.2.2-.3.2-.3.1-.3.1h-.9l-.3-.1-.2-.1-.2-.1-.2-.1-.3-.3-.1-.2-.1-.2-.1-.2-.1-.3-.1-.3V65.8l.1-.2.1-.3.1-.3.1-.2.1-.2.1-.2.5-1.1.1-.2.1-.2.1-.2.2-.3.1-.2.3-.3.1-.1.2-.2.3-.3.2-.2.2-.2.3-.2.2-.1.2-.1.2-.1.3-.1.2-.2.2-.1.3-.1.3-.1.2-.1h2.1l.5.1h.2l.2.1.9.4.2.1.2.1.2.1.1.2V61l-.1.3-.2.3-.2.2h-.2l-.2-.1-.2-.1-.2-.1-.2-.1-.2-.1-.2-.1-.2-.1h-.2l-.4-.1-.2-.1h-1l-.3.1-.6.2-.2.1-.2.1-.2.1-.2.1-.2.1-.2.1-.2.2-.1.1-.2.2-.1.2-.1.2-.3.3-.1.2-.1.2-.3.5-.1.2-.1.4-.1.2-.1.2-.1.6-.1.2-.1.6v.8l.1.2.1.2.1.2.1.1.2.1h.6l.2-.1.4-.2.3-.3.1-.1.2-.1h.1l.1-.2.1-.2.1-.2.2-.3L20,66l.3-.5.1-.2.2-.3.1-.1.3-.6.1-.2v-.2l.1-.2.1-.2.1-.2.1-.2.1-.4.1-.2.1-.2.1-.2.2-.1h.6l.4.2.2.1.1.1v.2l-.1.2V63l-.1.2-.1.4-.1.2V64l-.1.4v.3l-.1.3v.2l-.1.4-.1.3v.4l-.1.3-.1.4v.6l.1.2.2.1H23l.3-.1.2-.1.3-.2.2-.2.3-.3.3-.3.2-.3.1-.2L25,66v-.1l.4-.5.1-.2.1-.2.5-.9.2-.1h.3l.2.2v.2l-.1.2Z"/><path class="cls-1" d="M27.4,59.6l-.2-.6v-.6l.1-.2.1-.2.1-.2.2-.1.2-.1h.6l.2.1.1.1.1.2.1.2v1.2l.1.2.2.2.2.1.2.2.2.3.2.1.3.3.2.2.1.1.2.2.2.1.1.2.2.4.1.2.1.3.1.3V63l-.1.2-.1.2-.1.2-.2.3-.1.2-.1.2-.1.2-.1.2-.1.2-.1.2-.1.2-.4.8-.1.2-.1.2v1l.1.5.1.2.1.2.2.1.2.1h.7l.2-.1.2-.1.2-.1.3-.2.2-.1.2-.1.1-.1.1-.2.4-.5.3-.5.1-.2.1-.2.1-.2.1-.2.1-.2.1-.1.1-.2.1-.2.1-.2.1-.2.2-.1.3.1.2.2v.2l-.1.2-.2.4-.1.2-.1.2-.2.4-.2.3-.1.2-.1.1-.1.2-.2.4-.3.3-.2.2-.2.2-.3.3-.2.1-.3.3-.2.1-.2.1-.3.2-.2.1-.2.1-.2.1H29.8l-.5-.1-.2-.1-.2-.1-.3-.2-.2-.1-.1-.1-.1-.2-.1-.2-.1-.2-.1-.2v-1l.1-.8.1-.2.1-.2.1-.2.1-.2.1-.2.1-.2.2-.2.2-.2.1-.2.1-.2.2-.2.1-.2.2-.3.2-.4.1-.2.1-.3v-.3l-.2-.3-.1-.2-.4-.4-.1-.2-.2-.1h-.2l-.1.2v.2l-.1.2v.4l-.1.2-.2.5-.1.2-.1.2-.1.2L28,64l-.1.2-.1.2-.1.3-.1.2-.1.2-.1.2-.1.2-.7-.1-.1.1h-.2l-.2-.1-.1-.2V65l.1-.2.1-.2.1-.2.1-.2.2-.4.1-.1.1-.2.1-.2.1-.2.1-.2.1-.2.1-.2.2-.4v-.2l.1-.2v-.2l.1-.2v-.6l.1-.2v-.6Z"/><path class="cls-1" d="M39.2,64.6v.2l-.1.2-.2.3-.2.3-.1.2-.1.2-.1.2-.1.1-.1.2-.1.2-.1.2-.1.2-.1.2-.2.4-.4.5-.3.3-.2.2-.1.2-.2.1-.5.4-.2.1-.2.1-.2.1h-.2l-.4.1h-.6l-.2-.1-.2-.1-.1-.2-.2-.1-.1-.2-.1-.2-.1-.2V67.3l.1-.2.1-.4.1-.2v-.1l.1-.2.1-.2.2-.6V65l.1-.2v-.4L34,64l.1-.3.1-.3.1-.4v-.6l.1-.2.1-.2.1-.6.1-.2.1-.3.1-.3.1-.2.1-.2.1-.1.2-.1h.8l.4.1.1.2v.4l-.1.3-.1.3-.1.4v.4l-.1.2-.1.3-.2.7v.2l-.1.3-.2.5v.6l-.2.4v.2l-.2.6-.1.4v.2l-.1.3-.1.4v.7l.2.2.2.1h.2l.2-.1.2-.1.2-.1.7-.7.1-.2.1-.2.1-.2.2-.4.1-.2.1-.1.1-.2.1-.2.1-.2.2-.4.3-.5.1-.2.2-.1H39Zm-3.6-6.8.1-.2.2-.2.2-.1.2-.1h.6l.2.1.2.1.2.1.1.2.1.2v.4l-.1.2-.1.2-.1.2-.2.1-.2.1-.2.1h-.6l-.4-.2-.1-.2-.1-.2v-.2h0v-.6Z"/><path class="cls-1" d="M49.4,65.2v.1l-.1.2-.1.2-.1.2-.1.2-.1.2-.2.4-.1.2-.1.2-.1.2-.1.2-.1.2-.1.2-.1.2-.2.3-.1.2-.1.1-.6.5-.2.1-.2.1-.2.1-.3.1-.2.1h-.7l-.6-.3-.2-.1-.2-.1-.2-.1-.2-.2-.2-.2-.1-.2-.1-.3V67.1h.2l-.1.2-.2.4-.2.3-.1.2-.1.2h-.3l-.1.2-.2.1-.1.1-.2.1-.2.1-.2.1-.2.2-.3.2-.4.1-.3.1h-.8l-.3-.1-.2-.1-.2-.1-.2-.1-.3-.3-.1-.2-.1-.2-.1-.2-.1-.3-.1-.3V65.9l.1-.2.1-.3.1-.3.1-.2.1-.2.1-.2.5-1.1.1-.2.1-.2.1-.2.2-.3.1-.2.3-.3.1-.1.2-.2.3-.3.2-.2.2-.2.3-.2.2-.1.2-.1.2-.1.3-.1.2-.1.2-.1.3-.1.3-.1.2-.1h2l.5.1H46l.2.1.9.4.2.1.2.1.2.1.1.2v.2l-.1.3-.2.3-.2.2h-.2l-.2-.1-.2-.1-.2-.1-.2-.1-.2-.1-.2-.1-.2-.1h-.2l-.4-.1-.2-.1H43.7l-.1.3-.6.2-.2.1-.2.1-.2.1-.2.1-.2.1-.2.1-.2.2-.1.1-.2.2-.1.2-.1.2-.3.3-.1.2-.1.2-.3.5-.1.2-.1.4-.1.2-.1.2-.1.6-.1.2-.1.6v.8l.1.2.1.2.1.2.1.1.2.1h.6l.2-.1.4-.2.3-.3.1-.1.2-.1.1-.2.1-.2.1-.2.1-.2.2-.3.1-.2.3-.5.1-.2.2-.3.1-.1.3-.6.1-.2v-.2l.1-.2.1-.2.1-.2.1-.2.1-.4.1-.2.1-.2.1-.2.2-.1h.6l.4.2.2.1.1.1v.2L46,63v.2l-.1.2-.1.4-.1.2v.2l-.1.4v.3l-.1.3v.2l-.1.4-.1.3v.4l-.1.3-.1.4v.6l.1.2.2.1h.3L46,68l.2-.1.3-.2.2-.2.3-.3.3-.3.2-.3.1-.2.1-.2v-.1l.4-.5.1-.2.1-.2.5-.9.2-.1h.3l.2.2v.2l-.1.2Z"/><path class="cls-1" d="M55,62.3l.2-.2.3-.3.5-.4.2-.1.2-.1.2-.1.2-.1.2-.1.3-.2.2-.1.4-.1.2-.1.4-.1h2l.1-.1.1-.2v-.2l.1-.4v-.2l.1-.2.2-.4.1-.2v-.1l.1-.2v-.2l.1-.4.1-.2.2-.7.1-.3.1-.4.1-.2.1-.2v-.1l.2-.4.1-.2.2-.4.3-.1.2-.2.2-.1H64l.2.1.2.1.1.2v.4l-.1.2-.1.2-.1.2-.1.2-.1.3-.1.3-.3.2-.3.7-.1.3-.1.3-.1.2-.1.2-.2.5-.1.3-.1.2-.2.7V60l-.1.2-.1.2-.1.2-.1.2-.1.2v.6l-.1.2-.1.2-.1.2v.6l-.1.2-.1.3-.1.3v.1l-.1.2v.8l-.1.6v2.3l.1.3.1.2.1.1.2.1h.4l.2-.1.2-.1.4-.3.2-.2.2-.3.2-.4.3-.5.1-.2.1-.2.1-.2.2-.5.1-.2.1-.2.1-.2.1-.2.2-.2H65l.2.2v.3l-.1.3-.1.2-.1.2-.1.3-.1.1-.3.5-.1.2-.3.5-.2.3-.1.2-.1.2-.1.2-.1.1-.2.1-.2.2-.1.1-.2.2-.2.1-.2.1-.2.1-.2.1-.6.2h-1l-.2-.1-.2-.1-.1-.1-.2-.2-.2-.3.2-.1-.1-.2V68l-.1-.6V67h0l-.1.2-.1.2-.2.4-.1.2-.1.2-.2.3-.1.1L58,69l-.2.2-.2.2-.2.1-.2.1-.2.1-.5.1H55.2l-.2-.1-.2-.1-.2-.1-.2-.2-.2-.2-.1-.2-.1-.2-.1-.2-.1-.4-.1-.2V65.7l.1-.2v-.1l.1-.2L54,65l.2-.5.1-.2.2-.3.1-.2.1-.2.1-.2.1-.1.1-.2.2-.3Zm4.5-.8H58.4l-.2.1-.2.1-.2.1-.2.1-.2.1-.2.1-.2.2-.3.3-.1.1-.1.2-.3.3-.1.2-.1.2-.3.5-.1.2v.1l-.1.2-.1.2-.1.2-.1.5-.1.2v1.8l.1.2.1.2.1.1.2.1.2.1h.6l.2-.1.1-.1.2-.1.2-.1.3-.3.2-.2.1-.2.2-.2.1-.2.1-.2.1-.2.2-.3.2-.2.1-.2.1-.2.1-.2L59,65l.1-.3.1-.2.1-.2.1-.2.3-.9.1-.3.2-.7.1-.3.1-.2v-.2l-.1-.2-.2-.1Z"/><path class="cls-1" d="M71.4,64.1l-.1.2-.3.3-.3.3-.2.1-.2.1h-.1l-.2.1-.1.1-.3.1-.2.1-.2.1H66.9l-.6-.1h-.2l-.1.1V67l.1.4.2.4.1.2.1.1.4.2.2.1.2.1h1l.6-.1h.2l.2-.1.2-.1.4-.2.4-.2.3-.2.2-.1.2-.1.3-.3.3-.3.1-.2.1-.2.2-.3.1-.2.1-.2.1-.2.1-.2.1-.2.1-.2.1-.2.1-.2.1-.2.2-.1h.2l.2.1.1.2v.2l-.1.2-.1.2-.1.2-.1.2-.1.2-.1.2-.2.4-.1.1-.1.2-.2.3-.1.2-.1.1-.1.2-.2.2-.1.1-.2.2-.1.2-.3.3-.2.2-.2.2-.4.2-.8.4-.2.1-.2.1h-.3l-.3.1H67.4l-.8-.1h-.2l-.2-.1-.2-.1-.2-.1-.4-.2-.2-.1-.2-.1-.2-.2-.1-.1-.2-.2-.1-.2-.1-.2-.1-.2-.1-.2-.1-.2-.1-.2v-.6l-.1-.6v-.6h0l.1-.6.1-.2v-.2l.1-.2V64l.1-.2.1-.2.1-.3.1-.2.1-.2.2-.2.1-.2.1-.2.1-.2.3-.3.3-.3.2-.2.2-.2.2-.2.2-.2.2-.1.2-.1.2-.1.3-.1.5-.2.4-.1h1.1l.4.1.3.1.2.1.2.1.2.1.1.1.3.3.1.2.1.2.1.3.1.2V63l-.1.3-.1.3-.1.2-.1.1-.1.2Zm-2.7-2.7-.3.1-.3.1-.2.1-.3.3-.2.2-.2.2-.2.2-.2.2-.2.2-.1.2-.1.2-.1.3-.1.2-.1.2v.2l.1.1.3.1h1.7l.2-.1h.1l.2-.1.2-.1.2-.1.2-.2.2-.1.1-.2.1-.2.1-.2.1-.2.1-.4V62l-.1-.2-.1-.2-.2-.1v-.1h-.9Z"/><path class="cls-1" d="M83.9,58.7l-.1.2-.2.3-.1.2-.2.2-.1.2-.1.2-.1.2-.1.2-.1.1-.1.2-.2.2-.2.2-.2.2-.1.1-.2.2-.3.3-.1.2-.2.3-.2.1-.2.2-.2.2-.3.3-.2.1-.5.3-.2.1-.2.1L79,64l-.2.2-.1.2v.2l-.1.4v2.5l.1.2.1.2.1.2.2.1.2.1h.8l.2-.1.3-.1.2-.1.2-.1.2-.2.2-.2.3-.2.2-.2.1-.2.1-.1.1-.2.1-.2.1-.2.1-.1.1-.2.2-.3.1-.2.1-.2.1-.2.1-.2.2-.3.2-.2h.3l.2.2v.2l-.1.2-.1.2-.1.2-.1.2-.1.2-.1.2-.1.2-.1.2-.1.2-.1.2v.1L83,67l-.1.2-.2.3-.2.2-.1.1-.2.2-.1.2-.2.2-.2.2-.2.2-.1.1-.2.1-.2.1-.2.1-.2.1-.2.1-.2.1-.2.1-.3.1-.5.1h-1l-.2-.1-.2-.1-.2-.1-.2-.1-.2-.1-.1-.1L77,69l-.1-.2-.1-.2-.1-.2v-.2l-.1-.2V66.1l.1-.5V64.4l.2-.7.1-.3.1-.4v-.1l.1-.3v-.1l.1-.3.1-.3v-.2l.1-.3.1-.3v-.2l.1-.3.1-.3.1-.2.1-.3.1-.3.1-.2.2-.6v-.1l.1-.3.2-.4.1-.3.1-.2.1-.1.1-.2.2-.4.1-.2.1-.2.1-.2.2-.3.3-.4.1-.2.3-.3.1-.1.2-.2.2-.1.4-.2.2-.1.2-.1L82,54h.9l.2.1.2.1.3.3.1.2.2.2.1.3.1.2.1.3V57l-.1.4-.1.2v.2l-.2.5-.1.2Zm-3.7.6-.3.9v.2l-.1.2-.1.3-.1.5-.1.2v.1l-.1.2-.1.2v.3l.1-.1.2-.2.9-.9.1-.2.1-.2.1-.2.1-.1.1-.2.2-.2.2-.2.2-.2.1-.2.1-.2.1-.2.2-.4.1-.2.1-.1.1-.2.1-.2v-.2l.1-.2.1-.2.1-.2.1-.2.1-.2v-1l-.1-.2-.2-.1h-.4l-.2.2-.2.1-.1.1-.1.1-.1.2-.2.3-.1.2-.1.2-.1.2-.1.2-.1.2-.1.2-.1.2-.1.2-.1.3-.1.2Z"/><path class="cls-1" d="M89.6,68.4l-.3.3-.3.2-.2.1-.4.2-.2.1-.4.1-.2.1-.4.1H85.6l-.2-.1-.2-.1-.2-.1-.2-.1-.2-.1-.4-.2-.2-.1-.3-.3-.1-.2-.1-.2-.1-.2-.1-.4-.1-.4V65.2l.1-.4v-.4l.1-.2.1-.2.1-.2.1-.2.1-.2.1-.3.1-.3.1-.2.1-.2.1-.2.1-.2.2-.4.1-.2.3-.3.3-.3.2-.1.2-.1.2-.1.2-.2.2-.1.2-.1.2-.1h.1l.2-.1h.1l.2-.1h1.9l.2.1.2.1.4.2.2.1.2.1.1.1.1.2.1.2.3.5.1.2V62l.1.4v1.5l-.1.7-.1.3-.1.2-.1.2-.1.2-.1.2-.1.2-.2.4-.1.2v.2h.9l.2-.1.2-.1.3-.2.2-.1.3-.3.3-.3.1-.2.1-.2.1-.2.2-.4.2-.4.1-.1.1-.2.2-.1H94l.2.2v.2l-.1.2-.3.5-.1.2-.2.4-.1.2-.1.2-.1.2-.1.2-.1.1-.3.3-.1.1-.2.1-.2.1-.2.1-.2.1-.4.2-.2.1H91l-.8.1h-.8l-.2.1.4.7ZM85.2,66v1.2l.1.4.2.3.2.2.2.2.2.1.3.1H87l.2-.1.2-.1.2-.1.2-.1L88,68l.2-.1.1-.2v-.3l-.1-.2-.1-.2v-.5l.1-.3.2-.1.2-.1h.7l.1-.1.1-.2.3-.8.1-.6V64l.1-.4V62.4l-.1-.4-.1-.3-.2-.2-.2-.1-.3-.1-.5.1h-.7l-.2.1-.2.1-.2.1-.2.1-.2.2-.2.1-.2.2v.1l-.1.2-.1.2-.2.3-.1.2-.4.9-.1.2v.2l-.1.4v.2l-.1.2v.4Z"/><path class="cls-1" d="M101,60.2h.8l.2.1.2.1.1.2-.1.3-.2.5-.2.4-.1.2v.2l-.1.2-.1.2-.1.4-.1.2-.1.2-.1.2-.1.2V64l-.1.2v.4l-.1.2-.1.6-.1.3-.1.3-.1.2V68l.1.2.1.2.2.1h.4l.2-.1.3-.2.2-.2.2-.1.2-.1.3-.3.2-.3.1-.2.1-.2.1-.2.1-.2.1-.2.1-.2.1-.1.1-.2.1-.2.1-.2.2-.4.1-.2.2-.1.3.1.2.2v.2l-.1.2-.1.2v-.1l-.1.2-.2.3-.1.2-.1.2-.2.4-.1.2-.2.4-.1.2-.3.3-.1.2-.1.2-.3.3-.3.3-.1.1-.3.3-.4.2-.5.3-.4.1h-.5l-.3-.1-.2-.1-.2-.2-.2-.2-.1-.2-.1-.3-.1-.4V67.1l-.1.1-.1.2-.2.3-.1.2-.4.5-.4.4-.1.2-.2.1-.2.1-.4.2-.3.2-.2.1-.8.2H94.4l-.2-.1-.2-.1-.3-.2-.2-.2-.2-.3-.1-.2-.1-.2V66.1l.1-.3.1-.4.1-.2.1-.3.2-.5.1-.2V64l.1-.2v-.2l.3-.9.1-.2.2-.7.1-.2.1-.2.1-.3.1-.3.1-.2.1-.2.2-.1.2-.1h.8l.2.1.2.1.1.1v.4l-.1.2v.2l-.1.4-.1.2V62l-.1.3-.1.1-.1.2-.1.2-.1.3-.1.3v.1l-.1.2-.1.2v.2l-.1.3-.1.4v.4l-.1.2-.1.4V66l-.1.2v.2l-.1.3v1l.2.3.3.2h.3l.4-.1.2-.1.2-.1.2-.1.2-.1.2-.1.3-.3.1-.1.4-.5.1-.2.1-.2.1-.2.2-.2.2-.3.1-.2.1-.2.1-.2.1-.2.1-.2.1-.2.1-.2.1-.2.1-.2.1-.2.1-.4.1-.2.1-.2.1-.2.1-.2.1-.2v-.4l.1-.4.1-.2.1-.4v-.2l.1-.2.1-.2.1-.2.2-.1Z"/><path class="cls-1" d="M105.4,59.6l-.2-.6v-.6l.1-.2.1-.2.1-.2.2-.1.2-.1h.6l.2.1.1.1.1.2.1.2v1.2l.1.2.2.2.2.1.2.2.2.3.2.1.3.3.2.2.1.1.2.2.2.1.1.2.2.4.1.2.1.3.1.3V63l-.1.2-.1.2-.1.2-.2.3-.1.2-.1.2-.1.2-.1.2-.1.2-.1.2-.1.2-.4.8-.1.2-.1.2v1l.1.5.1.2.1.2.2.1.2.1h.6l.2-.1.2-.1.2-.1.3-.2.2-.1.2-.1.1-.1.1-.2.4-.5.3-.5.1-.2.1-.2.1-.2.1-.2.1-.2.1-.1.1-.2.1-.2.1-.2.1-.2.2-.1.3.1.2.2v.2l-.1.2-.2.4-.1.2-.1.2-.2.4-.2.3-.1.2-.1.1-.1.2-.2.4-.3.3-.2.2-.2.2-.3.3-.2.1-.3.3-.2.1-.2.1-.4.2-.2.1-.2.1-.2.1h-1.2l-.4-.1-.2-.1-.2-.1-.3-.2-.2-.1-.1-.1-.1-.2-.1-.2-.1-.2-.1-.2v-1l.1-.8.1-.2.1-.2.1-.2.1-.2.1-.2.1-.2.2-.2.2-.2.1-.2.1-.2.2-.2.1-.2.2-.3.2-.4.1-.2.1-.3v-.3l-.2-.3-.1-.2-.4-.4-.1-.2-.2-.1h-.2l-.1.2v.2l-.1.2v.4l-.1.2-.2.5-.1.2-.1.2-.1.2-.1.3-.1.2-.1.2-.1.3-.1.2-.1.2-.1.2-.1.2-.6-.1-.1.1h-.2l-.2-.1-.1-.2V65l.1-.2.1-.2.1-.2.1-.2.2-.4.1-.1.1-.2.1-.2.1-.2.1-.2.1-.2.1-.2.2-.4v-.2l.1-.2v-.2l.1-.2v-.6l.1-.2v-.6Z"/><path class="cls-1" d="M113.3,62.3l.2-.2.3-.3.5-.4.2-.1.2-.1.2-.1.2-.1.2-.1.3-.2.2-.1.4-.1.2-.1.4-.1h2l.1-.1.1-.2v-.2l.1-.4v-.2l.1-.2.2-.4.1-.2v-.1l.1-.2v-.2l.1-.4.1-.2.2-.7.1-.3.1-.4.1-.2.1-.2v-.1l.2-.4.1-.2.2-.4.1-.2.2-.2.2-.1h1l.2.1.2.1.1.2v.4l-.1.2-.1.2-.1.2-.1.2-.1.3-.1.3-.1.2-.3.7-.1.3-.1.3-.1.2-.1.2-.2.5-.1.3-.1.2-.2.7v.2l-.1.2-.1.2-.1.1-.1.2-.1.2v.6l-.1.2-.1.2-.1.2v.6l-.1.2-.1.3-.1.3v.1l-.1.2v.8l-.1.6v2.3l.1.3.1.2.1.1.2.1h.4l.2-.1.2-.1.4-.3.2-.2.2-.3.2-.4-.3-.3.1-.2.1-.2.1-.2.2-.5.1-.2.1-.2.1-.2.1-.2.2-.2h.3l.2.2v.3l-.1.3-.1.2-.1.2-.1.3-.1.1-.3.5-.1.2-.3.5-.2.3-.1.2-.1.2-.1.2-.1.1-.2.1-.2.2-.1.1-.2.2-.2.1-.2.1-.2.1-.2.1-.6.2h-.9l-.2-.1-.2-.1-.1-.1-.2-.2-.2-.3-.1-.2-.1-.2v-.2l-.1-.6v-.4h0l-.1.2-.1.2-.2.4-.1.2-.1.2-.2.3-.1.1-.5.4-.2.2-.2.2-.2.1-.2.1-.2.1-.5.1h-1.2l-.2-.1-.3-.2-.2-.1-.2-.2-.2-.2-.1-.2-.1-.2-.1-.2-.1-.4-.1-.2V65.6l.1-.2v-.1l.1-.2.1-.2.2-.5.1-.2.2-.3.1-.2.1-.2.1-.2.1-.1.1-.2.2-.3Zm4.5-.8h-1.2l-.2.1-.2.1-.2.1-.2.1-.2.1-.2.1-.2.2-.3.3-.1.1-.1.2-.3.3-.1.2-.1.2-.3.5-.1.2-.1.2-.1.2-.1.2-.1.2-.1.5-.1.2v1.8l.1.2.1.2.1.1.2.1.2.1h.6l.2-.1.1-.1.2-.1.2-.1.3-.3.2-.2.1-.2.2-.2.1-.2.1-.2.1-.2.2-.3.2-.2.1-.2.1-.2.1-.2.1-.2.1-.3.1-.2.1-.2.1-.2.3-.9.1-.3.2-.7.1-.3.1-.2v-.2l-.1-.2-.2-.1Z"/><path class="cls-1" d="M129.7,64.1l-.1.2-.3.3-.3.3-.2.1-.2.1h-.1l-.2.1-.1.1-.2.1-.2.1-.2.1h-2.4l-.6-.1h-.2l-.1.1V67l.1.4.2.4.1.2.1.1.3.2.2.1.2.1h1l.6-.1h.2l.2-.1.2-.1.4-.2.3-.2.3-.2.2-.1.2-.1.3-.3.3-.3.1-.2.1-.2.2-.3.1-.2.1-.2.1-.2.1-.2.1-.2.1-.2.1-.2.1-.2.1-.2.2-.1h.2l.2.1.1.2v.2l-.1.2-.1.2-.1.2-.1.2-.1.2-.1.2-.2.4-.1.1-.1.2-.2.3-.1.2-.1.1-.1.2-.2.2-.1.1-.2.2-.1.2-.3.3-.2.2-.2.2-.3.2-.6.2-.2.1-.2.1h-.3l-.3.1h-1.2l-.8-.1h-.4l-.2-.1-.2-.1-.4-.2-.2-.1-.2-.1-.2-.2-.1-.1-.2-.2-.1-.2-.1-.2-.1-.2-.1-.2.1-.1-.1-.2v-.6l-.1-.6v-.6h0l.1-.6.1-.2v-.2l.1-.2V64l.1-.2.1-.2.1-.3.1-.2.1-.2.2-.2.1-.2.1-.2.1-.2.3-.3.3-.3.2-.2.2-.2.2-.2.2-.2.2-.1.2-.1.2-.1.3-.1.5-.2.4-.1H128l.3.1.3.1.2.1.2.1.2.1.1.1.3.3.1.2.1.2.1.3.1.2V63l-.1.3-.1.3-.1.2-.1.1-.1.2Zm-2.8-2.7-.3.1-.3.1-.2.1-.3.3-.2.2-.2.2-.2.2-.2.2-.2.2-.1.2-.1.2-.1.3-.1.2-.1.2v.2l.1.1.3.1h1.6l.2-.1h.1l.2-.1.2-.1.2-.1.2-.2.2-.1.1-.2.1-.2.1-.2.1-.2.1-.4V62l-.1-.2-.1-.2-.2-.1-.2-.1h-.6Z"/><path class="cls-1" d="M141.7,65.2l-.1.2-.1.2-.1.2-.1.2-.1.2-.1.2-.1.2-.5.6-.2.2-.2.1-.2.1-.2.1-.2.1-.2.1-.2.1-.2.1h-1.5l-.1.1-.1.1-.1.2-.2.2-.2.2-.2.2-.2.1-.2.1-.2.1h-.3l-.3.1-.4.1h-1l-.2-.1-.2-.1-.2-.1-.2-.1-.3-.2-.2-.1-.2-.2-.3-.5L132,68l-.1-.6v-.8l.1-.2.3-.2.3-.1h.3l.1.1V67l.1.4.1.2.1.2.1.2.1.2.2.1.2.1.2.1h.7l.2-.1.2-.1.2-.1.2-.1.1-.2v-.2l-.1-.2-.1-.2-.1-.2v-.7l.1-.2.1-.1.3-.2.1-.1v-.4l-.1-.2-.1-.2-.1-.2v-.2l-.1-.2-.1-.2-.1-.2-.1-.2-.1-.2-.1-.2-.1-.2-.1-.2-.1-.2-.1-.2-.1-.2-.1-.2-.1-.2-.1-.3-.1-.3h.4v-.7h-.1l-.3.3-.1.2-.2.3-.1.2-.1.2-.2.5-.1.2-.1.2-.1.2-.1.2-.1.2-.1.2-.1.3-.1.2-.1.2-.2.4-.1.2-.1.2-.1.2-.2.2h-.2l-.2-.1-.1-.2v-.4l.2-.4.1-.2.1-.1.1-.2.1-.2.1-.2.3-.5.1-.2.1-.2.1-.2.2-.2.1-.2.1-.2.1-.2.1-.2.1-.1.1-.2.1-.2.5-.6.3-.3.1-.2.2-.2.2-.1.4-.2.2-.1.2-.1h.8l.2.1.1.2.1.2V60l-.1.2-.1.2v.7l.1.3v.2l.1.3.1.4.1.4.2.6.1.2.1.3.1.2.1.2.1.2.1.2.2.5.1.2v1.9l.1.1h.8l.4-.1.2-.1.3-.2.2-.1.3-.3.3-.3.1-.2.4-.7.1-.2.1-.2.1-.2.1-.2.2-.1.3.1.2.2v.2l-.1.2Z"/><path class="cls-1" d="M26.3,75.2h-.8V77H25V72.7h1.2c.9,0,1.4.3,1.4,1.2A1.16,1.16,0,0,1,26.3,75.2Zm-.1-2.1h-.7v1.7h.8c.6,0,.9-.2.9-.9s-.5-.8-1-.8Z"/><path class="cls-1" d="M30.6,77V72.7h.5v3.9h2V77Z"/><path class="cls-1" d="M38.5,77,38,75.7H36.2L35.7,77h-.5l1.7-4.3h.4L38.9,77Zm-1.3-3.7-.8,2h1.5Z"/><path class="cls-1" d="M42.8,73.1V77h-.5V73.1H41v-.4h3v.4Z"/><path class="cls-1" d="M46.8,77V72.7h2.4v.4H47.3v1.5H49V75H47.3v1.6h1.9V77Z"/><path class="cls-1" d="M54.7,77l-1.4-1.9h-.5V77h-.5V72.7h1.3c.7,0,1.4.3,1.4,1.2a1.11,1.11,0,0,1-1,1.2h-.2L55.2,77Zm-1-3.9h-.9v1.6h.9a.64.64,0,0,0,.8-.6v-.2a.74.74,0,0,0-.8-.8Z"/><path class="cls-1" d="M58.1,72.4h-.3l.6-.8h.5Zm0,4.6V72.7h.5V77Z"/><path class="cls-1" d="M64.5,77,64,75.7H62.2L61.7,77h-.5l1.7-4.3h.4L64.9,77Zm-1.2-3.7-.8,2H64Z"/><path class="cls-1" d="M75.3,77V73.2L73.8,77h-.4l-1.5-3.8V77h-.4V72.7h.7l1.4,3.6L75,72.7h.7V77Z"/><path class="cls-1" d="M79,77V72.7h2.4v.4H79.5v1.5h1.7V75H79.5v1.6h1.9V77Z"/><path class="cls-1" d="M86.8,77l-1.1-1.8L84.5,77H84l1.4-2.2-1.2-2.1h.6l1,1.6,1-1.6h.5l-1.3,2,1.4,2.2Z"/><path class="cls-1" d="M90.2,77V72.7h.5V77Z"/><path class="cls-1" d="M95.4,77.1c-1.3,0-1.8-.9-1.8-2.2s.4-2.2,1.8-2.2a3.55,3.55,0,0,1,1,.2l-.2.4a2.92,2.92,0,0,0-.9-.2c-1,0-1.3.8-1.3,1.8s.3,1.9,1.3,1.9a3.55,3.55,0,0,0,1-.2l.2.4C96.2,77,95.8,77.1,95.4,77.1Z"/><path class="cls-1" d="M102.2,77l-.5-1.3H99.9L99.4,77h-.5l1.7-4.3h.4l1.6,4.3Zm-1.3-3.7-.8,2h1.5Z"/><path class="cls-1" d="M108.1,77l-2-3.7V77h-.5V72.7h.7l2,3.7V72.7h.5V77Z"/><path class="cls-1" d="M114.8,77l-.5-1.3h-1.7l-.5,1.3h-.5l1.7-4.3h.4l1.6,4.3Zm-1.3-3.7-.8,2h1.5Z"/></svg>