<svg id="Layer_1" data-name="Layer 1" xmlns="http://www.w3.org/2000/svg" xmlns:xlink="http://www.w3.org/1999/xlink" viewBox="0 0 158.6 67.83"><defs><style>.cls-1{fill:none;}.cls-2{fill:#c1c7d0;}.cls-3{opacity:0.4;}.cls-4{clip-path:url(#clip-path);}.cls-5{clip-path:url(#clip-path-2);}.cls-6{clip-path:url(#clip-path-3);}.cls-7{clip-path:url(#clip-path-4);}.cls-8{clip-path:url(#clip-path-5);}.cls-9{clip-path:url(#clip-path-6);}.cls-10{clip-path:url(#clip-path-7);}.cls-11{clip-path:url(#clip-path-8);}.cls-12{clip-path:url(#clip-path-9);}.cls-13{clip-path:url(#clip-path-10);}.cls-14{clip-path:url(#clip-path-11);}.cls-15{clip-path:url(#clip-path-12);}.cls-16{clip-path:url(#clip-path-13);}</style><clipPath id="clip-path"><path class="cls-1" d="M83.4,60.1A9.35,9.35,0,0,1,74,67.4c-6.4,0-9.8-4.8-9.8-10.8S67.8,45.8,74,45.8c6.6,0,8.2,2.9,8.2,6s-3.2,5.1-9.7,5.1v-.7a5.06,5.06,0,0,0,4.2-5c0-3.9-1.5-4.4-2.4-4.4-1.8,0-2.9,2-2.9,9.9s3.5,8.5,5.7,8.5c3.9,0,5.4-3.8,5.4-5.2Z"/></clipPath><clipPath id="clip-path-2"><path class="cls-1" d="M110.7,43.3a3.6,3.6,0,1,0-3.6-3.6h0a3.59,3.59,0,0,0,3.6,3.6"/></clipPath><clipPath id="clip-path-3"><path class="cls-1" d="M114.2,66.7V45.9a10.71,10.71,0,0,1-5.8,1.5h-2.8V48h1.5V66.7h-1.2v.6h9.5v-.6Z"/></clipPath><clipPath id="clip-path-4"><path class="cls-1" d="M16.7,43.3a3.6,3.6,0,1,0-3.6-3.6h0a3.59,3.59,0,0,0,3.6,3.6"/></clipPath><clipPath id="clip-path-5"><path class="cls-1" d="M20.2,66.7V45.9a10.94,10.94,0,0,1-5.8,1.5H11.6V48h1.5V66.7H11.9v.6h9.5v-.6Z"/></clipPath><clipPath id="clip-path-6"><path class="cls-1" d="M128.4,45.8c-6.8,0-10.6,4.6-10.6,10.8s3.3,10.8,10.4,10.8,10.5-4.9,10.5-10.8S135,45.8,128.4,45.8m-.1,20.9c-3,0-3.2-4.6-3.2-10.1s.3-10.1,3.3-10.1,3.3,4.5,3.3,10.1-.5,10.1-3.4,10.1"/></clipPath><clipPath id="clip-path-7"><path class="cls-1" d="M62.9,46.5v-.6H59.8v-6h-.6s-.6,3.7-5.4,3.7H52.7V46H50.5v.5h2.2V66.7H51.5v.6H61v-.6H59.8V46.5Z"/></clipPath><clipPath id="clip-path-8"><path class="cls-1" d="M33.4,45.9a10.71,10.71,0,0,1-5.8,1.5H24.8V48h1.5V66.7H25.1v.6h9.5v-.6H33.4Z"/></clipPath><clipPath id="clip-path-9"><path class="cls-1" d="M46,66.8V52.6a6.66,6.66,0,0,0-6.5-6.7h-.2a6.82,6.82,0,0,0-5,2.2V49a2.61,2.61,0,0,1,2-1c1.7,0,2.6,1.4,2.6,3V66.7H37.7v.6h9.5v-.6H46Z"/></clipPath><clipPath id="clip-path-10"><path class="cls-1" d="M94.2,45.9a10.94,10.94,0,0,1-5.8,1.5H85.6V48h1.5V66.7H85.9v.6h9.5v-.6H94.2Z"/></clipPath><clipPath id="clip-path-11"><path class="cls-1" d="M95.1,48.5v1.2a1.51,1.51,0,0,1,1.4-.9,1.88,1.88,0,0,1,1.8,1.9h0a2,2,0,0,1-1.4,2.1c0,2.3,6,2.5,6-1.7,0-3.8-5.3-5.2-7.8-2.6"/></clipPath><clipPath id="clip-path-12"><path class="cls-1" d="M149.8,45.9a10.1,10.1,0,0,1-5.8,1.5h-2.8V48h1.5V66.7h-1.2v.6H151v-.6h-1.2Z"/></clipPath><clipPath id="clip-path-13"><path class="cls-1" d="M150.8,48.5v1.2a1.51,1.51,0,0,1,1.4-.9,1.79,1.79,0,0,1,1.8,1.8v.1a2,2,0,0,1-1.4,2.1c0,2.3,6,2.5,6-1.7,0-3.8-5.4-5.2-7.8-2.6"/></clipPath></defs><title>Artboard 6</title><path class="cls-2" d="M19.1,24a9.42,9.42,0,0,1-9.3,7.3C3.5,31.3,0,26.5,0,20.5S3.6,9.7,9.8,9.7c6.6,0,8.2,2.9,8.2,6s-3.2,5.1-9.7,5.1v-.7a5.06,5.06,0,0,0,4.2-5c0-3.9-1.5-4.4-2.4-4.4-1.8,0-2.9,2-2.9,9.9s3.5,8.5,5.7,8.5c3.9,0,5.4-3.8,5.4-5.2Z"/><path class="cls-2" d="M25.2,13.6c0-3.3,3.7-3.1,3.7-3.1l-.2-.6c-2.1,0-8.4.6-8.4,7,0,7,11.3,6.3,11.3,10.9,0,3-3.5,3-3.5,3l.2.5c1,0,8.8-.1,8.8-6.8,0-7.7-11.9-6-11.9-10.9"/><path class="cls-2" d="M35.4,14.7h.4l-.7-4.9c-.4.6-.8.7-2.2.4a12.67,12.67,0,0,0-3.4-.4l.2.7a7.15,7.15,0,0,1,5.7,4.2"/><path class="cls-2" d="M20.7,24h-.4v7.2c.5-1.1,1.7-.7,3-.4s2.7.3,4.1.4l-.2-.6A7,7,0,0,1,20.7,24"/><path class="cls-2" d="M84.4,26.6s.1,2.3-1.6,2.3-1.6-1.7-1.6-2.4V16.2c0-1.8-1.7-6.4-8.9-6.4l-.2.7a3.14,3.14,0,0,1,2,2.9V25a13.33,13.33,0,0,0,.3,2.8A2.65,2.65,0,0,1,72,29.9c-1.8,0-2.7-1-2.7-4.6,0-3.9,2.7-5.1,3.6-5.1l-.1-.4s-9.9,0-9.9,6c0,4.1,3.6,5.6,6.7,5.6a5.49,5.49,0,0,0,4.9-3c.6,1.6,1.9,3,4.9,3,5.2,0,5.4-4.6,5.4-4.6Z"/><path class="cls-2" d="M70.3,16a2,2,0,0,1-2.4-1.8v-.5a3.41,3.41,0,0,1,3.3-3.4l.1-.5s-7-.1-7,4.5c-.1,4.2,5.9,4,6,1.7"/><path class="cls-2" d="M103.8,23.9c0,1.4-1.5,5.2-5.4,5.2-2.2,0-5.7-.7-5.7-8.5s1-9.9,2.8-10.2c.2,0,.4-.1.6-.1L96,9.7h-.7c-6.2,0-9.8,4.8-9.8,10.8s3.4,10.8,9.8,10.8a9.24,9.24,0,0,0,9.3-7.3Z"/><path class="cls-2" d="M100.5,13.7a2.14,2.14,0,0,1-2,2.3H98c0,2.3,6,2.4,6-1.7,0-4.6-7-4.5-7-4.5l.1.5a3.43,3.43,0,0,1,3.4,3.4"/><path class="cls-2" d="M110.7,7.2a3.6,3.6,0,1,0-3.6-3.6h0a3.59,3.59,0,0,0,3.6,3.6h0"/><path class="cls-2" d="M114.2,30.6V9.8a11.94,11.94,0,0,1-5.8,1.5h-2.8v.6h1.5V30.6h-1.2v.6h9.5v-.6Z"/><path class="cls-2" d="M50.8,9.8a5.38,5.38,0,0,0-4.3,1.7V9.8a11.94,11.94,0,0,1-5.8,1.5H38v.6h1.5v28H38.3v.6h9.5v-.6H46.6V13.6c.4-1.4,1.6-2.9,3-2.9,2,0,3.8,2.8,3.8,9.9,0,9.9-3,10.3-5.4,9.2l-.2.7a6.11,6.11,0,0,0,3,.8c6.3,0,9.8-4.8,9.8-10.8S57,9.8,50.8,9.8"/><path class="cls-2" d="M128.4,9.7c-6.8,0-10.6,4.6-10.6,10.8s3.3,10.8,10.4,10.8,10.6-4.8,10.6-10.8S135,9.7,128.4,9.7m-.1,21c-3,0-3.2-4.5-3.2-10.1s.3-10.1,3.3-10.1,3.3,4.5,3.3,10.1-.5,10.1-3.4,10.1"/><path class="cls-2" d="M83.4,60.1A9.35,9.35,0,0,1,74,67.4c-6.4,0-9.8-4.8-9.8-10.8S67.8,45.8,74,45.8c6.6,0,8.2,2.9,8.2,6s-3.2,5.1-9.7,5.1v-.7a5.06,5.06,0,0,0,4.2-5c0-3.9-1.5-4.4-2.4-4.4-1.8,0-2.9,2-2.9,9.9s3.5,8.5,5.7,8.5c3.9,0,5.4-3.8,5.4-5.2Z"/><path class="cls-2" d="M110.7,43.3a3.6,3.6,0,1,0-3.6-3.6h0a3.59,3.59,0,0,0,3.6,3.6"/><path class="cls-2" d="M114.2,66.7V45.9a10.71,10.71,0,0,1-5.8,1.5h-2.8V48h1.5V66.7h-1.2v.6h9.5v-.6Z"/><path class="cls-2" d="M16.7,43.3a3.6,3.6,0,1,0-3.6-3.6h0a3.59,3.59,0,0,0,3.6,3.6"/><path class="cls-2" d="M20.2,66.7V45.9a10.94,10.94,0,0,1-5.8,1.5H11.6V48h1.5V66.7H11.9v.6h9.5v-.6Z"/><path class="cls-2" d="M128.4,45.8c-6.8,0-10.6,4.6-10.6,10.8s3.3,10.8,10.4,10.8,10.5-4.9,10.5-10.8S135,45.8,128.4,45.8m-.1,20.9c-3,0-3.2-4.6-3.2-10.1s.3-10.1,3.3-10.1,3.3,4.5,3.3,10.1-.5,10.1-3.4,10.1"/><path class="cls-2" d="M62.9,46.5v-.6H59.8v-6h-.6s-.6,3.7-5.4,3.7H52.7V46H50.5v.5h2.2V66.7H51.5v.6H61v-.6H59.8V46.5Z"/><path class="cls-2" d="M33.4,45.9a10.71,10.71,0,0,1-5.8,1.5H24.8V48h1.5V66.7H25.1v.6h9.5v-.6H33.4Z"/><path class="cls-2" d="M46,66.8V52.6a6.66,6.66,0,0,0-6.5-6.7h-.2a6.82,6.82,0,0,0-5,2.2V49a2.61,2.61,0,0,1,2-1c1.7,0,2.6,1.4,2.6,3V66.7H37.7v.6h9.5v-.6H46Z"/><path class="cls-2" d="M94.2,45.9a10.94,10.94,0,0,1-5.8,1.5H85.6V48h1.5V66.7H85.9v.6h9.5v-.6H94.2Z"/><path class="cls-2" d="M95.1,48.5v1.2a1.51,1.51,0,0,1,1.4-.9,1.88,1.88,0,0,1,1.8,1.9h0a2,2,0,0,1-1.4,2.1c0,2.3,6,2.5,6-1.7,0-3.8-5.3-5.2-7.8-2.6"/><path class="cls-2" d="M149.8,45.9a10.1,10.1,0,0,1-5.8,1.5h-2.8V48h1.5V66.7h-1.2v.6H151v-.6h-1.2Z"/><path class="cls-2" d="M150.8,48.5v1.2a1.51,1.51,0,0,1,1.4-.9,1.79,1.79,0,0,1,1.8,1.8v.1a2,2,0,0,1-1.4,2.1c0,2.3,6,2.5,6-1.7,0-3.8-5.4-5.2-7.8-2.6"/><g class="cls-3"><path class="cls-2" d="M83.4,60.1A9.35,9.35,0,0,1,74,67.4c-6.4,0-9.8-4.8-9.8-10.8S67.8,45.8,74,45.8c6.6,0,8.2,2.9,8.2,6s-3.2,5.1-9.7,5.1v-.7a5.06,5.06,0,0,0,4.2-5c0-3.9-1.5-4.4-2.4-4.4-1.8,0-2.9,2-2.9,9.9s3.5,8.5,5.7,8.5c3.9,0,5.4-3.8,5.4-5.2Z"/><g class="cls-4"><path class="cls-2" d="M65.4,61a11.58,11.58,0,0,1,0-9.3l.2.2a2.15,2.15,0,0,1,.2,1.1v1.5c.1,1.6-.2,3.2,0,4.8C65.8,59.9,66,60.5,65.4,61Z"/><path class="cls-2" d="M69.7,66.4l-.5-.1a.78.78,0,0,1-.4-.4c-.1-.4-.5-.5-.8-.6a.55.55,0,0,1-.3-.5,1.27,1.27,0,0,1,.1-.6c.5-.2,1.1-.3,1-1.1a.86.86,0,0,1,.3-.6c1.5,0,1.8,1,1.9,2.2-.3.5-.2,1.3-.7,1.7C70.1,66.6,69.8,66.6,69.7,66.4Z"/><path class="cls-2" d="M76.4,56.7l-.9-.1c-.2-.9-.2-1.8,1-2.1a7.57,7.57,0,0,1,1.5-.1.43.43,0,0,1,.4.4c.2.5-.6.8-.2,1.3l-1,.6Z"/><path class="cls-2" d="M65.4,51.7A6.35,6.35,0,0,1,68.1,48l.2.1a.55.55,0,0,1,.3.5c0,.1-.1.2-.2.3a1.06,1.06,0,0,0-.7.6l-.6.9-.3.5a3.55,3.55,0,0,0-.4.9c-.1.1-.2.1-.4.2a.86.86,0,0,1-.6-.3Z"/><path class="cls-2" d="M80.3,64.2a.35.35,0,0,1,.1-.2c1-.3,1.1-1.5,1.8-2.1a.37.37,0,0,1,.2.5c.1.5-.4.8-.5,1.3S81.6,65,80.7,65A.91.91,0,0,1,80.3,64.2Z"/><path class="cls-2" d="M67.9,64.3v.6c-.3.2-.4-.1-.6-.3-.7-.5-.8-1.3-1.2-1.9a1.09,1.09,0,0,1,1.1-.2,2,2,0,0,1,.9,1.1A1.45,1.45,0,0,1,67.9,64.3Z"/><path class="cls-2" d="M65.4,61l.1-1.9c.7-.7.8-.1.9.4a7.41,7.41,0,0,1,.1,2.1,1.16,1.16,0,0,1-.4,1A1.54,1.54,0,0,1,65.4,61Z"/><path class="cls-2" d="M82.4,62.4a1.69,1.69,0,0,1-.2-.5c-.2-.8.6-1.2.6-1.8.5-.4.7,0,.7.4a2,2,0,0,1-.8,1.9Z"/><path class="cls-2" d="M66,62.5v-1c1.4-.3,1.6-.2,1.2,1.2H66Z"/><path class="cls-2" d="M69.1,46.9h.3c.3,1.1,0,1.5-1.2,1.2l-.1-.1Z"/><path class="cls-2" d="M73,46a8.38,8.38,0,0,1,6.2.8c-.4.9-1.2.8-1.9.7a3.08,3.08,0,0,0-1.9-.3H73.9a2.05,2.05,0,0,0-1.1,0C72,46.7,72.4,46.3,73,46Z"/><path class="cls-2" d="M81.9,49.3a4.47,4.47,0,0,1-.1,4.6.47.47,0,0,1-.6.1l-.1-.1c.2-1.4-.5-3,.5-4.3Q81.75,49.3,81.9,49.3Z"/><path class="cls-2" d="M73,46c-.2.4-.7.7-.3,1.2a.48.48,0,0,1,0,.7L72,49.3c-.1.2-.4.2-.6.2-.5-.1-.4-.5-.3-.8a1.4,1.4,0,0,0-.3-1.5c-.1-.1-.1-.2-.2-.4,0-.4.6-.3.7-.6A2.6,2.6,0,0,1,73,46Z"/><path class="cls-2" d="M81.3,53.9h.6a4.71,4.71,0,0,1-3.7,2.2c-.6-.4,0-.8,0-1.2.6-.4,1.3-.2,1.8-.8A2,2,0,0,1,81.3,53.9Z"/><path class="cls-2" d="M68.2,48.1c.8,0,1.1-.5,1.2-1.2l.5-.1a.91.91,0,0,1,1,0h0c.6,1.7.3,2.1-1.9,2.2a2.09,2.09,0,0,1-.6-.4Z"/><path class="cls-2" d="M77,47.2a3.36,3.36,0,0,0,2.2-.4l.5.1a2.44,2.44,0,0,0,.9,1.1c.5.3,1,.7.6,1.4a1.18,1.18,0,0,1-1,.1c-1.1-.5-1.9-1.7-3.2-1.8C76.6,47.3,76.6,47.3,77,47.2Z"/><path class="cls-2" d="M81.3,49.3c-.3-.4-.5-1.2-1.1-1.2-1.5,0-.6-.8-.5-1.2a3.76,3.76,0,0,1,2.2,2.4l-.1.1A.35.35,0,0,1,81.3,49.3Z"/><path class="cls-2" d="M70.9,46.9h-1a2.27,2.27,0,0,1,1.6-.6Z"/><path class="cls-2" d="M71.5,49.3h.6a66.2,66.2,0,0,0-.3,8.9,5.22,5.22,0,0,0,.4,2.1,6.29,6.29,0,0,0,1.2,3.1c-.1.2-.1.6-.4.7a.76.76,0,0,1-.4-.2c-.5-.5-.5-1.4-1.2-1.8-.3-.7-.1-1.5-.5-2.2a27.15,27.15,0,0,0-.1-2.9.6.6,0,0,1-.1-.4c.4-1.1-.5-2.3.1-3.4a1.68,1.68,0,0,0,.4-1.3V50.1A1,1,0,0,1,71.5,49.3Z"/><path class="cls-2" d="M75.8,54.2l.5-.4a.67.67,0,0,1,0,1h0c-1.1.2-.3,1.4-.9,1.8l-.6.1c-.8.2-1.4.2-1-.9C74.6,55.3,75.4,55,75.8,54.2Z"/><path class="cls-2" d="M74,55.8c-.1.8.4.9,1,.9a1.45,1.45,0,0,1-.7.2c-.5,0-1.3.3-1.4-.4S73.6,56,74,55.8Z"/><path class="cls-2" d="M73.6,46.9l-.3.5-.5.4v-.7Z"/><path class="cls-2" d="M70.9,53c-.2,1.2.3,2.4,0,3.7-1.5.6-1.9.4-2.2-1.1a1.14,1.14,0,0,0-.3-.8c-1.3-.4-1.7-.2-1.4,1,.2,1,0,2.4,1.7,2.4a2.09,2.09,0,0,1,.6.4,5.65,5.65,0,0,1,.2,2.6,9.36,9.36,0,0,0-.4,1.6v.6c-.3.3-.7.7-1.2.3-.2-.3-.7-.4-.6-.9q.15-1.5-1.2-1.2V59.5c0-.5-.3-.4-.6-.3V54.4q.45-.15,0-.3v-.9c.4-.3.2-.9.6-1.2h.3c.2-.2,0-.6.4-.7.6-.4,1.1-.7,1.8-.2a.78.78,0,0,0,.6.9c.1.1.1.2.2.3.2.4.3-.1.4-.1a.66.66,0,0,1,.6-.1.71.71,0,0,1,.6.3C71.2,52.4,71.1,52.8,70.9,53Z"/><path class="cls-2" d="M66,51.8c-.3.4.5,1.3-.6,1.2V51.8Z"/><path class="cls-2" d="M65.4,53.9c.2,0,.5-.2.6.2a.75.75,0,0,1-.1.5l-.5-.3Z"/><path class="cls-2" d="M69.1,62.7c-1.2-.4.1-.8,0-1.2.5-.4.1-1.2.6-1.7.4-.3.8-.6,1.3-.2,1.2.6.3,1.6.6,2.4s1,1.1,1.2,1.8h0c-.2.8-.7.4-1.1.4.5.2,1-.1,1.6,0a.86.86,0,0,1,.7.6c.1.4-.3.5-.5.6a14.16,14.16,0,0,1-2,.4h-.4a1.21,1.21,0,0,1-.3-1A2.46,2.46,0,0,0,69.1,62.7Z"/><path class="cls-2" d="M67.9,63.7l1.2-.3c.2,1-.3,1.3-1.2.9Z"/><path class="cls-2" d="M70.6,64.9l.3.9a.38.38,0,0,1,0,.6.3.3,0,0,1-.4,0h-.2C70.5,65.9,70.2,65.3,70.6,64.9Z"/><path class="cls-2" d="M69,65.8a1.27,1.27,0,0,1-.9-.7C68.6,65.2,69.1,65.2,69,65.8Z"/><path class="cls-2" d="M80.1,54.2c-.3,1-1.2.7-1.8.6l-.3-.3c-.7.3-1.1.2-1.1-.6a.52.52,0,0,1,.2-.4c.7.7.8-.5,1.3-.3.2.1.3,0,.4-.2a1.42,1.42,0,0,1,.6-.2A1.27,1.27,0,0,1,80.1,54.2Z"/><path class="cls-2" d="M77,53.6q-.15,1,.9.9c-.4.5-1,.2-1.5.3v-1c0-.1,0-.2.1-.2a.45.45,0,0,1,.5,0Z"/><path class="cls-2" d="M71.2,65.8c.7-.7,1.8-.2,2.5-.8-.6-.7-1.4-.3-2.2-.5.4-.4,1,0,1.3-.5l.6-.6.7.6c1.1,1.1,2.5,1.1,3.9,1.2.1.8-.6,1-1.2,1-1.4.1-2.9.2-4.3.2A1.09,1.09,0,0,1,71.2,65.8Z"/><path class="cls-2" d="M71.2,65.8c.2.1.5.2.7.3l5.1-.3a.87.87,0,0,0,.9-.6l.9-.3a.89.89,0,0,1,.4,1c-.1.2-.3.3-.4.5l-.5.1c-1.1.2-2.2.5-3.4.8a12.86,12.86,0,0,0-1.9-.4c-.7-.2-1.4,0-2-.4v-.6h.2Z"/><path class="cls-2" d="M79.2,65.9l-.4-1,1.5-.7a.84.84,0,0,1,.4.7.35.35,0,0,1-.1.2Z"/><path class="cls-2" d="M74.6,67c1.2-.2,2.4-.9,3.7-.6L77,67a9.12,9.12,0,0,1-6.5-.6l.4-.1h2.4C73.5,67,74.2,66.6,74.6,67Z"/><path class="cls-2" d="M68.5,48.7h.6a1.38,1.38,0,0,1,.3,1.2.91.91,0,0,1-.3.7,2.6,2.6,0,0,1-2.4-.4c.2-.3.7-.4.6-.9.3-.3.8-.3,1.2-.6Z"/><path class="cls-2" d="M66.7,50.2a5,5,0,0,0,2.4.3.85.85,0,0,1,0,.7.48.48,0,0,1-.7,0c-.6-.7-1.2,0-1.8,0-.1-.1-.1-.1-.1-.2s0-.1.1-.1Z"/><path class="cls-2" d="M68.5,48.7c-.2.5-.7.6-1.2.6C67.5,48.8,67.9,48.7,68.5,48.7Z"/><path class="cls-2" d="M66.6,50.9v.3a.71.71,0,0,1-.3.6C66.2,51.4,65.8,50.9,66.6,50.9Z"/><path class="cls-2" d="M77,50c-.4-1-.5-2.3-1.5-3.1.5-.1,1.1-.4,1.5.3q-.3.15,0,.3C77.1,48.3,77.9,49.2,77,50Z"/><path class="cls-2" d="M80.1,54.2,79.5,53a4.87,4.87,0,0,1,.1-1.2c.1-.4-.3-.8-.2-1.3a1.64,1.64,0,0,1,.7-1.1h1.8c-.5,1.5-.2,3-.6,4.5C81,54.3,80.5,54.2,80.1,54.2Z"/><path class="cls-2" d="M69.1,50V48.8q2.25.3,1.8-1.8c1.3.5.7,1.5.6,2.4V50a.85.85,0,0,1-.5.3c-.5.2-.4.8-.8,1a.64.64,0,0,1-.6,0C69.2,50.9,69.5,50.3,69.1,50Z"/><path class="cls-2" d="M80.1,49.3c-.1.5.2,1.1-.6,1.2-.5.4-1.1.7-1,1.5-.1.9-.6,1.1-1.4,1-.6-.5.1-.9.1-1.3,0-.6.3-1.3-.2-1.8h0c.5-.8-.4-1.6,0-2.5A4,4,0,0,1,80.1,49.3Z"/><path class="cls-2" d="M77,50c1,.7.5,1.6.3,2.5-.1.2-.1.4-.2.5.2.2.2.5,0,.6h-.6A14.87,14.87,0,0,0,77,50Z"/><path class="cls-2" d="M70.9,59.7l-1.2.3c-.7-.6.2-1.8-.9-2.3a1.42,1.42,0,0,1-.6-.2c-.7-.7,0-.7.4-.8.7.3,1.5,0,2.3.3C70.8,57.9,71.6,58.8,70.9,59.7Z"/><path class="cls-2" d="M70.9,56.9H68.4a2.25,2.25,0,0,1,0-2.7.65.65,0,0,1,.6.6V55c-.3,1.6.7,1.7,1.8,1.6A.37.37,0,0,1,70.9,56.9Z"/><path class="cls-2" d="M70.3,51.2c.1-.5-.2-1.1.6-1.2.3.2.3.7.6.9v.9a.71.71,0,0,1-.6.3h-.6C70.1,51.8,70,51.4,70.3,51.2Z"/><path class="cls-2" d="M72.7,64c-.6-.5-1.4-.8-1.2-1.8.2-.1.3-.2.5-.3C71.8,62.7,72.9,63.1,72.7,64Z"/><path class="cls-2" d="M70.9,52.1a.71.71,0,0,1,.6-.3c0,.5.2,1.1-.6,1.2Z"/><path class="cls-2" d="M71.5,50.9c-.6,0-.6-.5-.6-.9h.6Z"/><path class="cls-2" d="M68.5,54.2v2.7l-.4.2.4.2a.91.91,0,0,1,0,1.2c-.7.1-1.6-.2-1.6-.8,0-1.2-1-2.4-.1-3.5C67.2,53.5,67.9,54.2,68.5,54.2Z"/><path class="cls-2" d="M69.1,57.3c.9.8.5,1.8.6,2.7-.1.5.4,1.3-.6,1.5v-3A.75.75,0,0,1,69.1,57.3Z"/><path class="cls-2" d="M68.5,51.2h.6a.44.44,0,0,1,.1.5l-.1.1c-.4-.1-.9.5-1.1-.2C67.9,51.2,68.2,51.2,68.5,51.2Z"/><path class="cls-2" d="M69.7,52.1c-.1.3.2.8-.3,1-.5-.2-.2-.7-.3-1,.1-.2.4-.2.6,0Z"/><path class="cls-2" d="M69.1,57.3v1.2h-.6V57.3Z"/><path class="cls-2" d="M69.7,52.1h-.6v-.3h0c.2-.2.3-.5.6-.6h.6v.9Z"/><path class="cls-2" d="M77,53.6V53c.5-.3,1.4-.2,1.2-1.2a.3.3,0,0,1,.4,0,1.72,1.72,0,0,1,.2,1.2C78.5,54.2,77.8,54,77,53.6Z"/><path class="cls-2" d="M78.8,53c-.5-.3-.3-.8-.3-1.2a.82.82,0,0,1,1.2,0h0c.2.5.2.9-.3,1.2Z"/><path class="cls-2" d="M74.6,67c-.5,0-1.1.2-1.2-.6C73.7,66.8,74.5,66.1,74.6,67Z"/><path class="cls-2" d="M69.7,51.2a.56.56,0,0,1-.5.6h-.1V49.9C69.9,50,69.6,50.7,69.7,51.2Z"/><path class="cls-2" d="M79.8,51.8H78.3c-.3-1.1.3-1.3,1.2-1.2C79.8,50.9,80.2,51.2,79.8,51.8Z"/></g><path class="cls-2" d="M110.7,43.3a3.6,3.6,0,1,0-3.6-3.6h0a3.59,3.59,0,0,0,3.6,3.6"/><g class="cls-5"><path class="cls-2" d="M112.1,43.2c-1.1-.1-2.2.4-3.1-.5,0-.2.3-.1.4-.2a1.27,1.27,0,0,0-.6.1,2.91,2.91,0,0,1-1.3-3.7,1.79,1.79,0,0,1,.7.5c1.6.3,3.2-.1,4.8.1.5.8,0,1-.6,1.2a5,5,0,0,1,1.2-.2,1.07,1.07,0,0,1,.6.2.87.87,0,0,1-.4,1.2h0A3.15,3.15,0,0,1,112.1,43.2Z"/><path class="cls-2" d="M107.8,39.6c-.3-.1-.3-.4-.3-.7-.1-.7.6-1.1.7-1.7,2.4-2.1,4.8-1.5,6.2,1.4,0,.8.5,1.5-.2,2.2h-.5c-.6-.5.1-1.5-.8-1.9-1.5.3-3.1,0-4.5.5C108.1,39.5,108,39.7,107.8,39.6Z"/><path class="cls-2" d="M108.7,42.6c.4-.4.8-.3,1.4,0l-1.2.2-.2-.2Z"/><path class="cls-2" d="M107.8,39.6l.3-.3a12.92,12.92,0,0,1,4.8-.1c.1.1.2.3.1.4h0c-1.6.6-3.2.1-4.8.4C108.1,40,107.9,39.7,107.8,39.6Z"/><path class="cls-2" d="M113,39.6v-.3c-.2-.1-.2-.4,0-.6h0c0-.3.2-.7.4-.2a17.85,17.85,0,0,1,.2,2.3h-1.8C112.5,40.4,113.2,40.3,113,39.6Z"/><path class="cls-2" d="M113,38.7v.6h-4.9c-.2-.1-.3-.4,0-.4C109.7,38.8,111.3,38.7,113,38.7Z"/></g><path class="cls-2" d="M114.2,66.7V45.9a10.71,10.71,0,0,1-5.8,1.5h-2.8V48h1.5V66.7h-1.2v.6h9.5v-.6Z"/><g class="cls-6"><path class="cls-2" d="M115.4,67.3h-8.5a.61.61,0,0,1,0-.8,19.67,19.67,0,0,0,.1-4.2V49.6a3,3,0,0,0-.2-1.6c-.1-.5.3-.5.6-.5h2.2c.5.2,1,.1,1.5.4,0,.9-.8.7-1.3.8s-1.3,0-1.3.9V52a6.15,6.15,0,0,1-.2,1.9.42.42,0,0,0,0,.7,2.85,2.85,0,0,1,0,1.3,1.73,1.73,0,0,0,.1,1,12.19,12.19,0,0,1,0,2.7,3.4,3.4,0,0,0-.1,1,1.18,1.18,0,0,1-.1,1c-.5.3,0,.5,0,.7v.6c0,.2-.5.4-.1.7a3.55,3.55,0,0,1,.2,1v.8a.6.6,0,0,0,.1.4c1.3.7,2.7.2,4,.3.6,0,.6-.4.7-.8.1-.1.1-.2.2-.3.3-.1.5.2.7.3.2.4-.2,1,.3,1.4C115,66.7,115.7,66.3,115.4,67.3Z"/><path class="cls-2" d="M114.2,65.2l-.6-.3a1.61,1.61,0,0,1-.4-.7,19.22,19.22,0,0,1,0-2.4V56.3c0-.5.2-1.1-.4-1.5-.8-.3-1.9.3-2.6-.7.1-.4.4-.4.7-.5.7,0,.8,0,1.8-1,.1-.1.2-.1.3-.2.3-1.7.6-3.4-.2-5.1-.2-.1-.3-.3-.4-.4l1.1-.6c.7-.4.9-.1.9.6C114.3,53,114.2,59.1,114.2,65.2Z"/><path class="cls-2" d="M112.3,46.8l.7.1a2.75,2.75,0,0,1,0,2.5,6.4,6.4,0,0,1-4.9-.1c-.1-.9.2-1.3,1.2-1.2.6,0,1.3.3,1.9-.3-.1-.3-.4-.1-.6-.2a.37.37,0,0,1-.1-.3Z"/><path class="cls-2" d="M106.9,47.8h-1.2c0-.7.6-.5,1-.5h3.8v.2a.28.28,0,0,1-.5,0h0C109,47.7,107.9,47.2,106.9,47.8Z"/><path class="cls-2" d="M106,66.7l.9.1v.4C105.9,67.3,105.8,67.3,106,66.7Z"/><path class="cls-2" d="M108.1,49.3H113a1.65,1.65,0,0,1,0,1.9,7.49,7.49,0,0,1-4.9-.1Z"/><path class="cls-2" d="M108.1,59.7V56.3c1.9-.9,2.2-.8,3,.8.1.6.6.8.9,1.1s.7.7.4,1.1-.7.1-1.1,0a1.27,1.27,0,0,0-.6-.1C109.8,59.1,109.1,60.3,108.1,59.7Z"/><path class="cls-2" d="M110.9,57.3c-.4-1.8-1.8-.7-2.8-.9,0-.2-.3-.4,0-.6a6.79,6.79,0,0,1,5-.9,9.65,9.65,0,0,1,.1,3.4.49.49,0,0,1-.8.2A15.76,15.76,0,0,0,110.9,57.3Z"/><path class="cls-2" d="M111.2,53.9h-.9a1.66,1.66,0,0,1-2.1,0V51.8a3,3,0,0,1,2.3-.2c.7.6,1.8.3,2.5.7.1.1.2.3.1.4h0a5.75,5.75,0,0,1-3.4.4c.5.1,1,0,1.5.1S111.6,53.6,111.2,53.9Z"/><path class="cls-2" d="M108.1,64.6V63.4a7.18,7.18,0,0,1,4.8-.2.78.78,0,0,1,.2.8C111.5,64.9,109.9,65.5,108.1,64.6Z"/><path class="cls-2" d="M108.1,61.5V60.3c1.6-.9,3.2-.2,4.8-.1a.52.52,0,0,1,.2.4,2.23,2.23,0,0,1-2.2,1.2A12.65,12.65,0,0,1,108.1,61.5Z"/><path class="cls-2" d="M113,60.3c-1.6.3-3.2-.2-4.9,0q-.45-.3,0-.6c1,0,1.7-1.1,2.8-.9.5.8,1.4.8,2.1,1.1A.3.3,0,0,1,113,60.3Z"/><path class="cls-2" d="M113,54.8l-4.9.9V54.2c1.6-.3,3.2.4,4.7.2.2,0,.3.2.2.4Z"/><path class="cls-2" d="M108.1,61.5a3.34,3.34,0,0,1,1.7-.1,3.75,3.75,0,0,0,3.2-.8c.4.3.3.8.2,1.2a1.38,1.38,0,0,1-.3.4,8.68,8.68,0,0,1-4.8-.2C108.1,61.9,107.8,61.7,108.1,61.5Z"/><path class="cls-2" d="M113,66.4h-3.9c-.7,0-1.1-.2-1-.9,1.5-.7,3.1-.4,4.7-.2.2.1.3.2.3.4-.5.7-1.3.2-1.8.3-.3,0,0,.3-.1.1a5.44,5.44,0,0,1,1.8,0c.1,0,.1.2,0,.3Z"/><path class="cls-2" d="M108.1,62.1c1.6-.4,3.2.2,4.9,0a.48.48,0,0,1,0,.7h-.1a11.11,11.11,0,0,1-4.8-.1v-.6Z"/><path class="cls-2" d="M108.1,62.7H113a.38.38,0,0,1,0,.6h-4.9C107.8,63.2,108.1,62.9,108.1,62.7Z"/><path class="cls-2" d="M110.5,51.8h-2.4v-.6H113a.48.48,0,0,1,0,.7h0A3.11,3.11,0,0,1,110.5,51.8Z"/><path class="cls-2" d="M108.1,64.6c1.7.3,3.3-.4,4.9-.6a.71.71,0,0,1,.6.3v.6h0a1.14,1.14,0,0,1-.8.3c-1.6-.1-3.2.3-4.7-.3Z"/><path class="cls-2" d="M113,54.5a20.2,20.2,0,0,1-4.9-.3q-.3-.15,0-.3h2.1c.9.6,1.8.2,2.7.3.1,0,.1.1.1.2Z"/><path class="cls-2" d="M108.1,64.9H113a.25.25,0,0,1-.1.4h-.1a36.88,36.88,0,0,1-4.7-.1Z"/><path class="cls-2" d="M108.1,65.2H113a.19.19,0,0,1,0,.3h-4.9Z"/><path class="cls-2" d="M113,65.5v-.6h.6c-.1.5.4,1.3-.6,1.5v-.3c-.1-.1-.2-.1-.1-.2l.1-.1Z"/><path class="cls-2" d="M110,47.5h1.3c.2,0,.3,0,.2.2s-.2,0-.3.1C110.8,47.7,110.3,48,110,47.5Z"/><path class="cls-2" d="M113,54.5v-.3c.8.1.6.8.6,1.3v6.3c-.1.2-.4.2-.6,0h0V60c0-.5-.4-1,0-1.5v-4Z"/><path class="cls-2" d="M113,51.8V47a.58.58,0,0,1,.6.6v4.9c0,.5-.3.4-.6.3v-.3c-.2-.3-.2-.5,0-.7Z"/><path class="cls-2" d="M111.2,53.9c.1-.3.2-.6-.3-.6a3.89,3.89,0,0,1-1.5-.2l3.6-.4c-1.1.4.1.7.1,1.2Z"/><path class="cls-2" d="M113,61.8h.6v2.4a.71.71,0,0,1-.6-.3V61.8Z"/><path class="cls-2" d="M113,58.5c-.1.5.7,1,0,1.5-.9-.1-2.1.3-2.1-1.2.5-.2.8.4,1.4.5a1.18,1.18,0,0,0-1.1-1.1c-.8-.1-.6-.5-.4-.9C111.8,57.2,112.4,57.9,113,58.5Z"/><path class="cls-2" d="M113,51.8v.6c-.8-.3-1.9.6-2.4-.6Z"/><path class="cls-2" d="M113,65.8v.3h-2.1v-.3Z"/></g><path class="cls-2" d="M16.7,43.3a3.6,3.6,0,1,0-3.6-3.6h0a3.59,3.59,0,0,0,3.6,3.6"/><g class="cls-7"><path class="cls-2" d="M20.2,37.8l.1.5a.85.85,0,0,1,0,.7c-.7.4-1.2-.1-1.8-.3a6.89,6.89,0,0,1-.8-.3.79.79,0,0,1-.5-.7c0-.4.5-.3.8-.5s-.2-.2,0,0a2.49,2.49,0,0,1-2.5-.2.62.62,0,0,1,.1-.7h0C17.3,35.4,18.9,35.9,20.2,37.8Z"/><path class="cls-2" d="M18.8,38.3c.5.3.9.7,1.5.6.7.7.3,1.4,0,2.1l-.1.6c-.5.6-.9,1.1-1.8,1-.1-.1-.2-.2-.2-.3-.1-1,.5-1.8.7-2.8C18.6,39.2,18,38.9,18.8,38.3Z"/><path class="cls-2" d="M14.2,42l-.5-.4a3.82,3.82,0,0,1,0-3.3h0c.2-.4.2-.9.6-1.2h0a.78.78,0,0,1,.8-.2c.5.4.2.8,0,1.2-.1.1-.1.2-.2.4a2.11,2.11,0,0,0,.2,2.5.85.85,0,0,1,0,.7.76.76,0,0,1-.2.4A.59.59,0,0,1,14.2,42Z"/><path class="cls-2" d="M15.1,37l.3-.2c.9.1,1.7.6,2.7.3,0,.6-.5.3-.7.7.3.5,1,.2,1.4.6-.4,1,.4.8.9.9-.7.6-.7.7-2.1.7-.1-.2-.1.3,0,.1s.1-.1.1,0c.2.7.8,1.5-.5,1.9-.1,0-.3-.1-.4-.1-.6-.5-1.4-.2-2-.7-.7-.9-1.2-1.8,0-2.8.1.2,0,0,.1.1a3.09,3.09,0,0,1,.2.8,1.31,1.31,0,0,0-.3-1Z"/><path class="cls-2" d="M16.9,41.7c.3-.1.7.2.8-.4,0-.8-.4-1.2-1.2-1.5,1.1-.2,2.2,0,3.2-.6-.3.7-.7,1.5-1,2.2a2.35,2.35,0,0,0-.2.8c-.5.4-1,.1-1.5-.2A.19.19,0,0,1,16.9,41.7Z"/><path class="cls-2" d="M16.9,42l1.5.3v.3h0a2.49,2.49,0,0,1-1.7.3c-.4,0-.9-.2-.8-.7S16.5,41.8,16.9,42Z"/><path class="cls-2" d="M16.9,42c-.3,0-.7-.1-.7.3s.3.3.6.3h1.7c-.6.8-1.6.5-2.4.6-.4-.4-1-.6-1.3-1.1v-.3a2,2,0,0,1,2.1,0h0Z"/><path class="cls-2" d="M16.9,41.7H14.8v-.6C15.5,41.2,16.4,40.7,16.9,41.7Z"/><path class="cls-2" d="M14.8,38.3c1,.2.5,1,.6,1.6,0,.2-.1.4-.2.4h-.1c-.3,0-.4-.2-.4-.5C14.7,39.3,14.8,38.8,14.8,38.3Z"/></g><path class="cls-2" d="M20.2,66.7V45.9a10.94,10.94,0,0,1-5.8,1.5H11.6V48h1.5V66.7H11.9v.6h9.5v-.6Z"/><g class="cls-8"><path class="cls-2" d="M18.2,46.8c2.2-.3,2.2-.3,2.2,2.1v1.3a1.59,1.59,0,0,1-1.3.3.76.76,0,0,1-.4-.2.81.81,0,0,1-.3-.9c.1-.8-.6-.9-1.1-1.1-.2-.2-.5-.4-.3-.6.5-.6-.5-.1-.3-.4-.1-.1-.1-.3,0-.3h0l1.2-.1c0-.2.1-.2.3-.1Z"/><path class="cls-2" d="M14.5,67.3a7.41,7.41,0,0,1-2.1-.1c.2-.6.8-.5,1.1-.8L14,66c.6-.8.2-1.7.3-2.6a4.4,4.4,0,0,1,.2-1.6c.8-.7,2-1,2.4-2.1.7-.3,1.4-.5,1.6.4.2.7.1,1.6-1.1,1.5h-.1c1.7.1,1.7.1,1.4,1.7a6.45,6.45,0,0,0-.3,2,1.6,1.6,0,0,1-1.7,1.6h-.1A7.79,7.79,0,0,0,14.5,67.3Z"/><path class="cls-2" d="M14.5,67.3c.7-.4,1.4-1.1,2.3-.9,1.2.3.3-.9.8-1,1-.1.9-.3.2-.8-.2-.1-.2-.4-.1-.6s.1-.1.2-.1c.7-.3.7-.4.2-1s.8-.2.7-.7c-.5-.5-1.1-.2-1.6-.3-.1-.6.4-.4.7-.4s.6,0,.7-.4c.2-1.3.9-1.1,1.7-.6V65c0,.9-.1,1.8,1.2,2.1l-.2.4Z"/><path class="cls-2" d="M16.9,59.7c0,1.4-.9,1.9-2.1,1.8a4.94,4.94,0,0,0-.3,2.7,3.41,3.41,0,0,1-.3,2.2h-.6V59.1a3.2,3.2,0,0,1,2.7-.3C16.8,58.8,17.1,59.1,16.9,59.7Z"/><path class="cls-2" d="M16.9,59.7c-.2-.8-.9-.6-1.4-.6H13.6v-.6c.8-.5,1.5,0,2.3-.1a2.54,2.54,0,0,0,1.7-.4c-.5-.1-1.4.1-1.3-.8s.9-.9,1.6-.7c.2.1.3.2.5.3,1.7.8,1.7.9.6,2.2a.93.93,0,0,1,1.3.1v1.2c-.5.2-1.4-.5-1.4.9,0,.7-1.2,0-1.6.6-.7-.2-.4-.6,0-.5,1,.1,1-.8,1-1.2C18.2,59.3,17.4,59.8,16.9,59.7Z"/><path class="cls-2" d="M17.8,56.7H17a.56.56,0,0,0-.6.5c0,.3.4.3.7.3h1.3a2.69,2.69,0,0,1-2.5,1.2c-.2-1.3-1.6-.6-2.2-1.2-.1-.6.5-.6.8-.8s1.1,0,.4-.8c-.2-.2.2-.5.5-.6a10.08,10.08,0,0,0,2.5-.5c.5,1,1.6.2,2.2.7v.6A1.5,1.5,0,0,1,17.8,56.7Z"/><path class="cls-2" d="M13.6,56.6V51.7a1,1,0,0,1,.9-.4,1.14,1.14,0,0,1,.7.8,12.76,12.76,0,0,1-.1,3.9C14.8,57,14.3,57.1,13.6,56.6Z"/><path class="cls-2" d="M20.3,55.7c-.3,0-.7-.1-.9.1-1.1.9-1.3.4-1.3-.7-.4.3-.8.1-1.2.2a.86.86,0,0,1-.7-.6c.2-.7.9-.5,1.4-.7.8-.5,1.6-1.2,2.6-.4v2.1Z"/><path class="cls-2" d="M20.3,53.6a2.24,2.24,0,0,0-2.4.9c-.5-.4-1.6-.6-.5-1.5.4-.3-.1-.6-.2-.9a.6.6,0,0,1,.1-.4,3.26,3.26,0,0,1,1.4-.4,8.6,8.6,0,0,1,1.6.1Z"/><path class="cls-2" d="M13.5,47.2h3.1c1-.2.7.4.6.9-.5.5-1.1.3-1.7.4s-1.3.1-1.5.9l-.3.3h-.2c-.4-.5-.1-1.1-.2-1.6C12.4,47.5,13.2,47.4,13.5,47.2Z"/><path class="cls-2" d="M17.8,56.7a6.34,6.34,0,0,0,2.4-.3v2.7H18.5c.7-1,1.2-1.8-.5-1.9A1.06,1.06,0,0,0,17.8,56.7Z"/><path class="cls-2" d="M13.6,56.6c.9.1,1.3-.2,1.2-1.2-.1-1.2,0-2.5,0-3.7.1-.2.2-.4.5-.4l.2.1a.52.52,0,0,1,.2.4c0,.1.1.3.1.4v2.6a1.27,1.27,0,0,1-.1.6c-.1.1-.1.2-.2.3l-.2.2c1,.8.3.9-.4,1a1.28,1.28,0,0,1-1.2,0Z"/><path class="cls-2" d="M13.9,57.6a13.4,13.4,0,0,1,2,.1c.9.2.7.7.2,1.1a5.39,5.39,0,0,1-2.5-.3v-.9C13.6,57.3,13.8,57.4,13.9,57.6Z"/><path class="cls-2" d="M20.3,51.5a1.36,1.36,0,0,1-1.5,0l-.2-.1c-.2-.1-.2-.3-.2-.5l.3-.3a2.21,2.21,0,0,1,1.6,0v.9Z"/><path class="cls-2" d="M14.2,51.5a.71.71,0,0,1-.6.3c0-.7-.4-1.4-.1-2.1l.1-.1C14.7,49.9,14.7,50.6,14.2,51.5Z"/><path class="cls-2" d="M20.3,50.5a5.66,5.66,0,0,0-1.8.3.42.42,0,0,1,.3-.6h1.5Z"/><path class="cls-2" d="M13.9,57.6h-.3V57h1.2Z"/><path class="cls-2" d="M18.8,50.2l-.3.6c-1,.5-1.9,1.2-3,.6h0c-.7-.9-.1-1.5.6-2.1-.8-.4-1.4.7-2.1,0-.4-1,.3-1.1,1-1.2a19.2,19.2,0,0,1,2.4,0c1-.3,1.1,1,1.9,1-.2.3-.4.1-.6.2-.1.4-.6.4-.9.6-.1,0,.2.1.1-.1C18.1,49.6,18.4,50.1,18.8,50.2Z"/><path class="cls-2" d="M18.8,50.2l-1.4-.4,1.1-.5Z"/><path class="cls-2" d="M14.2,66.4c.1-1.3-.3-2.7,0-4,.1-.4.1-.8.6-.9v3.7C14.8,65.7,14.9,66.3,14.2,66.4Z"/><path class="cls-2" d="M15.4,55.7v-.3c.4-.5,1-.1,1.5-.3h1.2A3.25,3.25,0,0,1,15.4,55.7Z"/><path class="cls-2" d="M13.9,49.3c.7.2,1.2-.6,1.8-.6.4,0,.8,0,1,.5s-.2.6-.6.7c-1.1.1-.6,1-.7,1.5l-.6.3-.6-.3c-.1-.7.2-1.4-.6-1.8Z"/><path class="cls-2" d="M15.4,54.8v-.3c.2-.1.2-.3.2-.5s-.1-.1-.2-.2v-.3A7.52,7.52,0,0,0,17,52h.2a1.08,1.08,0,0,1,1,1c0,.5-.8.1-1.1.8,0,.3.9.1.7.7-.5.1-1.1-.2-1.5.3A.56.56,0,0,1,15.4,54.8Z"/><path class="cls-2" d="M15.4,54.8h.9l.6.3c-.4.5-1,.2-1.5.3Z"/><path class="cls-2" d="M15.4,52.1v-.3a3.21,3.21,0,0,1,1.7-.2l.2.2v.3h0A1.65,1.65,0,0,1,15.4,52.1Z"/><path class="cls-2" d="M18.8,51.5c-.4.5-1,.2-1.5.3h0C17.5,50.8,18.2,51.3,18.8,51.5Z"/><path class="cls-2" d="M15.4,52.1h1.8c-.4.7-.6,1.7-1.8,1.5Z"/><path class="cls-2" d="M18.8,51.5c-.5.1-1.1-.2-1.5.3H15.5v-.3c1.1,0,2-.8,3-.6Z"/><path class="cls-2" d="M15.4,53.9c.2.1.7-.2.7.2s-.4.3-.7.4Z"/></g><path class="cls-2" d="M128.4,45.8c-6.8,0-10.6,4.6-10.6,10.8s3.3,10.8,10.4,10.8,10.5-4.9,10.5-10.8S135,45.8,128.4,45.8m-.1,20.9c-3,0-3.2-4.6-3.2-10.1s.3-10.1,3.3-10.1,3.3,4.5,3.3,10.1-.5,10.1-3.4,10.1"/><g class="cls-9"><path class="cls-2" d="M122.2,65.8l-.3-.3c-.4-.6.1-.8.4-1.1a1.14,1.14,0,0,1,.8-.3c1.1,0,1.5-.5,1.4-1.6-.1-.7.2-.9.9-.7a8.9,8.9,0,0,1,1.2,3.9c-.4.5-1.2.3-1.5.9-.7,0-.8-.4-.8-1,0-.9-.6-.3-.9-.3s-.5.5-.9.7C122.4,65.9,122.2,65.9,122.2,65.8Z"/><path class="cls-2" d="M132.6,66.5a9.17,9.17,0,0,1-6.3.6c.3-.5.8-.6,1.2-.9a4.54,4.54,0,0,0,2.3-.8.78.78,0,0,1,.8-.2c.3.2.2.8.7.8a3.55,3.55,0,0,1,1,.2Z"/><path class="cls-2" d="M122.8,47.2l.3-.4a1.42,1.42,0,0,1,.6-.2c.5.8.7,1.9,1.7,2.5a.77.77,0,0,1-.7.8,2.73,2.73,0,0,1-2.7-.8c-.2-.3-.6-.6-.4-1h0C122,47.9,122.5,47.8,122.8,47.2Z"/><path class="cls-2" d="M127.1,45.7a12.19,12.19,0,0,0,2.7,0c.6.4,1.4-.2,1.9.5a.67.67,0,0,1-.3.8,2.1,2.1,0,0,1-1.1.4,26.14,26.14,0,0,0-2.7-.6,5.46,5.46,0,0,0-1.8-.1c-.4,0-.7,0-.8-.5C125.6,45.4,126.5,46.1,127.1,45.7Z"/><path class="cls-2" d="M134.9,65.5c-.7.2-1.1.9-1.8.9-.1-.9-.8-.8-1.4-.8a.6.6,0,0,1-.4-.1c-.1-.1-.3-.1-.3-.2,0-.6.5-.7.9-.8.7-.2,1.4.2,2-.1.6-.1,1.1-.6,1.7-.6a.66.66,0,0,1,.5.4A2.54,2.54,0,0,1,134.9,65.5Z"/><path class="cls-2" d="M127.6,66.5a3.1,3.1,0,0,1-1.3.6c-1.1.1-2.1-.6-3.2-.7-.3-.1-.6-.3-.4-.7a1.29,1.29,0,0,1,1.8-.5h.1c.1.5-.2,1.1.6,1.2.4-.4,1-.2,1.5-.4A1.05,1.05,0,0,1,127.6,66.5Z"/><path class="cls-2" d="M117.9,56.3a9.53,9.53,0,0,1,1.8-6.1c.1.1.2.2.2.3a2.05,2.05,0,0,1,0,1.1.76.76,0,0,1-.2.4c-.5.7-.2,1.6-.7,2.3a3.55,3.55,0,0,0-.4.9C118.5,55.6,118.6,56.2,117.9,56.3Z"/><path class="cls-2" d="M131.6,65.2a5.7,5.7,0,0,1,1.3.1c.9.2.6.6.2,1.1l-.5.1-.4-.1C132.4,65.8,131,66,131.6,65.2Z"/><path class="cls-2" d="M133.2,46.8l.5.2a.84.84,0,0,1,.7.4c-1,.7-1.7.8-2.4.2a1.23,1.23,0,0,1,.5-1C132.7,46.7,133,46.7,133.2,46.8Z"/><path class="cls-2" d="M118.4,59.8l-.5-1.7V56.7c.7.1.5.7.7,1.1.1.2.1.4.2.6a5.94,5.94,0,0,0,.4.8,1.1,1.1,0,0,1,0,.8C118.9,60.4,118.7,59.7,118.4,59.8Z"/><path class="cls-2" d="M118.5,57.9c-.5-.3-.1-.9-.5-1.2v-.4c.4-.3.1-.9.5-1.2.3.3.3.7.5,1C119.4,56.9,119.4,57.5,118.5,57.9Z"/><path class="cls-2" d="M119.7,50.6v-.3a2.55,2.55,0,0,1,1.2-1.5l.2.2a.91.91,0,0,1,0,1,1,1,0,0,1-.4.5C120.4,50.5,120.1,50.7,119.7,50.6Z"/><path class="cls-2" d="M121.2,65.2l-.3-.6a1.07,1.07,0,0,1,1.4-.1l.1.1c-.2.3-.7.4-.6.9A.86.86,0,0,1,121.2,65.2Z"/><path class="cls-2" d="M131.6,46.3h.9l.7.5-.7.1a.91.91,0,0,1-1.2,0Z"/><path class="cls-2" d="M122.8,47.2c.1,1-.6.9-1.2.9A2.73,2.73,0,0,1,122.8,47.2Z"/><path class="cls-2" d="M121.5,48.1l.6.6c-.4.4-.8.7-1.2.1l-.1-.1A1.34,1.34,0,0,1,121.5,48.1Z"/><path class="cls-2" d="M136.5,64l-.6.3-.3-.3a.3.3,0,0,1,0-.4,1.61,1.61,0,0,1,.7-.4c.2,0,.4,0,.5.2v.3Z"/><path class="cls-2" d="M137.4,62.2l-.2.6a1,1,0,0,1-.9.1c-.3-.6-.6-1.1-1.4-1.1s-.2-1-.9-1.4c-.5-.2-.9-.7-1.4-.9a.52.52,0,0,1-.2-.4c.6-.4.6-.7,0-1.1a.61.61,0,0,1,.1-.6,9.61,9.61,0,0,1,2.8-1.1,3.1,3.1,0,0,1,1.9.1l.3.3c-.2.8-1.1.3-1.5.8.5.2,1-.1,1.4.2s.2.9.2,1.4C136.9,60.1,137.8,61.2,137.4,62.2Z"/><path class="cls-2" d="M138,52.1l.6,1.3c.4,2.6.6,5.2-.6,7.6-.6-.5-.4-1.2-.3-1.9,0-1.6-.1-3.1-.1-4.7C137.8,53.6,136.8,52.7,138,52.1Z"/><path class="cls-2" d="M138,59.1V61c0,.6-.3.8-.6,1.2,0-1-1.3-2,0-3.1q.15-.3.6,0C137.9,59,138,59,138,59.1Z"/><path class="cls-2" d="M136.2,62.7h1l-.4.6h-.6c-.2-.1-.3-.2-.3-.4S136,62.7,136.2,62.7Z"/><path class="cls-2" d="M125.2,61.5v.3c-1,0,.1.9-.5,1.1.6,1.3-.3,1.3-1.2,1.4-.4.1-.8.2-1.1.3h-1.5a2.55,2.55,0,0,1-1.2-1.5l-.6-1.5a1.09,1.09,0,0,1,0-1.5v-.9c-.3-.2-.1-.7-.6-.6V58c.8-.9-.2-1.8,0-2.8,0-.3,0-.7.3-.9,1.1-.5.2-1.8.9-2.5h0a.47.47,0,0,1,.6-.1.52.52,0,0,1,.2.4,4.73,4.73,0,0,1,.1,1.7,3.18,3.18,0,0,1-.2,1.4c-1.2.9-.3,2.2-.7,3.1,0,.3.3.1.2.1v-.1c0-.9-.4-1.8.2-2.7.9,1.2.5,2.7,1,3.9a14.58,14.58,0,0,0,.7,1.9.66.66,0,0,0,.5.4c0-.2-.3-.3-.4-.5s.4-.4.7-.5a3.28,3.28,0,0,1,1.7.1A3.49,3.49,0,0,1,125.2,61.5Z"/><path class="cls-2" d="M122.7,65.8h-.2c.3-1.4,1.4-1,2.3-.9V65l-.2.2C123.8,64.9,123.3,65.7,122.7,65.8Z"/><path class="cls-2" d="M126.4,65.8l.2.3a2,2,0,0,1-1.5.3C125,64.8,125.8,65.6,126.4,65.8Z"/><path class="cls-2" d="M138,52.1c-.7.7.3,1.4,0,2.1-.6.6,0,1.6-.6,2.2a4.85,4.85,0,0,1-1.7,0c-1.3-.4-2.5-.9-3.8-1.3a.85.85,0,0,1,0-.7c1-.7,2-.3,3.2,0,0,0-.1-.3-.2-.2s-.1.1-.1,0-.4-.1-.4-.2c0-1,.8-1.1,1.8-1.3-1.1,0-2,.3-2.8,0-.5-.2-1.1-.3-.8-1.1a2,2,0,0,1,1.1-.3,5.46,5.46,0,0,0,1.8-.1,2.32,2.32,0,0,1,2.5.4Z"/><path class="cls-2" d="M130.9,48.7l-.2-.6c.3-1.1,1-.3,1.5-.3.8.3,1.4-.2,2.1-.3.5-.1.8.4,1.2.6l.3.6c0,.4-.3.4-.5.5-1.2-.3-1.2.6-1.4,1.3l-.3.3a2,2,0,0,1-1.5,0C131.5,50.2,131.5,49.3,130.9,48.7Z"/><path class="cls-2" d="M137.8,51.7a3.58,3.58,0,0,0-2.5,0,3.79,3.79,0,0,1-1.5,0c-1.1-.4-.5-.8,0-1.2h0a2,2,0,0,1,1.5-.4c.5.1,1-.3,1.5-.2A4.6,4.6,0,0,1,137.8,51.7Z"/><path class="cls-2" d="M136.7,50a1.14,1.14,0,0,1-1.2.6c-.2-.5-.5-1-.3-1.5a.71.71,0,0,0,.6-.3A1,1,0,0,1,136.7,50Z"/><path class="cls-2" d="M131.6,65.2a.56.56,0,0,0,.5.6h0c1,.1,0,.4.1.6H131c-.4-.5,0-.8.3-1.2Z"/><path class="cls-2" d="M131.3,65.2l-.3,1.2c-1.1-.2-.1-.8-.3-1.2l.2-.1.2.1Z"/><path class="cls-2" d="M125.2,61.5a.91.91,0,0,1-.7-.3c-.7-1-.3-2.1-.4-3.1V56.6a48.66,48.66,0,0,1,.1-5.4,2.77,2.77,0,0,0,.1-.9,1.42,1.42,0,0,1,.2-.6.56.56,0,0,0,.6-.5v-.1c0-.5.3-.5.6-.3C124.8,53,125.3,57.3,125.2,61.5Z"/><path class="cls-2" d="M124.6,49.6v.6c-.8.4-1.7.1-2.5.3a1.31,1.31,0,0,1-1.2-.6l.1-1.2c.4.2.8-.1,1.2-.1C122.6,49.8,123.7,49.6,124.6,49.6Z"/><path class="cls-2" d="M125.8,48.7a.6.6,0,0,0-.6.3c-1.6.1-1.3-1.3-1.6-2.2a.91.91,0,0,1,.7-.3,1,1,0,0,1,.5.4c.1.3,0,.9.7.5a.91.91,0,0,1,1,0A3.16,3.16,0,0,1,125.8,48.7Z"/><path class="cls-2" d="M124.6,46.9l-.3-.3.3-.3h.6c.8.3,1.7-.4,2.5.3a.83.83,0,0,1-.8.3C126.1,47.2,125.3,47.5,124.6,46.9Z"/><path class="cls-2" d="M132.2,47.8c-.5.2-1.1-.3-1.5.3a1,1,0,0,1-.4-.9l1-.3h1.2Z"/><path class="cls-2" d="M119.1,60c-.5,1.2,1.2,1.9.6,3.1a5.65,5.65,0,0,1-1.3-3.3C118.8,59.3,118.8,60.1,119.1,60Z"/><path class="cls-2" d="M130.7,65.2v-.6c1.6-5.2,1.2-10.5.3-15.8a1.43,1.43,0,0,1,1,1.8h0a1.52,1.52,0,0,1,.3,1.3c0,.9.4,1.8-.3,2.7v.6a2.82,2.82,0,0,1,.4,2,3.4,3.4,0,0,0-.1,1,1.7,1.7,0,0,1,0,1c0,.4.1.8.1,1.2v3.1a1.7,1.7,0,0,1-.1.7,1.38,1.38,0,0,1-.3.4l-.9.6Z"/><path class="cls-2" d="M135.6,63.7V64c-.6.2-1.1.8-1.8.6-.1-.1-.2-.2-.2-.3a1.06,1.06,0,0,1-.1-.8,1,1,0,0,1,.5-.4,1.57,1.57,0,0,1,1.7.4C135.5,63.5,135.5,63.6,135.6,63.7Z"/><path class="cls-2" d="M133.7,64.3v.3c-.6.6-1.2,0-1.8,0v-.3A1.27,1.27,0,0,1,133.7,64.3Z"/><path class="cls-2" d="M119.7,51.8c-.4.8.9,2.2-.9,2.5C119.5,53.5,118.5,52.2,119.7,51.8Z"/><path class="cls-2" d="M120.3,51.8h-.6V50.6l.9-.3C121.2,50.9,120.6,51.3,120.3,51.8Z"/><path class="cls-2" d="M118.5,58.5c.2-.1.4-.3.5-.3.3.2.1.6.2.9a.56.56,0,0,1-.6-.5A.1.1,0,0,1,118.5,58.5Z"/><path class="cls-2" d="M120.3,51.8c-.1-.6.2-1,.3-1.5l.3-.3,1.2.3a3,3,0,0,1-.5,1.6,1.45,1.45,0,0,1-.7.2l-.6-.3Z"/><path class="cls-2" d="M133.7,63.4l-.3.3a.91.91,0,0,1-1.1.2c-.5-.7.3-1.6-.4-2.3V60.4c.3-.2.2-.7.6-.9.7.1,1.7-.5,1.8,1,0,.5,1.2-.1,1.8.5-.3.5-.9.2-1.6.5l2.1.3a7.6,7.6,0,0,1-.4,1.1c-.3.2,0,.4,0,.6a.71.71,0,0,1-.6.3h0C135.1,62.7,134.4,62.9,133.7,63.4Z"/><path class="cls-2" d="M131.9,57.3V55.2a4.32,4.32,0,0,1,3.6,1.2c-.1.1-.3.1-.3.3a14.26,14.26,0,0,1-2.7.9C132.2,57.8,132.1,57.4,131.9,57.3Z"/><path class="cls-2" d="M137.4,56.3c.1-.7-.3-1.6.6-2.1v4.9h-.6c-.3-.4,0-.8,0-1.2a.75.75,0,0,1,0-.9v-.3c-.1-.1-.2-.1-.1-.2S137.3,56.3,137.4,56.3Z"/><path class="cls-2" d="M137.4,56.9v.9h-.6c-.4.1-.8.4-1.2,0-.2-.2.1-.3.2-.5.1-.7.7-.4,1.1-.4Z"/><path class="cls-2" d="M131.9,59.1v-.9c.1-.2.4-.2.6,0h0l1.4.1c-.3.8-.8.8-1.4.8-.1.2-.4.2-.6,0Z"/><path class="cls-2" d="M137.4,56.3v.3h-2.1l-.3-.2.7-.1Z"/><path class="cls-2" d="M131.9,59.1h.6v.3c0,.4,0,.9-.6.9Z"/><path class="cls-2" d="M132.5,58.2h-.6v-.9l.6.3Z"/><path class="cls-2" d="M124.6,46.9h2.2l-.5.6a1.85,1.85,0,0,0-.7.2c-.4.2-.7.9-1.2.5S124.6,47.3,124.6,46.9Z"/><path class="cls-2" d="M120.3,55.1V53.6c.5-.4.1-1.2.6-1.6.5-.2.8,0,.8.5a3,3,0,0,0,.7,1.5,7,7,0,0,1,.1,2.5c0,.4-.5.7-.2,1.2.1.1.1.2.1.4a.76.76,0,0,1-.2.5q-.75.6,0,1.2c.5.4.8.7.7,1.4a.71.71,0,0,0-.6.3c0,.5-.2.5-.6.3a12.82,12.82,0,0,1-1.2-6.1c-.3-.1-.4-.4-.2-.6Z"/><path class="cls-2" d="M122.8,61.2c-.5-.3-.8-1-1.3-1.4s-.6-1.4.6-1.3c.3.1.3.3.4.5.3-.3,0-.8.1-1.1l.3-.3a1.6,1.6,0,0,1,1.5.2v3.4Z"/><path class="cls-2" d="M120.3,55.1v.6c-.7.9,0,2.1-.5,3C120.1,57.6,119,56.2,120.3,55.1Z"/><path class="cls-2" d="M121.5,61.8a.71.71,0,0,0,.6-.3c.4.1,1-.2,1.1.4a.4.4,0,0,1-.2.4A1.32,1.32,0,0,1,121.5,61.8Z"/><path class="cls-2" d="M120.9,52.1c-.1.5.4,1.3-.6,1.5V51.8h.6c.1.1.1.1.1.2S121,52.1,120.9,52.1Z"/><path class="cls-2" d="M131.9,54.5V51.8a.38.38,0,0,1,.6,0h0a1.91,1.91,0,0,0,2.3.8,2.49,2.49,0,0,1,1.7.3c-.3.6-1,.4-1.4.7-.7.4-.3.7.3,1Z"/><path class="cls-2" d="M132.5,51.8h-.6V50.5h1.8c0,.4-.7.8,0,1.2h-1.2Z"/><path class="cls-2" d="M135.3,49c.2.5.7.9.3,1.5h-1.8C133.7,48.5,133.8,48.5,135.3,49Z"/><path class="cls-2" d="M120.9,52.1v-.3h.6c.2-.2.1-.8.7-.7a1.65,1.65,0,0,1,1.3.8,9.2,9.2,0,0,1,.2,3.3c0,.7.1,1.2.8,1.4v.9a4.13,4.13,0,0,1-1.9-.2c-.6-.5-.2-1.1-.3-1.7s.2-1.3-.3-1.8c-.7-.1-.7-.7-.7-1.1S121.4,52.1,120.9,52.1Z"/><path class="cls-2" d="M124.6,56.6c-1,.3-1.3-.1-1.2-1.1.1-1.2,0-2.5,0-3.8a.37.37,0,0,1-.1-.3v-.2c.4-.4.5-1.2,1.3-.8Z"/><path class="cls-2" d="M124.6,50.5c-.7-.1-.5,1-1.2.9-.4-.3-.8-.1-1.2-.3l-.6.6a1.43,1.43,0,0,1,.6-1.5,3.58,3.58,0,0,1,2.5,0l.1.2A.31.31,0,0,1,124.6,50.5Z"/><path class="cls-2" d="M122.8,57.3a2.78,2.78,0,0,1,1.8.3v.3h-1.8C122.6,57.7,122.6,57.4,122.8,57.3Z"/><path class="cls-2" d="M131.9,61.5c1.1.6.5,1.4.3,2.1,0,.1-.2.1-.2.1l-.1-.1Z"/><path class="cls-2" d="M131.9,63.7h1.5a.71.71,0,0,1,.3.6h-1.8Z"/><path class="cls-2" d="M133.7,63.4c.1-.9.9-.7,1.4-.7s.4.6.4,1A2.67,2.67,0,0,0,133.7,63.4Z"/><path class="cls-2" d="M122.8,57.3v.6h0a.38.38,0,0,1-.6,0h0a.75.75,0,0,1,0-.9V53.9c.9.2.5.9.6,1.5S122.4,56.6,122.8,57.3Z"/><path class="cls-2" d="M122.1,57.9h.6c0,.1.1.2.1.3.5.5-.1.9-.1,1.3,0,.1-.4.2-.5.2-.7-.3.3-.8-.2-1.1Z"/><path class="cls-2" d="M122.1,56.9v.9c-.3-.1-.6-.1-.5-.5S121.9,57,122.1,56.9Z"/><path class="cls-2" d="M122.1,51.2c.5-.2,1.2-1.2,1.2.3v.3C122.9,51.7,122.2,52,122.1,51.2Z"/></g><path class="cls-2" d="M62.9,46.5v-.6H59.8v-6h-.6s-.6,3.7-5.4,3.7H52.7V46H50.5v.5h2.2V66.7H51.5v.6H61v-.6H59.8V46.5Z"/><g class="cls-10"><path class="cls-2" d="M60.5,66.7c.5,0,.6.2.7.6H52.7c-.3,0-.7.1-.8-.3s.2-.5.5-.6c.9-.3.5-1,.5-1.6V49c0-1.4.2-2.9-2.1-2.5a1.15,1.15,0,0,1,1.3-.9c.5,0,.8-.2.8-.7-.2-1.7,1.1-1.7,2.2-1.8A.74.74,0,0,1,56,43c.1,1-.8.6-1.2.9a1.37,1.37,0,0,0-.8.5,4.23,4.23,0,0,0-.2,2.5c.1.8,0,1.7.1,2.5V66c0,.5.4.5.8.5C56.4,66.6,58.5,66.5,60.5,66.7Z"/><path class="cls-2" d="M57.5,42.6c.6-.8,1.6-1.3,1.8-2.5,0-.1.1-.2.1-.3,1.5.2.3,1.2.6,1.8h-.5c-.1.6-.7.8-1.2,1-.1,0-.3.1-.4.1S57.6,42.7,57.5,42.6Z"/><path class="cls-2" d="M60,45.7l.6.3c.2.3-.1.5-.3.6-.5.5-.3,1.2-.3,1.7,0,4.4,0,8.8-.1,13.2-.2.2-.5.2-.5,0-.3-1-.5-.2-.8,0q-1.05.75-1.5-.6c-.1-.4-.3-.1-.5-.1-1.1-.2-2.2-.1-3-1.2a.61.61,0,0,1,.1-.6c.8-.4,1.4.3,2.1.3.2.1,0-.2.1,0,0,0,0,.1-.1,0-.7-.3-1.6-.2-2.1-.9a.66.66,0,0,1,.1-.6,2.33,2.33,0,0,1,2,0,3.89,3.89,0,0,0,3-.2c-.9-.5-1.7-1.1.2-1.5a3.66,3.66,0,0,0-2.3-.4c-.8.1-1.7.4-2.4-.5-.4-1.8-.1-3.7-.2-5.5a6.52,6.52,0,0,0-.2-2.4c-.2-.3-.4-.5-.6-.8a2.92,2.92,0,0,1,.4-2.4c.2-.1.4.1.5.2s.1.8.6.9a1.84,1.84,0,0,0,1.8-.8l.3-.3c.3-.2.5-.4.8-.6a1.23,1.23,0,0,1,1-.2.55.55,0,0,1,.3.5c-.2.5-.7.6-1,1.1.6-.1,1.1-.5,1.6-.2s.2.6-.1.8a1.38,1.38,0,0,1-1.7.8c.9.3,1.4-.2,1.8-.9C59.6,45.5,59.8,45.5,60,45.7Z"/><path class="cls-2" d="M53.8,59.7c1.2.5,2.3,1.4,3.8.5.4-.2.5.2.4.5-.1.5-.6.4-.9.8,1.3.2,2-.2,1.7-1.7.9.4,0,1.7,1.1,1.8v4c0,.5-.2,1,.5,1.2-2.4.7-4.8.1-7.2.3-.4,0-.2-.4-.1-.6a.52.52,0,0,0,.2-.4c.2-.9-.3-1.9.3-2.7,1.4.1,2.8-.2,4.2,0-1.5-.5-3,.7-4.4-.4C53.5,61.8,53.3,60.7,53.8,59.7Z"/><path class="cls-2" d="M60.3,46.5l.3-.6.6-.2c.5.5,1.3-.1,1.8.7A8.17,8.17,0,0,1,60.3,46.5Z"/><path class="cls-2" d="M53.2,46.6a.6.6,0,0,1,.6.3,2.49,2.49,0,0,1,.3,1.7c0,2.7-.1,5.3.1,8a.9.9,0,0,1-.1.5,3,3,0,0,0-.5,1.3c-.1.1-.2.2-.4.1h0V56.6a44.48,44.48,0,0,0,0-7.3Z"/><path class="cls-2" d="M53.2,58.5h.3c.1.1.2.3.3.4v4.2c.1.1.1.1.1.2a.1.1,0,0,1-.1.1c-.2,1,.3,2.1-.3,3a45.2,45.2,0,0,1-.2-5.2,5.46,5.46,0,0,0-.1-1.8Z"/><path class="cls-2" d="M53.2,49.3a18,18,0,0,1,0,7.3Z"/><path class="cls-2" d="M53.2,59.4c.6,1.6.1,3.2.3,4.7a17.63,17.63,0,0,1,0,2.3h-.3Z"/><path class="cls-2" d="M56,43.2h.3c.3.2.6.4.2.8a2.2,2.2,0,0,1-1.4.2,1.14,1.14,0,0,1-.6-.3C54.8,43.3,55.6,43.8,56,43.2Z"/><path class="cls-2" d="M54.4,43.8H55c.1.5-.3.6-.6.8s-.4,0-.6-.2l-.3-.3C53.7,43.7,54.1,43.9,54.4,43.8Z"/><path class="cls-2" d="M60,45.7h-.7c0-.2.3-.4,0-.6a1.21,1.21,0,0,1-.3-1c.3-.8-.2-1.2-.9-1.4.3-.5,1.1-.5,1.3-1.2.1-.2.3.3.5.3C60,43,60,44.3,60,45.7Z"/><path class="cls-2" d="M56.6,43.8l-.3-.6h.2c.5-.2,1.1-.2,1.7-.4.3,0,.6,0,.6.5,0,.2-.2.3-.4.3l-.9.3A.63.63,0,0,1,56.6,43.8Z"/><path class="cls-2" d="M58.1,42.9c-.5.5-1,.2-1.6.3l1-.6h.3C58,42.7,58,42.8,58.1,42.9Z"/><path class="cls-2" d="M58.1,42.9l-.3-.3h1.7l-.2,1.2c-.1.2-.4.2-.6,0h0l-.3-.3C58.9,43.1,58.5,43,58.1,42.9Z"/><path class="cls-2" d="M54.4,55.4c1.3.3,2.6-.5,3.8-.1.5.2,1.3-.2,1.3.7s-1,.4-1.4.7c.3.4.7.1,1,.3s.5.4.4.7-.3.3-.6.4c-1.2.2-2.4.6-3.7-.1a3.89,3.89,0,0,0-1.5-.2.37.37,0,0,1,0-.6h0c.7-1,1.7-.2,2.5-.5C55.4,56.8,54.1,57.2,54.4,55.4Z"/><path class="cls-2" d="M54.4,55.4c.1,1.4,1.2,1.3,2.1,1.3-.9.4-1.9,0-2.8.5V46.9c.8.1.6.8.6,1.3C54.5,50.6,54.4,53,54.4,55.4Z"/><path class="cls-2" d="M56.6,43.8h.9a.9.9,0,0,1-.6.6,1,1,0,0,0-.7-.2,1,1,0,0,1,.7.2,2.11,2.11,0,0,1-2.5,1.2.91.91,0,0,1,0-1.2l.6-.6Z"/><path class="cls-2" d="M58.7,43.8h.6V45c-.8-.3-1.3,1-2.3.4C57.2,44.5,58.2,44.4,58.7,43.8Z"/><path class="cls-2" d="M59.3,45.7c-.2,1.3-1,1.6-3,.8C57.4,46.1,58.5,46.4,59.3,45.7Z"/><path class="cls-2" d="M53.8,58.5c.8.5,1.9.1,2.6,1-1,.7-1.7-.6-2.6-.4h0A.64.64,0,0,1,53.8,58.5Z"/><path class="cls-2" d="M57.2,49.1h2v.2h-2Z"/><path class="cls-2" d="M54.4,44.5v1.2c-.8-.1-.5-.7-.6-1.2Z"/><path class="cls-2" d="M53.8,58.5v.6a.71.71,0,0,1-.3-.6c0-.4-.1-.9.3-1.2Z"/><path class="cls-2" d="M53.8,63.4v-.3a34,34,0,0,1,4.5-.3c.3,0,.8-.1.9.4s-.5.5-.9.5C56.8,63.6,55.3,64,53.8,63.4Z"/><path class="cls-2" d="M56.9,44.5H55.5C56.1,44,56.5,44.1,56.9,44.5Z"/></g><path class="cls-2" d="M33.4,45.9a10.71,10.71,0,0,1-5.8,1.5H24.8V48h1.5V66.7H25.1v.6h9.5v-.6H33.4Z"/><g class="cls-11"><path class="cls-2" d="M25.2,47.8c.8-1.1,1.9-.8,2.9-.8.6,0,1.3.1,1.9.1.5,1.1-.2,1.3-1,1.3-1.4,0-1.7.7-1.7,1.9V64.4a3.89,3.89,0,0,0,.2,1.5.9.9,0,0,1,.1.5c1.7.2,3.4,0,5.1.1a4.13,4.13,0,0,1,2.2.4c.2.6-.2.9-.7.9a40.46,40.46,0,0,1-8.5-.5c-.2-.1-.5-.2-.6-.4v-.3a1.13,1.13,0,0,0,.9-1.3c.1-5.2.1-10.3,0-15.5A2.27,2.27,0,0,0,25.2,47.8Z"/><path class="cls-2" d="M34.9,66.4V67H27.4l-.1-.1.3-.2a1.75,1.75,0,0,1,1.2-.4c1.2-.2,2.5.5,3.6-.5a24.67,24.67,0,0,0,.2-4.7c.1-3.2,0-6.4,0-9.6a36.88,36.88,0,0,1,.1-4.7c.1-.4.3-.7.7-.2a2.32,2.32,0,0,1,.3,1.6V64.9c0,.5-.4,1.3.6,1.4Z"/><path class="cls-2" d="M31.2,46.9h.6a.92.92,0,0,1,.1,1.2,4.11,4.11,0,0,1-2.6.9c-1,.1-1.2.5-1.3,1.5-.1,2,0,4,0,6v8.4a1.55,1.55,0,0,1-.5,1.4c-.8-.2-.6-.8-.6-1.3V49.7c0-1.2.5-1.6,1.6-1.6.7,0,1.5.3,1.4-.9C30.4,46.7,30.8,47,31.2,46.9Z"/><path class="cls-2" d="M27.6,66.4V56.9c.8-.5,1.5-.7,2,.3a3.82,3.82,0,0,0,0,3.3.6.6,0,0,1,.1.4,13.45,13.45,0,0,0-.5,3.5,5.46,5.46,0,0,1-.1,1.8c-.1.1-.2.3-.3.4H27.6Z"/><path class="cls-2" d="M31.9,48.1V46.9h.9c.7,1.5.1,3.1.3,4.6-.3.3-.7.7-1.3.3C31,50.6,32,49.3,31.9,48.1Z"/><path class="cls-2" d="M31.9,51.8l1.2-.3V64.9c0,.5.2,1.1-.3,1.6a.91.91,0,0,1-1.1-.1,2.62,2.62,0,0,1-.2-1.5V53.4A1.56,1.56,0,0,1,31.9,51.8Z"/><path class="cls-2" d="M31.9,66.4h.9c-1.3.7-2.7.1-4,.3v-.3a1.4,1.4,0,0,0,.8-1.8c-.3-1.2.5-2.5-.2-3.7v-.3a8.75,8.75,0,0,1,.2-1.6c.2-1,.7-1.4,1.7-.9.5,2.2.1,4.5.2,6.7C31.6,65.4,31.3,66,31.9,66.4Z"/><path class="cls-2" d="M31.9,66.4c-.4-.1-.9.4-.7-.7a62.57,62.57,0,0,0,.1-7.5c-.3-.4-1-.2-1.3-.6-.1-.9,1.1-1.2,1-2.2s.1-1.9-.8-2.7c-.5-.4-.3-1.1-.7-1.8a8.56,8.56,0,0,0,0,3.9c.3,1.5-.2,2.1-1.8,1.9v-7c0-.6.2-1,.8-1a9.74,9.74,0,0,0,3.4-.6c.8,1.2-.3,2.4,0,3.7Z"/><path class="cls-2" d="M27.6,56.7c1.2,0,1.6-.5,1.4-1.8-.2-1.6-.7-3.4.9-4.8a7.89,7.89,0,0,0,1.3,3.3,3.18,3.18,0,0,1-1.1,4.2.38.38,0,0,1-.6,0c-.3-1.1-1.2-.4-1.8-.6Z"/><path class="cls-2" d="M29.4,60.9a.68.68,0,0,1,.7.7v.1a13.41,13.41,0,0,0,0,4c.2.8-.8.6-1.4.7C28.8,64.6,28.6,62.7,29.4,60.9Z"/><path class="cls-2" d="M29.4,57.6H30c.5.1,1.1-.2,1.2.6-.9-.1-1.3.2-1.2,1.2,0,.5.2,1.2-.6,1.3a2.2,2.2,0,0,1,0-3.1Z"/><path class="cls-2" d="M31.5,49.3H29.6A2.12,2.12,0,0,1,31.5,49.3Z"/></g><path class="cls-2" d="M46,66.8V52.6a6.66,6.66,0,0,0-6.5-6.7h-.2a6.82,6.82,0,0,0-5,2.2V49a2.61,2.61,0,0,1,2-1c1.7,0,2.6,1.4,2.6,3V66.7H37.7v.6h9.5v-.6H46Z"/><g class="cls-12"><path class="cls-2" d="M45.9,51.1a2.78,2.78,0,0,1,.3,1.8V64.1c0,1.1-.3,2.3,1.1,2.8V67l-.2.2c-1.2-.1-1.6-.8-1.6-1.9v-7a3,3,0,0,0-.2-1.6,1.42,1.42,0,0,0-.6-.2,10.8,10.8,0,0,0-3.1-.2c.3.2.7,0,1,.2a.57.57,0,0,1,.4.7,9.22,9.22,0,0,1-2.9,3c-.3,0-.4-.2-.5-.4q-.15-3.75,0-7.5c0-.2.1-.3.2-.5,1.4-.6,2.9-.3,4.3-.2a1,1,0,0,1,1,.9v.1a9.7,9.7,0,0,0,.1,1.7v.5a.22.22,0,0,0,.2-.2c.1-.4.4-.8.1-1.2C44.6,52.3,45,51.7,45.9,51.1Z"/><path class="cls-2" d="M45.3,56c.8.1.6.8.6,1.3V65a1.79,1.79,0,0,0,1.2,2.1,44.19,44.19,0,0,1-8.9-.3l1-.6c.5-.7.2-1.6.3-2.4.1-.6-.2-1.2.3-1.7a11.4,11.4,0,0,1,4.5-.2c.1.1.3.2.4.3-.7.7-1.1,2.1-2.6,1.2-.2-.1-.5.2-.7.1.2,0,.5-.1.6,0,.7.9,2,.4,2.8,1.1a.37.37,0,0,1,.1.3c-.2-1.1.1-2.5-.1-3.8v-.5C45,59.3,44.4,57.6,45.3,56Z"/><path class="cls-2" d="M45,54.5c-.3-.3-.6-.6-.5-1,.6-1.7-.4-1.8-1.7-1.7-1,.1-2,0-3,0a.25.25,0,0,1,.1-.4c.7-.5,1.5-.1,2.3-.2h.2c-.5,0-1,.1-1.4-.5a5.45,5.45,0,0,1,2.4-1.2c-.6-.1-1.5.6-2.1-.4,1-.8,2-.5,3.1-.4s.7,1.5,1.5,1.8v.6c-.1.7-1.4,1.3-.1,2.2a1,1,0,0,1-.6,1.5C45.1,54.8,45,54.7,45,54.5Z"/><path class="cls-2" d="M39.8,51.5v.3h0a.28.28,0,0,1-.5,0h0a5.42,5.42,0,0,0-.6-2.5,1.44,1.44,0,0,0-1.6-1.2c-.7,0-1.4.3-2-.3a3,3,0,0,1,.7-1c.1-.1.2-.2.3-.2l1.5-.6a.64.64,0,0,1,.6,0c.7.5,1.5,1,1.5,2,0,.2.2-.3.4-.2,1.3.4,1.5.6.9,1.7C40.6,50.2,40.2,50.9,39.8,51.5Z"/><path class="cls-2" d="M39.2,51.8h.6V60a.86.86,0,0,1,.3.6,2.44,2.44,0,0,1,0,1.2c0,.2-.2.4-.3.6v2.9c0,.4.1,1-.6,1.1Z"/><path class="cls-2" d="M45.9,50.5c-.2-.1-.3.7-.6.1s-.4-1.1-.7-1.6c-.5-.2-1-.5-1.4-.7a.8.8,0,0,1-.6-1.1c0-.1.1-.2.2-.3a1.42,1.42,0,0,1,.6-.2,4.49,4.49,0,0,1,1.3,1.1C44.9,48.8,45.9,49.5,45.9,50.5Z"/><path class="cls-2" d="M39.8,60.6V60l2.7-2.7c.3-.3.3-.6-.2-.7a3.36,3.36,0,0,1-1.4-.5,5.86,5.86,0,0,1,3.7-.1c.6,1.1.2,2.2.3,3.3.1.6-.2,1.3.3,1.8v.4a1.79,1.79,0,0,1-.7.5,1.27,1.27,0,0,1-.6-.1c-.5-.4-1.1-.2-1.6-.5-.7-.4-.7-.8,0-1.1a1.79,1.79,0,0,0-1.4.4C40.7,61,40.1,60.9,39.8,60.6Z"/><path class="cls-2" d="M45.3,61.2c-.8-.1-.6-.7-.6-1.2V56h.6Z"/><path class="cls-2" d="M45,54.5l.3.3c-.1.2-.1.5-.2.7,0,0-.3,0-.3-.1A.65.65,0,0,1,45,54.5Z"/><path class="cls-2" d="M44.7,64.9c-1.5.5-2.6-.9-4-1.1.7-.1,1.4-1.4,2.2,0,.1.1.4-.1.4-.3.1-1,.8-.6,1.4-.7A2,2,0,0,1,44.7,64.9Z"/><path class="cls-2" d="M44.7,64.9V62.5a.38.38,0,0,1,0-.6h0a.71.71,0,0,1,.6-.3v5.3h-.4A3.53,3.53,0,0,1,44.7,64.9Z"/><path class="cls-2" d="M44.7,61.8v.6H39.8v-.6c1.4-.8,2.8-.4,4.3,0Z"/><path class="cls-2" d="M34.9,46.9h.9c-.2.4-.3.9-.9.9Z"/><path class="cls-2" d="M42.8,46.9c-.2,1.4,1.5,1.2,1.8,2.1h-3v.2H44c-1.1.1-1.5,1.7-2.7,1.6h1.5c.2.3-.1.4-.3.6H39.8a2.21,2.21,0,0,1,.6-1.9c.9-.9.5-1.3-.6-1.5a2.06,2.06,0,0,1-.2-1.7c.3-.5.8-.2,1.3-.2.1,0,.2.1.3.2a5.23,5.23,0,0,0,1.6.6Z"/><path class="cls-2" d="M42.5,51.5l.3-.6c.3.1.8.1.6.4S42.9,51.4,42.5,51.5Z"/><path class="cls-2" d="M39.8,46.3c-.1.6.3,1.2,0,1.8,0,.4.1.8-.6,1A3.21,3.21,0,0,0,38,46.3l.2-.2A1.57,1.57,0,0,1,39.8,46.3Z"/><path class="cls-2" d="M44.1,61.8H39.8V60.6c1.2-.4,2.4-1,3.7-.5-.1.8-1,.2-1.3.7.3.7.9.4,1.4.4S44.3,61.4,44.1,61.8Z"/><path class="cls-2" d="M41,46.3h1.2l.6.6C42.1,47,41.4,47.3,41,46.3Z"/><path class="cls-2" d="M38,46.3a3.19,3.19,0,0,1,3,0c-.4.3-.8,0-1.2,0Z"/></g><path class="cls-2" d="M94.2,45.9a10.94,10.94,0,0,1-5.8,1.5H85.6V48h1.5V66.7H85.9v.6h9.5v-.6H94.2Z"/><g class="cls-13"><path class="cls-2" d="M91.9,46.9l2.4-.8v3.2a.4.4,0,0,1-.4-.2,1.88,1.88,0,0,1-.2-.8v.9a2.84,2.84,0,0,0,.4,1.3c0,.6.2,1.3-.8,1.5-.5.1-1.2,0-1.2.5s.8.5,1.3.8a1.78,1.78,0,0,1,.7.8v1.1a1.74,1.74,0,0,0-.3,1.4c-.1.7.2,1.7-.8,1.9-.8.1-1.9.3-2.1-1-.1-.5-.4-.2-.5-.1-.7.1-1.4.3-2-.3a6.2,6.2,0,0,1-.2-2.7c.1-.7.3-1.1,1.2-1-.4-.1-.8,0-1-.4s-.2-.9-.4-1.3a1.94,1.94,0,0,1-.2-1.5c.5-.5,1.1,0,1.5-.4.3.1.1-.2.1,0-.9.1-1.2-.4-1-1.2.2-.3.4-.7.8-.7C90.3,48.1,91,47.3,91.9,46.9Z"/><path class="cls-2" d="M94.3,61.8v3c-.5.6-1.1,0-1.6.2.2.2,1-.2.9.5-.2.9-1.2.2-1.8.5a2.79,2.79,0,0,1,2.7.7l.3.1c.1.1.2.2.1.4l-.1.1c-2.4.1-4.9.1-7.3,0-.5-.7.7-.5.6-1,1-.8-.2-1.8.3-2.6.1-.8.7-.9,1.3-1,1.4-.3,2.8-.1,4.1-.9C93.9,61.6,94.2,61.7,94.3,61.8Z"/><path class="cls-2" d="M94.3,61.8h-.5a11.53,11.53,0,0,1-5.2.7.62.62,0,0,1-.1-.7c.2-.3.7,0,.9-.3.2,0-.2-.1-.1,0a.74.74,0,0,1-.9-.1,1.29,1.29,0,0,1-.1-1.2c.7-.8,1.6-.3,2.4-.2s1.4,0,2,.1a.9.9,0,0,1,.5.1c.4.3.2.5,0,.7a4.43,4.43,0,0,1-1.5.3c.5-.4,1.6.4,1.8-.9-.2,0,0-.6-.5-.3a4.3,4.3,0,0,1-1.6,0c-.5-.1.4-.7-.2-.8s-.8.5-1.2.5a1.91,1.91,0,0,1-1.6-.6,1.53,1.53,0,0,1,.3-1.8c1.2.2,2.3-.7,3.5-.2.1.7-.8.3-.8.8,2.3.9,2.3.9,2.3-1.2.2-.2.3-.4.5-.6a.3.3,0,0,1,.4,0A36.31,36.31,0,0,0,94.3,61.8Z"/><path class="cls-2" d="M88,66.4c.2.5-.7.3-.6.8A2.2,2.2,0,0,1,86,67c1.5-.3,1.3-1.3,1.3-2.3V49.8c0-1.1.1-2.1-1.5-2.3,1.8-.7,3.6.1,5.2-.6h.9c-.6,1.5-2.2,1.2-3.3,1.8-.5.4-.1,1.2-.6,1.5l.3,1.5V63.2C88,64.3,88.7,65.4,88,66.4Z"/><path class="cls-2" d="M94.3,56h-.2a.38.38,0,0,1,0-.6h0V54.1c-.3-.1,0-.8-.6-.6h-.9c-.6,0-1.1-.3-1.1-.9a.9.9,0,0,1,1.1-.9c.9,0,1.7,0,1.4-1.3a.92.92,0,0,1-.1-1c.1,0,.1-.1.2-.2h.2Z"/><path class="cls-2" d="M94.4,66.7c-.1.2-.4.4-.5.2-.6-.9-1.6-.8-2.8-.8.8-.5,1.6,0,2.2-.5-.1-.7-.8-.2-1.1-.7h2.2Z"/><path class="cls-2" d="M94.7,67.2v-.4c.3-.1.7-.2.8.2S95,67.3,94.7,67.2Z"/><path class="cls-2" d="M88,61.5V53.2c0-.5-.2-1,.3-1.4.5.3.3.8.3,1.2s-.3.8,0,1.2v5.2c.3.3-.3.6,0,.9v1.2c-.1.2-.4.2-.6,0Z"/><path class="cls-2" d="M88,50.3V49c0-.4.3-.5.6-.2-.1,1.2,1,.8,1.7,1C89.5,50.3,88.8,50.8,88,50.3Z"/><path class="cls-2" d="M93.5,49.3V47h.4a8.2,8.2,0,0,1,.2,2.2h0c-.2.3-.4.3-.6.1Z"/><path class="cls-2" d="M93.5,53.6c0-.4-.1-.8.3-1.2a2.6,2.6,0,0,1,.2,1.7C93.6,54.2,93.5,54,93.5,53.6Z"/><path class="cls-2" d="M88.6,54.2a.78.78,0,0,1-.2-1l.2-.2c.3.5.9.1,1.2.5C89.5,53.8,88.6,53.3,88.6,54.2Z"/><path class="cls-2" d="M93.5,49.3h.6v1.2C93.2,50.4,93.6,49.8,93.5,49.3Z"/><path class="cls-2" d="M94,55.5v.6a.56.56,0,0,1-.5.6h-.1C93.5,56.2,93.2,55.6,94,55.5Z"/><path class="cls-2" d="M88,63.1v-.3c.2-.2.3-.5.6-.3l5.2-.6c.1.3.2.6-.3.6l-4,.6c-.7.1-.9.3-.9.9C87.8,64.1,88.4,63.2,88,63.1Z"/><path class="cls-2" d="M88,63.1l.6.9c.1.3-.3.7,0,1,.9.9.1,1.1-.6,1.4Z"/><path class="cls-2" d="M88.6,60.3c-.5-.3-.1-.6,0-.9l.3-.3c1.1.6,2.3-1,3.4.2-.2.3-.7-.1-.8.6l1.7-.2a.37.37,0,0,1,0,.6H88.6Z"/><path class="cls-2" d="M93.5,60.3a.53.53,0,0,1,.6.6c0,.5-.2.6-.5.5-1-.4-1.9.3-3,0,.9-.8,2.2-.1,2.9-1.1Z"/><path class="cls-2" d="M88,61.5h.6l1,.1v.2l-1,.1a.37.37,0,0,1-.6,0h0Z"/><path class="cls-2" d="M88,61.8h.6v.6l-.6.3Z"/><path class="cls-2" d="M93.2,60.3v-.6c.1-.4.2-1,.3,0v.6Z"/></g><path class="cls-2" d="M95.1,48.5v1.2a1.51,1.51,0,0,1,1.4-.9,1.88,1.88,0,0,1,1.8,1.9h0a2,2,0,0,1-1.4,2.1c0,2.3,6,2.5,6-1.7,0-3.8-5.3-5.2-7.8-2.6"/><g class="cls-14"><path class="cls-2" d="M102.6,52.7a3.84,3.84,0,0,1-4.3,1.5c-1.2-.4-1.2-1.1,0-2.5a.55.55,0,0,1,.3.5c0,.1.1.3.1.4.7,1,1.4.6,2.2,0l.3-.3c.3-.1.2-.3.1-.5a2.88,2.88,0,0,0-.1-1.3,1.27,1.27,0,0,1-.1-.6v-.8c0-.1.1-.3.1-.4a1,1,0,0,1,.5-.4,1,1,0,0,1,.7.9,4,4,0,0,1,.7,1.8c-.1.3-.4.4-.4.7S102.6,52.4,102.6,52.7Z"/><path class="cls-2" d="M101.4,49.9v.6a.48.48,0,0,1-.2.6H101c-.5,0-.4.4-.5.7a.37.37,0,0,1-.3.1c-.3.1-.9-.1-.8.6a.91.91,0,0,1-1.1-.2v-.7a.37.37,0,0,1,.1-.3c.2-.6.7-1.1.5-1.8-.1-.3.3-.5.6-.5a.6.6,0,0,1,.4.1C100.3,49.6,101.1,49.3,101.4,49.9Z"/><path class="cls-2" d="M95.3,49.3v-1c.3-.9,1-1,1.8-1a.37.37,0,0,0,.3-.1.3.3,0,0,1,.4,0c.1.1.1.2.2.4-.1.5.1,1.1-.3,1.6C96.9,48.8,96.2,49.5,95.3,49.3Z"/><path class="cls-2" d="M97.7,49a2,2,0,0,1,0-1.5c.5-.3.7,0,.9.3,0,.1.1.3.1.4s.3.2.5.3c-.1-.2-.4-.2-.3-.5a1.62,1.62,0,0,1,2.3.3c.1.1.1.2.2.3v.3a1.12,1.12,0,0,1-1.5.3h-.3c-.5-.5-1,.3-1.5,0h-.2C97.6,49.3,97.6,49.2,97.7,49Z"/><path class="cls-2" d="M98.4,48.1a.53.53,0,0,0-.6-.6v-.3a3.31,3.31,0,0,1,2.4,0c.2.9,1.3.4,1.6,1.1l-.3.3c-.8-.3-1.5-1.1-2.4-.3C98.6,48.6,98.5,48.3,98.4,48.1Z"/><path class="cls-2" d="M98.1,49.3c.5-.2,1-.6,1.5,0l-.4.1c.7,1-.2,1.4-.8,2A3.86,3.86,0,0,0,98.1,49.3Z"/><path class="cls-2" d="M102.9,51.2c0-.7-.6-1.2-.5-1.9a1.88,1.88,0,0,1,.6,2.5l-.2-.1A.44.44,0,0,1,102.9,51.2Z"/><path class="cls-2" d="M102.6,52.7c-.4-.2-.3-.6-.3-.9.1-.1.4-.2.5,0h.1C102.9,52.1,103,52.5,102.6,52.7Z"/><path class="cls-2" d="M101.4,52.7a2.25,2.25,0,0,1-2.3.9c-.6,0-.7-.4-.7-.9C99.4,52.7,100.4,51.8,101.4,52.7Z"/><path class="cls-2" d="M100.5,51.8c-.1-.4-.8-.2-.8-.8.5-.2,1.3.3,1.7-.4.6.5.2,1,0,1.5C101,52.3,101,51.3,100.5,51.8Z"/><path class="cls-2" d="M100.5,51.8c.5-.3.6.1.9.3s.2.2,0,.3a2.78,2.78,0,0,1-1.8,0c-.1-.1-.2-.3-.3-.4C99.6,51.6,100.1,51.8,100.5,51.8Z"/><path class="cls-2" d="M99.9,49.3c.4-.4,1,0,1.5-.3v.9C101,49.5,100,50.5,99.9,49.3Z"/><path class="cls-2" d="M99.6,52.4h1.8v.3h-3v-.3Z"/><path class="cls-2" d="M102.9,51.8h-.5c-.4-.8.3-.5.6-.6Z"/><path class="cls-2" d="M98.4,48.1l.6.3h.8C99.3,48.5,98.6,49.1,98.4,48.1Z"/></g><path class="cls-2" d="M149.8,45.9a10.1,10.1,0,0,1-5.8,1.5h-2.8V48h1.5V66.7h-1.2v.6H151v-.6h-1.2Z"/><g class="cls-15"><path class="cls-2" d="M149.9,49.9V65.3c0,.9.3,1.4,1.5,1.8a17.06,17.06,0,0,1-4.5.3h-4.1c-.3,0-.8.1-.9-.3s.5-.4.7-.7a.6.6,0,0,1,.4-.1c1.9.6,3.9.2,5.8.2.1,0,.1-.2,0-.4.3-.8-.5-1.6-.1-2.4s0-1.4.1-2c.3-.8-.6-1.6-.1-2.5.1-.2.5-.3.1-.6a.45.45,0,0,1,0-.5c.3-.4-.1-.7-.2-1a4.1,4.1,0,0,1,0-2.2,11.86,11.86,0,0,0,.1-4.2,1.27,1.27,0,0,1-.1-.6A3.58,3.58,0,0,1,149,49c.1-.6-.3-1-.5-1.5s-.8-.5-.5-1.1c1.7-.8,1.9-.7,2,1A2.47,2.47,0,0,1,149.9,49.9Z"/><path class="cls-2" d="M149,47.5c.2.6.9,1.1.6,1.8a2.46,2.46,0,0,1-2.2.2c-.6-.5-1.1-.9-1.9-.7.3.1.8-.1,1.1.2-.2.7-.7.3-1.1.4a4.87,4.87,0,0,1-1.2-.1,5,5,0,0,0,1.2.2c.4.1,1-.1,1.1.5s-.6.5-1,.6a1.88,1.88,0,0,0-.8.2c-.3.5-.9.8-.8,1.5a32.4,32.4,0,0,1-.2,4.4c0,.6-.2,1.1-.9.5.1-2.9-.2-5.8-.1-8.7a1.76,1.76,0,0,1,1.9-1.2h1.7c.2-.1.3-.1.4-.2l.6-.1h.2C147.8,47.3,148.5,47,149,47.5Z"/><path class="cls-2" d="M142.9,66.4c0-2.7,0-5.5.1-8.2a.49.49,0,0,1,.7.1h0c.6,1.8.1,3.7.3,5.5,0,.7-.2,1.4.3,2a4.25,4.25,0,0,0,1.1.2c.9-.1.7-.8.8-1.4a5,5,0,0,1,.3-2.4.71.71,0,0,1,.6-.3c1,.1.6,1.2,1.1,1.7.3.8-.5,2,.9,2.4a.63.63,0,0,1,.7.7c0,.3-.3.2-.5.2h-5.8C143,67,142.9,66.7,142.9,66.4Z"/><path class="cls-2" d="M145.3,49.3h1c-.4-.5-1-.1-1.4-.7.9.3,1.8-.5,2.3.7a2.09,2.09,0,0,1,.4.6c.3.6,1,.4,1.4.9a2.27,2.27,0,0,1,.4.1c0,1.3-.1,2.5-.1,3.8a.49.49,0,0,0-.3.1,1.51,1.51,0,0,1-1.7.2c-.5-.6-.2-1.3-.4-1.9a3.08,3.08,0,0,0,.5-1.2c0-.4-.2.1-.3.1s-.4.1-.6.2a2,2,0,0,1-.8-.1c-.3-.1-.8-.4-.8-.6.2-.8-.6-.5-.8-.8.6-.7,1.5-.1,2.2-.4-.2-.6-.6-.4-1-.5-.1-.1-.1-.1-.1-.2A1,1,0,0,1,145.3,49.3Z"/><path class="cls-2" d="M147.2,54.8H149v2.7a.64.64,0,0,0,0,.6v.6a.91.91,0,0,1-1.2.1c-.6-.7-.2-1.7-.9-2.3A1.4,1.4,0,0,1,147.2,54.8Z"/><path class="cls-2" d="M149,59.1c.1.6-.3,1.3.5,1.8.4.3-.3.6-.5.9a.84.84,0,0,1-.7.2c-.5-.1-1-.1-1.3-.7a2.57,2.57,0,0,1,.2-2.4A3.85,3.85,0,0,1,149,59.1Z"/><path class="cls-2" d="M149,66.1c-.8.6-1.2.3-1.2-.6V63.7a.91.91,0,0,1,1.2,0C148.8,64.5,149.6,65.3,149,66.1Z"/><path class="cls-2" d="M149,63.7h-1.2c-.3-.5-.2-1.1-.6-1.5.2-.8.8-.4,1.2-.3h.6Z"/><path class="cls-2" d="M147.2,50.2v-.9h2.4c-.2.3-.6.4-.6.9A1.5,1.5,0,0,1,147.2,50.2Z"/><path class="cls-2" d="M147.1,47l.9-.1c.4.1,1,0,1,.7C148.4,47.3,147.5,47.9,147.1,47Z"/><path class="cls-2" d="M147.2,50.2H149v.6A1.57,1.57,0,0,1,147.2,50.2Z"/><path class="cls-2" d="M149,59.1h-1.8a.3.3,0,0,1,0-.4.47.47,0,0,1,.6.1H149c.2,0,.4-.2.5,0S149.2,59.1,149,59.1Z"/><path class="cls-2" d="M149,58.2c-.2-.1-.5,0-.5-.4,0-.1.3-.2.5-.2s.3.2.4.4S149.2,58.2,149,58.2Z"/><path class="cls-2" d="M143,57.9v-.6c.6-1,.3-2.2.5-3.3a8.1,8.1,0,0,0,0-2.2.43.43,0,0,1,.7.1h0a11.79,11.79,0,0,1,0,5.9A.92.92,0,0,1,143,57.9Z"/><path class="cls-2" d="M142.8,48.1c-.4-.3-1-.1-1.6-.9h5.3c-.4.5-.9.4-1.4.3A3.79,3.79,0,0,0,142.8,48.1Z"/><path class="cls-2" d="M144.1,51.8h-.6c-.1-.5.9-.6.6-1.2,1.1-.3,1,.8,1.5,1.2a1.38,1.38,0,0,1-.4.3A1.13,1.13,0,0,1,144.1,51.8Z"/><path class="cls-2" d="M145.3,49.3v.3h-2.1C144,48.6,144.7,49.6,145.3,49.3Z"/><path class="cls-2" d="M143,57.9h1.2a1.59,1.59,0,0,1,1.2-.4,2.38,2.38,0,0,1,1.2.3.75.75,0,0,1,.1.5,1.31,1.31,0,0,1-1.2.3h-1.2c-.2-.1-.5-.2-.7-.3H143C142.9,58.1,142.9,58,143,57.9Z"/><path class="cls-2" d="M145.3,58.2h1.2c.6,1,.2,2.1.3,3.2a1.33,1.33,0,0,1-.3.8v3.1c0,1-.4,1.2-1.2,1.2-.9-1.4-.3-3-.4-4.6C144.9,60.6,144.5,59.3,145.3,58.2Z"/><path class="cls-2" d="M145.3,61.8v4.6h-1.2c-.6-1.4-.2-2.8-.3-4.2C144.2,61.4,144.7,61.6,145.3,61.8Z"/><path class="cls-2" d="M144.1,61.8v4.6c-.8-.1-.6-.8-.6-1.3V58.2h.6A3.35,3.35,0,0,1,144.1,61.8Z"/><path class="cls-2" d="M146.5,62.1v-.6a.37.37,0,0,1,.6,0h0c.4,0,.9-.1,1.2.3-.4,0-.9-.1-1.2.3Z"/><path class="cls-2" d="M146.5,57.9h-1.2a8.05,8.05,0,0,1,0-6.1h1.2A10.56,10.56,0,0,1,146.5,57.9Z"/><path class="cls-2" d="M146.5,57.9V51.8h.6a.91.91,0,0,1,0,1.2c0,.6.5,1.2,0,1.8v1.8a2,2,0,0,1,0,2.1v2.7h-.6V57.9Z"/><path class="cls-2" d="M147.2,53V51.8a.56.56,0,0,1,.7-.6c.6.2-.2.5-.1.8A.77.77,0,0,1,147.2,53Z"/><path class="cls-2" d="M147.2,58.8V56.7c1.1.4.4,1.4.6,2.1Z"/><path class="cls-2" d="M145.3,51.8v6.1h-1.2V51.8Z"/><path class="cls-2" d="M144.1,61.8V58.1h1.2v3.7C144.9,61.8,144.5,62.1,144.1,61.8Z"/></g><path class="cls-2" d="M150.8,48.5v1.2a1.51,1.51,0,0,1,1.4-.9,1.79,1.79,0,0,1,1.8,1.8v.1a2,2,0,0,1-1.4,2.1c0,2.3,6,2.5,6-1.7,0-3.8-5.4-5.2-7.8-2.6"/><g class="cls-16"><path class="cls-2" d="M156.9,48.1c1.8,1.2,2.1,2.2,1.2,4.9-1.4,1.6-2.3,1.9-4.3,1.2h0a1.39,1.39,0,0,1-.9-1.7.35.35,0,0,1,.1-.2c.2-.3.4-.6.9-.5a.86.86,0,0,1,.3.6,1.47,1.47,0,0,0,1.9.7.35.35,0,0,0,.2-.1c.1-.1-.3-.5-.2-.8s.2-.4.5-.4c.6.2.9-.2,1.2-.6-.7-.5-.5-1.5-1.3-1.9s-1.3-.7-.1-1.2A.45.45,0,0,1,156.9,48.1Z"/><path class="cls-2" d="M156.9,48.1h-.7a1.91,1.91,0,0,1-1.8,0c-.6-.3-.7.7-1.2,1-.8,0-1.6-.2-2.2.4a.52.52,0,0,1-.4-.2,1.08,1.08,0,0,1,0-1.1.55.55,0,0,1,.5-.3c.2-.1.5.2.7-.1a.37.37,0,0,1,.1-.3C153.7,47,155.4,46.8,156.9,48.1Z"/><path class="cls-2" d="M152.6,52.7l.6-.3c-.4.8.2,1.3.6,1.8a1.24,1.24,0,0,1-1.3-1.2A.37.37,0,0,0,152.6,52.7Z"/><path class="cls-2" d="M153.3,49.3v-.2c.4-1.3.5-1.4,1.7-1a2.85,2.85,0,0,0,1.3,0l-.2.2c.6.6,1.6,1,1.7,2.1.4-.5.3,0,.3.2a1.94,1.94,0,0,1-1,1.7c-.3.2-.5-.2-.5-.5-.3-.3-.6,0-.8,0-.5,0-1.2-.1-1.2-.7s.7-.5,1.1-.7a3.81,3.81,0,0,1-1.7-.8Z"/><path class="cls-2" d="M153.8,49.6c1,0,1.9.6,3.1.8-.7.7-1.5.3-2.2.5.5.8,1.2.4,1.8.6l.1.1v.1l-.3.3c-.7.2-1.5-.1-2,.6-.1.1-.3-.2-.4-.3v-.6Z"/><path class="cls-2" d="M153.9,52.4c.8-.4,1.5-1,2.4-.3.7,1-.1,1.2-.8,1.4C154.5,53.8,153.8,53.6,153.9,52.4Z"/><path class="cls-2" d="M151.4,48.1l.5-.3c.2.1.7.1.5.4S151.8,48,151.4,48.1Z"/></g></g></svg>