<svg id="Layer_1" data-name="Layer 1" xmlns="http://www.w3.org/2000/svg" viewBox="0 0 304.2 46.5"><defs><style>.cls-1{fill:#c1c7d0;}</style></defs><title>Artboard 4</title><path class="cls-1" d="M75.1,46.2c-4.7-.9-8.9-4.8-9.1-11.5A17.1,17.1,0,0,1,67.5,27c2.1-4.3,6.5-6.5,11.3-6.4,7.7.2,12.1,6,11.7,14.3H73.6a5,5,0,0,0,2.8,5.5c3.1,1.4,5.8.2,8.6-3.7l5.3,2.7a14.26,14.26,0,0,1-7.7,6.4C79.5,47.1,75.1,46.2,75.1,46.2ZM73.5,30.4H83a4.08,4.08,0,0,0-3.7-4.5h-.1C76.2,25.5,74.1,27.2,73.5,30.4Z"/><path class="cls-1" d="M139.7,45.6h-6.6l-.2-1.9L131,44.9a10,10,0,0,1-8.1,1.1,6.72,6.72,0,0,1-5.1-5.6,6.8,6.8,0,0,1,2.5-6.8c2.3-2,5.2-2.3,8.1-3a15.54,15.54,0,0,0,2.3-.5c.7-.3,1.7.2,1.7-1.2,0-1.7-.6-2.9-1.8-3.2a3.81,3.81,0,0,0-4.6,2c-.1.3-.5.7-.7.7h-6.5a5.81,5.81,0,0,1,2.3-5.3,13.11,13.11,0,0,1,4.7-2,17.9,17.9,0,0,1,8.9.5c3.3,1.2,4.6,3.1,4.6,6.6V41.9C139.4,43.1,139.6,44.3,139.7,45.6Zm-7.5-11.5c-2,.8-4.1,1.4-6,2.3a2.22,2.22,0,0,0-1.3,2.9h0a2.64,2.64,0,0,0,2.9,1.7,4.28,4.28,0,0,0,1.6-.5c2.2-1.1,3.1-3.3,2.8-6.4Z"/><path class="cls-1" d="M93.7,21.5h7l.2,1.8a9.76,9.76,0,0,1,7.3-2.5c4.3.1,6.8,2.6,6.9,6.9.1,5.9,0,11.8,0,17.8h-7c0-.5-.1-1-.1-1.5V32a15.48,15.48,0,0,0-.1-2.2c-.2-2.1-1.2-3.1-3.2-3.2-2.2-.1-3.4.7-3.8,2.9a17.2,17.2,0,0,0-.2,3.2V45.5H93.6Z"/><path class="cls-1" d="M191.4,24.3l-4.1,3.8c-2.1-.7-3.9-1.5-5.8-2a5.71,5.71,0,0,0-2.9.4,2.07,2.07,0,0,0-1,1.4,1.79,1.79,0,0,0,1.1,1.3c1.4.5,2.9.6,4.4,1a28.07,28.07,0,0,1,4.9,1.6,6.84,6.84,0,0,1,3.3,9.1,8,8,0,0,1-1.5,2.1,11.06,11.06,0,0,1-6.4,3.1c-5.3.7-10.4-.1-14.7-4.5l4.4-4c1.8,1.6,3.6,3,6,3.2a9.72,9.72,0,0,0,3.8-.5,2.6,2.6,0,0,0,1.4-1.8c0-.5-.9-1.3-1.5-1.5-1.7-.5-3.6-.7-5.4-1.1a27.59,27.59,0,0,1-2.7-.8,6.71,6.71,0,0,1-4.2-8.5,7.22,7.22,0,0,1,1.4-2.4,10,10,0,0,1,6.9-3.4A17.31,17.31,0,0,1,191.4,24.3Z"/><path class="cls-1" d="M54.3,19.8H45.5V13h25v6.7H61.7V45.5H54.3Z"/><path class="cls-1" d="M235.2,45.6h-2.9V22.1h2.6v3.3l.3.3a7.16,7.16,0,0,1,7-4.1c3.2,0,5.5,1.4,6.5,4.7a7.93,7.93,0,0,1,8.4-4.7c3.6.3,6.2,2.6,6.5,6.2.2,3.2.1,6.5.2,9.7v8h-2.9c0-.4-.1-.9-.1-1.4V30.4a10.87,10.87,0,0,0-.1-1.8c-.3-2-1-3.8-3.2-4.3a5.52,5.52,0,0,0-6,1.9,9.44,9.44,0,0,0-1.9,6.1V45.6h-2.7a2.77,2.77,0,0,1-.1-.9c-.1-4.7-.1-9.4-.2-14.1a9.7,9.7,0,0,0-.1-1.7c-.2-2-.8-3.7-2.8-4.5a5.41,5.41,0,0,0-5.8,1.1,7.94,7.94,0,0,0-2.5,5.8c-.1,4.2-.1,8.3-.2,12.5Z"/><path class="cls-1" d="M36.4,13v6.7H0V13Z"/><path class="cls-1" d="M143.4,21.5h6.8l.1,2.3a11.65,11.65,0,0,1,6.9-2.5v6.2c-1.4.3-2.7.5-4,.8-2,.5-2.6,1.3-2.7,3.4-.1,4.1-.1,8.2-.2,12.4v1.6h-6.9Z"/><path class="cls-1" d="M227.3,45.5h-2.6V42.3c-.2.1-.4.1-.5.2a9.17,9.17,0,0,1-10.1,3.3,6.05,6.05,0,0,1-4.7-5.4,6.81,6.81,0,0,1,2.8-6.9c2.3-1.6,4.9-2,7.6-2.2,1.4-.1,2.9,0,4.3,0,1.3-4-.9-7.3-4.8-7.2a44.21,44.21,0,0,0-7.1,1.3c-.3-2.3-.3-2.5,2.1-3.1a21.21,21.21,0,0,1,5.7-.8c4.7.1,7.1,2.6,7.3,7.3.1,4,.1,8,.1,12C227.3,42.3,227.3,43.9,227.3,45.5Zm-2.7-11.7c-1.6,0-2.9-.1-4.1,0a14.27,14.27,0,0,0-3.5.6,8.64,8.64,0,0,0-2.9,1.4c-2.3,1.8-2.2,5.7.1,7.1,3.3,2,8.3.3,9.4-3.3A41.48,41.48,0,0,0,224.6,33.8Z"/><path class="cls-1" d="M304.1,45.5h-2.6V42.3c-.2.1-.4.1-.5.2a9.17,9.17,0,0,1-10.1,3.3,6.05,6.05,0,0,1-4.7-5.4,6.81,6.81,0,0,1,2.8-6.9c2.3-1.6,4.9-2,7.6-2.2,1.5-.1,2.9,0,4.3,0,1.3-4-.9-7.3-4.8-7.2a44.21,44.21,0,0,0-7.1,1.3c-.3-2.3-.3-2.5,2.1-3.1a21.79,21.79,0,0,1,5.7-.8c4.7.1,7.1,2.6,7.3,7.3.1,4,0,8,.1,12Zm-2.8-11.7c-1.6,0-2.9-.1-4.1,0a14.27,14.27,0,0,0-3.5.6,8.64,8.64,0,0,0-2.9,1.4c-2.3,1.8-2.2,5.7.1,7.1,3.3,2,8.3.3,9.4-3.3A24.35,24.35,0,0,0,301.3,33.8Z"/><path class="cls-1" d="M160.1,21.5H167V45.6h-6.9Z"/><path class="cls-1" d="M213,13.5v2.7h-9.4V45.6h-3.2V16.2H191V13.5Z"/><path class="cls-1" d="M281.6,22.5l-.2,2.1c-2.4-.2-4.8-.4-7.1-.4-2,.1-3,1.4-3.1,3.3a2.84,2.84,0,0,0,1.7,2.8c1.7.9,3.4,1.7,5.1,2.6a8.48,8.48,0,0,1,4,3.7,6.16,6.16,0,0,1-2.8,8.3h-.1c-3.5,1.7-7.1,1.2-10.7.2a1,1,0,0,1-.6-.8A17.85,17.85,0,0,1,268,42c2.5,1,4.9,1.7,7.4,1.3,2.2-.4,3.6-1.6,3.9-3.4.3-2-.7-3.3-2.3-4.3-1.9-1.1-3.9-1.9-5.7-3a5.44,5.44,0,0,1-3.2-4.7,5.77,5.77,0,0,1,4.8-6.3A17.25,17.25,0,0,1,281.6,22.5Z"/><path class="cls-1" d="M0,26.2V22.9H36.3v3.3Z"/><path class="cls-1" d="M36.4,6.5V9.7H.1V6.5Z"/><path class="cls-1" d="M36.4,2.6V4.3H.1V2.6Z"/><path class="cls-1" d="M36.4,0V1.2H.1V0Z"/><path class="cls-1" d="M36.4,28.5V30H0V28.5Z"/><path class="cls-1" d="M36.4,31.6v1.1H0V31.6Z"/><path class="cls-1" d="M160.1,18.5V13h7.1v4.7a.88.88,0,0,1-.6.7C164.4,18.5,162.2,18.5,160.1,18.5Z"/></svg>