<svg id="Layer_1" data-name="Layer 1" xmlns="http://www.w3.org/2000/svg" viewBox="0 0 128.87 66.51"><defs><style>.cls-1{fill:#c1c7d0;}</style></defs><title>Artboard 10</title><path class="cls-1" d="M58.32,61.11c-1-1.9-2.1-3.7-2.9-5.5-3.5-7.2-6.7-14.6-10.4-21.7a45.44,45.44,0,0,0-11.7-14.8A21.87,21.87,0,0,0,21,13.91c-1.5-.1-1.6,0-1.4,1.5,1.1,10.3,1,20.6-1.4,30.8-.9,3.9-2.1,7.6-4.6,10.8s-3.1,3.1-5.5.3a33.51,33.51,0,0,1-8-19.4c-.9-11.9,3.3-21.8,12.2-29.6a34.86,34.86,0,0,1,45.3.1,34.39,34.39,0,0,1,12,22.4C71,42.51,67.12,52.51,58.32,61.11Z"/><path class="cls-1" d="M90.92,66.51H76.32V0H103c6.1,0,11.9,1.1,17,4.8a20.44,20.44,0,0,1,8.6,14.9,23.84,23.84,0,0,1-2.8,15.5c-3.3,5.6-8.4,8.6-14.5,10.3a40.43,40.43,0,0,1-10.4,1.1h-10Zm1-36.3,1.6.3c3.3.1,6.6.3,9.8.2a14.37,14.37,0,0,0,5-1,6.75,6.75,0,0,0,4.7-6.4,6.82,6.82,0,0,0-4.4-6.8,15.75,15.75,0,0,0-5.2-1.2c-3.5-.2-7-.1-10.5-.1a4.1,4.1,0,0,0-1.1.1v14.9Z"/></svg>