<svg id="Layer_1" data-name="Layer 1" xmlns="http://www.w3.org/2000/svg" viewBox="0 0 241.74 55.6"><defs><style>.cls-1{fill:#c1c7d0;}</style></defs><title>Artboard 27</title><path class="cls-1" d="M36.84,32.3a10.37,10.37,0,0,1-1.5,5.7,12.11,12.11,0,0,1-3.9,3.9A18.08,18.08,0,0,1,26,44.1a25.64,25.64,0,0,1-6.2.7,32.66,32.66,0,0,1-7-.8,21,21,0,0,1-6.4-2.6,14.39,14.39,0,0,1-4.7-4.8A14.18,14.18,0,0,1,0,28.8h5.7a12.78,12.78,0,0,0,1.1,5.8,8.92,8.92,0,0,0,3,3.4,12.73,12.73,0,0,0,4.5,1.9,27.6,27.6,0,0,0,5.7.6,14,14,0,0,0,4.1-.5,12,12,0,0,0,3.5-1.5,8.51,8.51,0,0,0,2.5-2.5,6.66,6.66,0,0,0,.9-3.6,5.42,5.42,0,0,0-1.1-3.7,7.56,7.56,0,0,0-3-2.3,22.53,22.53,0,0,0-4.4-1.4c-1.7-.4-3.2-.8-4.7-1.2-2.2-.4-4.2-.9-6.1-1.4a22.29,22.29,0,0,1-5.1-1.9,11.44,11.44,0,0,1-3.7-3.2A9.88,9.88,0,0,1,1.44,12a10.37,10.37,0,0,1,1.5-5.7,11.52,11.52,0,0,1,3.9-3.7,20.63,20.63,0,0,1,5.4-2,30.53,30.53,0,0,1,6-.6,29.62,29.62,0,0,1,6.6.7A16.52,16.52,0,0,1,30.34,3,10.66,10.66,0,0,1,34,7.2a16.15,16.15,0,0,1,1.6,6.8H30a11.17,11.17,0,0,0-1-4.8,8.42,8.42,0,0,0-2.5-2.8,9.92,9.92,0,0,0-3.8-1.6,24,24,0,0,0-4.6-.5,18.1,18.1,0,0,0-4,.4,12.34,12.34,0,0,0-3.7,1.2,9.34,9.34,0,0,0-2.7,2.2,5.51,5.51,0,0,0-1,3.5,4.83,4.83,0,0,0,1.2,3.5,10.16,10.16,0,0,0,3.2,2.2,25.42,25.42,0,0,0,4.7,1.4l5.4,1.2c2,.5,3.9,1,5.8,1.5a21.3,21.3,0,0,1,4.9,2.1,9.24,9.24,0,0,1,3.4,3.4A9.61,9.61,0,0,1,36.84,32.3Z"/><polygon class="cls-1" points="46.64 16.7 46.64 43.8 41.14 43.8 41.14 16.7 37.74 16.7 37.74 13 41.14 13 41.14 5.9 46.54 2.6 46.54 13 50.04 13 50.04 16.7 46.64 16.7"/><path class="cls-1" d="M80.14,32.7a12.26,12.26,0,0,1-1.6,5,12.59,12.59,0,0,1-3.2,3.7,16,16,0,0,1-4.5,2.3,17.45,17.45,0,0,1-5.5.8,18.92,18.92,0,0,1-6.7-1.2,14.33,14.33,0,0,1-5-3.4,13.6,13.6,0,0,1-3.1-5,17.81,17.81,0,0,1-1.1-6.1,20,20,0,0,1,1.1-6.4,14.83,14.83,0,0,1,3.1-5.3,14.33,14.33,0,0,1,5.2-3.6,19.88,19.88,0,0,1,12.3-.6,17.8,17.8,0,0,1,4.4,2.1,11.49,11.49,0,0,1,4.7,8.4l-25.1,8.3a8.21,8.21,0,0,0,1.1,3.1,8.64,8.64,0,0,0,2.1,2.9,8.94,8.94,0,0,0,3.1,1.9,12.24,12.24,0,0,0,7.8.1,9.24,9.24,0,0,0,2.9-1.6,8.18,8.18,0,0,0,2-2.5,9.72,9.72,0,0,0,1-3.7h5.2Zm-5.6-10.8a7,7,0,0,0-3-4.1A9,9,0,0,0,66,16.3a12.41,12.41,0,0,0-5,1,9.66,9.66,0,0,0-3.4,2.6,11.12,11.12,0,0,0-2,3.7,14.21,14.21,0,0,0-.7,4.2v.7l20.5-6.7Z"/><path class="cls-1" d="M90.64,4.7a2.22,2.22,0,0,0-1.1.5,4.44,4.44,0,0,0-.8,1.1,7.61,7.61,0,0,0-.3,2.1V13h3.5v4h-3.4V43.9h-5.4v-27h-3.4V13.1h3.4V7.3a9.74,9.74,0,0,1,.6-3.4,5,5,0,0,1,1.7-2.1A7.45,7.45,0,0,1,87.84.7a12.65,12.65,0,0,1,2.8-.3,17,17,0,0,1,2.5.1,17,17,0,0,0,2.5.1v4S91.14,4.6,90.64,4.7Z"/><path class="cls-1" d="M105.14,4.7a2.22,2.22,0,0,0-1.1.5,4.44,4.44,0,0,0-.8,1.1,7.61,7.61,0,0,0-.3,2.1V13h3.5v4H103V43.9h-5.4v-27h-3.4V13.1h3.4V7.3a9.74,9.74,0,0,1,.6-3.4,5,5,0,0,1,1.7-2.1,5.28,5.28,0,0,1,2.4-1.1,12.65,12.65,0,0,1,2.8-.3,19.34,19.34,0,0,1,2.6.1,17.77,17.77,0,0,0,2.5.1v4A44.24,44.24,0,0,0,105.14,4.7Z"/><path class="cls-1" d="M131.54,43.8V39.2c-.4,1.6-1.6,2.9-3.7,3.9a16.94,16.94,0,0,1-7,1.5,19.33,19.33,0,0,1-6.7-1.2,14.08,14.08,0,0,1-5-3.3,15.3,15.3,0,0,1-3.2-5,16.06,16.06,0,0,1-1.1-6.1,19.91,19.91,0,0,1,1-6.4,14.83,14.83,0,0,1,3.1-5.3,14.33,14.33,0,0,1,5.2-3.6,17.52,17.52,0,0,1,7.1-1.3,16.4,16.4,0,0,1,6.5,1.3c2,.9,3.2,2,3.6,3.5v-4h5.4V44.1Zm0-20.7a4.7,4.7,0,0,0-.8-2.6,7.29,7.29,0,0,0-2.2-2.1,17.72,17.72,0,0,0-3.1-1.5,9.6,9.6,0,0,0-3.3-.6,11.55,11.55,0,0,0-5.5,1.1,9.77,9.77,0,0,0-3.6,2.8,11.58,11.58,0,0,0-2,4,18.16,18.16,0,0,0-.6,4.6,14.26,14.26,0,0,0,.7,4.6,10.46,10.46,0,0,0,2.1,3.7,10.33,10.33,0,0,0,3.4,2.5,13.33,13.33,0,0,0,4.9.9,15,15,0,0,0,3.7-.5,10.36,10.36,0,0,0,3.2-1.5,7.91,7.91,0,0,0,2.3-2.5,6.29,6.29,0,0,0,.9-3.3Z"/><path class="cls-1" d="M162.54,43.8V24.7a8.73,8.73,0,0,0-2-6c-1.3-1.5-3.4-2.2-6.1-2.2a12,12,0,0,0-4.2.8,8.93,8.93,0,0,0-2.9,2.2,10.14,10.14,0,0,0-1.8,3.2,13.2,13.2,0,0,0-.6,3.9V43.8h-5.4V12.9h5.3v6.2a6,6,0,0,1,3.4-5.1,15.21,15.21,0,0,1,7.5-1.9,12.78,12.78,0,0,1,8.9,3,10.64,10.64,0,0,1,3.3,8.1V43.7Z"/><path class="cls-1" d="M227.34,43.8V24.7a8.73,8.73,0,0,0-2-6c-1.3-1.5-3.4-2.2-6.1-2.2a11.62,11.62,0,0,0-4.2.8,8.93,8.93,0,0,0-2.9,2.2,9.16,9.16,0,0,0-1.8,3.2,13.2,13.2,0,0,0-.6,3.9V43.8h-5.4V12.9h5.4v6.2a6,6,0,0,1,3.4-5.1,15.21,15.21,0,0,1,7.5-1.9,12.78,12.78,0,0,1,8.9,3,10.64,10.64,0,0,1,3.3,8.1V43.7h-5.5Z"/><rect class="cls-1" x="235.34" y="12.9" width="5.4" height="30.9"/><path class="cls-1" d="M98.34,52.6v2.7h-.9V49.1h4.3a1.87,1.87,0,0,1,1.4.5,1.54,1.54,0,0,1,.5,1.3,1.71,1.71,0,0,1-1.8,1.8Zm0-.9h3.4a1.45,1.45,0,0,0,.7-.2.86.86,0,0,0,.3-.6,1.42,1.42,0,0,0-.2-.6.84.84,0,0,0-.7-.2h-3.4Z"/><path class="cls-1" d="M105.84,52.6v2.7h-.9V49.1h4a1.87,1.87,0,0,1,1.4.5,1.9,1.9,0,0,1,.5,1.3,1.92,1.92,0,0,1-.4,1.2,2.38,2.38,0,0,1-1.1.6l1.7,2.7h-1l-1.7-2.7Zm0-.9h3.1a1.45,1.45,0,0,0,.7-.2c.2-.2.3-.4.2-.6a1.07,1.07,0,0,0-.2-.6,1,1,0,0,0-.7-.2h-3.1Z"/><path class="cls-1" d="M115.64,55.5a4.11,4.11,0,0,1-2.6-.9,3.17,3.17,0,0,1-.2-4.5l.2-.2a3.46,3.46,0,0,1,2.6-.9,3.92,3.92,0,0,1,2.6.9,3,3,0,0,1,1,2.3,2.76,2.76,0,0,1-1,2.3A3.19,3.19,0,0,1,115.64,55.5Zm0-.9a2.64,2.64,0,0,0,1.9-.7,2.33,2.33,0,0,0,.2-3.2l-.2-.2a2.93,2.93,0,0,0-3.8,0,2.33,2.33,0,0,0-.2,3.2l.2.2a2.4,2.4,0,0,0,1.9.7Z"/><path class="cls-1" d="M123.44,50h-1.7v4.4h1.7a2.26,2.26,0,0,0,1.6-3.8A2.83,2.83,0,0,0,123.44,50Zm0-.8a3.57,3.57,0,0,1,2.3.8,3.14,3.14,0,0,1,0,4.4,3,3,0,0,1-2.4.8h-2.5V49h2.6Z"/><path class="cls-1" d="M128,49.2h.9v4a1.37,1.37,0,0,0,.4,1.2,4.42,4.42,0,0,0,3.2,0,1.37,1.37,0,0,0,.4-1.2v-4h.9v4.2a1.73,1.73,0,0,1-.7,1.6,3.57,3.57,0,0,1-2.2.5,3.42,3.42,0,0,1-2.2-.5,2,2,0,0,1-.7-1.6Z"/><path class="cls-1" d="M142.14,53.8a4,4,0,0,1-1.3,1.3,4.06,4.06,0,0,1-4.5-.4,3,3,0,0,1-1-2.3,2.9,2.9,0,0,1,1-2.3,3.46,3.46,0,0,1,2.6-.9,3.4,3.4,0,0,1,1,.1,6.89,6.89,0,0,1,.8.3,2.76,2.76,0,0,1,1.3,1.1l-.7.5a2,2,0,0,0-1-.8,3.08,3.08,0,0,0-1.3-.3,2.64,2.64,0,0,0-1.9.7,2.06,2.06,0,0,0-.7,1.7,2.61,2.61,0,0,0,.7,1.7,2.64,2.64,0,0,0,1.9.7,3.19,3.19,0,0,0,1.4-.3,4.74,4.74,0,0,0,1-1Z"/><path class="cls-1" d="M149.94,53.8a4,4,0,0,1-1.3,1.3,4.06,4.06,0,0,1-4.5-.4,3,3,0,0,1-1-2.3,2.9,2.9,0,0,1,1-2.3,3.46,3.46,0,0,1,2.6-.9,3.4,3.4,0,0,1,1,.1,6.89,6.89,0,0,1,.8.3,2.76,2.76,0,0,1,1.3,1.1l-.7.5a2.54,2.54,0,0,0-1-.8,3.08,3.08,0,0,0-1.3-.3,2.64,2.64,0,0,0-1.9.7,2.06,2.06,0,0,0-.7,1.7,2.61,2.61,0,0,0,.7,1.7,2.64,2.64,0,0,0,1.9.7,3.19,3.19,0,0,0,1.4-.3,4.74,4.74,0,0,0,1-1Z"/><rect class="cls-1" x="151.54" y="49.1" width="0.9" height="6.2"/><path class="cls-1" d="M157.54,55.5a4.11,4.11,0,0,1-2.6-.9,3.17,3.17,0,0,1-.2-4.5l.2-.2a3.46,3.46,0,0,1,2.6-.9,3.92,3.92,0,0,1,2.6.9,3,3,0,0,1,1,2.3,2.9,2.9,0,0,1-1,2.3A3.19,3.19,0,0,1,157.54,55.5Zm0-.9a2.64,2.64,0,0,0,1.9-.7,2.35,2.35,0,0,0,.1-3.3l-.1-.1a3.15,3.15,0,0,0-3.9,0,2.06,2.06,0,0,0-.7,1.7,2.14,2.14,0,0,0,.8,1.7,3,3,0,0,0,1.9.7Z"/><polygon class="cls-1" points="162.74 55.3 162.74 49.1 163.24 49.1 167.04 53.5 167.04 49.1 167.94 49.1 167.94 55.3 167.44 55.3 163.64 51 163.64 55.3 162.74 55.3"/><path class="cls-1" d="M177.24,50h-1.7v4.4h1.7a2.26,2.26,0,0,0,1.6-3.8A2.58,2.58,0,0,0,177.24,50Zm0-.8a3.57,3.57,0,0,1,2.3.8,3.14,3.14,0,0,1,0,4.4,3,3,0,0,1-2.4.8h-2.6V49h2.7Z"/><polygon class="cls-1" points="181.84 55.3 181.84 49.2 187.44 49.2 187.44 50.1 182.74 50.1 182.74 51.6 185.84 51.6 185.84 52.5 182.74 52.5 182.74 54.4 187.64 54.4 187.64 55.3 181.84 55.3"/><polygon class="cls-1" points="193.74 55.3 193.74 49.2 199.24 49.2 199.24 50.1 194.64 50.1 194.64 51.6 197.64 51.6 197.64 52.5 194.64 52.5 194.64 54.4 199.44 54.4 199.44 55.3 193.74 55.3"/><polygon class="cls-1" points="203.34 55.3 202.94 55.3 199.94 49.1 200.94 49.1 203.14 53.8 205.34 49.1 206.34 49.1 203.34 55.3"/><polygon class="cls-1" points="207.44 55.3 207.44 49.2 212.94 49.2 212.94 50.1 208.44 50.1 208.44 51.6 211.44 51.6 211.44 52.5 208.44 52.5 208.44 54.4 213.24 54.4 213.24 55.3 207.44 55.3"/><polygon class="cls-1" points="214.64 55.3 214.64 49.1 215.04 49.1 218.84 53.5 218.84 49.1 219.74 49.1 219.74 55.3 219.24 55.3 215.54 51 215.54 55.3 214.64 55.3"/><polygon class="cls-1" points="223.24 55.3 223.24 50 220.74 50 220.74 49.2 226.64 49.2 226.64 50 224.14 50 224.14 55.3 223.24 55.3"/><path class="cls-1" d="M230.64,55.5a3.92,3.92,0,0,1-2.6-.9,3.17,3.17,0,0,1-.2-4.5l.2-.2a3.46,3.46,0,0,1,2.6-.9,3.92,3.92,0,0,1,2.6.9,3,3,0,0,1,1,2.3,2.9,2.9,0,0,1-1,2.3A3.31,3.31,0,0,1,230.64,55.5Zm0-.9a2.64,2.64,0,0,0,1.9-.7,2.35,2.35,0,0,0,.1-3.3l-.1-.1a3.15,3.15,0,0,0-3.9,0,2.06,2.06,0,0,0-.7,1.7,2.14,2.14,0,0,0,.8,1.7,2.64,2.64,0,0,0,1.9.7Z"/><path class="cls-1" d="M235.14,54.5l.5-.8c.2.1.4.3.6.4s.5.2.7.3a3.18,3.18,0,0,0,1.4.2,2,2,0,0,0,1.3-.4.89.89,0,0,0,0-1.6,1.69,1.69,0,0,0-.5-.2,2.49,2.49,0,0,0-.8-.1,5.7,5.7,0,0,1-1.3-.1,1.61,1.61,0,0,1-.9-.3,1.22,1.22,0,0,1-.6-1.2,1.46,1.46,0,0,1,.7-1.3,3.45,3.45,0,0,1,1.8-.5,7.72,7.72,0,0,1,1.5.2,5.39,5.39,0,0,1,1.3.7l-.5.8a3.38,3.38,0,0,0-1.2-.6,5,5,0,0,0-1.2-.2,3,3,0,0,0-1,.2.73.73,0,0,0,0,1.3,6.75,6.75,0,0,0,1.4.2,4.87,4.87,0,0,1,1.2.1,3.55,3.55,0,0,1,.9.4,1.49,1.49,0,0,1,.7,1.5,2.13,2.13,0,0,1-.7,1.5,3.08,3.08,0,0,1-1.9.6,5.08,5.08,0,0,1-1.7-.3A4.47,4.47,0,0,1,235.14,54.5Z"/><path class="cls-1" d="M234.54,7.6a3.6,3.6,0,1,1,3.6,3.6A3.59,3.59,0,0,1,234.54,7.6Z"/><path class="cls-1" d="M186.24,12a16.81,16.81,0,0,0-1.8,33.5V42.2c-3.8-.5-7.1-2.8-7.2-7V31.6h2.6v3.6c.1,6,12.1,6,12.3-.1V31h2.6v3.9c0,4.5-3.7,6.9-7.7,7.3v3.3a16.76,16.76,0,0,0-.8-33.5ZM191,34.7c0,5-10.2,5.2-10.2.5,0,0-.1-9-.1-12.2a4.63,4.63,0,0,1,1.6-3.5v7.9h1.5V18.7c.3-.1.7-.2,1-.3v9h1.5V18.3a3.4,3.4,0,0,1,1,.1v9h1.5V18.8a3.4,3.4,0,0,1,2.1,2.9c.2,5.3.1,9.8.1,13Z"/></svg>