<svg id="Layer_1" data-name="Layer 1" xmlns="http://www.w3.org/2000/svg" viewBox="0 0 265.8 51.5"><defs><style>.cls-1{fill:#c1c7d0;}</style></defs><title>Artboard 17</title><path class="cls-1" d="M0,36.6H6.9c1.1,0,1.1,0,1.2,1.1a7.42,7.42,0,0,0,1.8,4.9,8,8,0,0,0,8.2,1.9c3-.8,4.5-3,5.1-5.9a19.48,19.48,0,0,0,.2-2.5V.1h8.3c0,12.2.1,24.4,0,36.6,0,6.1-2.8,10.8-8.5,13.4a13.05,13.05,0,0,1-4.7,1.2,1.85,1.85,0,0,0-.7.2H14.2c-1.2-.3-2.6-.3-3.8-.6-4.8-1.3-8.4-4-9.8-9-.3-1-.3-2.1-.6-3.2Z"/><path class="cls-1" d="M40.3,51.5a34.67,34.67,0,0,1-5.6-1.1,24.36,24.36,0,0,1-4.4-1.9c-.2-.1-.5-.2-.2-.5a14.78,14.78,0,0,0,3.2-5.9,14.68,14.68,0,0,0,13.7,2,6.07,6.07,0,0,0,4.8-5.7A6.41,6.41,0,0,0,48.4,32a25,25,0,0,0-7-2.8,53,53,0,0,1-6.7-2.3c-.4-.2-.6-.3-.6-.8V17.7c3.5,2.8,7.7,3.7,11.8,5a27.83,27.83,0,0,1,9.8,5.1c5.5,4.7,5.7,13.9,1.1,18.4a17.26,17.26,0,0,1-9.3,4.7c-1.1.2-2.3.3-3.4.5Z"/><path class="cls-1" d="M43.5.1a34.13,34.13,0,0,1,5.4,1C54,2.8,57.7,5.8,59.5,11a12,12,0,0,1,.5,3.8c0,.5-.2.7-.7.7H52.6c-.4,0-.6-.1-.6-.6-.3-4.9-3.9-7.7-8.6-8a15.28,15.28,0,0,0-3.7.1,8.77,8.77,0,0,0-5.5,2.5c-.3-.2-.2-.5-.2-.7V2.1a1,1,0,0,1,.8-1h0A34,34,0,0,1,39.4.2a3.55,3.55,0,0,0,1-.2l3.1.1Z"/><path class="cls-1" d="M265.6,42.6a7.19,7.19,0,0,1-1.3,2.8,7.08,7.08,0,0,1-4.8,1.9,11.52,11.52,0,0,1-7.6-2.2c-.6-.4-.8-.8-.2-1.5,1.2-1.5,1.2-1.5,2.9-.5a7.44,7.44,0,0,0,5.8,1.1,2.89,2.89,0,0,0,1.6-.9,1.87,1.87,0,0,0,0-2.6,1,1,0,0,0-.5-.4,8,8,0,0,0-2.6-.9,25.2,25.2,0,0,1-3.9-1.2,4.41,4.41,0,0,1-3-3.9,4.71,4.71,0,0,1,2.5-4.8c2.7-1.6,5.5-1.3,8.2-.2a11.78,11.78,0,0,1,1.9,1.1.7.7,0,0,1,.4.9.22.22,0,0,1-.2.2c-1.2,1.7-1.2,1.7-3,.7a7.56,7.56,0,0,0-3.9-1,3.18,3.18,0,0,0-2,.8,1.79,1.79,0,0,0-.3,2.6h0a1.79,1.79,0,0,0,.7.5,14.26,14.26,0,0,0,2.7.9,25,25,0,0,1,2.6.7c2.1.6,3.7,1.7,4.2,4Z"/><path class="cls-1" d="M265.6,13.5c-.2.6-.3,1.2-.5,1.9a8.35,8.35,0,0,1-9.2,5.6,8.5,8.5,0,0,1-7.1-9.7,8.6,8.6,0,0,1,7.1-7.1,8.38,8.38,0,0,1,9.4,6.8l.2.8Zm-15.3-.8a6.8,6.8,0,1,0,6.8-7A7,7,0,0,0,250.3,12.7Z"/><path class="cls-1" d="M173,41.6l2.9-8.6c.4-1.1.8-2.2,1.1-3.2a1,1,0,0,1,.9-.7c2.9-.1,2.9-.1,3.8,2.6l3.1,9.2.3.9c.6-2,1.1-3.8,1.7-5.6l1.9-6.5a1,1,0,0,1,1-.8h2c.7,0,.8.2.5.8-1,2.9-1.8,5.8-2.8,8.7-.8,2.6-1.7,5.1-2.4,7.7a.89.89,0,0,1-1,.8h0c-3.1-.1-2.3.5-3.2-2.3-1.2-3.6-2.4-7.1-3.6-10.7a.35.35,0,0,1-.1-.2c-.3.1-.2.3-.3.5-1.3,3.9-2.7,7.8-4,11.8a1.09,1.09,0,0,1-1.2.9c-2.9-.1-2.2.4-3.1-2.2-1.6-4.9-3.1-9.8-4.7-14.8-.3-1.1-.3-1.1.8-1.1,2.5,0,2.5,0,3.2,2.3,1,3.2,1.9,6.3,2.8,9.5.1.3.2.5.3.8Z"/><path class="cls-1" d="M92.4,35.4a1.79,1.79,0,0,0-.5.7c-1.6,2.9-3.2,5.8-4.8,8.8-.2.3-.2.6-.6.6s-.5-.4-.6-.6l-4.8-8.8c-.1-.2-.2-.5-.4-.6a1.1,1.1,0,0,0,0,.8v10c0,.7-.2,1-.9.9H78.2c-.5,0-.8-.2-.8-.8V29.8c0-.5.2-.8.7-.7h.2c1.8-.4,2.9.4,3.7,2.1,1.2,2.8,2.9,5.3,4.2,8,.1.2.3.5.4.7a1.33,1.33,0,0,0,.5-.6c1.7-3.1,3.5-6.2,5.1-9.4a1.16,1.16,0,0,1,1.2-.8H95c.7,0,.9.2.9.9-.1,3.7,0,7.5,0,11.2v5c0,.7-.3,1-1,.9a3.79,3.79,0,0,0-1.5,0c-.7,0-1-.2-1-1V35.4Z"/><path class="cls-1" d="M216.4,38V29.9c0-.6.2-.9.8-.9h7.4a6.14,6.14,0,0,1,6.2,4.5,5.72,5.72,0,0,1-3.3,6.8c-.8.3-.7.6-.3,1.1,1.1,1.5,2.2,3.1,3.3,4.6.2.2.4.4.3.7s-.5.3-.8.3c-2.5.1-2.5.1-4-2-.9-1.2-1.7-2.4-2.6-3.7a.81.81,0,0,0-.9-.4h-2.3c-.5,0-.7.2-.7.6v4.6c0,.7-.3.9-.9.9a3.79,3.79,0,0,0-1.5,0q-1,.15-.9-.9C216.4,43.4,216.4,40.7,216.4,38Zm6-5.9h-2.2c-.4,0-.5.2-.5.5v4.9c0,.3,0,.5.4.5a41.73,41.73,0,0,0,5-.1,2.85,2.85,0,0,0,2.6-2.9,3.1,3.1,0,0,0-2.7-2.9,22.53,22.53,0,0,0-2.6,0Z"/><path class="cls-1" d="M203.8,28.7a9.3,9.3,0,1,1-9.5,9.3A9.59,9.59,0,0,1,203.8,28.7Zm6.1,9.3a6.2,6.2,0,0,0-12.4.4,6.15,6.15,0,0,0,6.3,6,6.26,6.26,0,0,0,6.1-6.4Z"/><path class="cls-1" d="M99.7,38V30c0-.8.2-1.1,1-1.1,3.9.1,7.9.1,11.7,0,.8,0,.9.2.9.9,0,2,0,2-2,2h-7.5c-.5,0-.8.2-.8.7v3c0,.5.2.7.7.7h7.8c.6,0,.9.2.9.8,0,2.2,0,2.2-2.1,2.2h-6.5c-.6,0-.8.2-.8.7v3.3c0,.5.2.7.7.7h8.7c.7,0,1,.2.9.9,0,2.1,0,2.1-2.2,2.1H100.9c-1.4,0-1.4,0-1.4-1.4l.2-7.5Z"/><path class="cls-1" d="M139.7,29.1c2.3,0,1.7-.2,2.5,1.7,2.2,5,4.2,10.1,6.4,15.1.4,1,.3,1.2-.8,1.2-2.8,0-2.2.4-3.2-2.1a1.52,1.52,0,0,0-1.7-1.1H136a.78.78,0,0,0-.9.6l-.9,2.1a.69.69,0,0,1-.8.5h-2.3c-.6,0-.8-.2-.5-.8,2.3-5.5,4.6-11,7-16.6a.89.89,0,0,1,1-.6A4.05,4.05,0,0,1,139.7,29.1Zm0,4.4c-1.1,2.6-2.1,5-3.1,7.5h6.3C141.8,38.5,140.9,36.1,139.7,33.5Z"/><path class="cls-1" d="M237.5,37.8c2.5-2.9,4.9-5.4,7.3-8.1a1.68,1.68,0,0,1,1.5-.7h2.1c.2,0,.5-.1.7.2s-.2.4-.3.6L244.1,35c-.4.4-.8,1-1.2,1.4a.79.79,0,0,0,0,1.3c2.2,2.8,4.4,5.7,6.6,8.5.2.2.5.4.4.8s-.6.2-.9.2c-2,.4-3.4-.4-4.6-2.2s-2.5-3.4-3.8-5c-.3-.5-.6-.4-.9,0v.1c-1.9,1.3-2,3.2-1.9,5.3s.3,1.8-1.8,1.8c-1.5,0-1.5,0-1.5-1.5V30.1c0-.9.3-1.1,1.1-1,2.3.1,2.3,0,2.3,2.3Z"/><path class="cls-1" d="M124.6,39.5v6.6c0,.8-.3,1-1,1-2.6,0-2.3.3-2.3-2.3v-12c0-.7-.2-.9-.9-.9-1.3.1-2.7,0-4,0-.6,0-.9-.2-.9-.9,0-2.4-.3-2.1,2-2.1h11.9c1,0,1,0,1,1.1,0,2.2.2,1.9-1.9,1.9h-3.2c-.5-.1-.8.2-.8.7C124.6,35,124.6,37.2,124.6,39.5Z"/><path class="cls-1" d="M118.2,16.2c2-3.7,3.9-7.3,5.8-10.9.2-.3.3-.7.9-.8,1.1,0,1.1,0,1.1,1V19.9a.82.82,0,0,1-.7,1h-.1a.75.75,0,0,1-.5-.1c-.3-.2-.2-.5-.2-.7V8.2l-.2-.1a3,3,0,0,0-.4.8c-1.7,3.2-3.4,6.4-5.1,9.5-.1.3-.2.6-.5.6s-.4-.4-.5-.6c-1.8-3.5-3.7-6.8-5.5-10.3a1.49,1.49,0,0,0-.2.9V20.1c0,.6-.1.8-.8.8s-.9-.1-.9-.8V5.5c0-.3-.2-.9.4-.9s1.1-.2,1.5.5c1.5,2.9,3,5.7,4.6,8.6C117.3,14.5,117.8,15.4,118.2,16.2Z"/><path class="cls-1" d="M151.3,37.9v-8c0-.7.2-1,.9-1,2.4,0,2.4,0,2.4,2.4V43c0,.7.2.9.9.9,2.5-.1,4.9,0,7.4,0,.8,0,1.1.3,1.1,1,0,2,0,2-2,2h-9.4c-1.1,0-1.2-.2-1.2-1.2l-.1-7.8Z"/><path class="cls-1" d="M140.9,12.2c1.8,1.1,3,2.4,2.8,4.6a4.26,4.26,0,0,1-4.2,4c-2.6.1-5.2,0-7.8.1-.4,0-.5-.2-.5-.6V5.2c0-.5.2-.6.7-.6H139a4,4,0,0,1,4,2.9,4,4,0,0,1-1.7,4.6C141.1,12.1,141,12.2,140.9,12.2Zm-4.7.8h-2.8c-.4,0-.6.1-.6.5v5.3c0,.4.1.5.5.5,1.9-.1,3.8.1,5.8-.1a3.14,3.14,0,0,0,3.1-3.2v-.1a3.25,3.25,0,0,0-3.4-3.1h0A11.84,11.84,0,0,1,136.2,13Zm-.2-1.4h2.6a3.09,3.09,0,0,0,2.9-2.2c.4-1.9-.9-3.4-3.1-3.5h-5c-.4,0-.6.1-.6.5V11c0,.4.2.5.6.5a21.75,21.75,0,0,0,2.6.1Z"/><path class="cls-1" d="M147.1,12.7a8.45,8.45,0,1,1,0,.1Zm8.3-7a7,7,0,1,0,6.8,7.2v-.2A6.91,6.91,0,0,0,155.4,5.7Z"/><path class="cls-1" d="M225,12.7V5.5c0-.7.2-1,.9-1,2.3.1,4.6-.2,7,.3a8.07,8.07,0,0,1,6.2,9.7,8.25,8.25,0,0,1-6.5,6.3,55.61,55.61,0,0,1-7.1.2c-.6,0-.6-.4-.6-.9C224.9,17.6,225,15.2,225,12.7Zm1.5,0v6.1c0,.5.2.7.7.7,1.5-.1,2.9,0,4.4-.1a6.63,6.63,0,0,0,6.1-6,6.52,6.52,0,0,0-5.1-7.2,23.93,23.93,0,0,0-5.3-.3c-.6,0-.9.1-.8.8v6Z"/><path class="cls-1" d="M181.1,21.2a9.27,9.27,0,0,1-5.8-2,.75.75,0,0,1-.4-.9c.2-.8.7-.9,1.3-.4a7.45,7.45,0,0,0,5.3,1.8,3.92,3.92,0,0,0,2.6-.9,2.67,2.67,0,0,0,.7-3.5,2.84,2.84,0,0,0-1-.9,11.47,11.47,0,0,0-3.1-1.1,14,14,0,0,1-2.9-.9c-3.5-1.5-3-5.5-.6-7.1a6.88,6.88,0,0,1,6.8-.4A11.78,11.78,0,0,1,185.9,6a.78.78,0,0,1,.3,1h0l-.2.2c-.4.5-.7.4-1.1,0a6.36,6.36,0,0,0-5.1-1.5,3.43,3.43,0,0,0-2.2,1.2,2.35,2.35,0,0,0,0,3.3,1.79,1.79,0,0,0,.7.5,14.25,14.25,0,0,0,3.5,1.1,14.26,14.26,0,0,1,2.7.9,3.79,3.79,0,0,1,2.5,3.8,4.4,4.4,0,0,1-2.6,3.9A12.06,12.06,0,0,1,181.1,21.2Z"/><path class="cls-1" d="M218.4,10V5.3c0-.6.2-.8.8-.8s.8.2.8.8v8.8c-.1,3.7-2,6.2-5.2,6.8a6.57,6.57,0,0,1-8-4.7,9.85,9.85,0,0,1-.2-1.7c-.1-3.1,0-6.2,0-9.3,0-.6.3-.7.8-.7s.8.1.8.7v9.3a5.21,5.21,0,0,0,5,5.3,8.75,8.75,0,0,0,1.6-.2,5.12,5.12,0,0,0,3.7-4.6c0-1.7-.1-3.4-.1-5Z"/><path class="cls-1" d="M93.6,10.1c0,1.6-.1,3.1,0,4.6a5,5,0,0,0,2.8,4.5,4.88,4.88,0,0,0,5.2-.3,5.09,5.09,0,0,0,2.3-4.5v-9c0-.5,0-.9.8-.9s.9.3.8.9c0,3.2.2,6.5-.1,9.6-.3,3.9-3.2,6.2-7.1,6a6.45,6.45,0,0,1-6.2-6.6V5.1c0-.6.3-.7.8-.7s.8,0,.8.7c-.1,1.7,0,3.3-.1,5Z"/><path class="cls-1" d="M195.5,13.4V6.7c0-.6-.2-.8-.8-.8-1.4.1-2.8,0-4.2,0-.5,0-.8-.1-.8-.8s.3-.7.8-.7h11.4c.5,0,.8.2.8.8s-.3.7-.8.7h-4c-.7,0-.9.2-.9.9V19.9c0,.7-.2,1-.9.9-.5-.1-.7-.2-.7-.7Z"/><path class="cls-1" d="M69,25.9V48.3a.43.43,0,0,1-.4.4c-.2,0-.3-.1-.4-.3v-.1h0V3.6c0-.3,0-.6.4-.6s.4.2.4.5V25.9Z"/><path class="cls-1" d="M87.3,10.7v5c-.1,2.9-1.6,4.9-4.1,5.3a5.56,5.56,0,0,1-5.5-2.1c-.6-.7.1-1,.4-1.4.5-.5.6.2.8.3a4.38,4.38,0,0,0,3,1.7c2.3.3,4-1.5,4-4V5.2c0-.8.2-.9.9-.9.5,0,.6.2.6.7A55.14,55.14,0,0,0,87.3,10.7Z"/><path class="cls-1" d="M243.3,12.6V5.4c0-.6.1-.9.8-.9s.8.3.8.9V19.9c0,.6-.2.9-.9.9s-.8-.4-.8-1C243.4,17.5,243.3,15,243.3,12.6Z"/></svg>