<svg id="Layer_1" data-name="Layer 1" xmlns="http://www.w3.org/2000/svg" viewBox="0 0 181.8 73.73"><defs><style>.cls-1{fill:#c1c7d0;}</style></defs><title>Artboard 12</title><path class="cls-1" d="M24.3,55.53c-.5,2.4-1.3,4-2.3,4.7s-2.9,1.1-5.6,1.1h-7l1.1-4.8h4.8a5.69,5.69,0,0,0,2.6-.4,4.42,4.42,0,0,0,1.1-2.4l1-4.8a7.77,7.77,0,0,0,.2-1.6,1.19,1.19,0,0,0-1-1.2,10.87,10.87,0,0,0-1.8-.1H10.5L5.8,67H0l5.7-25.8H20.5a11.41,11.41,0,0,1,4.5.6,2.58,2.58,0,0,1,1.3,2.5,10.68,10.68,0,0,1-.3,2.5Z"/><path class="cls-1" d="M43.6,51.63H36.9a4.76,4.76,0,0,0-2.6.4,4.42,4.42,0,0,0-1.1,2.4l-2.7,12.5H24.7L29,46.83h5.8l-.5,2.5a4.84,4.84,0,0,1,4.3-2.5h6Z"/><path class="cls-1" d="M67,61.23c-.5,2.4-1.3,3.9-2.3,4.6s-2.9,1.1-5.6,1.1H50.3a11.41,11.41,0,0,1-4.5-.6,2.58,2.58,0,0,1-1.3-2.5,11.53,11.53,0,0,1,.3-2.6l1.8-8.7c.5-2.3,1.3-3.9,2.3-4.6s2.9-1.1,5.5-1.1h8.9a11.41,11.41,0,0,1,4.5.6,2.58,2.58,0,0,1,1.3,2.5,11.53,11.53,0,0,1-.3,2.6Zm-5.3-1.9,1-4.9a7.72,7.72,0,0,0,.2-1.5,1.19,1.19,0,0,0-1-1.2,10.87,10.87,0,0,0-1.8-.1H55.6a5.28,5.28,0,0,0-2.5.4,4.42,4.42,0,0,0-1.1,2.4l-1,4.9a7.72,7.72,0,0,0-.2,1.5,1.19,1.19,0,0,0,1,1.2,9.7,9.7,0,0,0,1.7.1h4.6a5.69,5.69,0,0,0,2.6-.4,3.69,3.69,0,0,0,1-2.4"/><path class="cls-1" d="M91.6,61.23c-.5,2.4-1.3,3.9-2.3,4.7S86.4,67,83.7,67h-7l1-4.8h4.8a5.69,5.69,0,0,0,2.6-.4,4.42,4.42,0,0,0,1.1-2.4l1-4.8a7.77,7.77,0,0,0,.2-1.6,1.19,1.19,0,0,0-1-1.2,10.87,10.87,0,0,0-1.8-.1H77.7l-4.7,22H67.2l5.7-26.8H87.7a11.41,11.41,0,0,1,4.5.6A2.58,2.58,0,0,1,93.5,50a10.68,10.68,0,0,1-.3,2.5Z"/><path class="cls-1" d="M117,59.33H103.7l1-4.8h7.8c.2-.9.3-1.4.3-1.4,0-.9-.8-1.4-2.2-1.4H106a5.28,5.28,0,0,0-2.5.4,3.7,3.7,0,0,0-1.2,2.4l-1,4.8a7.77,7.77,0,0,0-.2,1.6,1.19,1.19,0,0,0,1,1.2,9.7,9.7,0,0,0,1.7.1h11.8l-1,4.8H100.7a10.93,10.93,0,0,1-4.4-.6,2.48,2.48,0,0,1-1.3-2.6,11.53,11.53,0,0,1,.3-2.6l1.9-8.8A6.62,6.62,0,0,1,99.7,48a9.24,9.24,0,0,1,5.4-1.3h8.2a11.41,11.41,0,0,1,4.5.6,2.58,2.58,0,0,1,1.3,2.5,10.68,10.68,0,0,1-.3,2.5Z"/><polygon class="cls-1" points="124.6 66.93 118.9 66.93 124.6 40.13 130.3 40.13 124.6 66.93"/><polygon class="cls-1" points="134.1 66.93 128.3 66.93 134.1 40.13 139.7 40.13 134.1 66.93"/><path class="cls-1" d="M160.8,59.33H147.5l1-4.8h7.8c.2-.9.3-1.4.3-1.4,0-.9-.7-1.4-2.2-1.4h-4.6a5.28,5.28,0,0,0-2.5.4,3.7,3.7,0,0,0-1.2,2.4l-1,4.8a7.77,7.77,0,0,0-.2,1.6,1.19,1.19,0,0,0,1,1.2,9.7,9.7,0,0,0,1.7.1h11.8l-1,4.8H144.5a10.93,10.93,0,0,1-4.4-.6,2.48,2.48,0,0,1-1.3-2.6,11.53,11.53,0,0,1,.3-2.6l1.9-8.8a6.62,6.62,0,0,1,2.5-4.4,9.24,9.24,0,0,1,5.4-1.3h8.2a11.41,11.41,0,0,1,4.5.6,2.58,2.58,0,0,1,1.3,2.5,10.68,10.68,0,0,1-.3,2.5Z"/><path class="cls-1" d="M180.8,51.63h-6.7a4.76,4.76,0,0,0-2.6.4,4.42,4.42,0,0,0-1.1,2.4l-2.7,12.5h-5.8l4.3-20.1H172l-.5,2.5a4.84,4.84,0,0,1,4.3-2.5h6Z"/><path class="cls-1" d="M40.9,31.83h-6l2.8-13.2a8.75,8.75,0,0,0,.2-1.6,1.12,1.12,0,0,0-1-1.2,5.46,5.46,0,0,0-1.8-.1H30.3a6.35,6.35,0,0,0-2.7.4,4.2,4.2,0,0,0-1.2,2.6l-2.8,13.2h-6l3-14.4c.1-.9-.2-1.4-.8-1.6a6.8,6.8,0,0,0-2-.2H12.9a6.35,6.35,0,0,0-2.7.4A4.2,4.2,0,0,0,9,18.73L6.2,31.93H.1l4.5-21.2h6l-.6,2.6a5,5,0,0,1,4.5-2.6h6.3a12.39,12.39,0,0,1,4.3.5,2.66,2.66,0,0,1,1.7,2,3.78,3.78,0,0,1,2.3-2,7.51,7.51,0,0,1,2.6-.5H38a11.45,11.45,0,0,1,4.8.7A2.56,2.56,0,0,1,44.1,14a12.41,12.41,0,0,1-.3,2.7Z"/><path class="cls-1" d="M66.3,36.43c-.5,2.5-1.3,4.1-2.4,4.9s-3,1.1-5.8,1.1H43.4l1.1-5.1H56.9a5,5,0,0,0,2.7-.5,4.72,4.72,0,0,0,1.1-2.5l4-18.7H57.5a6.35,6.35,0,0,0-2.7.4,4.2,4.2,0,0,0-1.2,2.6l-1,5.1c-.1.5-.2,1.1-.3,1.7a1.3,1.3,0,0,0,1,1.3,11.48,11.48,0,0,0,1.9.1h5.1l-1.1,5.1H51.8a12.43,12.43,0,0,1-4.7-.6,2.7,2.7,0,0,1-1.4-2.7,12.41,12.41,0,0,1,.3-2.7l2-9.2q.75-3.75,2.4-4.8c1.1-.8,3-1.1,5.9-1.1H71.8Z"/><path class="cls-1" d="M77.4,31s9.2-1.6,9.2-6.6a4.77,4.77,0,0,0-4.8-5s.7-6.8,7.2-5.6a6.22,6.22,0,0,1,5,4.6,10,10,0,0,1-1.7,8.8c-2.4,2.9-6.8,6-14.9,3.8"/><path class="cls-1" d="M71,35.53s25.3,4,30.9-12.4c0,0,1.6-7-4.3-5.9,0,0,1.4-6.6,7-5.6a7.93,7.93,0,0,1,6.4,9.2,7.14,7.14,0,0,1-1.4,3.2l-.1.2S121,20,117.8,9.83c0,0-1.1-5.6-6.3-4.7,0,0,5.9-9.9,15.4-2.2,0,0,13.3,13.1-7.7,26.9,0,0,3.8,2.5,10.2,1.3,0,.1-25.6,18.1-58.4,4.4"/></svg>