<svg id="Layer_1" data-name="Layer 1" xmlns="http://www.w3.org/2000/svg" viewBox="0 0 257.8 66.28"><defs><style>.cls-1{fill:#c1c7d0;}</style></defs><title>Artboard 16</title><path class="cls-1" d="M72.9,27.34a11.3,11.3,0,0,1,.8-4.8,7.56,7.56,0,0,1,2.3-3A8.54,8.54,0,0,1,79.7,18a27,27,0,0,1,4.9-.4h9.6a39.35,39.35,0,0,1,6.9.5,8.41,8.41,0,0,1,4,1.7,6.09,6.09,0,0,1,1.8,3.1,25.92,25.92,0,0,1,.4,4.8H99.1v-.8a2,2,0,0,0-1-2,5.57,5.57,0,0,0-2.8-.5H86.4a7.83,7.83,0,0,0-2.6.4,3.36,3.36,0,0,0-1.6,1,5.31,5.31,0,0,0-.8,1.7,16.35,16.35,0,0,0-.2,2.2v2.9a21.05,21.05,0,0,0,.2,2.5,2.93,2.93,0,0,0,.7,1.6,3.07,3.07,0,0,0,1.4.9,9.86,9.86,0,0,0,2.4.3h8.7a17.7,17.7,0,0,0,2.3-.1,3,3,0,0,0,1.5-.5,2.1,2.1,0,0,0,.8-1.1,4.57,4.57,0,0,0,.2-2h8.2v2.6a10.55,10.55,0,0,1-.4,3.1,5.79,5.79,0,0,1-1.5,2.5,6.91,6.91,0,0,1-3,1.7,14,14,0,0,1-5,.6H84.5a26.29,26.29,0,0,1-4.9-.4,8.54,8.54,0,0,1-3.7-1.5,7.56,7.56,0,0,1-2.3-3,13.09,13.09,0,0,1-.8-4.8v-7.7Z"/><path class="cls-1" d="M124.3,18h10.6l14.6,26.6h-9.1l-2.5-4.7H121.3l-2.4,4.7h-9.1Zm.2,16.1H135l-5.3-10Z"/><path class="cls-1" d="M147.8,18h31.1v6.6H167.4v20h-8.2v-20H147.8Z"/><path class="cls-1" d="M182,35.94h8.2a9.85,9.85,0,0,0,.2,1.7,1.6,1.6,0,0,0,.7.9,2.1,2.1,0,0,0,1.1.4h12.9a2,2,0,0,0,1.1-.3,1.78,1.78,0,0,0,.8-.7,2.66,2.66,0,0,0,.3-1.2,3.53,3.53,0,0,0-.3-1.4,2.13,2.13,0,0,0-1.5-.7,19.83,19.83,0,0,0-3.5-.3c-1.5,0-3.6-.1-6.2-.1-2.4,0-4.9-.1-7.3-.3a9.74,9.74,0,0,1-4.1-1.2,3.61,3.61,0,0,1-1.8-2.5,18.1,18.1,0,0,1-.4-4c0-1.1.1-2.3.2-3.4a4.59,4.59,0,0,1,1.3-2.7,6.83,6.83,0,0,1,3.2-1.8,24.58,24.58,0,0,1,6-.7h11.4a17.53,17.53,0,0,1,5.6.6,7.08,7.08,0,0,1,3.1,1.6,4.66,4.66,0,0,1,1.3,2.5,17.33,17.33,0,0,1,.3,3.2v.8h-8.2a4.87,4.87,0,0,0-.1-1.2,1.37,1.37,0,0,0-.5-.8,2.57,2.57,0,0,0-1.2-.5,16.35,16.35,0,0,0-2.2-.2h-9a4,4,0,0,0-2.2.5,1.48,1.48,0,0,0-.8,1.6,3.53,3.53,0,0,0,.3,1.4,2.09,2.09,0,0,0,1.3.7,15,15,0,0,0,2.9.3h5.2c3.2,0,5.8.1,7.8.2a13.43,13.43,0,0,1,4.8,1.1,4.4,4.4,0,0,1,2.4,2.6,14.26,14.26,0,0,1,.7,4.6,12.44,12.44,0,0,1-.6,4.3,3.88,3.88,0,0,1-2,2.5,9.34,9.34,0,0,1-4.1,1.2c-2.2.2-4.4.3-6.7.3h-9.9a38.66,38.66,0,0,1-4.8-.3,7.65,7.65,0,0,1-3.2-1.1,4.33,4.33,0,0,1-1.8-2.2,10.88,10.88,0,0,1-.6-3.6Z"/><path class="cls-1" d="M232.5,18h10.6l14.7,26.6h-9.1l-2.6-4.7H229.5l-2.4,4.7H218Zm.1,16.1H243l-5.3-10Z"/><path class="cls-1" d="M59.7,8.84c.7,1.2,1.4,2.4,2,3.6a31.41,31.41,0,0,1,3.1,13.5,26.76,26.76,0,0,1-2.2,10.8,15.21,15.21,0,0,1-3,4.6,4.18,4.18,0,0,1-1.5,1.1.52.52,0,0,1-.7-.3h0a4.52,4.52,0,0,1,.1-2c.4-2,.9-4,1.2-6a34,34,0,0,0,.2-7.8,29.12,29.12,0,0,0-4.2-12.2A29.8,29.8,0,0,0,39.1,1.84,33,33,0,0,0,22.9.44,34.35,34.35,0,0,0,8.8,6.24c.3-.2.7-.3,1-.5a32.76,32.76,0,0,1,15.5-4.5,27.11,27.11,0,0,1,12.5,2.7,15.46,15.46,0,0,1,3.9,2.8,2.35,2.35,0,0,1,.7,1.4c-.1.4-.6.5-.9.5A19.09,19.09,0,0,1,38.2,8a38.55,38.55,0,0,0-8.3-1.1,27.6,27.6,0,0,0-14.8,3.9A30.69,30.69,0,0,0,3.8,22.44,31.12,31.12,0,0,0,.1,35a34.07,34.07,0,0,0,6.3,22.5,39.72,39.72,0,0,1-2-3.5,32.62,32.62,0,0,1-3.3-13.3A25.65,25.65,0,0,1,3.9,28a13.59,13.59,0,0,1,2.7-3.6,1.91,1.91,0,0,1,1.4-.7.56.56,0,0,1,.5.6,9.08,9.08,0,0,1-.3,2.3,42.3,42.3,0,0,0-1.1,6.2,32.94,32.94,0,0,0,.1,8.3A30.11,30.11,0,0,0,11,51.64,29.05,29.05,0,0,0,18.6,60a31.52,31.52,0,0,0,20.5,6.2,34.2,34.2,0,0,0,18.5-6.5,33.25,33.25,0,0,1-6.8,3.4,31.51,31.51,0,0,1-11.8,2,25.69,25.69,0,0,1-11.1-2.8,12.49,12.49,0,0,1-3.7-2.8,1.76,1.76,0,0,1-.6-1.3c0-.3.4-.4.6-.4a10.07,10.07,0,0,1,2.5.3c2.2.5,4.5.9,6.8,1.2A28.86,28.86,0,0,0,57.8,50a30.66,30.66,0,0,0,7.9-17.4A34.25,34.25,0,0,0,59.7,8.84Zm-5.1,23.8a20.61,20.61,0,0,1-5.2,11.5,18.89,18.89,0,0,1-16.1,6.1,35.4,35.4,0,0,1-4.5-.8,8.81,8.81,0,0,0-1.7-.2c-.2,0-.4.1-.4.3a1.49,1.49,0,0,0,.4.9,7.63,7.63,0,0,0,2.5,1.8A15.76,15.76,0,0,0,36.9,54a21,21,0,0,0,7.8-1.3,23.47,23.47,0,0,0,4.5-2.2A22.53,22.53,0,0,1,37,54.84a21,21,0,0,1-13.5-4.1,20.16,20.16,0,0,1-5-5.5,19.3,19.3,0,0,1-2.6-6.9,20.27,20.27,0,0,1-.1-5.5c.2-1.4.5-2.7.8-4.1a7.72,7.72,0,0,0,.2-1.5c0-.2-.1-.4-.3-.4a1.62,1.62,0,0,0-.9.5,10.77,10.77,0,0,0-1.8,2.4,16.37,16.37,0,0,0-1.8,8.4,20.45,20.45,0,0,0,2.2,8.8c.4.8.8,1.5,1.3,2.3a22.63,22.63,0,0,1-4.2-14.9A22.19,22.19,0,0,1,13.8,26a19.58,19.58,0,0,1,7.4-7.7,18.85,18.85,0,0,1,9.8-2.5,25.9,25.9,0,0,1,5.5.7,17,17,0,0,0,2.2.4c.2,0,.6,0,.6-.3a1.19,1.19,0,0,0-.5-.9,8.32,8.32,0,0,0-2.6-1.9A16.68,16.68,0,0,0,28,12a20.89,20.89,0,0,0-10.3,3,2.09,2.09,0,0,0-.6.4,24.23,24.23,0,0,1,9.4-3.8,21.57,21.57,0,0,1,10.7.9,19.75,19.75,0,0,1,10.3,8.1,19.11,19.11,0,0,1,2.8,8.1,22.62,22.62,0,0,1-.1,5.2c-.2,1.3-.5,2.6-.8,3.9a5.7,5.7,0,0,0-.1,1.3c.1.2.3.3.4.2h0a2.29,2.29,0,0,0,1-.7,12.09,12.09,0,0,0,2-3,16.09,16.09,0,0,0,1.4-7.1,19.74,19.74,0,0,0-2.1-8.9c-.4-.8-.8-1.6-1.3-2.4A22.53,22.53,0,0,1,54.6,32.64Z"/><path class="cls-1" d="M29,20.14a12.73,12.73,0,0,1,6.4.5,11.8,11.8,0,0,1,6.1,4.9,12,12,0,0,1,1.7,4.8,10.75,10.75,0,0,1-.1,3.1,20.48,20.48,0,0,1-.5,2.4v.8a.19.19,0,0,0,.3.1h0a2.09,2.09,0,0,0,.6-.4,5.67,5.67,0,0,0,1.2-1.8,8.93,8.93,0,0,0,.8-4.3,12.42,12.42,0,0,0-1.2-5.3,6.38,6.38,0,0,0-.8-1.4,13.91,13.91,0,0,1,2.4,9.3,12.51,12.51,0,0,1-3.1,6.8,12.31,12.31,0,0,1-3.4,2.6,11.85,11.85,0,0,1-6.2,1.1,25.58,25.58,0,0,1-2.7-.5,3.4,3.4,0,0,0-1-.1c-.1,0-.2,0-.2.2a.76.76,0,0,0,.2.5,5.83,5.83,0,0,0,1.5,1.1,9.56,9.56,0,0,0,4.4,1.1,12.06,12.06,0,0,0,4.6-.8c.9-.4,1.8-.8,2.7-1.3A13.63,13.63,0,0,1,35.4,46a13.09,13.09,0,0,1-8.1-2.4,11.84,11.84,0,0,1-3-3.3,10.74,10.74,0,0,1-1.5-4.1,9.15,9.15,0,0,1,0-3.3,20.48,20.48,0,0,1,.5-2.4,2.77,2.77,0,0,0,.1-.9.22.22,0,0,0-.2-.2.55.55,0,0,0-.5.3,7.1,7.1,0,0,0-1,1.4,9.65,9.65,0,0,0-1.1,5,11.77,11.77,0,0,0,1.3,5.2,10,10,0,0,0,.8,1.4,14,14,0,0,1-2.5-8.9,10.81,10.81,0,0,1,1.5-5,12.15,12.15,0,0,1,4.4-4.6,11.94,11.94,0,0,1,5.8-1.5,18.59,18.59,0,0,1,3.3.4,5.85,5.85,0,0,0,1.3.2.4.4,0,0,0,.4-.2.55.55,0,0,0-.3-.5,5,5,0,0,0-1.7-1.1,9.22,9.22,0,0,0-4.9-1,12.77,12.77,0,0,0-6.1,1.8c-.1.1-.2.1-.4.2A11.35,11.35,0,0,1,29,20.14Z"/><path class="cls-1" d="M76.6,58.24h.8a4.28,4.28,0,0,1-.6,2.2,1.81,1.81,0,0,1-1.7.7,1.85,1.85,0,0,1-1.7-.9,7.17,7.17,0,0,1-.6-2.9,5.25,5.25,0,0,1,.6-3,1.83,1.83,0,0,1,1.8-.9,2.27,2.27,0,0,1,1.6.6,2.72,2.72,0,0,1,.6,1.7v.1h-.8a1.92,1.92,0,0,0-.4-1.2,1,1,0,0,0-1-.4,1.23,1.23,0,0,0-1.1.7,5,5,0,0,0-.3,2.4,9.86,9.86,0,0,0,.3,2.4,1.23,1.23,0,0,0,2.1.2,2,2,0,0,0,.3-1.5Z"/><path class="cls-1" d="M78.5,57.24a5.25,5.25,0,0,1,.6-3,2.25,2.25,0,0,1,3.2-.4c.2.1.3.3.4.4a8.83,8.83,0,0,1,0,6,2.14,2.14,0,0,1-1.8.9,1.92,1.92,0,0,1-1.8-.9A5.25,5.25,0,0,1,78.5,57.24Zm.9,0a7.15,7.15,0,0,0,.3,2.5,1.39,1.39,0,0,0,1.2.7,1.21,1.21,0,0,0,1.2-.7,8.52,8.52,0,0,0,0-5,1.39,1.39,0,0,0-1.2-.7,1.21,1.21,0,0,0-1.2.7A5.39,5.39,0,0,0,79.4,57.24Z"/><path class="cls-1" d="M84.5,60.94v-7.4h1.1l2.6,6.4-.1-6.4h.8v7.4H87.8l-2.6-6.6.1,6.6Z"/><path class="cls-1" d="M93.7,58.24h.8a4.28,4.28,0,0,1-.6,2.2,1.81,1.81,0,0,1-1.7.7,1.85,1.85,0,0,1-1.7-.9,7.17,7.17,0,0,1-.6-2.9,6.15,6.15,0,0,1,.5-3,1.92,1.92,0,0,1,1.8-.9,2.27,2.27,0,0,1,1.6.6,2.72,2.72,0,0,1,.6,1.7v.1h-.8a2.66,2.66,0,0,0-.3-1.2,1,1,0,0,0-1-.4,1.23,1.23,0,0,0-1.1.7,5,5,0,0,0-.3,2.4,6.61,6.61,0,0,0,.3,2.4,1.23,1.23,0,0,0,2.1.2,2.06,2.06,0,0,0,.3-1.5Z"/><path class="cls-1" d="M95.8,60.94v-7.4h2a2.62,2.62,0,0,1,1.7.5,2,2,0,0,1,.6,1.4,2.66,2.66,0,0,1-.3,1.2,2.07,2.07,0,0,1-1,.6,1.49,1.49,0,0,1,.9.4,2.1,2.1,0,0,1,.4,1.1,2.81,2.81,0,0,0,.1.8,2.23,2.23,0,0,0,.4,1.5h-1a5,5,0,0,1-.2-1.2V59a1.23,1.23,0,0,0-.5-1,2.66,2.66,0,0,0-1.2-.3h-1V61h-.9Zm.8-4h1a2.77,2.77,0,0,0,1.3-.3,1.43,1.43,0,0,0,.4-1,1.28,1.28,0,0,0-.4-1,2.13,2.13,0,0,0-1.2-.3H96.5Z"/><path class="cls-1" d="M101.5,60.94v-7.4h3.7v.8h-2.9v2.4H105v.8h-2.7v2.7h2.9V61h-3.7Z"/><path class="cls-1" d="M107.7,60.94v-6.7h-1.9v-.8h4.5v.8h-1.8v6.7Z"/><path class="cls-1" d="M111,57.24a5.25,5.25,0,0,1,.6-3,2.25,2.25,0,0,1,3.2-.4c.2.1.3.3.4.4a7.65,7.65,0,0,1,.6,3,5.25,5.25,0,0,1-.6,3,2.25,2.25,0,0,1-3.2.4c-.2-.1-.3-.3-.4-.4A5.25,5.25,0,0,1,111,57.24Zm.9,0a7.15,7.15,0,0,0,.3,2.5,1.39,1.39,0,0,0,1.2.7,1.21,1.21,0,0,0,1.2-.7,8.52,8.52,0,0,0,0-5,1.39,1.39,0,0,0-1.2-.7,1.21,1.21,0,0,0-1.2.7A5.39,5.39,0,0,0,111.9,57.24Z"/><path class="cls-1" d="M116.8,58.64h.8v.3A1.5,1.5,0,0,0,118,60a1.45,1.45,0,0,0,2,0,1.78,1.78,0,0,0,.4-1,1.88,1.88,0,0,0-.2-.8,2.07,2.07,0,0,0-1-.6l-.5-.2a5.36,5.36,0,0,1-1.1-.5,1.79,1.79,0,0,1-.5-.7,1.41,1.41,0,0,1-.1-.9,2.46,2.46,0,0,1,.5-1.5,1.65,1.65,0,0,1,1.5-.5,2.39,2.39,0,0,1,1.4.5,1.55,1.55,0,0,1,.5,1.4v.2h-.8v-.1a1.69,1.69,0,0,0-.3-1,.92.92,0,0,0-.9-.3,1.06,1.06,0,0,0-1.2,1.2,1.88,1.88,0,0,0,.2.8,2.07,2.07,0,0,0,1,.6l.3.1c.5.2,1,.4,1.4.6a2.09,2.09,0,0,1,.4.6,2.77,2.77,0,0,1,.1.9,2.26,2.26,0,0,1-3.8,1.6,2.16,2.16,0,0,1-.5-1.7v-.1Z"/><path class="cls-1" d="M124.7,60.94v-7.4h2.1a2.36,2.36,0,0,1,1.9.8,4,4,0,0,1,.6,2.6,14.92,14.92,0,0,1-.2,2.1,3.1,3.1,0,0,1-.6,1.3,1.79,1.79,0,0,1-.7.5,2.08,2.08,0,0,1-1.1.1Zm.8-.7h1.1a2.2,2.2,0,0,0,.8-.1,1.38,1.38,0,0,0,.4-.3,3,3,0,0,0,.4-1,8.6,8.6,0,0,0,.1-1.6,5.07,5.07,0,0,0-.4-2.4,1.54,1.54,0,0,0-1.4-.6h-1Z"/><path class="cls-1" d="M130.5,60.94v-7.4h3.7v.8h-2.9v2.4H134v.8h-2.7v2.7h2.9V61h-3.7Z"/><path class="cls-1" d="M137.2,60.94l2-7.4h1.1l2.1,7.4h-.8l-.6-2.1h-2.4l-.5,2.1Zm1.6-2.9h2l-1-3.9Z"/><path class="cls-1" d="M143.2,60.94v-7.4h.8v6.6h3v.8Z"/><path class="cls-1" d="M148.6,60.94v-6.7h-1.9v-.8h4.5v.8h-1.8v6.7Z"/><path class="cls-1" d="M150.9,60.94l2-7.4h1l2.1,7.4h-.8l-.6-2.1h-2.3l-.5,2.1Zm1.6-2.9h2l-1-3.9Z"/><path class="cls-1" d="M160.7,60.94v-6.7h-1.9v-.8h4.5v.8h-1.8v6.7Z"/><path class="cls-1" d="M164.1,60.94v-7.4h3.7v.8h-2.9v2.4h2.7v.8h-2.7v2.7h2.9V61h-3.7Z"/><path class="cls-1" d="M172.5,58.24h.8a4.28,4.28,0,0,1-.6,2.2,1.73,1.73,0,0,1-1.6.7,1.85,1.85,0,0,1-1.7-.9,7.17,7.17,0,0,1-.6-2.9,6.15,6.15,0,0,1,.5-3,1.92,1.92,0,0,1,1.8-.9,2.27,2.27,0,0,1,1.6.6,2.72,2.72,0,0,1,.6,1.7v.1h-.8a1.92,1.92,0,0,0-.4-1.2,1,1,0,0,0-1-.4,1.23,1.23,0,0,0-1.1.7,5,5,0,0,0-.3,2.4,6.61,6.61,0,0,0,.3,2.4,1.23,1.23,0,0,0,2.1.2,2.06,2.06,0,0,0,.3-1.5Z"/><path class="cls-1" d="M174.6,60.94v-7.4h1.1l2.6,6.4-.1-6.4h.8v7.4h-1.1l-2.6-6.6.1,6.6Z"/><path class="cls-1" d="M180.1,57.24a5.25,5.25,0,0,1,.6-3,2.25,2.25,0,0,1,3.2-.4c.2.1.3.3.4.4a8.83,8.83,0,0,1,0,6,2.25,2.25,0,0,1-3.2.4c-.2-.1-.3-.3-.4-.4A6.21,6.21,0,0,1,180.1,57.24Zm.9,0a7.15,7.15,0,0,0,.3,2.5,1.39,1.39,0,0,0,1.2.7,1.21,1.21,0,0,0,1.2-.7,10.57,10.57,0,0,0,0-5,1.39,1.39,0,0,0-1.2-.7,1.21,1.21,0,0,0-1.2.7A5.39,5.39,0,0,0,181,57.24Z"/><path class="cls-1" d="M186.1,60.94v-7.4h.8v6.6h3v.8Z"/><path class="cls-1" d="M190.4,57.24a5.25,5.25,0,0,1,.6-3,2.25,2.25,0,0,1,3.2-.4c.2.1.3.3.4.4a8.83,8.83,0,0,1,0,6,2.25,2.25,0,0,1-3.2.4c-.2-.1-.3-.3-.4-.4A5.25,5.25,0,0,1,190.4,57.24Zm.8,0a7.15,7.15,0,0,0,.3,2.5,1.39,1.39,0,0,0,1.2.7,1.21,1.21,0,0,0,1.2-.7,10.57,10.57,0,0,0,0-5,1.39,1.39,0,0,0-1.2-.7,1.21,1.21,0,0,0-1.2.7A10.68,10.68,0,0,0,191.2,57.24Z"/><path class="cls-1" d="M200.3,60.94l-.1-1a1.46,1.46,0,0,1-.6.9,2.14,2.14,0,0,1-2.9-.7,7.65,7.65,0,0,1-.6-3,4.92,4.92,0,0,1,.6-2.9,2.08,2.08,0,0,1,1.9-.9,2.27,2.27,0,0,1,1.6.6,2.72,2.72,0,0,1,.6,1.7H200a1.92,1.92,0,0,0-.4-1.2,1.28,1.28,0,0,0-1-.4,1.3,1.3,0,0,0-1.2.8,7.46,7.46,0,0,0-.4,2.6,5.38,5.38,0,0,0,.4,2.2,1.21,1.21,0,0,0,1.2.7,1.25,1.25,0,0,0,1.1-.6,3.17,3.17,0,0,0,.4-1.6v-.3h-1.7V57h2.5v3.9Z"/><path class="cls-1" d="M202,52.84l.8-1.3h.9l-1.2,1.3Zm.2,8.1v-7.4h.9v7.4Z"/><path class="cls-1" d="M203.8,60.94l2-7.4h1.1l2,7.4h-.8l-.6-2.1h-2.4l-.5,2.1Zm1.6-2.9h2l-1-3.9Z"/><path class="cls-1" d="M212.1,58.64h.8v.3a1.5,1.5,0,0,0,.4,1.1,1.45,1.45,0,0,0,2,0,1.78,1.78,0,0,0,.4-1,1.88,1.88,0,0,0-.2-.8,2.07,2.07,0,0,0-1-.6l-.5-.2a5.36,5.36,0,0,1-1.1-.5,1.79,1.79,0,0,1-.5-.7,1.41,1.41,0,0,1-.1-.9,2.46,2.46,0,0,1,.5-1.5,1.65,1.65,0,0,1,1.5-.5,2.39,2.39,0,0,1,1.4.5,1.55,1.55,0,0,1,.5,1.4v.2h-.8v-.1a1.69,1.69,0,0,0-.3-1,.92.92,0,0,0-.9-.3,1.06,1.06,0,0,0-1.2,1.2,1.88,1.88,0,0,0,.2.8,2.07,2.07,0,0,0,1,.6l.3.1c.5.2,1,.4,1.4.6a2.09,2.09,0,0,1,.4.6,2.77,2.77,0,0,1,.1.9,2.26,2.26,0,0,1-3.8,1.6,2.16,2.16,0,0,1-.5-1.7v-.1Z"/><path class="cls-1" d="M217.7,60.94v-1h.9v1Z"/><path class="cls-1" d="M219.5,60.94l2-7.4h1.1l2.1,7.4h-.9l-.6-2.1h-2.4l-.5,2.1Zm1.6-2.9h2l-1-3.9Z"/><path class="cls-1" d="M226.3,60.94v-1h.9v1Z"/><path class="cls-1" d="M231.1,60.94v-7.4h2.1a2.36,2.36,0,0,1,1.9.8,4,4,0,0,1,.6,2.6,14.92,14.92,0,0,1-.2,2.1,3.1,3.1,0,0,1-.6,1.3,1.79,1.79,0,0,1-.7.5,2.08,2.08,0,0,1-1.1.1Zm.8-.7H233a2.2,2.2,0,0,0,.8-.1c.2-.1.3-.2.5-.3a3,3,0,0,0,.4-1,8.6,8.6,0,0,0,.1-1.6,5.07,5.07,0,0,0-.4-2.4,1.54,1.54,0,0,0-1.4-.6h-1Z"/><path class="cls-1" d="M236.8,60.94v-7.4h3.7v.8h-2.9v2.4h2.7v.8h-2.7v2.7h2.9V61h-3.7Z"/><path class="cls-1" d="M247.6,58.24h.8a4.28,4.28,0,0,1-.6,2.2,1.73,1.73,0,0,1-1.6.7,1.85,1.85,0,0,1-1.7-.9,8.55,8.55,0,0,1,0-5.9,1.92,1.92,0,0,1,1.8-.9,2.27,2.27,0,0,1,1.6.6,2.16,2.16,0,0,1,.5,1.7v.1h-.8a1.92,1.92,0,0,0-.4-1.2,1,1,0,0,0-1-.4,1.23,1.23,0,0,0-1.1.7,5,5,0,0,0-.3,2.4,6.72,6.72,0,0,0,.4,2.4,1.23,1.23,0,0,0,2.1.2,2.7,2.7,0,0,0,.3-1.5Z"/><path class="cls-1" d="M249.8,60.94v-1h.9v1Z"/><path class="cls-1" d="M253.6,60.94l-2.1-7.4h.9l1.7,6.4,1.7-6.4h.8l-2,7.4Z"/><path class="cls-1" d="M256.7,60.94v-1h.9v1Z"/></svg>