<svg id="Layer_1" data-name="Layer 1" xmlns="http://www.w3.org/2000/svg" viewBox="0 0 259.41 61.9"><defs><style>.cls-1{fill:#c1c7d0;}</style></defs><title>Artboard 5</title><path class="cls-1" d="M15.91,0,10,31H3.41L9.31,0Z"/><path class="cls-1" d="M15.91,30.9l2.9-15.2c.5-2.8.9-5.3,1.2-7.3h5.8l-.4,3.7h.1a9.59,9.59,0,0,1,7.9-4.2c3.7,0,5.8,2.2,5.8,6.1a24.5,24.5,0,0,1-.4,3.8l-2.5,13h-6.6L32,18.3a19.48,19.48,0,0,0,.2-2.5c0-1.6-.5-2.7-2.2-2.7-2.2,0-4.6,2.7-5.6,7.7l-1.8,10Z"/><path class="cls-1" d="M54.41,2.4l-1.1,6.1h4.8l-1,5h-4.8l-1.5,7.6a27,27,0,0,0-.4,2.8,1.69,1.69,0,0,0,1.9,1.9,10.87,10.87,0,0,0,1.8-.1l-.7,5.2a13.06,13.06,0,0,1-3.9.5c-4,0-5.9-2-5.9-4.9a18.41,18.41,0,0,1,.5-4.1l1.7-8.9h-2.9l.9-5h2.9l.8-4.2Z"/><path class="cls-1" d="M76.31,29.6a20.13,20.13,0,0,1-8.4,1.8c-6.4,0-9.7-3.6-9.7-9.5,0-6.8,5-14,13.1-14,4.5,0,7.8,2.6,7.8,6.8,0,5.7-5.6,7.8-14.6,7.5a4.76,4.76,0,0,0,.7,2.3,5.38,5.38,0,0,0,4.3,1.7,15.23,15.23,0,0,0,6.3-1.4Zm-3.4-14.9c0-1.1-.9-1.9-2.4-1.9-3.1,0-4.8,2.6-5.3,4.6,5.1.1,7.7-.6,7.7-2.7Z"/><path class="cls-1" d="M81.91,34a13.28,13.28,0,0,0,5.9,1.2c3.3,0,5.7-1.5,6.7-6l.4-1.9h-.1a7.49,7.49,0,0,1-6.4,3.3c-4.5,0-7.2-3.6-7.2-8,0-7.4,5.3-14.8,15.1-14.8a21.51,21.51,0,0,1,8.3,1.6l-3.4,18.5c-.8,4.1-2.1,7.8-4.7,10-2.4,1.9-5.7,2.5-8.7,2.5a17.4,17.4,0,0,1-7.4-1.4Zm15.5-20.6A6.72,6.72,0,0,0,95,13c-4,0-6.8,4.4-6.8,8.7,0,2.3,1,4,3,4s4.3-2.4,5-6.2Z"/><path class="cls-1" d="M106.11,30.9l2.5-13.4c.6-3.4.9-7.2,1.1-9.1h5.7c-.1,1.5-.2,3-.4,4.6h.1c1.6-3,4.1-5.1,7.2-5.1h1.2l-1.3,6.5h-1.1c-4.2,0-6.2,3.7-7,8.1l-1.6,8.4Z"/><path class="cls-1" d="M137.31,30.9c0-1.3.2-2.8.3-4.5h-.1c-2.1,3.7-4.9,5-7.5,5-4,0-6.8-3.1-6.8-7.8,0-7.6,5-15.7,16.1-15.7a26.52,26.52,0,0,1,7.4,1.1l-2.4,11.8a56.62,56.62,0,0,0-.9,10.1Zm2-17.8a11,11,0,0,0-1.8-.2c-4.2,0-7.3,5.2-7.3,9.4,0,2.2.9,3.7,2.7,3.7s4.4-2.2,5.4-7.8Z"/><path class="cls-1" d="M149.21,30.9l3.1-16.1c.4-2.2.7-4.2.9-5.9h1.9l-.7,4.5h.1c2.1-3.2,4.9-5,7.9-5,3.3,0,5,2.1,5.1,5.4,2-3.4,4.8-5.3,8.4-5.4,2,0,5.3,1.3,5.3,5.7a15.53,15.53,0,0,1-.4,3.7l-2.5,13.1h-2.1l2.5-13.1a15.26,15.26,0,0,0,.3-3c0-2.9-1-4.6-4-4.6s-7.1,3.4-8,8.6L164.71,31h-2.1l2.6-13.5a13.33,13.33,0,0,0,.3-2.8c0-2.1-.5-4.5-4.1-4.5-3.1,0-7.3,4-8.1,8.9l-2,11.8Z"/><path class="cls-1" d="M200,29.6a12.94,12.94,0,0,1-6.7,1.8c-5.6,0-7.7-4.3-7.7-8.6,0-6.6,5-14.4,11.6-14.4,4,0,5.7,2.5,5.7,5,0,5.9-7.2,7.1-14.9,7a12.27,12.27,0,0,0,.3,5.4,5.41,5.41,0,0,0,5.4,3.8,10.8,10.8,0,0,0,5.8-1.6Zm.8-16.1c0-2.2-1.7-3.4-4-3.4-4,0-7.3,4.1-8.5,8.5,6.4.1,12.4-.7,12.5-5.1Z"/><path class="cls-1" d="M205.11,30.9l3-16.1c.5-2.2.7-4.2,1-5.9H211l-.7,4.7h.1a10,10,0,0,1,8.5-5.2c2,0,5.5,1,5.5,6.1A20.85,20.85,0,0,1,224,18l-2.4,12.9h-2.1L222,17.8a15.26,15.26,0,0,0,.3-3c0-2.6-1-4.6-4.2-4.6s-7.8,3.6-8.9,9.4l-2.1,11.3Z"/><path class="cls-1" d="M236.81,4l-.9,4.9h5.6l-.3,1.7h-5.7l-2.4,12.7a27.33,27.33,0,0,0-.5,4,2,2,0,0,0,1.7,2.3h.5a5.54,5.54,0,0,0,1.8-.2l.2,1.7a6.72,6.72,0,0,1-2.4.4,3.69,3.69,0,0,1-4-3.3v-.7a20.07,20.07,0,0,1,.5-4.2l2.4-12.6H230l.3-1.7h3.4l.7-4Z"/><path class="cls-1" d="M256.51,29.6a13.2,13.2,0,0,1-6.7,1.8c-5.6,0-7.7-4.3-7.7-8.6,0-6.6,5-14.4,11.6-14.4,4,0,5.7,2.5,5.7,5,0,5.9-7.2,7.1-14.9,7a12.27,12.27,0,0,0,.3,5.4,5.41,5.41,0,0,0,5.4,3.8A11,11,0,0,0,256,28Zm.8-16.1c0-2.2-1.7-3.4-4-3.4-4,0-7.3,4.1-8.5,8.5,6.5.1,12.5-.7,12.5-5.1Z"/><path class="cls-1" d="M9.21,56.9a8.89,8.89,0,0,1-3.6.7c-3.5,0-5.6-2.2-5.6-5.7a8.65,8.65,0,0,1,2.9-6.7,7.68,7.68,0,0,1,5.2-1.8,5.32,5.32,0,0,1,3,.7l-.5,1.4a6.26,6.26,0,0,0-2.7-.6A5.9,5.9,0,0,0,4,46.4a7,7,0,0,0-2.1,5.3c0,2.4,1.1,4.5,4.2,4.5A7.17,7.17,0,0,0,9,55.6Z"/><path class="cls-1" d="M17.91,56.8a7.31,7.31,0,0,1-3.3.8c-2.6,0-3.8-1.8-3.8-4,0-3,2.2-6.4,5.4-6.4,1.9,0,2.9,1.1,2.9,2.6,0,2.6-2.9,3.3-6.6,3.2a4.13,4.13,0,0,0,.2,1.9,2.16,2.16,0,0,0,2.2,1.3,5.44,5.44,0,0,0,2.7-.7Zm-.3-7c0-.8-.6-1.2-1.5-1.2-1.6,0-2.8,1.6-3.2,3.1,2.6,0,4.7-.3,4.7-1.9Z"/><path class="cls-1" d="M20.11,57.4l1.3-7c.2-1.1.4-2.1.5-2.9h1.5l-.3,2h0a4.71,4.71,0,0,1,3.7-2.2,2.37,2.37,0,0,1,2.5,2.3V50a8.75,8.75,0,0,1-.2,1.6L28,57.4h-1.7l1.1-5.8a5.28,5.28,0,0,0,.1-1.3c0-1-.4-1.7-1.5-1.7s-2.9,1.5-3.4,3.9l-.9,4.8Z"/><path class="cls-1" d="M35.41,45.1l-.5,2.4h2.4L37,48.8h-2.4l-.9,4.8a7.77,7.77,0,0,0-.2,1.6.82.82,0,0,0,.7,1h.3a2.2,2.2,0,0,0,.8-.1l-.1,1.3a5.85,5.85,0,0,1-1.3.2,2,2,0,0,1-2.1-1.6v-.4a11,11,0,0,1,.2-1.8l1-5h-1.4l.2-1.3h1.4l.4-1.8Z"/><path class="cls-1" d="M37.41,57.4l1.2-6.4c.2-1.3.4-2.6.5-3.5h1.5c-.1.7-.2,1.4-.3,2.2h.1a3.73,3.73,0,0,1,3-2.4h.5l-.3,1.7h-.5c-1.5,0-2.8,1.8-3.2,4.1l-.8,4.4Z"/><path class="cls-1" d="M47.81,57.6a3.8,3.8,0,0,1-3.9-3.7v-.4c0-3.3,2.3-6.3,5.5-6.3,2.7,0,3.9,2,3.9,4.1,0,3.2-2.2,6.3-5.5,6.3Zm.2-1.3c2,0,3.5-2.6,3.5-4.9,0-1.2-.5-2.8-2.3-2.8-2.1,0-3.5,2.6-3.5,4.9A2.36,2.36,0,0,0,48,56.3Z"/><path class="cls-1" d="M68.71,42.9l-2.2,11.4a31.06,31.06,0,0,0-.4,3.2h-1.5l.3-2h0a4.39,4.39,0,0,1-3.6,2.2c-1.9,0-3-1.6-3-3.6,0-3.5,2.6-6.7,6.1-6.7a5.66,5.66,0,0,1,1.8.3l.9-4.8ZM65.81,49a2.28,2.28,0,0,0-1.6-.4c-2.4,0-4.2,2.5-4.2,5.2,0,1.2.4,2.4,1.9,2.4,1.3,0,2.9-1.5,3.3-3.7Z"/><path class="cls-1" d="M76,56.8a7.31,7.31,0,0,1-3.3.8c-2.6,0-3.8-1.8-3.8-4,0-3,2.2-6.4,5.4-6.4,1.9,0,2.9,1.1,2.9,2.6,0,2.6-2.9,3.3-6.6,3.2a4.13,4.13,0,0,0,.2,1.9A2.16,2.16,0,0,0,73,56.2a5.44,5.44,0,0,0,2.7-.7Zm-.4-7c0-.8-.6-1.2-1.5-1.2-1.6,0-2.8,1.6-3.2,3.1,2.6,0,4.7-.3,4.7-1.9Z"/><path class="cls-1" d="M84.51,43.8a15.26,15.26,0,0,1,3-.3,4.81,4.81,0,0,1,3.4,1.1,3.17,3.17,0,0,1,1,2.5,4.6,4.6,0,0,1-1.7,3.6A6.37,6.37,0,0,1,86,52a6.6,6.6,0,0,1-1.4-.1l-1,5.5h-1.7Zm.4,6.6a6.6,6.6,0,0,0,1.4.1c2.3,0,3.9-1.4,3.9-3.4,0-1.6-1.2-2.3-2.7-2.3a7.57,7.57,0,0,0-1.5.1Z"/><path class="cls-1" d="M92.11,55.7a3.94,3.94,0,0,0,2.1.6,1.77,1.77,0,0,0,1.9-1.5v-.1c0-.8-.4-1.2-1.4-1.8a3,3,0,0,1-1.8-2.5,3.32,3.32,0,0,1,3.6-3.1,4.55,4.55,0,0,1,2,.5L98,49.1a3.37,3.37,0,0,0-1.7-.5,1.59,1.59,0,0,0-1.8,1.4v.1c0,.7.5,1.2,1.4,1.7a3.28,3.28,0,0,1,1.8,2.6c0,2.1-1.7,3.2-3.8,3.2a4.51,4.51,0,0,1-2.5-.7Z"/><path class="cls-1" d="M99.61,57.4l1.9-9.9h1.7l-1.9,9.9Zm3.2-11.6a.94.94,0,0,1-1-1v-.1a1.11,1.11,0,0,1,1.1-1.1.94.94,0,0,1,1,1v.1a1.11,1.11,0,0,1-1.1,1.1Z"/><path class="cls-1" d="M111.11,57a7.17,7.17,0,0,1-2.9.6,3.51,3.51,0,0,1-3.8-3.3v-.6a6.28,6.28,0,0,1,6.1-6.5,4.06,4.06,0,0,1,2.1.5l-.5,1.3a3.29,3.29,0,0,0-1.7-.4c-2.6,0-4.2,2.5-4.2,4.9a2.23,2.23,0,0,0,2,2.6h.5a4.65,4.65,0,0,0,2.3-.6Z"/><path class="cls-1" d="M116.81,57.6a3.8,3.8,0,0,1-3.9-3.7v-.4c0-3.3,2.3-6.3,5.5-6.3,2.7,0,3.9,2,3.9,4.1,0,3.2-2.2,6.3-5.5,6.3Zm.2-1.3c2,0,3.5-2.6,3.5-4.9,0-1.2-.5-2.8-2.3-2.8-2.1,0-3.5,2.6-3.5,4.9,0,1.6.8,2.8,2.3,2.8Z"/><path class="cls-1" d="M123.41,57.4l2.8-14.5h1.7l-2.8,14.5Z"/><path class="cls-1" d="M132.11,57.6a3.8,3.8,0,0,1-3.9-3.7v-.4c0-3.3,2.3-6.3,5.5-6.3,2.7,0,3.9,2,3.9,4.1,0,3.2-2.2,6.3-5.5,6.3Zm.2-1.3c2,0,3.5-2.6,3.5-4.9,0-1.2-.5-2.8-2.3-2.8-2.1,0-3.5,2.6-3.5,4.9,0,1.6.9,2.8,2.3,2.8Z"/><path class="cls-1" d="M138.91,59.6a5.94,5.94,0,0,0,2.6.7c1.7,0,3-.8,3.6-3.5l.3-1.5h0a3.89,3.89,0,0,1-3.4,2.1c-2,0-3-1.7-3-3.4a6.54,6.54,0,0,1,6.2-6.7h.1a8.76,8.76,0,0,1,3.2.7L147,56.2a7.54,7.54,0,0,1-2,4.4,4.91,4.91,0,0,1-3.5,1.1,6.3,6.3,0,0,1-3-.7Zm7.6-10.6a3,3,0,0,0-1.6-.3c-2.5,0-4.2,2.6-4.2,5,0,1.1.4,2.4,1.9,2.4s2.9-1.8,3.3-3.8Z"/><path class="cls-1" d="M149.51,57.4l1.9-9.9h1.7l-1.9,9.9Zm6-14-2.7,2.9h-1.3l2-2.9Z"/><path class="cls-1" d="M160.71,57.4c0-.6.1-1.5.2-2.6h0c-1.1,2.1-2.5,2.8-3.8,2.8-1.8,0-2.8-1.4-2.8-3.3a6.92,6.92,0,0,1,6.7-7.1h.1a8.42,8.42,0,0,1,2.7.4l-1,5.2a23.16,23.16,0,0,0-.4,4.6Zm1.1-8.6a2.46,2.46,0,0,0-1.2-.1c-2.5,0-4.7,2.7-4.7,5.4,0,1.1.4,2.2,1.7,2.2s3.1-1.8,3.6-4.5Z"/><path class="cls-1" d="M170.71,47.5l1,5.3c.2,1.1.3,1.9.5,2.6h0c.3-.6.5-1.3,1.1-2.4l2.5-5.5h1.8l-3.7,7.5a20.31,20.31,0,0,1-3.4,5.2,6.57,6.57,0,0,1-2.9,1.7l-.4-1.5a5.08,5.08,0,0,0,1.8-.9,7.1,7.1,0,0,0,1.9-2.3.3.3,0,0,0,0-.4l-2-9.3Z"/><path class="cls-1" d="M183.91,43.8a15.26,15.26,0,0,1,3-.3,4.62,4.62,0,0,1,3.2.9,2.81,2.81,0,0,1,1,2.1,3.82,3.82,0,0,1-3,3.5h0a3,3,0,0,1,2.2,3.1,3.89,3.89,0,0,1-1.6,3.2,7.74,7.74,0,0,1-4.5,1.1,24.58,24.58,0,0,1-2.8-.2Zm-.6,12.2a6.6,6.6,0,0,0,1.4.1c2,0,3.9-.8,3.9-3,0-1.6-1.4-2.3-2.9-2.3h-1.4Zm1.2-6.5h1.3c2,0,3.5-1,3.5-2.7,0-1.3-1-1.9-2.5-1.9a6.6,6.6,0,0,0-1.4.1Z"/><path class="cls-1" d="M191.91,57.4l1.9-9.9h1.7l-1.9,9.9ZM195,45.8a.94.94,0,0,1-1-1v-.1a1.11,1.11,0,0,1,1.1-1.1.94.94,0,0,1,1,1v.1a1,1,0,0,1-1.1,1.1Z"/><path class="cls-1" d="M203.71,56.8a7.31,7.31,0,0,1-3.3.8c-2.6,0-3.8-1.8-3.8-4,0-3,2.2-6.4,5.4-6.4,1.9,0,2.9,1.1,2.9,2.6,0,2.6-2.9,3.3-6.6,3.2a4.13,4.13,0,0,0,.2,1.9,2.16,2.16,0,0,0,2.2,1.3,5.44,5.44,0,0,0,2.7-.7Zm-.4-7c0-.8-.6-1.2-1.5-1.2-1.6,0-2.8,1.6-3.2,3.1,2.6,0,4.7-.3,4.7-1.9Z"/><path class="cls-1" d="M205.81,57.4l1.3-7c.2-1.1.4-2.1.5-2.9h1.5l-.3,2h0a4.71,4.71,0,0,1,3.7-2.2,2.37,2.37,0,0,1,2.5,2.3V50a8.75,8.75,0,0,1-.2,1.6l-1.1,5.8H212l1.1-5.8a5.7,5.7,0,0,0,.1-1.3c0-1-.4-1.7-1.6-1.7s-2.9,1.5-3.4,3.9l-.9,4.8h-1.5Z"/><path class="cls-1" d="M223.81,56.8a7.31,7.31,0,0,1-3.3.8c-2.6,0-3.8-1.8-3.8-4,0-3,2.2-6.4,5.4-6.4,1.9,0,2.9,1.1,2.9,2.6,0,2.6-2.9,3.3-6.6,3.2a4.13,4.13,0,0,0,.2,1.9,2.16,2.16,0,0,0,2.2,1.3,5.44,5.44,0,0,0,2.7-.7Zm-.3-7c0-.8-.6-1.2-1.5-1.2-1.6,0-2.8,1.6-3.2,3.1,2.6,0,4.7-.3,4.7-1.9Z"/><path class="cls-1" d="M226.11,55.7a3.94,3.94,0,0,0,2.1.6,1.77,1.77,0,0,0,1.9-1.5v-.1c0-.8-.3-1.2-1.4-1.8a3,3,0,0,1-1.8-2.5,3.32,3.32,0,0,1,3.6-3.1,4.55,4.55,0,0,1,2,.5l-.5,1.3a3.37,3.37,0,0,0-1.7-.5,1.59,1.59,0,0,0-1.8,1.4v.1c0,.7.5,1.2,1.4,1.7a3.08,3.08,0,0,1,1.8,2.6c0,2.1-1.7,3.2-3.8,3.2a4.51,4.51,0,0,1-2.5-.7Z"/><path class="cls-1" d="M238,45.1l-.5,2.4h2.4l-.3,1.3h-2.3l-.9,4.8a7.77,7.77,0,0,0-.2,1.6.82.82,0,0,0,.7,1h.3a2.2,2.2,0,0,0,.8-.1l-.1,1.3a5.85,5.85,0,0,1-1.3.2,1.76,1.76,0,0,1-2.1-1.5v-.4a11,11,0,0,1,.2-1.8l1-5h-1.4l.2-1.3h1.4l.3-1.8Z"/><path class="cls-1" d="M246.51,57.4a22.75,22.75,0,0,1,.2-2.6h0c-1.1,2.1-2.5,2.8-3.8,2.8-1.8,0-2.8-1.4-2.8-3.3a6.92,6.92,0,0,1,6.7-7.1h.1a8.42,8.42,0,0,1,2.7.4l-1,5.2a23.16,23.16,0,0,0-.4,4.6Zm1.1-8.6a2.46,2.46,0,0,0-1.2-.1c-2.6,0-4.7,2.7-4.7,5.4,0,1.1.4,2.2,1.7,2.2s3.1-1.8,3.6-4.5Z"/><path class="cls-1" d="M250.61,57.4l1.2-6.4c.2-1.3.4-2.6.5-3.5h1.5c-.1.7-.2,1.4-.3,2.2h.1a3.73,3.73,0,0,1,3-2.4h.5l-.3,1.7h-.5c-1.5,0-2.8,1.8-3.2,4.1l-.8,4.4Z"/></svg>