<svg id="Layer_1" data-name="Layer 1" xmlns="http://www.w3.org/2000/svg" viewBox="0 0 257.86 46.8"><defs><style>.cls-1{fill:#c1c7d0;}</style></defs><title>Artboard 11</title><path class="cls-1" d="M57.56,25.5V14.7a6,6,0,1,1,6,6h0l5.8,4.3a.61.61,0,0,1,.1.8.76.76,0,0,1-.4.2.37.37,0,0,1-.3-.1l-8-6a3.13,3.13,0,0,1-1.1-.9l-.8-.5v6.9a.56.56,0,0,1-.6.5c-.5.1-.7-.1-.7-.4Zm2.6-7.2,1,.8A4.84,4.84,0,1,0,66,10.7a4.9,4.9,0,0,0-6.6,1.8A4.72,4.72,0,0,0,60.16,18.3Z"/><path class="cls-1" d="M72.86,19.6a6.5,6.5,0,0,1,6.9-6.1,6.4,6.4,0,0,1,6.1,6.1v.6H74a5.38,5.38,0,0,0,5.9,4.8,7,7,0,0,0,1.4-.3.54.54,0,1,1,.4,1h0a6.47,6.47,0,0,1-8.4-3.8,5.87,5.87,0,0,1-.4-2.3Zm11.8-.6a5.38,5.38,0,0,0-5.9-4.8A5.52,5.52,0,0,0,74,19Z"/><path class="cls-1" d="M89.16,19.5a6.49,6.49,0,0,1,6.5-6.5.6.6,0,1,1,0,1.2h0a5.46,5.46,0,1,0-.5,10.9h.5a.65.65,0,0,1,.6.6h0a.56.56,0,0,1-.5.6h0a6.9,6.9,0,0,1-6.6-6.8Z"/><path class="cls-1" d="M99.66,20a6.6,6.6,0,1,1,6.6,6.6h0A6.53,6.53,0,0,1,99.66,20Zm1.1,0a5.5,5.5,0,1,0,5.5-5.5h0a5.55,5.55,0,0,0-5.5,5.5Z"/><path class="cls-1" d="M116.16,26V18.1a4.6,4.6,0,1,1,9.2,0V26a.56.56,0,0,1-.6.5c-.2,0-.4-.2-.5-.5V18.1a3.5,3.5,0,1,0-7,0h0V26a.55.55,0,0,1-1.1.1Z"/><path class="cls-1" d="M128.66,20a6.6,6.6,0,1,1,6.6,6.6h0A6.53,6.53,0,0,1,128.66,20Zm1.1,0a5.5,5.5,0,1,0,5.5-5.5h0a5.55,5.55,0,0,0-5.5,5.5Z"/><path class="cls-1" d="M146,26a.58.58,0,0,1,.6-.6h3.1a2.45,2.45,0,0,0,.3-4.9h-1.3a3.61,3.61,0,1,1-.4-7.2h3.4a.65.65,0,0,1,.6.6h0a.56.56,0,0,1-.5.6h-3a2.45,2.45,0,0,0-2.3,2.6,2.56,2.56,0,0,0,2.3,2.3h1a3.61,3.61,0,1,1,.4,7.2h-3.6A.58.58,0,0,1,146,26Z"/><path class="cls-1" d="M158.66,11.3a.7.7,0,1,1,.7-.7.68.68,0,0,1-.7.7Zm-.6,14.7V14a.55.55,0,1,1,1.1-.1V26a.55.55,0,0,1-1.1.1Z"/><path class="cls-1" d="M162.66,19.6a6.5,6.5,0,0,1,6.9-6.1,6.4,6.4,0,0,1,6.1,6.1v.6h-11.9a5.38,5.38,0,0,0,5.9,4.8,7,7,0,0,0,1.4-.3.57.57,0,0,1,.7.9.37.37,0,0,1-.3.1,6.47,6.47,0,0,1-8.4-3.8A9.26,9.26,0,0,1,162.66,19.6Zm11.9-.6a5.38,5.38,0,0,0-5.9-4.8,5.52,5.52,0,0,0-4.8,4.8Z"/><path class="cls-1" d="M179,26V18.1a4.6,4.6,0,0,1,9.2,0V26a.56.56,0,0,1-.6.5c-.2,0-.4-.2-.5-.5V18.1a3.45,3.45,0,0,0-6.9,0V26a.65.65,0,0,1-.6.6C179.26,26.5,179,26.3,179,26Z"/><path class="cls-1" d="M203.46,26.1V23.7a6.56,6.56,0,1,1-1.8-9.1,7.69,7.69,0,0,1,1.8,1.8V10.2a.55.55,0,0,1,1.1-.1v16a.56.56,0,0,1-.6.5.47.47,0,0,1-.5-.5Zm0-6v-.2a5.4,5.4,0,1,0,0,.2Z"/><path class="cls-1" d="M207.86,20a6.6,6.6,0,1,1,6.6,6.6h0A6.59,6.59,0,0,1,207.86,20Zm1.1,0a5.5,5.5,0,0,0,11,0,5.42,5.42,0,0,0-5.5-5.5h0A5.69,5.69,0,0,0,209,20Z"/><path class="cls-1" d="M240.46,26.2V18.1a3.45,3.45,0,0,0-6.9,0v8a.6.6,0,1,1-1.2,0h0v-8a3.45,3.45,0,0,0-6.9,0v8a.6.6,0,1,1-1.2,0h0v-8a23.88,23.88,0,0,0,12.6-4.6,4.59,4.59,0,0,1,4.6,4.6h0v8.1a.55.55,0,1,1-1.1.1l.1-.1Z"/><path class="cls-1" d="M244.86,19.6a6.5,6.5,0,0,1,6.9-6.1,6.4,6.4,0,0,1,6.1,6.1v.6H246a5.38,5.38,0,0,0,5.9,4.8,7,7,0,0,0,1.4-.3.54.54,0,1,1,.4,1,6.47,6.47,0,0,1-8.4-3.8,8.52,8.52,0,0,1-.4-2.3Zm11.9-.6a5.38,5.38,0,0,0-5.9-4.8,5.52,5.52,0,0,0-4.8,4.8Z"/><path class="cls-1" d="M102.56,35a3,3,0,0,1-3,3h-1.9a.35.35,0,0,1-.2-.1V32.2c0-.1,0-.1.2-.1h1.9a2.86,2.86,0,0,1,3,2.9Zm-.3,0a2.73,2.73,0,0,0-2.7-2.7h-1.7v5.4h1.7a2.73,2.73,0,0,0,1.9-.8A2.36,2.36,0,0,0,102.26,35Z"/><path class="cls-1" d="M107.26,36.8h0a1.85,1.85,0,0,1-.7.8,1.69,1.69,0,0,1-1,.3,1.82,1.82,0,0,1-1.4-.6,2.05,2.05,0,0,1,0-2.9,2,2,0,0,1,1.4-.6,1.7,1.7,0,0,1,.7.1,2.51,2.51,0,0,1,.7.4.72.72,0,0,1,.4.6c0,.1,0,.1-.1.1l-3.1,1.8a1.65,1.65,0,0,0,2.4.4l.3-.3.2-.3.1-.1C107.26,36.7,107.26,36.7,107.26,36.8Zm-.3-1.9a1.65,1.65,0,0,0-2.4-.4,1.42,1.42,0,0,0-.7,1.4,1.45,1.45,0,0,0,.2.7Z"/><path class="cls-1" d="M110.66,36.7a1.22,1.22,0,0,1-.4.9,1.27,1.27,0,0,1-.9.4,1.45,1.45,0,0,1-.7-.2,1,1,0,0,1-.5-.6v-.1c0-.1,0-.1.2-.1s.1,0,.1.1l.1.2a1,1,0,0,0,1.5.1.85.85,0,0,0,0-1.3h0a.91.91,0,0,0-.7-.3.71.71,0,0,1-.6-.3.91.91,0,0,1-.3-.7,1.08,1.08,0,0,1,.3-.7.91.91,0,0,1,.7-.3,1,1,0,0,1,.8.5v.1c0,.1-.1.1-.2.1s-.2-.1-.2-.2a.63.63,0,0,0-.9,0h0a.76.76,0,0,0-.2.4c0,.2.1.3.2.5a.76.76,0,0,0,.5.2,1.22,1.22,0,0,1,.9.4A1.61,1.61,0,0,1,110.66,36.7Z"/><path class="cls-1" d="M114.36,37.8c0,.1,0,.1-.2.1s-.2-.1-.2-.1v-.4a1.55,1.55,0,0,1-2,.3,1.61,1.61,0,0,1-.5-1.1,1.28,1.28,0,0,1,.4-1,1.42,1.42,0,0,1,2,0,.35.35,0,0,1,.1.2v-.4a1,1,0,0,0-1.1-1.1,1.42,1.42,0,0,0-.6.2l-.3.2c-.1,0-.1,0-.2-.1h0v-.1a1.28,1.28,0,0,1,1-.4,1.37,1.37,0,0,1,1.4,1.4Zm-.3-1.3a1.11,1.11,0,0,0-1.1-1.1,1,1,0,0,0-1.1,1.1,1.11,1.11,0,0,0,1.1,1.1,1,1,0,0,0,1.1-1.1Z"/><path class="cls-1" d="M118,34.5c0,.1,0,.1-.2.1s-.2-.1-.3-.2a.78.78,0,0,0-1.1,0,.76.76,0,0,0-.2.5v2.8c0,.1,0,.1-.1.1h0a.35.35,0,0,1-.2-.1V33.9c0-.1,0-.1.2-.1s.2.1.1.3a1.14,1.14,0,0,1,.8-.3,1.45,1.45,0,0,1,1,.7Z"/><path class="cls-1" d="M121.36,34.5c0,.1-.1.1-.2.1s-.2-.1-.3-.2-.3-.2-.6-.2a.86.86,0,0,0-.8.8v2.8c0,.1-.1.1-.2.1a.35.35,0,0,1-.2-.1V34c0-.1.1-.1.2-.1s.2.1.2.3a.83.83,0,0,1,.8-.3.91.91,0,0,1,1.1.6Z"/><path class="cls-1" d="M126.36,35.9a1.82,1.82,0,0,1-.6,1.4,1.93,1.93,0,0,1-2.8,0h0a2,2,0,0,1-.1-2.8l.1-.1a1.93,1.93,0,0,1,2.8,0h0A2.81,2.81,0,0,1,126.36,35.9Zm-.3,0a1.7,1.7,0,1,0-1.7,1.7,1.71,1.71,0,0,0,1.7-1.7Z"/><path class="cls-1" d="M128.66,37.8c0,.1,0,.1-.1.1a1.11,1.11,0,0,1-1.1-1.1V32.1c0-.1,0-.1.1-.1h0a.35.35,0,0,1,.2.1v4.7a.86.86,0,0,0,.8.8h0a.35.35,0,0,1,.1.2Z"/><path class="cls-1" d="M131.06,37.8c0,.1,0,.1-.1.1h0a1,1,0,0,1-1.1-1.1V32.1c0-.1.1-.1.2-.1s.1,0,.1.1h0v4.7a1.42,1.42,0,0,0,.2.6c.1.2.3.2.6.2C131,37.7,131.06,37.7,131.06,37.8Z"/><path class="cls-1" d="M136,35.9a1.82,1.82,0,0,1-.6,1.4,2,2,0,1,1-2.7-2.9,2.13,2.13,0,0,1,2.8,0A3,3,0,0,1,136,35.9Zm-.3,0a1.7,1.7,0,1,0-1.7,1.7,1.71,1.71,0,0,0,1.7-1.7Z"/><path class="cls-1" d="M143.36,37.8c0,.1,0,.1-.1.1h0a.35.35,0,0,1-.2-.1V37a2,2,0,0,1-3.5-2.1,2.18,2.18,0,0,1,2.8-.7,2.34,2.34,0,0,1,.7.7V32.2c0-.1,0-.1.2-.1s.1,0,.1.1h0Zm-.3-1.9a1.7,1.7,0,1,0-1.7,1.7,1.71,1.71,0,0,0,1.7-1.7Z"/><path class="cls-1" d="M148.46,36.8h0a1.85,1.85,0,0,1-.7.8,1.69,1.69,0,0,1-1,.3,2,2,0,0,1,0-4,1.7,1.7,0,0,1,.7.1,2.51,2.51,0,0,1,.7.4.72.72,0,0,1,.4.6c0,.1,0,.1-.1.1l-3.1,1.8a1.65,1.65,0,0,0,2.4.4l.3-.3.2-.3.1-.1C148.46,36.7,148.46,36.7,148.46,36.8Zm-.3-1.9a1.65,1.65,0,0,0-2.4-.4,1.42,1.42,0,0,0-.7,1.4,1.45,1.45,0,0,0,.2.7Z"/><path class="cls-1" d="M150.86,37.8c0,.1,0,.1-.1.1a1.11,1.11,0,0,1-1.1-1.1V32.1c0-.1,0-.1.1-.1h0a.35.35,0,0,1,.2.1v4.7a1.42,1.42,0,0,0,.2.6c.1.2.3.2.6.2a.35.35,0,0,1,.1.2Z"/><path class="cls-1" d="M158.06,33.7a1.75,1.75,0,0,1-1.7,1.7h-1.3a.22.22,0,0,1-.2-.2c0-.1.1-.1.2-.1h1.3a1.37,1.37,0,0,0,1.4-1.4,1.37,1.37,0,0,0-1.4-1.4H155v5.5c0,.1,0,.1-.1.1h0a.35.35,0,0,1-.2-.1V32.1c0-.1,0-.1.2-.1h1.6a1.67,1.67,0,0,1,1.6,1.7Z"/><path class="cls-1" d="M163,35.9a2,2,0,0,1-3.5,1.4,2.05,2.05,0,0,1,0-2.9,1.93,1.93,0,0,1,2.8-.1A1.73,1.73,0,0,1,163,35.9Zm-.3,0a1.7,1.7,0,1,0-1.7,1.7,1.66,1.66,0,0,0,1.2-.5,1.15,1.15,0,0,0,.5-1.2Z"/><path class="cls-1" d="M166.76,37.5v.1a1.14,1.14,0,0,1-.8.3,1.11,1.11,0,0,1-1.1-1.1V34.1h-.8c-.1,0-.1,0-.2-.1h0c0-.1,0-.1.2-.1h.8V32.1c0-.1,0-.1.1-.1h0a.35.35,0,0,1,.2.1v1.8h.8c.1,0,.1,0,.1.1h0c0,.1,0,.1-.1.1h-.8v2.7a1.42,1.42,0,0,0,.2.6c.1.2.4.2.6.2s.3-.1.4-.1l.2-.1c.2,0,.2,0,.2.1Z"/><path class="cls-1" d="M171.46,36.8h0a2,2,0,0,1-1.8,1.1,1.82,1.82,0,0,1-1.4-.6,2,2,0,0,1-.1-2.8l.1-.1a2,2,0,0,1,1.4-.6,1.7,1.7,0,0,1,.7.1,2.51,2.51,0,0,1,.7.4.72.72,0,0,1,.4.6c0,.1,0,.1-.1.1l-3.1,1.8a1.72,1.72,0,0,0,1.4.8A1.61,1.61,0,0,0,171,37l.2-.3.1-.1C171.46,36.7,171.46,36.7,171.46,36.8Zm-.3-1.9a1.42,1.42,0,0,0-1.4-.7,1.71,1.71,0,0,0-1.7,1.8,1.85,1.85,0,0,0,.2.7Z"/><path class="cls-1" d="M175.66,37.8c0,.1,0,.1-.1.1h0a.35.35,0,0,1-.2-.1V35.3a1.1,1.1,0,1,0-2.2,0v2.5c0,.1,0,.1-.2.1s-.2-.1-.2-.1V34c0-.1,0-.1.2-.1s.2,0,.2.1v.4a1.27,1.27,0,0,1,1.1-.5,1.37,1.37,0,0,1,1.4,1.4h0v2.5Z"/><path class="cls-1" d="M180.26,34.6c0,.1,0,.1-.1.1h0c-.1-.1-.3-.2-.4-.3a1.61,1.61,0,0,0-.9-.3,1.7,1.7,0,0,0,0,3.4h0a1.61,1.61,0,0,0,.9-.3c.1-.1.3-.2.4-.3a.35.35,0,0,1,.2.1v.1a2,2,0,0,1-1.4.6,1.82,1.82,0,0,1-1.4-.6,2,2,0,0,1-.1-2.8l.1-.1a2,2,0,0,1,1.4-.6,1.82,1.82,0,0,1,1.4.6A1.58,1.58,0,0,0,180.26,34.6Z"/><path class="cls-1" d="M182.06,32.3a.27.27,0,0,1-.3.3c-.1,0-.3-.1-.3-.2v-.1c0-.1,0-.2.1-.2s.1-.1.2-.1a.32.32,0,0,1,.3.3Zm-.2,1.7v3.8c0,.1,0,.1-.2.1s-.1,0-.1-.1h0V34c0-.1,0-.1.1-.1h0C181.86,33.9,181.86,33.9,181.86,34Z"/><path class="cls-1" d="M186.06,37.8c0,.1,0,.1-.2.1s-.1,0-.1-.1h0v-.4a1.43,1.43,0,0,1-2.3-1.7,1.53,1.53,0,0,1,2-.3l.3.3v-.4a1.11,1.11,0,0,0-1.1-1.1,1.42,1.42,0,0,0-.6.2l-.3.2c-.1,0-.1,0-.2-.1h0v-.1a1.28,1.28,0,0,1,1-.4,1.37,1.37,0,0,1,1.4,1.4h0Zm-.3-1.3a1.14,1.14,0,0,0-.3-.8,1.21,1.21,0,0,0-1.6,0h0a1.14,1.14,0,0,0-.3.8,1.11,1.11,0,0,0,1.2,1,1.07,1.07,0,0,0,1-1Z"/><path class="cls-1" d="M188.56,37.8c0,.1,0,.1-.1.1h0a1,1,0,0,1-1.1-1.1V32.1c0-.1,0-.1.2-.1s.2.1.2.1v4.7a1.42,1.42,0,0,0,.2.6c.1.2.3.2.6.2Z"/><path class="cls-1" d="M196.36,37.8c0,.1,0,.1-.1.1h0a.35.35,0,0,1-.2-.1V35.1h-3.5v2.7c0,.1,0,.1-.2.1s-.1,0-.1-.1h0V32.1c0-.1,0-.1.1-.1h0a.35.35,0,0,1,.2.1v2.7h3.5V32.1c0-.1,0-.1.2-.1s.1,0,.1.1h0Z"/><path class="cls-1" d="M200.76,36.5a1.28,1.28,0,0,1-.4,1,1.34,1.34,0,0,1-2,0h0a1.28,1.28,0,0,1-.4-1V34c0-.1,0-.1.2-.1s.1,0,.1.1v2.5a1.11,1.11,0,0,0,1.2,1,1.17,1.17,0,0,0,1-1V34c0-.1,0-.1.1-.1h0c.1,0,.2,0,.2.1Z"/><path class="cls-1" d="M207.56,37.8c0,.1,0,.1-.1.1h0a.35.35,0,0,1-.2-.1V35.3a1.1,1.1,0,1,0-2.2,0v2.5c0,.1-.1.1-.2.1a.35.35,0,0,1-.2-.1V35.3a1.14,1.14,0,0,0-.3-.8,1.22,1.22,0,0,0-1.6,0,1.14,1.14,0,0,0-.3.8v2.5c0,.1-.1.1-.2.1s-.1,0-.1-.1h0V34c0-.1,0-.1.1-.1h0c.1,0,.2,0,.2.1v.4a1.27,1.27,0,0,1,1.1-.5,1.35,1.35,0,0,0,1.9.6,1.17,1.17,0,0,0,.6-.6,1.37,1.37,0,0,1,1.4,1.4Z"/><path class="cls-1" d="M211.46,37.8c0,.1,0,.1-.1.1h0a.35.35,0,0,1-.2-.1v-.4a1.41,1.41,0,0,1-2.5-.9,1.37,1.37,0,0,1,1.4-1.4,1.25,1.25,0,0,1,1.1.6v-.4a1,1,0,0,0-1.1-1.1,1.42,1.42,0,0,0-.6.2l-.3.2c-.1,0-.1,0-.2-.1h0v-.1a1.28,1.28,0,0,1,1-.4,1.37,1.37,0,0,1,1.4,1.4h0Zm-.2-1.3a1,1,0,0,0-1.1-1.1,1.11,1.11,0,0,0-1.1,1.1,1.13,1.13,0,0,0,1.9.8,1.91,1.91,0,0,0,.3-.8Z"/><path class="cls-1" d="M215.86,37.8c0,.1,0,.1-.2.1s-.2-.1-.2-.1V35.3a1.14,1.14,0,0,0-.3-.8,1.22,1.22,0,0,0-1.6,0,1.14,1.14,0,0,0-.3.8v2.5c0,.1,0,.1-.2.1s-.1,0-.1-.1h0V34c0-.1,0-.1.1-.1h0c.1,0,.2,0,.2.1v.4a1.27,1.27,0,0,1,1.1-.5,1.37,1.37,0,0,1,1.4,1.4v2.5Z"/><path class="cls-1" d="M221.06,35.9a1.82,1.82,0,0,1-.6,1.4,2,2,0,1,1-2.7-2.9,2.13,2.13,0,0,1,2.8,0A3,3,0,0,1,221.06,35.9Zm-.3,0a1.7,1.7,0,1,0-1.7,1.7,1.71,1.71,0,0,0,1.7-1.7Z"/><path class="cls-1" d="M46.26,28.4c.1-5.5-.7-11-3.9-15.5s-8.9-6.7-14.2-7.4c-11.4-1.5-21,7.2-20,18.8a10.36,10.36,0,0,0,7,9c4.3,1.6,10.7-.3,12.2-5,1.1-3.7-.6-8.2-4.9-8.6-5.3-.5-10.1,3.9-12.2,8.4-.9,1.9,1.9,3.5,2.8,1.6,1.6-3.3,4.7-6.7,8.6-6.8,1.8-.1,2.7,1.5,2.8,3,.1,2.3-2,3.8-3.9,4.4a7.15,7.15,0,0,1-8.8-4.4c-1-2.9-.3-6.2.7-9,2.9-8.2,12.7-9.4,19.9-7.2,8.5,2.6,11,10.6,10.8,18.7-.1,2.1,3.1,2.1,3.1,0Z"/><path class="cls-1" d="M37.76,21.8a27.6,27.6,0,0,1,.6,5.7,15.4,15.4,0,0,1-2,7.6c-4.1,7.4-14,11.7-22.2,11.7a23.4,23.4,0,0,1-7.4-1.2c-4.7-1.8-7.2-4.5-6.7-10A7,7,0,0,1,3,30.9c4-2.6,7,.9,10.4,2.8A20.77,20.77,0,0,0,25.56,36a13.56,13.56,0,0,0,9.5-5C37.16,28.4,37.46,25.1,37.76,21.8Z"/><path class="cls-1" d="M42,9.1c2.5,0,2.5-3.9,0-3.9a2,2,0,0,0-1.5,2.4A1.93,1.93,0,0,0,42,9.1Z"/><path class="cls-1" d="M29.26,3.9c2.5,0,2.5-3.9,0-3.9a2,2,0,0,0-1.5,2.4A1.92,1.92,0,0,0,29.26,3.9Z"/><path class="cls-1" d="M14.76,6.5a2,2,0,0,0,1.5-2.4,2.07,2.07,0,0,0-1.5-1.5A1.93,1.93,0,0,0,13,4.7,1.93,1.93,0,0,0,14.76,6.5Z"/></svg>