<svg id="Layer_1" data-name="Layer 1" xmlns="http://www.w3.org/2000/svg" viewBox="0 0 288 107"><defs><style>.cls-1{fill:#c1c7d0;}</style></defs><title>Artboard 49 copy 14</title><path class="cls-1" d="M144,69.21A34.24,34.24,0,1,1,178.24,35,34.28,34.28,0,0,1,144,69.21Zm0-67A32.74,32.74,0,1,0,176.74,35,32.78,32.78,0,0,0,144,2.23Z"/><path class="cls-1" d="M143.9,53.45c-.83-.63-1.66-1-2.05-1.64-.22-.36.3-1.16.49-1.76a3.63,3.63,0,0,0,.19-.52c.29-2.09.69-4.17.82-6.27a66.88,66.88,0,0,0,0-7.22c-.22-4.89-.48-9.78-.9-14.65a9.05,9.05,0,0,0-1.41-3.33,2.71,2.71,0,0,1,.93-3.23,4.57,4.57,0,0,1,4.51.7c1,.83.64,1.69.31,2.56-.42,1.13-1.27,2.2-1.33,3.34-.43,7.28-1.36,14.55-.88,21.86.14,2.1.55,4.18.83,6.27,0,.13.05.34.13.38a1.29,1.29,0,0,1,.52,2C145.67,52.57,144.79,52.87,143.9,53.45Z"/><path class="cls-1" d="M147.21,40.9c.65.3,1.31.58,2,.9,1.55.77,3.1,1.56,4.65,2.34a.75.75,0,0,0,.41.09c1.66-.25,3.31.7,5,.07.26-.1.72-.06.79-.21.54-1.33,1.82-1.64,2.92-2.15l2.21.9c-.31.87.71,1.53.28,2.74A5.31,5.31,0,0,1,158.32,49c-1.13-.45-2.36-.69-3.5-1.13a19.57,19.57,0,0,1-6-3.91,7.94,7.94,0,0,1-1.16-1.36,14.65,14.65,0,0,1-.75-1.48Z"/><path class="cls-1" d="M127.88,49.39c-2.37-.37-5.06-1.11-5.39-4.37-.07-.76.25-2.19.54-2.23.89-.13,1.53-1.06,2.68-.57a14.16,14.16,0,0,1,2.12,1.47,7.83,7.83,0,0,0,2.73.75c.35.06.74-.15,1.11-.14A8.6,8.6,0,0,0,137,42.7a31.15,31.15,0,0,1,3.33-1.77c.15-.07.49-.07.52,0,.11.23.25.6.14.75a9.81,9.81,0,0,1-2,2.5A58.25,58.25,0,0,1,132,48.47,15.76,15.76,0,0,1,127.88,49.39Z"/><path class="cls-1" d="M141.29,36.76a10.39,10.39,0,0,1-4.71,2.49,14,14,0,0,1-6.05.65c-2.52-.37-4.8-1.32-5.9-3.93a2.67,2.67,0,0,1,1.17-3c1.57-.8,2.4-.67,3.16.52.44.69.69,1.71,1.31,2a11.75,11.75,0,0,0,4.38,1.58,33.8,33.8,0,0,0,5.81-.51A3.85,3.85,0,0,1,141.29,36.76Z"/><path class="cls-1" d="M147,36.71a2,2,0,0,1,.62-.13,41.73,41.73,0,0,0,6.07.49c1.36-.09,2.68-.94,4-1.51a1.26,1.26,0,0,0,.57-.8,3.45,3.45,0,0,1,2.3-2.42c.54-.18,1.55.44,2.09,1a2.32,2.32,0,0,1,.68,2.84,6.92,6.92,0,0,1-6.55,3.76,28.74,28.74,0,0,1-6.57-.91,13.67,13.67,0,0,1-3.32-1.89Z"/><path class="cls-1" d="M146.36,32.42c3.71-.65,7-1.81,8.95-4.69,0-.71-.25-1.28-.06-1.64.51-1,1.09-2.13,2.48-1.65a2.12,2.12,0,0,1,1.57,1.81c.35,2.65-.92,4.05-3.15,5.31a13.88,13.88,0,0,1-9,1.4,1.53,1.53,0,0,1-.41-.14A3.06,3.06,0,0,1,146.36,32.42Z"/><path class="cls-1" d="M132.41,27.29c2.2,3.27,5.47,4.51,9.06,5.31-2.55.55-5,1.07-7.46-.17-1.3-.67-2.64-1.26-3.86-2.05a4.26,4.26,0,0,1-1.31-4.77,2.59,2.59,0,0,1,1.67-1.17,2,2,0,0,1,1.71.81C132.48,25.84,134.12,26.53,132.41,27.29Z"/><path class="cls-1" d="M151.71,22.2l-.49-2.94a5.93,5.93,0,0,1,1.75-.45,1.89,1.89,0,0,1,2.08,1.88c.3,2.46-1.46,4.89-3.64,6.19-1,.57-1.93,1.17-2.95,1.64a4.94,4.94,0,0,1-1.63.14l5.47-6.17Z"/><path class="cls-1" d="M136.76,19.36l-.53,2.89-.58.18,5.43,6.12c-.36,0-.8.19-1.11.05-2.06-1-4.28-1.85-5.71-3.63a5.5,5.5,0,0,1-1.08-5.17,2.31,2.31,0,0,1,2.4-1C135.92,19,136.24,19.13,136.76,19.36Z"/><path class="cls-1" d="M62.84,96.09,62.57,96l-.28-.09-.24-.12-.25-.19-.36-.43L61.28,95l-.09-.28,0-.27,0-.31.06-.55,0-.3.06-.55.13-.55.06-.22.06-.27.09-.34.06-.24.09-.28.06-.28.1-.27L62,90l.09-.36.12-.4.06-.28.09-.27.06-.28.1-.27.06-.25.12-.55,0-.27.18-.83,0-.27,0-.31,0-.27-.12-.25-.18-.18-.25-.06-.3,0-.28.06-.24.09-.74.46-.24.18-.43.37-.18.21-.22.19-.18.21-.18.24-.16.25-.15.21-.15.25-.19.21-.15.25-.12.24-.12.28-.28.49-.09.24-.18.55-.06.28-.13.36-.09.37-.09.31-.09.36-.12.37-.1.31-.18.73,0,.31-.09.39-.12.49-.13.4-.09.28-.06.24-.09.28-.12.24-.19.18-.27.13-.28.06-.3,0-.31,0h-.31l-.27-.06L54,95.72l-.15-.18,0-.27,0-.31.06-.37.1-.36.12-.31.09-.4.15-.49.12-.49.1-.39.06-.31.18-.73.18-.83.1-.24.09-.28.09-.37.06-.36.09-.31.06-.24.19-.65.09-.36.09-.31.06-.4.09-.49v-.52l0-.39-.18-.25L55.59,85l-.36-.06L55,85l-.37.15-.3.19-.22.21-.42.37-.28.24-.27.28-.19.21-.15.21-.12.25-.19.27-.12.16-.21.33-.22.31-.18.27-.21.34-.4.8-.12.27-.1.28-.06.27-.18.55-.06.28-.06.3-.19.83-.09.27-.12.56-.09.27-.06.31-.1.3-.06.28-.06.21-.06.28-.09.27-.09.31-.22.27-.42.22-.52,0-.49,0-.49-.19-.31-.3L47,95l.06-.27.12-.31.06-.18.1-.31.06-.27.09-.4.09-.37.06-.27.19-.56.06-.24.09-.28.06-.27.09-.25.06-.27.09-.28.1-.39.09-.37.06-.28.18-.55.09-.39.1-.37.09-.28.06-.27,0-.28.09-.27.06-.28.12-.36.13-.4.12-.55.06-.25L50,83.83l.09-.25.12-.27.21-.16.31-.09L51,83l.61.06.3.06.28.13.24.18.13.21,0,.28-.1.3-.09.28-.06.27-.09.28-.06.31-.09.27-.13.55,0,.19L52,86.3l.15-.27.18-.25.16-.24.18-.21.15-.25.19-.21.21-.28.18-.18.16-.19.42-.36.49-.34.22-.15.24-.15.28-.13.24-.09.31-.09.3,0h.52l.28,0,.27.06.25.09.24.12.22.16.18.18.18.22.25.48.09.25.09.27,0,.28v.28l0,.36,0,.4,0,.21h0l.12-.15.19-.24.18-.22.34-.43.21-.24.12-.15.4-.46.19-.22.21-.15.46-.37.24-.18.22-.15.24-.13.28-.12.27-.06.37-.06.52,0,.21,0h.28l.27.06.37.09.37.15.27.19.19.18.15.25.12.24.06.25.1.27,0,.28,0,.24v.55l0,.28,0,.3-.13.55-.09.4-.46,1.47-.12.4-.09.27-.06.4-.09.34-.1.3-.12.37-.09.37-.09.3-.16.74-.06.3-.06.4-.06.52,0,.49.09.37.19.18.3,0,.25-.06.21-.13.25-.12.24-.18.22-.15.42-.43.16-.22.36-.49.16-.15.18-.24,1.07-1.72.12-.27.28-.55.09-.15.18-.28.13-.24.27-.16.37.06.24.31v.31l-.12.27-.15.28-.09.24-.13.21-.27.55-.22.37-.18.31-.15.24-.16.22-.46.73-.15.21-.3.46-.19.25-.33.43-.4.39-.18.22-.19.18-.43.37-.24.15-.73.37-.28.09-.24.06-.31,0h-.61Z"/><path class="cls-1" d="M83.55,90l-.06.15-.16.3-.15.22-.12.24-.12.28-.13.24-.3.49-.15.22-.16.24-.12.25-.15.24-.19.21-.18.25-.18.21L81,94l-.18.22-.19.18-.85.73-.25.16-.27.15L79,95.6l-.37.16-.27.09-.28.06h-.3l-.37,0L77,95.79l-.27-.1-.22-.15-.21-.18-.21-.31-.22-.33-.09-.28-.09-.37,0-.39v-.31l0-.4,0-.37-.09-.06-.16.22-.3.49-.31.43-.18.21-.15.21-.19.22-.15.21-.21.19-.19.18-.21.18-.22.15-.24.16-.34.21-.46.22-.49.15-.39.09-.55.06-.31,0L70.21,96l-.36-.09-.28-.09-.24-.09-.22-.16-.43-.37L68.53,95l-.15-.24-.18-.34L68,94l-.09-.4,0-.3-.06-.4,0-.49V92l0-.3,0-.4.06-.37.09-.3.09-.37.1-.4.09-.27.12-.25.09-.27.74-1.47.15-.25.15-.21.15-.24.31-.43.18-.22.4-.46.12-.12.22-.24.42-.37.28-.28.34-.24.43-.34.24-.15.21-.15.28-.12.37-.16.33-.18.31-.15.37-.13.36-.09.31-.09.76-.06.28,0h.37l.61,0,.7.06.67.12.28.06.33.1,1.23.55.21.18.22.15.21.19.18.21.07.34-.13.43-.33.36-.34.22-.24,0-.25-.1-.24-.18-.28-.15-.24-.15-.22-.1-.24-.12L78.5,85l-.24-.06-.52-.12-.31-.1-.3-.06h-.62l-.21,0-.31,0-.39.1-.77.27-.3.15-.31.19-.21.15-.25.15-.21.16-.22.18-.24.21L73,86.4l-.22.24-.18.21-.15.22-.37.43-.15.21-.16.25-.36.73-.16.24-.18.56-.12.27-.13.25-.18.82-.09.31-.09.82v.86l0,.3.09.28.12.24.15.25.19.18.27.13.37.06.4,0,.27-.1.49-.24.43-.37.19-.18.21-.18.18-.22.16-.21.18-.22.15-.21.34-.46.15-.21.46-.74.18-.33.22-.4.12-.19.37-.79.12-.28.06-.21.12-.28.09-.24.1-.28.12-.33.18-.61.12-.34.1-.31.18-.27.31-.15.27-.07.28,0,.27.06.49.24.25.15.12.19,0,.27-.09.25-.06.27-.1.28-.12.55-.09.27-.06.25-.19.55-.06.31,0,.18-.09.37-.06.27-.12.52-.09.37-.06.3-.07.34L78,92.3l-.09.52,0,.46,0,.4.15.24.31.15.46,0,.36-.12.28-.15.43-.31.21-.21.37-.4.37-.43.3-.43.16-.24.18-.25.06-.18.49-.73.12-.25.15-.24.62-1.23.27-.15.37.06.24.31,0,.3-.12.28Z"/><path class="cls-1" d="M84.53,82.39l-.28-.83,0-.27V81l.06-.27.13-.28.15-.21.18-.22.22-.18.24-.12.28-.06h.27l.28.06.24.15.18.18.13.25.09.27v.83l-.06.31V82l.06.25.15.21.22.21.21.19.21.24.34.4.22.18.39.4.22.25.12.15.21.24.22.19.18.21.31.49.09.28.09.36.09.4,0,.28-.09.27-.12.25-.19.21-.3.49-.19.21-.15.25-.15.21-.18.25-.16.24-.18.25-.15.24-.52,1-.1.28-.09.24-.06.28-.06.3-.06.28,0,.27v.31l.12.61.15.24.16.28.21.18.25.16.3.06h.58l.28-.06.27-.1.28-.12.21-.15.46-.31.24-.18.22-.18L91,93l.19-.24.55-.64.46-.74.15-.21.15-.28.15-.24.13-.25.15-.27.09-.19.18-.33.13-.25.09-.24.12-.25.28-.15.39.09.28.31v.33l-.09.28-.25.52-.12.24-.15.25-.25.49-.3.49-.16.27-.12.16-.15.27-.31.49-.36.49-.25.34-.21.3-.37.43-.21.18-.37.37-.25.18-.27.19-.49.24-.28.13-.24.12-.28.09-.24.06-.31.06h-.7l-.4,0-.61-.12-.24-.09-.31-.16-.46-.3-.21-.19L85.38,95l-.18-.24-.15-.22-.12-.27L84.8,94l-.06-.27-.06-.31-.06-.27,0-.28v-.27l.12-1.11.09-.27.1-.25.12-.27.15-.34.18-.33.16-.28.21-.34.21-.3.16-.28.18-.33.25-.34L86.7,88l.24-.43.34-.49.15-.34.1-.46-.07-.36-.3-.49L87,85.14l-.48-.55-.19-.21-.24-.19-.25.06-.12.28-.06.28-.09.27-.06.28-.07.24-.09.28-.27.73-.09.28-.1.24-.09.28-.15.36-.15.34-.13.27-.15.37-.15.34-.15.3-.16.34-.18.34-.15.24-.19.15h-.27l-.25-.15-.18-.21,0-.25.09-.27.12-.28.1-.24.09-.28.24-.55.09-.18.13-.31.12-.24.09-.28.12-.27.1-.28.09-.24.24-.55.06-.28.09-.27.07-.28.12-.28.06-.27.06-.25.06-.27.09-.28.06-.3v-.28l-.06-.24Z"/><path class="cls-1" d="M100.62,89.21v.34l-.1.27-.24.49-.28.46-.15.27-.12.25-.18.27-.1.19L99.3,92l-.15.25-.16.21-.18.25-.15.21-.31.49-.55.64-.37.4-.21.21L97,94.9l-.22.18-.67.52-.21.16-.28.12-.27.09-.25.06-.55.12h-.52l-.34,0L93.49,96l-.28-.09L93,95.79l-.22-.19-.15-.21-.15-.25-.12-.27-.06-.25-.07-.27,0-.28V93.8l.06-.55L92.3,93l.09-.27.12-.55.09-.25.06-.27.09-.28.1-.24.27-.83,0-.24.06-.28.1-.27.06-.28.06-.24.18-.56.09-.36.09-.4L94,87.1l.06-.28.06-.21.06-.28.12-.3.1-.25.18-.82.09-.28.09-.36.13-.4.09-.28.12-.24.18-.15.28-.13.24,0,.31,0,.55.06.49.19.15.21v.28l-.06.27-.09.37-.09.4-.19.55-.06.24-.06.28-.09.3-.09.37-.31.92-.06.27-.12.4-.22.64-.06.28-.06.24-.06.28-.21.52-.06.27-.22.77-.18.55-.06.27-.1.4-.09.49-.06.52.06.46.25.34.33.09.28,0,.27-.12.22-.16.24-.18,1-1,.19-.21.15-.22.18-.24.31-.49.18-.22.12-.18.16-.25.18-.27.12-.28.25-.52.37-.73L99.7,89l.27-.16.4.06Zm-4.93-9.39.15-.24.25-.22.24-.15.31-.09.27-.06h.31l.28.06.24.15.21.18.22.22.15.24.09.28,0,.27v.31l-.09.27-.15.25-.18.24-.22.19-.24.18-.28.12-.3.06-.28,0L96.39,82l-.48-.3-.19-.22-.15-.24L95.51,81l0-.27,0-.28.06-.3Z"/><path class="cls-1" d="M114.59,90l-.06.15-.15.3-.15.22-.13.24-.12.28-.12.24-.31.49-.15.22-.15.24-.12.25-.16.24-.18.21-.18.25-.19.21-.34.43-.18.22-.18.18-.86.73-.24.16-.28.15-.33.15-.37.16-.28.09-.27.06h-.31l-.37,0-.36-.09-.28-.1-.21-.15-.22-.18-.21-.31-.21-.33-.1-.28-.09-.37,0-.39v-.31l0-.4,0-.37-.09-.06-.15.22-.31.49-.3.43-.19.21-.15.21-.18.22-.16.21-.21.19-.18.18-.22.18-.21.15-.25.16-.33.21-.46.22-.49.15-.4.09-.55.06-.3,0-.37-.06-.37-.09-.27-.09-.25-.09-.21-.16-.43-.37L99.58,95l-.16-.24-.18-.34L99.06,94l-.1-.4,0-.3-.06-.4,0-.49V92l0-.3,0-.4.06-.37.1-.3.09-.37.09-.4.09-.27.12-.25.1-.27.73-1.47.15-.25.16-.21.15-.24.3-.43.19-.22.4-.46.12-.12.21-.24.43-.37.27-.28.34-.24.43-.34.24-.15.22-.15.27-.12.37-.16.34-.18.3-.15.37-.13.37-.09.3-.09.77-.06.27,0h.37l.61,0,.71.06.67.12.27.06.34.1,1.22.55.22.18.21.15.21.19.19.21.06.34-.12.43-.34.36-.34.22-.24,0-.24-.1-.25-.18-.27-.15-.25-.15-.21-.1-.25-.12-.27-.12-.25-.06-.52-.12-.3-.1-.31-.06h-.61l-.22,0-.3,0-.4.1-.76.27-.31.15-.3.19-.22.15-.24.15-.22.16-.21.18-.25.21-.12.13-.21.24-.19.21-.15.22-.37.43-.15.21-.15.25-.37.73-.15.24-.19.56-.12.27-.12.25-.18.82-.1.31-.09.82v.86l0,.3.09.28.13.24.15.25.18.18.28.13.37.06.39,0,.28-.1.49-.24.43-.37.18-.18.21-.18.19-.22.15-.21.18-.22.16-.21.33-.46.16-.21.45-.74.19-.33.21-.4.12-.19.37-.79.12-.28.06-.21.13-.28.09-.24.09-.28.12-.33L108,87l.12-.34.09-.31.18-.27.31-.15.28-.07.27,0,.28.06.49.24.24.15.12.19,0,.27-.09.25-.06.27-.09.28-.12.55-.1.27-.06.25-.18.55-.06.31,0,.18-.09.37-.06.27-.13.52-.09.37-.06.3-.06.34-.09.46-.09.52,0,.46,0,.4.15.24.3.15.46,0,.37-.12.27-.15.43-.31.22-.21.36-.4.37-.43.31-.43.15-.24.18-.25.06-.18.49-.73.13-.25.15-.24.61-1.23.28-.15.36.06.25.31,0,.3-.12.28Z"/><path class="cls-1" d="M122.21,86l.21-.22.37-.42.64-.56.22-.15.24-.18.22-.15.24-.13.27-.12.46-.24.28-.16.55-.18.24-.09.56-.12.27,0,.31,0,.55-.06h.7l.4.06.33.07.22,0,.18-.1.12-.21.06-.27.19-.56.06-.24.09-.28.22-.51.09-.31.06-.18.12-.31.06-.25.19-.55.09-.24.3-.92.16-.37.18-.55.09-.24.12-.31.07-.18.24-.55.09-.24.28-.52.12-.25.27-.21.34-.13h.31l.27,0,.31.06.18.06.31.09.21.15.09.25-.06.24-.06.28-.12.27-.12.25-.1.24-.09.28-.15.36-.12.37-.13.34-.36,1-.13.36-.15.37-.09.27-.09.25L133,81l-.15.37-.09.3-.34,1-.06.28-.09.24-.09.28-.09.24L132,84l-.1.24-.06.28-.06.24-.06.28-.09.27-.09.25-.09.27-.07.28-.06.24-.06.28-.09.27-.09.4-.12.4-.07.18-.09.34-.06.28-.06.36-.06.4-.18.83,0,.27-.07.28-.06.39-.06.37,0,.28-.06.27,0,.28v.27l0,.31,0,.4.09.36.09.28.19.18.24.09.28,0,.24-.06.28-.09.24-.15.55-.49.22-.22.3-.42.31-.49.43-.62.15-.24.12-.24.15-.28.31-.67.15-.28.13-.21.12-.28.15-.33.34-.25.36.06.22.31v.4l-.15.36-.16.31-.18.34-.18.39-.13.19-.36.73-.19.28-.4.64-.3.49-.15.21-.19.25-.15.21-.18.18-.22.19-.21.24-.12.12-.22.25-.21.18-.25.16-.21.12-.25.12-.79.28-.28.06h-.24l-.28,0-.27,0-.28-.06-.24-.13-.25-.15-.18-.15-.21-.22-.31-.42-.12-.25-.09-.27-.06-.25-.1-.83v-.58l-.06,0-.15.22-.15.24-.28.49-.15.22-.18.21-.34.43-.18.18-.65.55-.27.22-.31.24-.27.18-.25.13-.3.09-.71.15-.3.06-.28,0-.24,0-.28,0-.27-.06-.25-.06-.27-.12-.22-.13-.24-.18-.28-.27-.27-.25-.16-.24-.12-.25-.09-.27-.18-.49-.1-.28,0-.27,0-.37v-.4l0-.27V91.9l0-.3,0-.37.06-.4.07-.27.09-.31,0-.18.09-.31.09-.27.28-.74.09-.27.24-.49.19-.34.15-.34.18-.3.13-.16.18-.24.31-.43Zm6.24-1.07-.58,0h-.28l-.27.06-.31.06-.18.06-.31.12-.27.1-.28.12-.24.15-.22.15-.21.19-.22.21-.42.37-.19.18-.18.22-.37.45-.15.22-.15.27-.37.68-.15.24L123,89l-.09.27-.09.25-.12.27-.18.74-.1.27-.06.4,0,.37,0,.3.06.4.06.49.06.4.1.27.15.22.18.18.22.18.27.12.37.07.37,0,.3-.13.18-.09.28-.15.21-.15.37-.37.22-.25.18-.21.21-.21.16-.22.15-.24.18-.28.22-.37.21-.27.12-.25.13-.27.09-.25.12-.27.15-.37.16-.33.12-.28L128,89l.43-1.29.12-.4.24-1,.1-.39.09-.31.06-.33-.09-.28-.22-.12Z"/><path class="cls-1" d="M144.66,88.48l-.16.21-.36.43-.43.37-.21.15-.28.15-.18.06-.31.19-.18.09-.28.12-.3.09-.28.09-.27,0-.31.06-.34,0-.36.06-.28,0h-.27l-.55-.06-.55,0-.28,0-.83-.18h-.21l-.15.12-.06.22V91l0,.31v.52l0,.3.06.25.18.55.31.49.18.21.18.19.49.3.31.09.27.1.22,0,.27.06.28,0h.3l.28,0,.79-.15.28-.07.27-.09.25-.09.52-.21.49-.25.43-.33.21-.16.22-.18.42-.4.37-.43.15-.21.19-.25.3-.42.16-.25.12-.24.15-.25.12-.24.16-.22.12-.24.12-.28.12-.24.16-.25.21-.15h.28l.27.18.15.28,0,.28-.12.27-.15.34-.19.33-.15.34-.18.34-.19.3-.3.49-.09.18-.19.28-.3.43-.19.21-.18.19-.18.21-.22.24-.09.13-.21.24-.19.22-.42.36-.31.25-.28.24-.48.31-.77.33-.24.1-.28.09-.4.06-.36.09-.65.06-.39,0-.34,0h-.28l-1.1-.12L137.9,96l-.28-.09-.27-.12-.25-.13-.49-.27-.24-.12-.22-.19-.21-.21-.12-.15-.22-.25-.18-.21-.15-.25-.12-.21-.13-.28-.09-.24-.09-.28-.06-.27-.06-.25-.06-.27-.09-.83V90.8l0-.28v-.27l.18-.83.09-.24.06-.28.09-.27.06-.28.1-.27.12-.34.15-.37.15-.27.19-.34.21-.3.12-.28.16-.21.18-.22.46-.49.46-.45.24-.22.28-.21.3-.22.28-.21.31-.18.3-.16.28-.12.39-.18.65-.22L141,83l.39-.06H142l.4.06.48.09.4.09.28.1.27.12.25.12.18.12.43.37.18.21.19.31.15.37.09.27.06.28,0,.27v.37l0,.4,0,.3-.09.37-.12.37-.13.3-.09.16-.15.27Zm-3.73-3.67-.43.18-.37.18-.24.16-.43.36-.28.28-.24.27-.22.25-.21.33-.21.31-.16.28-.18.33-.12.37-.13.27-.09.25,0,.21.16.16.39.09.62,0,.3,0h.86l.3-.06.28-.06.3-.13.19-.06.3-.15.22-.15.21-.19.22-.21.21-.18.18-.25.16-.21.12-.25.15-.27.19-.55.06-.31,0-.27,0-.31-.13-.28-.18-.21-.24-.18-.28-.13-.28-.06-.27,0-.31.06Z"/><path class="cls-1" d="M161.78,81.11l-.15.27-.24.49-.16.34-.21.33-.15.22-.16.24-.15.22-.15.27-.12.18-.16.25-.21.27-.28.31-.27.27-.12.16-.22.24-.4.4-.18.21-.34.37-.21.18-.24.25-.34.24-.46.4-.24.15-.68.43-.21.09-.25.16-.33.27-.22.28-.12.24-.06.34-.09.55v.18l-.06.31-.06.27,0,.31v.64l0,.4v.61l.06.34,0,.18.06.31.12.27.12.25.19.21.24.15.25.1.3.06h.52l.25,0,.27-.09.37-.16.33-.18.25-.18.31-.25.27-.27.37-.34.24-.22.19-.24.12-.15.18-.25.12-.21.19-.28.12-.15.18-.28.25-.45.15-.25.18-.27.16-.28.15-.3.27-.4.31-.25.4.06.24.31v.31l-.09.27L162,90l-.15.24-.13.28-.12.24-.09.24-.15.25-.13.21-.15.25-.18.27-.06.16-.16.27-.18.25-.31.42-.21.28-.12.12-.22.28-.18.21-.24.31-.28.24-.21.22-.19.15-.21.18-.28.16-.24.12-.28.12-.24.12-.25.09-.27.13-.37.12-.61.12-.37,0-.33,0h-.19l-.3,0-.28-.06-.24-.09-.28-.09-.24-.13-.25-.15-.21-.18-.18-.19-.19-.21-.12-.24-.12-.28-.09-.24-.07-.28-.09-.28,0-.27-.06-.31v-.18l-.06-.34,0-.27V92l0-.27,0-.31v-.18l0-.4.09-.67,0-.37v-.27l.06-.28.07-.31.21-1,.09-.37.09-.55.06-.16.1-.36.06-.19.12-.45.09-.4.06-.28.09-.36.13-.43,0-.22.12-.42.12-.4.09-.22.13-.39.12-.37.12-.28.31-.79.06-.18.18-.43.22-.49.15-.37.12-.27.09-.19.16-.27.21-.52.15-.31.16-.28.18-.27.24-.4.4-.55.18-.24.4-.4.12-.15.22-.22.21-.15.49-.34.34-.21.34-.15.27-.1.28-.06h.55l.3.06.18,0,.31.09.25.12.42.37.16.24.21.31.15.36.13.28.12.37.06.39v.55l-.06.83-.12.55-.1.25-.06.3-.24.73-.12.25Zm-5.07.85-.43,1.29-.06.27-.09.28-.13.39-.21.65-.09.3,0,.19-.09.3-.1.28-.06.3.06.19.19-.13L156,86l1.26-1.26.15-.21.15-.24.19-.28.12-.12.18-.28.22-.27.21-.31.22-.33.15-.25.12-.21.15-.22.25-.49.12-.3.09-.19.12-.3.13-.28.06-.27.09-.28.09-.33.12-.34.1-.34.12-.33,0-.31,0-.27v-.59l-.06-.24-.09-.24-.22-.16-.24-.06-.28.06-.27.22-.22.18-.15.18-.15.22-.16.24-.3.46-.15.28-.13.27-.12.25-.12.27-.12.25-.13.27-.09.25-.12.33-.18.46-.13.28Z"/><path class="cls-1" d="M169.49,94.38l-.43.37-.48.3-.25.12-.49.31-.24.12-.55.19-.31.09-.55.09L166,96l-.31.06-.25,0h-.27l-.34,0h-.27l-.55-.06-.34-.09-.27-.09-.22-.09-.27-.1-.25-.12-.49-.3-.21-.19-.37-.43-.15-.24-.12-.24-.16-.25L161,93.4l-.12-.55-.06-.55,0-.31,0-.27v-.86l.06-.27.06-.25.06-.27.09-.55.06-.31.06-.28.1-.24.09-.28.12-.27.12-.25.09-.27.16-.37.18-.36.15-.25.19-.24.15-.22.18-.21.31-.49.18-.22.4-.39.43-.37.21-.15.25-.19.27-.18.34-.21.33-.19.25-.12.31-.12.18-.06.34-.13.18-.06L167,83l.28-.06.31,0,.27,0h.71l.48.06.4.06.28.06.27.09.25.13.55.33.33.19.22.18.15.18.18.22.19.24.37.68.09.27,0,.28,0,.24.12.55v1.07l-.06.37,0,.33,0,.31-.19.92-.12.43-.09.3-.12.31-.12.33-.1.28-.18.34-.28.55-.15.33,0,.22.25,0h.18l.34,0,.21,0,.28-.06.3-.13.22-.12.49-.31.21-.18.4-.4.36-.42.16-.22.15-.24.15-.22.25-.49.27-.52.09-.18.19-.28.27-.15.37.06.25.28,0,.33-.1.28-.36.73-.16.22-.3.49-.12.24-.16.22-.18.24-.15.21-.19.19-.39.43-.19.18-.21.18-.22.16-.24.18-.21.12-.49.25-.28.12-.24.06-1.11.12-.33,0-.28,0-.24-.06-.25,0-.21.09-.21.15ZM163.44,91l0,.37,0,.31,0,.4.06.48.12.49.22.46.21.31.24.21.34.16.46.12h.4l.3,0,.31-.06.27-.13.25-.12.27-.15.25-.15.21-.19.25-.18.12-.22v-.18l-.12-.21-.16-.25-.06-.27.06-.37.13-.37.21-.18.25-.15.27,0,.28.06.21.06.18,0,.13-.19.09-.24.36-1.1.19-.83.06-.39.09-.52.06-1,0-.49-.12-.52-.18-.46-.22-.31-.24-.18-.37-.16-.46-.09-.4,0h-.3l-.25.06-.27.1-.31.18-.24.15-.28.19-.3.24-.22.18-.21.22-.16.21-.18.22-.15.24-.31.43-.15.24L164,88.54l-.09.27-.06.25-.19.55-.06.24-.09.28,0,.27v.28Z"/><path class="cls-1" d="M185.18,83.12l.31,0,.3,0,.28,0,.3.07.25.09.24.15.13.24-.1.37-.21.64-.24.49-.1.28-.06.24-.09.28-.12.24-.12.55-.09.28-.1.24-.09.31-.09.27-.06.22-.09.27-.06.25-.07.27-.09.28L185,90l-.09.36-.09.4-.1.31-.06.36-.06.4,0,.31v.27l0,.28V93l.06.55.09.28.16.21.21.12.28,0,.24,0,.28-.12.42-.3.22-.22.21-.18.22-.15.36-.43.31-.43.18-.25.19-.21.12-.21.12-.28.15-.24.16-.28.12-.15.18-.31.16-.3.15-.34.27-.55.19-.25.24-.15.37.09.24.31,0,.31-.09.27-.12.25-.15.21-.16.24-.24.49-.09.28-.12.24-.31.49-.15.22-.31.49-.15.21-.37.43-.15.21-.19.25-.36.43-.4.36-.18.19-.43.36-.49.31-.74.37-.55.12-.27,0-.37,0-.37-.09-.3-.13-.28-.24-.24-.28-.18-.27-.16-.37-.12-.49-.06-.49,0-.39,0-.31.06-.31,0-.12-.09.15-.16.25-.3.43-.18.24-.55.64-.59.59-.18.21-.21.15-.25.15-.49.28-.49.25-.27.09-1.1.24-.28,0-.27,0-.31,0-.27,0-.22-.06-.27-.09-.25-.12-.43-.31-.21-.22-.31-.42-.12-.28-.09-.24,0-.28,0-.3v-.83l0-.28.06-.27,0-.28.06-.27,0-.28.06-.36.09-.4.13-.55.09-.28.09-.36.21-.65.1-.24.06-.28.09-.27,0-.25.43-1.28.09-.31.34-1,.09-.24.09-.28.15-.36.09-.37.1-.27.12-.25.21-.15.28-.12.27-.07.31-.06.27,0,.28.06.27.1.25.12.12.18v.25l-.06.27-.09.28-.06.24-.19.55-.12.31,0,.18-.12.37-.09.15-.1.34-.09.27-.09.4-.12.4-.06.18-.12.34-.1.27-.06.28-.09.24-.12.55,0,.28-.06.28-.09.27-.13.55-.06.25-.09.27-.06.28-.09.39-.06.49v.55l.06.49.24.43.4.25.37.06.55-.13.24-.12.22-.09.24-.12.28-.15.24-.16.43-.36.18-.19.55-.64.16-.21.18-.28.18-.31.22-.33.24-.49.15-.28.13-.24.12-.28.09-.24.09-.28.09-.24.1-.28.09-.24.12-.28.09-.24.12-.55.1-.28.09-.24.09-.28.09-.24.12-.28.06-.27.07-.25.18-.55.09-.24.18-.55.07-.25.09-.27.12-.25.15-.24.22-.15Z"/><path class="cls-1" d="M191.21,82.39l-.28-.83,0-.27V81l.06-.27.13-.28.15-.21.18-.22.22-.18.24-.12.28-.06h.27l.28.06.24.15.18.18.13.25.09.27v.83l-.06.31V82l.06.25.15.21.22.21.21.19.21.24.34.4.21.18.4.4.22.25.12.15.21.24.22.19.18.21.31.49.09.28.09.36.09.4,0,.28-.09.27-.12.25-.19.21-.3.49-.19.21-.15.25-.15.21-.18.25-.16.24-.18.25-.15.24-.52,1-.1.28-.09.24-.06.28-.06.3-.06.28,0,.27v.31l.12.61.15.24.16.28.21.18.24.16.31.06h.58l.28-.06.27-.1.28-.12.21-.15.46-.31.24-.18.22-.18.18-.19.19-.24.55-.64.46-.74.15-.21.15-.28.15-.24.13-.25.15-.27.09-.19.18-.33.13-.25.09-.24.12-.25.28-.15.39.09.28.31v.33l-.09.28-.25.52-.12.24-.15.25-.25.49-.3.49-.16.27-.12.16-.15.27-.31.49-.36.49-.25.34-.21.3-.37.43-.21.18-.37.37-.25.18-.27.19-.49.24-.28.13-.24.12-.28.09-.24.06-.31.06h-.7l-.4,0-.61-.12-.24-.09-.31-.16-.46-.3-.21-.19-.19-.18-.18-.24-.15-.22-.12-.27-.13-.25-.06-.27-.06-.31-.06-.27,0-.28v-.27l.12-1.11.09-.27.1-.25.12-.27.15-.34.18-.33.16-.28.21-.34.21-.3.16-.28.18-.33.25-.34.18-.24.24-.43L194,87l.15-.34.1-.46-.07-.36-.3-.49-.19-.25-.48-.55-.19-.21-.24-.19-.25.06-.12.28-.06.28-.09.27-.06.28-.07.24-.09.28-.27.73-.09.28-.1.24-.09.28-.15.36-.15.34-.13.27-.15.37-.15.34-.15.3-.16.34-.18.34-.15.24-.19.15h-.27l-.25-.15-.18-.21,0-.25.09-.27.12-.28.1-.24.09-.28.24-.55.09-.18.13-.31.12-.24.09-.28.12-.27.09-.28.1-.24.24-.55.06-.28.09-.27.07-.28.12-.28.06-.27.06-.25.06-.27.09-.28.06-.3v-.28l-.06-.24Z"/><path class="cls-1" d="M201.91,86l.22-.22.36-.42.65-.56.21-.15.25-.18.21-.15.24-.13.28-.12.46-.24.27-.16.55-.18.25-.09.55-.12.27,0,.31,0,.55-.06h.7l.4.06.34.07.21,0,.19-.1.12-.21.06-.27.18-.56.06-.24.1-.28.21-.51.09-.31.06-.18.13-.31.06-.25.18-.55.09-.24.31-.92.15-.37.18-.55.1-.24.12-.31.06-.18.24-.55.1-.24.27-.52.12-.25.28-.21.34-.13h.3l.28,0,.3.06.19.06.3.09.22.15.09.25-.06.24-.07.28-.12.27-.12.25-.09.24-.09.28-.16.36-.12.37-.12.34-.37,1-.12.36-.15.37-.09.27-.1.25-.21.64-.15.37-.1.3-.33,1-.06.28-.1.24-.09.28-.09.24-.09.28-.09.24-.06.28-.06.24-.07.28-.09.27-.09.25-.09.27-.06.28-.06.24-.06.28-.1.27-.09.4-.12.4-.06.18-.09.34-.06.28-.07.36-.06.4-.18.83,0,.27-.06.28L210,91l-.06.37,0,.28-.07.27,0,.28v.27l0,.31,0,.4.1.36.09.28.18.18.25.09.27,0L211,94l.27-.09.25-.15.55-.49.21-.22.31-.42.3-.49.43-.62.15-.24.13-.24.15-.28.3-.67.16-.28.12-.21.12-.28.16-.33.33-.25.37.06.21.31v.4l-.15.36-.15.31-.19.34-.18.39-.12.19-.37.73-.18.28-.4.64-.31.49-.15.21-.18.25L213,94l-.18.18-.21.19-.22.24-.12.12-.21.25-.22.18-.24.16-.22.12-.24.12-.8.28-.27.06h-.25l-.27,0-.28,0-.27-.06-.25-.13-.24-.15-.19-.15-.21-.22-.31-.42-.12-.25-.09-.27-.06-.25-.09-.83v-.58l-.06,0-.16.22L207,93l-.27.49-.16.22-.18.21-.34.43-.18.18-.64.55-.28.22-.3.24-.28.18-.24.13-.31.09-.7.15-.31.06-.27,0-.25,0-.27,0-.28-.06-.24-.06-.28-.12-.21-.13-.25-.18-.27-.27-.28-.25-.15-.24-.12-.25-.1-.27-.18-.49-.09-.28,0-.27,0-.37v-.4l0-.27V91.9l0-.3,0-.37.06-.4.06-.27.09-.31,0-.18.09-.31.1-.27.27-.74.09-.27.25-.49.18-.34.15-.34.19-.3.12-.16.18-.24.31-.43Zm6.24-1.07-.58,0h-.27L207,85l-.31.06-.18.06-.3.12-.28.1-.27.12-.25.15-.21.15-.22.19-.21.21-.43.37-.18.18-.19.22-.36.45-.16.22-.15.27-.37.68-.15.24-.09.25-.09.27-.1.25-.12.27-.18.74-.09.27-.06.4,0,.37,0,.3.07.4.06.49.06.4.09.27.15.22.19.18.21.18.28.12.36.07.37,0,.31-.13.18-.09.28-.15.21-.15.37-.37.21-.25.18-.21.22-.21.15-.22.15-.24.19-.28.21-.37.21-.27.13-.25.12-.27.09-.25.12-.27.16-.37.15-.33.12-.28.09-.24.43-1.29.12-.4.25-1,.09-.39.09-.31.06-.33-.09-.28-.21-.12Z"/><path class="cls-1" d="M224.36,88.48l-.15.21-.37.43-.43.37-.21.15-.28.15-.18.06-.31.19-.18.09-.27.12-.31.09-.27.09-.28,0-.31.06-.33,0-.37.06-.27,0h-.28l-.55-.06-.55,0-.28,0-.82-.18h-.22l-.15.12-.06.22V91l0,.31v.52l0,.3.06.25.18.55.31.49.18.21.19.19.49.3.3.09.28.1.21,0,.28.06.27,0H220l.27,0,.8-.15.27-.07.28-.09.24-.09.52-.21.49-.25.43-.33.22-.16.21-.18.43-.4.37-.43.15-.21.18-.25.31-.42.15-.25.12-.24.16-.25.12-.24.15-.22.12-.24.13-.28.12-.24.15-.25.21-.15h.28l.27.18.16.28,0,.28-.13.27-.15.34-.18.33-.15.34-.19.34-.18.3-.31.49-.09.18-.18.28-.31.43-.18.21-.18.19-.19.21-.21.24-.09.13-.22.24-.18.22-.43.36-.31.25-.27.24-.49.31-.77.33-.24.1-.28.09L221,96l-.37.09-.64.06-.4,0-.34,0H219l-1.1-.12L217.6,96l-.27-.09-.28-.12-.24-.13-.49-.27-.25-.12-.21-.19-.21-.21-.13-.15-.21-.25-.18-.21L215,94l-.12-.21-.12-.28-.09-.24-.1-.28-.06-.27-.06-.25-.06-.27-.09-.83V90.8l0-.28v-.27l.18-.83.09-.24.07-.28.09-.27.06-.28.09-.27.12-.34.16-.37.15-.27.18-.34.22-.3.12-.28L216,86l.19-.22.45-.49.46-.45.25-.22.27-.21.31-.22.27-.21.31-.18.31-.16.27-.12.4-.18.64-.22.55-.12.4-.06h.67l.4.06.49.09.4.09.27.1.28.12.24.12.18.12.43.37.19.21.18.31.15.37.1.27.06.28,0,.27v.37l0,.4,0,.3-.1.37-.12.37-.12.3-.09.16-.16.27Zm-3.73-3.67-.43.18-.36.18-.25.16-.43.36-.27.28-.25.27-.21.25-.22.33-.21.31-.15.28-.19.33-.12.37-.12.27-.09.25,0,.21.15.16.4.09.61,0,.3,0h.86l.31-.06.27-.06.31-.13.18-.06.31-.15.21-.15.22-.19.21-.21.21-.18.19-.25.15-.21.12-.25.16-.27.18-.55.06-.31,0-.27,0-.31-.12-.28-.19-.21-.24-.18-.28-.13-.27-.06-.28,0-.3.06Z"/><path class="cls-1" d="M240.79,90l-.13.28-.12.24-.15.25-.12.24-.16.28-.15.24-.15.22-.74.85-.21.22-.21.18-.22.15-.24.19-.22.15-.27.12-.25.13-.27.09-.22.06-.27.06-.37.06L236,94l-.21,0h-.31l-.27,0H235l-.19.09-.15.19-.15.21-.22.22L234,95l-.31.24-.27.19-.34.18-.31.19-.27.12-.4.09-.49.09-.52,0-.4,0h-.3l-.31,0-.27-.09-.22-.09-.27-.12-.28-.16-.46-.33-.21-.19-.22-.21-.45-.74-.1-.27-.18-.83,0-.3v-.55l.06-.31.18-.34.37-.3.46-.12.37,0,.18.18,0,.25v.27l0,.28,0,.27.12.55.13.25.15.24.15.22.19.21L230,94l.24.12.25.1.27.06h.31l.24,0,.28-.09.21-.13.25-.18.21-.18.16-.31v-.31l-.16-.21-.18-.24-.12-.25,0-.31,0-.27.15-.28.18-.18.46-.31.12-.15v-.21l-.06-.28-.09-.27-.09-.25-.09-.27-.06-.25-.09-.27-.1-.25-.09-.27-.09-.25-.12-.24-.09-.25-.1-.27-.09-.25-.09-.27-.09-.25-.09-.27-.09-.25-.1-.3-.12-.37-.09-.37-.09-.27-.06-.28,0-.24,0-.28-.07-.18-.18.06-.43.43-.18.21-.31.43-.15.25-.15.21-.34.61-.18.34-.12.27-.16.22-.12.24-.12.22-.13.24-.18.4-.18.34-.12.27-.28.49-.12.24-.12.28-.19.34-.24.27-.28.06-.3-.15L226,90l0-.28.07-.28.24-.48.15-.28.09-.18.16-.28.12-.27.09-.25.37-.73.15-.25.12-.27.19-.34.21-.34.15-.27.16-.25.12-.24.15-.28.13-.15.15-.27.15-.22.74-.85.36-.4.19-.22.21-.21.21-.18.49-.31.28-.12.3-.09.28-.06.24,0,.28,0,.27.06.25.15.18.21.09.25v.27l-.06.28-.12.24-.15.25-.06.24,0,.28.06.36.09.37.06.31.15.4.16.48.18.49.34.86.12.28.12.36.18.34.13.27.09.25.09.27.28.74.09.27.06.4.06.49.06.4,0,.3v.77l0,.24.09.16.25.06H236l.55-.06.55-.19.25-.09.49-.3.21-.19.43-.4.4-.39.15-.22.61-1,.13-.24.12-.28.09-.24.15-.25.28-.18.36.09.28.31v.3l-.09.28Z"/><path class="cls-1" d="M82.9,103.65H81.78v2.46h-.66v-5.83h1.69c1.19,0,1.94.43,1.94,1.66S84.08,103.65,82.9,103.65Zm-.11-2.86h-1v2.35h1c.8,0,1.25-.27,1.25-1.2S83.57,100.79,82.79,100.79Z"/><path class="cls-1" d="M88.83,106.11v-5.83h.66v5.29h2.67v.54Z"/><path class="cls-1" d="M99.61,106.11,99,104.37H96.59l-.66,1.74h-.7l2.37-5.83h.55l2.2,5.83Zm-1.77-5-1.06,2.77h2Z"/><path class="cls-1" d="M105.49,100.8v5.31h-.66V100.8h-1.72v-.52h4.11v.52Z"/><path class="cls-1" d="M111,106.11v-5.83h3.23v.51H111.7v2h2.38v.51H111.7v2.25h2.65v.51Z"/><path class="cls-1" d="M121.77,106.11l-1.92-2.6h-.61v2.6h-.66v-5.83h1.82c.93,0,1.86.35,1.86,1.57a1.51,1.51,0,0,1-1.64,1.64l2,2.62Zm-1.32-5.32h-1.21V103h1.22a1,1,0,0,0,1.12-1.14A1,1,0,0,0,120.45,100.79Z"/><path class="cls-1" d="M126.54,99.87h-.47l.86-1.05h.67Zm-.07,6.24v-5.83h.66v5.83Z"/><path class="cls-1" d="M135.28,106.11l-.62-1.74h-2.4l-.66,1.74h-.69l2.37-5.83h.54l2.2,5.83Zm-1.76-5-1.07,2.77h2Z"/><path class="cls-1" d="M150,106.11V101l-2,5.12h-.54l-2-5.12v5.12h-.6v-5.83h1l1.9,4.91,1.92-4.91h1v5.83Z"/><path class="cls-1" d="M155.07,106.11v-5.83h3.23v.51h-2.57v2h2.38v.51h-2.38v2.25h2.65v.51Z"/><path class="cls-1" d="M165.8,106.11l-1.49-2.5-1.58,2.5H162l2-3-1.7-2.82H163l1.34,2.24,1.41-2.24h.71l-1.79,2.77,1.91,3.06Z"/><path class="cls-1" d="M170.43,106.11v-5.83h.66v5.83Z"/><path class="cls-1" d="M177.57,106.26c-1.78,0-2.43-1.28-2.43-3.06,0-1.62.58-3,2.48-3a4.64,4.64,0,0,1,1.42.21l-.22.58a3,3,0,0,0-1.2-.28c-1.41,0-1.8,1.15-1.8,2.5s.41,2.56,1.75,2.56a3.4,3.4,0,0,0,1.31-.32l.22.57A4.32,4.32,0,0,1,177.57,106.26Z"/><path class="cls-1" d="M186.84,106.11l-.62-1.74h-2.4l-.66,1.74h-.69l2.37-5.83h.54l2.2,5.83Zm-1.77-5L184,103.88h2Z"/><path class="cls-1" d="M194.81,106.11l-2.75-5.06v5.06h-.6v-5.83h.94l2.73,5.06v-5.06h.64v5.83Z"/><path class="cls-1" d="M204,106.11l-.62-1.74H201l-.66,1.74h-.69l2.37-5.83h.54l2.2,5.83Zm-1.77-5-1.06,2.77h2Z"/></svg>