<svg id="Layer_1" data-name="Layer 1" xmlns="http://www.w3.org/2000/svg" viewBox="0 0 288 107"><defs><style>.cls-1{fill:#c1c7d0;}</style></defs><title>Artboard 49 copy 23</title><path class="cls-1" d="M68,99.84V7.16H220V99.84Zm71.52-76.79a30.86,30.86,0,0,0-29.15,41.51c7.32,20.18,33.14,26.74,49.36,12.57,1.52-1.34,2-2.38.27-3.91s-2.93-3.08-4.38-4.64c-2.35-2.52-2.35-2.52-5-.41A18.16,18.16,0,1,1,151,39.94c1.72,1.4,2.77,1.46,4.18-.26a58.77,58.77,0,0,1,4.9-5.21c1.47-1.41,1.32-2.46-.19-3.75A30.72,30.72,0,0,0,139.52,23.05Zm45.35,1.37h-2.56c-4.77,0-4.69,0-5.77,4.73-2.36,10.29-4.82,20.56-7.23,30.84-1.59,6.8-3.14,13.61-4.76,20.4-.51,2.14.16,3,2.39,2.93,2.38-.1,4.78-.06,7.16,0,1.74,0,2.56-.63,2.93-2.41,1.33-6.47,1.39-6.45,8.11-6.46,5.86,0,5.86,0,7,5.93,0,.16.07.33.1.5a2.5,2.5,0,0,0,2.94,2.44c2.3-.08,4.6,0,6.9,0,3.17,0,3.32-.31,2.57-3.48q-5.72-24.24-11.4-48.49C191.26,23.07,192.64,24.6,184.87,24.42ZM88.19,53.76c0,8.87.06,17.73,0,26.6,0,2.21.73,3.1,3,3s4.6,0,6.9,0c1.69,0,2.49-.71,2.45-2.47-.06-3.15,0-6.31,0-9.46q0-21.73,0-43.47c0-3.23-.25-3.46-3.5-3.49q-2.69,0-5.37,0c-3.29,0-3.38.11-3.38,3.51Q88.19,40.85,88.19,53.76Z"/><path class="cls-1" d="M185,42.84c.46,2.46.93,4.92,1.39,7.38.8,4.27,1.56,8.55,2.4,12.81.3,1.54-.14,2.15-1.77,2.25-6.9.41-7,.43-5.85-6.21.92-5.43,2.05-10.82,3.08-16.23Z"/></svg>