<svg id="Layer_1" data-name="Layer 1" xmlns="http://www.w3.org/2000/svg" viewBox="0 0 288 107"><defs><style>.cls-1{fill:#c1c7d0;}</style></defs><title>Artboard 49 copy 2</title><path class="cls-1" d="M166.07,71.34h1.08v8.45a8.08,8.08,0,0,1-.19,1.8,3.85,3.85,0,0,1-.68,1.51,3.42,3.42,0,0,1-1.33,1,5.3,5.3,0,0,1-2.19.39,5.15,5.15,0,0,1-1.77-.27,3.84,3.84,0,0,1-1.21-.65,3.1,3.1,0,0,1-.72-.88,2.39,2.39,0,0,1-.26-.89H160a2.1,2.1,0,0,0,.4.85,1.91,1.91,0,0,0,.64.53,3,3,0,0,0,.82.26,5.69,5.69,0,0,0,.94.07,3.63,3.63,0,0,0,1.77-.38,2.53,2.53,0,0,0,1-1,3.72,3.72,0,0,0,.44-1.39,10.45,10.45,0,0,0,.09-1.59,3.44,3.44,0,0,1-1.44,1.31,4.38,4.38,0,0,1-1.91.44,4,4,0,0,1-1.85-.41,3.8,3.8,0,0,1-1.3-1.08,4.75,4.75,0,0,1-.77-1.58,6.88,6.88,0,0,1-.25-1.88,7.45,7.45,0,0,1,.24-1.93,4,4,0,0,1,.75-1.57,3.61,3.61,0,0,1,1.3-1,4.57,4.57,0,0,1,1.94-.38,3.71,3.71,0,0,1,.92.13,4.42,4.42,0,0,1,.91.36,3.68,3.68,0,0,1,.82.6,3.41,3.41,0,0,1,.6.81h0Zm0,4.71a5.75,5.75,0,0,0-.21-1.58,3.7,3.7,0,0,0-.61-1.26,2.68,2.68,0,0,0-1-.84,2.87,2.87,0,0,0-1.36-.31,3.29,3.29,0,0,0-1.26.24,2.88,2.88,0,0,0-1,.72,3.23,3.23,0,0,0-.68,1.14,4.75,4.75,0,0,0-.24,1.57,5.87,5.87,0,0,0,.14,1.65,3.92,3.92,0,0,0,.58,1.35,2.85,2.85,0,0,0,1,.91,3.06,3.06,0,0,0,1.46.33,2.75,2.75,0,0,0,1.33-.31,3.15,3.15,0,0,0,1-.85,3.85,3.85,0,0,0,.62-1.25A5.3,5.3,0,0,0,166.07,76.05Z"/><path class="cls-1" d="M170.55,76.27a4.87,4.87,0,0,0,.2,1.44,3.38,3.38,0,0,0,.58,1.17,2.89,2.89,0,0,0,1,.8,3.14,3.14,0,0,0,1.37.29,3,3,0,0,0,1.83-.56,2.71,2.71,0,0,0,1-1.59h1.21a5.52,5.52,0,0,1-.53,1.24,3.71,3.71,0,0,1-.81,1,3.41,3.41,0,0,1-1.15.65,4.65,4.65,0,0,1-1.56.24,4.55,4.55,0,0,1-1.93-.38,3.65,3.65,0,0,1-1.34-1,4.44,4.44,0,0,1-.78-1.55,7,7,0,0,1-.25-1.93,6.1,6.1,0,0,1,.3-1.93,4.9,4.9,0,0,1,.85-1.58,4,4,0,0,1,1.34-1.07,4.08,4.08,0,0,1,1.81-.39,3.76,3.76,0,0,1,3,1.33,5.88,5.88,0,0,1,1.08,3.86Zm6.1-.9a4.26,4.26,0,0,0-.19-1.3,2.82,2.82,0,0,0-.56-1,2.56,2.56,0,0,0-.93-.71,3,3,0,0,0-1.28-.26,2.83,2.83,0,0,0-1.27.27,2.91,2.91,0,0,0-.94.72,3.67,3.67,0,0,0-.63,1,5.24,5.24,0,0,0-.3,1.27Z"/><path class="cls-1" d="M180.56,77.77a2.75,2.75,0,0,0,.91,1.71,3.11,3.11,0,0,0,1.89.49,3.17,3.17,0,0,0,1-.14,2.18,2.18,0,0,0,.71-.39,1.72,1.72,0,0,0,.43-.55,1.62,1.62,0,0,0,.14-.65,1.2,1.2,0,0,0-.44-1,3.58,3.58,0,0,0-1.11-.53c-.45-.12-.93-.23-1.45-.32a6.9,6.9,0,0,1-1.44-.41,3,3,0,0,1-1.12-.77,2.14,2.14,0,0,1-.44-1.43,2.45,2.45,0,0,1,.86-1.93,3.57,3.57,0,0,1,2.43-.75,4.19,4.19,0,0,1,2.47.68A3.1,3.1,0,0,1,186.57,74h-1.1a2.06,2.06,0,0,0-.82-1.53,3.1,3.1,0,0,0-1.71-.44,2.47,2.47,0,0,0-1.57.44,1.45,1.45,0,0,0-.54,1.17,1.13,1.13,0,0,0,.44,1,3.6,3.6,0,0,0,1.11.55c.45.14.93.26,1.45.37a6.94,6.94,0,0,1,1.44.46,3,3,0,0,1,1.11.8,2.06,2.06,0,0,1,.45,1.41,2.37,2.37,0,0,1-.29,1.18,2.53,2.53,0,0,1-.8.86,3.76,3.76,0,0,1-1.2.52A6.57,6.57,0,0,1,183,81a4.2,4.2,0,0,1-1.47-.24,3.17,3.17,0,0,1-1.8-1.69,3.68,3.68,0,0,1-.28-1.25Z"/><path class="cls-1" d="M192.25,80.73l-.53.13A2.63,2.63,0,0,1,191,81a1.75,1.75,0,0,1-1.24-.41,2,2,0,0,1-.42-1.45V72.24H188v-.9h1.32V68.73h1.08v2.61h1.75v.9h-1.75v6.41c0,.23,0,.43,0,.6a1,1,0,0,0,.11.42.54.54,0,0,0,.28.23,1.47,1.47,0,0,0,.53.07,3.25,3.25,0,0,0,.44,0l.45-.09Z"/><path class="cls-1" d="M197.7,81a4.75,4.75,0,0,1-1.69-.33,3.72,3.72,0,0,1-1.37-.92,4.48,4.48,0,0,1-.93-1.53,6.14,6.14,0,0,1-.34-2.15,6.67,6.67,0,0,1,.27-1.93,4.54,4.54,0,0,1,.81-1.56,3.77,3.77,0,0,1,1.36-1.06,4.31,4.31,0,0,1,1.89-.39,4.39,4.39,0,0,1,1.92.39,3.91,3.91,0,0,1,1.35,1,4.29,4.29,0,0,1,.81,1.56A7.16,7.16,0,0,1,202,76a6.12,6.12,0,0,1-.31,2,4.43,4.43,0,0,1-.87,1.55,3.86,3.86,0,0,1-1.38,1A4.45,4.45,0,0,1,197.7,81ZM200.88,76a6.48,6.48,0,0,0-.18-1.56,3.49,3.49,0,0,0-.56-1.25,2.62,2.62,0,0,0-1-.84,3.13,3.13,0,0,0-1.47-.31,3,3,0,0,0-1.45.33,3,3,0,0,0-1,.89,4,4,0,0,0-.56,1.26,6.06,6.06,0,0,0-.18,1.48,5.79,5.79,0,0,0,.21,1.6,3.74,3.74,0,0,0,.61,1.25,2.61,2.61,0,0,0,1,.81,3.39,3.39,0,0,0,2.83,0,2.8,2.8,0,0,0,1-.89,3.94,3.94,0,0,0,.56-1.27A5.9,5.9,0,0,0,200.88,76Z"/><path class="cls-1" d="M205.17,80.7h-1.09V71.34h1.09v1.75h0a3.07,3.07,0,0,1,1.17-1.56,3.46,3.46,0,0,1,1.88-.45v1.18a3.09,3.09,0,0,0-1.51.29,2.4,2.4,0,0,0-1,.83,3.19,3.19,0,0,0-.49,1.24,8,8,0,0,0-.13,1.49Z"/><path class="cls-1" d="M209.34,70.33l2-2.52h1.4l-2.48,2.52Zm.81,10.37V71.34h1.09V80.7Z"/><path class="cls-1" d="M218.36,75.24c.2,0,.44-.06.73-.11a2.59,2.59,0,0,0,.69-.2.58.58,0,0,0,.34-.42,2.8,2.8,0,0,0,.06-.55,1.88,1.88,0,0,0-.53-1.37,2.53,2.53,0,0,0-1.8-.53,4.74,4.74,0,0,0-1,.1,2.33,2.33,0,0,0-.82.34,1.92,1.92,0,0,0-.58.65,2.79,2.79,0,0,0-.3,1H214a3.33,3.33,0,0,1,.38-1.41,2.81,2.81,0,0,1,.84-1,3.32,3.32,0,0,1,1.19-.54,5.57,5.57,0,0,1,1.44-.18,5.7,5.7,0,0,1,1.33.16,3,3,0,0,1,1.08.49,2.19,2.19,0,0,1,.72.89,3.13,3.13,0,0,1,.26,1.37v5.1c0,.42.08.69.23.8s.45.09.91-.08v.85l-.37.11a1.59,1.59,0,0,1-.48.07,2.44,2.44,0,0,1-.48,0,.88.88,0,0,1-.44-.17,1.06,1.06,0,0,1-.26-.33,1.39,1.39,0,0,1-.14-.42,3.59,3.59,0,0,1,0-.47,4.72,4.72,0,0,1-1.57,1.15,4.56,4.56,0,0,1-1.92.4,4.2,4.2,0,0,1-1.18-.16,2.78,2.78,0,0,1-1-.51,2.42,2.42,0,0,1-.94-2q0-2.39,3.27-2.82Zm1.82.54a5.43,5.43,0,0,1-1.39.38q-.71.09-1.41.15a3.88,3.88,0,0,0-1.94.56,1.58,1.58,0,0,0-.7,1.42,1.6,1.6,0,0,0,.17.75,1.69,1.69,0,0,0,1.11.83,2.66,2.66,0,0,0,.75.1,4.84,4.84,0,0,0,1.26-.16,3.3,3.3,0,0,0,1.09-.5,2.48,2.48,0,0,0,.77-.84,2.53,2.53,0,0,0,.29-1.22Z"/><path class="cls-1" d="M235.75,74.28a3.1,3.1,0,0,0-1-1.63,2.72,2.72,0,0,0-1.79-.59,2.83,2.83,0,0,0-1.43.34,2.94,2.94,0,0,0-1,.92A4.12,4.12,0,0,0,230,74.6a5.78,5.78,0,0,0-.18,1.43,6.32,6.32,0,0,0,.17,1.45,3.92,3.92,0,0,0,.55,1.27,2.8,2.8,0,0,0,1,.89A2.92,2.92,0,0,0,233,80a2.77,2.77,0,0,0,1.94-.66,3.09,3.09,0,0,0,.93-1.85H237a5.63,5.63,0,0,1-.46,1.42,3.61,3.61,0,0,1-.81,1.1,3.48,3.48,0,0,1-1.19.72A4.7,4.7,0,0,1,233,81a4.58,4.58,0,0,1-1.93-.38,3.65,3.65,0,0,1-1.34-1,4.4,4.4,0,0,1-.78-1.56,7.52,7.52,0,0,1-.25-1.94,6.14,6.14,0,0,1,.28-1.87,5,5,0,0,1,.82-1.58,4.11,4.11,0,0,1,1.35-1.09,4.06,4.06,0,0,1,1.85-.41,4.16,4.16,0,0,1,2.63.78,3.63,3.63,0,0,1,1.26,2.42Z"/><path class="cls-1" d="M245.51,71.34h1.09V80.7h-1.09V79.4c-.14.16-.31.34-.49.52a3.47,3.47,0,0,1-.62.5,3.9,3.9,0,0,1-.82.38,3.64,3.64,0,0,1-1.09.15,4.22,4.22,0,0,1-1.57-.26,2.67,2.67,0,0,1-1-.73,3,3,0,0,1-.56-1.1,5.27,5.27,0,0,1-.17-1.36V71.34h1.08v6.14a2.74,2.74,0,0,0,.56,1.85,2.34,2.34,0,0,0,1.85.64,2.64,2.64,0,0,0,1.2-.26,2.51,2.51,0,0,0,.89-.73,3.46,3.46,0,0,0,.56-1.12,4.94,4.94,0,0,0,.2-1.43Z"/><path class="cls-1" d="M249.38,80.7v-13h1.08v13Z"/><path class="cls-1" d="M256.51,80.73l-.52.13a2.73,2.73,0,0,1-.72.09,1.73,1.73,0,0,1-1.24-.41,2,2,0,0,1-.42-1.45V72.24h-1.32v-.9h1.32V68.73h1.08v2.61h1.75v.9h-1.75v6.41c0,.23,0,.43,0,.6a1,1,0,0,0,.11.42.54.54,0,0,0,.28.23,1.47,1.47,0,0,0,.53.07l.44,0,.44-.09Z"/><path class="cls-1" d="M264.59,71.34h1.08V80.7h-1.08V79.4c-.14.16-.31.34-.49.52a3.47,3.47,0,0,1-.62.5,3.9,3.9,0,0,1-.82.38,3.64,3.64,0,0,1-1.09.15,4.22,4.22,0,0,1-1.57-.26,2.67,2.67,0,0,1-1-.73,3,3,0,0,1-.56-1.1,5.27,5.27,0,0,1-.17-1.36V71.34h1.08v6.14a2.74,2.74,0,0,0,.56,1.85,2.34,2.34,0,0,0,1.85.64,2.64,2.64,0,0,0,1.2-.26,2.51,2.51,0,0,0,.89-.73,3.46,3.46,0,0,0,.56-1.12,4.94,4.94,0,0,0,.2-1.43Z"/><path class="cls-1" d="M269.43,80.7h-1.08V71.34h1.08v1.75h0a3.11,3.11,0,0,1,1.16-1.56,3.53,3.53,0,0,1,1.89-.45v1.18a3.15,3.15,0,0,0-1.52.29,2.44,2.44,0,0,0-.94.83,3.19,3.19,0,0,0-.49,1.24,7.93,7.93,0,0,0-.14,1.49Z"/><path class="cls-1" d="M278.61,75.24c.21,0,.45-.06.73-.11a2.56,2.56,0,0,0,.7-.2.55.55,0,0,0,.33-.42,2.24,2.24,0,0,0,.07-.55,1.85,1.85,0,0,0-.54-1.37,2.49,2.49,0,0,0-1.79-.53,4.67,4.67,0,0,0-1,.1,2.38,2.38,0,0,0-.83.34,2,2,0,0,0-.57.65,2.45,2.45,0,0,0-.3,1h-1.1a3.33,3.33,0,0,1,.37-1.41,2.81,2.81,0,0,1,.84-1,3.45,3.45,0,0,1,1.2-.54,5.55,5.55,0,0,1,1.43-.18,5.64,5.64,0,0,1,1.33.16,2.94,2.94,0,0,1,1.09.49,2.36,2.36,0,0,1,.72.89,3.28,3.28,0,0,1,.26,1.37v5.1c0,.42.08.69.23.8s.45.09.91-.08v.85l-.37.11a1.59,1.59,0,0,1-.48.07,2.63,2.63,0,0,1-.49,0,.89.89,0,0,1-.43-.17.93.93,0,0,1-.26-.33,1.16,1.16,0,0,1-.14-.42,3.57,3.57,0,0,1,0-.47,4.62,4.62,0,0,1-1.57,1.15A4.54,4.54,0,0,1,277,81a4.27,4.27,0,0,1-1.19-.16,2.87,2.87,0,0,1-1-.51,2.55,2.55,0,0,1-.69-.84,2.67,2.67,0,0,1-.25-1.18q0-2.39,3.27-2.82Zm1.83.54a5.43,5.43,0,0,1-1.39.38q-.71.09-1.41.15a3.92,3.92,0,0,0-1.95.56,1.59,1.59,0,0,0-.69,1.42,1.49,1.49,0,0,0,.17.75,1.54,1.54,0,0,0,.45.53,1.76,1.76,0,0,0,.65.3,2.76,2.76,0,0,0,.75.1,4.91,4.91,0,0,0,1.27-.16,3.3,3.3,0,0,0,1.09-.5,2.58,2.58,0,0,0,.77-.84,2.53,2.53,0,0,0,.29-1.22Z"/><path class="cls-1" d="M284.52,80.7v-13h1.08v13Z"/><path class="cls-1" d="M0,52.22V22.47H7.67V51.28c0,2.27.44,2.9,2.75,2.9h.94v6.35a33,33,0,0,1-3.74.19C2.61,60.72,0,58.81,0,52.22Z"/><path class="cls-1" d="M14.11,52.46c0-7.86,5.51-9.73,17.85-9.73h1.13c-.05-2.51-.69-3.79-5.51-3.79a16.08,16.08,0,0,0-8.06,2.26l-3.84-5.65a24.88,24.88,0,0,1,12.74-3.39c10,0,12.09,3.19,12.09,11.06v8.46c0,2.21.15,2.55,2.41,2.55v6.3a15.63,15.63,0,0,1-3.24.19c-3,0-4.23-.59-5.31-2.75-1.43,1.92-4.53,3.1-9.79,3.1C16,61.07,14.11,57.33,14.11,52.46Zm19-3.39V48h-.64c-9.83,0-11,.79-11,3.78,0,2.07,1.13,3,4.67,3C31,54.87,33.09,53.15,33.09,49.07Z"/><path class="cls-1" d="M56.88,46.66c0-7.77,2.56-14.5,14.46-14.5,12.24,0,12.63,8.16,12.39,17.45H64.35c.45,3.35,2.07,5.31,7,5.31,4.28,0,6.69-1,8.76-2.56l3.88,5c-3.59,2.7-7.13,3.79-12.64,3.79C59.34,61.17,56.88,54.58,56.88,46.66Zm7.47-2.55H76.7c-.2-3.2-.84-5.51-5.61-5.51S64.75,40.71,64.35,44.11Z"/><path class="cls-1" d="M86,57.58l3.93-5.66a19.15,19.15,0,0,0,9.83,2.9c3.89,0,5-.39,5-2.31,0-1.62-1.13-2-4.92-2.46-6.88-.93-12.14-1.91-12.14-9.19,0-5.65,3.34-8.7,12.14-8.7,4.47,0,8.8.88,11.75,2.56l-3.69,6a18.13,18.13,0,0,0-7.81-1.82c-3.94,0-4.72.69-4.72,2,0,1.57,1,1.92,4.57,2.41,7.08,1,12.34,1.82,12.34,8.75,0,6.39-3.44,9-13,9C94.49,61.07,89.72,60.08,86,57.58Z"/><path class="cls-1" d="M115.34,46.66c0-8.06,2.6-14.5,14.6-14.5,5,0,8.75,1.67,11.31,4.52l-5.41,5.11a7.44,7.44,0,0,0-5.9-2.55c-5.51,0-6.84,3-6.84,7.62s1.23,7.72,6.89,7.72a8.32,8.32,0,0,0,6.29-2.71l4.92,4.72c-3.25,3-6,4.48-11.6,4.48C118.09,61.07,115.34,54.82,115.34,46.66Z"/><path class="cls-1" d="M144.93,47.65V32.8h7.72v15c0,3.89.1,6.59,5.61,6.59s5.55-2.75,5.55-6.64V32.8h7.57V47.6c0,9.53-2.55,13.47-13.17,13.47S144.93,57.18,144.93,47.65Z"/><path class="cls-1" d="M175.46,52.46c0-7.86,5.51-9.73,17.85-9.73h1.13c-.05-2.51-.69-3.79-5.5-3.79a16.09,16.09,0,0,0-8.07,2.26L177,35.55a24.84,24.84,0,0,1,12.73-3.39c10,0,12.1,3.19,12.1,11.06v8.46c0,2.21.14,2.55,2.41,2.55v6.3a15.81,15.81,0,0,1-3.25.19c-2.95,0-4.23-.59-5.31-2.75-1.43,1.92-4.52,3.1-9.78,3.1C177.33,61.07,175.46,57.33,175.46,52.46Zm19-3.39V48h-.64c-9.83,0-11,.79-11,3.78,0,2.07,1.13,3,4.67,3C192.33,54.87,194.44,53.15,194.44,49.07Z"/><path class="cls-1" d="M207.37,46.56c0-8,2.61-14.4,12.34-14.4,5.07,0,7.47,1.13,8.66,2.6V22.47h7.71V60.33l-5.9.54-.78-2.8c-1.67,2-4.57,3.1-9.93,3.1C209.88,61.17,207.37,54.58,207.37,46.56Zm21,0c0-5.26-1.48-7.47-7.09-7.47-5.06,0-6.09,3-6.09,7.47s1,8,6.09,8C226.59,54.53,228.37,51.92,228.37,46.56Z"/><path class="cls-1" d="M242.18,33.24l6-.44.78,3.05c1.18-1.77,4.58-3.2,8.9-3.35v7.38c-6.54,0-8,2.6-8,7V60.62h-7.72Z"/><path class="cls-1" d="M259.19,52.46c0-7.86,5.51-9.73,17.85-9.73h1.13c-.05-2.51-.69-3.79-5.51-3.79a16.08,16.08,0,0,0-8.06,2.26l-3.84-5.65a24.88,24.88,0,0,1,12.74-3.39c10,0,12.09,3.19,12.09,11.06v8.46c0,2.21.15,2.55,2.41,2.55v6.3a15.63,15.63,0,0,1-3.24.19c-2.95,0-4.23-.59-5.31-2.75-1.43,1.92-4.53,3.1-9.79,3.1C261.06,61.07,259.19,57.33,259.19,52.46Zm19-3.39V48h-.64c-9.83,0-11,.79-11,3.78,0,2.07,1.13,3,4.67,3C276.05,54.87,278.17,53.15,278.17,49.07Z"/></svg>