<svg id="Layer_1" data-name="Layer 1" xmlns="http://www.w3.org/2000/svg" viewBox="0 0 288 107"><defs><style>.cls-1{fill:#005f77;}.cls-2{fill:#3caa9c;}</style></defs><title>Artboard 49 copy 16</title><path class="cls-1" d="M47.76,80.45c-.72,3.46-1.83,5.7-3.33,6.74s-4.18,1.56-8,1.56H26.26l1.52-7h7a7.52,7.52,0,0,0,3.8-.64c.63-.43,1.14-1.59,1.55-3.47l1.41-7a10.87,10.87,0,0,0,.36-2.24,1.65,1.65,0,0,0-1.39-1.7A16.5,16.5,0,0,0,38,66.64H28.05L21.3,96.93H13l8.24-37.25H42.55q4.66,0,6.51.93c1.24.63,1.85,1.85,1.85,3.66a18.11,18.11,0,0,1-.48,3.62Z"/><path class="cls-1" d="M75.64,74.83H66a8,8,0,0,0-3.69.54c-.69.49-1.23,1.66-1.63,3.52l-3.84,18h-8.3l6.18-29.07H63l-.79,3.64a7.14,7.14,0,0,1,6.24-3.64h8.66Z"/><path class="cls-1" d="M109.31,88.69q-1.09,5.1-3.33,6.67c-1.5,1-4.18,1.57-8.06,1.57H85.14q-4.67,0-6.48-.94c-1.21-.62-1.82-1.82-1.82-3.6a18.55,18.55,0,0,1,.49-3.7L80,76.1q1.1-5.09,3.33-6.66c1.5-1,4.16-1.58,8-1.58H104.1c3.11,0,5.27.32,6.51.94a3.66,3.66,0,0,1,1.85,3.6,18.46,18.46,0,0,1-.49,3.7Zm-7.59-2.77,1.49-7a12.41,12.41,0,0,0,.28-2.18,1.63,1.63,0,0,0-1.4-1.7,11.13,11.13,0,0,0-2.55-.18H92.92a7.85,7.85,0,0,0-3.64.54c-.69.48-1.24,1.65-1.64,3.5l-1.49,7a12.31,12.31,0,0,0-.28,2.18,1.59,1.59,0,0,0,1.4,1.7,10.26,10.26,0,0,0,2.49.18h6.62a7.58,7.58,0,0,0,3.79-.64c.63-.42,1.15-1.56,1.55-3.41"/><path class="cls-1" d="M144.85,88.63q-1.08,5.19-3.33,6.75c-1.49,1-4.18,1.55-8.05,1.55H123.36l1.51-7h7a7.49,7.49,0,0,0,3.8-.65c.63-.43,1.14-1.58,1.55-3.46l1.41-7a10.67,10.67,0,0,0,.36-2.24A1.63,1.63,0,0,0,137.59,75a16.5,16.5,0,0,0-2.54-.12h-9.9l-6.76,31.73h-8.3l8.24-38.7h21.32c3.11,0,5.27.31,6.51.94S148,70.64,148,72.45a18,18,0,0,1-.48,3.62Z"/><path class="cls-1" d="M181.49,85.85H162.24l1.51-7H175c.29-1.29.43-2,.43-2.06,0-1.33-1.07-2-3.21-2h-6.61a7.32,7.32,0,0,0-3.63.6c-.73.53-1.3,1.68-1.7,3.45l-1.44,7a10.58,10.58,0,0,0-.37,2.27,1.67,1.67,0,0,0,1.45,1.72,13.85,13.85,0,0,0,2.49.13h16.95l-1.45,7H157.75c-3.11,0-5.24-.28-6.42-.85a3.74,3.74,0,0,1-1.93-3.7,19.14,19.14,0,0,1,.48-3.71L152.61,76q.9-4.4,3.57-6.28c1.77-1.27,4.36-1.9,7.75-1.9h11.81q4.66,0,6.51.94c1.23.62,1.85,1.84,1.85,3.65a17.52,17.52,0,0,1-.49,3.62Z"/><polygon class="cls-1" points="192.45 96.93 184.22 96.93 192.46 58.17 200.63 58.17 192.45 96.93"/><polygon class="cls-1" points="206.08 96.93 197.85 96.93 206.09 58.17 214.26 58.17 206.08 96.93"/><path class="cls-1" d="M244.6,85.85H225.34l1.51-7h11.21c.28-1.29.42-2,.42-2.06,0-1.33-1.07-2-3.21-2h-6.6a7.39,7.39,0,0,0-3.64.6c-.73.53-1.29,1.68-1.7,3.45l-1.44,7a11.27,11.27,0,0,0-.37,2.27A1.67,1.67,0,0,0,223,89.84a13.71,13.71,0,0,0,2.48.13h17l-1.46,7h-20.1q-4.67,0-6.42-.85a3.75,3.75,0,0,1-1.94-3.7,18.52,18.52,0,0,1,.49-3.71L215.71,76c.6-2.93,1.8-5,3.57-6.28s4.36-1.9,7.75-1.9h11.81q4.66,0,6.51.94c1.24.62,1.85,1.84,1.85,3.65a18.11,18.11,0,0,1-.48,3.62Z"/><path class="cls-1" d="M273.49,74.83h-9.62a8,8,0,0,0-3.69.54c-.69.49-1.23,1.66-1.63,3.52l-3.84,18h-8.3l6.18-29.07h8.3l-.79,3.64a7.15,7.15,0,0,1,6.24-3.64H275Z"/><path class="cls-1" d="M71.71,46.24H63l4.1-19a14.15,14.15,0,0,0,.3-2.3A1.67,1.67,0,0,0,66,23.17,11.49,11.49,0,0,0,63.29,23H56.35a8.26,8.26,0,0,0-3.83.57c-.76.51-1.34,1.74-1.72,3.7l-4.08,19H38.05l4.38-20.72c.13-1.23-.27-2-1.2-2.29A9.49,9.49,0,0,0,38.36,23H31.43a8.4,8.4,0,0,0-3.88.57c-.72.51-1.29,1.75-1.72,3.7l-4,19H13.06l6.51-30.59H28.3l-.83,3.82A7.53,7.53,0,0,1,34,15.65h9.12a19.5,19.5,0,0,1,6.25.7,3.57,3.57,0,0,1,2.42,2.93,5.52,5.52,0,0,1,3.38-2.87A9.72,9.72,0,0,1,59,15.65h9.11c3.28,0,5.56.33,6.86,1s1.94,1.93,1.94,3.8a19,19,0,0,1-.51,3.88Z"/><path class="cls-1" d="M108.29,52.94q-1.14,5.41-3.5,7c-1.57,1.08-4.38,1.63-8.41,1.63H75.21l1.53-7.34h17.9a7.68,7.68,0,0,0,3.92-.67c.66-.44,1.2-1.64,1.63-3.6L106,23H95.52a8.5,8.5,0,0,0-3.91.57c-.73.46-1.31,1.69-1.73,3.68l-1.49,7.34A12.33,12.33,0,0,0,88,37a1.73,1.73,0,0,0,1.46,1.81,16.62,16.62,0,0,0,2.68.13H99.5L98,46.24H87.33q-4.92,0-6.76-.89-2-1-2-3.9a20,20,0,0,1,.51-3.9l2.8-13.3q1.16-5.31,3.51-7c1.57-1.1,4.4-1.64,8.48-1.64h22.43Z"/><path class="cls-2" d="M124.43,45.11s13.21-2.33,13.21-9.58-7-7.26-7-7.26,1-9.84,10.36-8a9,9,0,0,1,7.16,6.63,14,14,0,0,1-2.46,12.65c-3.28,4.26-9.67,8.8-21.28,5.59"/><path class="cls-2" d="M115.1,51.59s36.53,5.7,44.56-17.88c0,0,2.34-10.1-6.21-8.55,0,0,2-9.6,10.14-8.16a11.48,11.48,0,0,1,7.15,18l-.19.26s16.58-6,11.91-20.73c0,0-1.55-8-9.06-6.73,0,0,8.55-14.25,22.28-3.11,0,0,19.17,18.91-11.14,38.86,0,0,5.43,3.63,14.76,1.81,0,0-36.85,25.91-84.2,6.22"/></svg>