<svg id="Layer_1" data-name="Layer 1" xmlns="http://www.w3.org/2000/svg" viewBox="0 0 288 107"><defs><style>.cls-1{fill:#c1c7d0;}</style></defs><title>Artboard 49 copy 18</title><path class="cls-1" d="M113.93,42.06a18.77,18.77,0,0,0-2.14-1.1,17.6,17.6,0,0,0-2.08-.77,7.26,7.26,0,0,0-2.25-.37,3.19,3.19,0,0,0-1.43.28,1,1,0,0,0-.53.93,1.06,1.06,0,0,0,.31.79,3,3,0,0,0,.89.57,11.61,11.61,0,0,0,1.43.5c.56.16,1.2.35,1.91.58a25.39,25.39,0,0,1,3,1.14,9.67,9.67,0,0,1,2.32,1.46,5.66,5.66,0,0,1,1.48,2A7.45,7.45,0,0,1,117.4,51a7.82,7.82,0,0,1-.8,3.7,6.69,6.69,0,0,1-2.14,2.39,9,9,0,0,1-3,1.29,14.7,14.7,0,0,1-3.36.4,18.69,18.69,0,0,1-2.75-.21,22.87,22.87,0,0,1-2.8-.59,24.75,24.75,0,0,1-2.68-.89A18.31,18.31,0,0,1,97.49,56l2.89-5.88a20.65,20.65,0,0,0,2.5,1.34,19.35,19.35,0,0,0,2.5.93,10.11,10.11,0,0,0,2.84.41,3,3,0,0,0,1.53-.29.91.91,0,0,0,.43-.78,1.09,1.09,0,0,0-.43-.87,3.67,3.67,0,0,0-1.19-.64c-.5-.18-1.08-.37-1.74-.55s-1.34-.4-2.07-.65A18.25,18.25,0,0,1,102,47.79,7.61,7.61,0,0,1,100,46.34a5.12,5.12,0,0,1-1.12-1.84,7.16,7.16,0,0,1-.36-2.37,8.27,8.27,0,0,1,.74-3.58,7.44,7.44,0,0,1,2-2.58,8.87,8.87,0,0,1,2.91-1.56,11,11,0,0,1,3.46-.54,13.28,13.28,0,0,1,2.61.26,19.3,19.3,0,0,1,2.46.66,22.84,22.84,0,0,1,2.22.86c.69.3,1.31.6,1.86.87Z"/><rect class="cls-1" x="134.12" y="34.08" width="6.71" height="24.43"/><path class="cls-1" d="M158.79,58.51V34.08h9.39a13.78,13.78,0,0,1,5.33,1,10.77,10.77,0,0,1,6.19,6.49,14.8,14.8,0,0,1-.08,9.77,11,11,0,0,1-2.5,3.85,11.14,11.14,0,0,1-3.88,2.48,14.07,14.07,0,0,1-5.06.88Zm14.89-12.25a8.42,8.42,0,0,0-.37-2.58,5.92,5.92,0,0,0-1.09-2,4.89,4.89,0,0,0-1.74-1.29,5.49,5.49,0,0,0-2.3-.46H165.5V52.66h2.68a5.65,5.65,0,0,0,2.34-.48,4.89,4.89,0,0,0,1.73-1.35,5.71,5.71,0,0,0,1.07-2,8.57,8.57,0,0,0,.36-2.54"/><path class="cls-1" d="M211.77,42.06a18.77,18.77,0,0,0-2.14-1.1,18.29,18.29,0,0,0-2.08-.77,7.26,7.26,0,0,0-2.25-.37,3.19,3.19,0,0,0-1.43.28,1,1,0,0,0-.53.93,1.06,1.06,0,0,0,.31.79,2.91,2.91,0,0,0,.89.57,11.61,11.61,0,0,0,1.43.5c.56.16,1.2.35,1.91.58a24.59,24.59,0,0,1,3,1.14,9.29,9.29,0,0,1,2.32,1.46,5.57,5.57,0,0,1,1.49,2,7.45,7.45,0,0,1,.51,2.92,7.7,7.7,0,0,1-.81,3.7,6.67,6.67,0,0,1-2.13,2.39,9,9,0,0,1-3,1.29,14.7,14.7,0,0,1-3.36.4,18.69,18.69,0,0,1-2.75-.21,22.87,22.87,0,0,1-2.8-.59,24,24,0,0,1-2.68-.89,18.45,18.45,0,0,1-2.4-1.17l2.89-5.88a20.78,20.78,0,0,0,2.51,1.34,19.35,19.35,0,0,0,2.5.93,10.11,10.11,0,0,0,2.84.41,3,3,0,0,0,1.53-.29.93.93,0,0,0,.43-.78,1.12,1.12,0,0,0-.43-.87,3.78,3.78,0,0,0-1.19-.64c-.5-.18-1.08-.37-1.74-.55s-1.34-.4-2.08-.65a19.15,19.15,0,0,1-2.79-1.19,7.55,7.55,0,0,1-1.92-1.45,5,5,0,0,1-1.12-1.84,7.16,7.16,0,0,1-.36-2.37,8.12,8.12,0,0,1,.74-3.58,7.32,7.32,0,0,1,2-2.58,8.87,8.87,0,0,1,2.91-1.56,11,11,0,0,1,3.46-.54,13.28,13.28,0,0,1,2.61.26,19.3,19.3,0,0,1,2.46.66,22.84,22.84,0,0,1,2.22.86c.69.3,1.3.6,1.86.87Z"/><polygon class="cls-1" points="249.37 52.66 249.37 58.51 231.96 58.51 231.96 34.08 249.06 34.08 249.06 39.93 238.67 39.93 238.67 43.37 247.54 43.37 247.54 48.8 238.67 48.8 238.67 52.66 249.37 52.66"/><polygon class="cls-1" points="272.97 46.5 272.97 58.51 266.26 58.51 266.26 34.08 271.49 34.08 281.29 46.5 281.29 34.08 288 34.08 288 58.51 282.67 58.51 272.97 46.5"/><polygon class="cls-1" points="109.23 68.75 113.86 80.11 118.47 68.75 119.8 68.75 114.41 81.7 113.29 81.7 107.9 68.75 109.23 68.75"/><rect class="cls-1" x="122.76" y="68.75" width="1.28" height="12.94"/><path class="cls-1" d="M128.37,81.7v-13h4.4a6.64,6.64,0,0,1,2.7.51,5.51,5.51,0,0,1,1.94,1.39,5.91,5.91,0,0,1,1.16,2,7.9,7.9,0,0,1,.39,2.51,7.79,7.79,0,0,1-.43,2.67,6,6,0,0,1-1.25,2,5.63,5.63,0,0,1-1.95,1.31,6.75,6.75,0,0,1-2.56.47Zm9.32-6.49a6.62,6.62,0,0,0-.33-2.14,4.89,4.89,0,0,0-1-1.69,4.45,4.45,0,0,0-1.55-1.11,5.26,5.26,0,0,0-2.09-.39h-3.12V80.57h3.12a5.21,5.21,0,0,0,2.12-.41A4.4,4.4,0,0,0,136.43,79a4.94,4.94,0,0,0,.94-1.7,6.88,6.88,0,0,0,.32-2.12"/><polygon class="cls-1" points="151.2 80.57 151.2 81.7 142.5 81.7 142.5 68.75 151.04 68.75 151.04 69.88 143.78 69.88 143.78 74.55 150.11 74.55 150.11 75.63 143.78 75.63 143.78 80.57 151.2 80.57"/><path class="cls-1" d="M159.64,81.79a5.5,5.5,0,0,1-2.47-.56,6.07,6.07,0,0,1-1.92-1.47A6.67,6.67,0,0,1,154,77.65a6.82,6.82,0,0,1,1.31-7,6.25,6.25,0,0,1,1.93-1.45,5.42,5.42,0,0,1,2.41-.54,5.26,5.26,0,0,1,2.47.58,6,6,0,0,1,1.91,1.5,7.08,7.08,0,0,1,1.67,4.5,6.7,6.7,0,0,1-.46,2.48A6.83,6.83,0,0,1,164,79.81a6.21,6.21,0,0,1-1.92,1.44,5.46,5.46,0,0,1-2.41.54m-4.79-6.56a6.05,6.05,0,0,0,.34,2,5.38,5.38,0,0,0,1,1.73,4.75,4.75,0,0,0,1.51,1.2,4.18,4.18,0,0,0,1.95.45,4.26,4.26,0,0,0,2-.47,4.92,4.92,0,0,0,1.51-1.24,6,6,0,0,0,1.3-3.7,5.84,5.84,0,0,0-.36-2,5.73,5.73,0,0,0-1-1.72,4.93,4.93,0,0,0-1.52-1.2,4.49,4.49,0,0,0-3.92,0,4.75,4.75,0,0,0-1.51,1.23,6,6,0,0,0-1,1.73,6.14,6.14,0,0,0-.33,2"/><polygon class="cls-1" points="168.69 68.75 173.31 80.11 177.93 68.75 179.26 68.75 173.86 81.7 172.75 81.7 167.35 68.75 168.69 68.75"/><rect class="cls-1" x="182.21" y="68.75" width="1.28" height="12.94"/><path class="cls-1" d="M197.18,79.8a5.46,5.46,0,0,1-4.16,2,5.16,5.16,0,0,1-2.41-.57,6.33,6.33,0,0,1-1.92-1.49,6.92,6.92,0,0,1-1.26-2.11A6.47,6.47,0,0,1,187,75.2a6.89,6.89,0,0,1,.45-2.47,6.57,6.57,0,0,1,1.25-2.09,6.09,6.09,0,0,1,1.89-1.44,5.34,5.34,0,0,1,2.39-.54,6.67,6.67,0,0,1,1.73.21,5.21,5.21,0,0,1,1.4.58,4.6,4.6,0,0,1,1.06.9,5.48,5.48,0,0,1,.75,1.14l-1,.65a4.26,4.26,0,0,0-1.66-1.77,4.76,4.76,0,0,0-2.31-.56,4.15,4.15,0,0,0-1.95.45,4.84,4.84,0,0,0-1.48,1.22,5.64,5.64,0,0,0-.93,1.73,6.24,6.24,0,0,0-.33,2,5.75,5.75,0,0,0,1.4,3.8,5,5,0,0,0,1.54,1.17,4.31,4.31,0,0,0,1.93.44,4.52,4.52,0,0,0,2.12-.52,6.45,6.45,0,0,0,1.94-1.65V76.32H194.3v-1h4V81.7h-1.08Z"/><rect class="cls-1" x="201.98" y="68.75" width="1.28" height="12.94"/><polygon class="cls-1" points="207.59 81.7 207.59 68.75 208.87 68.75 208.87 80.57 216.34 80.57 216.34 81.7 207.59 81.7"/><path class="cls-1" d="M223.33,68.75h1.07l5.38,13h-1.35l-1.67-4h-5.82l-1.66,4h-1.37Zm3.13,7.9-2.61-6.4-2.64,6.4Z"/><polygon class="cls-1" points="234.01 71.12 234.01 81.7 232.73 81.7 232.73 68.75 233.72 68.75 242.29 79.53 242.29 68.77 243.56 68.77 243.56 81.7 242.45 81.7 234.01 71.12"/><path class="cls-1" d="M247.05,75.13a7,7,0,0,1,.41-2.32,6.47,6.47,0,0,1,1.19-2.07,6.28,6.28,0,0,1,1.94-1.49,5.75,5.75,0,0,1,2.6-.57,5.43,5.43,0,0,1,3,.78A4.77,4.77,0,0,1,258,71.51l-1,.62a3.79,3.79,0,0,0-.76-1.08,4.25,4.25,0,0,0-1-.71A3.82,3.82,0,0,0,254.2,70a5.1,5.1,0,0,0-1.08-.12,4.29,4.29,0,0,0-2.06.47,4.77,4.77,0,0,0-1.5,1.24,5.45,5.45,0,0,0-.93,1.73,6.37,6.37,0,0,0-.3,1.93,5.75,5.75,0,0,0,.37,2.07,5.91,5.91,0,0,0,1,1.74,4.82,4.82,0,0,0,1.53,1.2,4.19,4.19,0,0,0,1.93.45,5,5,0,0,0,1.12-.14,4.35,4.35,0,0,0,1.11-.44,4.73,4.73,0,0,0,1-.74,4,4,0,0,0,.77-1.09l1.06.55a4,4,0,0,1-.88,1.28,5.05,5.05,0,0,1-1.26.94,6.28,6.28,0,0,1-1.47.59,6.16,6.16,0,0,1-1.52.2,5.18,5.18,0,0,1-2.44-.59,6.46,6.46,0,0,1-1.92-1.52,7,7,0,0,1-1.24-2.13,6.89,6.89,0,0,1-.45-2.44"/><rect class="cls-1" x="261.51" y="68.75" width="1.28" height="12.94"/><path class="cls-1" d="M271.14,68.75h1.07l5.38,13h-1.35l-1.68-4h-5.82l-1.65,4h-1.37Zm3.13,7.9-2.61-6.4L269,76.65Z"/><path class="cls-1" d="M87.26,19.92v-.14h0V19.6a1.1,1.1,0,0,0,0-.18,8.21,8.21,0,0,0-11.47-7.14l-.13.06-9.32,4C60.4,9.8,52.62,6.13,44.47,6.13,36.06,6.13,28.1,10,22.12,16.9L11.49,12.28A8.21,8.21,0,0,0,0,19.58s0,0,0,.07v.16A144.91,144.91,0,0,0,2,42.35l0,0,.53,2.78c.36,2,.78,4,1.27,6.09a4.19,4.19,0,0,0,.14.47.66.66,0,0,1,0,.15c1.85,7.72,4.88,18,9,24.24,5.14,9.32,11.65,16.21,19.45,20.61.23.13.45.27.68.39.42.23.85.44,1.27.66l1.08.52,1.13.5,1.4.58.92.35q1.16.42,2.34.78l.08,0c.25.07.5.12.76.17a9.41,9.41,0,0,0,1.05.13c.18,0,.36,0,.54,0s.44,0,.66-.05a7.8,7.8,0,0,0,1-.13c.25,0,.49-.09.73-.16h0c.78-.24,1.55-.5,2.31-.77l.72-.27c.59-.23,1.17-.46,1.74-.71.38-.17.75-.33,1.11-.51s.91-.43,1.36-.66.81-.42,1.21-.64l.64-.36A48.74,48.74,0,0,0,71.27,81.13c10.37-15,13.62-36.31,13.87-38,.17-1,.32-2,.47-3A118.4,118.4,0,0,0,87.26,19.92ZM44.47,11a24.24,24.24,0,0,1,17.05,7.38l-9.6,4.12a8.21,8.21,0,0,0-4.67,5.38,3.65,3.65,0,0,0-.34-.18L26.84,19A24.43,24.43,0,0,1,44.47,11ZM66.7,54.16,39.82,47.69l-21-5c-.61-3.21-1.12-6.52-1.51-9.9l9.93,4.33L40.37,42.8a8.27,8.27,0,0,0,3.28.68,8.21,8.21,0,0,0,7.91-6,8.14,8.14,0,0,0,3.61.84,8.27,8.27,0,0,0,3.28-.68c3-1.31,5.1-2.18,7.12-3,1.31-.54,2.65-1.11,4.24-1.79-.47,2.73-1.26,6.7-1.93,10.09-.57,2.85-1.1,5.56-1.43,7.39A8.12,8.12,0,0,0,66.7,54.16ZM74.21,64.9c-.45,1.14-.93,2.26-1.44,3.39-.11.25-.22.5-.34.74A66.27,66.27,0,0,1,69,75.66l-.32.52q-1.36,2.25-2.93,4.34c-.18.24-.36.49-.55.73h0c-.86,1.11-1.77,2.18-2.71,3.21q-.46.51-.93,1h0l-.47.48h0c-.52.51-1,1-1.59,1.49h0l-.56.49h0c-.56.49-1.14,1-1.73,1.43h0c-.11.08-.22.15-.33.24h0c-.53.41-1.09.8-1.65,1.19h0l-.51.35h0c-.65.43-1.32.84-2,1.23h0c-.14.08-.29.15-.43.24h0c-.62.35-1.26.68-1.91,1h0c-.12.06-.24.13-.36.18h0c-.74.34-1.5.67-2.27,1h0l-.5.2h0c-.8.3-1.62.59-2.46.84a4.34,4.34,0,0,1-.52.08,3.26,3.26,0,0,1-.7,0,3.38,3.38,0,0,1-.7-.1h0c-.85-.25-1.67-.54-2.48-.85h0l-.72-.29h0c-.56-.22-1.11-.45-1.65-.7h0l-.8-.37h0c-.52-.26-1-.53-1.54-.8h0l-.69-.38h0c-.7-.41-1.39-.82-2.06-1.27h0c-.16-.1-.31-.22-.46-.32l0,0c-.5-.34-1-.69-1.49-1.06h0l-.82-.64h0c-.36-.28-.71-.57-1.06-.87h0l-.86-.74h0L27,86.62h0c-.29-.27-.59-.55-.87-.83h0c-.25-.24-.49-.5-.73-.76h0c-.61-.64-1.19-1.29-1.76-2v0l-.52-.6h0c-.34-.4-.66-.82-1-1.24h0l-.44-.57h0l-1-1.35h0l-.24-.36h0c-.57-.83-1.12-1.68-1.65-2.54l0-.07c-.53-.86-1-1.74-1.53-2.63h0c-.7-1.28-1.36-2.57-2-3.89L15,69.36c-.6-1.29-1.18-2.59-1.71-3.9h0a3.29,3.29,0,0,1-.22-.9c0-.1,0-.2,0-.3a2.72,2.72,0,0,1,0-.57c0-.11.06-.21.09-.32a2.46,2.46,0,0,1,.16-.48,1.82,1.82,0,0,1,.16-.31,3.62,3.62,0,0,1,.27-.41A2.85,2.85,0,0,1,14,61.9a3.8,3.8,0,0,1,.37-.33,2.83,2.83,0,0,1,.28-.2,3.17,3.17,0,0,1,.45-.23c.11,0,.21-.09.32-.12a3.12,3.12,0,0,1,.53-.11l.33,0h.09a3.19,3.19,0,0,1,.8.1h.09A3.29,3.29,0,0,1,19,62.06a3.33,3.33,0,0,1,.6.95c3.75,9.27,9.25,17.81,17.31,22.91a30.89,30.89,0,0,0,5.63,2.83,3.23,3.23,0,0,0,2.25,0c8.94-3.38,15.29-10.54,19.81-19a3.26,3.26,0,0,0-.11-3.23A3.33,3.33,0,0,0,62.38,65L35.15,58.41,11,52.61l-.08,0a2.93,2.93,0,0,1-.73-.29,3.54,3.54,0,0,1-.54-.39l-.13-.1a3.26,3.26,0,0,1-1-1.66v0h0c0-.07,0-.14,0-.21-.11-.47-.21-.94-.31-1.4s-.2-.87-.29-1.3v-.07c0-.19-.07-.37-.11-.56-.16-.75-.31-1.5-.44-2.24v0L7.23,44c-.12-.65-.23-1.29-.34-1.93,0-.09,0-.19,0-.29v0c0-.17,0-.34-.08-.52-.08-.49-.16-1-.23-1.48,0-.13,0-.26-.06-.39s0-.07,0-.11c0-.31-.09-.61-.13-.91s-.09-.62-.13-.92c0-.11,0-.22,0-.33l0-.23c0-.34-.09-.68-.13-1l-.09-.7v-.07l-.06-.52c0-.35-.08-.68-.11-1,0-.15,0-.3,0-.44V33l-.06-.67c0-.33-.07-.67-.1-1a1.5,1.5,0,0,1,0-.2l0-.13-.06-.73c0-.31-.06-.63-.08-.94v-.14c0-.17,0-.33,0-.5,0-.46-.07-.91-.1-1.34,0-.13,0-.24,0-.36,0-.49-.06-1-.09-1.42v0c-.18-3.24-.18-5.35-.18-5.79h0v0h0A3.27,3.27,0,0,1,5,19a1.25,1.25,0,0,1,.09-.25,2.25,2.25,0,0,1,.19-.45,2.07,2.07,0,0,1,.15-.25,3.8,3.8,0,0,1,.29-.38l.17-.19a3.38,3.38,0,0,1,.55-.45l0,0a3.77,3.77,0,0,1,.61-.29l.23-.07a2.77,2.77,0,0,1,.5-.1,2.06,2.06,0,0,1,.26,0l.18,0c.11,0,.22,0,.33,0l.26,0a4.15,4.15,0,0,1,.74.22h0l15.53,6.76L45,32.19a3.32,3.32,0,0,1,1.46,1.23,3.46,3.46,0,0,1,.41.87,3.38,3.38,0,0,1,.14,1h0a3.35,3.35,0,0,1-.1.79c0,.08-.05.15-.07.23a3.58,3.58,0,0,1-.2.49,1.59,1.59,0,0,1-.13.22,2.74,2.74,0,0,1-.3.43l-.15.17a3.41,3.41,0,0,1-1.21.8l-.21.06a2.71,2.71,0,0,1-.51.11,2.13,2.13,0,0,1-.25,0l-.2,0-.34,0-.23,0a3.59,3.59,0,0,1-.74-.21h0L36.7,35.88l-13.6-6-6.27-2.72A3,3,0,0,0,16,27l-.24,0a3.39,3.39,0,0,0-.55,0L15,27a3.18,3.18,0,0,0-.53.14,1.29,1.29,0,0,0-.21.07,3.36,3.36,0,0,0-.67.37l-.09.08a3.27,3.27,0,0,0-.47.44c-.06.06-.11.13-.16.19a4.21,4.21,0,0,0-.28.45l-.12.25a4.68,4.68,0,0,0-.17.53,2,2,0,0,0,0,.24,3.34,3.34,0,0,0,0,.84h0q.15,1.59.36,3.33c.32,2.66.76,5.6,1.32,8.67.12.67.23,1.32.36,2a3.28,3.28,0,0,0,1.27,2,3.42,3.42,0,0,0,1.22.61L49,54.92l22.89,5.51A3.35,3.35,0,0,1,74,62.08,3.27,3.27,0,0,1,74.21,64.9ZM23.9,60.73l35.36,8.5C55,76.5,49.78,81.44,43.63,84,35.42,80.6,28.85,73,24.1,61.18,24,61,24,60.88,23.9,60.73ZM80.83,39.12A119.12,119.12,0,0,1,77.9,52.39a3.57,3.57,0,0,1-3.34,2.71,3.06,3.06,0,0,1-.79-.1,3.38,3.38,0,0,1-2.52-3.88c.91-5.08,3.51-17.26,3.83-20.54a3.34,3.34,0,0,0-3.32-3.66,3.2,3.2,0,0,0-1.33.29c-5.66,2.45-7.93,3.31-13.92,5.91a3.23,3.23,0,0,1-1.34.28A3.34,3.34,0,0,1,53.84,27l11-4.73,0,.05,12.74-5.53A3.44,3.44,0,0,1,79,16.51a3.4,3.4,0,0,1,3.39,3.29h0A138.15,138.15,0,0,1,80.83,39.12Z"/></svg>