<svg id="Layer_1" data-name="Layer 1" xmlns="http://www.w3.org/2000/svg" viewBox="0 0 288 107"><defs><style>.cls-1{fill:#754d29;}.cls-2{fill:#f9ae42;}.cls-3{fill:#00a59b;}</style></defs><title>Artboard 49 copy 3</title><path class="cls-1" d="M64.23,55.84v-12a6.63,6.63,0,1,1,6.63,6.71h0l6.42,4.82a.62.62,0,0,1,.12.87.63.63,0,0,1-.5.25.58.58,0,0,1-.37-.13l-8.93-6.7a6.47,6.47,0,0,1-1.27-1l-.8-.6v7.75a.63.63,0,1,1-1.25,0Zm2.86-8.1,1.15.86a5.27,5.27,0,0,0,2.62.68,5.38,5.38,0,1,0-3.77-1.54Z"/><path class="cls-1" d="M81.3,49.2a7.27,7.27,0,1,1,14.53,0v.62H82.57a6,6,0,0,0,8.17,5A.63.63,0,1,1,91.19,56a7.35,7.35,0,0,1-2.63.49A7.27,7.27,0,0,1,81.3,49.2Zm13.25-.62a6,6,0,0,0-12,0Z"/><path class="cls-1" d="M99.58,49.16a7.31,7.31,0,0,1,7.3-7.31.63.63,0,1,1,0,1.25,6.06,6.06,0,0,0,0,12.12.63.63,0,1,1,0,1.25A7.31,7.31,0,0,1,99.58,49.16Z"/><path class="cls-1" d="M111.24,49.7a7.35,7.35,0,1,1,7.34,7.35A7.35,7.35,0,0,1,111.24,49.7Zm1.24,0a6.11,6.11,0,1,0,6.1-6.1A6.11,6.11,0,0,0,112.48,49.7Z"/><path class="cls-1" d="M129.66,56.33V47.46a5.11,5.11,0,1,1,10.22,0V56.3a.63.63,0,0,1-1.25,0V47.46a3.86,3.86,0,1,0-7.72,0v8.87a.63.63,0,0,1-1.25,0Z"/><path class="cls-1" d="M143.61,49.7A7.35,7.35,0,1,1,151,57.05,7.36,7.36,0,0,1,143.61,49.7Zm1.24,0A6.11,6.11,0,1,0,151,43.6,6.11,6.11,0,0,0,144.85,49.7Z"/><path class="cls-2" d="M163,56.42a.62.62,0,0,1,.62-.62h3.54a2.74,2.74,0,1,0,0-5.48H166a4,4,0,0,1,0-8h3.36a.63.63,0,0,1,0,1.25H166a2.74,2.74,0,1,0,0,5.47h1.14a4,4,0,1,1,0,8h-3.54A.63.63,0,0,1,163,56.42Z"/><path class="cls-2" d="M177.16,40a.75.75,0,1,1,.75-.74A.74.74,0,0,1,177.16,40Zm-.62,16.44V43a.63.63,0,0,1,1.25,0V56.42a.63.63,0,1,1-1.25,0Z"/><path class="cls-2" d="M181.62,49.2a7.27,7.27,0,1,1,14.53,0v.62H182.9a6,6,0,0,0,6,5.4,6,6,0,0,0,2.18-.41.63.63,0,1,1,.45,1.17,7.27,7.27,0,0,1-9.89-6.78Zm13.25-.62a6,6,0,0,0-12,0Z"/><path class="cls-2" d="M199.9,56.33V47.46a5.11,5.11,0,1,1,10.21,0V56.3a.62.62,0,0,1-.62.62.62.62,0,0,1-.62-.62V47.46a3.87,3.87,0,0,0-7.73,0v8.87a.62.62,0,0,1-1.24,0Z"/><path class="cls-2" d="M227.21,56.5V53.81a7.31,7.31,0,1,1,0-8.15V38.74a.63.63,0,0,1,.62-.63.62.62,0,0,1,.62.63V56.5a.63.63,0,0,1-1.25,0Zm0-6.68v-.18a6.07,6.07,0,1,0,0,.18Z"/><path class="cls-2" d="M232.19,49.7a7.35,7.35,0,1,1,7.34,7.35A7.35,7.35,0,0,1,232.19,49.7Zm1.24,0a6.11,6.11,0,1,0,6.1-6.1A6.11,6.11,0,0,0,233.43,49.7Z"/><path class="cls-3" d="M268.55,56.54V47.46a3.86,3.86,0,0,0-7.72,0v9a.63.63,0,1,1-1.25,0v-9a3.86,3.86,0,1,0-7.72,0v9a.63.63,0,1,1-1.25,0v-9A5.11,5.11,0,0,1,260.2,45a5.11,5.11,0,0,1,9,0,5.07,5.07,0,0,1,.63,2.45v9.08a.63.63,0,0,1-1.25,0Z"/><path class="cls-3" d="M273.53,49.2a7.27,7.27,0,1,1,14.53,0v.62H274.8a6,6,0,0,0,8.17,5,.63.63,0,0,1,.45,1.17,7.35,7.35,0,0,1-2.63.49A7.27,7.27,0,0,1,273.53,49.2Zm13.25-.62a6,6,0,0,0-12,0Z"/><path class="cls-1" d="M114.53,66.39a3.35,3.35,0,0,1-3.33,3.33h-2.11c-.11,0-.16-.06-.16-.17V63.23c0-.11,0-.17.16-.17h2.11a3.35,3.35,0,0,1,3.33,3.33Zm-.33,0a2.88,2.88,0,0,0-.88-2.12,2.92,2.92,0,0,0-2.12-.88h-1.94v6h1.94a2.91,2.91,0,0,0,2.12-.87A2.88,2.88,0,0,0,114.2,66.39Z"/><path class="cls-1" d="M119.8,68.49a.15.15,0,0,1,0,.09,2.29,2.29,0,0,1-2,1.14,2.2,2.2,0,0,1-1.6-.67,2.17,2.17,0,0,1-.67-1.61,2.29,2.29,0,0,1,2.27-2.27,2.31,2.31,0,0,1,.76.14,2.86,2.86,0,0,1,.75.42q.48.38.48.66a.15.15,0,0,1-.08.14l-3.5,2a1.82,1.82,0,0,0,1.59.83,1.84,1.84,0,0,0,1.45-.64l.24-.33a.17.17,0,0,1,.14-.08A.14.14,0,0,1,119.8,68.49Zm-.39-2.16a1.95,1.95,0,0,0-3.54,1.11,2,2,0,0,0,.18.83Z"/><path class="cls-1" d="M123.53,68.32a1.38,1.38,0,0,1-.41,1,1.35,1.35,0,0,1-1,.41,1.4,1.4,0,0,1-.79-.25,1.37,1.37,0,0,1-.51-.65.15.15,0,0,1,0-.07c0-.1.06-.15.17-.15a.17.17,0,0,1,.15.1l.1.21a1,1,0,0,0,.89.47,1,1,0,0,0,.76-.31,1.06,1.06,0,0,0,.31-.75,1,1,0,0,0-.33-.76,1.13,1.13,0,0,0-.79-.3,1,1,0,0,1-.72-.31,1.05,1.05,0,0,1-.29-.73,1,1,0,0,1,.3-.74,1,1,0,0,1,.74-.31,1,1,0,0,1,.9.52.13.13,0,0,1,0,.08.14.14,0,0,1-.16.16s-.11-.07-.26-.21a.66.66,0,0,0-.5-.22.71.71,0,0,0-.51.21.69.69,0,0,0-.21.51.65.65,0,0,0,.23.51.81.81,0,0,0,.55.2,1.28,1.28,0,0,1,1,.41A1.41,1.41,0,0,1,123.53,68.32Z"/><path class="cls-1" d="M127.68,69.55c0,.11-.05.17-.16.17s-.16-.06-.16-.17v-.44a1.53,1.53,0,0,1-1.25.61,1.57,1.57,0,0,1,0-3.14,1.52,1.52,0,0,1,1.25.6v-.44a1.19,1.19,0,0,0-.37-.87,1.18,1.18,0,0,0-.88-.37,1.22,1.22,0,0,0-.66.21l-.33.2c-.11,0-.17,0-.17-.16a.21.21,0,0,1,0-.12,1.43,1.43,0,0,1,1.11-.46,1.49,1.49,0,0,1,1.11.46,1.51,1.51,0,0,1,.46,1.11Zm-.32-1.4a1.23,1.23,0,0,0-.37-.88,1.21,1.21,0,0,0-.88-.36,1.25,1.25,0,0,0-1.24,1.24,1.16,1.16,0,0,0,.37.87,1.19,1.19,0,0,0,.87.36A1.21,1.21,0,0,0,127,69,1.19,1.19,0,0,0,127.36,68.15Z"/><path class="cls-1" d="M131.7,65.87c0,.1-.06.16-.18.16a1.56,1.56,0,0,1-.29-.26.83.83,0,0,0-.62-.27.85.85,0,0,0-.62.26.86.86,0,0,0-.27.63v3.16c0,.11-.05.17-.16.17s-.16-.06-.16-.17V65.33a.14.14,0,0,1,.16-.16c.11,0,.17.13.16.39a1.17,1.17,0,0,1,.89-.39,1.11,1.11,0,0,1,1.06.61A.16.16,0,0,1,131.7,65.87Z"/><path class="cls-1" d="M135.48,65.87a.15.15,0,0,1-.17.16s-.12-.09-.3-.26a.82.82,0,0,0-.61-.27.89.89,0,0,0-.89.89v3.16a.15.15,0,0,1-.17.17c-.11,0-.16-.06-.16-.17V65.33a.14.14,0,0,1,.16-.16c.11,0,.17.13.17.39a1.15,1.15,0,0,1,.89-.39,1.1,1.1,0,0,1,1,.61A.16.16,0,0,1,135.48,65.87Z"/><path class="cls-1" d="M141,67.44a2.17,2.17,0,0,1-.67,1.61,2.26,2.26,0,0,1-3.21,0,2.17,2.17,0,0,1-.67-1.61,2.14,2.14,0,0,1,.67-1.6,2.26,2.26,0,0,1,3.21,0A2.14,2.14,0,0,1,141,67.44Zm-.33,0a1.95,1.95,0,0,0-3.89,0,1.84,1.84,0,0,0,.57,1.37,1.94,1.94,0,0,0,2.75,0A1.84,1.84,0,0,0,140.71,67.44Z"/><path class="cls-1" d="M143.67,69.55a.15.15,0,0,1-.17.17,1.21,1.21,0,0,1-1.21-1.22V63.23c0-.11.05-.17.16-.17s.16.06.16.17v5.26a.83.83,0,0,0,.27.63.82.82,0,0,0,.62.26A.15.15,0,0,1,143.67,69.55Z"/><path class="cls-1" d="M146.3,69.55a.15.15,0,0,1-.17.17,1.23,1.23,0,0,1-1.22-1.22V63.23a.15.15,0,0,1,.17-.17c.11,0,.16.06.16.17v5.26a.83.83,0,0,0,.27.63.82.82,0,0,0,.62.26A.15.15,0,0,1,146.3,69.55Z"/><path class="cls-1" d="M151.86,67.44A2.27,2.27,0,0,1,148,69.05a2.17,2.17,0,0,1-.67-1.61,2.29,2.29,0,0,1,2.27-2.27,2.29,2.29,0,0,1,2.28,2.27Zm-.33,0a1.95,1.95,0,0,0-3.89,0,1.84,1.84,0,0,0,.57,1.37,1.94,1.94,0,0,0,2.75,0A1.84,1.84,0,0,0,151.53,67.44Z"/><path class="cls-1" d="M160.1,69.55c0,.11,0,.17-.16.17a.15.15,0,0,1-.17-.17v-.93a2.13,2.13,0,0,1-.83.8,2.15,2.15,0,0,1-1.11.3,2.27,2.27,0,0,1-2.27-2.28,2.27,2.27,0,0,1,2.27-2.27,2.25,2.25,0,0,1,1.94,1.1v-3a.15.15,0,0,1,.17-.17c.11,0,.16.06.16.17Zm-.33-2.11a1.95,1.95,0,0,0-3.89,0,1.84,1.84,0,0,0,.57,1.37,1.88,1.88,0,0,0,1.38.57,1.95,1.95,0,0,0,1.94-1.94Z"/><path class="cls-1" d="M165.84,68.49a.29.29,0,0,1,0,.09,2.28,2.28,0,0,1-.83.83,2.32,2.32,0,0,1-1.14.31,2.22,2.22,0,0,1-1.61-.67,2.2,2.2,0,0,1-.66-1.61,2.27,2.27,0,0,1,2.27-2.27,2.31,2.31,0,0,1,.76.14,2.86,2.86,0,0,1,.75.42q.48.38.48.66a.15.15,0,0,1-.08.14l-3.51,2a2,2,0,0,0,3.05.19l.23-.33a.19.19,0,0,1,.14-.08C165.79,68.33,165.84,68.39,165.84,68.49Zm-.39-2.16a1.95,1.95,0,0,0-3.54,1.11,2,2,0,0,0,.18.83Z"/><path class="cls-1" d="M168.47,69.55c0,.11-.05.17-.16.17a1.16,1.16,0,0,1-.86-.36,1.18,1.18,0,0,1-.36-.86V63.23c0-.11,0-.17.16-.17a.15.15,0,0,1,.17.17v5.26a.86.86,0,0,0,.26.63.84.84,0,0,0,.63.26C168.42,69.38,168.47,69.44,168.47,69.55Z"/><path class="cls-1" d="M176.48,65a1.86,1.86,0,0,1-.56,1.36,1.84,1.84,0,0,1-1.36.56h-1.43c-.11,0-.17-.05-.17-.16a.15.15,0,0,1,.17-.17h1.43a1.52,1.52,0,0,0,1.12-.46,1.55,1.55,0,0,0,.47-1.13,1.6,1.6,0,0,0-1.59-1.59H173v6.16c0,.11-.05.17-.16.17s-.16-.06-.16-.17V63.23c0-.11.05-.17.16-.17h1.76A1.91,1.91,0,0,1,176.48,65Z"/><path class="cls-1" d="M182,67.44a2.17,2.17,0,0,1-.67,1.61,2.26,2.26,0,0,1-3.21,0,2.17,2.17,0,0,1-.67-1.61,2.29,2.29,0,0,1,2.27-2.27,2.17,2.17,0,0,1,1.61.67A2.14,2.14,0,0,1,182,67.44Zm-.33,0a1.95,1.95,0,0,0-3.89,0,1.84,1.84,0,0,0,.57,1.37,1.94,1.94,0,0,0,2.75,0A1.84,1.84,0,0,0,181.71,67.44Z"/><path class="cls-1" d="M186.24,69.25a.21.21,0,0,1-.05.11,1.07,1.07,0,0,1-.87.36,1.23,1.23,0,0,1-1.22-1.22v-3h-.89a.14.14,0,0,1-.16-.16.15.15,0,0,1,.16-.17h.89V63.23a.15.15,0,0,1,.17-.17c.11,0,.16.06.16.17v1.94h.89a.15.15,0,0,1,.17.17c0,.11-.06.16-.17.16h-.89v3a.83.83,0,0,0,.27.63.82.82,0,0,0,.62.26,1,1,0,0,0,.49-.15l.26-.15A.15.15,0,0,1,186.24,69.25Z"/><path class="cls-1" d="M191.51,68.49a.15.15,0,0,1,0,.09,2.29,2.29,0,0,1-2,1.14,2.29,2.29,0,0,1-2.27-2.28,2.29,2.29,0,0,1,2.27-2.27,2.31,2.31,0,0,1,.76.14,2.86,2.86,0,0,1,.75.42q.48.38.48.66a.15.15,0,0,1-.08.14l-3.5,2a1.82,1.82,0,0,0,1.59.83,1.84,1.84,0,0,0,1.45-.64l.24-.33a.17.17,0,0,1,.14-.08A.14.14,0,0,1,191.51,68.49Zm-.39-2.16a1.95,1.95,0,0,0-3.54,1.11,2,2,0,0,0,.18.83Z"/><path class="cls-1" d="M196.14,69.55a.15.15,0,0,1-.17.17c-.11,0-.16-.06-.16-.17V66.74a1.26,1.26,0,0,0-1.24-1.24,1.18,1.18,0,0,0-.88.37,1.19,1.19,0,0,0-.37.87v2.81c0,.11,0,.17-.16.17s-.16-.06-.16-.17V65.33a.16.16,0,0,1,.32,0v.45a1.5,1.5,0,0,1,1.25-.61,1.47,1.47,0,0,1,1.1.46,1.52,1.52,0,0,1,.47,1.11Z"/><path class="cls-1" d="M201.32,66a.15.15,0,0,1-.17.17,2.93,2.93,0,0,0-.47-.31,2,2,0,0,0-1-.31,1.95,1.95,0,0,0-1.95,1.94,1.84,1.84,0,0,0,.57,1.37,1.88,1.88,0,0,0,1.38.57,1.94,1.94,0,0,0,1-.3,3.34,3.34,0,0,0,.46-.31.15.15,0,0,1,.17.17.16.16,0,0,1-.05.11,2.09,2.09,0,0,1-1.6.67,2.29,2.29,0,0,1-2.28-2.28,2.29,2.29,0,0,1,2.28-2.27,2.06,2.06,0,0,1,1.6.67A.14.14,0,0,1,201.32,66Z"/><path class="cls-1" d="M203.31,63.41c0,.22-.12.33-.35.33s-.35-.11-.35-.33a.34.34,0,0,1,.11-.25.37.37,0,0,1,.24-.1.35.35,0,0,1,.24.1A.34.34,0,0,1,203.31,63.41Zm-.19,1.92v4.22c0,.11-.05.17-.16.17s-.16-.06-.16-.17V65.33a.16.16,0,0,1,.32,0Z"/><path class="cls-1" d="M207.75,69.55c0,.11-.05.17-.16.17a.15.15,0,0,1-.17-.17v-.44a1.57,1.57,0,1,1,0-1.93v-.44a1.25,1.25,0,0,0-1.24-1.24,1.28,1.28,0,0,0-.67.21l-.32.2c-.11,0-.17,0-.17-.16a.21.21,0,0,1,0-.12,1.42,1.42,0,0,1,1.11-.46,1.57,1.57,0,0,1,1.57,1.57Zm-.33-1.4a1.23,1.23,0,0,0-1.24-1.24,1.25,1.25,0,0,0-1.24,1.24,1.16,1.16,0,0,0,.37.87,1.19,1.19,0,0,0,.87.36,1.22,1.22,0,0,0,.88-.36A1.19,1.19,0,0,0,207.42,68.15Z"/><path class="cls-1" d="M210.61,69.55c0,.11-.05.17-.16.17a1.16,1.16,0,0,1-.86-.36,1.18,1.18,0,0,1-.36-.86V63.23c0-.11.05-.17.16-.17a.15.15,0,0,1,.17.17v5.26a.89.89,0,0,0,.89.89C210.56,69.38,210.61,69.44,210.61,69.55Z"/><path class="cls-1" d="M219.32,69.55c0,.11,0,.17-.16.17a.15.15,0,0,1-.17-.17v-3H215.1v3c0,.11,0,.17-.16.17a.15.15,0,0,1-.17-.17V63.23a.15.15,0,0,1,.17-.17c.11,0,.16.06.16.17v3H219v-3a.15.15,0,0,1,.17-.17c.11,0,.16.06.16.17Z"/><path class="cls-1" d="M224.18,68.15a1.61,1.61,0,0,1-1.57,1.57,1.5,1.5,0,0,1-1.11-.47,1.47,1.47,0,0,1-.46-1.1V65.33a.16.16,0,0,1,.32,0v2.81a1.23,1.23,0,0,0,.37.88,1.21,1.21,0,0,0,.88.36,1.25,1.25,0,0,0,1.24-1.24V65.33a.14.14,0,0,1,.16-.16c.11,0,.17,0,.17.16Z"/><path class="cls-1" d="M231.84,69.55c0,.11-.05.17-.16.17s-.16-.06-.16-.17V66.74a1.19,1.19,0,0,0-.37-.87,1.18,1.18,0,0,0-.88-.37A1.26,1.26,0,0,0,229,66.74v2.81c0,.11-.05.17-.16.17a.15.15,0,0,1-.17-.17V66.74a1.25,1.25,0,0,0-1.24-1.24,1.26,1.26,0,0,0-1.24,1.24v2.81c0,.11-.05.17-.16.17a.15.15,0,0,1-.17-.17V65.33c0-.11.06-.16.17-.16a.14.14,0,0,1,.16.16v.45a1.49,1.49,0,0,1,1.24-.61,1.47,1.47,0,0,1,1.41.87,1.46,1.46,0,0,1,1.4-.87,1.57,1.57,0,0,1,1.57,1.57Z"/><path class="cls-1" d="M236.24,69.55a.15.15,0,0,1-.17.17c-.11,0-.16-.06-.16-.17v-.44a1.53,1.53,0,0,1-1.25.61,1.57,1.57,0,0,1,0-3.14,1.52,1.52,0,0,1,1.25.6v-.44a1.26,1.26,0,0,0-1.25-1.24,1.22,1.22,0,0,0-.66.21l-.33.2c-.11,0-.17,0-.17-.16a.21.21,0,0,1,.05-.12,1.45,1.45,0,0,1,1.11-.46,1.48,1.48,0,0,1,1.11.46,1.52,1.52,0,0,1,.47,1.11Zm-.33-1.4a1.24,1.24,0,0,0-2.12-.88,1.23,1.23,0,0,0-.37.88,1.24,1.24,0,0,0,2.12.87A1.16,1.16,0,0,0,235.91,68.15Z"/><path class="cls-1" d="M241.09,69.55a.15.15,0,0,1-.17.17c-.11,0-.16-.06-.16-.17V66.74a1.26,1.26,0,0,0-1.24-1.24,1.18,1.18,0,0,0-.88.37,1.19,1.19,0,0,0-.37.87v2.81c0,.11-.05.17-.16.17s-.16-.06-.16-.17V65.33a.16.16,0,1,1,.32,0v.45a1.5,1.5,0,0,1,1.25-.61,1.47,1.47,0,0,1,1.1.46,1.52,1.52,0,0,1,.47,1.11Z"/><path class="cls-1" d="M246.88,67.44a2.17,2.17,0,0,1-.67,1.61A2.27,2.27,0,1,1,243,65.84a2.26,2.26,0,0,1,3.21,0A2.14,2.14,0,0,1,246.88,67.44Zm-.33,0a1.95,1.95,0,0,0-3.89,0,1.84,1.84,0,0,0,.57,1.37,1.94,1.94,0,0,0,2.75,0A1.84,1.84,0,0,0,246.55,67.44Z"/><path class="cls-3" d="M51.58,59c.12-6.12-.76-12.28-4.41-17.35s-9.92-7.44-15.91-8.23C18.54,31.78,7.78,41.56,8.89,54.41a11.46,11.46,0,0,0,7.78,10c4.78,1.83,12-.31,13.57-5.59,1.25-4.13-.64-9.14-5.43-9.59-5.89-.55-11.25,4.32-13.6,9.35-1,2.1,2.14,3.94,3.13,1.83,1.74-3.72,5.25-7.45,9.6-7.64,2-.09,3,1.63,3.14,3.4.12,2.57-2.2,4.19-4.33,4.92a8,8,0,0,1-9.82-4.9c-1.16-3.23-.33-7,.76-10.08,3.21-9.14,14.14-10.5,22.21-8C45.39,41.08,48.14,50,48,59c-.05,2.33,3.57,2.33,3.62,0Z"/><path class="cls-3" d="M42.07,51.73a39,39,0,0,1,.68,6.4,17.11,17.11,0,0,1-2.18,8.47C36,74.9,25,79.71,15.81,79.63a25.72,25.72,0,0,1-8.3-1.34c-5.28-2-8-5-7.51-11.12A7.52,7.52,0,0,1,3.23,62c4.47-2.89,7.76,1,11.57,3.11a24,24,0,0,0,13.67,2.61A15.17,15.17,0,0,0,39.09,62C41.41,59.09,41.77,55.36,42.07,51.73Z"/><path class="cls-3" d="M46.77,37.49c2.8,0,2.8-4.35,0-4.35s-2.8,4.35,0,4.35Z"/><path class="cls-3" d="M32.62,31.71c2.8,0,2.8-4.34,0-4.34s-2.81,4.34,0,4.34Z"/><path class="cls-3" d="M16.43,34.63c2.8,0,2.8-4.34,0-4.34s-2.8,4.34,0,4.34Z"/></svg>