<svg id="Layer_1" data-name="Layer 1" xmlns="http://www.w3.org/2000/svg" viewBox="0 0 288 107"><title>Artboard 49 copy 6</title><path d="M43.85,58.8a12.78,12.78,0,0,1-1.76,6.84,14.41,14.41,0,0,1-4.63,4.69A20.4,20.4,0,0,1,31,73a33.64,33.64,0,0,1-7.43.81,39.24,39.24,0,0,1-8.34-.92A23.56,23.56,0,0,1,7.6,69.77,16.73,16.73,0,0,1,2.05,64.1C.63,61.75,0,58.66,0,54.8H6.82a14.83,14.83,0,0,0,1.33,6.83,11.2,11.2,0,0,0,3.56,4.06A15.38,15.38,0,0,0,17.07,68a30.31,30.31,0,0,0,6.8.72,21.76,21.76,0,0,0,4.92-.54A13.89,13.89,0,0,0,33,66.44a9,9,0,0,0,2.93-3A8.13,8.13,0,0,0,37,59.14a6.85,6.85,0,0,0-1.34-4.45A9.93,9.93,0,0,0,32.05,52a24.33,24.33,0,0,0-5.23-1.69c-2-.43-3.84-.89-5.6-1.39-2.57-.51-5-1-7.25-1.62A26.4,26.4,0,0,1,7.89,45a12.85,12.85,0,0,1-4.41-3.87,10.57,10.57,0,0,1-1.73-6.3,12.2,12.2,0,0,1,1.78-6.74,13.54,13.54,0,0,1,4.68-4.44,22.19,22.19,0,0,1,6.45-2.41,34.62,34.62,0,0,1,7.13-.75,33.82,33.82,0,0,1,7.84.86,19.29,19.29,0,0,1,6.5,2.74,13.55,13.55,0,0,1,4.48,5,19.33,19.33,0,0,1,1.89,8.13H35.91a13,13,0,0,0-1.18-5.76,9.43,9.43,0,0,0-3-3.37,12.91,12.91,0,0,0-4.48-1.9,23.7,23.7,0,0,0-5.47-.6,27.15,27.15,0,0,0-4.72.42,15.21,15.21,0,0,0-4.34,1.47A9.43,9.43,0,0,0,9.56,30.1a6.94,6.94,0,0,0-1.19,4.18,6,6,0,0,0,1.46,4.21,11.31,11.31,0,0,0,3.81,2.63,27.42,27.42,0,0,0,5.55,1.69c2.12.44,4.26.91,6.4,1.4,2.38.54,4.66,1.13,6.86,1.74a23,23,0,0,1,5.82,2.47,12.25,12.25,0,0,1,4.06,4A11.93,11.93,0,0,1,43.85,58.8Z"/><polygon points="55.49 40.21 55.49 72.56 49.02 72.56 49.02 40.21 44.94 40.21 44.94 35.79 49.02 35.79 49.02 27.32 55.41 23.46 55.41 35.79 59.57 35.79 59.57 40.21 55.49 40.21"/><path d="M95.43,59.28a15.86,15.86,0,0,1-1.88,6,14.61,14.61,0,0,1-3.75,4.4,16.79,16.79,0,0,1-5.37,2.78,21.78,21.78,0,0,1-6.61,1,20.53,20.53,0,0,1-8-1.47,17.15,17.15,0,0,1-6-4A17.61,17.61,0,0,1,60.17,62a20.51,20.51,0,0,1-1.27-7.23,23,23,0,0,1,1.27-7.63,18.68,18.68,0,0,1,3.72-6.33A17.37,17.37,0,0,1,70,36.47a21,21,0,0,1,8.47-1.59,21.59,21.59,0,0,1,6.14.87,16.85,16.85,0,0,1,5.21,2.54,14,14,0,0,1,3.71,4,14.2,14.2,0,0,1,1.87,6L65.52,58.24A13,13,0,0,0,66.78,62a12.05,12.05,0,0,0,2.51,3.45A11.11,11.11,0,0,0,73,67.74a13.68,13.68,0,0,0,4.94.82,13.39,13.39,0,0,0,4.31-.66A11.13,11.13,0,0,0,85.64,66a9.14,9.14,0,0,0,2.42-2.92,11.66,11.66,0,0,0,1.2-4.46h6.17ZM88.75,46.46a8.73,8.73,0,0,0-3.6-4.92,11.52,11.52,0,0,0-6.58-1.82,13.91,13.91,0,0,0-5.89,1.14,11.18,11.18,0,0,0-4.05,3,12.78,12.78,0,0,0-2.4,4.46,17.76,17.76,0,0,0-.86,4.93v.79l24.4-7.92Z"/><path d="M108,25.88a3,3,0,0,0-1.36.55,3.13,3.13,0,0,0-.91,1.31,7.33,7.33,0,0,0-.35,2.56v5.49h4.15v4.7h-4.08V72.56H99V40.49H95V36H99V29.06A9.8,9.8,0,0,1,99.76,25a6.93,6.93,0,0,1,2-2.57,6.79,6.79,0,0,1,2.87-1.31,15.8,15.8,0,0,1,3.3-.35c1.29,0,2.3,0,3,.11s1.72.11,3,.11v4.78S108.58,25.79,108,25.88Z"/><path d="M125.22,25.88a2.88,2.88,0,0,0-1.36.55,3,3,0,0,0-.91,1.31,7.1,7.1,0,0,0-.35,2.56v5.49h4.15v4.7h-4.08V72.56H116.2V40.49h-4.07V36h4.07V29.06a9.63,9.63,0,0,1,.74-4.06,6.62,6.62,0,0,1,4.83-3.88,15.87,15.87,0,0,1,3.3-.35c1.29,0,2.3,0,3,.11s1.72.11,3,.11v4.78S125.75,25.79,125.22,25.88Z"/><path d="M156.72,72.58V67.07q-.74,2.87-4.39,4.6A19.31,19.31,0,0,1,144,73.41,20.75,20.75,0,0,1,136,72a17.08,17.08,0,0,1-5.94-4,18,18,0,0,1-3.77-5.93A19.76,19.76,0,0,1,125,54.73a23.08,23.08,0,0,1,1.24-7.63,17.34,17.34,0,0,1,9.91-10.63,21.27,21.27,0,0,1,8.5-1.59,19.58,19.58,0,0,1,7.72,1.52c2.42,1,3.84,2.42,4.28,4.19V35.78h6.45v36.8Zm0-24.74a5.61,5.61,0,0,0-1-3.14,9.61,9.61,0,0,0-2.66-2.57,14.58,14.58,0,0,0-3.71-1.75,12.91,12.91,0,0,0-3.94-.66A14.88,14.88,0,0,0,138.86,41a12.1,12.1,0,0,0-4.31,3.37,13.15,13.15,0,0,0-2.36,4.8,21.52,21.52,0,0,0-.72,5.53,17.66,17.66,0,0,0,.83,5.45,12.19,12.19,0,0,0,2.51,4.4,11.74,11.74,0,0,0,4.11,2.92,14.47,14.47,0,0,0,5.82,1.06,15.4,15.4,0,0,0,4.45-.64A12.72,12.72,0,0,0,153,66.08a9.44,9.44,0,0,0,2.69-2.91,7.47,7.47,0,0,0,1-3.9Z"/><path d="M193.62,72.56V49.76a10.29,10.29,0,0,0-2.36-7.09c-1.59-1.77-4-2.67-7.28-2.67a11.62,11.62,0,0,0-5,1,10,10,0,0,0-3.47,2.63,11.47,11.47,0,0,0-2.09,3.82,15.29,15.29,0,0,0-.71,4.66V72.56h-6.47V35.78h6.39v7.43a7.32,7.32,0,0,1,4-6.1,17.39,17.39,0,0,1,8.94-2.23c4.46,0,8,1.2,10.59,3.61a12.46,12.46,0,0,1,3.92,9.62V72.56Z"/><path d="M270.91,72.56V49.76a10.25,10.25,0,0,0-2.37-7.09c-1.58-1.77-4-2.67-7.27-2.67a11.62,11.62,0,0,0-5,1,10,10,0,0,0-3.47,2.63,11.3,11.3,0,0,0-2.09,3.82,15.29,15.29,0,0,0-.71,4.66V72.56h-6.47V35.78h6.38v7.43a7.36,7.36,0,0,1,4-6.1,17.43,17.43,0,0,1,9-2.23c4.46,0,8,1.2,10.59,3.61a12.46,12.46,0,0,1,3.92,9.62V72.56Z"/><rect x="280.38" y="35.78" width="6.39" height="36.79"/><path d="M117.16,83.05v3.23h-1.1V78.92h5.11a2.46,2.46,0,0,1,1.67.53,1.91,1.91,0,0,1,.62,1.52,2,2,0,0,1-.59,1.49,2.13,2.13,0,0,1-1.58.59Zm0-1.07h4a1.44,1.44,0,0,0,.85-.24,1,1,0,0,0,.32-.75.91.91,0,0,0-.3-.72,1.19,1.19,0,0,0-.82-.26h-4.06Z"/><path d="M126.09,83.05v3.23H125V78.92h4.83a2.51,2.51,0,0,1,1.68.54,2,2,0,0,1,.61,1.52,2.12,2.12,0,0,1-.46,1.37,2.06,2.06,0,0,1-1.28.7l2,3.23h-1.19l-2-3.23Zm0-1.07h3.75a1.31,1.31,0,0,0,.87-.26A.94.94,0,0,0,131,81a.91.91,0,0,0-.3-.74,1.26,1.26,0,0,0-.87-.26h-3.75Z"/><path d="M137.81,86.51a4.4,4.4,0,0,1-3.07-1.12,3.76,3.76,0,0,1,0-5.56,4.35,4.35,0,0,1,3.07-1.1,4.44,4.44,0,0,1,3.12,1.08,3.56,3.56,0,0,1,1.21,2.79,3.64,3.64,0,0,1-1.22,2.79A4.43,4.43,0,0,1,137.81,86.51Zm0-1.08a3.24,3.24,0,0,0,2.3-.82,2.54,2.54,0,0,0,.89-2,2.59,2.59,0,0,0-.89-2,3.64,3.64,0,0,0-4.58,0,2.61,2.61,0,0,0-.89,2,2.55,2.55,0,0,0,.9,2A3.2,3.2,0,0,0,137.83,85.43Z"/><path d="M147.11,80h-2v5.22h2a2.7,2.7,0,0,0,2-.7,2.55,2.55,0,0,0,.71-1.9,2.58,2.58,0,0,0-.74-1.89A2.66,2.66,0,0,0,147.11,80Zm0-1.07a3.87,3.87,0,0,1,2.79,1,3.64,3.64,0,0,1,1,2.68,3.53,3.53,0,0,1-1,2.66,3.94,3.94,0,0,1-2.81,1H144V78.92Z"/><path d="M152.59,78.92h1.09v4.73a1.81,1.81,0,0,0,.49,1.44,3.41,3.41,0,0,0,1.89.36,3.52,3.52,0,0,0,1.9-.36,1.81,1.81,0,0,0,.47-1.44V78.92h1.09v5a2.25,2.25,0,0,1-.81,2,4.66,4.66,0,0,1-2.67.6,4.49,4.49,0,0,1-2.64-.6,2.25,2.25,0,0,1-.81-2Z"/><path d="M169.39,84.47a3.82,3.82,0,0,1-1.56,1.5,4.65,4.65,0,0,1-2.25.54,4.3,4.3,0,0,1-3-1.1,3.56,3.56,0,0,1-1.21-2.79,3.61,3.61,0,0,1,1.21-2.79,4.26,4.26,0,0,1,3-1.1,6.23,6.23,0,0,1,1.13.09,3.32,3.32,0,0,1,1,.34,3.67,3.67,0,0,1,1.52,1.29l-.87.64a2.75,2.75,0,0,0-1.17-1,3.79,3.79,0,0,0-1.57-.34,3.15,3.15,0,0,0-2.23.82,2.61,2.61,0,0,0-.88,2,2.7,2.7,0,0,0,.88,2,3.21,3.21,0,0,0,2.23.8,3.66,3.66,0,0,0,1.67-.38,4,4,0,0,0,1.24-1.2Z"/><path d="M178.66,84.47A3.82,3.82,0,0,1,177.1,86a4.65,4.65,0,0,1-2.25.54,4.3,4.3,0,0,1-3-1.1,3.56,3.56,0,0,1-1.21-2.79,3.61,3.61,0,0,1,1.21-2.79,4.26,4.26,0,0,1,3-1.1,6.35,6.35,0,0,1,1.14.09,3.42,3.42,0,0,1,1,.34,3.8,3.8,0,0,1,1.52,1.29l-.88.64a2.78,2.78,0,0,0-1.16-1,3.87,3.87,0,0,0-1.58-.34,3.15,3.15,0,0,0-2.23.82,2.61,2.61,0,0,0-.88,2,2.7,2.7,0,0,0,.88,2,3.23,3.23,0,0,0,2.23.8,3.53,3.53,0,0,0,1.66-.38,4,4,0,0,0,1.26-1.2Z"/><rect x="180.51" y="78.89" width="1.11" height="7.39"/><path d="M187.75,86.51a4.4,4.4,0,0,1-3.08-1.12,3.78,3.78,0,0,1,0-5.56,4.94,4.94,0,0,1,6.19,0,3.52,3.52,0,0,1,1.2,2.79,3.63,3.63,0,0,1-1.21,2.79A4.39,4.39,0,0,1,187.75,86.51Zm0-1.08a3.27,3.27,0,0,0,2.31-.82,2.57,2.57,0,0,0,.88-2,2.61,2.61,0,0,0-.88-2,3.67,3.67,0,0,0-4.6,0,2.66,2.66,0,0,0-.87,2,2.58,2.58,0,0,0,.89,2A3.22,3.22,0,0,0,187.76,85.43Z"/><polygon points="193.93 86.28 193.93 78.9 194.49 78.9 198.96 84.07 198.96 78.9 200.04 78.9 200.04 86.28 199.46 86.28 194.99 81.12 194.99 86.28 193.93 86.28"/><path d="M211.23,80h-2v5.22h2a2.7,2.7,0,0,0,2-.7,2.56,2.56,0,0,0,.72-1.9,2.59,2.59,0,0,0-.75-1.89A2.66,2.66,0,0,0,211.23,80Zm0-1.07a3.87,3.87,0,0,1,2.79,1,3.66,3.66,0,0,1,1,2.68,3.53,3.53,0,0,1-1,2.66,3.94,3.94,0,0,1-2.81,1h-3.1V78.92Z"/><polygon points="216.7 86.28 216.7 78.92 223.28 78.92 223.28 80.01 217.78 80.01 217.78 81.82 221.38 81.82 221.38 82.89 217.78 82.89 217.78 85.21 223.59 85.21 223.59 86.28 216.7 86.28"/><polygon points="230.77 86.28 230.77 78.92 237.35 78.92 237.35 80.01 231.86 80.01 231.86 81.82 235.46 81.82 235.46 82.89 231.86 82.89 231.86 85.21 237.66 85.21 237.66 86.28 230.77 86.28"/><polygon points="242.31 86.28 241.75 86.28 238.22 78.9 239.4 78.9 242.04 84.42 244.63 78.9 245.84 78.9 242.31 86.28"/><polygon points="247.18 86.28 247.18 78.92 253.77 78.92 253.77 80.01 248.28 80.01 248.28 81.82 251.88 81.82 251.88 82.89 248.28 82.89 248.28 85.21 254.09 85.21 254.09 86.28 247.18 86.28"/><polygon points="255.7 86.28 255.7 78.9 256.26 78.9 260.74 84.07 260.74 78.9 261.81 78.9 261.81 86.28 261.23 86.28 256.78 81.12 256.78 86.28 255.7 86.28"/><polygon points="265.94 86.28 265.94 79.95 262.97 79.95 262.97 78.92 270.01 78.92 270.01 79.95 267.04 79.95 267.04 86.28 265.94 86.28"/><path d="M274.77,86.51a4.4,4.4,0,0,1-3.08-1.12,3.78,3.78,0,0,1,0-5.56,4.36,4.36,0,0,1,3.08-1.1,4.41,4.41,0,0,1,3.11,1.08,3.55,3.55,0,0,1,1.2,2.79,3.63,3.63,0,0,1-1.21,2.79A4.4,4.4,0,0,1,274.77,86.51Zm0-1.08a3.27,3.27,0,0,0,2.31-.82,2.6,2.6,0,0,0,.88-2,2.64,2.64,0,0,0-.88-2,3.67,3.67,0,0,0-4.6,0,2.66,2.66,0,0,0-.87,2,2.54,2.54,0,0,0,.89,2A3.22,3.22,0,0,0,274.78,85.43Z"/><path d="M280.21,85.33l.54-1a5.93,5.93,0,0,0,.7.43,5.55,5.55,0,0,0,.88.37,4.92,4.92,0,0,0,1.63.29,2.49,2.49,0,0,0,1.52-.42,1.22,1.22,0,0,0,.58-1,1,1,0,0,0-.54-.94,2.93,2.93,0,0,0-.65-.25,4.61,4.61,0,0,0-1-.09,8.88,8.88,0,0,1-1.59-.12,3.23,3.23,0,0,1-1-.34,1.57,1.57,0,0,1-.71-1.47,1.85,1.85,0,0,1,.78-1.53,3.53,3.53,0,0,1,2.11-.55,6.53,6.53,0,0,1,1.8.24,6.31,6.31,0,0,1,1.6.8l-.55,1a4.74,4.74,0,0,0-1.41-.69,4.4,4.4,0,0,0-1.46-.27,2.49,2.49,0,0,0-1.25.28.86.86,0,0,0-.51.77.72.72,0,0,0,.5.71,4.76,4.76,0,0,0,1.69.21,7.68,7.68,0,0,1,1.48.12,2.8,2.8,0,0,1,1,.46,2,2,0,0,1,.86,1.77,2.13,2.13,0,0,1-.86,1.73,3.49,3.49,0,0,1-2.26.7,7.21,7.21,0,0,1-3.87-1.18Z"/><path d="M279.43,29.4a4.29,4.29,0,1,1,4.28,4.32A4.3,4.3,0,0,1,279.43,29.4Z"/><path d="M221.85,34.66a20,20,0,0,0-2.13,39.91V70.69c-4.49-.57-8.5-3.33-8.55-8.32,0-1.7,0-4.31,0-4.31h3.06v4.31c.11,7.17,14.4,7.15,14.62-.08,0-2.7,0-4.85,0-4.85h3.05s0,3.25,0,4.58c0,5.34-4.43,8.25-9.19,8.7v3.92a20,20,0,0,0-.92-40Zm5.81,27.09c0,6-12.21,6.15-12.21.62,0,0-.11-10.75-.11-14.49a5.05,5.05,0,0,1,1.94-4.14v9.4h1.83V42.73a8.81,8.81,0,0,1,1.22-.33V53.14h1.84V42.25a10.05,10.05,0,0,1,1.22.11V53.14h1.83V42.92a3.82,3.82,0,0,1,2.44,3.44C227.7,52.51,227.66,57.86,227.66,61.75Z"/></svg>