<svg id="Layer_1" data-name="Layer 1" xmlns="http://www.w3.org/2000/svg" viewBox="0 0 288 107"><defs><style>.cls-1{fill:#231f20;}</style></defs><title>Artboard 49 copy 21</title><path class="cls-1" d="M135.83,90.68c-1.41-2.6-2.77-4.91-3.92-7.31-4.65-9.66-9-19.47-13.92-29a61.06,61.06,0,0,0-15.65-19.71,29.51,29.51,0,0,0-16.48-7c-2-.16-2.09,0-1.87,2,1.51,13.81,1.4,27.55-1.83,41.14C80.94,76,79.33,81,76.08,85.31c-3.1,4.1-4.1,4.18-7.32.34A44.82,44.82,0,0,1,58.15,59.7C57,43.8,62.51,30.55,74.51,20.12,91.65,5.22,118,5.39,135,20.3c9.11,8,14.65,17.91,16,29.9C152.8,65.93,147.6,79.27,135.83,90.68Z"/><path class="cls-1" d="M179.29,98H159.77V9.11c.55,0,1.15-.07,1.74-.07,11.33,0,22.66,0,34,0,8.13,0,15.89,1.49,22.66,6.36s10.51,11.65,11.52,20c.89,7.29,0,14.27-3.76,20.66-4.4,7.43-11.24,11.55-19.4,13.79a51.4,51.4,0,0,1-13.87,1.48c-4.39,0-8.78,0-13.36,0Zm1.39-48.54a19.78,19.78,0,0,0,2.19.34c4.38.16,8.77.45,13.14.34a20,20,0,0,0,6.69-1.37c3.77-1.48,6.16-4.31,6.3-8.55a8.88,8.88,0,0,0-5.83-9,20.92,20.92,0,0,0-7-1.58c-4.66-.24-9.35-.07-14-.07-.49,0-1,.07-1.49.11Z"/></svg>