<svg id="Layer_1" data-name="Layer 1" xmlns="http://www.w3.org/2000/svg" xmlns:xlink="http://www.w3.org/1999/xlink" viewBox="0 0 288 107"><defs><style>.cls-1{fill:url(#linear-gradient);}.cls-2,.cls-5{fill:none;}.cls-3{clip-path:url(#clip-path);}.cls-4{fill:#fff;}.cls-5{stroke:#101b2c;stroke-miterlimit:10;stroke-width:4px;}.cls-6{fill:#101b2c;}.cls-7{clip-path:url(#clip-path-2);}.cls-8{fill:url(#linear-gradient-3);}</style><linearGradient id="linear-gradient" x1="57.89" y1="-16.78" x2="7.67" y2="147.35" gradientUnits="userSpaceOnUse"><stop offset="0" stop-color="#00a9a6"/><stop offset="0.72" stop-color="#026093"/><stop offset="1" stop-color="#026093"/></linearGradient><clipPath id="clip-path"><path class="cls-1" d="M82.72,19.73h0A3.36,3.36,0,0,0,78,16.67L65.17,22.26c-5-7-12.37-11.36-20.52-11.36-8.36,0-15.86,4.64-20.89,11.92L9.6,16.67a3.36,3.36,0,0,0-4.69,3.06h0A143.37,143.37,0,0,0,7.32,44.26v.05c.35,1.9.75,3.85,1.22,5.84,0,.1.07.18.1.28,1.61,6.76,4.59,17.44,8.56,23.33h0C22.82,83.93,31,92.52,42.86,96.07a3.3,3.3,0,0,0,1.92,0c9.56-2.86,16.71-9,22.07-16.58C77.47,64.86,80.64,42.4,80.64,42.4a141.26,141.26,0,0,0,2.08-22.67"/></clipPath><clipPath id="clip-path-2"><path class="cls-2" d="M74.07,55.06a3.38,3.38,0,0,1-2.52-3.89c.91-5.1,3.52-17.33,3.84-20.62a3.35,3.35,0,0,0-4.67-3.39c-5.68,2.46-8,3.33-14,5.94A3.35,3.35,0,0,1,54.06,27L78,16.71a3.41,3.41,0,0,1,4.77,3h0a118.69,118.69,0,0,1-4.5,32.71,3.49,3.49,0,0,1-4.15,2.62"/></clipPath><linearGradient id="linear-gradient-3" x1="918.43" y1="155.56" x2="919.65" y2="155.56" gradientTransform="matrix(25.05, 0, 0, -25.05, -22952.96, 3932.24)" gradientUnits="userSpaceOnUse"><stop offset="0" stop-color="#00a9a6"/><stop offset="1" stop-color="#026093"/></linearGradient></defs><title>Artboard 49 copy 18</title><path class="cls-1" d="M82.72,19.73h0A3.36,3.36,0,0,0,78,16.67L65.17,22.26c-5-7-12.37-11.36-20.52-11.36-8.36,0-15.86,4.64-20.89,11.92L9.6,16.67a3.36,3.36,0,0,0-4.69,3.06h0A143.37,143.37,0,0,0,7.32,44.26v.05c.35,1.9.75,3.85,1.22,5.84,0,.1.07.18.1.28,1.61,6.76,4.59,17.44,8.56,23.33h0C22.82,83.93,31,92.52,42.86,96.07a3.3,3.3,0,0,0,1.92,0c9.56-2.86,16.71-9,22.07-16.58C77.47,64.86,80.64,42.4,80.64,42.4a141.26,141.26,0,0,0,2.08-22.67"/><g class="cls-3"><path class="cls-4" d="M29.37,22.85s17.07-12.31,29.38,0l6.3-5.31L44.73,7.84,25,17.49Z"/></g><polyline class="cls-5" points="7.78 54.59 10.03 61.02 15.03 55.36"/><path class="cls-6" d="M86,40.15a119.7,119.7,0,0,0,1.66-20.3v-.14h0v-.19c0-.06,0-.11,0-.17a8.23,8.23,0,0,0-11.52-7.17l-.13.06-9.36,4C60.65,9.69,52.83,6,44.65,6,36.21,6,28.22,9.9,22.22,16.81L11.55,12.18A8.23,8.23,0,0,0,0,19.5v.23A146,146,0,0,0,2,42.36l0,0,.53,2.79c.37,2,.79,4,1.27,6.12,0,.16.1.31.15.47l0,.15C5.83,59.67,8.87,70,13,76.26,18.16,85.61,24.69,92.53,32.52,97l.68.39,1.28.66,1.09.52c.37.18.74.35,1.12.51s.94.39,1.42.57c.3.12.61.25.92.36.77.28,1.55.55,2.35.79l.07,0c.25.07.51.12.76.17a9.62,9.62,0,0,0,1.06.14c.19,0,.36,0,.55,0s.43,0,.65-.05a8,8,0,0,0,1-.14c.25-.05.49-.09.73-.16h0c.79-.24,1.56-.5,2.32-.78.24-.08.49-.17.73-.27.58-.22,1.17-.46,1.74-.71l1.12-.5c.46-.22.91-.43,1.36-.67s.82-.42,1.22-.64l.63-.36A49,49,0,0,0,71.56,81.3C82,66.18,85.24,44.84,85.48,43.16,85.66,42.13,85.81,41.13,86,40.15ZM66.85,79.5l-.53.72c-.3.4-.59.8-.9,1.19l-.58.75c-.43.54-.88,1.07-1.33,1.59l-.58.65q-.57.63-1.17,1.23l-.47.49c-.52.52-1,1-1.59,1.5l-.58.51c-.57.5-1.15,1-1.75,1.44l-.34.26c-.54.41-1.1.81-1.66,1.19l-.53.36c-.65.43-1.32.84-2,1.23l-.46.26c-.63.34-1.27.68-1.92,1l-.39.19c-.74.35-1.5.67-2.28,1l-.54.2c-.81.31-1.63.59-2.47.84a3.18,3.18,0,0,1-1.93,0h0c-.85-.25-1.68-.54-2.49-.84l-.77-.31c-.56-.22-1.11-.46-1.65-.7l-.82-.39c-.53-.25-1-.52-1.55-.8l-.73-.39c-.71-.41-1.4-.83-2.07-1.27-.18-.11-.34-.24-.51-.36-.51-.34-1-.69-1.49-1.06-.29-.21-.56-.43-.84-.65s-.72-.58-1.06-.87L28,87.66l-.91-.85c-.3-.28-.6-.56-.89-.85s-.48-.51-.72-.77c-.62-.64-1.21-1.3-1.79-2-.17-.2-.35-.4-.52-.61-.33-.41-.67-.84-1-1.26-.15-.19-.3-.38-.44-.58-.34-.45-.68-.91-1-1.38-.09-.11-.17-.24-.25-.35a61.74,61.74,0,0,1-3.25-5.28h0a76.83,76.83,0,0,1-3.89-8.2,3.36,3.36,0,0,1,3.1-4.6,3.7,3.7,0,0,1,.8.09l.09,0a3.37,3.37,0,0,1,2.34,2c4.58,11.34,11.76,21.58,23,25.84a3.1,3.1,0,0,0,1.13.21A3.18,3.18,0,0,0,45,88.94c9-3.39,15.35-10.58,19.89-19.09a3.34,3.34,0,0,0-2.2-4.79L11,52.66a3.32,3.32,0,0,1-2.37-2.21v0c0-.1-.08-.18-.1-.28s0-.13-.05-.2c-.21-.92-.41-1.83-.6-2.74v-.05c-.2-1-.38-1.9-.56-2.84L7.27,44c-.11-.65-.23-1.3-.34-1.93,0-.1,0-.2,0-.3-.11-.68-.22-1.36-.32-2l-.06-.4c-.09-.66-.19-1.3-.27-1.94,0-.11,0-.23-.05-.34-.09-.66-.17-1.31-.25-2v-.07c-.08-.67-.16-1.33-.23-2v0c-.07-.64-.13-1.27-.19-1.87V31c-.06-.61-.11-1.2-.15-1.76v-.05c-.43-5.32-.43-8.88-.43-9.48h0v0a3.4,3.4,0,0,1,3.4-3.28,3.49,3.49,0,0,1,1.36.28l.37.16L45.16,32.16a3.35,3.35,0,1,1-2.66,6.16c-6-2.62-19.9-8.69-25.59-11.16a3.39,3.39,0,0,0-1.34-.28,3.33,3.33,0,0,0-3.32,3.67c.39,4,1,8.86,2.05,14.05a3.33,3.33,0,0,0,2.5,2.58L72.19,60.52A3.35,3.35,0,0,1,74.52,65a69.88,69.88,0,0,1-7.67,14.48ZM24,60.82l35.5,8.53C55.26,76.65,50,81.61,43.82,84.12c-8.25-3.36-14.85-11-19.61-22.85ZM68.16,42.88c-.57,2.87-1.11,5.58-1.44,7.42A8.33,8.33,0,0,0,67,54.22L40,47.73,18.91,42.65c-.61-3.22-1.11-6.54-1.51-9.93l10,4.35,13.18,5.74a8.08,8.08,0,0,0,3.28.69,8.25,8.25,0,0,0,8-6.07,8.16,8.16,0,0,0,3.62.85,8.32,8.32,0,0,0,3.29-.68c3-1.32,5.12-2.19,7.15-3l4.26-1.8C69.63,35.49,68.83,39.48,68.16,42.88Zm10.06,9.56a3.58,3.58,0,0,1-3.35,2.72,3.13,3.13,0,0,1-.8-.1,3.38,3.38,0,0,1-2.52-3.89c.91-5.1,3.52-17.33,3.84-20.62a3.35,3.35,0,0,0-3.33-3.67,3.39,3.39,0,0,0-1.34.28c-5.68,2.47-8,3.33-14,5.94a3.39,3.39,0,0,1-1.34.28A3.35,3.35,0,0,1,54.07,27l11.06-4.74,0,.05L78,16.71a3.41,3.41,0,0,1,4.76,3h0a140.19,140.19,0,0,1-1.56,19.39A118.26,118.26,0,0,1,78.22,52.44ZM61.78,18.31l-9.65,4.14a8.24,8.24,0,0,0-4.68,5.4,3.65,3.65,0,0,0-.34-.18L27,18.89a24.5,24.5,0,0,1,17.69-8A24.36,24.36,0,0,1,61.78,18.31Z"/><path class="cls-2" d="M42.5,38.32c-6-2.62-19.9-8.69-25.59-11.16a3.34,3.34,0,0,0-4.66,3.39c.39,4,1,8.86,2.05,14.05a3.33,3.33,0,0,0,2.5,2.58L72.19,60.52A3.35,3.35,0,0,1,74.52,65C69.05,78.8,60,91.54,44.78,96.07a3.3,3.3,0,0,1-1.92,0c-15-4.47-24-16.93-29.53-30.52A3.36,3.36,0,0,1,17.23,61l.09,0a3.37,3.37,0,0,1,2.34,2c4.58,11.34,11.76,21.58,23,25.84a3.12,3.12,0,0,0,2.25,0c9-3.39,15.36-10.58,19.9-19.09a3.34,3.34,0,0,0-2.2-4.79L11,52.66a3.32,3.32,0,0,1-2.47-2.47A144.66,144.66,0,0,1,4.91,19.73h0a3.41,3.41,0,0,1,4.77-3L45.16,32.16a3.35,3.35,0,0,1-2.66,6.16"/><g class="cls-7"><rect class="cls-8" x="52.05" y="15.75" width="31.04" height="39.78"/></g><g class="cls-7"><rect class="cls-8" x="52.05" y="15.75" width="31.04" height="39.78"/></g><path class="cls-4" d="M42.5,38.32c-6-2.62-19.9-8.69-25.59-11.16a3.34,3.34,0,0,0-4.66,3.39c.39,4,1,8.86,2.05,14.05a3.33,3.33,0,0,0,2.5,2.58L72.19,60.52A3.35,3.35,0,0,1,74.52,65C69.05,78.8,60,91.54,44.78,96.07a3.3,3.3,0,0,1-1.92,0c-15-4.47-24-16.93-29.53-30.52A3.36,3.36,0,0,1,17.23,61l.09,0a3.37,3.37,0,0,1,2.34,2c4.58,11.34,11.76,21.58,23,25.84a3.15,3.15,0,0,0,2.26,0c9-3.39,15.35-10.58,19.89-19.09a3.34,3.34,0,0,0-2.2-4.79L11,52.66a3.32,3.32,0,0,1-2.47-2.48A144.54,144.54,0,0,1,4.91,19.73h0a3.41,3.41,0,0,1,4.77-3L45.16,32.16a3.35,3.35,0,0,1-2.66,6.16"/><path class="cls-4" d="M74.07,55.06a3.38,3.38,0,0,1-2.52-3.89c.91-5.1,3.52-17.33,3.83-20.62a3.34,3.34,0,0,0-4.66-3.39c-5.68,2.46-8,3.33-14,5.94A3.35,3.35,0,0,1,54.06,27L78,16.71a3.41,3.41,0,0,1,4.77,3h0a119.14,119.14,0,0,1-4.5,32.71,3.49,3.49,0,0,1-4.15,2.62"/><path class="cls-6" d="M113.93,42.06a18.77,18.77,0,0,0-2.14-1.1,17.6,17.6,0,0,0-2.08-.77,7.26,7.26,0,0,0-2.25-.37,3.19,3.19,0,0,0-1.43.28,1,1,0,0,0-.53.93,1.06,1.06,0,0,0,.31.79,3,3,0,0,0,.89.57,11.61,11.61,0,0,0,1.43.5c.56.16,1.2.35,1.91.58a25.39,25.39,0,0,1,3,1.14,9.67,9.67,0,0,1,2.32,1.46,5.66,5.66,0,0,1,1.48,2A7.45,7.45,0,0,1,117.4,51a7.82,7.82,0,0,1-.8,3.7,6.69,6.69,0,0,1-2.14,2.39,9,9,0,0,1-3,1.29,14.7,14.7,0,0,1-3.36.4,18.69,18.69,0,0,1-2.75-.21,22.87,22.87,0,0,1-2.8-.59,24.75,24.75,0,0,1-2.68-.89A18.31,18.31,0,0,1,97.49,56l2.89-5.88a20.65,20.65,0,0,0,2.5,1.34,19.35,19.35,0,0,0,2.5.93,10.11,10.11,0,0,0,2.84.41,3,3,0,0,0,1.53-.29.91.91,0,0,0,.43-.78,1.09,1.09,0,0,0-.43-.87,3.67,3.67,0,0,0-1.19-.64c-.5-.18-1.08-.37-1.74-.55s-1.34-.4-2.07-.65A18.25,18.25,0,0,1,102,47.79,7.61,7.61,0,0,1,100,46.34a5.12,5.12,0,0,1-1.12-1.84,7.16,7.16,0,0,1-.36-2.37,8.27,8.27,0,0,1,.74-3.58,7.44,7.44,0,0,1,2-2.58,8.87,8.87,0,0,1,2.91-1.56,11,11,0,0,1,3.46-.54,13.28,13.28,0,0,1,2.61.26,19.3,19.3,0,0,1,2.46.66,22.84,22.84,0,0,1,2.22.86c.69.3,1.31.6,1.86.87Z"/><rect class="cls-6" x="134.12" y="34.08" width="6.71" height="24.43"/><path class="cls-6" d="M158.79,58.51V34.08h9.39a13.78,13.78,0,0,1,5.33,1,10.77,10.77,0,0,1,6.19,6.49,14.8,14.8,0,0,1-.08,9.77,11,11,0,0,1-2.5,3.85,11.14,11.14,0,0,1-3.88,2.48,14.07,14.07,0,0,1-5.06.88Zm14.89-12.25a8.42,8.42,0,0,0-.37-2.58,5.92,5.92,0,0,0-1.09-2,4.89,4.89,0,0,0-1.74-1.29,5.49,5.49,0,0,0-2.3-.46H165.5V52.66h2.68a5.65,5.65,0,0,0,2.34-.48,4.89,4.89,0,0,0,1.73-1.35,5.71,5.71,0,0,0,1.07-2,8.57,8.57,0,0,0,.36-2.54"/><path class="cls-6" d="M211.77,42.06a18.77,18.77,0,0,0-2.14-1.1,18.29,18.29,0,0,0-2.08-.77,7.26,7.26,0,0,0-2.25-.37,3.19,3.19,0,0,0-1.43.28,1,1,0,0,0-.53.93,1.06,1.06,0,0,0,.31.79,2.91,2.91,0,0,0,.89.57,11.61,11.61,0,0,0,1.43.5c.56.16,1.2.35,1.91.58a24.59,24.59,0,0,1,3,1.14,9.29,9.29,0,0,1,2.32,1.46,5.57,5.57,0,0,1,1.49,2,7.45,7.45,0,0,1,.51,2.92,7.7,7.7,0,0,1-.81,3.7,6.67,6.67,0,0,1-2.13,2.39,9,9,0,0,1-3,1.29,14.7,14.7,0,0,1-3.36.4,18.69,18.69,0,0,1-2.75-.21,22.87,22.87,0,0,1-2.8-.59,24,24,0,0,1-2.68-.89,18.45,18.45,0,0,1-2.4-1.17l2.89-5.88a20.78,20.78,0,0,0,2.51,1.34,19.35,19.35,0,0,0,2.5.93,10.11,10.11,0,0,0,2.84.41,3,3,0,0,0,1.53-.29.93.93,0,0,0,.43-.78,1.12,1.12,0,0,0-.43-.87,3.78,3.78,0,0,0-1.19-.64c-.5-.18-1.08-.37-1.74-.55s-1.34-.4-2.08-.65a19.15,19.15,0,0,1-2.79-1.19,7.55,7.55,0,0,1-1.92-1.45,5,5,0,0,1-1.12-1.84,7.16,7.16,0,0,1-.36-2.37,8.12,8.12,0,0,1,.74-3.58,7.32,7.32,0,0,1,2-2.58,8.87,8.87,0,0,1,2.91-1.56,11,11,0,0,1,3.46-.54,13.28,13.28,0,0,1,2.61.26,19.3,19.3,0,0,1,2.46.66,22.84,22.84,0,0,1,2.22.86c.69.3,1.3.6,1.86.87Z"/><polygon class="cls-6" points="249.37 52.66 249.37 58.51 231.96 58.51 231.96 34.08 249.06 34.08 249.06 39.93 238.67 39.93 238.67 43.37 247.54 43.37 247.54 48.8 238.67 48.8 238.67 52.66 249.37 52.66"/><polygon class="cls-6" points="272.97 46.5 272.97 58.51 266.26 58.51 266.26 34.08 271.49 34.08 281.29 46.5 281.29 34.08 288 34.08 288 58.51 282.67 58.51 272.97 46.5"/><polygon class="cls-6" points="109.23 68.75 113.86 80.11 118.47 68.75 119.8 68.75 114.41 81.7 113.29 81.7 107.9 68.75 109.23 68.75"/><rect class="cls-6" x="122.76" y="68.75" width="1.28" height="12.94"/><path class="cls-6" d="M128.37,81.7v-13h4.4a6.64,6.64,0,0,1,2.7.51,5.51,5.51,0,0,1,1.94,1.39,5.91,5.91,0,0,1,1.16,2,7.9,7.9,0,0,1,.39,2.51,7.79,7.79,0,0,1-.43,2.67,6,6,0,0,1-1.25,2,5.63,5.63,0,0,1-1.95,1.31,6.75,6.75,0,0,1-2.56.47Zm9.32-6.49a6.62,6.62,0,0,0-.33-2.14,4.89,4.89,0,0,0-1-1.69,4.45,4.45,0,0,0-1.55-1.11,5.26,5.26,0,0,0-2.09-.39h-3.12V80.57h3.12a5.21,5.21,0,0,0,2.12-.41A4.4,4.4,0,0,0,136.43,79a4.94,4.94,0,0,0,.94-1.7,6.88,6.88,0,0,0,.32-2.12"/><polygon class="cls-6" points="151.2 80.57 151.2 81.7 142.5 81.7 142.5 68.75 151.04 68.75 151.04 69.88 143.78 69.88 143.78 74.55 150.11 74.55 150.11 75.63 143.78 75.63 143.78 80.57 151.2 80.57"/><path class="cls-6" d="M159.64,81.79a5.5,5.5,0,0,1-2.47-.56,6.07,6.07,0,0,1-1.92-1.47A6.67,6.67,0,0,1,154,77.65a6.82,6.82,0,0,1,1.31-7,6.25,6.25,0,0,1,1.93-1.45,5.42,5.42,0,0,1,2.41-.54,5.26,5.26,0,0,1,2.47.58,6,6,0,0,1,1.91,1.5,7.08,7.08,0,0,1,1.67,4.5,6.7,6.7,0,0,1-.46,2.48A6.83,6.83,0,0,1,164,79.81a6.21,6.21,0,0,1-1.92,1.44,5.46,5.46,0,0,1-2.41.54m-4.79-6.56a6.05,6.05,0,0,0,.34,2,5.38,5.38,0,0,0,1,1.73,4.75,4.75,0,0,0,1.51,1.2,4.18,4.18,0,0,0,1.95.45,4.26,4.26,0,0,0,2-.47,4.92,4.92,0,0,0,1.51-1.24,6,6,0,0,0,1.3-3.7,5.84,5.84,0,0,0-.36-2,5.73,5.73,0,0,0-1-1.72,4.93,4.93,0,0,0-1.52-1.2,4.49,4.49,0,0,0-3.92,0,4.75,4.75,0,0,0-1.51,1.23,6,6,0,0,0-1,1.73,6.14,6.14,0,0,0-.33,2"/><polygon class="cls-6" points="168.69 68.75 173.31 80.11 177.93 68.75 179.26 68.75 173.86 81.7 172.75 81.7 167.35 68.75 168.69 68.75"/><rect class="cls-6" x="182.21" y="68.75" width="1.28" height="12.94"/><path class="cls-6" d="M197.18,79.8a5.46,5.46,0,0,1-4.16,2,5.16,5.16,0,0,1-2.41-.57,6.33,6.33,0,0,1-1.92-1.49,6.92,6.92,0,0,1-1.26-2.11A6.47,6.47,0,0,1,187,75.2a6.89,6.89,0,0,1,.45-2.47,6.57,6.57,0,0,1,1.25-2.09,6.09,6.09,0,0,1,1.89-1.44,5.34,5.34,0,0,1,2.39-.54,6.67,6.67,0,0,1,1.73.21,5.21,5.21,0,0,1,1.4.58,4.6,4.6,0,0,1,1.06.9,5.48,5.48,0,0,1,.75,1.14l-1,.65a4.26,4.26,0,0,0-1.66-1.77,4.76,4.76,0,0,0-2.31-.56,4.15,4.15,0,0,0-1.95.45,4.84,4.84,0,0,0-1.48,1.22,5.64,5.64,0,0,0-.93,1.73,6.24,6.24,0,0,0-.33,2,5.75,5.75,0,0,0,1.4,3.8,5,5,0,0,0,1.54,1.17,4.31,4.31,0,0,0,1.93.44,4.52,4.52,0,0,0,2.12-.52,6.45,6.45,0,0,0,1.94-1.65V76.32H194.3v-1h4V81.7h-1.08Z"/><rect class="cls-6" x="201.98" y="68.75" width="1.28" height="12.94"/><polygon class="cls-6" points="207.59 81.7 207.59 68.75 208.87 68.75 208.87 80.57 216.34 80.57 216.34 81.7 207.59 81.7"/><path class="cls-6" d="M223.33,68.75h1.07l5.38,13h-1.35l-1.67-4h-5.82l-1.66,4h-1.37Zm3.13,7.9-2.61-6.4-2.64,6.4Z"/><polygon class="cls-6" points="234.01 71.12 234.01 81.7 232.73 81.7 232.73 68.75 233.72 68.75 242.29 79.53 242.29 68.77 243.56 68.77 243.56 81.7 242.45 81.7 234.01 71.12"/><path class="cls-6" d="M247.05,75.13a7,7,0,0,1,.41-2.32,6.47,6.47,0,0,1,1.19-2.07,6.28,6.28,0,0,1,1.94-1.49,5.75,5.75,0,0,1,2.6-.57,5.43,5.43,0,0,1,3,.78A4.77,4.77,0,0,1,258,71.51l-1,.62a3.79,3.79,0,0,0-.76-1.08,4.25,4.25,0,0,0-1-.71A3.82,3.82,0,0,0,254.2,70a5.1,5.1,0,0,0-1.08-.12,4.29,4.29,0,0,0-2.06.47,4.77,4.77,0,0,0-1.5,1.24,5.45,5.45,0,0,0-.93,1.73,6.37,6.37,0,0,0-.3,1.93,5.75,5.75,0,0,0,.37,2.07,5.91,5.91,0,0,0,1,1.74,4.82,4.82,0,0,0,1.53,1.2,4.19,4.19,0,0,0,1.93.45,5,5,0,0,0,1.12-.14,4.35,4.35,0,0,0,1.11-.44,4.73,4.73,0,0,0,1-.74,4,4,0,0,0,.77-1.09l1.06.55a4,4,0,0,1-.88,1.28,5.05,5.05,0,0,1-1.26.94,6.28,6.28,0,0,1-1.47.59,6.16,6.16,0,0,1-1.52.2,5.18,5.18,0,0,1-2.44-.59,6.46,6.46,0,0,1-1.92-1.52,7,7,0,0,1-1.24-2.13,6.89,6.89,0,0,1-.45-2.44"/><rect class="cls-6" x="261.51" y="68.75" width="1.28" height="12.94"/><path class="cls-6" d="M271.14,68.75h1.07l5.38,13h-1.35l-1.68-4h-5.82l-1.65,4h-1.37Zm3.13,7.9-2.61-6.4L269,76.65Z"/></svg>