<svg xmlns="http://www.w3.org/2000/svg" xmlns:xlink="http://www.w3.org/1999/xlink" viewBox="0 0 288 107"><defs><style>.cls-1{isolation:isolate;}.cls-2{fill:#b2292e;}.cls-11,.cls-12,.cls-13,.cls-14,.cls-15,.cls-16,.cls-17,.cls-18,.cls-19,.cls-20,.cls-21,.cls-22,.cls-23,.cls-24,.cls-25,.cls-26,.cls-3,.cls-4,.cls-5,.cls-7,.cls-8,.cls-9{mix-blend-mode:multiply;}.cls-14,.cls-3{fill:url(#linear-gradient);}.cls-11,.cls-12,.cls-13,.cls-14,.cls-4,.cls-7,.cls-8,.cls-9{opacity:0.65;}.cls-4{fill:url(#linear-gradient-2);}.cls-5{opacity:0.6;fill:url(#linear-gradient-3);}.cls-6{fill:#a52428;}.cls-7{fill:url(#linear-gradient-4);}.cls-8{fill:url(#linear-gradient-5);}.cls-9{fill:url(#linear-gradient-6);}.cls-10{fill:#9c2125;}.cls-11{fill:url(#linear-gradient-7);}.cls-12{fill:url(#linear-gradient-8);}.cls-13{fill:url(#linear-gradient-9);}.cls-15{fill:url(#linear-gradient-11);}.cls-16{fill:url(#linear-gradient-12);}.cls-17{fill:url(#linear-gradient-13);}.cls-18{fill:url(#linear-gradient-14);}.cls-19{fill:url(#linear-gradient-15);}.cls-20{fill:url(#linear-gradient-16);}.cls-21{fill:url(#linear-gradient-17);}.cls-22{fill:url(#linear-gradient-18);}.cls-23{fill:url(#linear-gradient-19);}.cls-24{fill:url(#linear-gradient-20);}.cls-25{fill:url(#linear-gradient-21);}.cls-26{fill:url(#linear-gradient-22);}.cls-27{fill:#231f20;}</style><linearGradient id="linear-gradient" x1="20.2" y1="32.33" x2="26.86" y2="43.86" gradientUnits="userSpaceOnUse"><stop offset="0" stop-color="#231f20"/><stop offset="0.65" stop-color="#bab9b9" stop-opacity="0.31"/><stop offset="0.92" stop-color="#fff" stop-opacity="0"/></linearGradient><linearGradient id="linear-gradient-2" x1="52.93" y1="32.14" x2="67.67" y2="46.88" gradientUnits="userSpaceOnUse"><stop offset="0" stop-color="#231f20"/><stop offset="0.37" stop-color="#2f2c2d" stop-opacity="0.94"/><stop offset="0.52" stop-color="#5c5959" stop-opacity="0.74"/><stop offset="0.63" stop-color="#a8a6a7" stop-opacity="0.4"/><stop offset="0.71" stop-color="#fff" stop-opacity="0"/></linearGradient><linearGradient id="linear-gradient-3" x1="37.14" y1="59.81" x2="42.88" y2="69.76" gradientUnits="userSpaceOnUse"><stop offset="0" stop-color="#231f20"/><stop offset="0.3" stop-color="#353233" stop-opacity="0.92"/><stop offset="0.51" stop-color="#706e6e" stop-opacity="0.65"/><stop offset="0.7" stop-color="#d4d3d3" stop-opacity="0.2"/><stop offset="0.77" stop-color="#fff" stop-opacity="0"/></linearGradient><linearGradient id="linear-gradient-4" x1="32.84" y1="54" x2="39.5" y2="65.53" xlink:href="#linear-gradient"/><linearGradient id="linear-gradient-5" x1="65.57" y1="53.81" x2="80.31" y2="68.55" xlink:href="#linear-gradient-2"/><linearGradient id="linear-gradient-6" x1="50.41" y1="79.34" x2="57.44" y2="91.5" gradientUnits="userSpaceOnUse"><stop offset="0" stop-color="#231f20"/><stop offset="0.32" stop-color="#312d2e" stop-opacity="0.94"/><stop offset="0.49" stop-color="#615e5f" stop-opacity="0.72"/><stop offset="0.61" stop-color="#b3b2b2" stop-opacity="0.34"/><stop offset="0.68" stop-color="#fff" stop-opacity="0"/></linearGradient><linearGradient id="linear-gradient-7" x1="5.5" y1="54" x2="12.16" y2="65.53" xlink:href="#linear-gradient"/><linearGradient id="linear-gradient-8" x1="38.23" y1="53.81" x2="52.97" y2="68.55" xlink:href="#linear-gradient-2"/><linearGradient id="linear-gradient-9" x1="21.11" y1="80.67" x2="29.45" y2="91.72" xlink:href="#linear-gradient-6"/><linearGradient id="linear-gradient-11" x1="41.89" y1="46.23" x2="44.6" y2="43" gradientUnits="userSpaceOnUse"><stop offset="0" stop-color="#231f20"/><stop offset="0.2" stop-color="#706d6e" stop-opacity="0.65"/><stop offset="0.56" stop-color="#dad9d9" stop-opacity="0.17"/><stop offset="0.84" stop-color="#fff" stop-opacity="0"/></linearGradient><linearGradient id="linear-gradient-12" x1="-357.52" y1="-2008.94" x2="-354.22" y2="-2012.88" gradientTransform="translate(-320.33 -1959.93) rotate(180)" xlink:href="#linear-gradient-11"/><linearGradient id="linear-gradient-13" x1="-954.14" y1="-339.78" x2="-949.87" y2="-344.87" gradientTransform="translate(796.64 -588.12) rotate(-60.98)" xlink:href="#linear-gradient-11"/><linearGradient id="linear-gradient-14" x1="642.82" y1="-1659.2" x2="644.19" y2="-1664.29" gradientTransform="translate(-1097.5 -1284.4) rotate(119.02)" xlink:href="#linear-gradient-11"/><linearGradient id="linear-gradient-15" x1="-417.47" y1="-2033.23" x2="-415.58" y2="-2040.23" gradientTransform="matrix(-1, -0.01, 0.01, -1, -335.03, -1990.67)" xlink:href="#linear-gradient-11"/><linearGradient id="linear-gradient-16" x1="-14.48" y1="47.38" x2="-12.65" y2="40.58" gradientTransform="matrix(1, 0.01, -0.01, 1, 75.95, -4.82)" xlink:href="#linear-gradient-11"/><linearGradient id="linear-gradient-17" x1="804.51" y1="-976.32" x2="806.13" y2="-982.32" gradientTransform="translate(-1091.65 -560.55) rotate(78.98)" xlink:href="#linear-gradient-11"/><linearGradient id="linear-gradient-18" x1="-1278.89" y1="-984.73" x2="-1277.11" y2="-991.32" gradientTransform="translate(751.27 -1383.06) rotate(-101.02)" xlink:href="#linear-gradient-11"/><linearGradient id="linear-gradient-19" x1="819.12" y1="-965.84" x2="821.2" y2="-973.55" gradientTransform="translate(-1071.75 -555.01) rotate(78.98)" xlink:href="#linear-gradient-11"/><linearGradient id="linear-gradient-20" x1="819.24" y1="-982.35" x2="821.19" y2="-989.56" gradientTransform="translate(-1071.75 -555.01) rotate(78.98)" xlink:href="#linear-gradient-11"/><linearGradient id="linear-gradient-21" x1="-1281.26" y1="-983.82" x2="-1279.5" y2="-990.36" gradientTransform="translate(766.13 -1380.6) rotate(-101.02)" xlink:href="#linear-gradient-11"/><linearGradient id="linear-gradient-22" x1="-1307.98" y1="-958.97" x2="-1306.1" y2="-965.91" gradientTransform="translate(707.9 -1420.9) rotate(-101.02)" xlink:href="#linear-gradient-11"/></defs><title>Artboard 49 copy 19</title><g class="cls-1"><g id="Layer_1" data-name="Layer 1"><path class="cls-2" d="M40.24,68.32A25.33,25.33,0,1,1,65.57,43,25.35,25.35,0,0,1,40.24,68.32Zm0-44.28A19,19,0,1,0,59.19,43,19,19,0,0,0,40.24,24Z"/><path class="cls-3" d="M29.86,27.11S19.57,30.06,15,44.13a3.63,3.63,0,0,0,.49,1.94C16.77,47.92,22,50,21.28,44A24.93,24.93,0,0,1,22,37.55,20.28,20.28,0,0,1,29.86,27.11Z"/><path class="cls-4" d="M59,26s6.41,10.72,0,18.62c0,0,.11,14,5.76,4.41A24.94,24.94,0,0,0,59,26Z"/><path class="cls-5" d="M27.85,65.17s-.49.15,3.08.34c3,.17,7.35-.42,12.88-3.17,0,0,12.39-2,5.62,3.64,0,0-7.21,4.79-18.45.68A11.7,11.7,0,0,1,27.85,65.17Z"/><path class="cls-6" d="M52.88,90A25.33,25.33,0,1,1,78.21,64.67,25.35,25.35,0,0,1,52.88,90Zm0-44.28a19,19,0,1,0,18.95,19A19,19,0,0,0,52.88,45.72Z"/><path class="cls-7" d="M42.5,48.78s-10.29,2.95-14.88,17a3.61,3.61,0,0,0,.49,1.94c1.3,1.86,6.5,3.91,5.81-2.09a25,25,0,0,1,.69-6.43A20.28,20.28,0,0,1,42.5,48.78Z"/><path class="cls-8" d="M71.67,47.71s6.41,10.72,0,18.62c0,0,.11,14,5.76,4.41A25.25,25.25,0,0,0,71.67,47.71Z"/><path class="cls-9" d="M39.06,85.89s8.46,2.64,20.46-3.31c0,0,13.39-1.69,6.62,3.9C66.14,86.48,52.45,94.62,39.06,85.89Z"/><path class="cls-10" d="M25.54,90A25.33,25.33,0,1,1,50.87,64.67,25.35,25.35,0,0,1,25.54,90Zm0-44.28a19,19,0,1,0,19,19A19,19,0,0,0,25.54,45.72Z"/><path class="cls-11" d="M15.16,48.78S4.87,51.73.28,65.8a3.61,3.61,0,0,0,.49,1.94c1.3,1.86,6.5,3.91,5.81-2.09a24.24,24.24,0,0,1,.7-6.43A20.23,20.23,0,0,1,15.16,48.78Z"/><path class="cls-12" d="M44.33,47.71s6.42,10.72,0,18.62c0,0,.11,14,5.75,4.41A25.08,25.08,0,0,0,44.33,47.71Z"/><path class="cls-13" d="M11.71,85.89s9.93,1.92,21.93-4c0,0,2.12.31,5,4.45C38.68,86.31,25.11,94.62,11.71,85.89Z"/><path class="cls-2" d="M27.54,64.9A25.32,25.32,0,1,1,57.66,24.62L53.74,29.7A18.95,18.95,0,1,0,28.48,57.85l-.39,1.61-.32,1.87-.18,1.92Z"/><path class="cls-14" d="M29.86,27.11S19.57,30.06,15,44.13a3.63,3.63,0,0,0,.49,1.94C16.77,47.92,22,50,21.28,44A24.93,24.93,0,0,1,22,37.55,20.28,20.28,0,0,1,29.86,27.11Z"/><path class="cls-15" d="M46.55,46.79,41.79,41.9l-2.58,1.42a30.11,30.11,0,0,1,5.12,4.39Z"/><path class="cls-16" d="M32.38,49.81l4.73,4.31,2.1-2.57a19.85,19.85,0,0,0-5.13-3.84Z"/><path class="cls-17" d="M37.39,75.58l-6,2.46,1.27,1.85,1.41,1.71a18.39,18.39,0,0,0,5.16-3.82Z"/><path class="cls-18" d="M42.22,87.65l5.07-4.87-1.15-.4-1.77-.78A24.62,24.62,0,0,1,39.21,86Z"/><path class="cls-19" d="M57.78,50.16l5.7,2.91.7-1.76.46-1.46S63.11,48,58.75,46.64l-.29,1.65Z"/><path class="cls-20" d="M65,37.64l-7-1.2.54,1.7.42,2a18.94,18.94,0,0,1,6.58,2.6l-.06-1.82Z"/><path class="cls-21" d="M25.24,45.72V39.34l-1.62,0-2,.31a18.29,18.29,0,0,0-.08,6.37l1.33-.17Z"/><path class="cls-22" d="M26.14,55.73l-2.6,6.38,1.76,1.4,2.23,1.39a26.9,26.9,0,0,1,.95-7.05l-1.34-1.09Z"/><path class="cls-23" d="M38.38,68.26,39.48,62l-2.23-.24-3-.72a19,19,0,0,0-.12,6.58l2,.43Z"/><path class="cls-24" d="M55,63.59,52.88,57.1l-1.29,1.06-1.37.89A27.28,27.28,0,0,1,50.87,66l2-1Z"/><path class="cls-25" d="M40.13,62l1.07,6.34,1.73-.1L44.2,68a19.71,19.71,0,0,0,0-6.48l-2,.31Z"/><path class="cls-26" d="M11,43.93l2,6.55,1.19-1,1.39-.83a30.33,30.33,0,0,1-.65-7l-1.62.83Z"/><rect class="cls-27" x="84.58" y="67.78" width="60.24" height="0.93"/><rect class="cls-27" x="154.77" y="67.78" width="133.23" height="0.93"/><path class="cls-27" d="M111.68,41l.19,2.6c.07.79.1,1.33.1,1.61l-.48.09a9.81,9.81,0,0,0-2.85-3.91,6.68,6.68,0,0,0-4.18-1.3,12.07,12.07,0,0,0-4.7.73,9.58,9.58,0,0,0-4.16,3.64,10.89,10.89,0,0,0-1.73,6.24,10.76,10.76,0,0,0,.63,3.79,11.53,11.53,0,0,0,1.79,3.13A12.39,12.39,0,0,0,99,60.15a7.51,7.51,0,0,0,2.45,1.06,11.07,11.07,0,0,0,2.4.19,10.46,10.46,0,0,0,2.28-.29,5.13,5.13,0,0,0,1.88-.78,2.5,2.5,0,0,0,.87-1.11,8.22,8.22,0,0,0,.23-2.4q0-3-.39-3.45c-.27-.33-1.09-.54-2.49-.65l-.68,0-.47,0-.27,0-.26-.43a.37.37,0,0,1,.12-.22,33.33,33.33,0,0,1,3.88-.14l2.17,0,1.77.07,1.59,0c.31,0,.68,0,1.12,0a.21.21,0,0,1,.15.06.27.27,0,0,1,0,.15,1.65,1.65,0,0,1-.09.47,5.29,5.29,0,0,1-1.11.16l-1.12,0a1.13,1.13,0,0,0-.91.4,2.63,2.63,0,0,0-.17,1.28l0,2.25a13.4,13.4,0,0,1-.19,3,1.41,1.41,0,0,1-.43.67,5,5,0,0,1-1.37.72,14.07,14.07,0,0,1-2.71.8,25.69,25.69,0,0,1-4.37.39,15.1,15.1,0,0,1-5.56-.86A11.2,11.2,0,0,1,93.67,59a9.91,9.91,0,0,1-2.24-3.12,11.71,11.71,0,0,1-1-4.71A12,12,0,0,1,92,45.27a11.63,11.63,0,0,1,5.11-4.67,15.12,15.12,0,0,1,6.76-1.26,18.84,18.84,0,0,1,4.82.51A11.83,11.83,0,0,1,111.68,41Z"/><path class="cls-27" d="M116.58,61.88l-.07-.23a.71.71,0,0,1,.16-.35l1-.21,1.42-.26a.41.41,0,0,0,.24-.24,4.53,4.53,0,0,0,.1-1.32q0-5.81-.06-6.71a2,2,0,0,0-.31-1.14,2.56,2.56,0,0,0-1.24-.38,3.88,3.88,0,0,1-.92-.22l.07-.52A9.72,9.72,0,0,0,119.39,49a6.58,6.58,0,0,0,1.46-2l.58,0c.07.57.11,1.84.11,3.8l0,.29a2.79,2.79,0,0,0,0,.33,10.08,10.08,0,0,1,1.63-2.18l.4-.39a2.24,2.24,0,0,1,.46-.43,4.08,4.08,0,0,1,1.78-.72,1.67,1.67,0,0,1,1.24.5,1.76,1.76,0,0,1,.48,1.25,1.17,1.17,0,0,1-.35.9,1.5,1.5,0,0,1-1.06.43,3.9,3.9,0,0,1-1.08-.29,4.36,4.36,0,0,0-1.06-.29,1.1,1.1,0,0,0-.67.15,6,6,0,0,0-1.17,1.55,3.18,3.18,0,0,0-.53,1.61l.09,2.83,0,3.41a2.55,2.55,0,0,0,.14.75,1,1,0,0,0,.34.29c1.24.11,2,.18,2.2.23l.36,0a2,2,0,0,1,1,.21.27.27,0,0,1,.16.26.53.53,0,0,1-.14.27l-1.9,0H120.4l-.94.06Z"/><path class="cls-27" d="M129.28,48.37h1.28l.57,0,.44,0c1.18,0,1.9,0,2.19,0l0,.33c0,1.61,0,3.17-.07,4.68,0,.89-.05,1.4-.05,1.53a21.15,21.15,0,0,0,.19,3.77,2,2,0,0,0,.93,1.21,3.31,3.31,0,0,0,1.76.45,5.67,5.67,0,0,0,2.4-.52,7.41,7.41,0,0,0,1.95-1.28,10.59,10.59,0,0,0,.09-1.44c0-1.7,0-2.85.05-3.45,0-.35,0-.66,0-.92a9,9,0,0,0-.27-3.14c-.18-.24-.88-.42-2.09-.55-.4,0-.69-.08-.88-.12a.73.73,0,0,1-.13-.34l.05-.19c.3,0,.59-.05.87-.05l2.73,0,1.54,0,.36,0,0,1.25c-.08,1.74-.13,3.88-.14,6.44l0,1.39.07,2.33a.81.81,0,0,0,.28.33,2.44,2.44,0,0,0,.84.09h.15c.15,0,.57,0,1.27.1,0,.15,0,.25,0,.32v.19a32.49,32.49,0,0,0-3.72,1q-.57.18-1,.27c-.06-.4-.09-.65-.09-.74V60s0-.21,0-.46l-.51.38a15.72,15.72,0,0,1-2.86,1.76,4.35,4.35,0,0,1-2,.5,3.66,3.66,0,0,1-2.93-1.33c-.76-.9-1.15-2.42-1.15-4.57,0-.11,0-.31,0-.61.05-.55.07-.93.07-1.15s0-.33,0-.76c0-.18,0-.34,0-.47s0-.34,0-.7,0-.61,0-.76,0-.37,0-.52l0-.91v-.48a.63.63,0,0,0-.27-.49,13.52,13.52,0,0,0-1.41-.34,2.11,2.11,0,0,1-.6-.14Z"/><path class="cls-27" d="M146.32,70.79c0-.13,0-.24,0-.35a1.89,1.89,0,0,1,0-.3l1.73-.34a2.06,2.06,0,0,0,.67-.5,2.16,2.16,0,0,0,.09-.62q0-2.62-.14-10.05l-.05-6.27a7.18,7.18,0,0,0-.19-1.88.71.71,0,0,0-.26-.33,4.24,4.24,0,0,0-1.71-.55l.1-.52a16.25,16.25,0,0,0,2.48-1.23,5,5,0,0,0,1.19-1.23l.21,0a.86.86,0,0,1,.34.1c0,.72,0,1.2,0,1.43l0,1.88a9.21,9.21,0,0,1,2.64-1.43,8.52,8.52,0,0,1,2.85-.47,6,6,0,0,1,4.45,1.86,6.58,6.58,0,0,1,1.82,4.79,7.58,7.58,0,0,1-1,3.91,6.48,6.48,0,0,1-2.82,2.59,8.3,8.3,0,0,1-3.61.85,9.3,9.3,0,0,1-3.54-.84L151,61c0,.92,0,1.73,0,2.44q0,5.31.3,6c.1.22.42.36,1,.41a4.53,4.53,0,0,1,1.83.39.87.87,0,0,1,.34.62l-1.7,0-1.54,0-2.58,0Zm4.5-19.63a2.42,2.42,0,0,0,0,.45q0,6.12.12,6.86a2.94,2.94,0,0,0,1,1.9,5.09,5.09,0,0,0,3.19.87,4.91,4.91,0,0,0,3.62-1.48,5.23,5.23,0,0,0,1.47-3.85,6.33,6.33,0,0,0-1.56-4.51,5.4,5.4,0,0,0-4.11-1.66,5.54,5.54,0,0,0-2,.35A5,5,0,0,0,150.82,51.16Z"/><path class="cls-27" d="M165.08,54.94a7.19,7.19,0,0,1,.49-2.5,6.8,6.8,0,0,1,1.48-2.38,6.9,6.9,0,0,1,2.11-1.57,9,9,0,0,1,3.8-.72,7.41,7.41,0,0,1,7.51,7.47,6.63,6.63,0,0,1-2.25,4.9,7.93,7.93,0,0,1-5.7,2.15,7.67,7.67,0,0,1-4-1.12,7.28,7.28,0,0,1-3.43-6.23Zm7.58,6.68a5,5,0,0,0,2.52-.7,4.84,4.84,0,0,0,1.93-2.26,8.43,8.43,0,0,0,.72-3.59,10.25,10.25,0,0,0-.56-3.1,5.16,5.16,0,0,0-1.71-2.65,4.37,4.37,0,0,0-2.72-.88,5.46,5.46,0,0,0-2.31.53,4.39,4.39,0,0,0-2,2,9.17,9.17,0,0,0-.81,4.28A6.91,6.91,0,0,0,169.14,60,4.5,4.5,0,0,0,172.66,61.62Z"/><path class="cls-27" d="M191.39,60.3c.18,0,.53-.11,1.07-.21a4.35,4.35,0,0,0,2.09-.73,1.88,1.88,0,0,0,.39-1.11c0-.14.05-1.88.12-5.23V48.86L195,43v-.69a.92.92,0,0,0-.24-.68,1.11,1.11,0,0,0-.67-.12,5.84,5.84,0,0,0-1,.1,10.21,10.21,0,0,0-1.35.14l-.33,0V40.31a20,20,0,0,1,2.89-.63,48.55,48.55,0,0,1,7.68-.52,26.24,26.24,0,0,1,5.57.43,11.51,11.51,0,0,1,4.36,2,11.7,11.7,0,0,1,3.37,4.08,11.48,11.48,0,0,1,1.12,5.07,11.15,11.15,0,0,1-1.51,5.93,10.91,10.91,0,0,1-4.33,4,11.55,11.55,0,0,1-5.41,1.06l-3.51-.14-1,0-1.39,0-.41,0-1.44,0-1.9,0c-.07,0-.65,0-1.75.11l-1.44,0-.82,0C191.41,61.44,191.39,61,191.39,60.3Zm8.32-19.07c0,.35,0,.6,0,.75l0,2.91v2.54c0,.82,0,1.54,0,2.15l0,1.63,0,2.72,0,1.68a4.42,4.42,0,0,0,.87,3.18,4.89,4.89,0,0,0,3.5,1.2,7.33,7.33,0,0,0,2.5-.32,6.18,6.18,0,0,0,4.17-4.79,16.18,16.18,0,0,0,.51-4.08,12.61,12.61,0,0,0-1.1-5.64,7.72,7.72,0,0,0-3-3.3,8.74,8.74,0,0,0-4.4-1.1A8.52,8.52,0,0,0,199.71,41.23Z"/><path class="cls-27" d="M233.81,58.5l.39.26a.55.55,0,0,1,.19.29v.09a4.18,4.18,0,0,1-1.07,2.09,2.44,2.44,0,0,1-1.67.58,2.81,2.81,0,0,1-1.74-.56,4.83,4.83,0,0,1-1.33-2,4.72,4.72,0,0,1-2.07,2,7.33,7.33,0,0,1-3.27.66,3.93,3.93,0,0,1-2.63-.74,2.51,2.51,0,0,1-.84-2,2.8,2.8,0,0,1,.25-1.14,4,4,0,0,1,.81-1.16,7.88,7.88,0,0,1,1.79-1.26c.12-.07.56-.27,1.3-.58l4.27-1.72c0-.43.05-.87.05-1.32a6.07,6.07,0,0,0-.57-3.15,1.3,1.3,0,0,0-1.2-.52,3.71,3.71,0,0,0-1.57.33,2.26,2.26,0,0,0-1,.84,4.06,4.06,0,0,0-.41,1.42,2.56,2.56,0,0,1-.22.87,2.17,2.17,0,0,1-.94.6c-.45.17-.75.3-.91.38a3.67,3.67,0,0,1-1.48.45.73.73,0,0,1-.24-.59,3.32,3.32,0,0,1,.41-1.68,7.25,7.25,0,0,1,1.86-1.92,8.93,8.93,0,0,1,2.33-1.32,11.71,11.71,0,0,1,3.6-.48,5,5,0,0,1,2.35.51,2.75,2.75,0,0,1,1.37,1.5,11.13,11.13,0,0,1,.39,3.58l0,2.83,0,2.08v.53a1.74,1.74,0,0,0,.19,1,.6.6,0,0,0,.5.27.55.55,0,0,0,.32-.1l.52-.81Zm-5.63-4a10.85,10.85,0,0,0-2.2,1.09,5.15,5.15,0,0,0-1.71,1.54,2.59,2.59,0,0,0-.34,1.38,1.7,1.7,0,0,0,.45,1.22,1.36,1.36,0,0,0,1,.48,2.43,2.43,0,0,0,1.62-.55,3.44,3.44,0,0,0,1.07-1.17,11.27,11.27,0,0,0,.15-2.48C228.25,55.53,228.23,55,228.18,54.52Z"/><path class="cls-27" d="M235.43,60.86a1.42,1.42,0,0,1,.59-.29,5.07,5.07,0,0,0,1.66-.68,13.28,13.28,0,0,0,.15-2.77q0-4.34-.18-5.85a.75.75,0,0,0-.28-.48,5.13,5.13,0,0,0-1.16-.4.51.51,0,0,1-.42-.37l0-.64a5.2,5.2,0,0,0,2.3-.87,6,6,0,0,0,1.54-1.41,5.4,5.4,0,0,1,.48-.6l1.2,0a3,3,0,0,1,.09.65c0,.12,0,.28,0,.46,0,.4,0,.73,0,1s0,.59,0,1.42a15.4,15.4,0,0,1,1-1.61,9.15,9.15,0,0,1,.91-.84,2.15,2.15,0,0,1,1.32-.43,2.27,2.27,0,0,1,1.58.61,1.92,1.92,0,0,1,.66,1.43,2.34,2.34,0,0,1-.5,1.45,1.66,1.66,0,0,1-1.35.64,2.59,2.59,0,0,1-1.54-.62,1.42,1.42,0,0,0-.77-.37h-.12a1.27,1.27,0,0,0-.65.65,3.58,3.58,0,0,0-.48,1.78l0,.46q.08,1.26.1,5.93a2.14,2.14,0,0,0,.33.85,1.86,1.86,0,0,0,.63.34,5.7,5.7,0,0,0,1.1.18,2,2,0,0,1,1,.21.59.59,0,0,1,.17.48,1.57,1.57,0,0,1-.1.5H243l-3.28-.15c-.82,0-1.57,0-2.24.1h-.29l-1.79.09a3.14,3.14,0,0,1-.05-.43A2.83,2.83,0,0,1,235.43,60.86Z"/><path class="cls-27" d="M247.78,61.72l0-1a9.14,9.14,0,0,1,1.23-.4,3.28,3.28,0,0,0,1-.39.69.69,0,0,0,.19-.53v-.37c0-1.07.07-1.66.07-1.79s0-.24,0-.43l0-.2,0-.22v-.16l-.1-3,0-3.29,0-.32-.91,0h-1.08l-.3-.05c0-.31,0-.56,0-.75a1.16,1.16,0,0,1,.24-.77c.34,0,1,0,2-.12a13.32,13.32,0,0,1,.66-3.84,8.71,8.71,0,0,1,1.54-2.87l.44-.5a8.45,8.45,0,0,1,2.08-1.34,6,6,0,0,1,2.26-.39,4.82,4.82,0,0,1,2.1.41,2.49,2.49,0,0,1,1.15,1.06,2.7,2.7,0,0,1,.31,1.19,1.78,1.78,0,0,1-2.82,1.49,4,4,0,0,1-.84-1.07,4.5,4.5,0,0,0-.76-1,1.2,1.2,0,0,0-.72-.2,1.25,1.25,0,0,0-.92.41,2.24,2.24,0,0,0-.55,1.18,18.4,18.4,0,0,0-.16,3.09v2.38l.33,0,2-.05a2.58,2.58,0,0,1,.48.05c.16.14.24.25.24.34l0,.33v.46a3.36,3.36,0,0,1,0,.39.74.74,0,0,1-.36.09h-.16l-1.29,0a3.07,3.07,0,0,1-.5,0h-.15a2.57,2.57,0,0,0-.52.07v.84c0,.08,0,.21,0,.38,0,.65,0,1.1,0,1.34v2.52l0,1.83V58a3,3,0,0,0,.3,1.89,3.59,3.59,0,0,0,2.07.66,2.08,2.08,0,0,1,.52.12,3.82,3.82,0,0,1,.07.54,2.64,2.64,0,0,1-.07.53h-1.23l-2-.12-.92-.07q-1.33,0-2.07.06Q250.17,61.68,247.78,61.72Z"/><path class="cls-27" d="M258,61.72l0-1.11,1.94-.26a1,1,0,0,0,.59-.35,2.08,2.08,0,0,0,.16-1v-.19c0-.13,0-.38,0-.74s0-.68,0-1,0-.64-.05-1.25l0-.86,0-.81.05-2.79a6.08,6.08,0,0,0-.1-1.1,1.5,1.5,0,0,0-.69-.44,6.79,6.79,0,0,0-1.74-.28v-1a8.22,8.22,0,0,0,3.1-.74,7.07,7.07,0,0,0,2-1.45h1.15c0,1.42.07,3.25.07,5.52l-.12,7a10.47,10.47,0,0,0,.07,1.31,10.72,10.72,0,0,0,1.73.37,3.78,3.78,0,0,1,.73.17l0,1h-.69l-.78,0c-1.17-.06-2.72-.09-4.67-.09-.56,0-1.1,0-1.63.06S258.19,61.72,258,61.72Zm2.4-20.45a2,2,0,0,1,.6-1.52,2.14,2.14,0,0,1,1.55-.59,2.37,2.37,0,0,1,1.68.63,1.92,1.92,0,0,1,.67,1.41,2.77,2.77,0,0,1-.27,1.17,2.1,2.1,0,0,1-.84.93,2.17,2.17,0,0,1-1.17.36,2.1,2.1,0,0,1-1.52-.71A2.29,2.29,0,0,1,260.39,41.27Z"/><path class="cls-27" d="M274.66,56c0,.21,0,.33,0,.36l0,.42c0,.18,0,.3,0,.35l-.07,0h0a1.73,1.73,0,0,0-.51-1,1.35,1.35,0,0,0-.89-.3,1.29,1.29,0,0,0-.88.3.92.92,0,0,0-.35.71.81.81,0,0,0,.24.56,5.83,5.83,0,0,0,1.24.77,7.47,7.47,0,0,1,1.09.64,1.76,1.76,0,0,1,.49.57,1.6,1.6,0,0,1,.16.73,1.82,1.82,0,0,1-.26,1,1.7,1.7,0,0,1-.71.67A2.61,2.61,0,0,1,273,62a3.85,3.85,0,0,1-1.22-.2,1.58,1.58,0,0,1-.43-.2.26.26,0,0,1-.07-.16.62.62,0,0,1,0-.13c0-.38.07-.68.07-.92a1.33,1.33,0,0,1,0-.26.08.08,0,0,1,.07,0,.08.08,0,0,1,.07,0,.24.24,0,0,1,0,.12,1.73,1.73,0,0,0,1.63,1.5,1.58,1.58,0,0,0,.69-.15,1.15,1.15,0,0,0,.49-.46,1.09,1.09,0,0,0,.18-.57,1,1,0,0,0-.27-.7,3.61,3.61,0,0,0-1.08-.74,8,8,0,0,1-1.06-.62,2.21,2.21,0,0,1-.6-.68,1.28,1.28,0,0,1-.15-.63,1.45,1.45,0,0,1,.52-1.12,2,2,0,0,1,1.4-.46,2.88,2.88,0,0,1,.83.11A1.94,1.94,0,0,1,274.66,56Z"/><path class="cls-27" d="M275.74,61.44a.46.46,0,0,1,.16-.36.46.46,0,0,1,.35-.16.43.43,0,0,1,.34.15.49.49,0,0,1,.14.37.5.5,0,0,1-.15.37.45.45,0,0,1-.34.15.47.47,0,0,1-.35-.15A.5.5,0,0,1,275.74,61.44Z"/><path class="cls-27" d="M284,61.44a.53.53,0,0,1,.51-.52.43.43,0,0,1,.34.15.53.53,0,0,1,.14.37.5.5,0,0,1-.15.37.45.45,0,0,1-.35.15.46.46,0,0,1-.34-.15A.5.5,0,0,1,284,61.44Z"/><path class="cls-27" d="M282.91,56a4.56,4.56,0,0,1,.06.75s0,.11,0,.2h-.18a1.69,1.69,0,0,0-.65-.85,2,2,0,0,0-1.11-.3,2,2,0,0,0-.59.08,2.46,2.46,0,0,0-.75.41,2.34,2.34,0,0,0-.55.62,3,3,0,0,0-.35.86,4.06,4.06,0,0,0-.13,1,3.91,3.91,0,0,0,.31,1.68,2,2,0,0,0,.84.94,2.29,2.29,0,0,0,1.08.28h.22l.52-.09a2.57,2.57,0,0,0,.57-.24,1.9,1.9,0,0,0,.44-.38,2.08,2.08,0,0,0,.37-.57l.06,0,.07,0a1,1,0,0,0,0,.14c-.13.54-.23.9-.29,1.1l-.19.06a4.88,4.88,0,0,1-1.48.19,4.33,4.33,0,0,1-1.12-.11,4.9,4.9,0,0,1-.81-.31,2.6,2.6,0,0,1-.77-.58,2.52,2.52,0,0,1-.54-.89,3.5,3.5,0,0,1-.2-1.19,3.05,3.05,0,0,1,.16-1.05,3.48,3.48,0,0,1,.5-.92,2.89,2.89,0,0,1,.79-.77,2.93,2.93,0,0,1,1-.44,5.36,5.36,0,0,1,1.11-.08,3.2,3.2,0,0,1,1,.14A1.85,1.85,0,0,1,282.91,56Z"/></g></g></svg>