<svg id="Layer_1" data-name="Layer 1" xmlns="http://www.w3.org/2000/svg" xmlns:xlink="http://www.w3.org/1999/xlink" viewBox="0 0 288 107"><defs><style>.cls-1{fill:#80a53e;}.cls-2{fill:#bea288;}.cls-3{fill:#f9a64a;}.cls-10,.cls-11,.cls-4,.cls-6{fill:#79471d;}.cls-5{fill:url(#radial-gradient);}.cls-6{opacity:0.5;}.cls-7{fill:url(#radial-gradient-2);}.cls-8{fill:url(#linear-gradient);}.cls-9{fill:url(#linear-gradient-2);}.cls-10,.cls-11{stroke:#79471d;}.cls-10{stroke-width:0.25px;}.cls-11{stroke-width:1.01px;}</style><radialGradient id="radial-gradient" cx="155.78" cy="22.13" r="43.71" gradientUnits="userSpaceOnUse"><stop offset="0" stop-color="#fff584"/><stop offset="0.88" stop-color="#a5cd39"/></radialGradient><radialGradient id="radial-gradient-2" cx="155.68" cy="28.31" r="11.46" gradientUnits="userSpaceOnUse"><stop offset="0" stop-color="#bf6a29"/><stop offset="1" stop-color="#5e260c"/></radialGradient><linearGradient id="linear-gradient" x1="170.69" y1="25.21" x2="191.41" y2="25.21" gradientUnits="userSpaceOnUse"><stop offset="0" stop-color="#ddbf24"/><stop offset="0.48" stop-color="#bd812b"/><stop offset="1" stop-color="#6e4d1e"/></linearGradient><linearGradient id="linear-gradient-2" x1="191.97" y1="23.77" x2="210.29" y2="23.77" gradientUnits="userSpaceOnUse"><stop offset="0" stop-color="#ddbf24"/><stop offset="1" stop-color="#bd812b"/></linearGradient></defs><title>Artboard 49 copy 12</title><path class="cls-1" d="M97.49,39.37a23.24,23.24,0,0,1,.07-5c2.34-19.46,32.08-33.25,62-32.54a94.52,94.52,0,0,1,28.26,4.76c9.14,3.61,16.86,8.59,22.51,14.5a32.89,32.89,0,0,1,3.81,5.67l.17.06a33.15,33.15,0,0,0-3.84-5.73C204.84,15.18,197.11,10.2,188,6.59A95.62,95.62,0,0,0,153.14.26c-37.22,0-73.4,21.94-71.72,57.48.23-.62.47-1.23.73-1.84a41.83,41.83,0,0,1,3.65-6.78,29,29,0,0,1,4.87-5.65,20.79,20.79,0,0,1,6-3.76l.91-.34a17.14,17.14,0,0,1,6.11-.86h0A17.19,17.19,0,0,0,97.49,39.37Z"/><path class="cls-2" d="M107.83,39.45a9.94,9.94,0,0,0-4-.94h-.13a9.93,9.93,0,0,1,4,.94,9.68,9.68,0,0,1,3,2.25,9.22,9.22,0,0,1,.62.78l.12,0a8.57,8.57,0,0,0-.6-.75A9.8,9.8,0,0,0,107.83,39.45Z"/><path class="cls-3" d="M153.42,36.26a.27.27,0,0,0-.06-.12A.33.33,0,0,0,153.42,36.26Z"/><path class="cls-4" d="M143.48,26.94l.06-.05h0Z"/><path class="cls-4" d="M171.6,22.14l.07-.07h0Z"/><path class="cls-5" d="M195.19,19.86A8,8,0,0,1,202,19.4l8.28,4a11.21,11.21,0,0,0-3,.41,51.54,51.54,0,0,0,6.83,3,32.89,32.89,0,0,0-3.81-5.67C204.7,15.18,197,10.2,187.84,6.59a94.52,94.52,0,0,0-28.26-4.76c-29.94-.71-59.68,13.08-62,32.54a23.24,23.24,0,0,0-.07,5,17.19,17.19,0,0,1,6.24-.86h.14a9.94,9.94,0,0,1,4,.94,9.8,9.8,0,0,1,3,2.25,8.57,8.57,0,0,1,.6.75c9.73-1.87,21.9-8,31.16-14.88a9.63,9.63,0,0,1,4.9-7.34,11.35,11.35,0,0,1,9.7-.65l11.55,5.58.35-.41a18.79,18.79,0,0,1,2.28-2.45,7.55,7.55,0,0,1,2.35-2,9.34,9.34,0,0,1,8-.54l9.67,4.68A12.24,12.24,0,0,1,192.3,23,6.51,6.51,0,0,1,195.19,19.86Z"/><path class="cls-4" d="M169,25.26l-.22-.1a.39.39,0,0,1-.08.1Z"/><path class="cls-6" d="M208.12,26.14l7.19,4.25q-.17-.47-.33-1C214.14,26.53,210.92,25.66,208.12,26.14Z"/><path class="cls-6" d="M189,27.64l8.22,4.85c-.11-.33-.22-.68-.34-1.06C195.92,28.16,192.25,27.12,189,27.64Z"/><path class="cls-6" d="M166.09,29.14l10,5.91c-.14-.41-.28-.83-.41-1.3C174.5,29.78,170,28.5,166.09,29.14Z"/><path class="cls-7" d="M168.59,25.27h.12a.39.39,0,0,0,.08-.1l-11.55-5.58a11.35,11.35,0,0,0-9.7.65,9.63,9.63,0,0,0-4.9,7.34c0,.31-.06.57-.07.73a14.65,14.65,0,0,0,.91-1.36l0-.05h0a3.2,3.2,0,0,0,1.23-.46c-.52.93-1.81,1.37-1.69,2.7.38,0,.69-.53.88-.85.29.07.44-.35.78-.54s1.36-.51.7-.15c-.46.63-1.49,1.27-1.09,2.19.8-.56,1.1-1.65,2.21-1.79-.31.79-1.18,1.23-1.29,2.15.94.24,1-1.63,2.3-1.44-.33.73-1,1.25-1.22,2,.15.13.27.31.53.26.52-.49.59-1.25,1.33-1.6.55.62-.8,1.18-.67,2,.84,0,1.06-1.49,2-1.46-.19.91-1.73,1.68-1,2.72.58-.75.69-1.78,1.94-2.1-.15.74-1.24,1.52-1.36,2.53.41.21.65-.32.56-.68.84-.33.75-.89,1.81-1.14-.45.73-1.77,1.59-1.3,2.42.68-.8,1.08-1.78,2.38-2.19a7.77,7.77,0,0,0-1.49,2.74c.06.16.2.17.39.1.26-1.05,1-2.28,1.93-2.47-.32,1.13-1.5,1.72-1.4,3.1.65-.21.78-.73.86-1.3.62-.42,1-1,1.55-1.46,0,.21.11.33.27.32-1.08.9-.72,2.11-1.39,3.12,0,.08.11.63.07.6a6.13,6.13,0,0,1,.17,1.58C154.15,36,158.16,24.28,168.59,25.27Z"/><path class="cls-8" d="M191,24.46c.29,0,.46,0,.46,0l-9.67-4.68a9.34,9.34,0,0,0-8,.54,7.55,7.55,0,0,0-2.35,2,7.23,7.23,0,0,0-.73,1.1l0,0a12.89,12.89,0,0,0,.87-1.22l.05-.07h0c.51,0,.71.13,1.13-.06-.47.86-1.66,1.26-1.55,2.48.35,0,.63-.49.81-.78.26.06.4-.32.72-.49s1.25-.47.64-.14c-.42.57-1.37,1.16-1,2,.73-.51,1-1.52,2-1.64-.28.72-1.08,1.13-1.17,2,.86.22,1-1.49,2.1-1.32-.3.67-.9,1.15-1.11,1.87.14.12.24.28.48.24.48-.45.54-1.15,1.22-1.47.51.57-.73,1.09-.61,1.85.77,0,1-1.37,1.84-1.35-.17.84-1.58,1.55-.87,2.5.53-.68.64-1.63,1.78-1.93-.14.69-1.13,1.41-1.25,2.33.38.19.6-.3.51-.63.78-.3.69-.81,1.67-1.05-.41.68-1.62,1.46-1.19,2.23.62-.74,1-1.63,2.18-2a7,7,0,0,0-1.37,2.52c.06.14.19.15.36.09.24-1,.92-2.1,1.78-2.27-.3,1-1.38,1.57-1.29,2.85.59-.2.72-.68.79-1.2.57-.39.89-.93,1.42-1.34,0,.19.1.3.25.29-.66.9-1.09,1.93-1.71,2.85-.05.07-.09.09-.13.06a1.2,1.2,0,0,1-.17.73l.08,0C181.85,28.05,185.3,24,191,24.46Z"/><path class="cls-9" d="M202,19.4a8,8,0,0,0-6.82.46A6.51,6.51,0,0,0,192.3,23a6.66,6.66,0,0,0-.33.9,2.49,2.49,0,0,1,.62.54v-.14c.25-.31.38-.79.59-1.11a2.1,2.1,0,0,0,.9-.43c-.31.7-1.16,1.11-1.07,2l.15.05a1.52,1.52,0,0,0,.45-.63c.21,0,.3-.29.54-.45s1-.47.5-.16c-.26.44-.85.92-.73,1.48l.22.07c.44-.47.63-1.17,1.36-1.32-.16.57-.71.95-.79,1.56l.21.1c.49-.18.55-1.25,1.38-1.2-.19.53-.59.95-.73,1.5.13.07.25.16.37.24.35-.39.35-1,.88-1.27.44.43-.51.94-.37,1.54.62-.08.69-1.17,1.39-1.22-.07.61-.92,1.21-.67,1.84l.2.17c.33-.58.38-1.31,1.24-1.61-.06.56-.81,1.21-.84,2,.32.13.46-.28.37-.54.6-.3.49-.71,1.26-1-.28.57-1.2,1.3-.79,1.89.44-.64.67-1.4,1.6-1.79a6,6,0,0,0-.92,2.14c.06.11.16.11.3,0,.12-.8.59-1.77,1.26-2-.17.86-1,1.37-.83,2.4.46-.2.53-.6.55-1,.43-.35.65-.81,1-1.18,0,.15.11.23.22.21-.38.64-.64,1.35-1,2,1.64-2.66,4.51-5.66,9-5.28h.39Z"/><path class="cls-4" d="M211.57,23.67a10.29,10.29,0,0,0-1.67-.26c-4.52-.38-7.39,2.62-9,5.28-.1.16-.19.32-.27.47s0,0,0,0v.05a16.72,16.72,0,0,0-.77,1.51,9.52,9.52,0,0,0-2.43-3.62l-.2-.17a8.8,8.8,0,0,0-1.23-.89c-.12-.08-.24-.17-.37-.24s-.43-.2-.65-.3l-.21-.1-.57-.24-.22-.07c-.25-.08-.5-.17-.76-.24L193,24.8l-.11,0a11.76,11.76,0,0,0-2-.31c-5.65-.47-9.1,3.59-10.92,6.83-.32.56-.59,1.1-.81,1.58a11.51,11.51,0,0,0-8.39-7.22,14.58,14.58,0,0,0-2.24-.38c-10.43-1-14.44,10.72-15,12.57a2.31,2.31,0,0,0-.07.25c-1,4.32.09,5.46,1.17,4.66s2.67-7.15,6.07-11a9.11,9.11,0,0,1,5.33-2.6c3.94-.64,8.41.64,9.59,4.61.13.47.27.89.41,1.3,1.67,4.79,3.38,5,3.83,3.75a2.66,2.66,0,0,0,.1-.44c.88-1.5,2.18-5.82,4.61-8.58A7.44,7.44,0,0,1,189,27.64c3.24-.52,6.91.52,7.88,3.79.12.38.23.73.34,1.06,1.37,3.94,2.77,4.15,3.15,3.08v0c.77-1,1.88-5.05,4.1-7.56a6.36,6.36,0,0,1,3.63-1.82c2.8-.48,6,.39,6.86,3.23q.17.55.33,1c1.16,3.26,2.34,3.43,2.66,2.53A8.33,8.33,0,0,0,211.57,23.67Z"/><path class="cls-10" d="M119.49,57.38a2.74,2.74,0,0,0-.45-.46,2.94,2.94,0,0,1-.3.55,3.83,3.83,0,0,1-.41.48,2.5,2.5,0,0,1-.47.39,1.9,1.9,0,0,1-.53.23,1.41,1.41,0,0,1-1.11-.12,2.88,2.88,0,0,1-.87-.78,5.7,5.7,0,0,1-.64-1.14,10.94,10.94,0,0,1-.41-1.22,6.84,6.84,0,0,1-.21-1.28,9.4,9.4,0,0,1,0-1.3,7.81,7.81,0,0,1,.54-2.43c.07-.15.14-.31.23-.47a2.83,2.83,0,0,1,.3-.44,2,2,0,0,1,.36-.36,1.37,1.37,0,0,1,.44-.21.83.83,0,0,1,.35,0,1.06,1.06,0,0,0,.35,0,1,1,0,0,0,.22-.08l.23-.07a.72.72,0,0,1,.56.1,2.8,2.8,0,0,1,.49.39,4.62,4.62,0,0,1,.84,1.26,10.13,10.13,0,0,1,.51,1.46,8.88,8.88,0,0,1,.25,1.53,7.92,7.92,0,0,1,0,1.54,4.21,4.21,0,0,1-.15.74c-.06.24-.14.48-.21.73a2.77,2.77,0,0,1,.5.62,2.81,2.81,0,0,1,.33.75c0,.06,0,.12,0,.2a1.9,1.9,0,0,1,0,.25.82.82,0,0,1,0,.23.17.17,0,0,1-.11.12.19.19,0,0,1-.17,0,.22.22,0,0,1-.1-.13l-.06-.2c0-.07,0-.14,0-.19A1.66,1.66,0,0,0,119.49,57.38Zm-1.39-1.06-.49-.24-.68-.33a7.57,7.57,0,0,1-.67-.42,4.29,4.29,0,0,1-.59-.54,2.8,2.8,0,0,1-.43-.71,5.57,5.57,0,0,0,.18,1.61,4.35,4.35,0,0,0,.27.76,2.8,2.8,0,0,0,.43.68,1.86,1.86,0,0,0,.56.46,1,1,0,0,0,.69.07,1.48,1.48,0,0,0,.35-.15,1.56,1.56,0,0,0,.35-.24,1.64,1.64,0,0,0,.29-.3,1.37,1.37,0,0,0,.2-.35A2,2,0,0,0,118.1,56.32Zm-2-2.35a4.58,4.58,0,0,0,.88.76c.33.22.67.42,1,.61a4.9,4.9,0,0,1,1,.63,1.31,1.31,0,0,0,.14-.29,3.29,3.29,0,0,0,.1-.37l.06-.4c0-.13,0-.24,0-.34a9.3,9.3,0,0,0,0-1.18,8.36,8.36,0,0,0-.21-1.18,7.77,7.77,0,0,0-.3-.89,4.57,4.57,0,0,0-.49-1,3,3,0,0,0-.64-.72.89.89,0,0,0-.79-.15,1.21,1.21,0,0,0-.61.39,2.53,2.53,0,0,0-.46.72,4.87,4.87,0,0,0-.26.87,3,3,0,0,0,0,1.43A2.39,2.39,0,0,0,116.05,54Z"/><path class="cls-10" d="M120.94,54.23a6.68,6.68,0,0,1-.07-1.17.84.84,0,0,1,.16-.51.73.73,0,0,1,.39-.28c.16,0,.26,0,.31.21a1.49,1.49,0,0,1,0,.21,1.55,1.55,0,0,0,0,.22q0,.33,0,.72c0,.26,0,.53,0,.8s0,.54.08.8a6,6,0,0,0,.13.71,2.34,2.34,0,0,0,.11.3c0,.12.12.17.22.14a.64.64,0,0,0,.34-.29,3.32,3.32,0,0,0,.31-.6,6.62,6.62,0,0,0,.27-.79c.08-.28.15-.56.22-.83l.16-.76c0-.23.07-.41.08-.55s0-.17,0-.27a1.2,1.2,0,0,1,0-.28,1.33,1.33,0,0,1,.1-.24.39.39,0,0,1,.21-.14.33.33,0,0,1,.17,0s.09.06.11.15a.72.72,0,0,1,0,.25,2,2,0,0,1,0,.25v.66c0,.24,0,.48,0,.73s0,.49.09.74.09.46.13.65,0,.13.07.23l.12.28a.73.73,0,0,0,.16.22.18.18,0,0,0,.19.06c.1,0,.21-.14.33-.35a6.13,6.13,0,0,0,.33-.72q.15-.39.27-.78c.07-.26.13-.44.16-.57a1.73,1.73,0,0,1,.08-.26.25.25,0,0,1,.14-.19.14.14,0,0,1,.14,0,.48.48,0,0,1,.07.16.61.61,0,0,1,0,.14.59.59,0,0,0,0,.14,5.22,5.22,0,0,1-.19.8,8.26,8.26,0,0,1-.36.94,4.32,4.32,0,0,1-.48.82,1.05,1.05,0,0,1-.56.43.43.43,0,0,1-.42-.1,1.4,1.4,0,0,1-.33-.42,2.29,2.29,0,0,1-.24-.55c-.06-.19-.11-.36-.14-.49l-.06-.23a2,2,0,0,1,0-.24c-.06.19-.13.43-.23.69a4.41,4.41,0,0,1-.32.78,3.36,3.36,0,0,1-.43.67,1,1,0,0,1-.54.37.54.54,0,0,1-.47-.07,1.22,1.22,0,0,1-.34-.4,3.81,3.81,0,0,1-.23-.54q-.09-.3-.15-.54A9.77,9.77,0,0,1,120.94,54.23Z"/><path class="cls-10" d="M127.29,54.27a2.24,2.24,0,0,0,.14.36,1.41,1.41,0,0,0,.19.3.25.25,0,0,0,.24.08.75.75,0,0,0,.4-.35,5,5,0,0,0,.34-.66,6.81,6.81,0,0,0,.26-.76c.07-.25.12-.45.16-.6l.07-.23a.17.17,0,0,1,.14-.15c.07,0,.12,0,.14.05a.64.64,0,0,1,.06.18.39.39,0,0,1,0,.16l0,.2c0,.07,0,.13,0,.19a1.31,1.31,0,0,1-.05.15c-.05.19-.13.42-.22.68a5.41,5.41,0,0,1-.34.78,4.05,4.05,0,0,1-.43.67,1,1,0,0,1-.52.36.63.63,0,0,1-.55-.1,1.84,1.84,0,0,1-.43-.48,3.34,3.34,0,0,1-.31-.66,6,6,0,0,1-.19-.63,5.28,5.28,0,0,1-.13-.78,7.86,7.86,0,0,1,0-.79,1.71,1.71,0,0,1,.11-.62.59.59,0,0,1,.43-.36c.16,0,.27,0,.31.21a1.28,1.28,0,0,1,0,.3c0,.12,0,.24,0,.37s0,.26,0,.38a1.92,1.92,0,0,0,0,.34,6.36,6.36,0,0,0,.18,1.12C127.23,54.05,127.26,54.15,127.29,54.27Zm-.53-4.88a.58.58,0,0,1,.18.3.69.69,0,0,1,0,.49.42.42,0,0,1-.3.29.3.3,0,0,1-.29-.07.57.57,0,0,1-.18-.31.8.8,0,0,1,0-.48.4.4,0,0,1,.29-.29A.3.3,0,0,1,126.76,49.39Z"/><path class="cls-10" d="M129.45,55.34a.42.42,0,0,1-.1-.2,11.66,11.66,0,0,1-.32-1.92c-.06-.66-.11-1.31-.16-1.92,0-.2,0-.4-.05-.61l-.06-.6a.8.8,0,0,1,.12-.46.57.57,0,0,1,.33-.29.32.32,0,0,1,.28,0,.66.66,0,0,1,.14.29,2.63,2.63,0,0,1,.09.7c0,.25,0,.48,0,.69a6.26,6.26,0,0,0,0,.75c0,.25.05.5.08.74.05-.15.11-.37.2-.65a8.51,8.51,0,0,1,.29-.85,5.53,5.53,0,0,1,.37-.77c.13-.22.26-.35.39-.38a.27.27,0,0,1,.28.07,1,1,0,0,1,.23.29,3.08,3.08,0,0,1,.16.38q.06.2.09.33c.08.29.14.58.2.87s.13.58.2.87c0,.07,0,.15.07.24a.94.94,0,0,0,.1.23.41.41,0,0,0,.14.15.27.27,0,0,0,.22,0,.73.73,0,0,0,.37-.3,3.25,3.25,0,0,0,.29-.56,3.69,3.69,0,0,0,.21-.64,3.89,3.89,0,0,0,.12-.54c0-.06,0-.14,0-.22s.07-.14.13-.15a.14.14,0,0,1,.15,0,.37.37,0,0,1,.09.16.28.28,0,0,1,0,.13.49.49,0,0,1,0,.13,5.47,5.47,0,0,1-.16.73,5.64,5.64,0,0,1-.31.81,3.42,3.42,0,0,1-.45.69,1.1,1.1,0,0,1-.54.38.59.59,0,0,1-.46-.06,1.26,1.26,0,0,1-.34-.35,2.31,2.31,0,0,1-.22-.51q-.09-.28-.15-.51c-.06-.24-.12-.48-.16-.71s-.1-.47-.16-.71l-.06-.14c0-.07-.06-.09-.1-.08a.19.19,0,0,0-.1.1l-.09.16a5.07,5.07,0,0,0-.31.81c-.08.3-.16.59-.22.86s-.14.65-.19,1-.09.67-.13,1a1.12,1.12,0,0,1-.1.31.34.34,0,0,1-.22.19A.21.21,0,0,1,129.45,55.34Z"/><path class="cls-10" d="M134.81,48.59c-.06.42-.13.82-.22,1.2a2.46,2.46,0,0,1-.07.29l-.09.28a.88.88,0,0,1-.05.15.83.83,0,0,0,0,.15.42.42,0,0,0,0,.14,1.3,1.3,0,0,0,0,.13q0,.18.18.57a7.87,7.87,0,0,0,.29.76,3.48,3.48,0,0,0,.37.64c.14.17.28.24.42.2a.8.8,0,0,0,.44-.34,3.8,3.8,0,0,0,.35-.63,4.93,4.93,0,0,0,.27-.73c.07-.25.13-.46.17-.63a1.23,1.23,0,0,1,.06-.22.21.21,0,0,1,.13-.13.11.11,0,0,1,.12,0,.19.19,0,0,1,.08.11.88.88,0,0,1,0,.28,2.56,2.56,0,0,1-.05.27q-.07.33-.21.78a6.54,6.54,0,0,1-.34.87,3.6,3.6,0,0,1-.47.74,1.1,1.1,0,0,1-.57.41.69.69,0,0,1-.52-.08,1.86,1.86,0,0,1-.48-.42,4.86,4.86,0,0,1-.41-.65c-.13-.25-.25-.5-.35-.75s-.19-.5-.26-.73-.13-.42-.17-.58c-.1-.4-.2-.81-.28-1.22a10.25,10.25,0,0,1-.16-1.24.58.58,0,0,1-.21.1q-.26.06-.33-.24a.31.31,0,0,1,.1-.36,1.35,1.35,0,0,1,.33-.18c0-.23,0-.55,0-1a9.87,9.87,0,0,1,.1-1.21,4.73,4.73,0,0,1,.28-1.08.86.86,0,0,1,.56-.56.3.3,0,0,1,.29.06.71.71,0,0,1,.22.26,1.84,1.84,0,0,1,.15.35,3.29,3.29,0,0,1,.09.32,6.42,6.42,0,0,1,.19,1,6.85,6.85,0,0,1,.08,1l.34-.15a2,2,0,0,1,.34-.13c.1,0,.16,0,.19.13a.25.25,0,0,1,0,.15.59.59,0,0,1-.08.11.67.67,0,0,1-.14.11l-.22.15-.24.15-.18.09A6.54,6.54,0,0,1,134.81,48.59Zm-.95.37c.07.34.13.67.2,1,0-.13.09-.31.14-.51a6.06,6.06,0,0,0,.12-.64c0-.22.06-.44.08-.65s0-.4,0-.55l-.36.16a1.54,1.54,0,0,0-.34.17A7,7,0,0,0,133.86,49Zm-.14-4.15a5.37,5.37,0,0,0-.12.87c0,.33,0,.64,0,1a6.4,6.4,0,0,0,0,.64l.41-.16a2.57,2.57,0,0,0,.41-.19c0-.33,0-.7-.06-1.1a9.41,9.41,0,0,0-.19-1.09.92.92,0,0,0,0-.09.56.56,0,0,0,0-.12.17.17,0,0,0-.06-.1.08.08,0,0,0-.07,0C133.87,44.41,133.78,44.56,133.72,44.81Z"/><path class="cls-10" d="M141.61,50c0,.12-.06.21-.08.28s-.13.4-.21.64a7.17,7.17,0,0,1-.3.69,2.81,2.81,0,0,1-.41.59.93.93,0,0,1-.49.32.52.52,0,0,1-.48-.1,1.74,1.74,0,0,1-.37-.46,4,4,0,0,1-.26-.6,5.32,5.32,0,0,1-.15-.55l-.15.53a5.25,5.25,0,0,1-.22.63,3.57,3.57,0,0,1-.3.55.63.63,0,0,1-.37.29.47.47,0,0,1-.35-.05.94.94,0,0,1-.27-.29,2.42,2.42,0,0,1-.21-.39q-.08-.22-.12-.39a3.7,3.7,0,0,1-.09-1.15,6.32,6.32,0,0,1,.23-1.3,4.14,4.14,0,0,1,.51-1.1,1.38,1.38,0,0,1,.79-.6.31.31,0,0,1,.26.07.42.42,0,0,1,.18.22.19.19,0,0,1,0,.11l-.06.07c-.15.18-.29.36-.43.55a3.7,3.7,0,0,0-.35.62,3.94,3.94,0,0,0-.36,1.27,3.56,3.56,0,0,0,.09,1.37l.07.18c0,.07.08.1.14.08s.15-.09.22-.23a3.1,3.1,0,0,0,.19-.5,5,5,0,0,0,.16-.64c.05-.24.1-.46.14-.68s.06-.43.09-.61,0-.32.05-.42a1.28,1.28,0,0,1,.07-.28.27.27,0,0,1,.19-.18h.17c.06,0,.1.06.12.14a1.42,1.42,0,0,1,0,.38c0,.16,0,.28,0,.38a4.51,4.51,0,0,0,0,.72c0,.25.09.47.14.69,0,.06,0,.16.08.29s.09.26.14.39a2.17,2.17,0,0,0,.19.34.22.22,0,0,0,.23.1.67.67,0,0,0,.37-.3,3.53,3.53,0,0,0,.33-.58,5.18,5.18,0,0,0,.26-.65c.08-.22.13-.4.17-.53a1.12,1.12,0,0,1,.06-.23.19.19,0,0,1,.15-.15c.11,0,.18,0,.22.19A.46.46,0,0,1,141.61,50Z"/><path class="cls-11" d="M52.83,67.68a1.37,1.37,0,0,1-.35-.2,2,2,0,0,1-.29-.29.71.71,0,0,1-.16-.31.62.62,0,0,1,0-.49.89.89,0,0,1,.3-.31l.41-.23a1.58,1.58,0,0,0,.36-.26,2,2,0,0,0,.4-1.34A16.78,16.78,0,0,0,53.41,62c-.09-.85-.21-1.77-.35-2.75s-.23-2-.29-2.94a16.68,16.68,0,0,1,0-2.75,5.57,5.57,0,0,1,.66-2.22,4,4,0,0,1,.63-.81,1.83,1.83,0,0,1,.87-.5,1.47,1.47,0,0,1,1.06.09,2.83,2.83,0,0,1,.87.65,3.74,3.74,0,0,1,.64,1,5.74,5.74,0,0,1,.38,1,.66.66,0,0,1,0,.37c0,.09-.13.16-.29.2s-.34-.06-.47-.32l-.4-.87a3.53,3.53,0,0,0-.53-.84.76.76,0,0,0-.85-.22q-.51.12-.69,1a12.29,12.29,0,0,0-.16,2.28c0,.91.06,1.9.16,3s.2,2.09.3,3.09.19,1.89.27,2.68a8.58,8.58,0,0,1,0,1.73,4.2,4.2,0,0,1,1.22-.14c.41,0,.82,0,1.23,0l1.23,0a4.32,4.32,0,0,0,1.23-.15,2.28,2.28,0,0,0,1.27-.78,5.81,5.81,0,0,0,.76-1.21,11.82,11.82,0,0,0,.48-1.13c.12-.34.26-.53.41-.57a.42.42,0,0,1,.24,0,.27.27,0,0,1,.17.18.62.62,0,0,1,0,.27,2.56,2.56,0,0,1,0,.27,9.3,9.3,0,0,1-.38,1.17,7.56,7.56,0,0,1-.61,1.16,4.64,4.64,0,0,1-.85,1,2.64,2.64,0,0,1-1.09.56,7.88,7.88,0,0,1-1.18.21l-1.2.08L57,66a8,8,0,0,0-1.19.21,3.93,3.93,0,0,0-1.27.57c-.38.26-.75.54-1.11.83a.71.71,0,0,1-.26.15A.52.52,0,0,1,52.83,67.68Z"/><path class="cls-11" d="M71.94,59.17c-.08.19-.14.35-.18.47-.12.31-.27.66-.46,1.07a8.36,8.36,0,0,1-.64,1.17,5.1,5.1,0,0,1-.82,1,2.2,2.2,0,0,1-1,.57,1,1,0,0,1-.9-.15,2.28,2.28,0,0,1-.68-.73,4.22,4.22,0,0,1-.47-1,7.5,7.5,0,0,1-.25-.89l-.32.89a9.92,9.92,0,0,1-.48,1.06,6.22,6.22,0,0,1-.61.93,1.45,1.45,0,0,1-.75.51.88.88,0,0,1-.66-.07,1.46,1.46,0,0,1-.51-.45,2.86,2.86,0,0,1-.36-.64,4.9,4.9,0,0,1-.22-.64,5.53,5.53,0,0,1-.07-1.9,8.73,8.73,0,0,1,.54-2.17,6.77,6.77,0,0,1,1.07-1.88,2.91,2.91,0,0,1,1.56-1,.65.65,0,0,1,.49.09.54.54,0,0,1,.33.37.18.18,0,0,1,0,.16.49.49,0,0,1-.12.13c-.31.31-.6.62-.87.94a7.35,7.35,0,0,0-.73,1.06A6.79,6.79,0,0,0,64,60.19a5.18,5.18,0,0,0,.08,2.28,1.28,1.28,0,0,0,.12.29.21.21,0,0,0,.27.13.8.8,0,0,0,.43-.4,5.46,5.46,0,0,0,.42-.84,11.38,11.38,0,0,0,.36-1.08c.1-.4.21-.78.3-1.15s.17-.71.22-1l.14-.69a2.21,2.21,0,0,1,.15-.48.56.56,0,0,1,.38-.3.74.74,0,0,1,.33,0,.27.27,0,0,1,.22.23,1.75,1.75,0,0,1,0,.62c0,.26-.06.48-.07.64a6.9,6.9,0,0,0,0,1.19c0,.4.13.79.21,1.14l.14.48a4.16,4.16,0,0,0,.24.64,2.07,2.07,0,0,0,.34.54.42.42,0,0,0,.44.16,1.59,1.59,0,0,0,.73-.53,8,8,0,0,0,.67-1,10.49,10.49,0,0,0,.56-1.11,9.23,9.23,0,0,0,.36-.88c0-.13.09-.26.14-.4a.39.39,0,0,1,.3-.25q.32-.09.42.3A.84.84,0,0,1,71.94,59.17Z"/><path class="cls-11" d="M73.27,54.79a10.42,10.42,0,0,0,.87,1c.31.33.62.67.92,1a7.86,7.86,0,0,1,.82,1.1,4.26,4.26,0,0,1,.53,1.22,2.93,2.93,0,0,1,.09.84,2.41,2.41,0,0,1-.16.84,1.51,1.51,0,0,0,.77-.53,7.79,7.79,0,0,0,.77-1,10.41,10.41,0,0,0,.66-1.16,6.77,6.77,0,0,0,.39-.91c0-.11.1-.24.16-.39a.43.43,0,0,1,.29-.28.26.26,0,0,1,.28.06.68.68,0,0,1,.13.27.38.38,0,0,1,0,.23,2,2,0,0,0,0,.24,13.22,13.22,0,0,1-.79,1.9,6.82,6.82,0,0,1-1.07,1.54,5.74,5.74,0,0,1-1.45,1.16,7.33,7.33,0,0,1-1.93.76,7,7,0,0,1-1.29.2,2.22,2.22,0,0,1-1.27-.26,1.16,1.16,0,0,1-.21-.16.46.46,0,0,1-.12-.23c0-.2,0-.33.25-.39a.34.34,0,0,1,.2,0l.2,0A2.1,2.1,0,0,0,73,62a3.11,3.11,0,0,0,.77-.11,1.53,1.53,0,0,0,1.1-.8A2,2,0,0,0,75,59.75a4.09,4.09,0,0,0-.38-1,9.74,9.74,0,0,0-.6-1c-.23-.32-.47-.62-.72-.91a8.36,8.36,0,0,0-.71-.73c0,.29-.07.62-.13,1s-.13.73-.22,1.1-.2.73-.32,1.07a4.74,4.74,0,0,1-.41.9,3.23,3.23,0,0,1-.18.28.45.45,0,0,1-.27.18.25.25,0,0,1-.35-.21.51.51,0,0,1,0-.3,1.31,1.31,0,0,1,.11-.29,12.59,12.59,0,0,0,1.08-4.39,3.53,3.53,0,0,1-.46-1,3.06,3.06,0,0,1-.07-.73,3.33,3.33,0,0,1,.08-.84,2.17,2.17,0,0,1,.31-.75,1,1,0,0,1,.58-.43.5.5,0,0,1,.34,0,.8.8,0,0,1,.28.24,1.77,1.77,0,0,1,.19.33,2.19,2.19,0,0,1,.12.33,4.1,4.1,0,0,1,.11,1.06A9,9,0,0,1,73.27,54.79Z"/><path class="cls-4" d="M87.2,77.33A26.57,26.57,0,0,0,89,83.56c1.34,3.65,3.95,4.72,6.24,5.78a18.59,18.59,0,0,0,7,1.52,19.8,19.8,0,0,0,9-1.71,21,21,0,0,0,7.31-5.45,13.28,13.28,0,0,0,1.21-1.61c.36-.56.74-1.13,1.15-1.69.25-.32.54-.67.87-1a1.39,1.39,0,0,1,1.14-.54,1.1,1.1,0,0,1,.81.4,1.23,1.23,0,0,1,.29.87,2.88,2.88,0,0,1-.37,1.18,7.58,7.58,0,0,1-.66,1.09,25.58,25.58,0,0,1-4.3,5.17,29.75,29.75,0,0,1-5.53,4,26.16,26.16,0,0,1-6.3,2.57,22.3,22.3,0,0,1-6.69.75c-3.27-.12-8.45-1.15-10.87-2.56a20.92,20.92,0,0,1-6.05-5.95,23,23,0,0,1-3.45-7.6,30.28,30.28,0,0,1-.93-8.72,38.72,38.72,0,0,1,1-6.95,42.33,42.33,0,0,1,6-14,28.74,28.74,0,0,1,4.87-5.65,20.58,20.58,0,0,1,6-3.76,17,17,0,0,1,7.15-1.21,9.94,9.94,0,0,1,4,1,9.77,9.77,0,0,1,3,2.24A9.44,9.44,0,0,1,112.77,45a11.1,11.1,0,0,1,.56,4.06c0,.62-.1,1.53-.24,2.7s-.35,2.36-.61,3.57a21,21,0,0,1-1,3.35,4.4,4.4,0,0,1-1.42,2.08,3.24,3.24,0,0,1-3,.14,1,1,0,0,1-.53-1.07,3.66,3.66,0,0,1,.22-1,9.85,9.85,0,0,1,.52-1.28l.59-1.31c.18-.42.32-.78.44-1.06a23.91,23.91,0,0,0,.8-3,20.66,20.66,0,0,0,.37-3.12,7,7,0,0,0-1.24-4.41,4.82,4.82,0,0,0-4-2,8.47,8.47,0,0,0-4.88,1.33,16.17,16.17,0,0,0-4.18,3.84,31.56,31.56,0,0,0-3.42,5.45,48.52,48.52,0,0,0-4.22,12.2,32.8,32.8,0,0,0-.67,5A43.61,43.61,0,0,0,87.2,77.33Z"/><path class="cls-4" d="M236,45.8a1.77,1.77,0,0,0-.38-.75.72.72,0,0,0-.78-.16,1.25,1.25,0,0,0-.82.81l-.42,1.13a21.62,21.62,0,0,1-1.06,2.58,31.47,31.47,0,0,1-1.78,3.31,25.1,25.1,0,0,1-2.11,3,4.13,4.13,0,0,1-2.15,1.54,6.9,6.9,0,0,0,.42-2.38,9.27,9.27,0,0,0-.32-2.36A11.74,11.74,0,0,0,225,49.07a23.76,23.76,0,0,0-2.37-3c-.87-1-1.77-1.9-2.68-2.83a36.27,36.27,0,0,1-2.5-2.86,29.3,29.3,0,0,0,.15-3,10.83,10.83,0,0,0-.4-3,6.08,6.08,0,0,0-.35-.94,5.14,5.14,0,0,0-.56-.92,2,2,0,0,0-.79-.63,1.27,1.27,0,0,0-1-.07A2.69,2.69,0,0,0,212.93,33a6.33,6.33,0,0,0-.82,2.12,11.09,11.09,0,0,0-.2,2.38,9.05,9.05,0,0,0,.27,2.07,9.63,9.63,0,0,0,1.34,2.87,34.92,34.92,0,0,1-2.17,10.88,23.92,23.92,0,0,1-1.11,2.28,15.53,15.53,0,0,1-1.48,2.24,3.3,3.3,0,0,1-1.61,1.23.94.94,0,0,1-1-.34,4.83,4.83,0,0,1-.79-1.19,10.76,10.76,0,0,1-.57-1.44c-.15-.47-.25-.83-.32-1.08a21.28,21.28,0,0,1-.54-2.56,14.36,14.36,0,0,1-.17-2.66c0-.37.07-.85.13-1.46a4.11,4.11,0,0,0,0-1.4.59.59,0,0,0-.51-.49,2.06,2.06,0,0,0-.74.05,1.21,1.21,0,0,0-.85.71,4.46,4.46,0,0,0-.31,1.08c-.07.35-.16.87-.28,1.57s-.27,1.46-.46,2.3-.4,1.7-.63,2.59a21.55,21.55,0,0,1-.76,2.45,11.87,11.87,0,0,1-.89,1.91,1.88,1.88,0,0,1-1,.93.49.49,0,0,1-.61-.28,4.53,4.53,0,0,1-.28-.65,11.87,11.87,0,0,1-.29-5.12,15.28,15.28,0,0,1,1.7-4.84,15.61,15.61,0,0,1,1.6-2.42c.59-.73,1.23-1.45,1.91-2.16a1.39,1.39,0,0,0,.26-.29.44.44,0,0,0,0-.38,1.41,1.41,0,0,0-.77-.82,1.5,1.5,0,0,0-1.12-.17,6.56,6.56,0,0,0-3.46,2.42,15.33,15.33,0,0,0-2.33,4.28,19.66,19.66,0,0,0-1.1,4.92,15.39,15.39,0,0,0-.06,2.32c-.16.48-.4,1.1-.74,1.87s-.8,1.75-1.28,2.63a17.88,17.88,0,0,1-1.51,2.37A3.3,3.3,0,0,1,187.84,65a.71.71,0,0,1-.92-.41,5.62,5.62,0,0,1-.41-1,20.84,20.84,0,0,1-.62-3.3c-.11-1.11-.19-2.23-.24-3.35a8.29,8.29,0,0,0-.26-1.83,4.25,4.25,0,0,0-1.29-2.21,6.6,6.6,0,0,0-1.94-1.08q-1-.36-2.1-.63a4.45,4.45,0,0,1-1.82-.94,18.64,18.64,0,0,0-.47-2.22c-.06-.24-.17-.55-.31-.94a5.53,5.53,0,0,0-.54-1.09,4.68,4.68,0,0,0-.73-.88.91.91,0,0,0-.89-.21,1.53,1.53,0,0,0-1,.91,5.81,5.81,0,0,0-.45,1.64,8.54,8.54,0,0,0,0,1.82,9.2,9.2,0,0,0,.23,1.45,8.17,8.17,0,0,0,.83,1.94,5.17,5.17,0,0,0,1.41,1.54A11.67,11.67,0,0,1,176,58.9q-.53,2-1.17,3.9c0,.1-.09.21-.13.31a13.94,13.94,0,0,1-1.44,2.57,11.24,11.24,0,0,1-2,2.11,6.9,6.9,0,0,1-2.57,1.32,2.81,2.81,0,0,1-2.51-.26,4,4,0,0,1-1.35-2.25,9.18,9.18,0,0,1-.3-2,8.1,8.1,0,0,0,1.89-2,18.09,18.09,0,0,0,1.66-2.93,15.24,15.24,0,0,0,1-3.18,5.79,5.79,0,0,0,0-2.72A3.07,3.07,0,0,0,168,52a2.41,2.41,0,0,0-2.09-.25,5,5,0,0,0-2.95,2.32,13.42,13.42,0,0,0-1.66,4.15,19.94,19.94,0,0,0-.52,4.66,18.29,18.29,0,0,0,.12,2.19c-.15.46-.32,1-.53,1.56a21,21,0,0,1-1.22,2.8A15.34,15.34,0,0,1,157.51,72a3.91,3.91,0,0,1-1.94,1.38,1.73,1.73,0,0,1-1.78-.68,9.85,9.85,0,0,1-1.56-2.3,22.29,22.29,0,0,1-1.2-2.77c-.34-.93-.58-1.62-.7-2.07,0-.12-.08-.29-.14-.5a1.12,1.12,0,0,1,0-.53,1.6,1.6,0,0,1,.16-.55l.25-.59.39-1.06a6.28,6.28,0,0,0,.33-1.09c.42-1.45.78-3,1.09-4.57A23.44,23.44,0,0,0,152.8,52c.17-.08.42-.21.76-.4l1.05-.61c.37-.22.7-.42,1-.62a5.37,5.37,0,0,0,.62-.44,2.7,2.7,0,0,0,.33-.46.7.7,0,0,0,0-.56.57.57,0,0,0-.8-.42,9.07,9.07,0,0,0-1.5.57c-.5.23-1,.45-1.48.65a26.4,26.4,0,0,0-.23-3.75,28.76,28.76,0,0,0-.74-3.65c-.1-.33-.22-.73-.38-1.19a6,6,0,0,0-.62-1.27,3.1,3.1,0,0,0-.92-.92,1.52,1.52,0,0,0-1.25-.14A3.92,3.92,0,0,0,146.18,41a15.66,15.66,0,0,0-1.33,4.1,32.67,32.67,0,0,0-.56,4.55c-.07,1.5-.11,2.69-.13,3.58a6,6,0,0,0-1.43.73,1.17,1.17,0,0,0-.47,1.4,1,1,0,0,0,1.39.79,3.11,3.11,0,0,0,.91-.4,35.85,35.85,0,0,0,.61,4.59c.31,1.53.67,3,1.08,4.51.16.58.39,1.29.68,2.13l.27.7c-.11.45-.25,1-.43,1.52a17.45,17.45,0,0,1-1,2.45,12.4,12.4,0,0,1-1.32,2.17,3.21,3.21,0,0,1-1.65,1.21,1.21,1.21,0,0,1-.91,0,1.66,1.66,0,0,1-.62-.56,3.64,3.64,0,0,1-.41-.84c-.1-.31-.19-.61-.26-.88-.3-1.06-.56-2.12-.79-3.2s-.49-2.14-.79-3.2c-.09-.33-.22-.73-.38-1.21a7,7,0,0,0-.65-1.39,3.59,3.59,0,0,0-.95-1,1.4,1.4,0,0,0-1.23-.2A3.5,3.5,0,0,0,134.08,64,22,22,0,0,0,132.43,67c-.51,1.09-1,2.18-1.37,3.26s-.7,1.92-.9,2.5q-.18-1.36-.27-2.76a16.4,16.4,0,0,1,.06-2.8c.06-.8.11-1.67.13-2.6a8.87,8.87,0,0,0-.3-2.58,1.92,1.92,0,0,0-.61-1,1.23,1.23,0,0,0-1.17-.11A2.58,2.58,0,0,0,126.53,62a2.85,2.85,0,0,0-.56,1.77c0,.74.1,1.48.18,2.24,0,.43.08.85.11,1.27h-.07a1.21,1.21,0,0,0-.82.64c-.14.32-.27.63-.38.92-.21.51-.54,1.2-1,2.08a28.24,28.24,0,0,1-1.55,2.6,18.39,18.39,0,0,1-1.86,2.34,4.36,4.36,0,0,1-2,1.33,1.16,1.16,0,0,1-1.16-.29,4.43,4.43,0,0,1-.88-1.17,8.36,8.36,0,0,1-.6-1.43c-.15-.48-.26-.84-.32-1.08a18.26,18.26,0,0,1-.51-2.57,12.2,12.2,0,0,1-.07-2.69c0-.37.13-.86.23-1.48a3.36,3.36,0,0,0,0-1.42.58.58,0,0,0-.56-.48,2.9,2.9,0,0,0-.88.1,1.61,1.61,0,0,0-1,.75,4.76,4.76,0,0,0-.42,1.12c-.09.35-.23.89-.4,1.6s-.39,1.5-.66,2.35-.56,1.75-.87,2.66a22.22,22.22,0,0,1-1,2.53,13,13,0,0,1-1.15,2,2.37,2.37,0,0,1-1.18,1,.56.56,0,0,1-.71-.24,3,3,0,0,1-.3-.65,10.33,10.33,0,0,1-.09-5.18,15.43,15.43,0,0,1,2.24-5,18.31,18.31,0,0,1,2-2.53c.73-.77,1.52-1.53,2.36-2.29a1.58,1.58,0,0,0,.32-.31.37.37,0,0,0,.07-.38,1.27,1.27,0,0,0-.85-.79,2.14,2.14,0,0,0-1.32-.13,8.89,8.89,0,0,0-4.2,2.63,16.91,16.91,0,0,0-3,4.46,19.16,19.16,0,0,0-1.55,5,10.39,10.39,0,0,0,.09,4.32,9.77,9.77,0,0,0,.53,1.41,6.12,6.12,0,0,0,.92,1.41,3.46,3.46,0,0,0,1.34,1,2.69,2.69,0,0,0,1.76,0,4.31,4.31,0,0,0,2-1.29,14.1,14.1,0,0,0,1.69-2.22,19.92,19.92,0,0,0,1.32-2.49c.37-.83.67-1.53.91-2.08a15.13,15.13,0,0,0,.61,2,9.11,9.11,0,0,0,1.18,2.17,5.7,5.7,0,0,0,1.77,1.56,3,3,0,0,0,2.39.19,6.77,6.77,0,0,0,2.65-1.46,14.79,14.79,0,0,0,2.24-2.43,22.83,22.83,0,0,0,1.77-2.78c.44-.83.82-1.56,1.14-2.2.11,1.63.23,3.31.35,5a37.89,37.89,0,0,0,1.2,7.09,1.56,1.56,0,0,0,.45.73.86.86,0,0,0,.82.14,1.66,1.66,0,0,0,1-.76,3.75,3.75,0,0,0,.47-1.21c.2-1.29.41-2.56.65-3.82a38.47,38.47,0,0,1,.92-3.74q.45-1.55,1.05-3.27a17.67,17.67,0,0,1,1.43-3.13c.09-.15.21-.35.38-.59a.9.9,0,0,1,.47-.42c.18,0,.32,0,.44.26a3.47,3.47,0,0,1,.21.53c.25.88.45,1.75.63,2.61s.38,1.74.62,2.61q.24.87.6,1.89a6.94,6.94,0,0,0,.94,1.84,4.18,4.18,0,0,0,1.42,1.24,2.72,2.72,0,0,0,2,.11A5.27,5.27,0,0,0,144.9,76a15,15,0,0,0,2-2.7,18.15,18.15,0,0,0,1.41-3,23.25,23.25,0,0,0,1.15,2.14,14,14,0,0,0,1.74,2.33,6.3,6.3,0,0,0,2,1.46,3.19,3.19,0,0,0,2.26.16A5.32,5.32,0,0,0,158,74.69a16.08,16.08,0,0,0,2.09-2.89,24.07,24.07,0,0,0,1.56-3.34c0-.07.05-.13.07-.19.12.27.25.54.39.79a5.6,5.6,0,0,0,1.43,1.71,4.73,4.73,0,0,0,1.94.93,5,5,0,0,0,2.46-.12A11,11,0,0,0,171.34,70a14,14,0,0,0,2.75-2.57,16,16,0,0,0,2-3.13c.06-.09.12-.18.17-.27a10.8,10.8,0,0,0,.92-2.16,22.93,22.93,0,0,0,.6-2.41c.16-.82.29-1.64.37-2.45s.16-1.57.22-2.3a5.85,5.85,0,0,1,2.12.49,2.27,2.27,0,0,1,1.33,1.58c.24.85.43,1.69.58,2.53s.34,1.68.58,2.52c.15.55.35,1.18.59,1.89a8.43,8.43,0,0,0,1,2A4.42,4.42,0,0,0,186,67a2.4,2.4,0,0,0,2,.2,4.76,4.76,0,0,0,2.18-1.53,17.67,17.67,0,0,0,2-2.81,31.07,31.07,0,0,0,1.53-3c0,.11.08.22.13.33a6.33,6.33,0,0,0,.84,1.43,3.44,3.44,0,0,0,1.17,1,2,2,0,0,0,1.5.13,3.18,3.18,0,0,0,1.65-1.19,11.72,11.72,0,0,0,1.34-2.13,19.19,19.19,0,0,0,1-2.4l.69-2a16.54,16.54,0,0,0,.6,2,10.18,10.18,0,0,0,1.09,2.19,5.93,5.93,0,0,0,1.57,1.62,2.38,2.38,0,0,0,2,.29,4.91,4.91,0,0,0,2.19-1.34,12.17,12.17,0,0,0,1.81-2.3l.21-.37a1.24,1.24,0,0,0,.71-.53,8,8,0,0,0,.49-.77,13.41,13.41,0,0,0,1.1-2.57c.32-1,.6-2,.84-3s.43-2.09.57-3.13.24-2,.3-2.8a24.19,24.19,0,0,1,2.06,2,31.35,31.35,0,0,1,2.07,2.51,24.81,24.81,0,0,1,1.75,2.7,11.9,11.9,0,0,1,1.14,2.68,5.56,5.56,0,0,1-.18,3.88,4.4,4.4,0,0,1-3.05,2.34,9.15,9.15,0,0,1-2.17.35,6.32,6.32,0,0,1-2.17-.32l-.56-.15a1,1,0,0,0-.57,0,.81.81,0,0,0-.68,1.1,1.47,1.47,0,0,0,.36.64,3.54,3.54,0,0,0,.62.44,6.15,6.15,0,0,0,3.57.66,20,20,0,0,0,3.65-.64,21.23,21.23,0,0,0,5.4-2.26,16.85,16.85,0,0,0,4-3.34,20.08,20.08,0,0,0,2.91-4.41,36.62,36.62,0,0,0,2.11-5.42,5,5,0,0,1,.15-.68A1,1,0,0,0,236,45.8ZM147.39,46a17.54,17.54,0,0,1,.61-3.29c.28-1,.68-1.54,1.19-1.68a.33.33,0,0,1,.33.11,2.65,2.65,0,0,1,.25.37,2.32,2.32,0,0,1,.16.44c0,.16.07.26.09.32a23.85,23.85,0,0,1,.73,4.05,31,31,0,0,1,.16,4.1,11,11,0,0,1-1.78.81c-.62.22-1.23.46-1.8.72a20.54,20.54,0,0,1-.11-2.41A33.24,33.24,0,0,1,147.39,46ZM149,62c-.24-1.24-.49-2.48-.76-3.72a22.87,22.87,0,0,1-.47-3.76,8.43,8.43,0,0,1,1.51-.73,12,12,0,0,0,1.56-.7,17,17,0,0,1-.16,2.07c-.1.8-.25,1.62-.42,2.46s-.37,1.66-.6,2.44A17.27,17.27,0,0,1,149,62Zm15.25-1.18a26,26,0,0,1,.28-2.87,15,15,0,0,1,.65-2.64c.27-.77.63-1.23,1.08-1.35a.62.62,0,0,1,.71.17,1.78,1.78,0,0,1,.36.66,4.46,4.46,0,0,1,0,2,11.73,11.73,0,0,1-.7,2.26,12,12,0,0,1-1.12,2.13,13.07,13.07,0,0,1-1.25,1.65A15.23,15.23,0,0,1,164.21,60.8Zm51.21-23s-1,.46-1.07-.77a5.89,5.89,0,0,1,.31-2.21C215.88,33.15,215.42,37.81,215.42,37.81Z"/><path class="cls-3" d="M118.23,106.74c-.59-1.37-.89-2-1.47-3.43l.74-.55c.69,1.3,1,1.94,1.73,3.22Zm-2-5.37a.63.63,0,0,1,.93.13.8.8,0,0,1-.17,1.12.65.65,0,0,1-1-.13.77.77,0,0,1,.19-1.12Z"/><path class="cls-3" d="M118.3,99.32c-.49.35-.73.52-1.21.88l-.43-.94c1.37-1,2.06-1.49,3.46-2.44l.4,1-1.23.86c.72,1.64,1.09,2.45,1.83,4.08l-1,.69C119.41,101.77,119,101,118.3,99.32Z"/><path class="cls-3" d="M123.88,96.1c.4,1,.6,1.5,1,2.49.19.47.37.86.51,1.19l-.86.57c-.11-.23-.17-.34-.29-.57h0a1.73,1.73,0,0,1-.72,1.37,1,1,0,0,1-1.47-.32,3.47,3.47,0,0,1-.34-.64c-.36-.82-.54-1.23-.89-2l1-.68c.34.79.5,1.19.84,2a2.8,2.8,0,0,0,.24.46.4.4,0,0,0,.59.15c.33-.23.41-.85.1-1.58s-.42-1-.71-1.72Z"/><path class="cls-3" d="M130.17,96.51a3.6,3.6,0,0,1-1.1,1,1.55,1.55,0,0,1-2.34-.49,2.36,2.36,0,0,1,.71-3.31,1.23,1.23,0,0,1,1.82.28c.51.85-1.46,2.13-1.54,2.48a.76.76,0,0,0,.32.27.91.91,0,0,0,.8-.15,2.63,2.63,0,0,0,.83-.79Zm-1.87-1.92c-.1-.16-.31-.19-.54,0-.48.29-.43,1.17-.39,1.19s1.12-.82.94-1.13Z"/><path class="cls-3" d="M130.17,92.22l1,1.39c.28.4.46.63.63.87h0c0-.3-.09-.61-.14-1.14l-.15-1.9c.46-.27.69-.4,1.16-.65,0,1.8,0,2.71,0,4.5l-1,.6-2.57-3Z"/><path class="cls-3" d="M137.19,92.55a3.46,3.46,0,0,1-1.14,1,1.55,1.55,0,0,1-2.31-.62,2.37,2.37,0,0,1,.89-3.27,1.22,1.22,0,0,1,1.79.39c.46.88-1.56,2-1.66,2.38a.71.71,0,0,0,.29.29,1,1,0,0,0,.82-.1,2.53,2.53,0,0,0,.86-.74Zm-1.75-2c-.09-.17-.3-.21-.54-.08-.49.26-.49,1.14-.45,1.16.19.08,1.16-.75,1-1.07Z"/><path class="cls-3" d="M138,92.41c-.31-1-.47-1.55-.77-2.58-.14-.49-.28-.9-.4-1.23l.94-.48.23.61h0a1.73,1.73,0,0,1,.93-1.29,1,1,0,0,1,1.41.51,5,5,0,0,1,.23.62c.24.9.36,1.35.61,2.24l-1,.51c-.25-.85-.37-1.27-.6-2.13a2.23,2.23,0,0,0-.16-.4c-.12-.25-.3-.38-.57-.25s-.53.8-.29,1.65l.5,1.7Z"/><path class="cls-3" d="M141.93,84.91c.1.42.15.63.26,1l.79-.36.2.88-.78.36c.13.52.19.79.32,1.31a2.16,2.16,0,0,0,.15.47c.08.18.21.26.45.15l.28-.14c.1.35.15.52.26.87a2.07,2.07,0,0,1-.58.37c-.64.3-1.08.13-1.3-.32a3.26,3.26,0,0,1-.23-.69c-.16-.61-.24-.92-.39-1.53l-.46.22c-.1-.34-.14-.52-.24-.86l.47-.23-.18-.73Z"/><path class="cls-3" d="M146.19,88.54a1.57,1.57,0,0,1-2.19-.79,2.37,2.37,0,0,1,1.17-3.24,1.58,1.58,0,0,1,2.21.82,2.37,2.37,0,0,1-1.18,3.21Zm-.2-.88c.57-.25.54-1.24.27-1.85-.15-.34-.45-.62-.87-.43-.63.28-.54,1.29-.29,1.85s.51.6.88.44Z"/><path class="cls-3" d="M148.38,88.54a15.45,15.45,0,0,0,0-2.46l1.14-.56a12.55,12.55,0,0,1-.36,2.63Z"/><path class="cls-3" d="M151.83,86.09c-.2-1.06-.3-1.59-.49-2.65-.09-.5-.19-.92-.27-1.27l1-.37c.06.25.1.38.16.63h0a1.69,1.69,0,0,1,1.06-1.19,1,1,0,0,1,1.34.66,3.74,3.74,0,0,1,.16.64c.15.91.22,1.37.37,2.29-.44.15-.65.24-1.09.4-.15-.88-.22-1.31-.37-2.18a2,2,0,0,0-.11-.42c-.1-.27-.26-.41-.54-.31s-.61.74-.46,1.61c.13.69.19,1,.32,1.74Z"/><path class="cls-3" d="M158.83,79.41c.13,1.07.2,1.61.34,2.67.06.51.13.93.19,1.28l-1,.33-.13-.63h0a1.69,1.69,0,0,1-1,1.13,1,1,0,0,1-1.32-.7,3.53,3.53,0,0,1-.17-.71c-.13-.88-.2-1.32-.33-2.2l1.12-.39.3,2.12a3.19,3.19,0,0,0,.12.51c.08.23.25.39.52.29s.61-.7.5-1.49-.15-1.1-.24-1.84Z"/><path class="cls-3" d="M163.33,81.87a3.5,3.5,0,0,1-1.31.73,1.54,1.54,0,0,1-2.13-1.07,2.36,2.36,0,0,1,1.5-3,1.23,1.23,0,0,1,1.68.73c.28,1-1.92,1.7-2.09,2a.65.65,0,0,0,.23.34.94.94,0,0,0,.82.06,2.34,2.34,0,0,0,1-.56ZM162,79.55c-.05-.19-.25-.27-.51-.19-.52.16-.7,1-.66,1s1.28-.51,1.18-.85Z"/><path class="cls-3" d="M164,80.85a2.78,2.78,0,0,0,1.07,0c.31-.09.43-.29.37-.48s-.21-.28-.61-.35a1.24,1.24,0,0,1-1.09-.76c-.23-.79.33-1.51,1.33-1.79a2.35,2.35,0,0,1,1-.08l0,.87a1.85,1.85,0,0,0-.82.05c-.3.08-.47.26-.41.47s.25.24.59.3,1,.27,1.14.79c.24.87-.37,1.54-1.37,1.82a2.41,2.41,0,0,1-1.24,0Z"/><path class="cls-3" d="M168.25,75.6c0,.43,0,.64.06,1.07l.84-.21c0,.36,0,.54,0,.9l-.83.21c0,.54,0,.81.07,1.35a1.88,1.88,0,0,0,.06.49c0,.19.16.3.41.23a1.71,1.71,0,0,0,.3-.09c0,.37.05.55.1.91a2.51,2.51,0,0,1-.65.26c-.67.17-1.08-.09-1.21-.57a3.26,3.26,0,0,1-.09-.72c0-.63-.07-.94-.11-1.57l-.49.13c0-.36,0-.54-.07-.9l.51-.13-.05-.75Z"/><path class="cls-3" d="M170,80.29c-.05-1-.08-1.43-.13-2.38,0-.6-.13-1.25-.17-1.59l1-.24c0,.27.08.53.12.81h0a1.49,1.49,0,0,1,1-1.16l.22,0c0,.46,0,.69,0,1.15l-.18,0c-.73.17-.93.89-.9,1.67,0,.59,0,.89.07,1.48Z"/><path class="cls-3" d="M175.36,79.08c0-.23-.07-.5-.11-.78h0a1.51,1.51,0,0,1-1.12,1.12,1.23,1.23,0,0,1-1.46-1.08,2.65,2.65,0,0,1,2.23-3.27,4.5,4.5,0,0,1,1.34-.07c0,.83,0,1.25,0,2.09a9.21,9.21,0,0,0,.18,1.76ZM175.07,76a1.35,1.35,0,0,0-.33,0c-.74.15-1.09,1.17-.93,1.88.08.38.28.6.6.53s.68-.54.66-1.52Z"/><path class="cls-3" d="M182.36,72c-.08,1.7-.12,2.55-.18,4.25a15.14,15.14,0,0,0,0,1.53l-1,.17,0-.64h0a1.54,1.54,0,0,1-1.16.93c-.65.11-1.29-.31-1.45-1.24a2.52,2.52,0,0,1,2-3,1.76,1.76,0,0,1,.56,0c0-.73,0-1.09.07-1.82ZM181.09,75a.67.67,0,0,0-.48-.06,1.43,1.43,0,0,0-.93,1.72c.08.47.33.69.66.64s.69-.47.71-1.23C181.06,75.62,181.07,75.4,181.09,75Z"/><path class="cls-3" d="M183.1,77.69c.06-1.6.09-2.39.17-4l1.18-.17c-.09,1.6-.13,2.39-.21,4Zm.84-4.58a.54.54,0,0,1-.65-.48.67.67,0,0,1,.59-.74.56.56,0,0,1,.68.48.66.66,0,0,1-.61.74Z"/><path class="cls-3" d="M185.22,76.34a2.81,2.81,0,0,0,1.06.14c.33,0,.47-.23.45-.42s-.17-.31-.55-.44-.91-.44-1-.91c-.11-.81.55-1.45,1.58-1.57a2.13,2.13,0,0,1,1.05.08c-.07.33-.11.5-.18.84a2.12,2.12,0,0,0-.82-.07c-.31,0-.5.19-.47.41s.2.27.53.38,1,.41,1,1c.1.89-.61,1.47-1.64,1.59a2.35,2.35,0,0,1-1.23-.15C185.12,76.85,185.15,76.68,185.22,76.34Z"/><path class="cls-3" d="M190.27,71.78l-.1,1.08.87-.09c0,.36-.06.54-.1.9l-.86.08c-.05.54-.08.81-.13,1.35a2.72,2.72,0,0,0,0,.49.29.29,0,0,0,.37.29l.32,0c0,.36,0,.55,0,.91a2.72,2.72,0,0,1-.68.16c-.69.07-1.06-.24-1.11-.74a2.57,2.57,0,0,1,0-.73c0-.62.07-.94.13-1.57l-.51.06c0-.36,0-.54.07-.9L189,73c0-.29,0-.44.07-.74Z"/><path class="cls-3" d="M191.32,76.69c.16-1.59.24-2.39.41-4l1.19-.1c-.18,1.59-.27,2.39-.44,4Zm1.11-4.53a.54.54,0,0,1-.62-.51.67.67,0,0,1,.64-.71.54.54,0,0,1,.64.52.65.65,0,0,1-.65.7Z"/><path class="cls-3" d="M193.46,76.51c.12-1.08.18-1.61.31-2.68.06-.51.09-.94.12-1.29l1.05-.07c0,.26,0,.39,0,.65h0a1.76,1.76,0,0,1,1.37-.83,1,1,0,0,1,1.1,1,4.86,4.86,0,0,1,0,.65c-.14.92-.2,1.38-.33,2.3l-1.16.07c.11-.88.17-1.32.29-2.2a3.05,3.05,0,0,0,0-.43c0-.28-.12-.47-.43-.45s-.8.52-.91,1.4c-.09.71-.13,1.06-.21,1.76Z"/><path class="cls-3" d="M200.92,76a2.67,2.67,0,0,1-1.12.24,1.54,1.54,0,0,1-1.74-1.53,2.49,2.49,0,0,1,2.54-2.58,2.34,2.34,0,0,1,.84.12c-.11.35-.17.53-.28.89a1.23,1.23,0,0,0-.55-.08,1.38,1.38,0,0,0-1.32,1.47.75.75,0,0,0,.81.78,2.19,2.19,0,0,0,.79-.18C200.9,75.47,200.91,75.64,200.92,76Z"/><path class="cls-3" d="M201.51,76.11c.27-1.58.41-2.37.69-3.94l1.2,0c-.3,1.57-.44,2.36-.72,3.94C202.21,76.09,202,76.09,201.51,76.11Zm1.43-4.44a.55.55,0,0,1-.58-.55.66.66,0,0,1,.69-.67.55.55,0,0,1,.61.56.67.67,0,0,1-.71.66Z"/><path class="cls-3" d="M205.49,76.16a1.57,1.57,0,0,1-1.69-1.62,2.37,2.37,0,0,1,2.42-2.47,1.58,1.58,0,0,1,1.69,1.65,2.38,2.38,0,0,1-2.42,2.44Zm.17-.88c.63,0,1-.91,1-1.58,0-.37-.16-.75-.63-.75-.69,0-1,1-1,1.56,0,.46.22.77.63.77Zm2.08-4.79-1.11,1.2h-.88c.31-.49.47-.73.8-1.21Z"/><path class="cls-3" d="M208.21,76.11c.22-1,.34-1.58.57-2.63.12-.49.2-.91.26-1.27l1.06,0-.1.64h0a1.77,1.77,0,0,1,1.46-.67,1,1,0,0,1,1,1.12,5.57,5.57,0,0,1-.1.66c-.23.9-.34,1.35-.56,2.25l-1.17-.06c.2-.86.3-1.29.51-2.15a2.79,2.79,0,0,0,.06-.43c0-.28-.08-.48-.39-.49s-.85.44-1.06,1.3l-.38,1.73Z"/><path class="cls-3" d="M213.44,76.43a.64.64,0,0,1-.62-.7.8.8,0,0,1,.85-.75.63.63,0,0,1,.62.71.77.77,0,0,1-.85.74Zm-.06-1.87c.3-1.44.45-2.16.76-3.59l1.31.09c-.47,1.42-.7,2.13-1.15,3.56Z"/></svg>