<svg id="Layer_1" data-name="Layer 1" xmlns="http://www.w3.org/2000/svg" viewBox="0 0 288 107"><defs><style>.cls-1{fill:#231f20;}</style></defs><title>Artboard 49 copy 9</title><path class="cls-1" d="M0,65.24H7.48c1.22,0,1.22,0,1.34,1.23a7.88,7.88,0,0,0,2,5.25c2.51,2.51,5.66,2.92,8.87,2s4.85-3.27,5.49-6.43a13.49,13.49,0,0,0,.24-2.68V26.11a.85.85,0,0,0-.06-.41h9c0,13.26.06,26.46-.06,39.71-.05,6.66-3,11.69-9.17,14.55A15.69,15.69,0,0,1,20,81.3l-.75.18H15.36c-1.34-.3-2.8-.35-4.15-.7C6,79.37,2.16,76.45.64,71,.35,69.91.29,68.69,0,67.58Z"/><path class="cls-1" d="M43.69,81.42a36.2,36.2,0,0,1-6.08-1.23,24,24,0,0,1-4.73-2.1c-.17-.12-.58-.18-.23-.53a16.93,16.93,0,0,0,3.5-6.42c4.62,3.33,9.64,3.74,14.9,2.16a6.55,6.55,0,0,0,5.14-6.13,7,7,0,0,0-3.62-6.89,27.15,27.15,0,0,0-7.6-3,54.28,54.28,0,0,1-7.3-2.52c-.41-.17-.7-.35-.7-.87V45.26c0-.11.06-.29.06-.4,3.74,3,8.35,4,12.73,5.37a30,30,0,0,1,10.57,5.55c6,5.08,6.19,15,1.23,20a18.78,18.78,0,0,1-10.05,5.08c-1.22.24-2.45.35-3.62.53Z"/><path class="cls-1" d="M47.19,25.64A32.16,32.16,0,0,1,53,26.69c5.49,1.81,9.52,5.14,11.45,10.75a13.81,13.81,0,0,1,.58,4.09c0,.58-.17.76-.75.76H57c-.46,0-.64-.12-.7-.65-.35-5.31-4.2-8.35-9.28-8.7a22,22,0,0,0-4,.06,9.61,9.61,0,0,0-6,2.69c-.29-.24-.18-.53-.18-.76V27.74a1,1,0,0,1,.82-1.11h.06a28.73,28.73,0,0,1,5-.93,3.31,3.31,0,0,0,1.11-.18h3.33Z"/><path class="cls-1" d="M287.94,71.72a7.34,7.34,0,0,1-1.46,3,7.64,7.64,0,0,1-5.26,2.1A12.12,12.12,0,0,1,273,74.47c-.64-.47-.82-.88-.23-1.58,1.34-1.58,1.28-1.58,3.09-.52a8.16,8.16,0,0,0,6.25,1.22,3.3,3.3,0,0,0,1.69-.93,2,2,0,0,0,.06-2.86,1.6,1.6,0,0,0-.52-.41,9.52,9.52,0,0,0-2.81-1,25.93,25.93,0,0,1-4.26-1.28c-1.81-.82-3.15-2-3.27-4.21a5.33,5.33,0,0,1,2.69-5.25c2.92-1.7,5.95-1.4,8.93-.24a12.53,12.53,0,0,1,2.11,1.23.75.75,0,0,1,.23,1.23c-1.29,1.87-1.29,1.87-3.21.76a7.75,7.75,0,0,0-4.21-1.06,3.4,3.4,0,0,0-2.22.88,2,2,0,0,0-.35,2.8,1.75,1.75,0,0,0,.76.59,13.07,13.07,0,0,0,2.92,1c.94.23,1.87.47,2.8.76,2.28.7,4,1.87,4.56,4.38Z"/><path class="cls-1" d="M287.94,40.24c-.17.7-.29,1.35-.52,2a9.13,9.13,0,0,1-10,6.13,9.19,9.19,0,0,1,.06-18.17,9.21,9.21,0,0,1,10.22,7.42l.17.88Zm-16.53-.93a7.39,7.39,0,1,0,7.42-7.6A7.62,7.62,0,0,0,271.41,39.31Z"/><path class="cls-1" d="M187.54,70.61l3.1-9.34c.41-1.17.81-2.34,1.17-3.51a.91.91,0,0,1,1-.76c3.15-.11,3.15-.11,4.15,2.87l3.32,10a7.71,7.71,0,0,0,.35,1c.65-2.16,1.23-4.09,1.82-6.08l2.1-7a.93.93,0,0,1,1.05-.81h.06c.76,0,1.46,0,2.22,0s.81.17.58.81c-1,3.16-2,6.31-3,9.47-.87,2.8-1.81,5.54-2.63,8.35a1,1,0,0,1-1.16.87h0c-3.33-.11-2.46.59-3.51-2.51-1.34-3.85-2.63-7.71-3.91-11.56,0-.06-.06-.12-.06-.18-.29.12-.23.35-.29.53C192.45,67,191,71.2,189.59,75.46a1.23,1.23,0,0,1-1.35,1c-3.15-.11-2.39.47-3.33-2.39-1.75-5.32-3.38-10.63-5.08-16-.35-1.17-.29-1.17.88-1.17,2.68,0,2.68,0,3.44,2.51,1.06,3.44,2,6.83,3.1,10.28a4.74,4.74,0,0,0,.29.82Z"/><path class="cls-1" d="M100.22,64a1.55,1.55,0,0,0-.58.76c-1.75,3.16-3.45,6.31-5.2,9.52-.17.3-.23.7-.64.7s-.53-.4-.7-.7l-5.2-9.57c-.12-.24-.17-.53-.47-.71a1.56,1.56,0,0,0-.05.88V75.64c0,.76-.24,1-1,1a17,17,0,0,0-1.75,0c-.58,0-.82-.23-.82-.82V57.88c0-.58.18-.82.76-.76h.18c2-.41,3.09.41,4,2.28,1.34,3,3.09,5.78,4.61,8.64a4.74,4.74,0,0,0,.47.76c.35-.17.41-.46.53-.7,1.86-3.39,3.73-6.77,5.54-10.16a1.17,1.17,0,0,1,1.35-.82,8.53,8.53,0,0,0,1.75,0c.76-.06.93.23.93.94-.05,4,0,8.11,0,12.14v5.44c0,.76-.29,1-1.05,1a6.87,6.87,0,0,0-1.57,0c-.76.06-1.06-.23-1.06-1,.06-3.57,0-7.13,0-10.63Z"/><path class="cls-1" d="M234.62,66.76V58c0-.7.23-.94.87-.94h8c3.39.06,6.08,2,6.78,4.85a6.15,6.15,0,0,1-3.62,7.36c-.82.35-.76.64-.29,1.23,1.22,1.63,2.39,3.33,3.56,5,.17.23.47.47.29.76s-.52.29-.87.29c-2.75.06-2.75.06-4.33-2.22-.93-1.34-1.87-2.63-2.8-4a.9.9,0,0,0-.93-.47c-.82,0-1.64.06-2.46,0-.52,0-.7.18-.7.7v5c0,.76-.29,1-1,.93a7,7,0,0,0-1.58,0c-.76.06-1.05-.23-1-1C234.62,72.66,234.62,69.74,234.62,66.76Zm6.48-6.43h-2.34c-.41,0-.58.18-.58.59v5.25c0,.35.06.59.47.59a41.87,41.87,0,0,0,5.37-.12,3.1,3.1,0,0,0,2.86-3.09,3.2,3.2,0,0,0-2.92-3.1,16.35,16.35,0,0,0-2.86-.12Z"/><path class="cls-1" d="M221,56.71a10.08,10.08,0,1,1-10.28,10.05A10.25,10.25,0,0,1,221,56.71Zm6.6,10.11a6.75,6.75,0,1,0-6.6,7A7,7,0,0,0,227.61,66.82Z"/><path class="cls-1" d="M108.11,66.82V58.17c0-.82.23-1.17,1.11-1.17,4.26.06,8.53.06,12.73,0,.82,0,1,.24,1,1,0,2.22,0,2.22-2.21,2.22h-8.18c-.59,0-.82.17-.82.76a29.72,29.72,0,0,1,0,3.27c0,.58.23.76.76.76H121c.7,0,.93.17.93.87,0,2.34,0,2.34-2.27,2.34h-7c-.65,0-.82.17-.82.76.06,1.22.06,2.39,0,3.62,0,.58.17.76.76.76H122c.76,0,1,.17,1,1,0,2.34,0,2.34-2.33,2.34h-11c-1.46,0-1.52,0-1.52-1.46V66.82Z"/><path class="cls-1" d="M151.51,57.06c2.45,0,1.86-.23,2.74,1.81,2.34,5.44,4.56,11,6.89,16.42.47,1.11.35,1.28-.87,1.28-3-.06-2.34.47-3.51-2.34a1.59,1.59,0,0,0-1.87-1.16c-2.51.05-5,.05-7.47,0a.91.91,0,0,0-1,.64c-.29.76-.64,1.52-.93,2.28a.81.81,0,0,1-.82.58h-2.45c-.64,0-.88-.23-.59-.88,2.52-6,5-12,7.54-18a1,1,0,0,1,1.05-.71A9.73,9.73,0,0,0,151.51,57.06Zm0,4.79c-1.23,2.86-2.28,5.43-3.39,8.12H155c-1.17-2.69-2.22-5.31-3.44-8.12Z"/><path class="cls-1" d="M257.51,66.58c2.75-3.09,5.32-5.9,7.89-8.76a1.85,1.85,0,0,1,1.63-.76c.76.06,1.52,0,2.28,0,.23,0,.58-.11.7.18s-.17.47-.35.64l-5.08,5.61c-.47.46-.88,1.05-1.34,1.46a.84.84,0,0,0-.06,1.4c2.39,3,4.73,6.13,7.12,9.17.18.23.59.47.41.82s-.64.17-.93.23c-2.22.41-3.74-.41-5-2.39a61.8,61.8,0,0,0-4.14-5.44c-.35-.52-.65-.46-1,0l-.06.06c-2,1.46-2.21,3.51-2.1,5.78s.35,2-2,2c-1.58,0-1.58,0-1.58-1.58V58.11c0-.93.29-1.16,1.17-1.11,2.45.06,2.45,0,2.45,2.46Z"/><path class="cls-1" d="M135.15,68.34v7.18c0,.82-.35,1.11-1.11,1-2.8-.06-2.45.29-2.45-2.45v-13c0-.76-.18-.93-.94-.93-1.46.06-2.92,0-4.38,0-.7,0-1-.24-1-1,.06-2.57-.29-2.28,2.22-2.28h12.73c1.05,0,1.11.06,1.11,1.17,0,2.39.18,2-2,2-1.17,0-2.28.06-3.45,0-.58-.06-.82.18-.82.76C135.15,63.49,135.15,65.94,135.15,68.34Z"/><path class="cls-1" d="M128.2,43.1c2.16-4,4.26-7.94,6.31-11.85.17-.35.29-.76.93-.82,1.17,0,1.17,0,1.17,1.11V47.19a.92.92,0,0,1-.82,1.05,1,1,0,0,1-.58-.11c-.35-.18-.23-.53-.23-.76V34.46l-.18-.06a7.53,7.53,0,0,0-.47.88c-1.81,3.44-3.68,6.89-5.49,10.28-.11.29-.17.7-.58.7s-.47-.41-.58-.7c-2-3.74-4-7.42-6-11.22a1.39,1.39,0,0,0-.18.94v12c0,.64-.11.88-.81.88s-.94-.12-.94-.88c.06-5.26,0-10.57.06-15.83,0-.35-.23-.93.41-1s1.23-.24,1.63.58c1.64,3.1,3.28,6.19,5,9.29C127.21,41.29,127.68,42.17,128.2,43.1Z"/><path class="cls-1" d="M164.06,66.7V58.06c0-.76.24-1.06,1-1.06,2.62,0,2.62,0,2.62,2.63V72.37c0,.75.24.93.94.93,2.68-.06,5.31,0,8,0,.82,0,1.17.29,1.17,1.11,0,2.16,0,2.16-2.16,2.16H165.41c-1.17,0-1.35-.17-1.35-1.28V66.7Z"/><path class="cls-1" d="M152.73,38.84c2,1.17,3.21,2.63,3,5a4.56,4.56,0,0,1-4.56,4.33c-2.8.11-5.6,0-8.47.06-.46,0-.58-.24-.58-.65V31.19c0-.59.23-.7.76-.7h7.65a4.38,4.38,0,0,1,4.32,3.09,4.26,4.26,0,0,1-1.87,5C153,38.66,152.91,38.72,152.73,38.84Zm-5.08.88h-3c-.47,0-.7.05-.7.58v5.78c0,.41.12.59.53.59,2.1-.06,4.14.11,6.25-.06a3.42,3.42,0,0,0,3.38-3.56,3.53,3.53,0,0,0-3.68-3.39C149.52,39.66,148.58,39.72,147.65,39.72Zm-.23-1.58h2.8a3.18,3.18,0,0,0,3.15-2.34c.47-2-1-3.68-3.38-3.79-1.81-.06-3.57,0-5.38,0-.41,0-.64.11-.64.58v5c0,.47.23.59.64.59C145.55,38.14,146.48,38.14,147.42,38.14Z"/><path class="cls-1" d="M159.45,39.31a9.08,9.08,0,1,1,9.11,9.23,9.13,9.13,0,0,1-9.11-9.12Zm9.05-7.54a7.6,7.6,0,1,0,7.42,7.77v-.17a7.55,7.55,0,0,0-7.42-7.6Z"/><path class="cls-1" d="M243.9,39.31V31.48c0-.76.24-1.05,1-1.05,2.51.12,5-.23,7.53.29a8.53,8.53,0,0,1,6.95,8.88A8.59,8.59,0,0,1,252.14,48c-2.51.41-5.08.12-7.65.18-.64,0-.64-.47-.64-.94C243.85,44.62,243.9,42,243.9,39.31Zm1.64,0v6.6c0,.58.17.76.76.76,1.58-.06,3.15,0,4.73-.12a7.19,7.19,0,0,0,6.66-6.48,7.1,7.1,0,0,0-5.49-7.83,27.43,27.43,0,0,0-5.79-.29c-.64,0-.93.11-.87.87.06,2.17,0,4.38,0,6.49Z"/><path class="cls-1" d="M196.3,48.54A10.29,10.29,0,0,1,190,46.37c-.29-.23-.58-.46-.46-.93.17-.82.76-1,1.4-.47a8.05,8.05,0,0,0,5.78,2,4.6,4.6,0,0,0,2.86-1,2.73,2.73,0,0,0,.7-3.8,3.24,3.24,0,0,0-1.05-.94,13.79,13.79,0,0,0-3.38-1.16,18.5,18.5,0,0,1-3.16-1c-3.85-1.57-3.21-6-.7-7.71a7.52,7.52,0,0,1,7.36-.46,7.32,7.32,0,0,1,2,1.22.79.79,0,0,1,.3,1.11l-.18.18c-.41.52-.7.41-1.17.06a6.86,6.86,0,0,0-5.55-1.64,3.61,3.61,0,0,0-2.39,1.34,2.59,2.59,0,0,0,0,3.63,2.29,2.29,0,0,0,.76.52,14,14,0,0,0,3.74,1.23,17,17,0,0,1,2.92,1,4.13,4.13,0,0,1,2.68,4.15,4.54,4.54,0,0,1-2.86,4.2A9.35,9.35,0,0,1,196.3,48.54Z"/><path class="cls-1" d="M236.78,36.45V31.36c0-.64.23-.87.87-.87s.88.17.88.87v9.58c-.06,4-2.22,6.78-5.67,7.42a7.12,7.12,0,0,1-8.87-7c-.12-3.39,0-6.72-.06-10.1,0-.65.35-.76.87-.76s.88.11.88.76v10A5.59,5.59,0,0,0,231.05,47a5.93,5.93,0,0,0,1.76-.24,5.5,5.5,0,0,0,4-5c.06-1.81,0-3.56,0-5.31Z"/><path class="cls-1" d="M101.51,36.5c0,1.7-.06,3.33,0,5a5.35,5.35,0,0,0,3,4.84,5.21,5.21,0,0,0,5.66-.35,5.55,5.55,0,0,0,2.46-4.9v-9.7c0-.58,0-1,.81-1s.94.35.88,1c-.06,3.51.17,7-.12,10.46-.35,4.2-3.44,6.77-7.71,6.54a7,7,0,0,1-6.71-7.13c-.06-3.38,0-6.71-.06-10.1,0-.7.29-.76.87-.76s.88.06.88.76c0,1.81.06,3.56,0,5.31Z"/><path class="cls-1" d="M212,40.13V32.82c0-.64-.18-.81-.82-.81-1.52.05-3,0-4.56,0-.58,0-.82-.12-.82-.82s.3-.76.88-.76H219c.59,0,.82.17.82.82s-.29.76-.88.76h-4.38c-.76,0-.93.17-.93.93.06,4.73,0,9.52.06,14.25,0,.76-.24,1.05-1,1-.58-.06-.75-.24-.75-.76Z"/><path class="cls-1" d="M74.82,53.62V77.86a.45.45,0,0,1-.47.4c-.23,0-.41-.11-.41-.35h0c0-.23-.06-.46-.06-.7V29.44c0-.3.06-.65.47-.65s.47.24.47.59V53.62Z"/><path class="cls-1" d="M94.62,37.2v5.44c-.06,3.09-1.75,5.31-4.5,5.78a6.19,6.19,0,0,1-6-2.28c-.7-.76.06-1,.41-1.46.53-.52.64.18.82.35A5,5,0,0,0,88.6,46.9c2.51.29,4.38-1.58,4.38-4.32,0-3.74.06-7.48,0-11.16,0-.82.24-1,1-.93.52,0,.7.23.7.76C94.56,33.17,94.62,35.22,94.62,37.2Z"/><path class="cls-1" d="M263.82,39.25V31.42c0-.64.12-1,.88-1s.87.35.87,1V47.13c0,.7-.17,1-.93,1s-.82-.47-.82-1.05C263.88,44.51,263.82,41.88,263.82,39.25Z"/></svg>