<svg id="Layer_1" data-name="Layer 1" xmlns="http://www.w3.org/2000/svg" viewBox="0 0 288 107"><defs><style>.cls-1{fill:#c1c7d0;}.cls-2{fill:#ebecf0;}</style></defs><title>Artboard 49 copy 12</title><path class="cls-1" d="M97.5,39.37a23.24,23.24,0,0,1,.06-5c2.34-19.46,32.08-33.24,62-32.53A94.14,94.14,0,0,1,187.83,6.6c9.14,3.6,16.87,8.58,22.52,14.49a34.08,34.08,0,0,1,3.81,5.67l.17.06a33.53,33.53,0,0,0-3.84-5.73C204.83,15.18,197.11,10.2,188,6.6A95.31,95.31,0,0,0,153.14.27c-37.22,0-73.4,21.93-71.72,57.46.23-.61.48-1.22.74-1.83a41.28,41.28,0,0,1,3.64-6.77,28.45,28.45,0,0,1,4.87-5.65,20.66,20.66,0,0,1,6.06-3.77l.91-.34a17.31,17.31,0,0,1,6.1-.86h0A17.11,17.11,0,0,0,97.5,39.37Z"/><path class="cls-1" d="M107.83,39.45a9.94,9.94,0,0,0-4-.94h-.13a10.15,10.15,0,0,1,4,.94,9.64,9.64,0,0,1,3,2.25,9.34,9.34,0,0,1,.63.78l.11,0a7,7,0,0,0-.6-.75A9.68,9.68,0,0,0,107.83,39.45Z"/><path class="cls-1" d="M153.42,36.26a.2.2,0,0,0-.06-.11A.27.27,0,0,0,153.42,36.26Z"/><path class="cls-1" d="M143.48,26.94l.06-.05h0Z"/><path class="cls-1" d="M171.6,22.14a.46.46,0,0,0,.07-.07h0Z"/><path class="cls-2" d="M195.19,19.86A8,8,0,0,1,202,19.4l8.27,4a11,11,0,0,0-3,.42,51.61,51.61,0,0,0,6.84,2.94,34.08,34.08,0,0,0-3.81-5.67C204.7,15.18,197,10.2,187.83,6.6a94.14,94.14,0,0,0-28.25-4.76c-29.94-.71-59.68,13.07-62,32.53a23.24,23.24,0,0,0-.06,5,17.11,17.11,0,0,1,6.23-.86h.14a9.94,9.94,0,0,1,4,.94,9.68,9.68,0,0,1,3,2.25,7,7,0,0,1,.6.75c9.73-1.86,21.9-8,31.16-14.88a9.65,9.65,0,0,1,4.9-7.34,11.35,11.35,0,0,1,9.7-.65l11.55,5.58.35-.41a20.16,20.16,0,0,1,2.28-2.45,7.69,7.69,0,0,1,2.35-2,9.32,9.32,0,0,1,8-.53l9.67,4.67a12.17,12.17,0,0,1,.88-1.43A6.54,6.54,0,0,1,195.19,19.86Z"/><path class="cls-1" d="M169,25.27l-.21-.11-.08.1Z"/><path class="cls-1" d="M208.12,26.15l7.19,4.24c-.11-.31-.22-.64-.34-1C214.14,26.54,210.91,25.66,208.12,26.15Z"/><path class="cls-1" d="M189,27.64l8.22,4.85c-.11-.33-.23-.68-.34-1.06C195.92,28.16,192.24,27.12,189,27.64Z"/><path class="cls-1" d="M166.09,29.14l10,5.91c-.14-.4-.28-.83-.42-1.3C174.5,29.78,170,28.51,166.09,29.14Z"/><path class="cls-1" d="M168.59,25.27h.12l.08-.1-11.55-5.58a11.35,11.35,0,0,0-9.7.65,9.65,9.65,0,0,0-4.9,7.34c0,.31-.06.57-.07.74a13.56,13.56,0,0,0,.91-1.37l0-.05h0a3.2,3.2,0,0,0,1.23-.46c-.52.93-1.81,1.37-1.69,2.7.38,0,.69-.53.88-.84.29.06.44-.36.78-.55s1.36-.51.7-.15c-.46.63-1.49,1.27-1.09,2.19.8-.56,1.1-1.65,2.21-1.78-.31.78-1.18,1.22-1.29,2.14.94.24,1-1.62,2.3-1.43-.33.72-1,1.24-1.22,2,.15.13.27.31.53.26.52-.48.59-1.25,1.33-1.6.55.62-.8,1.18-.67,2,.84,0,1.06-1.49,2-1.46-.19.91-1.73,1.68-1,2.72.58-.75.69-1.78,1.94-2.1-.15.74-1.24,1.53-1.36,2.53.41.21.65-.32.56-.68.84-.33.75-.89,1.81-1.14-.45.73-1.77,1.59-1.3,2.42.68-.8,1.08-1.78,2.38-2.19a7.91,7.91,0,0,0-1.5,2.75c.07.15.21.16.4.1.26-1.06,1-2.29,1.93-2.47-.33,1.12-1.5,1.71-1.4,3.09.65-.21.78-.73.86-1.3.62-.42,1-1,1.55-1.46,0,.21.1.33.27.32-1.08.9-.72,2.12-1.39,3.12-.06.08.11.63.07.6a6.19,6.19,0,0,1,.17,1.58C154.15,36,158.15,24.28,168.59,25.27Z"/><path class="cls-1" d="M191,24.46c.29,0,.46,0,.46,0l-9.67-4.67a9.32,9.32,0,0,0-8,.53,7.75,7.75,0,0,0-3.08,3.08l0,0a12.89,12.89,0,0,0,.87-1.22l.05-.07h0c.51,0,.71.13,1.13-.05-.48.85-1.66,1.26-1.55,2.47.35,0,.63-.48.81-.77.26.06.4-.33.72-.5s1.24-.47.63-.14c-.41.57-1.36,1.16-1,2,.73-.51,1-1.52,2-1.64-.28.72-1.08,1.13-1.18,2,.86.22,1-1.49,2.11-1.32-.3.67-.91,1.15-1.12,1.87.14.12.25.28.49.24.48-.44.54-1.15,1.22-1.47.51.57-.73,1.09-.62,1.85.78,0,1-1.37,1.85-1.35-.17.84-1.59,1.55-.87,2.5.53-.68.63-1.63,1.78-1.93-.14.69-1.14,1.41-1.25,2.33.37.19.6-.3.51-.62.78-.31.69-.82,1.67-1.05-.41.67-1.63,1.45-1.19,2.22.62-.73,1-1.63,2.18-2a7.19,7.19,0,0,0-1.37,2.52c0,.14.18.15.36.09.24-1,.92-2.1,1.77-2.27-.3,1-1.37,1.58-1.28,2.85.59-.19.72-.68.78-1.2.58-.38.9-.93,1.43-1.34,0,.19.1.3.24.29-.66.9-1.08,1.94-1.7,2.85-.05.08-.09.09-.13.06a1.19,1.19,0,0,1-.17.73l.08,0C181.85,28.05,185.3,24,191,24.46Z"/><path class="cls-1" d="M202,19.4a8,8,0,0,0-6.82.46,6.54,6.54,0,0,0-2.9,3.17,9,9,0,0,0-.32.9,2.68,2.68,0,0,1,.62.54.88.88,0,0,0,0-.14c.25-.31.39-.79.6-1.11a2.27,2.27,0,0,0,.9-.42c-.31.69-1.16,1.11-1.08,2l.16,0a1.58,1.58,0,0,0,.45-.62c.21,0,.29-.29.53-.46s1-.47.51-.16c-.26.44-.85.92-.74,1.48l.23.07c.43-.47.63-1.16,1.36-1.32-.17.57-.71.95-.79,1.56l.2.1c.49-.18.56-1.25,1.38-1.2-.18.53-.59.95-.73,1.5l.38.24c.35-.39.35-1,.87-1.26.45.42-.51.93-.36,1.54.62-.09.68-1.18,1.38-1.23-.07.62-.92,1.21-.67,1.84l.2.17c.33-.58.39-1.3,1.25-1.61-.07.56-.82,1.22-.84,2,.31.13.46-.28.36-.54.61-.3.5-.71,1.27-1-.28.58-1.2,1.3-.8,1.89.45-.64.68-1.39,1.61-1.79a5.85,5.85,0,0,0-.92,2.14c.05.11.16.11.29,0,.13-.8.59-1.76,1.27-2-.17.85-1,1.37-.83,2.39a1,1,0,0,0,.54-1c.43-.35.65-.81,1.05-1.18,0,.15.1.23.22.22a20.58,20.58,0,0,0-1,2c1.63-2.66,4.51-5.66,9-5.28h.38Z"/><path class="cls-1" d="M211.56,23.67a10.34,10.34,0,0,0-1.66-.26c-4.52-.38-7.4,2.62-9,5.28-.1.16-.19.32-.28.48h0s0,0,0,.05c-.31.54-.57,1.06-.78,1.51a9.41,9.41,0,0,0-2.43-3.62l-.2-.17a8.92,8.92,0,0,0-1.22-.89l-.38-.24c-.2-.11-.43-.2-.65-.3l-.2-.1-.57-.24-.23-.07-.75-.24-.16,0-.1,0a12.9,12.9,0,0,0-2-.31c-5.65-.46-9.1,3.59-10.92,6.83-.32.56-.59,1.1-.82,1.59a11.48,11.48,0,0,0-8.39-7.23,15.77,15.77,0,0,0-2.23-.38c-10.44-1-14.44,10.72-15,12.57a2.31,2.31,0,0,0-.07.25c-1,4.32.08,5.46,1.17,4.66s2.67-7.15,6.07-11a9.09,9.09,0,0,1,5.33-2.61c3.93-.63,8.41.64,9.58,4.61.14.47.28.9.42,1.3,1.67,4.79,3.37,5,3.83,3.75a2,2,0,0,0,.09-.44c.89-1.5,2.18-5.82,4.62-8.58A7.49,7.49,0,0,1,189,27.64c3.23-.52,6.91.52,7.88,3.79.11.38.23.73.34,1.06,1.37,3.94,2.77,4.15,3.14,3.08,0,0,0,0,0,0,.76-1,1.87-5,4.09-7.56a6.29,6.29,0,0,1,3.64-1.81c2.79-.49,6,.39,6.85,3.22.12.38.23.71.34,1,1.16,3.26,2.33,3.43,2.65,2.53A8.32,8.32,0,0,0,211.56,23.67Z"/><path class="cls-1" d="M119.49,57.38a3.09,3.09,0,0,0-.44-.46,4.29,4.29,0,0,1-.31.55,3.15,3.15,0,0,1-.41.48,2.5,2.5,0,0,1-.47.39,1.78,1.78,0,0,1-.53.23,1.38,1.38,0,0,1-1.1-.12,2.67,2.67,0,0,1-.87-.78,5.28,5.28,0,0,1-.65-1.14,10.94,10.94,0,0,1-.41-1.22,9,9,0,0,1-.21-1.28,9.4,9.4,0,0,1,0-1.3,9,9,0,0,1,.18-1.27,6.83,6.83,0,0,1,.36-1.16l.23-.47a2.83,2.83,0,0,1,.3-.44,1.8,1.8,0,0,1,.37-.36,1.23,1.23,0,0,1,.43-.21.83.83,0,0,1,.35,0,1.06,1.06,0,0,0,.35,0,1.27,1.27,0,0,0,.23-.08l.23-.07a.7.7,0,0,1,.55.1,2.8,2.8,0,0,1,.49.39,4.62,4.62,0,0,1,.84,1.26,9,9,0,0,1,.51,1.46,10,10,0,0,1,.26,1.53,7.91,7.91,0,0,1,0,1.54,5.4,5.4,0,0,1-.14.74c-.07.24-.15.48-.22.73a2.77,2.77,0,0,1,.5.62,2.52,2.52,0,0,1,.33.75c0,.06,0,.12,0,.2a2,2,0,0,1,0,.25.82.82,0,0,1,0,.23.17.17,0,0,1-.11.12.2.2,0,0,1-.17,0,.27.27,0,0,1-.1-.13,1.17,1.17,0,0,1,0-.2c0-.07,0-.14,0-.19A1.66,1.66,0,0,0,119.49,57.38Zm-1.39-1.06-.49-.24-.68-.33a7.57,7.57,0,0,1-.67-.42,3.71,3.71,0,0,1-.58-.54,2.57,2.57,0,0,1-.44-.71,5.57,5.57,0,0,0,.18,1.61,4.35,4.35,0,0,0,.27.76,3.14,3.14,0,0,0,.43.68,1.9,1.9,0,0,0,.57.46.93.93,0,0,0,.68.07,1.48,1.48,0,0,0,.35-.15,1.36,1.36,0,0,0,.35-.24,1.64,1.64,0,0,0,.29-.3,1.37,1.37,0,0,0,.2-.35A2,2,0,0,0,118.1,56.32Zm-2-2.35a4.58,4.58,0,0,0,.88.76c.33.22.67.42,1,.61a5.14,5.14,0,0,1,.94.63,1.31,1.31,0,0,0,.14-.29,3.29,3.29,0,0,0,.1-.37c0-.14.05-.27.06-.4s0-.24,0-.34a7.75,7.75,0,0,0,0-1.18,8.36,8.36,0,0,0-.21-1.18,6.21,6.21,0,0,0-.3-.89,5.06,5.06,0,0,0-.48-1,2.81,2.81,0,0,0-.65-.71.85.85,0,0,0-.78-.16,1.26,1.26,0,0,0-.62.39,2.31,2.31,0,0,0-.45.72,4.19,4.19,0,0,0-.27.87,3.15,3.15,0,0,0,0,.85,4.18,4.18,0,0,0,.09.58A2.49,2.49,0,0,0,116.05,54Z"/><path class="cls-1" d="M120.94,54.23a7.81,7.81,0,0,1-.07-1.17.84.84,0,0,1,.16-.51.73.73,0,0,1,.39-.28c.16,0,.26,0,.31.21a1.49,1.49,0,0,1,0,.21c0,.08,0,.15,0,.22v.72c0,.26,0,.53,0,.8s0,.54.08.8.08.5.13.71.06.18.11.3.12.17.22.14a.64.64,0,0,0,.34-.29,3.32,3.32,0,0,0,.31-.6,6.62,6.62,0,0,0,.27-.79c.08-.28.15-.56.22-.83l.16-.76c0-.23.07-.41.08-.55s0-.17,0-.27a1.25,1.25,0,0,1,.13-.52.39.39,0,0,1,.21-.14.33.33,0,0,1,.17,0s.09.06.11.15a.72.72,0,0,1,0,.25v.25c0,.19,0,.41,0,.66s0,.48,0,.73,0,.49.09.74.09.46.13.65,0,.13.08.23.07.19.11.28a1,1,0,0,0,.16.22.18.18,0,0,0,.19.06c.1,0,.21-.14.33-.35a4.84,4.84,0,0,0,.33-.72q.15-.39.27-.78c.08-.26.13-.44.16-.57s0-.15.08-.26a.25.25,0,0,1,.14-.19c.07,0,.11,0,.14,0a.48.48,0,0,1,.07.16.61.61,0,0,1,0,.14s0,.09,0,.14a5.22,5.22,0,0,1-.19.8,8.26,8.26,0,0,1-.36.94,4.9,4.9,0,0,1-.47.82,1.11,1.11,0,0,1-.57.43.43.43,0,0,1-.42-.1,1.4,1.4,0,0,1-.33-.42,2.77,2.77,0,0,1-.24-.55c-.06-.19-.1-.36-.14-.49l-.06-.23a2,2,0,0,1,0-.24c-.06.19-.13.43-.22.69a5.37,5.37,0,0,1-.33.78,3.36,3.36,0,0,1-.43.67,1,1,0,0,1-.53.37.53.53,0,0,1-.48-.08,1,1,0,0,1-.33-.39,2.37,2.37,0,0,1-.23-.54c-.06-.2-.12-.38-.16-.54A9.77,9.77,0,0,1,120.94,54.23Z"/><path class="cls-1" d="M127.29,54.27a3.84,3.84,0,0,0,.14.36,1.41,1.41,0,0,0,.19.3.25.25,0,0,0,.24.08.75.75,0,0,0,.4-.35,4.06,4.06,0,0,0,.34-.66,6.81,6.81,0,0,0,.26-.76c.07-.25.12-.45.16-.6l.07-.23a.17.17,0,0,1,.14-.15c.07,0,.12,0,.14.05a1.34,1.34,0,0,1,.07.18.84.84,0,0,1,0,.16,1.62,1.62,0,0,1,0,.2c0,.07,0,.13,0,.19s0,.11,0,.15c-.06.19-.14.42-.23.68a5.41,5.41,0,0,1-.34.78,4.05,4.05,0,0,1-.43.67,1,1,0,0,1-.52.36.63.63,0,0,1-.55-.1,1.65,1.65,0,0,1-.42-.48,3.36,3.36,0,0,1-.32-.66c-.08-.24-.14-.45-.19-.63a5.28,5.28,0,0,1-.13-.78,7.86,7.86,0,0,1,0-.79,2,2,0,0,1,.11-.62.59.59,0,0,1,.44-.36c.15,0,.26,0,.3.21a1.36,1.36,0,0,1,0,.3,2.28,2.28,0,0,1,0,.37c0,.13,0,.26,0,.38s0,.24,0,.34a6.36,6.36,0,0,0,.18,1.12C127.23,54.05,127.26,54.15,127.29,54.27Zm-.53-4.88a.67.67,0,0,1,.19.3.82.82,0,0,1,0,.49.45.45,0,0,1-.31.29.31.31,0,0,1-.29-.07.57.57,0,0,1-.18-.31.8.8,0,0,1,0-.48.4.4,0,0,1,.29-.29A.3.3,0,0,1,126.76,49.39Z"/><path class="cls-1" d="M129.46,55.34a.43.43,0,0,1-.11-.2,11.66,11.66,0,0,1-.32-1.92c-.06-.66-.11-1.31-.16-1.92,0-.2,0-.4-.05-.61l-.06-.6a.88.88,0,0,1,.12-.46.51.51,0,0,1,.34-.28.28.28,0,0,1,.27,0,.65.65,0,0,1,.14.3,2.5,2.5,0,0,1,.09.69c0,.25,0,.48,0,.69a4.7,4.7,0,0,0,0,.75c0,.25,0,.5.07.74.05-.15.11-.37.2-.65a8.51,8.51,0,0,1,.29-.85,6.94,6.94,0,0,1,.37-.77c.13-.22.26-.35.39-.38a.27.27,0,0,1,.28.07.85.85,0,0,1,.23.29,2.05,2.05,0,0,1,.16.38q.06.2.09.33c.08.29.14.58.2.87s.13.58.2.87c0,.07,0,.15.07.24a1.6,1.6,0,0,0,.1.23.51.51,0,0,0,.14.15.27.27,0,0,0,.22,0,.73.73,0,0,0,.37-.3,3.25,3.25,0,0,0,.29-.56,3.69,3.69,0,0,0,.21-.64,3.89,3.89,0,0,0,.12-.54c0-.06,0-.14,0-.22s.07-.14.13-.15a.14.14,0,0,1,.15,0,.29.29,0,0,1,.09.16.45.45,0,0,1,0,.13c0,.05,0,.1,0,.13a5.15,5.15,0,0,1-.16.73,5.64,5.64,0,0,1-.31.81,3.42,3.42,0,0,1-.45.69,1,1,0,0,1-.54.38.59.59,0,0,1-.46-.06,1.26,1.26,0,0,1-.34-.35,2.31,2.31,0,0,1-.22-.51q-.09-.28-.15-.51c-.06-.24-.12-.48-.16-.71s-.1-.47-.16-.71l0-.14c0-.07-.07-.09-.11-.08a.19.19,0,0,0-.1.1.78.78,0,0,0-.08.16,4.27,4.27,0,0,0-.32.81c-.08.3-.16.59-.22.86s-.14.65-.19,1-.09.67-.13,1a1.12,1.12,0,0,1-.1.31.34.34,0,0,1-.22.19A.18.18,0,0,1,129.46,55.34Z"/><path class="cls-1" d="M134.81,48.59c-.06.42-.13.82-.22,1.2a2.46,2.46,0,0,1-.07.29l-.09.28a.88.88,0,0,1-.05.15.83.83,0,0,0,0,.15.42.42,0,0,0,0,.14,1.3,1.3,0,0,0,0,.13q0,.18.18.57a7.87,7.87,0,0,0,.29.76,3.48,3.48,0,0,0,.37.64c.14.17.28.24.42.2a.8.8,0,0,0,.44-.34,3.8,3.8,0,0,0,.35-.63,4.93,4.93,0,0,0,.27-.73c.07-.25.13-.46.17-.63a1.23,1.23,0,0,1,.06-.22.21.21,0,0,1,.13-.13.11.11,0,0,1,.12,0,.19.19,0,0,1,.08.11.88.88,0,0,1,0,.28,2.56,2.56,0,0,1-.05.27q-.07.33-.21.78a6.54,6.54,0,0,1-.34.87,3.6,3.6,0,0,1-.47.74,1.1,1.1,0,0,1-.57.41.69.69,0,0,1-.52-.08,1.68,1.68,0,0,1-.47-.42,4,4,0,0,1-.42-.65c-.13-.25-.25-.5-.35-.75s-.19-.5-.26-.73-.13-.42-.17-.58c-.1-.4-.19-.81-.27-1.22a8.6,8.6,0,0,1-.17-1.24.58.58,0,0,1-.21.1q-.26.06-.33-.24a.33.33,0,0,1,.1-.36,1.35,1.35,0,0,1,.33-.18c0-.23,0-.55,0-1a10,10,0,0,1,.1-1.21,4.51,4.51,0,0,1,.28-1.07.86.86,0,0,1,.56-.57.3.3,0,0,1,.29.06.8.8,0,0,1,.22.26,1.84,1.84,0,0,1,.15.35,3.29,3.29,0,0,1,.09.32,7.88,7.88,0,0,1,.2,1,8.55,8.55,0,0,1,.07,1,2.52,2.52,0,0,0,.34-.15,2,2,0,0,1,.34-.13c.1,0,.16,0,.19.13a.25.25,0,0,1,0,.15.59.59,0,0,1-.08.11.67.67,0,0,1-.14.11l-.22.15-.24.15-.18.1A6.44,6.44,0,0,1,134.81,48.59Zm-.95.37c.07.34.13.67.2,1,0-.13.09-.3.14-.51a6.06,6.06,0,0,0,.12-.64c0-.22.06-.44.08-.65s0-.4,0-.55a2.32,2.32,0,0,1-.36.16,1.54,1.54,0,0,0-.34.17A7,7,0,0,0,133.86,49Zm-.14-4.15a5.37,5.37,0,0,0-.12.87c0,.33,0,.64,0,1a6.4,6.4,0,0,0,0,.64l.41-.16a1.92,1.92,0,0,0,.41-.19c0-.33,0-.7-.06-1.1a7.67,7.67,0,0,0-.19-1.09.92.92,0,0,0,0-.09.56.56,0,0,0,0-.12.21.21,0,0,0-.06-.1.08.08,0,0,0-.07,0C133.87,44.41,133.78,44.56,133.72,44.81Z"/><path class="cls-1" d="M141.61,50c0,.12-.06.21-.08.28a6.72,6.72,0,0,1-.21.64,7.17,7.17,0,0,1-.3.69,2.81,2.81,0,0,1-.41.59.93.93,0,0,1-.49.32.52.52,0,0,1-.48-.1,1.74,1.74,0,0,1-.37-.46,4,4,0,0,1-.26-.6,5.32,5.32,0,0,1-.15-.55l-.15.53a4.7,4.7,0,0,1-.22.63,3.57,3.57,0,0,1-.3.55.63.63,0,0,1-.37.29.47.47,0,0,1-.35-.05.94.94,0,0,1-.27-.29,2.42,2.42,0,0,1-.21-.39q-.08-.22-.12-.39a3.73,3.73,0,0,1-.08-1.15,5.8,5.8,0,0,1,.22-1.3,4.29,4.29,0,0,1,.51-1.1,1.38,1.38,0,0,1,.79-.6.31.31,0,0,1,.26.07.37.37,0,0,1,.18.23.11.11,0,0,1,0,.1l-.06.07c-.15.18-.29.36-.43.55a3.7,3.7,0,0,0-.35.62,3.94,3.94,0,0,0-.36,1.27,3.56,3.56,0,0,0,.09,1.37l.07.18c0,.07.08.1.14.08s.15-.09.22-.23a3.1,3.1,0,0,0,.19-.5c.06-.19.12-.41.17-.64s.09-.46.13-.68.07-.42.09-.61,0-.32.05-.42a1.28,1.28,0,0,1,.07-.28.29.29,0,0,1,.19-.18h.17c.06,0,.1.06.12.14a1.42,1.42,0,0,1,0,.38c0,.16,0,.29,0,.38a6.09,6.09,0,0,0,0,.72c0,.25.09.47.14.69,0,.06,0,.16.08.29s.09.26.14.39a1.79,1.79,0,0,0,.19.34.22.22,0,0,0,.23.1.67.67,0,0,0,.37-.3,3.53,3.53,0,0,0,.33-.58,5.18,5.18,0,0,0,.26-.65c.08-.22.13-.4.17-.53a1.12,1.12,0,0,1,.06-.23.19.19,0,0,1,.15-.15c.11,0,.18,0,.22.19A.46.46,0,0,1,141.61,50Z"/><path class="cls-1" d="M52.84,67.68a1.22,1.22,0,0,1-.35-.2,2,2,0,0,1-.29-.29.88.88,0,0,1-.17-.31.67.67,0,0,1,0-.49.89.89,0,0,1,.3-.31,3.18,3.18,0,0,1,.4-.23,1.43,1.43,0,0,0,.77-1.6A16.78,16.78,0,0,0,53.42,62c-.1-.85-.21-1.77-.35-2.75s-.23-2-.29-2.94a16.68,16.68,0,0,1,0-2.75,5.74,5.74,0,0,1,.65-2.22,4.47,4.47,0,0,1,.64-.81,1.84,1.84,0,0,1,.86-.5,1.49,1.49,0,0,1,1.07.09,2.83,2.83,0,0,1,.87.65,3.74,3.74,0,0,1,.64,1,5.65,5.65,0,0,1,.37,1,.67.67,0,0,1,0,.37c0,.09-.13.16-.29.2s-.35-.06-.47-.32l-.41-.87a3.51,3.51,0,0,0-.52-.84.78.78,0,0,0-.86-.22c-.33.08-.56.43-.68,1a11.48,11.48,0,0,0-.16,2.28c0,.91.06,1.9.16,3s.2,2.09.3,3.09.19,1.89.26,2.68a7.29,7.29,0,0,1,0,1.73,4.71,4.71,0,0,1,1.23-.15l1.23,0,1.23,0a4.58,4.58,0,0,0,1.22-.15,2.31,2.31,0,0,0,1.28-.78,6.26,6.26,0,0,0,.76-1.21c.2-.42.35-.79.48-1.13s.25-.53.4-.57a.45.45,0,0,1,.25,0,.26.26,0,0,1,.17.17.67.67,0,0,1,0,.28,2.51,2.51,0,0,1,0,.27,11.45,11.45,0,0,1-.39,1.17,6.13,6.13,0,0,1-.61,1.16,4.33,4.33,0,0,1-.84,1,2.64,2.64,0,0,1-1.09.56,8,8,0,0,1-1.19.21l-1.19.08c-.4,0-.8,0-1.2.09a7.88,7.88,0,0,0-1.18.21,3.73,3.73,0,0,0-1.27.57,13.35,13.35,0,0,0-1.11.83.74.74,0,0,1-.27.15A.49.49,0,0,1,52.84,67.68Z"/><path class="cls-1" d="M71.94,59.16l-.17.48c-.12.3-.28.66-.46,1.07a11.1,11.1,0,0,1-.64,1.17,5.83,5.83,0,0,1-.82,1,2.28,2.28,0,0,1-1,.57,1,1,0,0,1-.9-.15,2.4,2.4,0,0,1-.68-.73,4.19,4.19,0,0,1-.46-1,6,6,0,0,1-.25-.89c-.09.23-.2.53-.33.89a9.81,9.81,0,0,1-.47,1.06,7.12,7.12,0,0,1-.61.93,1.49,1.49,0,0,1-.75.51.88.88,0,0,1-.66-.07,1.71,1.71,0,0,1-.52-.45,2.82,2.82,0,0,1-.35-.64,4.9,4.9,0,0,1-.22-.64,5.29,5.29,0,0,1-.07-1.9,8.71,8.71,0,0,1,.53-2.17,6.79,6.79,0,0,1,1.08-1.88,2.92,2.92,0,0,1,1.55-1,.67.67,0,0,1,.5.09.59.59,0,0,1,.33.37.18.18,0,0,1,0,.16.49.49,0,0,1-.12.13c-.31.31-.6.62-.87.94a7.35,7.35,0,0,0-.73,1.06,6.81,6.81,0,0,0-.8,2.13,5.18,5.18,0,0,0,.09,2.28,1.83,1.83,0,0,0,.11.29.22.22,0,0,0,.27.13.81.81,0,0,0,.44-.4,5.49,5.49,0,0,0,.41-.84,11.38,11.38,0,0,0,.36-1.08c.11-.4.21-.78.3-1.15s.17-.71.23-1,.1-.54.14-.69a2.9,2.9,0,0,1,.14-.48.56.56,0,0,1,.39-.3.74.74,0,0,1,.33,0,.28.28,0,0,1,.22.22,1.82,1.82,0,0,1,0,.63c0,.26-.06.48-.08.64a6,6,0,0,0,.06,1.19,9.26,9.26,0,0,0,.21,1.14c0,.1.07.27.14.48a5.47,5.47,0,0,0,.23.64,2.1,2.1,0,0,0,.35.54.4.4,0,0,0,.43.16,1.5,1.5,0,0,0,.73-.53,7.48,7.48,0,0,0,.68-1,11.36,11.36,0,0,0,.56-1.1c.16-.37.28-.67.36-.89l.13-.39a.4.4,0,0,1,.3-.25q.33-.09.42.3A.72.72,0,0,1,71.94,59.16Z"/><path class="cls-1" d="M73.28,54.79a11.85,11.85,0,0,0,.86,1q.48.49.93,1a8.73,8.73,0,0,1,.82,1.1,4.26,4.26,0,0,1,.53,1.22,3.33,3.33,0,0,1,.09.84,2.66,2.66,0,0,1-.16.84,1.55,1.55,0,0,0,.77-.53,10,10,0,0,0,.77-1,12.16,12.16,0,0,0,.65-1.16,8.89,8.89,0,0,0,.4-.91l.15-.39a.44.44,0,0,1,.3-.28.25.25,0,0,1,.27.06.69.69,0,0,1,.14.27.48.48,0,0,1,0,.23,1.05,1.05,0,0,0-.06.24,13.22,13.22,0,0,1-.79,1.9,6.78,6.78,0,0,1-1.06,1.54,5.92,5.92,0,0,1-1.45,1.16,7.85,7.85,0,0,1-1.93.76,7,7,0,0,1-1.3.2,2.21,2.21,0,0,1-1.26-.26.72.72,0,0,1-.21-.16.58.58,0,0,1-.13-.23c0-.2,0-.33.25-.39a.34.34,0,0,1,.2,0l.2,0A2.15,2.15,0,0,0,73,62a3.11,3.11,0,0,0,.77-.11,1.53,1.53,0,0,0,1.09-.8,2,2,0,0,0,.1-1.38,4.15,4.15,0,0,0-.39-1,7.06,7.06,0,0,0-.6-1,10.55,10.55,0,0,0-.71-.91,8.35,8.35,0,0,0-.72-.73c0,.29-.07.62-.12,1s-.14.73-.23,1.1a11.14,11.14,0,0,1-.32,1.07,4.74,4.74,0,0,1-.41.9l-.17.28a.45.45,0,0,1-.27.18.26.26,0,0,1-.36-.21.76.76,0,0,1,0-.3c0-.09.07-.19.11-.29a12.16,12.16,0,0,0,1.08-4.39,3.26,3.26,0,0,1-.45-1,3,3,0,0,1-.08-.73,3.86,3.86,0,0,1,.09-.84,2.36,2.36,0,0,1,.3-.75,1,1,0,0,1,.58-.43.47.47,0,0,1,.35,0,.66.66,0,0,1,.27.23,1.35,1.35,0,0,1,.19.33,2.19,2.19,0,0,1,.12.33,3.71,3.71,0,0,1,.12,1.06C73.34,54.1,73.32,54.45,73.28,54.79Z"/><path class="cls-1" d="M87.2,77.33A26.71,26.71,0,0,0,89,83.56c1.35,3.64,3.95,4.72,6.25,5.77a18.12,18.12,0,0,0,7,1.52,19.79,19.79,0,0,0,9-1.7,21.08,21.08,0,0,0,7.31-5.45,13.36,13.36,0,0,0,1.22-1.61c.35-.57.73-1.13,1.14-1.69.25-.32.54-.67.87-1a1.37,1.37,0,0,1,1.14-.54,1,1,0,0,1,.81.39,1.25,1.25,0,0,1,.29.88,2.74,2.74,0,0,1-.37,1.18,8.48,8.48,0,0,1-.65,1.08,25.42,25.42,0,0,1-4.31,5.17,29,29,0,0,1-5.53,4,26.57,26.57,0,0,1-6.3,2.57,22.59,22.59,0,0,1-6.69.75c-3.26-.13-8.44-1.15-10.87-2.57a20.6,20.6,0,0,1-6-5.94,23.24,23.24,0,0,1-3.46-7.6,30,30,0,0,1-.92-8.72,37.79,37.79,0,0,1,.95-6.95,42.9,42.9,0,0,1,6-14,28.74,28.74,0,0,1,4.87-5.65,20.5,20.5,0,0,1,6.06-3.76,17,17,0,0,1,7.14-1.2,9.94,9.94,0,0,1,4,.94,9.66,9.66,0,0,1,3,2.24A9.44,9.44,0,0,1,112.77,45a11.32,11.32,0,0,1,.57,4.06c0,.63-.11,1.53-.25,2.7a36,36,0,0,1-.61,3.57,21,21,0,0,1-1,3.35,4.39,4.39,0,0,1-1.41,2.08,3,3,0,0,1-1.75.43,2.77,2.77,0,0,1-1.21-.3,1,1,0,0,1-.54-1.06,3.66,3.66,0,0,1,.22-1,13.81,13.81,0,0,1,.52-1.28c.21-.44.4-.88.59-1.31s.33-.78.44-1.06a23.91,23.91,0,0,0,.8-3,20.66,20.66,0,0,0,.37-3.12,6.93,6.93,0,0,0-1.23-4.41,4.83,4.83,0,0,0-4-2,8.52,8.52,0,0,0-4.88,1.33,16.17,16.17,0,0,0-4.18,3.84,31.56,31.56,0,0,0-3.42,5.45,47.46,47.46,0,0,0-2.58,6.17,48.8,48.8,0,0,0-1.64,6,31.42,31.42,0,0,0-.66,5A44.86,44.86,0,0,0,87.2,77.33Z"/><path class="cls-1" d="M236,45.8a2,2,0,0,0-.39-.75.72.72,0,0,0-.78-.16,1.25,1.25,0,0,0-.82.81l-.42,1.13a21.62,21.62,0,0,1-1.06,2.58,33.3,33.3,0,0,1-1.77,3.31,25.14,25.14,0,0,1-2.12,3,4.13,4.13,0,0,1-2.15,1.54,6.9,6.9,0,0,0,.42-2.38,8.84,8.84,0,0,0-.32-2.36A12,12,0,0,0,225,49.07a25.69,25.69,0,0,0-2.37-3c-.88-1-1.77-1.9-2.68-2.83a34.71,34.71,0,0,1-2.51-2.86,26.61,26.61,0,0,0,.15-3,11.28,11.28,0,0,0-.39-3,6.08,6.08,0,0,0-.35-.94,5.29,5.29,0,0,0-.56-.91,2.09,2.09,0,0,0-.79-.64,1.35,1.35,0,0,0-1-.07A2.68,2.68,0,0,0,212.93,33a6.2,6.2,0,0,0-.82,2.12,11.09,11.09,0,0,0-.2,2.38,8.53,8.53,0,0,0,.27,2.07,9.51,9.51,0,0,0,1.34,2.87,35.2,35.2,0,0,1-2.17,10.88q-.49,1.15-1.11,2.28a16.4,16.4,0,0,1-1.48,2.24,3.19,3.19,0,0,1-1.62,1.22.93.93,0,0,1-1-.33,4.85,4.85,0,0,1-.8-1.19,10.68,10.68,0,0,1-.56-1.44c-.15-.47-.26-.84-.33-1.08a23.49,23.49,0,0,1-.53-2.56,15.32,15.32,0,0,1-.18-2.66c0-.37.08-.85.14-1.46a4.06,4.06,0,0,0,0-1.4.58.58,0,0,0-.5-.49,2,2,0,0,0-.74.05,1.25,1.25,0,0,0-.86.71,5.12,5.12,0,0,0-.31,1.08c-.07.35-.16.87-.27,1.57s-.27,1.46-.46,2.3-.41,1.7-.63,2.59a23.77,23.77,0,0,1-.76,2.45,13.29,13.29,0,0,1-.89,1.91,2,2,0,0,1-1,.93.49.49,0,0,1-.61-.28,3,3,0,0,1-.28-.65,11.87,11.87,0,0,1-.29-5.12A15,15,0,0,1,198,49.17a16.36,16.36,0,0,1,1.6-2.42q.9-1.09,1.92-2.16a1.75,1.75,0,0,0,.26-.29.44.44,0,0,0,0-.38,1.39,1.39,0,0,0-.76-.82,1.5,1.5,0,0,0-1.12-.17,6.52,6.52,0,0,0-3.46,2.42,15.08,15.08,0,0,0-2.33,4.28A20.13,20.13,0,0,0,193,54.55a14.09,14.09,0,0,0-.05,2.32c-.16.48-.41,1.1-.74,1.87s-.81,1.75-1.28,2.63a16.94,16.94,0,0,1-1.52,2.37A3.17,3.17,0,0,1,187.83,65a.69.69,0,0,1-.91-.4,5.62,5.62,0,0,1-.41-1,19.77,19.77,0,0,1-.62-3.3c-.11-1.11-.19-2.23-.24-3.35a7.7,7.7,0,0,0-.27-1.83,4.13,4.13,0,0,0-1.29-2.21,6.55,6.55,0,0,0-1.93-1.08q-1-.36-2.1-.63a4.49,4.49,0,0,1-1.83-.94,18.6,18.6,0,0,0-.46-2.22c-.07-.24-.17-.55-.31-.94a5.53,5.53,0,0,0-.54-1.09,4.6,4.6,0,0,0-.73-.87.9.9,0,0,0-.89-.22,1.53,1.53,0,0,0-1,.91,5.58,5.58,0,0,0-.45,1.64,8.54,8.54,0,0,0,0,1.82,8.16,8.16,0,0,0,.23,1.45,7.78,7.78,0,0,0,.83,1.94,5.27,5.27,0,0,0,1.4,1.54A11.5,11.5,0,0,1,176,58.9c-.35,1.31-.74,2.61-1.18,3.9,0,.1-.08.21-.13.31a13.35,13.35,0,0,1-1.43,2.57,11.24,11.24,0,0,1-2,2.11,6.9,6.9,0,0,1-2.57,1.32,2.78,2.78,0,0,1-2.51-.27,4,4,0,0,1-1.35-2.24,9.18,9.18,0,0,1-.3-2,8.1,8.1,0,0,0,1.89-2,17,17,0,0,0,1.65-2.94,15,15,0,0,0,1-3.17,5.79,5.79,0,0,0,0-2.72A3.07,3.07,0,0,0,168,52a2.43,2.43,0,0,0-2.1-.25,5,5,0,0,0-2.94,2.32,13.32,13.32,0,0,0-1.66,4.15,19.94,19.94,0,0,0-.52,4.66,18.29,18.29,0,0,0,.12,2.19c-.15.46-.32,1-.53,1.56a22.37,22.37,0,0,1-1.22,2.8,14.25,14.25,0,0,1-1.62,2.47,3.81,3.81,0,0,1-1.93,1.39,1.74,1.74,0,0,1-1.78-.68,9.85,9.85,0,0,1-1.56-2.3,22.29,22.29,0,0,1-1.2-2.77c-.34-.93-.58-1.62-.7-2.08l-.14-.5a1.08,1.08,0,0,1,0-.52,1.72,1.72,0,0,1,.16-.56l.25-.58.39-1.06a7.66,7.66,0,0,0,.33-1.09c.42-1.45.78-3,1.09-4.57a23.41,23.41,0,0,0,.42-4.64c.18-.08.43-.21.77-.4l1.05-.61c.37-.22.7-.42,1-.62a5.37,5.37,0,0,0,.62-.44,3.4,3.4,0,0,0,.33-.46.7.7,0,0,0,0-.56.57.57,0,0,0-.8-.42,8.75,8.75,0,0,0-1.5.57c-.5.23-1,.45-1.48.65a28,28,0,0,0-.23-3.75,28.76,28.76,0,0,0-.74-3.65c-.1-.33-.22-.73-.38-1.19a6,6,0,0,0-.62-1.27,3.1,3.1,0,0,0-.92-.92,1.52,1.52,0,0,0-1.25-.14A4,4,0,0,0,146.18,41a16,16,0,0,0-1.34,4.1,34.21,34.21,0,0,0-.55,4.55c-.07,1.5-.11,2.69-.13,3.58a6,6,0,0,0-1.43.73,1.17,1.17,0,0,0-.47,1.4,1,1,0,0,0,1.39.79,3.11,3.11,0,0,0,.91-.4,35.85,35.85,0,0,0,.61,4.59c.31,1.53.67,3,1.08,4.51.16.58.39,1.29.68,2.13l.27.7c-.11.45-.25,1-.43,1.52a17.45,17.45,0,0,1-1,2.45,13,13,0,0,1-1.32,2.17,3.21,3.21,0,0,1-1.65,1.21,1.21,1.21,0,0,1-.91,0,1.66,1.66,0,0,1-.62-.56,3.64,3.64,0,0,1-.41-.84c-.1-.31-.19-.61-.26-.88-.3-1.06-.56-2.12-.79-3.2s-.49-2.14-.79-3.2c-.09-.33-.21-.74-.38-1.21a7,7,0,0,0-.65-1.39,3.59,3.59,0,0,0-.95-1,1.37,1.37,0,0,0-1.23-.2A3.5,3.5,0,0,0,134.08,64,22,22,0,0,0,132.43,67c-.51,1.09-1,2.17-1.37,3.26s-.7,1.92-.9,2.49c-.12-.9-.21-1.82-.27-2.75a16.4,16.4,0,0,1,.06-2.8c.07-.8.11-1.67.13-2.6a8.87,8.87,0,0,0-.3-2.58,2,2,0,0,0-.6-1,1.28,1.28,0,0,0-1.18-.12A2.6,2.6,0,0,0,126.53,62a2.91,2.91,0,0,0-.56,1.77c0,.74.1,1.48.18,2.24,0,.43.08.85.11,1.27h-.07a1.17,1.17,0,0,0-.81.64c-.15.32-.28.62-.39.92-.21.51-.54,1.2-1,2.08a26.17,26.17,0,0,1-1.55,2.6,18.39,18.39,0,0,1-1.86,2.34,4.36,4.36,0,0,1-2,1.33,1.17,1.17,0,0,1-1.16-.29,4.49,4.49,0,0,1-.88-1.18,9.08,9.08,0,0,1-.59-1.42c-.16-.48-.26-.84-.33-1.08a18.26,18.26,0,0,1-.51-2.57,12.84,12.84,0,0,1-.07-2.69c0-.37.13-.87.23-1.48a3.57,3.57,0,0,0,0-1.42.6.6,0,0,0-.57-.48,2.9,2.9,0,0,0-.88.1,1.58,1.58,0,0,0-1,.75,4.76,4.76,0,0,0-.42,1.12c-.1.35-.23.89-.41,1.6s-.39,1.5-.65,2.35-.56,1.74-.87,2.66a23,23,0,0,1-1,2.53,12.66,12.66,0,0,1-1.15,2,2.33,2.33,0,0,1-1.18,1,.56.56,0,0,1-.71-.25,2.91,2.91,0,0,1-.29-.65,10.07,10.07,0,0,1-.09-5.17,15.31,15.31,0,0,1,2.23-5,17.73,17.73,0,0,1,2-2.53c.74-.77,1.53-1.54,2.37-2.29a2.36,2.36,0,0,0,.32-.31.39.39,0,0,0,.07-.38,1.31,1.31,0,0,0-.86-.79,2.06,2.06,0,0,0-1.32-.13,8.81,8.81,0,0,0-4.19,2.63,17.3,17.3,0,0,0-3,4.45,18.94,18.94,0,0,0-1.54,5,10.41,10.41,0,0,0,.08,4.32,9.93,9.93,0,0,0,.54,1.41,5.77,5.77,0,0,0,.91,1.41,3.65,3.65,0,0,0,1.34,1,2.7,2.7,0,0,0,1.76,0,4.31,4.31,0,0,0,2-1.29,14.1,14.1,0,0,0,1.69-2.22,20.64,20.64,0,0,0,1.32-2.49c.37-.84.68-1.53.91-2.08a15.13,15.13,0,0,0,.61,2,9,9,0,0,0,1.18,2.16,5.66,5.66,0,0,0,1.78,1.57,3.06,3.06,0,0,0,2.38.19,6.9,6.9,0,0,0,2.65-1.46,14.79,14.79,0,0,0,2.24-2.43,21.68,21.68,0,0,0,1.77-2.78c.44-.83.82-1.56,1.14-2.2.11,1.63.23,3.31.35,5A37,37,0,0,0,128,82.5a1.39,1.39,0,0,0,.44.73.84.84,0,0,0,.82.15,1.68,1.68,0,0,0,1-.77,3.79,3.79,0,0,0,.47-1.2c.2-1.29.42-2.56.66-3.82a38.4,38.4,0,0,1,.91-3.74c.31-1,.65-2.12,1.06-3.27a16.67,16.67,0,0,1,1.42-3.13c.09-.16.22-.35.38-.59a1,1,0,0,1,.47-.43c.18,0,.32,0,.44.27a4.75,4.75,0,0,1,.22.53c.24.88.45,1.75.62,2.61s.38,1.73.62,2.61q.24.87.6,1.89a6.82,6.82,0,0,0,.95,1.84,4.06,4.06,0,0,0,1.41,1.24,2.67,2.67,0,0,0,2,.1A5.16,5.16,0,0,0,144.9,76a15,15,0,0,0,2-2.7,18.52,18.52,0,0,0,1.41-3c.35.72.72,1.44,1.15,2.14a13.5,13.5,0,0,0,1.74,2.32,6.18,6.18,0,0,0,2,1.47,3.31,3.31,0,0,0,2.26.16A5.32,5.32,0,0,0,158,74.69a15.56,15.56,0,0,0,2.08-2.89,23,23,0,0,0,1.57-3.34c0-.07.05-.13.07-.19.12.27.25.54.39.79a5.72,5.72,0,0,0,1.43,1.71,4.73,4.73,0,0,0,1.94.93,4.94,4.94,0,0,0,2.45-.12A10.8,10.8,0,0,0,171.33,70a13.75,13.75,0,0,0,2.76-2.57,16.43,16.43,0,0,0,2-3.13c.06-.09.12-.18.17-.27a11,11,0,0,0,.91-2.16,23,23,0,0,0,.61-2.41c.16-.83.28-1.64.37-2.45s.16-1.57.22-2.3a5.8,5.8,0,0,1,2.11.49,2.28,2.28,0,0,1,1.34,1.58c.24.85.43,1.69.58,2.53s.34,1.68.57,2.52q.22.83.6,1.89a8.4,8.4,0,0,0,.95,2A4.55,4.55,0,0,0,186,67a2.38,2.38,0,0,0,2,.2,4.69,4.69,0,0,0,2.19-1.54,17.13,17.13,0,0,0,2-2.8,28.84,28.84,0,0,0,1.52-3l.14.33a6.3,6.3,0,0,0,.83,1.43,3.38,3.38,0,0,0,1.18,1,2,2,0,0,0,1.5.13,3.26,3.26,0,0,0,1.65-1.19,12.68,12.68,0,0,0,1.34-2.13,19.19,19.19,0,0,0,1-2.4c.28-.81.51-1.49.68-2a16.82,16.82,0,0,0,.61,2,9.74,9.74,0,0,0,1.09,2.19,5.93,5.93,0,0,0,1.57,1.62,2.36,2.36,0,0,0,2,.29,5,5,0,0,0,2.2-1.34,12.55,12.55,0,0,0,1.8-2.3l.21-.37a1.23,1.23,0,0,0,.72-.53c.19-.27.35-.53.49-.77a13.42,13.42,0,0,0,1.09-2.57c.32-1,.6-2,.84-3a31.78,31.78,0,0,0,.58-3.13c.14-1,.24-2,.29-2.8a22.81,22.81,0,0,1,2.06,2,31.35,31.35,0,0,1,2.07,2.51,27.66,27.66,0,0,1,1.76,2.7,11.85,11.85,0,0,1,1.13,2.68,5.56,5.56,0,0,1-.18,3.88,4.4,4.4,0,0,1-3.05,2.34,9.15,9.15,0,0,1-2.17.35,6.26,6.26,0,0,1-2.16-.32l-.56-.15a1.08,1.08,0,0,0-.58,0,.8.8,0,0,0-.67,1.1,1.22,1.22,0,0,0,.36.63,3.33,3.33,0,0,0,.61.45,6.19,6.19,0,0,0,3.58.66,21.53,21.53,0,0,0,9-2.9,16.89,16.89,0,0,0,4-3.34,19.73,19.73,0,0,0,2.91-4.41,36.63,36.63,0,0,0,2.12-5.42,3.92,3.92,0,0,1,.14-.68A1.14,1.14,0,0,0,236,45.8ZM147.39,46a18.43,18.43,0,0,1,.6-3.29c.29-1,.69-1.53,1.2-1.67a.31.31,0,0,1,.33.1,2,2,0,0,1,.24.37,2.35,2.35,0,0,1,.17.44c0,.16.07.26.09.32a23.85,23.85,0,0,1,.73,4.05,31.06,31.06,0,0,1,.16,4.1,11.43,11.43,0,0,1-1.78.81c-.62.22-1.23.46-1.8.72a20.54,20.54,0,0,1-.11-2.41A33.24,33.24,0,0,1,147.39,46ZM149,62c-.24-1.24-.49-2.48-.76-3.72a22.87,22.87,0,0,1-.47-3.76,8.43,8.43,0,0,1,1.51-.73,12,12,0,0,0,1.56-.7,17,17,0,0,1-.16,2.07c-.1.8-.25,1.61-.42,2.46s-.37,1.66-.6,2.44A17.27,17.27,0,0,1,149,62Zm15.25-1.18a26,26,0,0,1,.28-2.87,16,16,0,0,1,.64-2.64c.28-.77.64-1.23,1.09-1.35a.62.62,0,0,1,.71.17,1.63,1.63,0,0,1,.35.66,4.32,4.32,0,0,1,0,2,13.32,13.32,0,0,1-.7,2.26,12,12,0,0,1-1.12,2.13,13.84,13.84,0,0,1-1.25,1.65A15.23,15.23,0,0,1,164.21,60.8Zm51.2-23s-1,.46-1.06-.77a5.77,5.77,0,0,1,.3-2.21C215.87,33.15,215.41,37.81,215.41,37.81Z"/><path class="cls-1" d="M118.23,106.73c-.59-1.36-.89-2-1.47-3.42l.74-.55,1.73,3.22Zm-2-5.37a.63.63,0,0,1,.92.13.8.8,0,0,1-.17,1.13.66.66,0,0,1-1-.13.78.78,0,0,1,.19-1.12Z"/><path class="cls-1" d="M118.3,99.32l-1.21.87c-.17-.37-.25-.56-.42-.94,1.37-1,2.06-1.48,3.45-2.43.16.38.24.57.41.94l-1.24.86c.72,1.64,1.09,2.46,1.83,4.09l-1,.68C119.41,101.77,119,101,118.3,99.32Z"/><path class="cls-1" d="M123.88,96.09c.4,1,.61,1.5,1,2.5.19.47.37.86.51,1.19l-.86.56c-.11-.22-.17-.34-.29-.56h0a1.72,1.72,0,0,1-.72,1.37,1,1,0,0,1-1.47-.33,3.42,3.42,0,0,1-.34-.64c-.36-.82-.54-1.22-.89-2.05l1-.67c.33.79.49,1.18.83,2a3.22,3.22,0,0,0,.24.46.39.39,0,0,0,.59.15c.33-.22.41-.84.11-1.58l-.72-1.71Z"/><path class="cls-1" d="M130.17,96.51a3.56,3.56,0,0,1-1.1,1,1.54,1.54,0,0,1-2.34-.49,2.37,2.37,0,0,1,.72-3.31,1.23,1.23,0,0,1,1.81.28c.51.86-1.45,2.13-1.54,2.48a.76.76,0,0,0,.32.28,1,1,0,0,0,.8-.15,2.75,2.75,0,0,0,.83-.79Zm-1.87-1.92c-.1-.16-.31-.19-.54,0-.48.29-.43,1.17-.39,1.18.2.07,1.12-.81.94-1.12Z"/><path class="cls-1" d="M130.18,92.22l1,1.39.63.87,0,0c0-.29-.09-.61-.14-1.14l-.15-1.89,1.16-.66c0,1.81,0,2.71,0,4.51l-1,.6-2.57-3Z"/><path class="cls-1" d="M137.19,92.55a3.46,3.46,0,0,1-1.14,1,1.55,1.55,0,0,1-2.31-.63,2.36,2.36,0,0,1,.89-3.26,1.22,1.22,0,0,1,1.79.39c.47.88-1.56,2-1.66,2.38a.69.69,0,0,0,.3.29.94.94,0,0,0,.81-.1,2.53,2.53,0,0,0,.86-.74Zm-1.75-2c-.09-.17-.3-.22-.54-.09-.49.26-.49,1.15-.45,1.16.19.08,1.16-.75,1-1.07Z"/><path class="cls-1" d="M138,92.41c-.31-1-.47-1.55-.77-2.58-.14-.49-.28-.9-.4-1.24l.94-.48.23.62h0a1.71,1.71,0,0,1,.93-1.29,1,1,0,0,1,1.41.51,4.46,4.46,0,0,1,.23.62c.24.89.36,1.34.61,2.24l-1,.51c-.25-.85-.37-1.28-.6-2.13a2,2,0,0,0-.16-.4c-.12-.26-.3-.39-.57-.25s-.53.8-.29,1.65l.5,1.69Z"/><path class="cls-1" d="M141.93,84.9c.1.42.15.63.26,1l.79-.36.2.88-.78.36c.13.52.19.78.32,1.31a2.88,2.88,0,0,0,.15.47.3.3,0,0,0,.45.15l.28-.14c.1.34.15.52.26.87a2.07,2.07,0,0,1-.58.37c-.64.3-1.08.12-1.3-.32a3.47,3.47,0,0,1-.23-.69c-.16-.61-.24-.92-.39-1.53l-.46.22c-.1-.35-.14-.52-.24-.87l.47-.22c-.07-.3-.1-.44-.18-.73Z"/><path class="cls-1" d="M146.19,88.54a1.57,1.57,0,0,1-2.19-.79,2.37,2.37,0,0,1,1.17-3.24,1.58,1.58,0,0,1,2.21.81,2.39,2.39,0,0,1-1.18,3.22Zm-.2-.88c.57-.25.54-1.24.27-1.85a.65.65,0,0,0-.88-.43c-.62.27-.53,1.29-.28,1.85s.51.6.88.44Z"/><path class="cls-1" d="M148.38,88.53a15.33,15.33,0,0,0,0-2.45l1.14-.56a13.15,13.15,0,0,1-.36,2.62Z"/><path class="cls-1" d="M151.83,86.09c-.2-1.06-.3-1.59-.49-2.65-.09-.5-.19-.92-.27-1.27l1-.38c.06.26.1.39.16.64h0a1.69,1.69,0,0,1,1.06-1.18,1,1,0,0,1,1.34.65,4.28,4.28,0,0,1,.16.64c.14.92.22,1.38.37,2.29l-1.09.4c-.15-.87-.22-1.3-.37-2.18a2.38,2.38,0,0,0-.11-.42c-.1-.26-.26-.41-.54-.3s-.61.73-.46,1.6c.12.7.19,1,.32,1.75Z"/><path class="cls-1" d="M158.83,79.41c.13,1.07.2,1.6.34,2.67.06.5.13.93.19,1.28l-1,.32c0-.25-.08-.37-.13-.62h0a1.74,1.74,0,0,1-1,1.13,1,1,0,0,1-1.32-.7,3.71,3.71,0,0,1-.17-.71c-.13-.88-.2-1.32-.33-2.2l1.12-.4.3,2.13a2.83,2.83,0,0,0,.12.5c.08.24.25.4.52.3s.61-.71.5-1.49-.15-1.1-.24-1.84Z"/><path class="cls-1" d="M163.33,81.87a3.34,3.34,0,0,1-1.31.72,1.53,1.53,0,0,1-2.13-1.06,2.36,2.36,0,0,1,1.5-3,1.21,1.21,0,0,1,1.67.73c.29,1-1.92,1.69-2.08,2,0,0,.12.26.23.34a.94.94,0,0,0,.82.06,2.41,2.41,0,0,0,1-.56ZM162,79.54c-.05-.18-.25-.26-.51-.18-.52.16-.7,1-.66,1s1.28-.51,1.18-.86Z"/><path class="cls-1" d="M164,80.85a2.78,2.78,0,0,0,1.07,0c.31-.09.43-.29.38-.48s-.21-.28-.61-.35a1.24,1.24,0,0,1-1.09-.76c-.23-.79.32-1.51,1.33-1.79a2.21,2.21,0,0,1,1-.08l0,.86a2.22,2.22,0,0,0-.82,0c-.3.09-.47.27-.41.48s.24.24.59.3,1,.26,1.14.79c.24.87-.37,1.54-1.38,1.82a2.48,2.48,0,0,1-1.23,0C163.93,81.36,163.94,81.19,164,80.85Z"/><path class="cls-1" d="M168.25,75.59c0,.43,0,.65.06,1.08l.84-.21c0,.36,0,.54,0,.9l-.83.21c0,.54,0,.81.06,1.35a3.65,3.65,0,0,0,.06.49.29.29,0,0,0,.41.23,1.58,1.58,0,0,0,.31-.09c0,.36.05.55.09.91a2.31,2.31,0,0,1-.64.25c-.67.18-1.08-.08-1.21-.56a4,4,0,0,1-.1-.72l-.1-1.57-.49.13c0-.36,0-.54-.07-.9l.5-.13c0-.3,0-.45,0-.75Z"/><path class="cls-1" d="M170,80.28c-.05-.94-.08-1.42-.13-2.37,0-.6-.13-1.25-.17-1.59l1-.24c0,.26.08.53.11.81h0a1.48,1.48,0,0,1,1-1.16l.21,0c0,.46,0,.69,0,1.15l-.19,0c-.72.17-.93.89-.89,1.67,0,.59,0,.89.07,1.48Z"/><path class="cls-1" d="M175.36,79.07c0-.23-.07-.49-.11-.77h0a1.49,1.49,0,0,1-1.11,1.13,1.23,1.23,0,0,1-1.46-1.08,2.65,2.65,0,0,1,2.23-3.27,4.48,4.48,0,0,1,1.34-.07c0,.83,0,1.25,0,2.09a10.2,10.2,0,0,0,.19,1.76ZM175.07,76a2.26,2.26,0,0,0-.33,0c-.74.15-1.09,1.16-.94,1.88.08.37.29.6.61.53s.67-.54.66-1.52Z"/><path class="cls-1" d="M182.36,72c-.08,1.7-.12,2.55-.18,4.25a12.69,12.69,0,0,0,0,1.53l-1,.17c0-.26,0-.38,0-.64h0a1.53,1.53,0,0,1-1.16.92c-.66.12-1.29-.3-1.46-1.23a2.53,2.53,0,0,1,2-3,1.46,1.46,0,0,1,.55,0c0-.73,0-1.09.08-1.82ZM181.09,75a.82.82,0,0,0-.49-.06,1.45,1.45,0,0,0-.92,1.73c.08.47.32.69.66.64s.68-.48.71-1.23C181.06,75.62,181.07,75.4,181.09,75Z"/><path class="cls-1" d="M183.09,77.69c.06-1.6.1-2.4.18-4l1.18-.17c-.1,1.59-.14,2.39-.21,4Zm.85-4.58a.55.55,0,0,1-.65-.48.65.65,0,0,1,.59-.74.54.54,0,0,1,.67.48.66.66,0,0,1-.61.74Z"/><path class="cls-1" d="M185.22,76.34a2.61,2.61,0,0,0,1.06.13c.32,0,.47-.22.45-.41s-.17-.31-.56-.44a1.25,1.25,0,0,1-1-.92c-.1-.81.56-1.44,1.59-1.56a2.13,2.13,0,0,1,1.05.08c-.08.33-.11.5-.18.84a2.14,2.14,0,0,0-.82-.07c-.32,0-.5.19-.48.4s.21.28.54.39.95.41,1,1c.11.9-.6,1.47-1.63,1.59a2.27,2.27,0,0,1-1.23-.14C185.11,76.84,185.15,76.68,185.22,76.34Z"/><path class="cls-1" d="M190.27,71.78l-.1,1.08.86-.09-.1.9-.85.08c-.06.54-.08.81-.14,1.34a2.82,2.82,0,0,0,0,.5.29.29,0,0,0,.37.29,1.54,1.54,0,0,0,.31,0c0,.37,0,.55,0,.92a2.53,2.53,0,0,1-.67.16c-.7.07-1.06-.25-1.12-.74a3.62,3.62,0,0,1,0-.73c.05-.63.08-.94.14-1.57l-.51.06c0-.36,0-.54.07-.9L189,73c0-.3,0-.45.07-.75Z"/><path class="cls-1" d="M191.32,76.69c.15-1.59.24-2.39.41-4l1.18-.1c-.18,1.59-.27,2.38-.43,4Zm1.11-4.53a.55.55,0,0,1-.62-.51.67.67,0,0,1,.63-.71.55.55,0,0,1,.65.51.66.66,0,0,1-.65.71Z"/><path class="cls-1" d="M193.46,76.5l.3-2.67q.09-.77.12-1.29l1.05-.08c0,.27,0,.4,0,.66h0a1.72,1.72,0,0,1,1.37-.83,1,1,0,0,1,1.09,1,4.93,4.93,0,0,1,0,.66c-.13.92-.19,1.38-.32,2.3l-1.16.07c.11-.88.17-1.32.28-2.2a2.07,2.07,0,0,0,0-.43c0-.28-.13-.47-.43-.45s-.8.52-.92,1.4l-.2,1.76Z"/><path class="cls-1" d="M200.91,76a2.63,2.63,0,0,1-1.12.24,1.54,1.54,0,0,1-1.73-1.53,2.48,2.48,0,0,1,2.54-2.58,2.24,2.24,0,0,1,.83.12c-.11.35-.17.53-.28.89a1.32,1.32,0,0,0-.54-.09,1.37,1.37,0,0,0-1.32,1.47.75.75,0,0,0,.81.79,1.94,1.94,0,0,0,.78-.19C200.9,75.47,200.9,75.64,200.91,76Z"/><path class="cls-1" d="M201.51,76.1c.27-1.57.4-2.36.69-3.93l1.2,0c-.3,1.57-.44,2.36-.72,3.93Zm1.43-4.43a.55.55,0,0,1-.58-.56.65.65,0,0,1,.68-.66.55.55,0,0,1,.61.56.66.66,0,0,1-.7.66Z"/><path class="cls-1" d="M205.48,76.16a1.58,1.58,0,0,1-1.69-1.62,2.37,2.37,0,0,1,2.42-2.47,1.57,1.57,0,0,1,1.69,1.65,2.37,2.37,0,0,1-2.41,2.44Zm.18-.88c.62,0,1-.91,1-1.58,0-.37-.16-.75-.63-.75-.69,0-1,1-1,1.56,0,.46.23.77.64.77Zm2.08-4.79-1.11,1.2h-.89l.8-1.21Z"/><path class="cls-1" d="M208.2,76.11c.23-1,.34-1.58.58-2.63.11-.49.19-.92.25-1.27l1.06,0-.1.64h0a1.75,1.75,0,0,1,1.46-.68,1,1,0,0,1,1,1.13,5.13,5.13,0,0,1-.1.65c-.23.9-.34,1.36-.56,2.26l-1.17-.06c.2-.86.3-1.29.51-2.15a2.12,2.12,0,0,0,.06-.43c0-.28-.08-.48-.38-.49s-.86.44-1.06,1.3c-.16.69-.24,1-.39,1.73Z"/><path class="cls-1" d="M213.43,76.43a.63.63,0,0,1-.61-.7.78.78,0,0,1,.84-.75.64.64,0,0,1,.63.71.78.78,0,0,1-.85.74Zm-.06-1.87c.3-1.44.46-2.16.77-3.59l1.31.08c-.47,1.43-.7,2.14-1.16,3.57Z"/></svg>