<svg id="Layer_1" data-name="Layer 1" xmlns="http://www.w3.org/2000/svg" viewBox="0 0 288 107"><defs><style>.cls-1,.cls-2{fill:#9b9aa0;}.cls-1,.cls-10,.cls-11,.cls-12,.cls-13,.cls-3,.cls-6,.cls-7,.cls-8,.cls-9{fill-rule:evenodd;}.cls-3,.cls-4{fill:#b2c842;}.cls-5{fill:#605e5e;}.cls-6{fill:#88818e;}.cls-7{fill:#f1993a;}.cls-8{fill:#92b7d9;}.cls-9{fill:#e64c40;}.cls-10{fill:#fff;}.cls-11{fill:#ebeccd;}.cls-12{fill:#e3df8f;}.cls-13{fill:#f8d834;}</style></defs><title>Artboard 49 copy 22</title><path class="cls-1" d="M104.6,99.64l-2.72,6.24h1l.61-1.54h2.93l.63,1.54h1l-2.64-6.24Zm1.5,4h-2.34l1.18-2.86h0Z"/><polygon class="cls-1" points="113.17 99.64 112.31 99.64 112.31 105.88 116.05 105.88 116.05 105.09 113.17 105.09 113.17 99.64"/><rect class="cls-2" x="120.36" y="99.64" width="0.91" height="6.24"/><polygon class="cls-1" points="129.52 104.37 129.48 104.37 127.51 99.64 126.26 99.64 126.26 105.88 127.1 105.88 127.1 100.75 127.11 100.75 129.21 105.88 129.77 105.88 131.86 100.75 131.88 100.75 131.88 105.88 132.72 105.88 132.72 99.64 131.47 99.64 129.52 104.37"/><polygon class="cls-1" points="138.67 103.09 141.64 103.09 141.64 102.3 138.67 102.3 138.67 100.44 141.86 100.44 141.86 99.64 137.82 99.64 137.82 105.88 142.02 105.88 142.02 105.09 138.67 105.09 138.67 103.09"/><polygon class="cls-1" points="151.26 104.77 151.24 104.77 147.78 99.64 146.66 99.64 146.66 105.88 147.51 105.88 147.51 100.75 147.53 100.75 151.02 105.88 152.11 105.88 152.11 99.64 151.26 99.64 151.26 104.77"/><polygon class="cls-1" points="156.41 100.44 158.43 100.44 158.43 105.88 159.28 105.88 159.28 100.44 161.29 100.44 161.29 99.64 156.41 99.64 156.41 100.44"/><path class="cls-1" d="M171.75,102l-.16-.52-.31-.6-.35-.43-.51-.41-.51-.27-.72-.2-.59,0h-.21l-.56.07-.53.17-.6.32-.42.36-.41.52-.26.51-.19.7,0,.57V103l.07.56.16.53.32.59.35.43.51.42.51.26.17.07.55.14.58,0h.21l.57-.08.53-.17.59-.31.43-.37.4-.51.26-.51.2-.71,0-.57v-.19Zm-.81,1.09-.05.31-.12.3-.11.3-.15.26-.21.22-.2.22-.25.18-.28.13-.29.13-.32.06h-.71l-.32-.06-.29-.13-.28-.13-.25-.18-.21-.22-.2-.22-.16-.26-.11-.3-.11-.3,0-.31v-.67l0-.32.11-.3.11-.3.16-.26.2-.22.21-.22.25-.17.28-.13.29-.14.32-.06H169l.32.06.29.14.28.13.25.17.2.22.21.22.15.26.11.3.12.3.05.32Z"/><polygon class="cls-1" points="180.04 103.43 179.88 103.22 179.74 103 179.55 102.84 179.33 102.71 179.11 102.59 178.86 102.49 178.6 102.42 178.34 102.35 178.1 102.27 177.88 102.19 177.66 102.1 177.47 101.99 177.31 101.85 177.17 101.71 177.09 101.51 177.09 101.16 177.15 100.95 177.25 100.73 177.43 100.54 177.56 100.47 177.71 100.4 177.87 100.34 178.05 100.31 178.53 100.31 178.74 100.36 178.94 100.46 179.12 100.56 179.27 100.69 179.37 100.85 180.05 100.23 179.82 99.95 179.55 99.76 179.24 99.67 178.94 99.58 178.62 99.53 177.92 99.53 177.6 99.59 177.34 99.7 177.08 99.81 176.86 99.95 176.69 100.12 176.53 100.29 176.4 100.48 176.33 100.67 176.25 100.88 176.21 101.07 176.21 101.65 176.28 101.97 176.44 102.2 176.58 102.43 176.77 102.63 176.99 102.76 177.21 102.9 177.46 103.01 177.72 103.08 177.98 103.16 178.22 103.25 178.44 103.33 178.67 103.41 178.85 103.52 179 103.64 179.15 103.77 179.22 103.95 179.22 104.35 179.19 104.5 179.12 104.63 179.04 104.76 178.94 104.86 178.83 104.95 178.71 105.03 178.58 105.1 178.43 105.15 178.29 105.19 178.15 105.21 177.76 105.21 177.52 105.16 177.29 105.05 177.05 104.94 176.86 104.77 176.71 104.55 176.03 105.14 176.24 105.43 176.52 105.65 176.87 105.78 177.42 105.94 177.98 105.99 178.28 105.99 178.55 105.95 178.81 105.86 179.07 105.78 179.3 105.65 179.49 105.49 179.68 105.32 179.83 105.13 179.94 104.89 180.05 104.66 180.11 104.38 180.11 103.72 180.04 103.43"/><path class="cls-3" d="M192.25,57l-16.34,35h5.37L185,84h14.13l3.46,8H208ZM187,79.37l5.13-11.21,4.89,11.21Z"/><rect class="cls-4" x="80" y="59.06" width="4.99" height="32.99"/><polygon class="cls-3" points="119.44 59.05 113.72 59.05 107.1 70.23 100.78 59.05 95.11 59.05 104.2 74.8 93.83 92.05 99.48 92.05 107.01 79.42 114.32 92.05 119.91 92.05 109.92 74.8 119.44 59.05"/><polygon class="cls-3" points="125.24 63.73 132.8 63.73 132.8 92.05 137.76 92.05 137.76 63.73 145.3 63.73 145.3 59.05 125.24 59.05 125.24 63.73"/><polygon class="cls-3" points="159.11 59.05 154.15 59.05 154.15 92.05 168.77 92.05 168.77 87.36 159.11 87.36 159.11 59.05"/><path class="cls-5" d="M172.49,22.55l-.07-.57-.09-.58-.13-.62-.13-.56-.16-.56-.36-1.07-.44-1-.09-.2,2.06-1L172.39,15,170.26,16l-.31-.47-.67-.9-.75-.85-.81-.8-.7-.6-1.08-.8-1.1-.69-1.14-.59-1.17-.48-1.2-.37-1.23-.26-1.25-.15-1.28,0h-.65l-1.32.12-1.25.21-1.13.29-1.09.36-1,.45-1,.52-1,.61-.92.69-.87.76-.88.91-.73.86-.2.25,0,0-.19.24-.17.25-.17.26v-1l0-.57-.06-.58-.08-.58-.11-.56-.13-.56-.15-.56-.17-.55-.2-.54-.22-.54-.24-.52-.26-.51L143,8.29l-.3-.49-.33-.48L142,6.86l-.55-.67-.38-.42-.4-.4L140.29,5l-.43-.37-.45-.35L139,3.93l-.49-.33L138,3.29,137.5,3,137,2.78l-.51-.2-.55-.16-.57-.12-.28,0-.1.56-.08.56-.06.56,0,.57V5.62l0,.57.06.57.08.57.1.56.13.55.15.56.17.54.19.54.21.53.24.52,0,0,.26.51.28.5.3.49.32.47.34.46.35.45.38.43.39.42.41.4.42.38L140,16l.45.35.46.33.48.31.48.29.5.28.51.25.52.23.33.13-.21.53-.2.53-.17.55,0,.13-.1.3-.09.32-.09.31h0l-.27-.08-.26-.08-.29-.09-.54-.17-.54-.18-.54-.2-.77-.34-.55-.27-.53-.28L138,18.8l-.49-.32-.48-.32-.47-.36-.44-.36-.42-.38-.41-.4-.4-.4-.37-.43-.35-.44-.34-.46-.33-.47-.3-.49-.28-.5-.27-.51-.25-.54-.22-.51-.24-.63-.18-.58-.14-.56-.1-.54,0-.52v-.5l0-.25,0-.57V5.88l0-.68-.22-1-.41-1-.33-.53-.41-.5-.52-.44-.62-.36-.76-.24-.75-.1h-.29l-.66,0-.63.1-.57.19-.53.25-.47.32-.42.4-.37.45-.31.52-.16.37-.18.52-.14.54-.09.57,0,.59V6.6h-2.18V8h2.2l0,.93V28.18l0,.52,0,.54,0,.54.06.53.08.55.09.55L123,32l.13.57.16.57.17.58.18.58.21.58.22.57.23.55.24.54.27.52.27.5.29.49.31.47L126,39l.33.45.35.43.36.42.38.41.4.39.41.38.57.48.46.36.47.33.48.31.5.3.5.27.52.26.52.23.54.22.54.2.55.18.55.16.56.14.56.12.56.1.58.09.57.07.58.05.31,0-4.29,4.84.88.95L139.29,46l4.52,5.11.88-.95-4.34-4.91.56-.06.56-.1L142,45l.55-.13.56-.15.54-.16.55-.18.54-.18.53-.21.52-.22.52-.22.49-.23.56-.28.54-.28.53-.3.51-.3.49-.31.48-.33.45-.33.45-.34.43-.35.41-.37.4-.38.39-.38.37-.39.35-.41.07-.08.54.15.55.13.55.11.56.09L156,39l.28,0V24.46l0,.06.37.56.41.52.45.49.48.44.53.4.23.15v0l.48.27.23.1.21.11.62.27.64.2.67.15h0l.21,0,.55.09.56,0,.56,0h.57l.58-.05.57-.08.25-.05h0l.53,0,.51.07.49.19.48.32.49.46.1.12.28.41.21.46.13.49,0,.51-.05.54-.16.53-.26.52-.37.51-.19.2.1.2.1.18.09.19.21.42.78-.79.67-.92.63-.95.39-.67.26-.52.47-1,.38-1,.3-1.07.22-1.08.13-1.1.05-1.11v-.56Z"/><polygon class="cls-6" points="155.36 16.11 154.7 16.58 154.02 17.02 153.3 17.41 152.56 17.76 151.81 18.08 151.02 18.34 150.22 18.57 149.4 18.75 148.56 18.87 147.71 18.95 146.85 18.98 146.34 18.97 145.77 18.93 145.21 18.88 144.65 18.8 144.44 19.36 144.24 19.92 144.08 20.48 143.94 21.06 143.82 21.64 143.73 22.22 143.66 22.8 143.62 23.39 143.6 23.97 143.61 24.55 143.64 25.14 143.7 25.72 143.78 26.29 143.88 26.86 144.01 27.43 144.16 27.99 144.34 28.54 144.54 29.09 144.76 29.62 145.01 30.14 145.29 29.75 145.64 29.29 146 28.85 146.38 28.42 146.77 28.01 147.17 27.62 147.59 27.24 148.03 26.87 148.47 26.52 148.94 26.19 149.41 25.87 149.82 25.62 150.31 25.34 150.82 25.08 151.34 24.83 151.86 24.61 152.38 24.41 152.92 24.23 153.47 24.07 154.02 23.93 154.58 23.8 155.15 23.7 155.15 22.68 155.15 21.56 155.16 21 155.2 20.23 155.25 19.66 155.35 19.11 155.54 18.45 155.77 17.82 156.06 17.23 156.39 16.66 156.75 16.13 157.16 15.64 157.61 15.19 158.09 14.78 158.6 14.4 159.13 14.07 159.69 13.79 160.28 13.55 160.88 13.36 161.5 13.22 162.13 13.13 162.78 13.09 163.43 13.11 164.09 13.18 164.75 13.3 165.42 13.49 165.88 13.67 166.41 13.9 166.92 14.15 167.41 14.39 166.96 13.93 166.54 13.55 166.11 13.18 165.66 12.84 165.18 12.52 164.7 12.21 164.2 11.92 163.69 11.65 163.16 11.41 162.63 11.19 162.08 10.99 161.52 10.81 160.96 10.66 160.39 10.53 159.81 10.42 159.46 11.16 159.08 11.88 158.65 12.57 158.19 13.23 157.7 13.88 157.16 14.48 156.59 15.05 156 15.6 155.36 16.11"/><polygon class="cls-7" points="130.21 5.99 130.17 5.41 130.08 4.85 129.92 4.32 129.82 4.06 129.51 3.49 129.15 3.03 128.71 2.67 128.21 2.42 127.65 2.29 127.49 2.27 127.17 2.26 126.88 2.25 126.69 2.25 126.06 2.33 125.51 2.52 125.05 2.82 124.66 3.22 124.44 3.56 124.19 4.06 123.97 4.63 123.84 5.18 123.78 5.74 123.76 6.31 123.77 6.89 123.78 7.24 123.78 8.67 123.79 11.52 123.8 26.53 123.8 27.09 123.81 28.23 123.85 29.02 123.95 30.07 124.14 31.15 124.39 32.29 124.73 33.48 124.92 34.11 125.64 34.4 126.77 34.58 127.88 34.67 128.43 34.68 128.89 34.67 130.02 34.58 131.13 34.4 131.76 34.25 132.38 34.09 132.99 33.89 133.57 33.68 134.7 33.18 135.77 32.59 136.77 31.92 137.71 31.16 138.59 30.31 139.4 29.37 139.78 28.87 140.15 28.35 140.5 27.8 140.82 27.24 141.26 26.4 141.69 25.36 142.04 24.28 142.3 23.16 142.47 22.01 142.35 21.98 142.11 21.93 141.88 21.87 141.65 21.8 140.93 21.59 139.94 21.2 139.27 20.91 138.62 20.6 137.99 20.27 137.38 19.92 136.8 19.55 136.23 19.16 135.69 18.75 135.18 18.32 134.68 17.87 134.2 17.4 133.76 16.91 133.33 16.4 132.92 15.88 132.53 15.33 132.17 14.76 131.83 14.17 131.51 13.56 131.21 12.94 130.94 12.29 130.7 11.65 130.51 11.06 130.37 10.5 130.26 9.96 130.21 9.44 130.19 8.92 130.2 8.41 130.22 8.12 130.23 7.55 130.22 6.99 130.21 6.42 130.21 5.99"/><polygon class="cls-8" points="145.77 31.56 146 31.9 146.35 32.38 146.71 32.84 147.08 33.28 147.47 33.71 147.88 34.12 148.3 34.51 148.73 34.88 149.18 35.23 149.65 35.56 150.12 35.87 150.62 36.16 151.13 36.44 151.65 36.7 152.19 36.94 152.75 37.15 153.51 37.4 154.06 37.55 154.61 37.7 155.17 37.85 155.17 24.82 154.97 24.84 154.82 24.86 154.07 25.04 153.5 25.21 152.93 25.39 152.38 25.6 151.84 25.82 151.32 26.07 150.81 26.34 150.31 26.62 149.83 26.93 149.36 27.25 148.91 27.59 148.47 27.96 148.04 28.34 147.63 28.75 147.23 29.17 146.84 29.61 146.47 30.08 146.11 30.56 145.77 31.06 145.64 31.25 145.66 31.38 145.77 31.56"/><polygon class="cls-9" points="169.85 20.73 169.81 20.05 169.72 19.41 169.57 18.8 169.36 18.21 169.11 17.64 168.8 17.11 168.45 16.6 168.06 16.13 167.62 15.7 167.15 15.31 166.65 14.96 166.11 14.66 165.54 14.4 164.95 14.2 164.33 14.06 163.7 13.96 163.05 13.93 163.01 13.93 162.36 13.97 161.73 14.06 161.11 14.21 160.52 14.42 159.96 14.68 159.42 14.98 158.91 15.33 158.44 15.72 158.01 16.16 157.62 16.63 157.28 17.14 156.97 17.67 156.72 18.24 156.52 18.83 156.37 19.45 156.27 20.08 156.24 20.73 156.24 20.77 156.28 21.42 156.38 22.06 156.52 22.67 156.73 23.26 156.99 23.82 157.29 24.36 157.65 24.87 158.04 25.34 158.47 25.77 158.94 26.16 159.45 26.5 159.99 26.81 160.55 27.07 161.14 27.27 161.76 27.41 162.4 27.51 163.05 27.54 163.08 27.54 163.73 27.5 164.37 27.41 164.99 27.26 165.57 27.05 166.14 26.8 166.68 26.49 167.18 26.14 167.65 25.75 168.08 25.31 168.47 24.84 168.82 24.33 169.12 23.8 169.38 23.23 169.58 22.64 169.72 22.02 169.82 21.39 169.85 20.73"/><polygon class="cls-10" points="166.9 19.99 167.54 20.13 167.58 19.55 167.5 19 167.31 18.49 167.01 18.04 166.62 17.66 166.16 17.39 165.72 17.25 165.59 17.92 166.1 18.12 166.51 18.47 166.79 18.93 166.92 19.47 166.9 19.99"/><polygon class="cls-6" points="171.36 25.1 171.37 24.81 171.38 24.13 171.36 23.43 171.32 22.75 171.25 22.09 171.18 21.48 171.07 20.93 170.97 20.46 170.85 20.08 170.72 19.83 170.76 20.38 170.76 20.98 170.73 21.57 170.65 22.14 170.55 22.69 170.4 23.22 170.22 23.75 170 24.24 169.74 24.73 169.45 25.2 169.11 25.66 168.74 26.09 168.34 26.51 167.89 26.91 167.41 27.3 167.44 27.31 167.96 27.59 168.43 27.92 168.84 28.3 169.19 28.73 169.49 29.23 169.72 29.77 169.91 30.37 170.08 30.02 170.32 29.48 170.53 28.95 170.72 28.41 170.89 27.87 171.03 27.32 171.15 26.77 171.24 26.22 171.31 25.67 171.36 25.1"/><polygon class="cls-11" points="149.84 12.55 149.37 12.88 148.9 13.25 148.44 13.62 148.01 14.01 147.6 14.42 147.21 14.83 146.84 15.26 146.49 15.7 146.16 16.15 145.85 16.61 145.57 17.08 145.3 17.56 145.8 17.62 146.36 17.66 146.94 17.67 147.7 17.65 148.46 17.58 149.2 17.48 149.93 17.32 150.64 17.13 151.34 16.89 152.02 16.63 152.67 16.31 153.31 15.97 153.93 15.59 154.51 15.19 155.08 14.74 155.62 14.27 156.14 13.77 156.62 13.24 157.07 12.69 157.5 12.1 157.89 11.5 158.25 10.87 158.57 10.22 158.49 10.22 157.94 10.2 157.4 10.19 156.84 10.21 156.29 10.25 155.74 10.31 155.18 10.39 154.63 10.5 154.09 10.63 153.54 10.79 153 10.97 152.46 11.17 151.92 11.4 151.39 11.65 150.87 11.93 150.35 12.23 149.84 12.55"/><polygon class="cls-12" points="143.65 16.77 143.66 16.6 143.71 16.03 143.72 15.46 143.69 14.68 143.63 13.91 143.51 13.16 143.35 12.42 143.16 11.7 142.92 11 142.64 10.32 142.32 9.65 141.97 9.01 141.59 8.39 141.16 7.79 140.71 7.22 140.22 6.68 139.71 6.16 139.16 5.67 138.6 5.22 138 4.79 137.38 4.4 136.74 4.05 136.07 3.73 136.06 3.9 136.02 4.46 136.01 5.04 136.03 5.82 136.1 6.58 136.21 7.33 136.37 8.07 136.57 8.79 136.81 9.49 137.08 10.18 137.4 10.84 137.75 11.48 138.14 12.11 138.56 12.7 139.02 13.28 139.5 13.82 140.01 14.34 140.56 14.82 141.13 15.28 141.72 15.7 142.34 16.09 142.99 16.45 143.65 16.77"/><polygon class="cls-13" points="125.58 35.63 126.09 36.65 126.69 37.67 127.36 38.63 128.09 39.5 128.89 40.31 129.75 41.05 130.67 41.7 131.65 42.29 132.69 42.8 133.88 43.27 134.98 43.6 136.09 43.85 137.2 44.01 138.31 44.08 138.87 44.09 139.43 44.08 140.68 43.98 141.92 43.78 143.14 43.48 144.34 43.1 145.51 42.64 146.65 42.11 147.74 41.49 148.8 40.82 149.81 40.08 150.76 39.29 151.61 38.47 151.99 38.06 151.77 37.97 151.25 37.74 150.74 37.5 150.24 37.23 149.66 36.89 149.17 36.57 148.69 36.24 148.23 35.9 147.79 35.54 147.36 35.16 146.95 34.78 146.55 34.37 146.18 33.95 145.81 33.51 145.47 33.06 145.13 32.6 144.82 32.12 144.53 31.63 144.24 31.12 143.98 30.6 143.73 30.06 143.57 29.67 143.37 29.14 143.18 28.6 143.03 28.06 142.89 27.51 142.77 26.96 142.68 26.4 142.46 26.93 142.21 27.43 141.95 27.94 141.68 28.43 141.38 28.9 141.07 29.37 140.74 29.82 140.38 30.26 140.01 30.69 139.62 31.1 139.22 31.51 138.79 31.9 138.35 32.28 137.89 32.65 137.41 33 136.91 33.34 136.4 33.67 135.67 34.09 135.16 34.35 134.64 34.59 134.11 34.82 133.58 35.03 133.05 35.21 132.5 35.37 131.95 35.5 131.4 35.62 130.84 35.72 130.27 35.79 129.7 35.85 129.12 35.88 128.54 35.89 128.09 35.88 127.53 35.86 126.97 35.81 126.39 35.75 125.85 35.67 125.58 35.63"/><circle class="cls-5" cx="152.16" cy="31.22" r="0.85"/><circle class="cls-5" cx="126.94" cy="5.43" r="1.13"/></svg>