<svg id="Layer_1" data-name="Layer 1" xmlns="http://www.w3.org/2000/svg" viewBox="0 0 288 107"><defs><style>.cls-1{fill:#c1c7d0;}</style></defs><title>Artboard 49 copy 7</title><path class="cls-1" d="M17.65,19.09,11.13,53.47H3.78l6.53-34.38Z"/><path class="cls-1" d="M17.6,53.47l3.16-16.84c.61-3.15,1-5.86,1.32-8.11h6.48l-.46,4.14h.1A10.62,10.62,0,0,1,36.93,28c4.08,0,6.42,2.49,6.42,6.83A31,31,0,0,1,43,39L40.19,53.47H32.85l2.6-13.82a16.66,16.66,0,0,0,.25-2.76c0-1.78-.61-3-2.5-3-2.39,0-5.15,3-6.22,8.52l-2,11.07Z"/><path class="cls-1" d="M60.37,21.79,59.1,28.52h5.35l-1.12,5.62H58l-1.68,8.41a16.94,16.94,0,0,0-.41,3.11c0,1.23.5,2.1,2.14,2.1a12.14,12.14,0,0,0,2-.11l-.82,5.77a15.2,15.2,0,0,1-4.34.56c-4.43,0-6.52-2.25-6.52-5.41A20.94,20.94,0,0,1,49,44l1.89-9.84H47.67l1-5.62h3.22l.92-4.68Z"/><path class="cls-1" d="M84.65,52a21.49,21.49,0,0,1-9.29,2c-7.14,0-10.81-4-10.81-10.51,0-7.6,5.51-15.5,14.54-15.5,5,0,8.67,2.85,8.67,7.49,0,6.33-6.17,8.62-16.17,8.37a5,5,0,0,0,.76,2.55,5.92,5.92,0,0,0,4.8,1.88,15.83,15.83,0,0,0,7-1.57ZM80.87,35.41c0-1.22-1-2.09-2.7-2.09-3.42,0-5.35,2.86-5.87,5.15,5.71.05,8.57-.71,8.57-3Z"/><path class="cls-1" d="M91,56.94a15.67,15.67,0,0,0,6.52,1.37c3.68,0,6.38-1.63,7.45-6.63l.41-2.14h-.1a8.43,8.43,0,0,1-7.14,3.72c-4.95,0-8-4-8-8.92C90,36.13,96,28,106.82,28a24.42,24.42,0,0,1,9.23,1.73l-3.77,20.56c-.87,4.59-2.3,8.67-5.25,11.06-2.71,2.15-6.33,2.81-9.65,2.81a18.36,18.36,0,0,1-8.16-1.58ZM108.1,34a7.23,7.23,0,0,0-2.66-.46c-4.43,0-7.6,4.94-7.6,9.64,0,2.55,1.13,4.38,3.37,4.38,2.4,0,4.79-2.7,5.61-6.88Z"/><path class="cls-1" d="M117.77,53.47l2.81-14.85c.71-3.77,1-7.95,1.27-10.1h6.37c-.15,1.69-.25,3.37-.45,5.16h.15c1.79-3.37,4.54-5.71,8-5.71.46,0,1,.05,1.37.05l-1.42,7.19a8.2,8.2,0,0,0-1.18-.05c-4.64,0-6.88,4.13-7.8,9l-1.74,9.28Z"/><path class="cls-1" d="M152.5,53.47c0-1.48.2-3.16.3-4.95h-.1c-2.3,4.13-5.46,5.51-8.37,5.51-4.48,0-7.55-3.47-7.55-8.67,0-8.42,5.62-17.39,17.86-17.39a29.06,29.06,0,0,1,8.21,1.22l-2.6,13.06a60.74,60.74,0,0,0-1,11.22Zm2.14-19.74a11.65,11.65,0,0,0-2-.21c-4.7,0-8.16,5.82-8.16,10.46,0,2.45,1,4.13,3,4.13s4.89-2.49,6-8.62Z"/><path class="cls-1" d="M165.69,53.47l3.42-17.91c.46-2.44.76-4.64,1-6.58h2.14l-.77,5h.16c2.29-3.58,5.46-5.52,8.77-5.52,3.62,0,5.51,2.3,5.66,6,2.2-3.77,5.31-5.87,9.34-6,2.24,0,5.91,1.43,5.91,6.33a25.12,25.12,0,0,1-.41,4.13l-2.75,14.59h-2.3l2.76-14.59a22.5,22.5,0,0,0,.36-3.32c0-3.15-1.13-5.1-4.49-5.1s-7.86,3.73-8.93,9.55l-2.5,13.46h-2.29l2.91-14.95a17.63,17.63,0,0,0,.3-3.11c0-2.29-.61-4.95-4.54-4.95-3.42,0-8.06,4.44-9,9.9L168,53.47Z"/><path class="cls-1" d="M222.08,52A13.92,13.92,0,0,1,214.64,54c-6.23,0-8.57-4.75-8.57-9.54,0-7.29,5.56-16,12.85-16,4.44,0,6.33,2.76,6.33,5.62,0,6.52-8,7.85-16.58,7.75a13.71,13.71,0,0,0,.3,6,6,6,0,0,0,6,4.19,11.9,11.9,0,0,0,6.43-1.79Zm.82-17.9c0-2.45-1.83-3.73-4.39-3.73-4.43,0-8.16,4.6-9.48,9.44,7.24.1,13.87-.87,13.87-5.66Z"/><path class="cls-1" d="M227.74,53.47l3.36-17.91c.51-2.44.82-4.64,1.07-6.58h2.14l-.76,5.26h.1a11.17,11.17,0,0,1,9.44-5.82c2.19,0,6.12,1.18,6.12,6.84a22.33,22.33,0,0,1-.46,3.88l-2.7,14.33h-2.3l2.75-14.54a22.44,22.44,0,0,0,.36-3.37c0-2.9-1.17-5.1-4.69-5.1s-8.67,4-9.84,10.46L230,53.47Z"/><path class="cls-1" d="M263,23.58,262,29h6.22l-.36,1.89h-6.27L258.88,45a23.27,23.27,0,0,0-.51,4.44A2.24,2.24,0,0,0,260.82,52a5.39,5.39,0,0,0,2-.26l.21,1.84a7.78,7.78,0,0,1-2.66.41c-3.31,0-4.39-2.3-4.39-4.44a22.3,22.3,0,0,1,.57-4.64l2.7-14h-3.72l.36-1.89h3.77l.81-4.48Z"/><path class="cls-1" d="M284.84,52A14,14,0,0,1,277.39,54c-6.22,0-8.57-4.75-8.57-9.54,0-7.29,5.56-16,12.85-16,4.44,0,6.33,2.76,6.33,5.62,0,6.52-8,7.85-16.58,7.75a13.72,13.72,0,0,0,.31,6,6,6,0,0,0,6,4.19,11.9,11.9,0,0,0,6.43-1.79Zm.81-17.9c0-2.45-1.83-3.73-4.38-3.73-4.44,0-8.16,4.6-9.49,9.44,7.24.1,13.87-.87,13.87-5.66Z"/><path class="cls-1" d="M10.17,82.37a10,10,0,0,1-4,.72c-3.86,0-6.2-2.42-6.2-6.33a9.59,9.59,0,0,1,3.25-7.38,8.74,8.74,0,0,1,5.79-2,6.56,6.56,0,0,1,3.31.72l-.61,1.52a6.45,6.45,0,0,0-3-.63,6.59,6.59,0,0,0-4.38,1.7A8.15,8.15,0,0,0,2,76.49c0,2.72,1.25,5,4.65,5a7.57,7.57,0,0,0,3.27-.66Z"/><path class="cls-1" d="M19.89,82.23a7.8,7.8,0,0,1-3.64.86c-2.9,0-4.17-2-4.17-4.4,0-3.31,2.45-7.06,6-7.06,2.09,0,3.22,1.25,3.22,2.84,0,2.88-3.24,3.63-7.31,3.56a4.46,4.46,0,0,0,.23,2.07,2.47,2.47,0,0,0,2.45,1.47,6.12,6.12,0,0,0,3-.75Zm-.41-7.74c0-.88-.68-1.38-1.68-1.38-1.8,0-3.14,1.74-3.59,3.47,2.95,0,5.27-.36,5.27-2.07Z"/><path class="cls-1" d="M22.27,82.87l1.45-7.79c.25-1.22.41-2.29.52-3.2h1.7L25.65,74h0a4.87,4.87,0,0,1,4.09-2.41,2.69,2.69,0,0,1,2.77,3,10.66,10.66,0,0,1-.2,1.77l-1.23,6.43H29.26l1.2-6.36a9,9,0,0,0,.14-1.41c0-1.09-.43-1.9-1.73-1.9s-3.24,1.61-3.74,4.33l-1,5.34Z"/><path class="cls-1" d="M39.22,69.25l-.5,2.63h2.63l-.29,1.48H38.43l-1,5.33a8.38,8.38,0,0,0-.22,1.75.94.94,0,0,0,1,1.07,3.36,3.36,0,0,0,.89-.1L39,82.89a4.3,4.3,0,0,1-1.45.2A2,2,0,0,1,35.27,81a10,10,0,0,1,.25-2l1.07-5.56H35l.27-1.48h1.57l.38-2Z"/><path class="cls-1" d="M41.46,82.87l1.34-7.09c.27-1.42.43-2.88.57-3.9H45c-.09.77-.19,1.54-.32,2.38h.06c.73-1.5,1.89-2.63,3.37-2.63a3.1,3.1,0,0,1,.54.05l-.36,1.86a2.4,2.4,0,0,0-.52-.05c-1.61,0-3.07,2-3.54,4.52l-.91,4.86Z"/><path class="cls-1" d="M53,83.12A4.2,4.2,0,0,1,48.7,78.6c0-3.63,2.52-7,6.09-7,3,0,4.31,2.25,4.31,4.56,0,3.41-2.41,6.93-6.08,6.93Zm.25-1.5c2.23,0,3.91-2.86,3.91-5.43,0-1.27-.59-3.06-2.57-3.06-2.36,0-3.92,2.88-3.92,5.4,0,1.79,1,3.09,2.56,3.09Z"/><path class="cls-1" d="M76.22,66.75,73.79,79.37a32.69,32.69,0,0,0-.46,3.5H71.61l.29-2.18h0a4.69,4.69,0,0,1-4,2.43c-2.11,0-3.27-1.75-3.27-4,0-3.9,2.91-7.49,6.79-7.49a4.9,4.9,0,0,1,1.95.39l1-5.27ZM73,73.61a3,3,0,0,0-1.79-.48c-2.64,0-4.68,2.81-4.68,5.74,0,1.32.45,2.7,2.06,2.7s3.2-1.65,3.68-4.13Z"/><path class="cls-1" d="M84.36,82.23a7.79,7.79,0,0,1-3.63.86c-2.91,0-4.18-2-4.18-4.4,0-3.31,2.45-7.06,6-7.06,2.09,0,3.23,1.25,3.23,2.84,0,2.88-3.25,3.63-7.31,3.56a4.32,4.32,0,0,0,.22,2.07,2.48,2.48,0,0,0,2.46,1.47,6.07,6.07,0,0,0,3-.75ZM84,74.49c0-.88-.68-1.38-1.68-1.38-1.79,0-3.13,1.74-3.59,3.47,3,0,5.27-.36,5.27-2.07Z"/><path class="cls-1" d="M93.8,67.77a16.85,16.85,0,0,1,3.31-.32,5.48,5.48,0,0,1,3.75,1.18A3.49,3.49,0,0,1,102,71.38a5.2,5.2,0,0,1-1.84,4,7.23,7.23,0,0,1-4.63,1.48,10.31,10.31,0,0,1-1.56-.12l-1.17,6.16H90.92Zm.43,7.36a7,7,0,0,0,1.52.13c2.59,0,4.32-1.59,4.32-3.74,0-1.82-1.3-2.55-3-2.55a7,7,0,0,0-1.66.16Z"/><path class="cls-1" d="M102.22,81a4.81,4.81,0,0,0,2.36.68,1.9,1.9,0,0,0,2.09-1.79c0-.87-.39-1.39-1.55-2a3.28,3.28,0,0,1-2-2.8c0-1.92,1.66-3.4,4-3.4a4.53,4.53,0,0,1,2.27.54l-.52,1.44a3.79,3.79,0,0,0-1.89-.5,1.77,1.77,0,0,0-2,1.65c0,.8.52,1.3,1.53,1.84a3.44,3.44,0,0,1,2,2.89c0,2.31-1.86,3.6-4.19,3.6a5,5,0,0,1-2.73-.74Z"/><path class="cls-1" d="M110.57,82.87l2.11-11h1.86l-2.09,11ZM114.09,70A1.07,1.07,0,0,1,113,68.84a1.27,1.27,0,0,1,1.25-1.28,1.1,1.1,0,0,1,1.11,1.19A1.24,1.24,0,0,1,114.11,70Z"/><path class="cls-1" d="M123.33,82.41a7.16,7.16,0,0,1-3.18.68,4,4,0,0,1-4.23-4.24c0-3.75,2.78-7.22,6.73-7.22a5.09,5.09,0,0,1,2.29.5l-.55,1.48a4.17,4.17,0,0,0-1.86-.41c-2.86,0-4.65,2.81-4.65,5.4,0,1.79.93,3,2.72,3a5.76,5.76,0,0,0,2.55-.61Z"/><path class="cls-1" d="M129.61,83.12a4.2,4.2,0,0,1-4.29-4.52c0-3.63,2.52-7,6.08-7,3,0,4.32,2.25,4.32,4.56,0,3.41-2.41,6.93-6.09,6.93Zm.25-1.5c2.23,0,3.91-2.86,3.91-5.43,0-1.27-.59-3.06-2.57-3.06-2.36,0-3.92,2.88-3.92,5.4,0,1.79,1,3.09,2.56,3.09Z"/><path class="cls-1" d="M137,82.87l3.07-16.12H142l-3.06,16.12Z"/><path class="cls-1" d="M146.65,83.12a4.2,4.2,0,0,1-4.29-4.52c0-3.63,2.53-7,6.09-7,3,0,4.31,2.25,4.31,4.56,0,3.41-2.4,6.93-6.08,6.93Zm.26-1.5c2.22,0,3.9-2.86,3.9-5.43,0-1.27-.59-3.06-2.57-3.06-2.36,0-3.92,2.88-3.92,5.4,0,1.79,1,3.09,2.56,3.09Z"/><path class="cls-1" d="M154.16,85.36a5.58,5.58,0,0,0,2.91.73c1.86,0,3.32-.93,4-3.9l.37-1.66h0a4.46,4.46,0,0,1-3.82,2.34c-2.22,0-3.36-1.87-3.36-3.82a7.17,7.17,0,0,1,7-7.42,9.06,9.06,0,0,1,3.54.77L163,81.48c-.43,2.34-1.06,3.93-2.2,4.93a6,6,0,0,1-3.84,1.2,6.41,6.41,0,0,1-3.29-.77Zm8.45-11.85a4.35,4.35,0,0,0-1.82-.38c-2.74,0-4.65,2.88-4.65,5.6,0,1.23.43,2.64,2.11,2.64s3.25-2,3.66-4.2Z"/><path class="cls-1" d="M165.94,82.87l2.09-11h1.89l-2.1,11Zm6.7-15.57-3,3.24h-1.48l2.23-3.24Z"/><path class="cls-1" d="M178.43,82.87a27.16,27.16,0,0,1,.25-2.84h-.05c-1.2,2.3-2.72,3.09-4.26,3.09-2,0-3.16-1.55-3.16-3.63a7.66,7.66,0,0,1,7.6-7.86,11.19,11.19,0,0,1,3,.41l-1.14,5.74a24.77,24.77,0,0,0-.45,5.09Zm1.22-9.58a4.18,4.18,0,0,0-1.31-.16c-2.84,0-5.18,3-5.18,6,0,1.23.43,2.43,1.89,2.43s3.43-2,4-5Z"/><path class="cls-1" d="M189.52,71.88l1.1,5.9c.24,1.27.38,2.09.49,2.91h0c.29-.7.61-1.48,1.18-2.7l2.82-6.11h2L193,80.24A21,21,0,0,1,189.23,86a7,7,0,0,1-3.18,1.91l-.48-1.64a6.35,6.35,0,0,0,2-1,8,8,0,0,0,2.14-2.54.62.62,0,0,0,0-.5l-2.2-10.31Z"/><path class="cls-1" d="M204.19,67.77a17.26,17.26,0,0,1,3.28-.32,5,5,0,0,1,3.52,1,3,3,0,0,1,1.12,2.39,4.17,4.17,0,0,1-3.3,3.84v0a3.41,3.41,0,0,1,2.5,3.41,4.39,4.39,0,0,1-1.82,3.56,8.18,8.18,0,0,1-5,1.25,19,19,0,0,1-3.15-.22Zm-.71,13.6a10.9,10.9,0,0,0,1.54.09c2.23,0,4.32-.93,4.32-3.38,0-1.8-1.52-2.59-3.23-2.59h-1.54Zm1.38-7.31h1.41c2.2,0,3.88-1.14,3.88-3,0-1.48-1.11-2.11-2.77-2.11a6.26,6.26,0,0,0-1.56.14Z"/><path class="cls-1" d="M213,82.87l2.12-11H217l-2.08,11ZM216.55,70a1.08,1.08,0,0,1-1.07-1.18,1.28,1.28,0,0,1,1.25-1.28,1.11,1.11,0,0,1,1.12,1.19A1.25,1.25,0,0,1,216.57,70Z"/><path class="cls-1" d="M226.16,82.23a7.8,7.8,0,0,1-3.64.86c-2.9,0-4.18-2-4.18-4.4,0-3.31,2.46-7.06,6-7.06,2.08,0,3.22,1.25,3.22,2.84,0,2.88-3.24,3.63-7.31,3.56a4.46,4.46,0,0,0,.23,2.07,2.46,2.46,0,0,0,2.45,1.47,6.07,6.07,0,0,0,2.95-.75Zm-.41-7.74c0-.88-.68-1.38-1.68-1.38-1.8,0-3.14,1.74-3.59,3.47,3,0,5.27-.36,5.27-2.07Z"/><path class="cls-1" d="M228.54,82.87,230,75.08c.25-1.22.41-2.29.52-3.2h1.7L231.92,74h0a4.87,4.87,0,0,1,4.09-2.41,2.69,2.69,0,0,1,2.77,3,10.66,10.66,0,0,1-.2,1.77l-1.23,6.43h-1.86l1.2-6.36a9,9,0,0,0,.14-1.41c0-1.09-.43-1.9-1.73-1.9s-3.25,1.61-3.75,4.33l-1,5.34Z"/><path class="cls-1" d="M248.55,82.23a7.76,7.76,0,0,1-3.63.86c-2.91,0-4.18-2-4.18-4.4,0-3.31,2.45-7.06,6-7.06,2.09,0,3.23,1.25,3.23,2.84,0,2.88-3.25,3.63-7.31,3.56a4.46,4.46,0,0,0,.23,2.07,2.46,2.46,0,0,0,2.45,1.47,6.07,6.07,0,0,0,2.95-.75Zm-.41-7.74c0-.88-.68-1.38-1.67-1.38-1.8,0-3.14,1.74-3.59,3.47,3,0,5.26-.36,5.26-2.07Z"/><path class="cls-1" d="M251,81a4.85,4.85,0,0,0,2.36.68,1.9,1.9,0,0,0,2.09-1.79c0-.87-.38-1.39-1.54-2a3.28,3.28,0,0,1-2-2.8c0-1.92,1.66-3.4,4-3.4a4.59,4.59,0,0,1,2.27.54l-.52,1.44a3.83,3.83,0,0,0-1.89-.5,1.76,1.76,0,0,0-2,1.65c0,.8.52,1.3,1.52,1.84a3.45,3.45,0,0,1,2,2.89c0,2.31-1.86,3.6-4.2,3.6a5,5,0,0,1-2.72-.74Z"/><path class="cls-1" d="M264.23,69.25l-.5,2.63h2.63l-.29,1.48h-2.63l-1,5.33a7.79,7.79,0,0,0-.23,1.75.94.94,0,0,0,1,1.07,3.31,3.31,0,0,0,.89-.1l-.09,1.48a4.3,4.3,0,0,1-1.45.2A2,2,0,0,1,260.28,81a10,10,0,0,1,.25-2l1.07-5.56H260l.27-1.48h1.57l.38-2Z"/><path class="cls-1" d="M273.77,82.87A27.16,27.16,0,0,1,274,80h0c-1.21,2.3-2.73,3.09-4.27,3.09-1.95,0-3.15-1.55-3.15-3.63a7.66,7.66,0,0,1,7.6-7.86,11.11,11.11,0,0,1,3,.41L276,77.78a24.08,24.08,0,0,0-.45,5.09ZM275,73.29a4.25,4.25,0,0,0-1.32-.16c-2.84,0-5.17,3-5.17,6,0,1.23.43,2.43,1.88,2.43s3.43-2,4-5Z"/><path class="cls-1" d="M278.32,82.87l1.34-7.09c.27-1.42.43-2.88.57-3.9h1.66c-.09.77-.18,1.54-.32,2.38h.07c.73-1.5,1.88-2.63,3.36-2.63a3.1,3.1,0,0,1,.54.05l-.36,1.86a2.34,2.34,0,0,0-.52-.05c-1.61,0-3.07,2-3.54,4.52l-.91,4.86Z"/></svg>