<svg id="Layer_1" data-name="Layer 1" xmlns="http://www.w3.org/2000/svg" viewBox="0 0 288 107"><defs><style>.cls-1{fill:#c1c7d0;}</style></defs><title>Artboard 49 copy 20</title><path class="cls-1" d="M229.86,37.59c-.92-12.08-9-11.76-17.54-11.67-13.58.14-26.14-2.44-38.31-10-24-14.83-48.94-10.31-73.09.48-9.87,4.4-19,9.83-30.54,8.39-2.19-.28-5.1,2.29-7.07,4.19S60.08,33.61,58,36.7c-.43-12.46,4.32-17.28,15.34-18.38a40.25,40.25,0,0,0,15.07-4.58c32.21-17.8,63.84-19.62,95.23,1.95,10.44,7.17,22.91,6,34.71,7.15C227.82,23.75,230.71,26.66,229.86,37.59Z"/><path class="cls-1" d="M131.72,22.33h42.14c-9.06-7.15-26.61-9.95-42.14-8.91Z"/><path class="cls-1" d="M129.67,13.58c-11,1-20.81,4-25.37,8.75h25.37Z"/><path class="cls-1" d="M70.39,32.63c5.52,0,10.91,0,16.3,0a32.09,32.09,0,0,1,5.8.42c6.39,1.26,10.27,6.82,9.57,13.6a30.61,30.61,0,0,1-.84,4.87,10.47,10.47,0,0,1-4.41,5.61c-.45.32-.87.69-1.39,1.12a8,8,0,0,0,.74.69A12,12,0,0,1,101,69.06c0,3.61-.56,7-2.65,10.1-2.46,3.61-5.7,6-10.18,6.08-8.25.17-16.5.19-24.75.25a18.69,18.69,0,0,1-2-.25C64.39,67.69,67.37,50.25,70.39,32.63Zm8.44,44.08v.12l6.25-.34c4.45-.24,6.68-4.5,6.48-7.76s-2.14-5.2-5.27-5.31-6.32-.06-9.48,0a2.53,2.53,0,0,0-2.54,2.26c-.37,1.68-.8,3.34-1.1,5-.26,1.52-.36,3.07-.55,4.6-.14,1.08.33,1.48,1.4,1.45C75.62,76.68,77.23,76.71,78.83,76.71ZM76.08,53.64a40.37,40.37,0,0,0,11.48-.21A6.44,6.44,0,0,0,93,46.58c-.06-2.84-1.61-4.58-4.44-4.74-2.57-.15-5.14-.13-7.72-.15a2.78,2.78,0,0,0-3.12,2.4C77.11,47.21,76.63,50.35,76.08,53.64Z"/><path class="cls-1" d="M217.25,32.77c-.21,1.7-.41,3.35-.64,5-.06.48-.23.94-.28,1.42-.28,2.43-.28,2.46-2.68,2.47-5.84,0-11.67,0-17.5,0-2.42,0-3.44.84-3.85,3.26-.38,2.24-.61,4.51-1,6.75-.24,1.39.4,1.67,1.6,1.67,6,0,12,0,17.94,0h2.25c-.42,2.82-.8,5.47-1.23,8.12-.17,1-1,1-1.81,1-5.64,0-11.28,0-16.92,0-2.85,0-3.58.42-4.18,3.25-.68,3.21-1,6.5-1.49,9.75a4.16,4.16,0,0,0,.09.88h24c-.27,2.7-.46,5.18-.81,7.63a1.81,1.81,0,0,1-2.06,1.61c-9.87,0-19.74,0-29.61,0-.91,0-1.83-.16-2.93-.27.23-1.45.42-2.82.65-4.18q4.06-23.61,8.11-47.23c.13-.71.2-1.26,1.18-1.26q15.18,0,30.34,0A5.51,5.51,0,0,1,217.25,32.77Z"/><path class="cls-1" d="M116.53,53.23h22.22c-.45,2.93-.83,5.52-1.24,8.12-.17,1.08-.95,1.17-1.85,1.16H118.45c-2.72,0-3.42.63-3.85,3.38-.46,2.91-.94,5.81-1.4,8.72-.08.51-.08,1-.13,1.77H137.2c-.25,2.58-.46,4.92-.71,7.26a1.92,1.92,0,0,1-2.2,2c-9.82,0-19.64,0-29.46,0-1,0-1.91-.19-3-.3,3-17.57,6-35,9-52.57H143c-.41,2.67-.82,5.23-1.19,7.79-.16,1.14-1,1.16-1.84,1.17l-12.83,0h-5.54c-2.25,0-2.93.38-3.42,2.56C117.51,47.1,117.1,50,116.53,53.23Z"/><path class="cls-1" d="M168.73,48.26c-.13-.58-.19-.87-.25-1.15-1.1-5.34-4.47-7.53-9.81-6.19a5.92,5.92,0,0,0-4.41,4.44,4.51,4.51,0,0,0,2.17,5c2.57,1.64,5.25,3.12,7.87,4.7,1.59.94,3.2,1.85,4.71,2.91,3.82,2.66,5.2,6.56,5.55,11,.48,6.09-1.41,11.12-6.44,14.73a12.89,12.89,0,0,1-8,2.68,42.21,42.21,0,0,1-7.81-.59c-7.38-1.65-11.38-6.45-12-14-.1-1.15-.14-2.31-.21-3.64l8.49-.6c.22,1.24.43,2.37.61,3.51.53,3.46,2.14,5.34,5.59,5.71a20.07,20.07,0,0,0,6.46-.45,5.3,5.3,0,0,0,4.08-4.8,5.21,5.21,0,0,0-2.46-5.52c-2.56-1.59-5.21-3-7.8-4.55-1.34-.79-2.68-1.59-3.94-2.49-5.33-3.83-6.43-9.28-5.44-15.29s4.42-10,10.38-11.46c6.91-1.66,14.39-.11,18.44,6a16.59,16.59,0,0,1,2.71,8.49,1.39,1.39,0,0,1-.88,1.07C173.83,48.08,171.32,48.15,168.73,48.26Z"/><path class="cls-1" d="M180.9,91c3.27,0,6.32-.14,9.35.06,2,.13,3.17,1.66,3.59,4,.33,1.9-.16,3-2,4.11-1,.59-1.1,1.1-.38,2,1.22,1.6,2.28,3.31,3.44,5-2.06.68-2.62.49-3.62-1a38.54,38.54,0,0,0-2.83-4A4.36,4.36,0,0,0,186,99.89c-1.71-.27-2.38.43-2.47,2.2,0,1,0,2,0,3.06,0,.85-.23,1.52-1.35,1.43-.93-.08-1.32-.42-1.31-1.44C180.93,100.43,180.9,95.73,180.9,91Zm6.22,1.86v0h-.87a2.77,2.77,0,0,0-2.64,4.07,1,1,0,0,0,.73.58,39.4,39.4,0,0,0,5.33-.23,2,2,0,0,0,1.6-2.31,2.07,2.07,0,0,0-1.84-2A19.62,19.62,0,0,0,187.12,92.83Z"/><path class="cls-1" d="M103,102.08c0-3.2,0-6.4,0-9.6,0-1.85,0-1.85,2.15-1.53.13,1.91.33,3.87.38,5.84.08,2.57.1,5.15,0,7.72,0,.7-.39,1.77-.89,2a1.92,1.92,0,0,1-2.44-1c-1.69-2.67-3.51-5.25-5.28-7.86-.41-.59-.87-1.14-1.55-2A13,13,0,0,0,95,97.84c0,2.38.12,4.75.18,7.13,0,.83,0,1.58-1.18,1.59s-1.45-.34-1.43-1.46c.07-4.23,0-8.45.07-12.68,0-.54.22-1.43.55-1.55a1.79,1.79,0,0,1,2.27.72c1.86,2.84,3.81,5.62,5.73,8.42.49.72,1,1.44,1.46,2.15Z"/><path class="cls-1" d="M75,106.3c-1.67.43-2.82.51-3.63-1a32.39,32.39,0,0,0-2.32-3.52c-.42-.58-.91-1.32-1.52-1.51a5.09,5.09,0,0,0-3-.15c-.52.18-.8,1.4-.94,2.19-.19,1.09,0,2.24-.24,3.33-.06.35-.71.76-1.14.84-.59.1-1.28.06-1.28-.92,0-4.85,0-9.71,0-14.94,3.39.16,6.69.12,9.92.55,1.82.24,2.72,1.89,2.92,3.74s-.15,3.32-1.83,4.24c-1.1.6-1.11,1.17-.35,2.14C72.76,102.82,73.77,104.47,75,106.3Zm-8.47-8.65v.06c.87-.08,1.75-.09,2.6-.25A2.3,2.3,0,0,0,71.28,95a2.26,2.26,0,0,0-2.4-2.07,16.87,16.87,0,0,0-3.76,0,2.16,2.16,0,0,0-1.45,1.15c-1,2.6-.3,3.54,2.43,3.56Z"/><path class="cls-1" d="M77.66,90.78c3.51,0,7,0,10.48,0,.29,0,.77.67.79,1s-.47,1-.77,1c-1.79.13-3.59.12-5.39.14-2.34,0-3,.83-2.83,3.11.08.94.5,1.26,1.38,1.25,1.94,0,3.88,0,5.83,0,.84,0,1.24.24,1.28,1.13s-.55,1-1.22,1c-1.65,0-3.31-.06-4.95.08-.67.06-1.73.48-1.87,1a11.93,11.93,0,0,0-.18,3.54c0,.12.76.31,1.16.31,2.24,0,4.47.06,6.71,0,.84,0,1.22.22,1.28,1.12s-.4,1.09-1.13,1.08c-3.2,0-6.41,0-9.61-.09-.67,0-1.21-.14-1.2-1.06,0-4.62,0-9.23.07-13.85A4.86,4.86,0,0,1,77.66,90.78Z"/><path class="cls-1" d="M164,106.17c1.91-4.88,3.76-9.67,5.7-14.43a2.17,2.17,0,0,1,1.34-.93,1.32,1.32,0,0,1,1.73.88c1.45,3.49,2.95,7,4.42,10.45.57,1.37,1.11,2.75,1.68,4.15-2.07.54-2.52.35-3.09-1.08-1.27-3.2-1.27-3.2-4.72-3.15-2.24,0-2.79.43-3.51,2.54S166.44,106.94,164,106.17Zm7.7-11.49-.37,0-2,5h4.31Z"/><path class="cls-1" d="M141.61,106.43c-1.66.29-2.68.24-3.25-1.39-1.05-3-1.15-3-4.35-3-2.44,0-2.87.31-3.71,2.61-.71,2-1.28,2.21-3.6,1.51.81-2.07,1.61-4.13,2.42-6.19,1-2.61,2-5.24,3-7.85.28-.7.42-1.4,1.53-1.41a1.8,1.8,0,0,1,1.93,1.34q2.19,5.24,4.39,10.45C140.54,103.76,141,105,141.61,106.43Zm-7.24-11.79-.41,0c-.61,1.63-1.22,3.27-1.91,5.1h4.33Z"/><path class="cls-1" d="M160.39,100.87l1.94.48c.82,3-1.73,5.15-4.39,5.57-3.7.59-6.84-.87-8.4-3.85-1.73-3.28-1.25-7.95,1.06-10.38,3.24-3.42,9.34-2.75,11.32,1.28.19.39,0,1,0,1.49-.68-.16-1.73-.1-2-.51-1-1.6-2.24-2.57-4-2.26a4.62,4.62,0,0,0-4,3.34,14.07,14.07,0,0,0-.27,5.55,3.9,3.9,0,0,0,4.12,3.18,4.3,4.3,0,0,0,4.38-3C160.16,101.54,160.25,101.27,160.39,100.87Z"/><path class="cls-1" d="M108.13,90.84h12.33l.19,2c-.93.06-1.77.13-2.62.17-1.85.08-2.29.5-2.3,2.39,0,3.15,0,6.31-.06,9.46,0,.7.17,1.68-1.06,1.68-.93,0-1.52-.21-1.49-1.39.07-3.44,0-6.89,0-10.34,0-1.31-.31-2-1.79-1.84-.62.07-1.26-.12-1.89-.09C108.05,93,107.71,92.26,108.13,90.84Z"/><path class="cls-1" d="M210.79,93.67a15.26,15.26,0,0,1-.07,2.69c0,.25-1,.63-1.31.48-.84-.41-.69-2,.13-2.43Z"/><path class="cls-1" d="M206.48,93.46l1.24,3.7c-1.38-1.53-1.61-1.53-2.74-.41L206,93.43Z"/><path class="cls-1" d="M203.15,94.25l-1.5-.3c.65.93,1.17,1.65,1.61,2.42,0,.06-.64.74-.92.7a5,5,0,0,1-1.44-.75l.26-.41c.12.07.25.16.38.22a6.25,6.25,0,0,0,1,.37c.08,0,.34-.37.32-.4-.23-.26-.52-.47-.77-.72a3.69,3.69,0,0,1-.91-1.13c-.06-.19.49-.82.77-.83a4.22,4.22,0,0,1,1.4.5Z"/><path class="cls-1" d="M213.17,96.82c-.44,0-1.14.26-1.28.08a2.71,2.71,0,0,1-.5-1.64c0-.33.67-.91.91-.86.43.1.76.61,1.37,1.15L211.9,96l0,.32,1.26.12Z"/><path class="cls-1" d="M205.91,102.19c-.61.3-1.31.89-1.57.73a2.26,2.26,0,0,1-1.12-1.58,3.4,3.4,0,0,1,1.1-1.94c.15-.15.93.32,1.57.56-.91.13-1.82.05-2,.34a2.34,2.34,0,0,0,.08,1.85C204.11,102.37,205,102.19,205.91,102.19Z"/><path class="cls-1" d="M208.45,103l-1.08-3.32.37-.14.94,2.57c.35-1,.63-1.78.9-2.56l.35.12L208.87,103Z"/></svg>