<svg id="Layer_1" data-name="Layer 1" xmlns="http://www.w3.org/2000/svg" viewBox="0 0 288 107"><defs><style>.cls-1,.cls-2{fill:#c1c7d0;}.cls-2{fill-rule:evenodd;}</style></defs><title>Artboard 49 copy</title><path class="cls-1" d="M67,73.18l-2.54-5.74-.55,6.23a.15.15,0,0,1-.17.16h-.32s-.08,0-.09,0a.18.18,0,0,1,0-.13L64,66.52a.16.16,0,0,1,.18-.15h.34s.09,0,.12.1L67.3,72.4l2.62-5.91c0-.08.08-.12.14-.12h.37a.15.15,0,0,1,.17.15l.67,7.14c0,.11,0,.17-.14.17h-.27a.15.15,0,0,1-.17-.15l-.56-6.22-2.54,5.72-.07.08-.07,0h-.29l-.07,0A.2.2,0,0,1,67,73.18Z"/><path class="cls-1" d="M73.48,73.67V66.53a.15.15,0,0,1,.17-.16h4.88c.11,0,.17,0,.17.14v.28a.15.15,0,0,1-.17.16H74.06v2.69h3.58c.13,0,.2,0,.2.16v.26c0,.11-.07.16-.2.16H74.06v3H78.6c.11,0,.17,0,.17.13v.3c0,.09-.06.14-.17.14H73.65C73.54,73.83,73.48,73.78,73.48,73.67Z"/><path class="cls-1" d="M80.94,73.66v-7.1c0-.12.06-.19.16-.19h2.37a3.6,3.6,0,0,1,1.46.3,3.65,3.65,0,0,1,1.18.79,3.86,3.86,0,0,1,.79,1.19,3.73,3.73,0,0,1,.29,1.46,3.68,3.68,0,0,1-.29,1.45,3.8,3.8,0,0,1-.81,1.19,3.93,3.93,0,0,1-1.19.79,3.78,3.78,0,0,1-1.47.29H81.1A.15.15,0,0,1,80.94,73.66Zm.57-.39h1.95A3,3,0,0,0,84.7,73a3.12,3.12,0,0,0,1-.69,3.23,3.23,0,0,0,.67-1,3.12,3.12,0,0,0,.24-1.22,3.14,3.14,0,0,0-.94-2.24,3.2,3.2,0,0,0-1-.66A3.32,3.32,0,0,0,83.43,67H81.51Z"/><path class="cls-1" d="M89.42,73.65v-7.1a.17.17,0,0,1,.19-.18h.21a.17.17,0,0,1,.19.18v7.1a.17.17,0,0,1-.19.18h-.21A.17.17,0,0,1,89.42,73.65Z"/><path class="cls-1" d="M98.1,72.65a.21.21,0,0,1,.13-.05.16.16,0,0,1,.12.06l.15.24a.15.15,0,0,1,0,.12.26.26,0,0,1-.09.1,3.88,3.88,0,0,1-1,.6,3.55,3.55,0,0,1-1.28.22,3.79,3.79,0,0,1-1.5-.3,4,4,0,0,1-1.23-.82,3.84,3.84,0,0,1-.82-1.23,3.9,3.9,0,0,1,0-3,3.87,3.87,0,0,1,.82-1.21,4,4,0,0,1,1.23-.81,3.87,3.87,0,0,1,2.78-.08,3.91,3.91,0,0,1,1.07.61c.06.05.1.1.09.14s0,.08,0,.09l-.17.22-.09,0s-.09,0-.15,0A3.64,3.64,0,0,0,97.2,67a2.72,2.72,0,0,0-1.07-.2,3.2,3.2,0,0,0-1.27.25,3.53,3.53,0,0,0-1,.7,3.47,3.47,0,0,0-.71,1,3.11,3.11,0,0,0-.26,1.25,3.21,3.21,0,0,0,.26,1.27,3.27,3.27,0,0,0,.7,1,3.56,3.56,0,0,0,1,.71,3.19,3.19,0,0,0,1.26.26,3,3,0,0,0,1.08-.2A3.56,3.56,0,0,0,98.1,72.65Z"/><path class="cls-1" d="M100.71,73.65v-7.1c0-.12.06-.18.19-.18h.2c.13,0,.19.06.19.18v7.1c0,.12-.06.18-.19.18h-.2C100.77,73.83,100.71,73.77,100.71,73.65Z"/><path class="cls-1" d="M109.57,72.8V66.53a.15.15,0,0,1,.17-.17H110a.15.15,0,0,1,.17.16v7.17c0,.09-.06.14-.16.14h-.26a.18.18,0,0,1-.11,0l-.08-.07-5.05-6.39v6.31a.16.16,0,0,1-.18.18h-.21a.16.16,0,0,1-.18-.18v-7.1c0-.12,0-.18.16-.18h.32a.11.11,0,0,1,.09,0Z"/><path class="cls-1" d="M115.71,66.5l2.94,7.12c0,.07,0,.13,0,.16a.16.16,0,0,1-.13.06h-.3c-.07,0-.12,0-.15-.13L117.35,72H113.5l-.71,1.73c0,.09-.08.14-.15.14h-.31a.14.14,0,0,1-.12-.06s0-.09,0-.16l3-7.12a.19.19,0,0,1,.17-.13h.19A.18.18,0,0,1,115.71,66.5Zm-.28.81-1.69,4.09h3.37Z"/><path class="cls-1" d="M125,73.66V66.57a.24.24,0,0,1,0-.15.17.17,0,0,1,.14,0h2.43a2.27,2.27,0,0,1,.91.18,2.36,2.36,0,0,1,.74.5,2.54,2.54,0,0,1,.5.74,2.37,2.37,0,0,1,0,1.81,2.35,2.35,0,0,1-1.24,1.24,2.26,2.26,0,0,1-.9.18h-2v2.64a.23.23,0,0,1,0,.13s-.06,0-.12,0h-.26c-.07,0-.12,0-.13,0A.23.23,0,0,1,125,73.66Zm4.36-5a1.75,1.75,0,0,0-.13-.68,1.8,1.8,0,0,0-.94-.94,1.56,1.56,0,0,0-.68-.14h-2v3.53h2a1.56,1.56,0,0,0,.68-.14,1.8,1.8,0,0,0,.94-.94A1.77,1.77,0,0,0,129.38,68.69Z"/><path class="cls-1" d="M135.17,66.37a2.32,2.32,0,0,1,.91.19,2.36,2.36,0,0,1,.74.5,2.34,2.34,0,0,1,.67,1.65,2.3,2.3,0,0,1-.38,1.29,2.36,2.36,0,0,1-1,.85l1.27,2.79a.12.12,0,0,1,0,.13.12.12,0,0,1-.12.06h-.35a.15.15,0,0,1-.13-.09L135.55,71l-.2,0-.23,0h-2.45v2.6a.16.16,0,0,1-.18.18h-.21a.17.17,0,0,1-.19-.18V66.54c0-.11.07-.17.19-.17Zm-.17,4.1a2.24,2.24,0,0,0,.73-.12,1.92,1.92,0,0,0,.61-.34,1.56,1.56,0,0,0,.42-.56,1.58,1.58,0,0,0,.16-.74,1.8,1.8,0,0,0-.51-1.24,1.73,1.73,0,0,0-.57-.38,1.58,1.58,0,0,0-.69-.14h-2.48v3.52Z"/><path class="cls-1" d="M139.86,73.67V66.53a.15.15,0,0,1,.17-.16h4.88c.11,0,.17,0,.17.14v.28a.15.15,0,0,1-.17.16h-4.47v2.69H144c.13,0,.2,0,.2.16v.26c0,.11-.07.16-.2.16h-3.58v3H145c.11,0,.17,0,.17.13v.3c0,.09-.06.14-.17.14H140C139.92,73.83,139.86,73.78,139.86,73.67Z"/><path class="cls-1" d="M153.14,66.59l-3,7.11a.16.16,0,0,1-.17.13h-.19c-.08,0-.13,0-.17-.13l-2.95-7.11a.13.13,0,0,1,0-.16.18.18,0,0,1,.13-.06h.31c.06,0,.11,0,.15.14l2.64,6.4,2.63-6.41a.2.2,0,0,1,.07-.1.16.16,0,0,1,.09,0h.3a.14.14,0,0,1,.12.06S153.17,66.52,153.14,66.59Z"/><path class="cls-1" d="M155.09,73.67V66.53a.14.14,0,0,1,.16-.16h4.88c.12,0,.18,0,.18.14v.28c0,.1-.06.16-.18.16h-4.47v2.69h3.59c.13,0,.19,0,.19.16v.26c0,.11-.06.16-.19.16h-3.59v3h4.55c.11,0,.17,0,.17.13v.3c0,.09-.06.14-.17.14h-5A.14.14,0,0,1,155.09,73.67Z"/><path class="cls-1" d="M168.2,72.8V66.53a.15.15,0,0,1,.17-.17h.24a.15.15,0,0,1,.17.16v7.17c0,.09-.06.14-.16.14h-.26a.2.2,0,0,1-.11,0,.23.23,0,0,1-.07-.07l-5.06-6.39v6.31a.16.16,0,0,1-.18.18h-.21a.16.16,0,0,1-.18-.18v-7.1c0-.12,0-.18.16-.18H163a.11.11,0,0,1,.09,0Z"/><path class="cls-1" d="M170.88,66.37h5.25a.27.27,0,0,1,.15,0,.14.14,0,0,1,.05.13v.23c0,.12-.06.18-.2.18H173.8v6.69a.16.16,0,0,1-.18.18h-.21a.16.16,0,0,1-.18-.18V67h-2.35c-.12,0-.18-.07-.18-.2v-.21A.16.16,0,0,1,170.88,66.37Z"/><path class="cls-1" d="M178.44,73.65v-7.1c0-.12.06-.18.19-.18h.2c.13,0,.19.06.19.18v7.1c0,.12-.06.18-.19.18h-.2C178.5,73.83,178.44,73.77,178.44,73.65Z"/><path class="cls-1" d="M187.46,66.59l-3,7.11a.16.16,0,0,1-.17.13h-.19c-.08,0-.13,0-.17-.13l-3-7.11a.13.13,0,0,1,0-.16.18.18,0,0,1,.13-.06h.31c.06,0,.11,0,.15.14l2.64,6.4,2.63-6.41a.2.2,0,0,1,.07-.1.16.16,0,0,1,.09,0h.3a.18.18,0,0,1,.13.06S187.49,66.52,187.46,66.59Z"/><path class="cls-1" d="M191.3,66.5l2.93,7.12c0,.07,0,.13,0,.16a.15.15,0,0,1-.13.06h-.3c-.07,0-.11,0-.15-.13L192.94,72h-3.85l-.71,1.73c0,.09-.09.14-.16.14h-.31a.17.17,0,0,1-.12-.06s0-.09,0-.16l3-7.12a.18.18,0,0,1,.17-.13h.19A.18.18,0,0,1,191.3,66.5Zm-.28.81-1.69,4.09h3.37Z"/><path class="cls-1" d="M202.33,70.53l-2.44-4c0-.06,0-.11,0-.14a.17.17,0,0,1,.12-.06h.34l.08,0,.09.08L202.6,70l2.13-3.49a.35.35,0,0,1,.07-.09l.08,0h.31a.18.18,0,0,1,.11,0s0,.08,0,.14l-2.39,4v3.12c0,.12-.05.18-.14.18h-.3a.12.12,0,0,1-.11,0,.25.25,0,0,1,0-.13Z"/><path class="cls-1" d="M217.57,66.59l-2.77,7.06a.25.25,0,0,1-.25.19h-.85a.26.26,0,0,1-.26-.19l-2.78-7.07a.15.15,0,0,1,0-.16.2.2,0,0,1,.14,0h1.14a.26.26,0,0,1,.25.19l1.92,5.21L216,66.56a.24.24,0,0,1,.24-.19h1.17a.15.15,0,0,1,.13.06S217.6,66.52,217.57,66.59Z"/><path class="cls-1" d="M217.62,73.62l2.83-7.06a.31.31,0,0,1,.26-.19h.84a.26.26,0,0,1,.25.19l2.84,7.06q0,.1,0,.15a.17.17,0,0,1-.14.06h-1.1a.25.25,0,0,1-.25-.18l-.48-1.21h-3.09l-.47,1.21a.25.25,0,0,1-.25.18h-1.11C217.6,73.83,217.56,73.76,217.62,73.62Zm3.51-5.32-1.08,2.85h2.13Z"/><path class="cls-1" d="M231.1,72.09c.13-.1.24-.1.32,0l.5.86q.09.09.06.15a.27.27,0,0,1-.11.14,4,4,0,0,1-1,.51,3.55,3.55,0,0,1-1.22.19,3.79,3.79,0,0,1-1.5-.3,4,4,0,0,1-1.23-.82,3.87,3.87,0,0,1-.83-1.23,3.9,3.9,0,0,1,0-3,3.89,3.89,0,0,1,.83-1.21,3.84,3.84,0,0,1,1.23-.82,3.79,3.79,0,0,1,1.5-.3,3.55,3.55,0,0,1,1.22.19,3.46,3.46,0,0,1,1,.51.16.16,0,0,1,.08.14.2.2,0,0,1,0,.11l-.53.9c-.06.08-.16.09-.28,0a4.39,4.39,0,0,0-.69-.34,2.19,2.19,0,0,0-.75-.12,2.23,2.23,0,0,0-.94.19,2.17,2.17,0,0,0-.75.51,2.43,2.43,0,0,0-.5.78,2.47,2.47,0,0,0-.18,1,2.56,2.56,0,0,0,.18,1,2.59,2.59,0,0,0,.5.79,2.37,2.37,0,0,0,.75.53,2.23,2.23,0,0,0,.94.19,2.2,2.2,0,0,0,.78-.13A2.37,2.37,0,0,0,231.1,72.09Z"/><path class="cls-1" d="M235.66,66.59v4.3a1.84,1.84,0,0,0,.12.66,1.55,1.55,0,0,0,.83.91,1.54,1.54,0,0,0,.65.13,1.5,1.5,0,0,0,.64-.13,1.42,1.42,0,0,0,.5-.37,1.63,1.63,0,0,0,.33-.54,1.84,1.84,0,0,0,.12-.66v-4.3a.2.2,0,0,1,.06-.15.24.24,0,0,1,.17-.07h1a.27.27,0,0,1,.17.06.18.18,0,0,1,.08.16v4.3a3,3,0,0,1-.24,1.19,3.09,3.09,0,0,1-.66,1,3,3,0,0,1-2.16.9,3.06,3.06,0,0,1-1.2-.24,3.13,3.13,0,0,1-1-.66,3.09,3.09,0,0,1-.66-1,3,3,0,0,1-.24-1.19v-4.3a.24.24,0,0,1,.06-.15.21.21,0,0,1,.15-.07h1a.23.23,0,0,1,.15.07A.19.19,0,0,1,235.66,66.59Z"/><path class="cls-1" d="M242.86,66.59a.2.2,0,0,1,0-.15.22.22,0,0,1,.17-.07h1.17a.53.53,0,0,1,.17,0,.19.19,0,0,1,.12.11l3.31,4.76V66.52a.18.18,0,0,1,.1-.12.27.27,0,0,1,.12,0h1a.29.29,0,0,1,.16.06.21.21,0,0,1,.08.16v7c0,.15-.08.22-.24.22h-1c-.08,0-.14,0-.17,0a.6.6,0,0,1-.12-.11l-3.49-5v5c0,.15-.06.22-.22.22h-1a.19.19,0,0,1-.22-.22Z"/><path class="cls-1" d="M251.17,73.62,254,66.56a.29.29,0,0,1,.25-.19h.85a.26.26,0,0,1,.25.19l2.83,7.06c0,.07,0,.12,0,.15a.18.18,0,0,1-.15.06H257a.27.27,0,0,1-.26-.18l-.48-1.21h-3.08l-.48,1.21a.25.25,0,0,1-.25.18h-1.1C251.15,73.83,251.11,73.76,251.17,73.62Zm3.5-5.32-1.07,2.85h2.13Z"/><path class="cls-1" d="M264.64,72.09q.21-.15.33,0l.5.86a.18.18,0,0,1,.06.15.34.34,0,0,1-.11.14,3.89,3.89,0,0,1-1,.51,3.49,3.49,0,0,1-1.21.19,3.79,3.79,0,0,1-1.5-.3,4,4,0,0,1-1.23-.82,3.87,3.87,0,0,1-.83-1.23,3.9,3.9,0,0,1,0-3,3.89,3.89,0,0,1,.83-1.21,3.84,3.84,0,0,1,1.23-.82,3.79,3.79,0,0,1,1.5-.3,3.61,3.61,0,0,1,2.19.7.19.19,0,0,1,.08.14.36.36,0,0,1,0,.11l-.53.9c-.06.08-.16.09-.29,0a3.92,3.92,0,0,0-.68-.34,2.27,2.27,0,0,0-.75-.12,2.3,2.3,0,0,0-.95.19,2.17,2.17,0,0,0-.75.51,2.4,2.4,0,0,0-.49.78,2.48,2.48,0,0,0-.19,1,2.67,2.67,0,0,0,.68,1.75,2.37,2.37,0,0,0,.75.53,2.44,2.44,0,0,0,1.73.06A2.16,2.16,0,0,0,264.64,72.09Z"/><path class="cls-1" d="M267.84,73.63v-7a.18.18,0,0,1,.2-.21h1.08a.18.18,0,0,1,.2.21v7a.18.18,0,0,1-.2.2H268A.18.18,0,0,1,267.84,73.63Z"/><path class="cls-1" d="M279.25,70.1a3.71,3.71,0,0,1-.3,1.49,3.88,3.88,0,0,1-2.05,2,3.82,3.82,0,0,1-4.21-.82,3.52,3.52,0,0,1-.81-1.22,3.71,3.71,0,0,1-.3-1.49,3.79,3.79,0,0,1,.3-1.5,3.62,3.62,0,0,1,.81-1.22,4.1,4.1,0,0,1,1.21-.82,3.9,3.9,0,0,1,3,0,4.29,4.29,0,0,1,1.22.82A4,4,0,0,1,279,68.6,3.79,3.79,0,0,1,279.25,70.1Zm-1.48,0a2.47,2.47,0,0,0-.18-.95,2.38,2.38,0,0,0-.5-.77,2.34,2.34,0,0,0-.75-.52,2.23,2.23,0,0,0-.94-.19,2.26,2.26,0,0,0-.94.19,2.46,2.46,0,0,0-.75.52,2.36,2.36,0,0,0-.49.77,2.47,2.47,0,0,0-.17.95,2.5,2.5,0,0,0,.17,1,2.47,2.47,0,0,0,.49.77,2.43,2.43,0,0,0,.75.51,2.26,2.26,0,0,0,.94.19,2.23,2.23,0,0,0,.94-.19,2.32,2.32,0,0,0,.75-.51,2.44,2.44,0,0,0,.68-1.72Zm-1.32-6L276,65.19a.27.27,0,0,1-.26.21H275a.19.19,0,0,1-.13,0,.13.13,0,0,1,0-.1.19.19,0,0,1,0-.08.76.76,0,0,1,0-.11l.44-1q.11-.21.27-.21h.75c.1,0,.14,0,.14.1A.36.36,0,0,1,276.45,64.13Z"/><path class="cls-1" d="M281.53,66.59a.25.25,0,0,1,.05-.15.24.24,0,0,1,.17-.07h1.17a.53.53,0,0,1,.17,0,.24.24,0,0,1,.13.11l3.3,4.76V66.52a.18.18,0,0,1,.1-.12.27.27,0,0,1,.12,0h1a.29.29,0,0,1,.16.06.21.21,0,0,1,.08.16v7c0,.15-.08.22-.24.22h-1c-.08,0-.14,0-.17,0a.6.6,0,0,1-.12-.11l-3.48-5v5c0,.15-.07.22-.23.22h-1a.19.19,0,0,1-.22-.22Z"/><path class="cls-1" d="M73.77,59.39V38.05a.66.66,0,0,1,.18-.51.69.69,0,0,1,.46-.17h9.82a6.36,6.36,0,0,1,2.86.65,7.13,7.13,0,0,1,2.23,1.68,7.75,7.75,0,0,1,1.45,2.37,7.39,7.39,0,0,1,0,5.42,7.66,7.66,0,0,1-1.42,2.36,6.84,6.84,0,0,1-2.2,1.66,6.33,6.33,0,0,1-2.84.63H79.64v7.25c0,.44-.23.67-.7.67H74.41A.58.58,0,0,1,73.77,59.39Zm9.17-17.18h-3.3v5.1h3.3a2.09,2.09,0,0,0,1.75-.78,2.83,2.83,0,0,0,.61-1.76,2.76,2.76,0,0,0-.17-.92,3,3,0,0,0-.46-.82,2.26,2.26,0,0,0-.73-.6A2.19,2.19,0,0,0,82.94,42.21Z"/><path class="cls-1" d="M92.52,59.39V38.05a.77.77,0,0,1,.15-.46.56.56,0,0,1,.49-.22h10.15a6.55,6.55,0,0,1,3,.66A7.63,7.63,0,0,1,110,42.19a7.72,7.72,0,0,1,.52,2.8,6.67,6.67,0,0,1-1,3.51,8.35,8.35,0,0,1-2.7,2.75l4.37,8.14a.47.47,0,0,1,.06.45c-.06.15-.21.22-.43.22h-5.5a.78.78,0,0,1-.49-.12,1.49,1.49,0,0,1-.34-.52l-3.64-6.91H98.42v6.88a.6.6,0,0,1-.68.67H93.16C92.73,60.06,92.52,59.83,92.52,59.39Zm9.29-17.31H98.42v5.53h3.39a2.57,2.57,0,0,0,1.1-.22,3,3,0,0,0,.86-.62,2.6,2.6,0,0,0,.56-.88,2.86,2.86,0,0,0,.2-1,2.91,2.91,0,0,0-.76-1.89,2.84,2.84,0,0,0-.86-.64A2.32,2.32,0,0,0,101.81,42.08Z"/><path class="cls-1" d="M112.13,48.75a11.41,11.41,0,0,1,.92-4.57,11.91,11.91,0,0,1,2.49-3.72,11.61,11.61,0,0,1,3.71-2.5,11.33,11.33,0,0,1,4.56-.92,11.2,11.2,0,0,1,4.54.92,11.73,11.73,0,0,1,6.22,6.22,11.74,11.74,0,0,1,0,9.11,11.71,11.71,0,0,1-2.51,3.7,12,12,0,0,1-3.71,2.49,11.37,11.37,0,0,1-4.54.92,11.5,11.5,0,0,1-4.56-.92,11.6,11.6,0,0,1-6.2-6.19A11.37,11.37,0,0,1,112.13,48.75Zm5.9,0a6.41,6.41,0,0,0,.43,2.38A5.93,5.93,0,0,0,119.65,53a5.65,5.65,0,0,0,1.84,1.29A5.75,5.75,0,0,0,128,53a6.11,6.11,0,0,0,1.19-1.91,6.75,6.75,0,0,0,0-4.74A6.27,6.27,0,0,0,128,44.44a5.49,5.49,0,0,0-1.84-1.3,5.85,5.85,0,0,0-4.64,0,5.39,5.39,0,0,0-1.84,1.3,6.09,6.09,0,0,0-1.19,1.92A6.38,6.38,0,0,0,118,48.72Z"/><path class="cls-1" d="M136.86,38c.27.66.59,1.47,1,2.45l1.27,3.17,1.42,3.5c.49,1.2,1,2.35,1.42,3.45l1.26,3q.56,1.39.93,2.28l.93-2.28c.38-.92.79-1.94,1.24-3.05l1.41-3.47,1.42-3.51c.45-1.13.88-2.18,1.27-3.16s.71-1.79,1-2.44a.91.91,0,0,1,.86-.59h1.31c.45,0,.68.18.68.52a1.06,1.06,0,0,1,0,.2,1.19,1.19,0,0,0,0,.17l-8.78,21.19a2.19,2.19,0,0,1-.21.38.66.66,0,0,1-.58.23h-.89a.72.72,0,0,1-.53-.2.92.92,0,0,1-.26-.38l-8.69-20.85a1.25,1.25,0,0,1-.12-.31,2.88,2.88,0,0,1-.09-.46c0-.32.22-.49.67-.49H136A.82.82,0,0,1,136.86,38Z"/><path class="cls-1" d="M152.82,55.1l-1.71,4.35a.92.92,0,0,1-.86.61h-1.31c-.43,0-.65-.16-.65-.49a1,1,0,0,1,0-.28.27.27,0,0,1,0-.12c1.46-3.54,2.7-6.53,3.71-8.94l2.51-6c.66-1.58,1.17-2.8,1.53-3.64s.61-1.47.78-1.86l.33-.82a1.89,1.89,0,0,1,.2-.35.66.66,0,0,1,.57-.2h.88a.65.65,0,0,1,.55.2,1.31,1.31,0,0,1,.22.35l8.8,21.28.06.13a1.84,1.84,0,0,1,0,.24c0,.33-.22.49-.67.49h-1.31a.82.82,0,0,1-.83-.58L164,55.1Zm5.59-13.78-4.49,11.19h9Z"/><path class="cls-1" d="M185.87,39.36c.26.16.39.34.39.52a.59.59,0,0,1-.07.29l-.14.23-.64,1c-.19.24-.36.37-.52.37l-.23-.08a1.45,1.45,0,0,1-.32-.17,10.16,10.16,0,0,0-2.54-1.3,8.63,8.63,0,0,0-2.78-.47,9,9,0,0,0-3.68.73,8.88,8.88,0,0,0-4.76,4.85,8.93,8.93,0,0,0-.67,3.44,8.45,8.45,0,0,0,.75,3.54,9.09,9.09,0,0,0,2,2.86,9.36,9.36,0,0,0,2.89,1.9,8.7,8.7,0,0,0,3.41.69,8.9,8.9,0,0,0,2.29-.31,10,10,0,0,0,2.51-1.13,3.43,3.43,0,0,0,.61-.41.84.84,0,0,1,.52-.26.67.67,0,0,1,.52.36l.7,1.16a1.14,1.14,0,0,1,.09.43.56.56,0,0,1-.33.52,12,12,0,0,1-3.21,1.67,11.49,11.49,0,0,1-3.76.6,11.34,11.34,0,0,1-4.54-.92,11.87,11.87,0,0,1-3.7-2.49,12,12,0,0,1-2.5-3.7,11.78,11.78,0,0,1,0-9.08A11.77,11.77,0,0,1,174.39,38a11.33,11.33,0,0,1,4.54-.91,11.58,11.58,0,0,1,3.68.59A12.21,12.21,0,0,1,185.87,39.36Z"/><path class="cls-1" d="M206.2,39.36c.26.16.39.34.39.52a.59.59,0,0,1-.07.29l-.14.23-.64,1c-.18.24-.36.37-.52.37L205,41.7a1.45,1.45,0,0,1-.32-.17,10.16,10.16,0,0,0-2.54-1.3,8.63,8.63,0,0,0-2.78-.47,9,9,0,0,0-3.68.73,8.88,8.88,0,0,0-4.76,4.85,8.93,8.93,0,0,0-.67,3.44,8.45,8.45,0,0,0,.75,3.54,9.09,9.09,0,0,0,2,2.86,9.36,9.36,0,0,0,2.89,1.9,8.7,8.7,0,0,0,3.41.69,8.9,8.9,0,0,0,2.29-.31,10,10,0,0,0,2.51-1.13,3.11,3.11,0,0,0,.61-.41.84.84,0,0,1,.52-.26.67.67,0,0,1,.52.36l.7,1.16a1.14,1.14,0,0,1,.09.43.56.56,0,0,1-.33.52A12,12,0,0,1,203,59.8a11.49,11.49,0,0,1-3.76.6,11.34,11.34,0,0,1-4.54-.92,11.62,11.62,0,0,1-6.19-6.19,11.66,11.66,0,0,1,0-9.08,11.77,11.77,0,0,1,2.5-3.72A12,12,0,0,1,194.72,38a11.33,11.33,0,0,1,4.54-.91,11.58,11.58,0,0,1,3.68.59A12.21,12.21,0,0,1,206.2,39.36Z"/><path class="cls-1" d="M212.89,38.05V59.39a.59.59,0,0,1-.67.67h-1.28a.6.6,0,0,1-.68-.67V38.05a.6.6,0,0,1,.68-.68h1.28A.6.6,0,0,1,212.89,38.05Z"/><path class="cls-1" d="M236.43,60.06H235a.72.72,0,0,1-.58-.28L220.48,41.47V59.39c0,.44-.24.67-.71.67h-1.25a.59.59,0,0,1-.67-.67V38.08a.72.72,0,0,1,.18-.51.63.63,0,0,1,.49-.2h1.68a.69.69,0,0,1,.58.31l13.73,17.85V38a.62.62,0,0,1,.67-.59h1.25a.77.77,0,0,1,.51.19.59.59,0,0,1,.23.49V59.39C237.17,59.83,236.92,60.06,236.43,60.06Z"/><path class="cls-1" d="M242.7,37.37h14.7a.62.62,0,0,1,.68.71v1.25a.7.7,0,0,1-.19.49.64.64,0,0,1-.52.21H244.66v6.76h10.12a.71.71,0,0,1,.47.17.66.66,0,0,1,.2.53v1.26a.76.76,0,0,1-.17.48.58.58,0,0,1-.5.22H244.66V57.4H257.5c.47,0,.7.24.7.73v1.26a.6.6,0,0,1-.67.67H242.7c-.45,0-.67-.22-.67-.64V38.08C242,37.61,242.25,37.37,242.7,37.37Z"/><path class="cls-1" d="M274.49,42.08c-.24-.22-.55-.48-.91-.76a8.53,8.53,0,0,0-1.26-.81,7.9,7.9,0,0,0-1.54-.64,5.93,5.93,0,0,0-1.82-.26,6.71,6.71,0,0,0-2.22.32,4.47,4.47,0,0,0-1.53.84,3.38,3.38,0,0,0-.88,1.17,3.2,3.2,0,0,0-.29,1.33,2.11,2.11,0,0,0,.47,1.35,4,4,0,0,0,1.26,1,9.39,9.39,0,0,0,1.75.72c.65.21,1.31.4,2,.58.92.25,1.85.52,2.8.81a12.27,12.27,0,0,1,2.6,1.15,6.44,6.44,0,0,1,1.92,1.74,4.43,4.43,0,0,1,.75,2.66,6.43,6.43,0,0,1-.67,3,6.9,6.9,0,0,1-1.82,2.23,8.3,8.3,0,0,1-2.71,1.41,11.37,11.37,0,0,1-3.36.48,11,11,0,0,1-4.54-1,9.15,9.15,0,0,1-3.62-2.89,1,1,0,0,1-.25-.55.61.61,0,0,1,.28-.49l1-.82a.72.72,0,0,1,.46-.16.59.59,0,0,1,.41.2L263,55a8.25,8.25,0,0,0,1.51,1.24,11.38,11.38,0,0,0,1.68.89,10.78,10.78,0,0,0,1.61.53,6,6,0,0,0,1.31.19,8.37,8.37,0,0,0,2-.26,6.71,6.71,0,0,0,1.9-.8,4.55,4.55,0,0,0,1.4-1.36,3.35,3.35,0,0,0,.55-1.92,2.37,2.37,0,0,0-.52-1.58A4.61,4.61,0,0,0,273,50.79a10.93,10.93,0,0,0-2-.78c-.75-.21-1.52-.42-2.31-.62a16.89,16.89,0,0,1-5.66-2.34,4.34,4.34,0,0,1-1.86-3.69,5.85,5.85,0,0,1,.55-2.56,5.55,5.55,0,0,1,1.58-2,7.71,7.71,0,0,1,2.5-1.31,10.8,10.8,0,0,1,3.22-.45,9.44,9.44,0,0,1,3.73.81A10.31,10.31,0,0,1,276,39.94l.38.44a.65.65,0,0,1,.2.42.73.73,0,0,1-.24.49l-.92.88a.56.56,0,0,1-.4.22A.84.84,0,0,1,274.49,42.08Z"/><path class="cls-2" d="M42.12,67.81h6.75a6.76,6.76,0,0,0,6.76-6.76h0a6.76,6.76,0,0,0-6.76-6.75H35.37a6.76,6.76,0,0,0-6.76,6.75V74.56a6.76,6.76,0,0,0,6.76,6.75h0a6.75,6.75,0,0,0,6.75-6.75Z"/><path class="cls-2" d="M13.51,67.81H6.75A6.76,6.76,0,0,1,0,61.05H0A6.75,6.75,0,0,1,6.75,54.3H20.26A6.75,6.75,0,0,1,27,61.05V74.56a6.75,6.75,0,0,1-6.75,6.75h0a6.75,6.75,0,0,1-6.75-6.75Z"/><path class="cls-2" d="M42.12,39.19h6.75A6.76,6.76,0,0,1,55.63,46h0a6.76,6.76,0,0,1-6.76,6.75H35.37A6.76,6.76,0,0,1,28.61,46V32.44a6.76,6.76,0,0,1,6.76-6.75h0a6.75,6.75,0,0,1,6.75,6.75Z"/><path class="cls-2" d="M13.51,39.19H6.75A6.76,6.76,0,0,0,0,46H0A6.75,6.75,0,0,0,6.75,52.7H20.26A6.75,6.75,0,0,0,27,46V32.44a6.75,6.75,0,0,0-6.75-6.75h0a6.75,6.75,0,0,0-6.75,6.75Z"/></svg>