<svg id="Layer_1" data-name="Layer 1" xmlns="http://www.w3.org/2000/svg" viewBox="0 0 288 107"><defs><style>.cls-1{fill:#c1c7d0;}</style></defs><title>Artboard 49 copy 5</title><path class="cls-1" d="M107.81,64.65V24.38a9.58,9.58,0,0,1,1.26-.15c5.82,0,11.64-.15,17.44.06a23.5,23.5,0,0,1,7.36,1.51c3.58,1.36,5.17,4.41,5.42,8.15.27,4-.86,7.33-4.45,9.52l-1,.59c5.63,2.87,7.34,5.68,6.91,11.19a9.41,9.41,0,0,1-7.4,8.68,16.29,16.29,0,0,1-4,.69C122.25,64.69,115.15,64.65,107.81,64.65Zm6.55-17.35v12c3.34,0,6.55,0,9.76,0a30.57,30.57,0,0,0,5.16-.31c3.28-.62,4.92-2.7,4.87-5.79s-1.83-5.54-5-5.75C124.3,47.06,119.37,47.3,114.36,47.3Zm-.06-5.6c4.21,0,8.28,0,12.35,0a6.18,6.18,0,0,0,2-.44,5.55,5.55,0,0,0,4-5.64c0-2.76-1.36-5.06-4.11-5.41-4.66-.6-9.39-.61-14.19-.88Z"/><path class="cls-1" d="M23.28,49.67l10,15c-2.53,0-4.73.07-6.92-.06a2.44,2.44,0,0,1-1.46-1.15c-2.7-4.07-5.29-8.21-8-12.25a3.21,3.21,0,0,0-2.18-1.18C12.37,49.91,10,50,7.5,50V64.54H1V24.23c3.26,0,6.47,0,9.67,0,3.76.06,7.59-.17,11.29.38,6.51,1,10,4.79,10.43,10.67.56,7.61-1.85,11.59-8.46,14A4.2,4.2,0,0,0,23.28,49.67ZM7.51,44.36c4.28,0,8.36.24,12.4-.08,3.6-.28,5.67-2.86,5.84-6.33.22-4.43-1.28-7.19-5.13-7.8-4.28-.67-8.68-.58-13.11-.82Z"/><path class="cls-1" d="M98,64.7c-1.5,0-2.91.08-4.3-.06-.39,0-.9-.68-1-1.13a28.48,28.48,0,0,1-.51-3.3c-.46.43-.77.7-1.06,1-3.45,3.53-7.56,5.2-12.44,3.82s-6.73-5.14-7.71-9.58a23.28,23.28,0,0,1,.43-12.28c2.06-6.49,7.69-9.9,14.44-8.66,2,.36,3.91,1,6.06,1.59V21.46H98ZM91.86,49.09V44.64c0-4-.35-4.44-4.42-5.15-.36-.07-.73-.11-1.1-.16-4.24-.6-7.61,1.25-8.62,5.43a23.47,23.47,0,0,0-.48,8.75c1.12,7.26,6.85,9.36,12.74,5,.3-.23.68-.41.85-.71a5.77,5.77,0,0,0,1-2.2C92,53.41,91.86,51.25,91.86,49.09Z"/><path class="cls-1" d="M286.24,59.69c.18.81.35,1.46.48,2.13.54,2.7.54,2.7-2.26,3.38-4.49,1.09-7.38-.22-9.15-4.28-.48.42-.92.81-1.37,1.18a13.9,13.9,0,0,1-12.32,3c-3.22-.7-5.48-2.54-6.19-5.88a8,8,0,0,1,3-8.44c3.21-2.58,7.1-3.34,11.06-3.83,1.77-.22,3.55-.32,5.31-.47.89-4.17-1.11-6.84-5.24-7.1a20.93,20.93,0,0,0-9.88,2.05l-1.83.8a27.09,27.09,0,0,1-.69-3.38,1.84,1.84,0,0,1,.74-1.42,21.82,21.82,0,0,1,16.24-2.58c4.23,1,6.77,4.33,7,9.15.19,3.33.09,6.67.12,10,0,.68,0,1.36,0,2C281.34,60.05,282.37,60.83,286.24,59.69ZM275,49.43a35.64,35.64,0,0,0-5.43.69,25.79,25.79,0,0,0-6.07,2.5A4.37,4.37,0,0,0,262,57.91a4.43,4.43,0,0,0,4.17,2.84c3.25.27,5.88-1.06,8.22-3.12a1.94,1.94,0,0,0,.63-1.24C275.05,54.18,275,52,275,49.43Z"/><path class="cls-1" d="M177.48,59.65c.18.86.34,1.58.49,2.3.51,2.52.5,2.54-2.09,3.21-4.59,1.18-7.64-.18-9.3-4.27-2.26,2.11-4.71,3.93-7.83,4.25a21.43,21.43,0,0,1-6-.09,7.1,7.1,0,0,1-6-5.8,8,8,0,0,1,2.81-8.32c3.22-2.7,7.19-3.44,11.2-4,1.78-.22,3.57-.32,5.35-.47,1-3.79-1-6.71-4.85-7.07a20.24,20.24,0,0,0-10.08,1.92l-2,.9a35.13,35.13,0,0,1-.75-3.5,1.65,1.65,0,0,1,.71-1.27c5.15-2.91,10.63-4,16.42-2.57,4.07,1,6.54,4.13,6.87,8.68.25,3.57.16,7.16.22,10.75,0,.68,0,1.36,0,2C172.66,60.11,173.77,60.88,177.48,59.65ZM166.32,49.38a51.42,51.42,0,0,0-6.35.92,18.81,18.81,0,0,0-5.19,2.28,4.51,4.51,0,0,0,2.6,8.17c3.32.28,6-1.11,8.37-3.26a1.76,1.76,0,0,0,.55-1.09C166.35,54.19,166.32,52,166.32,49.38Z"/><path class="cls-1" d="M65.37,51.25H43.94c-.41,5.48,2.82,8.83,8.5,9a21.33,21.33,0,0,0,10.73-2.53,26.56,26.56,0,0,1,.71,3.48,1.75,1.75,0,0,1-.76,1.39c-5.49,2.71-11.22,3.76-17.24,2.07a11,11,0,0,1-6-4.18c-4.43-6-3.31-17.52,2.2-22.61,4.31-4,12.71-4.83,17.71-1.77,3.74,2.28,5,5.94,5.51,10A50.72,50.72,0,0,1,65.37,51.25ZM59.62,47.6c.28-5-2-8.2-6-8.5-5.48-.42-9.17,2.81-9.62,8.5Z"/><path class="cls-1" d="M181.65,59.39c3.81.47,7.38,1,11,1.26a9.05,9.05,0,0,0,4-1.11,3.52,3.52,0,0,0,2.09-3.45A3.33,3.33,0,0,0,196.26,53c-1.87-.63-3.8-1.05-5.7-1.59-1.55-.44-3.11-.82-4.61-1.39a6.87,6.87,0,0,1-4.85-6.77,7.42,7.42,0,0,1,4.42-7.15c4-2,8.38-1.92,12.72-1.52,1.76.16,3.49.62,5.4,1l-.8,4c-3.48-.15-6.73-.39-10-.39a6.62,6.62,0,0,0-3.52.92,4.39,4.39,0,0,0-1.89,2.86,3.52,3.52,0,0,0,1.79,2.69,53.57,53.57,0,0,0,6.7,2.05c1.36.39,2.76.69,4.08,1.2,2.68,1,4.73,2.73,5.08,5.82.39,3.4-.54,6.47-3.57,8.17a22.43,22.43,0,0,1-7.45,2.48A24,24,0,0,1,182.76,64c-1.48-.51-2.19-1.18-1.51-2.81A7.4,7.4,0,0,0,181.65,59.39Z"/><path class="cls-1" d="M249.14,41a17.53,17.53,0,0,0-9.64-1.29c-4.59.79-6.84,2.8-7.46,7.42a22.23,22.23,0,0,0,.33,7.32c.8,3.74,3.79,5.8,8.24,5.74a80.21,80.21,0,0,0,8.82-1.05l1,4.41a70.3,70.3,0,0,1-8,1.77,23.62,23.62,0,0,1-6.81-.34A11.65,11.65,0,0,1,226,55.86a21.61,21.61,0,0,1,.34-12.24c1.84-5.69,6-8.61,11.8-9.2a23.76,23.76,0,0,1,10.39,1.29c1.31.46,1.8,1.06,1.32,2.42A26.11,26.11,0,0,0,249.14,41Z"/><path class="cls-1" d="M212.29,35.21h6V64.6h-6Z"/><path class="cls-1" d="M158.59,31.64c1.37-3.24,2.5-5.95,3.69-8.63a1.19,1.19,0,0,1,1-.52c1.62.27,3.22.63,5,1-2,2.57-3.71,5.07-5.77,7.23C161.82,31.45,160.22,31.3,158.59,31.64Z"/><path class="cls-1" d="M258.23,85.34c-1.85-1-2.48-2.89-3.61-4.31A40.47,40.47,0,0,0,251,76.61v8.55l-.65,0v-11l.43-.22,6.37,8.86.48,0v-8.6h.65Z"/><path class="cls-1" d="M215.25,31.35c-2.14,0-3.44-1.17-3.45-3s1.39-3.07,3.62-3,3.43,1.16,3.44,3S217.53,31.37,215.25,31.35Z"/><path class="cls-1" d="M207.63,74.14v11l-.59,0V76.58l-.41-.07L203,81.19l-3.39-4.67-.41,0v9c-1.14-1.42-1.28-9.08-.42-11.86l4.27,5.83c1.43-1.93,2.79-3.74,4.15-5.56Z"/><path class="cls-1" d="M183.77,85.18c-2.89.5-5.41-2.75-5.39-5.55a5.52,5.52,0,1,1,11,.06C189.36,82.25,187.19,85.7,183.77,85.18Zm.14-10.36a4.6,4.6,0,0,0-4.5,4.69,4.49,4.49,0,1,0,8.94.07A4.64,4.64,0,0,0,183.91,74.82Z"/><path class="cls-1" d="M241,85.4c-1-1.5-1.51-3.14-4-3.09s-2.87,1.57-3.77,3.09l-.62-.46L236.72,74l.72-.09,4.05,11Zm-3.84-9.54c-.81,2.14-1.43,3.78-2.11,5.56h4.1Z"/><path class="cls-1" d="M23.24,74.05q2,5.46,4,10.91l-.45.37c-1.19-1.16-1.47-3.07-4-3s-2.9,1.73-4,3.09L18.33,85l4.16-11Zm-2.49,7.37h4.13l-2-5.49Z"/><path class="cls-1" d="M135.49,83a8.51,8.51,0,0,0,2,1.06,6.2,6.2,0,0,0,3,.09,2.74,2.74,0,0,0,1.66-1.86c0-.63-.84-1.51-1.53-1.92a17.69,17.69,0,0,0-2.81-.87c-1.32-.49-2.51-1.2-2.37-2.89s1.27-2.3,2.66-2.69a3.73,3.73,0,0,1,4.47,2.1,10,10,0,0,0-1.75-.81,5.53,5.53,0,0,0-2.66-.28,2.94,2.94,0,0,0-1.75,1.8c-.11.46.83,1.4,1.5,1.74,1,.53,2.25.64,3.32,1.09,1.35.57,2.31,1.56,1.92,3.16a3.07,3.07,0,0,1-3.07,2.47C138.26,85.24,136.35,85.28,135.49,83Z"/><path class="cls-1" d="M45.4,76.05c-3-1.61-5.85-2-7.95,1a4.24,4.24,0,0,0-.1,4.9c2,3.2,4.92,2.82,8.1,1.18-.92,2-2.92,2.57-5.61,2a5.79,5.79,0,0,1,.85-11.29A4.09,4.09,0,0,1,45.4,76.05Z"/><path class="cls-1" d="M168.38,76.19c-2.5-1.54-4.9-2.15-7-.2a5.41,5.41,0,0,0-1.61,3.33A5,5,0,0,0,161,82.78a6.09,6.09,0,0,0,3.58,1.53c1.15.1,2.37-.58,3.69-1-.85,1.74-3.27,2.4-5.72,1.73a5.84,5.84,0,0,1-3.93-5.86,5.91,5.91,0,0,1,5.18-5.43A4,4,0,0,1,168.38,76.19Z"/><path class="cls-1" d="M3.73,74.19h6.43l0,.59H4.61v4.33l4.91.23,0,.72-5,.32v4.81C3.44,84.57,3.06,78.23,3.73,74.19Z"/><path class="cls-1" d="M123.67,80h-5v4.36h5.5V85H117.7c0-3.36,0-6.79,0-10.22a1.15,1.15,0,0,1,.79-.77c1.93-.06,3.86,0,5.79,0l0,.84-5.64.3v4.14h4.89Z"/><path class="cls-1" d="M219.05,80.87c-.09,1.37-.18,2.82-.28,4.28l-.59,0V74.3c3.4-1,6.11-.1,6.6,2.18.33,1.55-.1,3-1.55,3.59A18.45,18.45,0,0,1,219.05,80.87Zm0-1.29c1.78,0,3.57.57,4.51-1.2a2.7,2.7,0,0,0-.1-2.37c-1.1-1.57-2.8-1-4.41-.9Z"/><path class="cls-1" d="M271.74,85.28c1.42-4.58-1.38-7.67-3.72-10.92l.69-.41,3.74,4.84,3.72-4.87.69.51c-1.18,1.65-2.7,3.16-3.43,5s-.53,3.82-.75,5.75Z"/><path class="cls-1" d="M95.19,75.1l-3.67-.33,0-.58h8.3l0,.57-3.69.36v10l-.73.09c-.58-.9-.23-2.05-.28-3.06s0-2.23,0-3.34Z"/><path class="cls-1" d="M66.84,84.26l5.56.26V85H66V73.9c.86.87.86.87.86,5.11Z"/><path class="cls-1" d="M55.66,73.68c1.07,1.89,1,10.49,0,11.57Z"/><path class="cls-1" d="M81.51,85.08V74C82.62,75.07,82.73,83.6,81.51,85.08Z"/><path class="cls-1" d="M107.54,85.1V74.18h.59c.6,3.63.07,7.28,0,10.92Z"/></svg>