<svg id="Layer_1" data-name="Layer 1" xmlns="http://www.w3.org/2000/svg" xmlns:xlink="http://www.w3.org/1999/xlink" viewBox="0 0 288 107"><defs><style>.cls-1{fill:#c1c7d0;}.cls-2{opacity:0.4;}.cls-3{clip-path:url(#clip-path);}.cls-4{clip-path:url(#clip-path-2);}.cls-5{clip-path:url(#clip-path-3);}.cls-6{clip-path:url(#clip-path-4);}.cls-7{clip-path:url(#clip-path-5);}.cls-8{clip-path:url(#clip-path-6);}.cls-9{clip-path:url(#clip-path-7);}.cls-10{clip-path:url(#clip-path-8);}.cls-11{clip-path:url(#clip-path-9);}.cls-12{clip-path:url(#clip-path-10);}.cls-13{clip-path:url(#clip-path-11);}.cls-14{clip-path:url(#clip-path-12);}.cls-15{clip-path:url(#clip-path-13);}</style><clipPath id="clip-path"><path class="cls-1" d="M150.43,95.39c-1.8,6.72-7,11.56-14.82,11.56-10.1,0-15.53-7.66-15.53-17.1s5.67-17.1,15.53-17.1c10.46,0,13.11,4.65,13.11,9.53s-5.06,8.08-15.44,8.08l-.05-1.15s6.63-1.08,6.63-7.89c0-6.22-2.33-7-3.77-7-2.93,0-4.55,3.24-4.55,15.74s5.63,13.45,9.07,13.45c6.2,0,8.6-6.09,8.6-8.32Z"/></clipPath><clipPath id="clip-path-2"><path class="cls-1" d="M193.88,68.76a5.66,5.66,0,1,0-5.66-5.66,5.65,5.65,0,0,0,5.66,5.66"/></clipPath><clipPath id="clip-path-3"><path class="cls-1" d="M199.46,106V72.85s-3.21,2.33-9.23,2.33h-4.45v1h2.44V106h-1.95v1h15.15v-1Z"/></clipPath><clipPath id="clip-path-4"><path class="cls-1" d="M44.35,68.76a5.66,5.66,0,1,0-5.66-5.66,5.65,5.65,0,0,0,5.66,5.66"/></clipPath><clipPath id="clip-path-5"><path class="cls-1" d="M49.93,106V72.85s-3.21,2.33-9.23,2.33H36.25v1h2.44V106H36.74v1H51.89v-1Z"/></clipPath><clipPath id="clip-path-6"><path class="cls-1" d="M222.11,72.67c-10.85,0-16.81,7.27-16.81,17.16,0,9.69,5.21,17.12,16.53,17.12s16.75-7.68,16.75-17.12-6-17.16-16.47-17.16m-.25,33.27c-4.71,0-5.14-7.24-5.14-16.11s.48-16.06,5.19-16.06c4.52,0,5.19,7.19,5.19,16.06s-.61,16.11-5.24,16.11"/></clipPath><clipPath id="clip-path-7"><path class="cls-1" d="M117.86,73.84v-1H113V63.21h-1s-1,5.87-8.52,5.87h-1.72v3.78H98.31v1h3.42V106h-2v1h15.15v-1h-2V73.84Z"/></clipPath><clipPath id="clip-path-8"><path class="cls-1" d="M71,72.85s-3.21,2.33-9.23,2.33H57.33v1h2.44V106h-2v1H73v-1H71Z"/></clipPath><clipPath id="clip-path-9"><path class="cls-1" d="M91,106V83.51A10.48,10.48,0,0,0,80.32,72.89a11.14,11.14,0,0,0-7.91,3.56v1.38a4.37,4.37,0,0,1,3.24-1.53c2.67,0,4.09,2.19,4.09,4.81V106H77.79v1H92.93v-1Z"/></clipPath><clipPath id="clip-path-10"><path class="cls-1" d="M167.7,72.85s-3.22,2.33-9.23,2.33H154v1h2.45V106h-2v1h15.14v-1h-2Z"/></clipPath><clipPath id="clip-path-11"><path class="cls-1" d="M169.17,77v1.85a2.53,2.53,0,0,1,2.26-1.45,2.93,2.93,0,0,1,2.81,3.08,3.17,3.17,0,0,1-2.23,3.3c0,3.66,9.6,3.92,9.6-2.72,0-5.93-8.54-8.27-12.44-4.06"/></clipPath><clipPath id="clip-path-12"><path class="cls-1" d="M256.15,72.85s-3.22,2.33-9.24,2.33h-4.45v1h2.45V106h-2v1H258.1v-1h-2Z"/></clipPath><clipPath id="clip-path-13"><path class="cls-1" d="M257.62,77v1.85a2.53,2.53,0,0,1,2.26-1.45,2.93,2.93,0,0,1,2.81,3.08,3.17,3.17,0,0,1-2.24,3.3c0,3.66,9.6,3.92,9.6-2.72,0-5.93-8.53-8.27-12.43-4.06"/></clipPath></defs><title>Artboard 49 copy 10</title><path class="cls-1" d="M48.3,38.05c-1.8,6.72-7,11.56-14.82,11.56C23.38,49.61,18,42,18,32.51s5.67-17.1,15.53-17.1c10.46,0,13.11,4.64,13.11,9.53S41.53,33,31.16,33l-.06-1.15s6.63-1.08,6.63-7.9c0-6.21-2.33-7-3.77-7-2.93,0-4.55,3.24-4.55,15.74s5.64,13.45,9.07,13.45c6.2,0,8.6-6.09,8.6-8.33Z"/><path class="cls-1" d="M57.94,21.42c0-5.3,5.82-5,5.82-5l-.3-1c-3.38,0-13.35,1-13.35,11.09,0,11.15,18,10,18,17.37,0,4.79-5.57,4.79-5.57,4.79l.33.86c1.66,0,14-.2,14-10.81,0-12.23-18.94-9.56-18.94-17.3"/><path class="cls-1" d="M74.11,23.17h.6l-1.19-7.81c-.67,1-1.35,1.12-3.45.71a25.75,25.75,0,0,0-5.34-.65l.39,1.08a11.33,11.33,0,0,1,9,6.67"/><path class="cls-1" d="M50.79,38.07h-.6V49.6c.88-1.69,2.66-1.06,4.76-.64a42.24,42.24,0,0,0,6.55.57l-.33-.92A11.41,11.41,0,0,1,50.79,38.07"/><path class="cls-1" d="M152.16,42.11s.22,3.67-2.5,3.67c-2.55,0-2.49-2.64-2.49-3.79,0-5.84.09-13.46.09-16.38,0-3.16-2.66-10.2-14.09-10.2,0,0-.4,1.08-.39,1.08a5,5,0,0,1,3.16,4.6V39.48a17.84,17.84,0,0,0,.44,4.49c-.32,1-1.33,3.36-3.83,3.36-2.85,0-4.28-1.55-4.28-7.35,0-6.21,4.28-8.19,5.79-8.19l-.16-.63s-15.72,0-15.72,9.58c0,6.47,5.74,8.95,10.71,8.95a8.7,8.7,0,0,0,7.77-4.8c.92,2.55,3,4.79,7.8,4.79,8.32,0,8.55-7.36,8.55-7.36Z"/><path class="cls-1" d="M129.62,25.32a3.4,3.4,0,0,1-3.89-3.64,5.5,5.5,0,0,1,5.2-5.47l.2-.76S120,15.3,120,22.59c0,6.61,9.61,6.38,9.61,2.73"/><path class="cls-1" d="M182.93,37.84c0,2.24-2.4,8.33-8.6,8.33-3.44,0-9.08-1.09-9.08-13.45s1.51-15.68,4.48-16.28a6.44,6.44,0,0,1,1-.12l-.21-.88-1.18,0c-9.86,0-15.52,7.66-15.52,17.1s5.43,17.1,15.52,17.1c7.84,0,13-4.84,14.83-11.56Z"/><path class="cls-1" d="M177.71,21.68a3.4,3.4,0,0,1-3.89,3.64c0,3.65,9.61,3.88,9.61-2.73,0-7.29-11.12-7.14-11.12-7.14l.2.75a5.51,5.51,0,0,1,5.2,5.48"/><path class="cls-1" d="M193.88,11.34a5.66,5.66,0,1,0-5.66-5.66,5.65,5.65,0,0,0,5.66,5.66"/><path class="cls-1" d="M199.46,48.55V15.43s-3.21,2.34-9.23,2.34h-4.45v1h2.44V48.55h-1.95v1h15.15v-1Z"/><path class="cls-1" d="M98.74,15.41A8.69,8.69,0,0,0,92,18.19V15.44a17.69,17.69,0,0,1-9.27,2.33H78.28v1h2.44V63.21h-2v1H93.91v-1H92V21.54c.57-2.17,2.58-4.63,4.76-4.63,3.21,0,6.09,4.4,6.09,15.81,0,15.81-4.84,16.44-8.55,14.59l-.34,1a9.32,9.32,0,0,0,4.82,1.27c10.1,0,15.53-7.66,15.53-17.1s-5.67-17.1-15.53-17.1"/><path class="cls-1" d="M222.11,15.35c-10.85,0-16.81,7.27-16.81,17.16,0,9.69,5.21,17.11,16.53,17.11S238.58,42,238.58,32.51s-6-17.16-16.47-17.16m-.25,33.27c-4.71,0-5.14-7.24-5.14-16.11s.48-16.07,5.19-16.07c4.52,0,5.19,7.2,5.19,16.07s-.61,16.11-5.24,16.11"/><path class="cls-1" d="M150.43,95.39c-1.8,6.72-7,11.56-14.82,11.56-10.1,0-15.53-7.66-15.53-17.1s5.67-17.1,15.53-17.1c10.46,0,13.11,4.65,13.11,9.53s-5.06,8.08-15.44,8.08l-.05-1.15s6.63-1.08,6.63-7.89c0-6.22-2.33-7-3.77-7-2.93,0-4.55,3.24-4.55,15.74s5.63,13.45,9.07,13.45c6.2,0,8.6-6.09,8.6-8.32Z"/><path class="cls-1" d="M193.88,68.76a5.66,5.66,0,1,0-5.66-5.66,5.65,5.65,0,0,0,5.66,5.66"/><path class="cls-1" d="M199.46,106V72.85s-3.21,2.33-9.23,2.33h-4.45v1h2.44V106h-1.95v1h15.15v-1Z"/><path class="cls-1" d="M44.35,68.76a5.66,5.66,0,1,0-5.66-5.66,5.65,5.65,0,0,0,5.66,5.66"/><path class="cls-1" d="M49.93,106V72.85s-3.21,2.33-9.23,2.33H36.25v1h2.44V106H36.74v1H51.89v-1Z"/><path class="cls-1" d="M222.11,72.67c-10.85,0-16.81,7.27-16.81,17.16,0,9.69,5.21,17.12,16.53,17.12s16.75-7.68,16.75-17.12-6-17.16-16.47-17.16m-.25,33.27c-4.71,0-5.14-7.24-5.14-16.11s.48-16.06,5.19-16.06c4.52,0,5.19,7.19,5.19,16.06s-.61,16.11-5.24,16.11"/><path class="cls-1" d="M117.86,73.84v-1H113V63.21h-1s-1,5.87-8.52,5.87h-1.72v3.78H98.31v1h3.42V106h-2v1h15.15v-1h-2V73.84Z"/><path class="cls-1" d="M71,72.85s-3.21,2.33-9.23,2.33H57.33v1h2.44V106h-2v1H73v-1H71Z"/><path class="cls-1" d="M91,106V83.51A10.48,10.48,0,0,0,80.32,72.89a11.14,11.14,0,0,0-7.91,3.56v1.38a4.37,4.37,0,0,1,3.24-1.53c2.67,0,4.09,2.19,4.09,4.81V106H77.79v1H92.93v-1Z"/><path class="cls-1" d="M167.7,72.85s-3.22,2.33-9.23,2.33H154v1h2.45V106h-2v1h15.14v-1h-2Z"/><path class="cls-1" d="M169.17,77v1.85a2.53,2.53,0,0,1,2.26-1.45,2.93,2.93,0,0,1,2.81,3.08,3.17,3.17,0,0,1-2.23,3.3c0,3.66,9.6,3.92,9.6-2.72,0-5.93-8.54-8.27-12.44-4.06"/><path class="cls-1" d="M256.15,72.85s-3.22,2.33-9.24,2.33h-4.45v1h2.45V106h-2v1H258.1v-1h-2Z"/><path class="cls-1" d="M257.62,77v1.85a2.53,2.53,0,0,1,2.26-1.45,2.93,2.93,0,0,1,2.81,3.08,3.17,3.17,0,0,1-2.24,3.3c0,3.66,9.6,3.92,9.6-2.72,0-5.93-8.53-8.27-12.43-4.06"/><g class="cls-2"><path class="cls-1" d="M150.43,95.39c-1.8,6.72-7,11.56-14.82,11.56-10.1,0-15.53-7.66-15.53-17.1s5.67-17.1,15.53-17.1c10.46,0,13.11,4.65,13.11,9.53s-5.06,8.08-15.44,8.08l-.05-1.15s6.63-1.08,6.63-7.89c0-6.22-2.33-7-3.77-7-2.93,0-4.55,3.24-4.55,15.74s5.63,13.45,9.07,13.45c6.2,0,8.6-6.09,8.6-8.32Z"/><g class="cls-3"><path class="cls-1" d="M121.82,96.88c-2.2-4.93-1.84-9.84.05-14.75l.27.24a3.62,3.62,0,0,1,.36,1.8c0,.5,0,1,0,1.5,0,.26,0,.52,0,.78.18,2.54-.26,5.07,0,7.61C122.5,95.05,122.75,96.11,121.82,96.88Z"/><path class="cls-1" d="M128.69,105.5l-.87-.11a1.12,1.12,0,0,1-.57-.62c-.19-.64-.8-.77-1.29-1a1.27,1.27,0,0,1-.53-.77,1.3,1.3,0,0,1,.2-.94c.72-.38,1.72-.5,1.6-1.68a1.53,1.53,0,0,1,.5-.89c2.34,0,2.8,1.67,3,3.51-.52.82-.24,2-1.14,2.66A1,1,0,0,1,128.69,105.5Z"/><path class="cls-1" d="M139.37,90l-1.44-.12c-.22-1.45-.31-2.83,1.54-3.33a14.77,14.77,0,0,1,2.39-.23.93.93,0,0,1,.71.68c.23.71-1,1.21-.3,2l-1.52.89Z"/><path class="cls-1" d="M121.87,82.13c.84-2.39,1.95-4.59,4.29-5.9l.3.1a1,1,0,0,1,.44.81.94.94,0,0,1-.37.5,2.5,2.5,0,0,0-1.15,1c-.26.52-.67,1-.95,1.47a7.22,7.22,0,0,1-.41.78,9.4,9.4,0,0,0-.6,1.39,1.24,1.24,0,0,1-.58.27,1.15,1.15,0,0,1-.9-.31Z"/><path class="cls-1" d="M145.6,102c0-.14.08-.27.11-.41,1.64-.54,1.69-2.42,2.87-3.35a.88.88,0,0,1,.36.85c.17.86-.59,1.33-.85,2-.46.85-.5,2.09-1.9,2.07A1.26,1.26,0,0,1,145.6,102Z"/><path class="cls-1" d="M125.8,102l0,1c-.5.26-.68-.21-1-.44-1-.72-1.22-2-1.84-3a1.54,1.54,0,0,1,1.74-.28,3.1,3.1,0,0,1,1.4,1.68A1.24,1.24,0,0,1,125.8,102Z"/><path class="cls-1" d="M121.82,96.88l.09-3.1c1-1.14,1.29-.16,1.49.6a10.43,10.43,0,0,1,.11,3.3,1.9,1.9,0,0,1-.7,1.55A2.62,2.62,0,0,1,121.82,96.88Z"/><path class="cls-1" d="M148.94,99.07l-.36-.85c-.35-1.21.93-1.86,1-2.93.86-.56,1.13,0,1.16.7a3.16,3.16,0,0,1-1.3,3.08Z"/><path class="cls-1" d="M122.81,99.23l.06-1.55c2.23-.52,2.49-.25,1.93,1.95l-1.84,0A.46.46,0,0,1,122.81,99.23Z"/><path class="cls-1" d="M127.74,74.44a1.87,1.87,0,0,1,.47,0c.43,1.69-.09,2.44-1.9,1.9l-.15-.15Z"/><path class="cls-1" d="M134,73a13.46,13.46,0,0,1,9.85,1.25c-.63,1.46-1.87,1.22-3.06,1.11a4.1,4.1,0,0,0-3-.42c-.82.08-1.63.05-2.45.06a5.85,5.85,0,0,0-1.72,0C132.38,74.13,133,73.55,134,73Z"/><path class="cls-1" d="M148.17,78.2a7.16,7.16,0,0,1-.1,7.34.81.81,0,0,1-1,.16c-.06-.06-.16-.12-.16-.18.26-2.28-.81-4.71.73-6.86A1.21,1.21,0,0,1,148.17,78.2Z"/><path class="cls-1" d="M134,73c-.29.59-1.05,1.06-.45,1.86a.93.93,0,0,1,.08,1.1l-1.05,2.29a1,1,0,0,1-.92.32c-.73-.22-.7-.76-.49-1.31a2.58,2.58,0,0,0-.46-2.42,1.66,1.66,0,0,1-.24-.58c0-.71.89-.45,1.11-.94A3,3,0,0,1,134,73Z"/><path class="cls-1" d="M147.12,85.55h.95a7.46,7.46,0,0,1-5.8,3.45c-1-.66,0-1.32,0-2,.89-.58,2.12-.35,2.89-1.22A3,3,0,0,1,147.12,85.55Z"/><path class="cls-1" d="M126.31,76.38c1.34.07,1.71-.83,1.9-1.9l.81-.15a1.64,1.64,0,0,1,1.59.06l0,0c1,2.75.42,3.37-3,3.49a1.65,1.65,0,0,1-.91-.6Z"/><path class="cls-1" d="M140.31,74.87c1.21,0,2.46.23,3.53-.6l.85.18a3.32,3.32,0,0,0,1.36,1.75c.78.43,1.51,1.16,1,2.28a1.83,1.83,0,0,1-1.67.12c-1.82-.78-3-2.63-5.12-2.92C139.67,75.06,139.67,75.06,140.31,74.87Z"/><path class="cls-1" d="M147.12,78.28c-.52-.68-.8-1.84-1.7-1.84-2.35,0-.89-1.19-.73-2a6,6,0,0,1,3.48,3.75l-.14.16A.67.67,0,0,1,147.12,78.28Z"/><path class="cls-1" d="M130.61,74.39,129,74.33a4,4,0,0,1,2.54-1Z"/><path class="cls-1" d="M131.59,78.28h1a126.46,126.46,0,0,0-.52,14.17,10.79,10.79,0,0,0,.57,3.3c0,1.85,1.07,3.31,1.84,4.88-.16.39-.13.91-.67,1.06a.83.83,0,0,1-.57-.29c-.84-.85-.88-2.22-1.92-3-.46-1.12-.19-2.4-.77-3.49.33-1.58-.25-3.12-.16-4.68a1.9,1.9,0,0,1-.2-.64c.7-1.78-.71-3.61.13-5.38a3.3,3.3,0,0,0,.68-2.16V80.7a8.76,8.76,0,0,1,.09-1.45A1.72,1.72,0,0,1,131.59,78.28Z"/><path class="cls-1" d="M138.45,86.06l.85-.64a1.1,1.1,0,0,1,.06,1.59c-1.77.31-.43,2.17-1.43,2.87L137,90c-1.23.3-2.22.33-1.54-1.43C136.5,87.75,137.85,87.35,138.45,86.06Z"/><path class="cls-1" d="M135.5,88.55c-.19,1.23.62,1.39,1.54,1.43a2.86,2.86,0,0,1-1.11.35c-.79-.08-2,.54-2.22-.64S134.88,88.94,135.5,88.55Z"/><path class="cls-1" d="M135,74.43l-.5.88-.87.67c0-.37-.05-.73-.08-1.1Z"/><path class="cls-1" d="M130.64,84.11c-.26,1.94.53,3.88,0,5.81-2.39,1-3.07.64-3.55-1.7a2.3,2.3,0,0,0-.45-1.34c-2.13-.68-2.71-.34-2.23,1.62.37,1.55,0,3.82,2.67,3.84a1.64,1.64,0,0,1,.92.6c.61,1.33.35,2.74.32,4.12-.1.87-.65,1.65-.59,2.56v1c-.55.51-1.09,1.09-1.93.48-.29-.51-1-.7-1-1.45.23-1.51-.41-2.16-1.93-1.95,0-1.13,0-2.25,0-3.38,0-.82-.48-.65-1-.52V86.06c.48-.17.41-.35,0-.54v-1.4c.71-.46.29-1.47,1-2h.47c.28-.35.08-1,.61-1.19.89-.69,1.8-1.09,2.83-.25a1.29,1.29,0,0,0,1,1.42,1.65,1.65,0,0,1,.3.46c.39.58.43-.19.68-.2a2,2,0,0,1,1-.21,1.5,1.5,0,0,1,1,.47A1.21,1.21,0,0,1,130.64,84.11Z"/><path class="cls-1" d="M122.87,82.16c-.42.6.87,2-1,2,0-.64,0-1.28,0-1.92Z"/><path class="cls-1" d="M121.92,85.52c.35,0,.81-.4.91.25a2.57,2.57,0,0,1-.17.84l-.75-.55C121.92,85.88,121.92,85.7,121.92,85.52Z"/><path class="cls-1" d="M127.72,99.62c-2-.65.11-1.3,0-1.94.83-.69.19-1.88.9-2.62.62-.46,1.26-.87,2-.3,1.88.9.56,2.6,1,3.87s1.52,1.8,1.93,2.93h0c-.26,1.22-1.14.58-1.69.67.77.33,1.68-.2,2.55,0,.47.12,1,.38,1,.87s-.44.76-.87.94a14.5,14.5,0,0,1-3.26.59,1.47,1.47,0,0,1-.69,0c-.29-.49-.69-.94-.48-1.57C130.09,101.35,129.48,100.07,127.72,99.62Z"/><path class="cls-1" d="M125.78,101.08l1.93-.48c.23,1.64-.44,2.07-1.91,1.42C125.79,101.71,125.79,101.39,125.78,101.08Z"/><path class="cls-1" d="M130.15,103l.48,1.45a.82.82,0,0,1,.09,1,.6.6,0,0,1-.7,0h-.18l-.18-.07C130.07,104.67,129.47,103.72,130.15,103Z"/><path class="cls-1" d="M127.66,104.55a1.87,1.87,0,0,1-1.43-1C127,103.52,127.72,103.46,127.66,104.55Z"/><path class="cls-1" d="M145.2,86.06c-.53,1.67-1.82,1-2.93,1l-.49-.48c-1,.47-1.71.3-1.78-1a1.08,1.08,0,0,1,.38-.58c1,1.07,1.28-.86,2.13-.55.35.13.57,0,.59-.34a1,1,0,0,1,1-.23C144.9,84.34,145.49,85,145.2,86.06Z"/><path class="cls-1" d="M140.34,85.09c-.12,1.08.38,1.54,1.44,1.44-.68.8-1.6.36-2.42.48l-.06-1.59a.47.47,0,0,1,.11-.34A.61.61,0,0,1,140.34,85.09Z"/><path class="cls-1" d="M131.12,104.47c1.09-1.12,2.79-.28,3.93-1.25-.91-1.08-2.24-.49-3.52-.82.6-.65,1.64-.05,2-.85l.92-.93,1.09.92c1.71,1.82,4,1.71,6.23,1.94.1,1.35-.94,1.59-1.86,1.67-2.28.19-4.57.26-6.86.4A1.75,1.75,0,0,1,131.12,104.47Z"/><path class="cls-1" d="M131.12,104.47c.37.15.75.44,1.11.42,2.68-.1,5.36-.27,8-.41a1.56,1.56,0,0,0,1.51-1l1.46-.44c.5.4.86.85.56,1.54l-.6.78-.88.1c-1.81.31-3.58.81-5.37,1.18a11.36,11.36,0,0,0-3.07-.59c-1.07-.25-2.25,0-3.24-.65v-.93Z"/><path class="cls-1" d="M143.8,104.58c-.18-.51-.37-1-.56-1.54L145.6,102a1.15,1.15,0,0,1,.58,1,3,3,0,0,0-.11.4Z"/><path class="cls-1" d="M136.45,106.39c2-.26,3.78-1.44,5.87-.93l-2,1c-3.53.76-7,.78-10.31-.92l.62-.09,3.87,0C134.83,106.41,135.94,105.79,136.45,106.39Z"/><path class="cls-1" d="M126.75,77.31h1a2.87,2.87,0,0,1,.55,2,1.75,1.75,0,0,1-.54,1.11c-1.35.14-2.73.45-3.87-.65.27-.51,1-.7,1-1.44.54-.51,1.38-.46,1.92-1Z"/><path class="cls-1" d="M123.86,79.73a9.67,9.67,0,0,0,3.85.49.83.83,0,0,1,.08,1,.84.84,0,0,1-1-.07c-1-1.11-1.94,0-2.91,0-.12-.11-.16-.21-.12-.32s.08-.16.12-.16Z"/><path class="cls-1" d="M126.75,77.31c-.36.88-1.1,1-1.92,1C125.17,77.39,125.92,77.27,126.75,77.31Z"/><path class="cls-1" d="M123.84,80.71v.48a1,1,0,0,1-.5,1C123.09,81.53,122.58,80.81,123.84,80.71Z"/><path class="cls-1" d="M140.28,79.29c-.71-1.67-.87-3.61-2.42-4.87.87-.15,1.8-.57,2.45.45-.32.17-.34.34,0,.51C140.55,76.69,141.74,78,140.28,79.29Z"/><path class="cls-1" d="M145.2,86.06l-1-2a6.64,6.64,0,0,1,.15-2c.14-.7-.41-1.32-.24-2,.37-.6.49-1.34,1.06-1.81h1.94l.91.08c-.79,2.33-.37,4.82-.91,7.19C146.62,86.25,145.87,86,145.2,86.06Z"/><path class="cls-1" d="M127.73,79.26c0-.65,0-1.3,0-2,2.32.4,3.27-.59,2.92-2.89,2,.86,1.17,2.44,1,3.86v1a2.75,2.75,0,0,1-.71.56c-.75.27-.68,1.21-1.3,1.58a1.07,1.07,0,0,1-.94-.06C128,80.79,128.43,79.78,127.73,79.26Z"/><path class="cls-1" d="M145.18,78.28c-.1.76.33,1.78-1,1.94-.72.66-1.82,1.08-1.53,2.39-.1,1.37-1,1.69-2.17,1.66-.95-.74.11-1.39.1-2.09,0-1,.44-2-.33-2.91v0c.73-1.3-.65-2.61,0-3.91C142.58,75.26,143.93,76.69,145.18,78.28Z"/><path class="cls-1" d="M140.28,79.27c1.57,1.17.73,2.59.42,3.94a7.06,7.06,0,0,1-.33.87.72.72,0,0,1,0,1h-.94A21.12,21.12,0,0,0,140.28,79.27Z"/><path class="cls-1" d="M130.66,94.76l-2,.49c-1.11-1,.25-2.92-1.39-3.73a5,5,0,0,1-1-.28c-1.09-1.14,0-1.15.7-1.33,1.17.48,2.47,0,3.63.49C130.46,91.85,131.72,93.3,130.66,94.76Z"/><path class="cls-1" d="M130.63,90.4h-3.88a3.6,3.6,0,0,1,0-4.36,1,1,0,0,1,1,1.35c-.46,2.54,1.07,2.71,2.93,2.53Z"/><path class="cls-1" d="M129.64,81.19c.13-.75-.31-1.78,1-1.94.5.38.49,1.08,1,1.46l0,1.42a1,1,0,0,1-.94.5h-1A1.05,1.05,0,0,1,129.64,81.19Z"/><path class="cls-1" d="M133.54,101.56c-.93-.79-2.28-1.3-1.93-2.93l.74-.56C132,99.49,133.85,100.15,133.54,101.56Z"/><path class="cls-1" d="M130.63,82.63a1.05,1.05,0,0,1,.94-.5c0,.78.36,1.78-.93,2C130.64,83.62,130.63,83.13,130.63,82.63Z"/><path class="cls-1" d="M131.59,80.71c-1,0-1-.76-1-1.46h1Z"/><path class="cls-1" d="M126.75,86V90.4l-.63.25.63.24a1.4,1.4,0,0,1,0,1.94c-1.18.19-2.57-.36-2.52-1.28.09-1.9-1.54-3.79-.18-5.6C124.81,84.94,125.84,86.06,126.75,86Z"/><path class="cls-1" d="M127.72,90.89c1.5,1.19.77,2.88,1,4.36-.23.85.58,2.12-1,2.43V92.83A1.4,1.4,0,0,1,127.72,90.89Z"/><path class="cls-1" d="M126.75,81.19h1a.66.66,0,0,1,.2.76l-.19.21c-.6-.1-1.44.74-1.76-.36C125.83,81.32,126.36,81.24,126.75,81.19Z"/><path class="cls-1" d="M128.69,82.65c-.12.56.29,1.28-.48,1.68-.77-.4-.37-1.12-.49-1.68A.67.67,0,0,1,128.69,82.65Z"/><path class="cls-1" d="M127.72,90.89v1.94h-1V90.89Z"/><path class="cls-1" d="M128.69,82.65h-1v-.49h0c.36-.28.49-.8,1-1h.95c0,.48,0,1,0,1.45Z"/><path class="cls-1" d="M140.35,85.08c0-.33,0-.67,0-1,.8-.48,2.16-.4,1.9-1.92a.53.53,0,0,1,.61,0,2.41,2.41,0,0,1,.36,1.95C142.79,86,141.62,85.67,140.35,85.08Z"/><path class="cls-1" d="M143.24,84.1c-.71-.51-.41-1.27-.49-1.93a1.34,1.34,0,0,1,1.95,0c.35.77.38,1.47-.49,1.94Z"/><path class="cls-1" d="M136.45,106.39c-.77-.07-1.77.34-1.94-1C135,106.08,136.37,104.9,136.45,106.39Z"/><path class="cls-1" d="M128.69,81.19a.88.88,0,0,1-1,1c0-.33,0-.65,0-1v-1c0-.32,0-.64,0-1C129,79.41,128.59,80.44,128.69,81.19Z"/><path class="cls-1" d="M144.7,82.16h-2.43c-.42-1.71.53-2,1.94-1.94C144.78,80.76,145.37,81.3,144.7,82.16Z"/></g><path class="cls-1" d="M193.88,68.76a5.66,5.66,0,1,0-5.66-5.66,5.65,5.65,0,0,0,5.66,5.66"/><g class="cls-4"><path class="cls-1" d="M196.07,68.57c-1.68-.1-3.51.6-5-.86.09-.37.49-.19.67-.39-.33.08-.69,0-1,.21-2.06-1.47-2.94-3.34-2-5.84a4.1,4.1,0,0,1,1.11.82c2.56.51,5.13-.21,7.69.13.82,1.19.09,1.62-.94,1.92a15.29,15.29,0,0,1,1.86-.37,1.73,1.73,0,0,1,1,.38,1.48,1.48,0,0,1-.6,2l0,0A6.82,6.82,0,0,1,196.07,68.57Z"/><path class="cls-1" d="M189.31,62.77c-.43-.24-.47-.67-.55-1.08-.18-1.12.92-1.75,1.06-2.75,3.82-3.27,7.66-2.42,9.9,2.22.08,1.2.76,2.45-.33,3.54h-.88c-1-.78.11-2.41-1.29-3-2.38.5-4.86,0-7.19.83C189.83,62.74,189.65,63,189.31,62.77Z"/><path class="cls-1" d="M190.79,67.53c.61-.59,1.25-.47,2.29-.08l-2,.26A.28.28,0,0,1,190.79,67.53Z"/><path class="cls-1" d="M189.31,62.77l.49-.49a20.89,20.89,0,0,1,7.64-.22.49.49,0,0,1,.1.72c-2.48.95-5.11.14-7.63.66C189.76,63.47,189.51,63,189.31,62.77Z"/><path class="cls-1" d="M197.54,62.78v-.5a.67.67,0,0,1,0-1c.09-.5.4-1.12.65-.25a17.33,17.33,0,0,1,.31,3.63H195.7C196.79,64.1,197.89,64,197.54,62.78Z"/><path class="cls-1" d="M197.55,61.31v1H189.8c-.25-.2-.56-.6-.07-.63C192.33,61.47,195,61.41,197.55,61.31Z"/></g><path class="cls-1" d="M199.46,106V72.85s-3.21,2.33-9.23,2.33h-4.45v1h2.44V106h-1.95v1h15.15v-1Z"/><g class="cls-5"><path class="cls-1" d="M201.38,106.84l-13.51-.07a.9.9,0,0,1,0-1.23,34.11,34.11,0,0,0,.19-6.7c0-6.74,0-13.48,0-20.22a4.78,4.78,0,0,0-.29-2.59c-.18-.85.41-.87,1-.88,1.18,0,2.36,0,3.53,0,.76.26,1.62.1,2.32.59-.06,1.48-1.27,1.08-2.1,1.24s-2,0-2.06,1.43c0,.87,0,1.75,0,2.63q0,.57,0,1.14a10.53,10.53,0,0,1-.25,3c-.35.32-.47.66-.08,1.05a3.34,3.34,0,0,1,.08,2,2.61,2.61,0,0,0,.13,1.63,17.92,17.92,0,0,1,0,4.33,4.05,4.05,0,0,0-.11,1.66,2.83,2.83,0,0,1-.11,1.63c-.76.42.06.75.08,1.13a2.16,2.16,0,0,1,0,1c0,.38-.88.67-.11,1.12a4.1,4.1,0,0,1,.28,1.62c0,.21,0,.43,0,.65s0,.42.05.64.07.41.13.62c2.06,1.13,4.28.32,6.42.54.88,0,1-.7,1.13-1.31a1.58,1.58,0,0,1,.35-.53c.54-.19.76.24,1,.53.38.71-.31,1.64.49,2.25C200.67,105.83,201.91,105.25,201.38,106.84Z"/><path class="cls-1" d="M199.51,103.47l-1-.46a1.74,1.74,0,0,1-.59-1.12c-.13-1.27-.06-2.54-.09-3.8,0-2.94,0-5.88,0-8.82,0-.84.24-1.79-.67-2.38-1.3-.56-3,.41-4.07-1,.1-.65.64-.7,1.12-.83,1.14,0,1.22-.07,2.8-1.56a5.84,5.84,0,0,0,.53-.33c.41-2.72.94-5.44-.31-8.08a1.69,1.69,0,0,1-.7-.7c.56-.3,1.13-.59,1.69-.9,1.11-.61,1.42-.14,1.41,1Q199.57,88.94,199.51,103.47Z"/><path class="cls-1" d="M196.54,74.34l1.06.11a4.28,4.28,0,0,1,0,4,10.32,10.32,0,0,1-7.78-.18c-.17-1.43.37-2,1.88-2,1,0,2.1.43,3-.44-.16-.55-.68-.11-1-.35a.49.49,0,0,1-.13-.55Z"/><path class="cls-1" d="M187.88,75.84h-1.95c.06-1.17,1-.87,1.61-.88,2,0,4,0,6,0a.79.79,0,0,1,.07.4.6.6,0,0,1-.91,0C191.12,75.64,189.42,74.84,187.88,75.84Z"/><path class="cls-1" d="M186.39,105.87l1.46.19c0,.24,0,.47,0,.71C186.23,106.89,186.11,106.81,186.39,105.87Z"/><path class="cls-1" d="M189.79,78.28h7.76a2.64,2.64,0,0,1,0,3.08,11.2,11.2,0,0,1-7.78-.17C189.8,80.22,189.8,79.25,189.79,78.28Z"/><path class="cls-1" d="M189.8,94.77V89.44c3-1.45,3.55-1.3,4.7,1.22.1.92.9,1.21,1.49,1.71s1.15,1,.64,1.8-1.12.18-1.68,0A3,3,0,0,0,194,94C192.54,93.84,191.42,95.7,189.8,94.77Z"/><path class="cls-1" d="M194.17,90.9c-.66-2.87-2.85-1.19-4.37-1.46-.05-.33-.54-.66,0-1A10.7,10.7,0,0,1,197.73,87c.57,1.76.28,3.57.21,5.36-.3.7-.82.68-1.3.27A20.65,20.65,0,0,1,194.17,90.9Z"/><path class="cls-1" d="M194.64,85.55H193.2a2.57,2.57,0,0,1-3.4,0V82.16c1.13-.8,2.39-.43,3.6-.39,1.17,1,2.8.42,4,1.16a.47.47,0,0,1,.1.68h0a10.11,10.11,0,0,1-5.41.65c.75.14,1.55,0,2.31.11C195.54,84.55,195.33,85,194.64,85.55Z"/><path class="cls-1" d="M189.8,102.52v-1.93c2.51-1.16,5.06-.84,7.62-.24a1,1,0,0,1,.26,1.24C195.18,103,192.64,104,189.8,102.52Z"/><path class="cls-1" d="M189.8,97.67V95.74c2.51-1.46,5.09-.34,7.65-.22a.81.81,0,0,1,.27.64,3.71,3.71,0,0,1-3.52,2A15.18,15.18,0,0,1,189.8,97.67Z"/><path class="cls-1" d="M197.55,95.74c-2.58.46-5.17-.3-7.75,0-.5-.32-.5-.65,0-1,1.62,0,2.64-1.76,4.36-1.46.74,1.32,2.16,1.36,3.37,1.8A.56.56,0,0,1,197.55,95.74Z"/><path class="cls-1" d="M197.55,87l-7.75,1.45V86c2.53-.43,5,.61,7.53.29A.44.44,0,0,1,197.55,87Z"/><path class="cls-1" d="M189.8,97.67c.91-.08,1.7-.49,2.75-.17,1.79.53,3.49-.2,5-1.27.6.57.47,1.28.39,2a1.38,1.38,0,0,1-.46.68c-2.59.84-5.14.31-7.68-.24C189.75,98.32,189.26,98,189.8,97.67Z"/><path class="cls-1" d="M197.56,105.43c-2.06,0-4.12,0-6.18,0-1.07,0-1.68-.31-1.58-1.47,2.41-1.17,4.91-.7,7.4-.39a.88.88,0,0,1,.49.6c-.86,1.06-2,.29-2.88.45-.43,0,0,.53-.17.23a7.38,7.38,0,0,1,2.81-.08A.43.43,0,0,1,197.56,105.43Z"/><path class="cls-1" d="M189.8,98.65c2.58-.62,5.17.35,7.75,0a.81.81,0,0,1-.16,1.2c-2.54.27-5.09.68-7.59-.23Z"/><path class="cls-1" d="M189.8,99.62h7.75a.7.7,0,0,1,0,1H189.8C189.26,100.27,189.75,99.94,189.8,99.62Z"/><path class="cls-1" d="M193.68,82.16H189.8v-1h7.75a.83.83,0,0,1-.09,1.18A4.43,4.43,0,0,1,193.68,82.16Z"/><path class="cls-1" d="M189.8,102.52c2.68.47,5.17-.57,7.75-1a1.11,1.11,0,0,1,1,.47v1h0a1.81,1.81,0,0,1-1.23.46c-2.5-.2-5,.52-7.49-.47Z"/><path class="cls-1" d="M197.55,86.52A34.72,34.72,0,0,1,189.8,86c-.33-.16-.34-.32,0-.49h3.4c1.36,1,2.91.26,4.35.48.13.11.17.21.13.32S197.59,86.52,197.55,86.52Z"/><path class="cls-1" d="M189.8,103l7.74,0a.43.43,0,0,1-.28.67c-2.49-.06-5,.28-7.46-.19Z"/><path class="cls-1" d="M189.8,103.51h7.75a.35.35,0,0,1,0,.47H189.8Z"/><path class="cls-1" d="M197.55,104v-.47c0-.16,0-.32,0-.48h1c-.21.85.6,2.11-1,2.41,0-.16,0-.31,0-.47-.17-.11-.23-.22-.17-.33s.11-.17.17-.17Z"/><path class="cls-1" d="M192.73,75.38l.91,0c.38,0,.77,0,1.16,0,.21,0,.46.06.28.35-.06.1-.29.09-.43.13C194,75.77,193.23,76.1,192.73,75.38Z"/><path class="cls-1" d="M197.55,86.52V86c1.36.21.95,1.28,1,2.07,0,3.35,0,6.7,0,10.06a.64.64,0,0,1-.95,0c0-.65,0-1.29,0-1.94v-1c-.07-.81-.66-1.62,0-2.43V86.52Z"/><path class="cls-1" d="M197.55,82.16V78.28c0-1.28,0-2.55,0-3.83a.86.86,0,0,1,.92.91c0,2.58,0,5.17,0,7.75,0,.82-.48.66-1,.5v-.48A.67.67,0,0,1,197.55,82.16Z"/><path class="cls-1" d="M194.64,85.55c.15-.48.34-1-.48-1a6,6,0,0,1-2.36-.32l5.75-.65c-1.79.63.16,1.15.13,1.93Z"/><path class="cls-1" d="M197.56,98.17h.95c0,1.29,0,2.58,0,3.87a1,1,0,0,1-1-.47v-3.4Z"/><path class="cls-1" d="M197.55,92.83c-.11.81,1,1.62,0,2.43-1.41-.16-3.28.49-3.39-2,.85-.27,1.34.64,2.27.74a1.8,1.8,0,0,0-1.7-1.69c-1.21-.13-.9-.77-.56-1.46C195.73,90.78,196.56,92,197.55,92.83Z"/><path class="cls-1" d="M197.55,82.16v1c-1.27-.41-3,1-3.87-1Z"/><path class="cls-1" d="M197.55,104.46v.5h-3.3l0-.5Z"/></g><path class="cls-1" d="M44.35,68.76a5.66,5.66,0,1,0-5.66-5.66,5.65,5.65,0,0,0,5.66,5.66"/><g class="cls-6"><path class="cls-1" d="M50.09,59.93l.09.88a.93.93,0,0,1,0,1.09c-1.13.71-2-.14-2.9-.52-.44-.18-.91-.32-1.34-.54s-.86-.47-.82-1.06c.06-.78.83-.48,1.23-.78.29-.07-.28-.32-.05-.09a3.65,3.65,0,0,1-4-.39.81.81,0,0,1,.12-1.07h0Q46.81,55.38,50.09,59.93Z"/><path class="cls-1" d="M47.71,60.82c.75.44,1.39,1.17,2.4,1,1,1.11.52,2.25.08,3.39l-.1.94c-.72.93-1.47,1.79-2.83,1.6a1.45,1.45,0,0,1-.39-.55c-.17-1.62.81-3,1.13-4.44C47.48,62.15,46.49,61.65,47.71,60.82Z"/><path class="cls-1" d="M40.41,66.7,39.52,66a5.74,5.74,0,0,1,0-5.2h0c.39-.62.26-1.5,1-1.93l0,0a1.1,1.1,0,0,1,1.31-.27c.71.62.34,1.29.08,1.95a4.15,4.15,0,0,1-.35.57c-.93,1.37-.41,2.65.27,3.91a2.33,2.33,0,0,1,0,1.05,1.34,1.34,0,0,1-.36.62A.94.94,0,0,1,40.41,66.7Z"/><path class="cls-1" d="M41.84,58.73l.45-.38c1.43.08,2.77.88,4.26.43,0,.89-.86.43-1,1.09.47.76,1.58.39,2.2,1-.67,1.63.58,1.36,1.45,1.46-1.06,1-1.18,1-3.37,1.14-.2-.26-.15.45,0,.15s.16-.19.23,0c.4,1.16,1.33,2.48-.8,3a2.16,2.16,0,0,1-.66-.18c-.9-.74-2.25-.32-3.12-1.16-1.14-1.45-1.85-2.91,0-4.37.13.3,0-.08.17.17a3.25,3.25,0,0,1,.34,1.35c0-.55,0-1.12-.51-1.52Z"/><path class="cls-1" d="M44.8,66.16c.44-.15,1.16.31,1.22-.65.09-1.33-.67-2-1.91-2.33,1.74-.37,3.51,0,5-.9-.54,1.17-1.09,2.33-1.59,3.52a8.41,8.41,0,0,0-.36,1.33c-.88.61-1.62.16-2.36-.3A.52.52,0,0,1,44.8,66.16Z"/><path class="cls-1" d="M44.79,66.64l2.42.49c0,.16,0,.33,0,.49l0,0a4.91,4.91,0,0,1-2.77.45C43.76,68,43,67.78,43.23,67S44.17,66.25,44.79,66.64Z"/><path class="cls-1" d="M44.79,66.64c-.43.06-1.09-.14-1.15.48s.54.47.92.48c.88,0,1.76,0,2.63,0-1,1.32-2.47.86-3.81.91-.69-.57-1.58-.92-2-1.81l0-.55a3.14,3.14,0,0,1,3.37,0h0C44.79,66.32,44.79,66.48,44.79,66.64Z"/><path class="cls-1" d="M44.78,66.15H41.41c0-.32,0-.64,0-1C42.57,65.36,44,64.64,44.78,66.15Z"/><path class="cls-1" d="M41.4,60.82c1.59.37.78,1.63.93,2.53a.54.54,0,0,1-.51.66c-.45,0-.65-.34-.6-.83.09-.78.12-1.57.18-2.36Z"/></g><path class="cls-1" d="M49.93,106V72.85s-3.21,2.33-9.23,2.33H36.25v1h2.44V106H36.74v1H51.89v-1Z"/><g class="cls-7"><path class="cls-1" d="M46.75,74.31c3.44-.49,3.44-.49,3.43,3.27,0,.72,0,1.44,0,2.15a2.07,2.07,0,0,1-2,.43,2.12,2.12,0,0,1-.62-.31A1.34,1.34,0,0,1,47,78.37c.16-1.33-.94-1.43-1.76-1.8-.31-.25-.71-.65-.49-.95.78-1-.78-.09-.49-.63a.37.37,0,0,1,.09-.55l1.87-.1A.31.31,0,0,1,46.75,74.31Z"/><path class="cls-1" d="M40.93,106.85a8.71,8.71,0,0,1-3.28-.22c.38-1,1.29-.75,1.79-1.2l.81-.71c.92-1.29.35-2.76.48-4.15A9.33,9.33,0,0,1,41,98c1.27-1.13,3.16-1.56,3.81-3.39,1-.43,2.22-.75,2.54.69.27,1.18.12,2.52-1.74,2.41-.31,0,.08,0-.24,0-.15,0-.09,0,.19,0,2.73.12,2.68.11,2.18,2.64a11.76,11.76,0,0,0-.52,3.11A2.69,2.69,0,0,1,44.39,106,15.53,15.53,0,0,0,40.93,106.85Z"/><path class="cls-1" d="M40.93,106.85c1.13-.7,2.15-1.8,3.65-1.39,1.91.52.47-1.5,1.2-1.56,1.58-.13,1.42-.5.39-1.33a.68.68,0,0,1,.17-1.2c1-.41,1-.6.31-1.53s1.2-.31,1.15-1.18c-.74-.81-1.68-.38-2.52-.5-.1-1,.67-.64,1.13-.71s1,0,1-.69c.24-2,1.37-1.76,2.68-1,0,2.4.06,4.81,0,7.21,0,1.46-.1,2.88,2,3.33l-.31.57Z"/><path class="cls-1" d="M44.79,94.77c0,2.29-1.37,3-3.41,2.91-.77,1.34-.48,2.8-.52,4.23,0,1.18.39,2.43-.42,3.52h-1c0-3.88,0-7.75,0-11.63,1.35-1,2.87-.65,4.34-.51C44.6,93.37,45.1,93.84,44.79,94.77Z"/><path class="cls-1" d="M44.79,94.77c-.35-1.25-1.37-1-2.25-1H39.46v-1c1.2-.74,2.46,0,3.68-.18a3.64,3.64,0,0,0,2.66-.71c-.86-.2-2.28.17-2.07-1.27s1.38-1.37,2.51-1c.29.14.53.35.82.49,2.69,1.24,2.72,1.38.91,3.57a1.56,1.56,0,0,1,2.16.1c0,.65,0,1.29,0,1.94-.84.26-2.28-.79-2.24,1.4,0,1.14-2,0-2.61,1-1.05-.27-.66-.91,0-.83,1.66.21,1.59-1.28,1.56-1.86C46.76,94.18,45.5,95,44.79,94.77Z"/><path class="cls-1" d="M46.25,89.92c-.4,0-.81,0-1.21,0s-1,.3-1,.86.7.52,1.15.54c.64,0,1.28,0,2.07,0-1.15,1.27-2.28,2.18-4,1.94-.39-2-2.52-.87-3.47-1.87-.16-1,.71-1,1.24-1.34s1.7,0,.65-1.2c-.28-.32.39-.74.85-.9a38.85,38.85,0,0,0,4-.71c.79,1.51,2.49.32,3.5,1.17v1A2.88,2.88,0,0,1,46.25,89.92Z"/><path class="cls-1" d="M39.48,89.9V82.18c.38-.38.74-.77,1.36-.64a1.7,1.7,0,0,1,1.07,1.21A18.65,18.65,0,0,1,41.68,89C41.33,90.54,40.62,90.56,39.48,89.9Z"/><path class="cls-1" d="M50.13,88.46c-.47,0-1.09-.11-1.38.14-1.74,1.5-2.1.65-2-1.1-.58.4-1.27.17-1.89.35a1.29,1.29,0,0,1-1.14-.94c.35-1.14,1.45-.87,2.24-1.17,1.3-.86,2.56-1.92,4.19-.67Z"/><path class="cls-1" d="M50.13,85.07a3.8,3.8,0,0,0-3.88,1.45c-.77-.64-2.53-1-.71-2.41.6-.49-.16-1-.3-1.44a.76.76,0,0,1,.13-.62,4.49,4.49,0,0,1,2.23-.6,7.63,7.63,0,0,1,2.52.22Z"/><path class="cls-1" d="M39.4,74.91l4.88,0c1.58-.36,1.13.66,1,1.47-.75.79-1.74.55-2.65.58-1.07,0-2,.22-2.45,1.38a1.65,1.65,0,0,1-.49.46l-.34.07c-.58-.77-.22-1.69-.4-2.52C37.65,75.38,38.9,75.26,39.4,74.91Z"/><path class="cls-1" d="M46.25,89.92a10.47,10.47,0,0,0,3.89-.48c0,1.45,0,2.91,0,4.36H47.48c1.07-1.51,1.92-2.91-.81-3.09C46.51,90.7,46.39,90.2,46.25,89.92Z"/><path class="cls-1" d="M39.48,89.9c1.41.21,2-.33,1.94-1.82-.1-2,0-4,0-5.92a.94.94,0,0,1,.73-.63l.33.09a1.77,1.77,0,0,1,.34.58,3.5,3.5,0,0,1,.11.66c0,.65,0,1.3,0,2,0,.21,0,.43,0,.64s0,.63,0,.94,0,.42,0,.63a3.36,3.36,0,0,1-.15.94,1.8,1.8,0,0,1-.37.5l-.34.31c1.59,1.24.5,1.45-.64,1.64a1.92,1.92,0,0,1-1.94,0Z"/><path class="cls-1" d="M40,91.36a20.06,20.06,0,0,1,3.11.19c1.38.29,1.12,1,.28,1.76a10.07,10.07,0,0,1-3.89-.48c0-.49,0-1,0-1.47C39.6,91.14,39.78,91.14,40,91.36Z"/><path class="cls-1" d="M50.12,81.67a2,2,0,0,1-2.42,0l-.3-.13a.89.89,0,0,1-.29-.88,1.45,1.45,0,0,1,.51-.41,3.05,3.05,0,0,1,2.51,0Z"/><path class="cls-1" d="M40.44,81.68a1,1,0,0,1-1,.5c.05-1.12-.64-2.21-.12-3.35l.16-.1C41.33,79.24,41.21,80.36,40.44,81.68Z"/><path class="cls-1" d="M50.13,80.22a8.72,8.72,0,0,0-2.91.49c-.22-.52,0-.79.48-1h2.43Z"/><path class="cls-1" d="M40,91.36h-.51c0-.31,0-.63,0-1h1.94Z"/><path class="cls-1" d="M47.7,79.74l-.48,1c-1.54.72-3,1.87-4.85,1h0c-1.16-1.47-.12-2.4,1-3.34-1.19-.61-2.3,1-3.36-.06-.56-1.51.48-1.82,1.55-1.9,1.25-.11,2.52,0,3.78,0,1.6-.54,1.74,1.51,2.95,1.66-.24.45-.67.21-1,.28-.22.68-1,.58-1.5,1-.22,0,.35.18.16-.09C46.68,78.76,47.12,79.47,47.7,79.74Z"/><path class="cls-1" d="M47.7,79.74l-2.22-.64,1.74-.82Z"/><path class="cls-1" d="M40.44,105.43c.18-2.13-.49-4.24,0-6.38.14-.66.12-1.29,1-1.37,0,2,0,3.95,0,5.92C41.38,104.35,41.62,105.27,40.44,105.43Z"/><path class="cls-1" d="M42.37,88.46V88c.67-.82,1.64-.21,2.42-.48h1.94C45.44,88.57,43.9,88.48,42.37,88.46Z"/><path class="cls-1" d="M40,78.27c1.17.3,1.84-.93,2.91-1,.69,0,1.32.05,1.56.82s-.3,1-.9,1.09c-1.71.2-1,1.54-1.16,2.44l-1,.49-1-.48c-.1-1.05.31-2.26-.92-3C39.66,78.58,39.8,78.42,40,78.27Z"/><path class="cls-1" d="M42.37,87v-.49a.54.54,0,0,0,0-1v-.49A12.31,12.31,0,0,0,45,82.72l.32-.08a1.69,1.69,0,0,1,1.58,1.52c0,.75-1.22.13-1.73,1.22-.07.42,1.43.23,1.12,1.14-.82.13-1.75-.32-2.42.49A1,1,0,0,1,42.37,87Z"/><path class="cls-1" d="M42.37,87h1.46l1,.49c-.68.81-1.61.36-2.42.48Z"/><path class="cls-1" d="M42.37,82.64v-.48A4.35,4.35,0,0,1,45,81.9l.29.26v.48h0A2.28,2.28,0,0,1,42.37,82.64Z"/><path class="cls-1" d="M47.7,81.68c-.68.81-1.61.36-2.42.48h0c.52-1.61,1.51-.82,2.42-.48Z"/><path class="cls-1" d="M42.37,82.64h2.91c-.69,1.14-1,2.73-2.91,2.42Z"/><path class="cls-1" d="M47.7,81.68c-.82.11-1.74-.33-2.42.48H42.37v-.48c1.69,0,3.12-1.22,4.85-1Z"/><path class="cls-1" d="M42.37,85.56c.37.11,1-.27,1.05.38s-.61.53-1.05.58Z"/></g><path class="cls-1" d="M222.11,72.67c-10.85,0-16.81,7.27-16.81,17.16,0,9.69,5.21,17.12,16.53,17.12s16.75-7.68,16.75-17.12-6-17.16-16.47-17.16m-.25,33.27c-4.71,0-5.14-7.24-5.14-16.11s.48-16.06,5.19-16.06c4.52,0,5.19,7.19,5.19,16.06s-.61,16.11-5.24,16.11"/><g class="cls-8"><path class="cls-1" d="M212.12,104.45l-.48-.53c-.61-.92.21-1.25.69-1.73a2.35,2.35,0,0,1,1.28-.57c1.7,0,2.44-.82,2.24-2.49-.13-1.13.39-1.43,1.4-1.17,1.31,1.87,1.5,4.08,1.91,6.22-.6.79-1.9.47-2.37,1.48-1.16,0-1.27-.72-1.25-1.58.08-1.4-1-.55-1.4-.57-.61,0-.85.82-1.42,1.08A.56.56,0,0,1,212.12,104.45Z"/><path class="cls-1" d="M228.73,105.51a14.67,14.67,0,0,1-10,1c.42-.81,1.25-1,2-1.37,1.26-.32,2.67-.26,3.65-1.33a1.36,1.36,0,0,1,1.23-.32c.5.33.26,1.24,1,1.34a7.64,7.64,0,0,1,1.59.25A1.12,1.12,0,0,1,228.73,105.51Z"/><path class="cls-1" d="M213.08,75l.48-.62a1.47,1.47,0,0,1,1-.24c.83,1.34,1.17,3,2.64,3.93,0,.8-.47,1.08-1.12,1.25-1.61.23-3.12.13-4.21-1.32-.32-.5-.92-.89-.7-1.62h0C211.9,76,212.72,75.83,213.08,75Z"/><path class="cls-1" d="M219.93,72.5c1.42.46,2.84-.09,4.26,0,.92.6,2.22-.25,3,.81a1.18,1.18,0,0,1-.42,1.33,2.81,2.81,0,0,1-1.74.61c-1.44-.24-2.82-.73-4.28-.91A8.36,8.36,0,0,0,218,74.1c-.56,0-1.14,0-1.18-.8C217.56,72,219,73.21,219.93,72.5Z"/><path class="cls-1" d="M232.44,104c-1,.31-1.7,1.39-2.88,1.39-.13-1.52-1.33-1.21-2.29-1.31a3.08,3.08,0,0,1-.66-.13,1.45,1.45,0,0,1-.55-.39c0-.93.71-1.06,1.36-1.26,1.06-.24,2.15.25,3.21-.13,1-.11,1.72-.95,2.75-.89a.88.88,0,0,1,.71.65C234,103,233.23,103.46,232.44,104Z"/><path class="cls-1" d="M220.82,105.55a4,4,0,0,1-2.06.94c-1.82.19-3.35-.89-5.07-1.12-.49-.19-.95-.4-.6-1.06a2.06,2.06,0,0,1,2.89-.8c.1.76-.33,1.79,1,1.91.65-.68,1.58-.39,2.34-.7A1.71,1.71,0,0,1,220.82,105.55Z"/><path class="cls-1" d="M205.43,89.4c.07-3.48.62-6.83,2.77-9.72a1.25,1.25,0,0,1,.41.53,3,3,0,0,1,0,1.69,2.77,2.77,0,0,1-.29.6c-.8,1.08-.26,2.56-1.08,3.64a7.33,7.33,0,0,0-.61,1.48C206.27,88.24,206.51,89.27,205.43,89.4Z"/><path class="cls-1" d="M227.15,103.51a15.77,15.77,0,0,1,2.07.11c1.43.28.94,1,.34,1.73l-.83.16-.61-.1C228.45,104.44,226.15,104.82,227.15,103.51Z"/><path class="cls-1" d="M229.69,74.34l.88.39a1.07,1.07,0,0,1,1.06.68c-1.52,1.18-2.7,1.3-3.79.38a1.8,1.8,0,0,1,.77-1.55A1.55,1.55,0,0,1,229.69,74.34Z"/><path class="cls-1" d="M206.22,94.88l-.84-2.65c0-.76.05-1.51.08-2.26,1,.15.79,1.14,1.14,1.74.09.29.17.6.24.89a5.29,5.29,0,0,0,.7,1.33,1.43,1.43,0,0,1-.08,1.21C206.89,95.83,206.68,94.74,206.22,94.88Z"/><path class="cls-1" d="M206.28,91.86c-.77-.42-.21-1.41-.82-1.89l0-.57c.64-.48.08-1.48.84-1.91.55.41.52,1.12.83,1.65C207.81,90.35,207.68,91.29,206.28,91.86Z"/><path class="cls-1" d="M208.25,80.25c0-.19,0-.38-.05-.57a4.4,4.4,0,0,1,1.93-2.41l.26.23a2,2,0,0,1,.08,1.67,2.13,2.13,0,0,1-.65.78C209.33,80.23,208.85,80.54,208.25,80.25Z"/><path class="cls-1" d="M210.66,103.5l-.45-1a1.66,1.66,0,0,1,2.37,0c-.26.5-1,.65-1,1.38A.85.85,0,0,1,210.66,103.5Z"/><path class="cls-1" d="M227.14,73.41l1.43.08,1.12.85-1.1.09a1.37,1.37,0,0,1-1.93,0Z"/><path class="cls-1" d="M213.08,75c.12,1.53-1,1.39-1.93,1.38A4.18,4.18,0,0,1,213.08,75Z"/><path class="cls-1" d="M211.15,76.35l.95,1c-.59.59-1.19,1-1.86.09l-.11-.13A1.56,1.56,0,0,1,211.15,76.35Z"/><path class="cls-1" d="M234.9,101.56l-1,.5-.49-.5a.53.53,0,0,1,0-.58,2,2,0,0,1,1.07-.66.92.92,0,0,1,.87.27,3.54,3.54,0,0,1,0,.46Z"/><path class="cls-1" d="M236.38,98.68l-.34,1a1.55,1.55,0,0,1-1.38.23c-.49-.91-.9-1.8-2.26-1.79-1.16,0-.39-1.57-1.44-2.18-.71-.41-1.45-1-2.28-1.44a.78.78,0,0,1-.23-.59c.91-.6,1-1.16-.07-1.68a1.11,1.11,0,0,1,.16-1,14.51,14.51,0,0,1,4.54-1.75,5.2,5.2,0,0,1,3,.11.83.83,0,0,1,.42.53c-.34,1.19-1.69.51-2.36,1.3.74.32,1.57-.22,2.22.3.53.7.31,1.49.31,2.26C235.56,95.48,237.07,97.15,236.38,98.68Z"/><path class="cls-1" d="M237.32,82.65c.31.67.63,1.34.94,2,.58,4.12.88,8.21-.88,12.15-1-.85-.69-1.93-.57-3,0-2.49-.17-5-.18-7.47C237,85.13,235.49,83.58,237.32,82.65Z"/><path class="cls-1" d="M237.3,93.79c0,1,0,2,.08,3,0,.81-.56,1.31-1,1.88-.06-1.63-2-3.25,0-4.88A.63.63,0,0,1,237.3,93.79Z"/><path class="cls-1" d="M234.41,99.61l1.62.07-.64.91h-1a.7.7,0,0,1-.53-.71C233.92,99.62,234.15,99.53,234.41,99.61Z"/><path class="cls-1" d="M217,97.69a.41.41,0,0,1,0,.44c-1.64,0,.12,1.47-.79,1.77.95,2.06-.45,2.06-1.85,2.16a9.88,9.88,0,0,0-1.81.48l-2.37,0a4.67,4.67,0,0,1-2-2.37,14,14,0,0,0-.94-2.43,1.84,1.84,0,0,1,0-2.44V93.8c-.4-.25-.12-1.15-.95-1l0-.93c1.33-1.46-.39-2.91,0-4.37,0-.52-.07-1.11.51-1.45,1.8-.81.32-2.83,1.44-3.89h0a.84.84,0,0,1,1-.11,1.42,1.42,0,0,1,.4.62,12.24,12.24,0,0,1,.21,2.63,4.73,4.73,0,0,1-.39,2.26c-1.85,1.4-.55,3.45-1.06,5,0,.43.55.11.23.16,0,0,0,0,0-.1,0-1.44-.58-2.93.4-4.27,1.44,1.84.87,4.22,1.65,6.28.37,1,.67,2,1.09,3a1,1,0,0,0,.84.65c0-.39-.56-.46-.6-.86a1.33,1.33,0,0,1,1.12-.82,6.5,6.5,0,0,1,2.67.12A3.3,3.3,0,0,1,217,97.69Z"/><path class="cls-1" d="M213,104.54a.46.46,0,0,1-.36-.09c.52-2.21,2.2-1.61,3.67-1.49a.25.25,0,0,1,0,.2,2,2,0,0,1-.31.35C214.71,103.1,214,104.34,213,104.54Z"/><path class="cls-1" d="M218.94,104.46l.39.49a3.49,3.49,0,0,1-2.36.47C216.58,103,218,104.11,218.94,104.46Z"/><path class="cls-1" d="M237.32,82.65c-1.07,1.13.49,2.27,0,3.41-.92,1,.06,2.57-1,3.54a15.11,15.11,0,0,1-2.69,0c-2-.71-4-1.36-6-2a1.28,1.28,0,0,1-.06-1.08c1.54-1.1,3.17-.52,5.09-.08,0,0-.14-.53-.26-.23-.05.15-.11.11-.23.08s-.58-.13-.57-.33c.08-1.55,1.28-1.78,2.83-2.08-1.75,0-3.14.52-4.51,0-.79-.33-1.81-.48-1.32-1.77a2.5,2.5,0,0,1,1.75-.49,8.68,8.68,0,0,0,2.78-.13c1.36-.26,2.81-.58,3.94.68Z"/><path class="cls-1" d="M226.07,77.34l-.35-1c.48-1.77,1.56-.44,2.38-.47,1.2.47,2.24-.36,3.37-.41.85-.12,1.23.71,1.89,1,.18.32.35.64.52,1,.08.69-.42.68-.87.73-1.86-.54-1.85,1-2.22,2a1.46,1.46,0,0,1-.53.46,3.37,3.37,0,0,1-2.44,0C226.92,79.65,227,78.21,226.07,77.34Z"/><path class="cls-1" d="M237,82.12a5.26,5.26,0,0,0-4,0,4.83,4.83,0,0,1-2.44,0c-1.78-.64-.78-1.29,0-1.94h0a3.43,3.43,0,0,1,2.46-.65c.81.17,1.52-.48,2.34-.28A6.28,6.28,0,0,1,237,82.12Z"/><path class="cls-1" d="M235.33,79.29c-.51.57-1,1.11-1.89.93-.25-.78-.77-1.52-.47-2.41a.91.91,0,0,0,.91-.44A2,2,0,0,1,235.33,79.29Z"/><path class="cls-1" d="M227.15,103.51a.88.88,0,0,0,.87.95c1.52.14,0,.63.1,1l-2,0c-.62-.82.07-1.32.46-1.9Z"/><path class="cls-1" d="M226.63,103.53c-.15.63-.3,1.27-.46,1.9-1.71-.25-.2-1.33-.51-2l.26-.15.25.16Z"/><path class="cls-1" d="M217,97.69a1.12,1.12,0,0,1-1-.48c-1.1-1.55-.56-3.31-.67-5,0-.28,0-.56,0-.84,0-.56,0-1.12,0-1.67a85.25,85.25,0,0,1,.11-8.61,4.78,4.78,0,0,0,.23-1.41,1.13,1.13,0,0,1,.34-.92.88.88,0,0,0,1-1c0-.86.47-.76,1-.47C216.33,84.05,217.14,90.89,217,97.69Z"/><path class="cls-1" d="M216,78.77v1c-1.25.59-2.62.1-3.89.5a2.26,2.26,0,0,1-2-1c0-.61.06-1.23.08-1.84.65.35,1.25-.09,1.87-.09C212.9,79.11,214.52,78.75,216,78.77Z"/><path class="cls-1" d="M218,77.33a1,1,0,0,0-1,.47c-2.59.11-2-2.07-2.51-3.46a1.1,1.1,0,0,1,1.07-.42,1.29,1.29,0,0,1,.72.62c.18.49-.07,1.5,1.06.84a1.4,1.4,0,0,1,1.57,0A3.62,3.62,0,0,1,218,77.33Z"/><path class="cls-1" d="M216,74.42l-.49-.5.48-.48.94-.06c1.24.55,2.72-.59,3.89.51-.29.47-.78.49-1.25.55C218.38,74.89,217.18,75.34,216,74.42Z"/><path class="cls-1" d="M228.1,75.86c-.75.38-1.73-.41-2.38.47a1.8,1.8,0,0,1-.66-1.38l1.6-.56,1.93,0C228.43,74.91,228.27,75.39,228.1,75.86Z"/><path class="cls-1" d="M207.26,95.26c-.72,1.83,1.89,3,1,4.87a9.32,9.32,0,0,1-2-5.25C206.87,94.15,206.84,95.34,207.26,95.26Z"/><path class="cls-1" d="M225.65,103.47c0-.32-.05-.64-.07-1,2.47-8.34,1.84-16.74.49-25.16a2.32,2.32,0,0,1,1.56,2.89,2.32,2.32,0,0,1,.5,2c.05,1.44.59,2.93-.48,4.24v1a4.39,4.39,0,0,1,.62,3.16,5.31,5.31,0,0,0-.15,1.59,4.09,4.09,0,0,1,0,1.56c0,.65.18,1.29.14,1.94s0,1.29,0,1.93c0,1,0,2.06,0,3.09a3.8,3.8,0,0,1-.19,1.15,1.85,1.85,0,0,1-.47.61l-1.42,1Z"/><path class="cls-1" d="M233.45,101.08c0,.16,0,.32,0,.48-1,.26-1.7,1.35-2.9,1a1.3,1.3,0,0,1-.41-.49,2.32,2.32,0,0,1-.22-1.27,1.24,1.24,0,0,1,.78-.62,2.6,2.6,0,0,1,2.64.59Z"/><path class="cls-1" d="M230.53,102.05c0,.16,0,.32,0,.49-1,1-2-.08-2.95,0l0-.49A2.14,2.14,0,0,1,230.53,102.05Z"/><path class="cls-1" d="M208.22,82.15c-.58,1.26,1.38,3.46-1.44,3.89C207.94,85,206.25,82.9,208.22,82.15Z"/><path class="cls-1" d="M209.2,82.16h-1l0-1.9,1.41-.52C210.67,80.76,209.66,81.41,209.2,82.16Z"/><path class="cls-1" d="M206.3,92.79c.25-.16.64-.52.71-.46.5.39.13,1,.24,1.47A.87.87,0,0,1,206.3,92.79Z"/><path class="cls-1" d="M209.2,82.16c-.22-.88.33-1.62.46-2.43l.49-.49,2,.5a4.45,4.45,0,0,1-.89,2.55,1.66,1.66,0,0,1-1,.32,1.59,1.59,0,0,1-1-.45Z"/><path class="cls-1" d="M230.53,100.59l-.48.48a1.44,1.44,0,0,1-1.74.27c-.78-1.11.42-2.59-.67-3.65,0-.65,0-1.3,0-2,.5-.36.38-1.13.95-1.45,1.07.22,2.7-.83,2.8,1.59,0,.84,1.93-.14,2.79.8-.53.86-1.47.28-2.49.82l3.31.43-.6,1.68c-.53.33,0,.66,0,1a1,1,0,0,1-1,.49l0,0C232.66,99.59,231.63,99.89,230.53,100.59Z"/><path class="cls-1" d="M227.64,90.89c0-1.13,0-2.26,0-3.39a7.12,7.12,0,0,1,5.79,1.93c-.1.22-.56.1-.48.49-1.46.5-2.77,1.39-4.37,1.45C228,91.68,227.9,91.16,227.64,90.89Z"/><path class="cls-1" d="M236.35,89.43c.19-1.16-.55-2.58,1-3.37v7.73h-1c-.47-.65,0-1.29,0-1.94a1.06,1.06,0,0,1,0-1.46v-.47c-.18-.11-.23-.22-.18-.33S236.29,89.43,236.35,89.43Z"/><path class="cls-1" d="M236.35,90.4v1.46a6.12,6.12,0,0,0-1,.08c-.68.16-1.35.72-2,0-.32-.36.19-.54.25-.81.21-1.16,1.12-.59,1.74-.71A6.26,6.26,0,0,1,236.35,90.4Z"/><path class="cls-1" d="M227.65,93.78c0-.47,0-1,0-1.43a.63.63,0,0,1,1,0l2.28.12c-.46,1.26-1.35,1.33-2.28,1.34A.61.61,0,0,1,227.65,93.78Z"/><path class="cls-1" d="M236.35,89.43v.5H233l-.56-.28,1-.21Z"/><path class="cls-1" d="M227.65,93.78l.94,0v.49c0,.69,0,1.39-1,1.45C227.65,95.09,227.65,94.44,227.65,93.78Z"/><path class="cls-1" d="M228.59,92.34h-1V90.89l1,.48Z"/><path class="cls-1" d="M216,74.42l3.57,0-.71.93a5.34,5.34,0,0,0-1.14.32c-.64.35-1.17,1.41-2,.74C215.1,75.9,216.07,75.13,216,74.42Z"/><path class="cls-1" d="M209.19,87.5c0-.81,0-1.62,0-2.43.83-.65.16-1.84.9-2.52.79-.31,1.25,0,1.36.8a7.09,7.09,0,0,0,1,2.42,9.19,9.19,0,0,1,.14,3.94c-.06.65-.87,1.16-.39,1.93a2.05,2.05,0,0,1,.18.58,1.18,1.18,0,0,1-.34.86c-.73.63-.76,1.21,0,1.94s1.26,1.18,1.06,2.17a1,1,0,0,0-1,.49c0,.82-.4.82-1,.48a22.34,22.34,0,0,1-1.95-9.7A.64.64,0,0,1,209.19,87.5Z"/><path class="cls-1" d="M213.08,97.19c-.85-.56-1.21-1.54-2-2.22-.63-.54-.94-2.17,1-2.14.42.12.5.51.67.83.53-.54,0-1.2.2-1.79a1.65,1.65,0,0,1,.56-.42,2.45,2.45,0,0,1,2.44.4v5.36Z"/><path class="cls-1" d="M209.19,87.5v1c-1.12,1.48,0,3.28-.86,4.79C208.83,91.36,207.09,89.19,209.19,87.5Z"/><path class="cls-1" d="M211.14,98.16a1,1,0,0,0,1-.48c.64.12,1.51-.33,1.81.65a.66.66,0,0,1-.25.6A2.15,2.15,0,0,1,211.14,98.16Z"/><path class="cls-1" d="M210.17,82.64c-.21.86.58,2.11-1,2.43V82.16h1c.16.11.22.22.17.32S210.22,82.64,210.17,82.64Z"/><path class="cls-1" d="M227.65,86.52V82.16a.65.65,0,0,1,1,0c.84,1.51,2.3,1.56,3.64,1.22a4.09,4.09,0,0,1,2.73.4c-.51,1-1.57.61-2.28,1.06-1.13.7-.48,1.15.42,1.67Z"/><path class="cls-1" d="M228.6,82.17h-1c0-.65,0-1.29,0-1.93h2.9c.07.65-1.15,1.3,0,1.94Z"/><path class="cls-1" d="M233,77.81c.29.78,1.06,1.47.47,2.41h-2.91C230.56,77,230.58,77,233,77.81Z"/><path class="cls-1" d="M210.17,82.64v-.48h1c.39-.33.21-1.28,1.13-1.06.72.41,1.63.5,2.13,1.29.6,1.71.31,3.5.31,5.25,0,1.07.21,1.88,1.28,2.28,0,.49,0,1,0,1.47a7.35,7.35,0,0,1-2.95-.26c-1-.74-.3-1.76-.43-2.64s.3-2-.49-2.92c-1.15-.09-1.15-1-1.16-1.78S210.94,82.68,210.17,82.64Z"/><path class="cls-1" d="M216,89.91c-1.54.42-2.08-.11-2-1.74.15-2,0-4,0-6a.58.58,0,0,1-.17-.41c0-.16,0-.23.05-.23.58-.61.73-1.9,2.07-1.3Z"/><path class="cls-1" d="M216,80.22c-1.13-.16-.83,1.58-1.93,1.46-.58-.45-1.33-.22-2-.48l-1,1a2.41,2.41,0,0,1,1-2.41,5.09,5.09,0,0,1,3.89,0,2.37,2.37,0,0,1,.17.36S216.06,80.18,216,80.22Z"/><path class="cls-1" d="M213.08,90.88a5,5,0,0,1,2.9.5c0,.15,0,.31,0,.47h-2.89A.71.71,0,0,1,213.08,90.88Z"/><path class="cls-1" d="M227.64,97.69c1.76.9.83,2.18.47,3.38a.29.29,0,0,1-.48,0Z"/><path class="cls-1" d="M227.63,101.08h2.42a1,1,0,0,1,.48,1h-2.91Z"/><path class="cls-1" d="M230.53,100.59c.22-1.4,1.44-1.1,2.23-1.09s.66.91.66,1.54A5.24,5.24,0,0,0,230.53,100.59Z"/><path class="cls-1" d="M213.08,90.88v1h0a.66.66,0,0,1-1,0h0a1.06,1.06,0,0,1,0-1.46c0-1.61,0-3.23,0-4.84,1.47.28.78,1.47,1,2.3C213.3,88.87,212.57,89.88,213.08,90.88Z"/><path class="cls-1" d="M212.1,91.86h1a1.69,1.69,0,0,0,.23.42c.87.75-.1,1.38-.16,2.06,0,.11-.58.32-.8.24-1-.41.45-1.24-.25-1.75Z"/><path class="cls-1" d="M212.1,90.4v1.46c-.49-.07-.95-.19-.87-.84C211.29,90.52,211.71,90.47,212.1,90.4Z"/><path class="cls-1" d="M212.11,81.2c.76-.28,1.87-2,2,.48,0,.16,0,.32,0,.48C213.29,82.06,212.26,82.5,212.11,81.2Z"/></g><path class="cls-1" d="M117.86,73.84v-1H113V63.21h-1s-1,5.87-8.52,5.87h-1.72v3.78H98.31v1h3.42V106h-2v1h15.15v-1h-2V73.84Z"/><g class="cls-9"><path class="cls-1" d="M114.11,105.93c.72-.07,1,.28,1,1-4.51,0-9,0-13.53,0-.45,0-1.05.14-1.26-.42s.3-.85.75-1c1.37-.45.86-1.59.86-2.46,0-8.38,0-16.77.06-25.16,0-2.27.4-4.64-3.3-4,.4-1.36,1.25-1.37,2-1.43s1.32-.33,1.23-1.15c-.31-2.76,1.67-2.62,3.43-2.79a1.13,1.13,0,0,1,1.41-.13c.17,1.64-1.3,1-2,1.44a2.18,2.18,0,0,0-1.36.76,6.48,6.48,0,0,0-.4,3.91c.16,1.34.09,2.68.12,4,0,3.71,0,7.41,0,11.11,0,1,0,2,0,3.08V94.5c0,3.46,0,6.92,0,10.37,0,.79.6.84,1.19.84C107.62,105.74,110.87,105.63,114.11,105.93Z"/><path class="cls-1" d="M109.32,67.62c.91-1.32,2.58-2.08,2.79-3.9a1.18,1.18,0,0,0,.1-.45c2.3.29.49,2,1,2.89l-.76,0c-.23,1-1.14,1.19-1.89,1.59a1.81,1.81,0,0,1-.65.11A1,1,0,0,1,109.32,67.62Z"/><path class="cls-1" d="M113.27,72.44l.89.47c.32.53-.12.71-.43,1-.79.81-.47,1.83-.48,2.76,0,7-.06,14-.08,21.06-.26.25-.77.32-.83.09-.43-1.59-.82-.39-1.3,0-1.17.83-2,.53-2.36-.88-.16-.61-.49-.12-.71-.15-1.74-.23-3.58-.18-4.7-1.92a1.07,1.07,0,0,1,.17-1c1.26-.71,2.23.5,3.31.48.39.1.07-.38.1-.06,0,.07-.08.1-.22,0-1.1-.56-2.53-.36-3.39-1.48a1.12,1.12,0,0,1,.17-1c1.08-.75,2.17-.35,3.24,0a6.15,6.15,0,0,0,4.75-.28c-1.43-.82-2.73-1.74.24-2.44a5.16,5.16,0,0,0-3.73-.6c-1.32.11-2.76.58-3.83-.73-.63-2.92-.15-5.88-.31-8.82-.07-1.26.23-2.55-.33-3.77a11,11,0,0,0-1-1.2,5.25,5.25,0,0,1,.57-3.86c.4-.16.59.09.76.38.27.49.18,1.24,1,1.36,1.24.29,2-.4,2.79-1.21.16-.14.33-.27.5-.4a13,13,0,0,1,1.25-1,1.87,1.87,0,0,1,1.57-.26,1,1,0,0,1,.48.83c-.23.78-1.1,1-1.65,1.73,1-.18,1.74-.73,2.6-.33s.33.91-.15,1.29c-.62,1-1.38,1.68-2.7,1.35,1.47.48,2.22-.38,2.85-1.46A.74.74,0,0,1,113.27,72.44Z"/><path class="cls-1" d="M103.48,94.77c1.92.74,3.71,2.22,6,.77.62-.4.8.24.71.77-.13.75-1,.7-1.49,1.27,2,.25,3.24-.23,2.71-2.7,1.5.6,0,2.68,1.8,2.8q0,3.18.07,6.36c0,.75-.26,1.65.87,1.89-3.75,1.09-7.58.23-11.37.43-.62,0-.27-.57-.19-.92a2,2,0,0,0,.37-.62c.34-1.42-.4-3,.53-4.31,2.19.2,4.38-.32,6.67,0-2.34-.85-4.78,1-7-.62C103,98.14,102.59,96.41,103.48,94.77Z"/><path class="cls-1" d="M113.73,73.86c.14-.32.29-.63.43-.94l.93-.41c.71.83,2-.11,2.94,1.11A15.22,15.22,0,0,1,113.73,73.86Z"/><path class="cls-1" d="M102.48,73.93a1,1,0,0,1,1,.47c.67.83.46,1.82.47,2.76,0,4.22-.1,8.44.15,12.65a3.14,3.14,0,0,1-.15.8c-.26.71-.84,1.29-.79,2.12a.42.42,0,0,1-.63.1c0-1,0-2,0-2.94a65.75,65.75,0,0,0,0-11.57Z"/><path class="cls-1" d="M102.53,92.83H103a1.3,1.3,0,0,1,.47.68,2.83,2.83,0,0,0,0,.29v6.3c.16.11.22.22.16.33s-.11.16-.16.16c-.23,1.61.49,3.32-.49,4.85-.51-2.76-.09-5.54-.24-8.31a7.07,7.07,0,0,0-.22-2.82Z"/><path class="cls-1" d="M102.55,78.32a30.63,30.63,0,0,1,0,11.57C102.54,86,102.54,82.18,102.55,78.32Z"/><path class="cls-1" d="M102.53,94.31c1,2.46.23,5,.44,7.53.1,1.19,0,2.4,0,3.6h-.44C102.54,101.73,102.54,98,102.53,94.31Z"/><path class="cls-1" d="M106.86,68.6h.5c.43.31.89.61.33,1.19a3.5,3.5,0,0,1-2.27.31,1.52,1.52,0,0,1-1-.56C105,68.67,106.26,69.48,106.86,68.6Z"/><path class="cls-1" d="M104.42,69.53l1,0c.18.81-.46,1-1,1.22a1,1,0,0,1-1-.25l-.43-.46C103.32,69.41,103.91,69.58,104.42,69.53Z"/><path class="cls-1" d="M113.27,72.44l-1.06,0h0c0-.33.54-.65,0-1a1.88,1.88,0,0,1-.5-1.66c.46-1.34-.33-1.89-1.44-2.22.51-.81,1.75-.76,2.08-1.89.11-.37.5.41.87.44Z"/><path class="cls-1" d="M107.83,69.54c-.15-.32-.31-.64-.47-1a.53.53,0,0,1,.39,0c.85-.34,1.78-.37,2.66-.64.51,0,1,0,1,.72,0,.39-.26.52-.63.45l-1.46.48A1.06,1.06,0,0,1,107.83,69.54Z"/><path class="cls-1" d="M110.27,68.11c-.73.79-1.67.38-2.52.43.52-.31,1-.62,1.57-.92l.5,0A1.05,1.05,0,0,1,110.27,68.11Z"/><path class="cls-1" d="M110.27,68.11l-.45-.46.44,0h2.18l-.24,1.94a.66.66,0,0,1-1,0l-.48-.49C111.48,68.3,110.9,68.19,110.27,68.11Z"/><path class="cls-1" d="M104.44,88c2.06.47,4.09-.88,6.14-.11.72.27,2-.32,2,1.08,0,1.56-1.53.63-2.28,1.14.4.62,1.13.14,1.62.47s.74.63.63,1.17-.51.53-.91.61c-2,.35-3.87.94-5.83-.2a6.06,6.06,0,0,0-2.34-.28.67.67,0,0,1,0-1h0c1.09-1.51,2.71-.28,3.9-.78C106,90.11,103.93,90.86,104.44,88Z"/><path class="cls-1" d="M104.44,88c.12,2.26,1.84,2,3.42,2.1-1.46.63-3.06-.08-4.38.81V74.4c1.33.23.94,1.29,1,2.09C104.46,80.32,104.44,84.15,104.44,88Z"/><path class="cls-1" d="M107.83,69.54h1.46a1.63,1.63,0,0,1-1,1c-.32-.32-.73-.24-1.12-.24.39,0,.79,0,1.12.24-.89,1.45-2,2.38-3.88,1.94a1.41,1.41,0,0,1,0-1.94l1-1Z"/><path class="cls-1" d="M111.23,69.56h1v1.94c-1.3-.41-2.15,1.59-3.6.67C108.89,70.68,110.42,70.47,111.23,69.56Z"/><path class="cls-1" d="M112.21,72.46c-.3,2.15-1.55,2.56-4.79,1.35,1.7-.61,3.52-.1,4.78-1.35Z"/><path class="cls-1" d="M103.48,92.83c1.21.83,3.07.1,4.06,1.63-1.64,1.08-2.64-1-4.06-.66h0A.67.67,0,0,1,103.48,92.83Z"/><path class="cls-1" d="M108.9,77.88h3.21v.24H108.9Z"/><path class="cls-1" d="M104.44,70.52v1.94c-1.3-.15-.87-1.17-1-1.93Z"/><path class="cls-1" d="M103.48,92.83v1a1,1,0,0,1-.48-1c.07-.67-.23-1.43.48-1.94,0,.32,0,.65,0,1Z"/><path class="cls-1" d="M103.48,100.59v-.49c2.39-.08,4.75-.76,7.18-.48.52.06,1.29-.14,1.36.62.09,1-.81.85-1.39.81C108.25,100.9,105.81,101.55,103.48,100.59Z"/><path class="cls-1" d="M108.32,70.52h-2.18c1-.71,1.59-.59,2.18,0Z"/></g><path class="cls-1" d="M71,72.85s-3.21,2.33-9.23,2.33H57.33v1h2.44V106h-2v1H73v-1H71Z"/><g class="cls-10"><path class="cls-1" d="M57.9,75.84c1.21-1.69,3-1.27,4.65-1.19,1,0,2,.19,3.08.19.85,1.67-.33,2.09-1.52,2.1-2.17,0-2.68,1.06-2.66,3,.07,7.49,0,15,0,22.48a6,6,0,0,0,.27,2.38,1.61,1.61,0,0,1,.2.77c2.69.36,5.4,0,8.1.13,1.19,0,2.4-.08,3.46.64.29,1-.24,1.42-1.07,1.42-4.52,0-9.07.22-13.54-.79a2.13,2.13,0,0,1-1-.63,1.88,1.88,0,0,0,0-.41,2,2,0,0,0,1.48-2.13q.18-12.28,0-24.56A4,4,0,0,0,57.9,75.84Z"/><path class="cls-1" d="M73.39,105.49v.91H61.48s-.1-.08-.16-.13l.45-.34a2.77,2.77,0,0,1,1.95-.65c1.89-.36,4,.77,5.72-.76.59-2.47.25-5,.29-7.45.08-5.07-.07-10.14.07-15.21.07-2.49-.24-5,.17-7.48.19-.67.46-1.12,1.07-.31a4,4,0,0,1,.44,2.56c0,8.84,0,17.67,0,26.5,0,.82-.61,2,.94,2.31Z"/><path class="cls-1" d="M67.57,74.37l1,0a1.69,1.69,0,0,1,.19,2c-1.15,1.19-2.72,1.32-4.2,1.49s-2,.87-2,2.33c-.09,3.2,0,6.39-.06,9.6,0,.28,0,.56,0,.84.06,4.19,0,8.37,0,12.55a2.79,2.79,0,0,1-.71,2.23c-1.34-.24-.94-1.31-.95-2.12,0-8.13,0-16.26-.05-24.4,0-1.92.79-2.59,2.57-2.59,1,0,2.46.43,2.3-1.49C66.15,74.19,66.92,74.5,67.57,74.37Z"/><path class="cls-1" d="M61.76,105.44q0-7.51,0-15c1.19-.76,2.31-1,3.14.49-.48,1.74-1,3.48,0,5.22a2,2,0,0,1,.14.72,18.83,18.83,0,0,0-.73,5.59,9.3,9.3,0,0,1-.2,2.88,3.3,3.3,0,0,1-.42.61H61.77C61.77,105.76,61.77,105.6,61.76,105.44Z"/><path class="cls-1" d="M68.55,76.34c0-.64,0-1.28,0-1.92l1.41,0c1.16,2.37.23,4.88.52,7.31-.57.56-1.16,1-2,.57C67.25,80.26,68.71,78.31,68.55,76.34Z"/><path class="cls-1" d="M68.56,82.16l1.93-.48c0,7.09,0,14.17,0,21.26,0,.85.32,1.79-.47,2.5a1.28,1.28,0,0,1-1.73-.19,4.39,4.39,0,0,1-.4-2.34q0-9.15,0-18.29A3,3,0,0,1,68.56,82.16Z"/><path class="cls-1" d="M68.56,105.44H70c-2,1-4.21.21-6.3.48v-.48a2.31,2.31,0,0,0,1.3-2.93c-.5-1.9.82-3.92-.33-5.8v-.49A15.66,15.66,0,0,1,65,93.67c.29-1.55,1.09-2.21,2.65-1.43.84,3.55.15,7.15.38,10.72C68.13,103.8,67.74,104.74,68.56,105.44Z"/><path class="cls-1" d="M68.56,105.44c-.58-.18-1.41.64-1.18-1.16.5-3.92.19-8,.2-11.93-.51-.72-1.61-.26-2.1-1-.18-1.47,1.75-1.92,1.56-3.56s.13-3.06-1.23-4.21c-.78-.67-.55-1.77-1.11-2.83a13.52,13.52,0,0,0-.07,6.16c.54,2.39-.37,3.35-2.86,3,0-3.7,0-7.4,0-11.1,0-1,.27-1.59,1.35-1.5,1.9.16,3.63-.61,5.43-1,1.35,1.94-.55,3.88,0,5.82Z"/><path class="cls-1" d="M61.77,89.92c2,0,2.52-.76,2.19-2.88-.4-2.52-1.09-5.34,1.36-7.66.08,2.08,1.25,3.6,2,5.29a5.13,5.13,0,0,1-1.69,6.7.71.71,0,0,1-1,0c-.49-1.75-1.93-.64-2.9-1Z"/><path class="cls-1" d="M64.68,96.71A1.12,1.12,0,0,1,65.84,98a21.66,21.66,0,0,0,0,6.38c.26,1.35-1.29,1-2.17,1.09C63.76,102.5,63.33,99.51,64.68,96.71Z"/><path class="cls-1" d="M64.67,91.37h1c.76.1,1.78-.33,1.93,1-1.37-.17-2.07.3-2,1.82.06.78.38,1.84-.94,2A3.35,3.35,0,0,1,64.67,91.37Z"/><path class="cls-1" d="M67.94,78.18H64.86A3.69,3.69,0,0,1,67.94,78.18Z"/></g><path class="cls-1" d="M91,106V83.51A10.48,10.48,0,0,0,80.32,72.89a11.14,11.14,0,0,0-7.91,3.56v1.38a4.37,4.37,0,0,1,3.24-1.53c2.67,0,4.09,2.19,4.09,4.81V106H77.79v1H92.93v-1Z"/><g class="cls-11"><path class="cls-1" d="M90.92,81.11c.67.85.45,1.85.45,2.79,0,6,0,11.92,0,17.88,0,1.69-.53,3.6,1.69,4.47a.28.28,0,0,1,0,.2,3.18,3.18,0,0,1-.37.27c-1.93-.15-2.54-1.3-2.52-3.11,0-3.69,0-7.39,0-11.09A4.21,4.21,0,0,0,89.82,90a2,2,0,0,0-1-.36,14.76,14.76,0,0,0-5-.31c.43.23,1.09,0,1.66.27a1,1,0,0,1,.67,1.13c-.13.78-3.8,4.6-4.61,4.74-.47.08-.69-.29-.84-.69-.12-4-.1-8,0-12a1.52,1.52,0,0,1,.34-.74c2.25-1,4.59-.51,6.9-.36a1.51,1.51,0,0,1,1.4,1.68,11.62,11.62,0,0,0,.2,2.64,2.57,2.57,0,0,1,0,.83.31.31,0,0,0,.34-.24c.16-.67.71-1.28.15-2C88.8,83.06,89.49,82,90.92,81.11Z"/><path class="cls-1" d="M89.89,89c1.35.22,1,1.3,1,2.1,0,4.08.09,8.18,0,12.26,0,1.63.31,2.8,1.88,3.41a71,71,0,0,1-14.1-.42l1.66-.87c.73-1.19.29-2.5.41-3.76.09-.93-.25-1.94.5-2.75,2.38-.83,4.81-.47,7.22-.25a1.44,1.44,0,0,1,.62.44c-1.17,1.11-1.79,3.36-4.16,1.92-.34-.21-.74.24-1.14.19.3.09.74-.13.91.08,1.19,1.45,3.23.68,4.54,1.78a2.66,2.66,0,0,1,.21.54c-.33-1.78.12-4-.16-6.13,0-.27,0-.53,0-.8C89.51,94.11,88.54,91.43,89.89,89Z"/><path class="cls-1" d="M89.41,86.52c-.46-.44-.94-.93-.71-1.62C89.6,82.16,88,82,86,82.14c-1.59.1-3.2,0-4.8,0a.52.52,0,0,1,.12-.69c1.17-.73,2.45-.11,3.67-.28h.26c-.79-.06-1.65.17-2.24-.79a8.42,8.42,0,0,1,3.91-1.86c-1-.22-2.38,1-3.37-.6,1.54-1.22,3.23-.78,4.87-.64,1.56.35,1.17,2.35,2.47,2.93l.06.88c-.16,1.12-2.2,2.13-.13,3.46.24.15.71,2.08-.9,2.44A.58.58,0,0,1,89.41,86.52Z"/><path class="cls-1" d="M81.18,81.68c0,.16,0,.32,0,.48h0a.59.59,0,0,1-.91,0,7.11,7.11,0,0,0-1-3.9c-.25-1.48-1.25-1.85-2.6-1.94-1.07-.07-2.24.48-3.21-.41.39-.48.54-1.12,1-1.54A2.22,2.22,0,0,1,75,74c.81-.26,1.57-.64,2.38-.9a1.88,1.88,0,0,1,1,.08c1.1.83,2.34,1.52,2.35,3.21,0,.29.34-.42.68-.34,2.14.57,2.41,1,1.4,2.66A25.54,25.54,0,0,1,81.18,81.68Z"/><path class="cls-1" d="M80.26,82.16h.91V95.25a2.1,2.1,0,0,1,.52,1,6.3,6.3,0,0,1,0,1.89,2.08,2.08,0,0,1-.53,1c0,1.54,0,3.07,0,4.61,0,.7.15,1.52-.89,1.69Q80.27,93.81,80.26,82.16Z"/><path class="cls-1" d="M90.86,80.23c-.35-.13-.49,1.13-.94.15s-.68-1.72-1-2.59c-.77-.35-1.52-.74-2.28-1.12a1.41,1.41,0,0,1-.71-2.26,1,1,0,0,1,1-.25,5.77,5.77,0,0,1,2,1.75C89.32,77.45,90.82,78.5,90.86,80.23Z"/><path class="cls-1" d="M81.17,96.23v-1c1.45-1.41,2.92-2.81,4.36-4.24.44-.43.42-.88-.26-1a5.43,5.43,0,0,1-2.22-.82A9.66,9.66,0,0,1,88.92,89c.91,1.69.35,3.53.5,5.3.09,1-.3,2.06.47,2.94v.49a2.36,2.36,0,0,1-1.07.77,1.43,1.43,0,0,1-1-.16c-.71-.64-1.72-.37-2.49-.78-1.09-.59-1.16-1.23,0-1.76a3.23,3.23,0,0,0-2.19.56A1.45,1.45,0,0,1,81.17,96.23Z"/><path class="cls-1" d="M89.89,97.19c-1.2-.15-1-1.08-1-1.83,0-2.14,0-4.27,0-6.41h1Z"/><path class="cls-1" d="M89.41,86.52l.48.49a10.74,10.74,0,0,1-.27,1.12s-.5,0-.54-.13A1.11,1.11,0,0,1,89.41,86.52Z"/><path class="cls-1" d="M88.92,103c-2.45.81-4.1-1.45-6.29-1.72,1.14-.12,2.2-2.24,3.49-.07.12.21.61-.12.63-.47.11-1.58,1.33-1,2.17-1.14A3,3,0,0,1,88.92,103Z"/><path class="cls-1" d="M88.92,103V99.13a.67.67,0,0,1,0-1,1,1,0,0,1,1-.48v8.41l-.7,0C88.7,105.15,89,104.05,88.92,103Z"/><path class="cls-1" d="M88.92,98.16v1H81.17v-1c2.26-1.35,4.52-.58,6.78,0Z"/><path class="cls-1" d="M73.41,74.44h1.47c-.39.57-.52,1.39-1.41,1.48Z"/><path class="cls-1" d="M86,74.39c-.37,2.25,2.35,1.9,2.87,3.4H84.16v.4h3.79c-1.8.1-2.35,2.63-4.3,2.52H86c.31.55-.22.69-.48,1H81.18a3.43,3.43,0,0,1,.93-3c1.43-1.39.74-2.11-.94-2.34a3.23,3.23,0,0,1-.28-2.76c.57-.74,1.33-.39,2-.37a1.86,1.86,0,0,1,.56.24,7.85,7.85,0,0,0,2.52,1Z"/><path class="cls-1" d="M85.53,81.67l.48-1c.46.08,1.21.09,1,.68S86.05,81.58,85.53,81.67Z"/><path class="cls-1" d="M81.16,73.45c-.22,1,.52,1.93,0,2.89-.08.58.18,1.31-.89,1.6.34-2-.81-3.27-2-4.5a3.83,3.83,0,0,0,.29-.28A2.53,2.53,0,0,1,81.16,73.45Z"/><path class="cls-1" d="M88,98.16H81.17V96.23c1.9-.6,3.75-1.59,5.88-.76-.22,1.29-1.56.36-2.12,1,.51,1.08,1.51.61,2.3.65S88.29,97.41,88,98.16Z"/><path class="cls-1" d="M83.11,73.43l1.91,0,1,.93C84.89,74.54,83.66,75,83.11,73.43Z"/><path class="cls-1" d="M78.26,73.43a5.42,5.42,0,0,1,4.84,0c-.64.48-1.29,0-1.94,0Z"/></g><path class="cls-1" d="M167.7,72.85s-3.22,2.33-9.23,2.33H154v1h2.45V106h-2v1h15.14v-1h-2Z"/><g class="cls-12"><path class="cls-1" d="M164.08,74.48l3.79-1.3v5.1a.66.66,0,0,1-.59-.24,2.54,2.54,0,0,1-.29-1.21c0,.45,0,.9,0,1.35a5.17,5.17,0,0,0,.64,2.13c.07,1,.35,2.11-1.18,2.37-.74.13-1.92-.08-2,.89-.07,1.16,1.36.75,2,1.25a3.38,3.38,0,0,1,1.16,1.3,6.48,6.48,0,0,1,0,1.76,3.92,3.92,0,0,0-.51,2.3c-.11,1.16.27,2.73-1.34,3-1.28.18-3,.47-3.29-1.68-.1-.76-.6-.24-.87-.22-1.11.1-2.24.53-3.19-.47-.63-1.4-.32-2.87-.34-4.32.16-1,.52-1.81,2-1.52-.65-.2-1.3,0-1.62-.61s-.33-1.4-.64-2-.68-1.56-.25-2.42c.71-.72,1.74,0,2.36-.6.45.13.19-.39.22-.06-1.45.11-1.83-.65-1.59-1.93.25-.54.67-1.1,1.19-1.07C161.5,76.29,162.66,75.1,164.08,74.48Z"/><path class="cls-1" d="M167.87,98.16c0,1.62,0,3.23,0,4.85-.87.91-1.8-.09-2.6.25.35.25,1.66-.25,1.37.77-.41,1.39-1.83.32-2.85.79a4.47,4.47,0,0,1,4.23,1l.47.15c.25.27.25.51-.06.72a97.09,97.09,0,0,1-11.57,0c-.8-1.14,1.11-.76.88-1.58,1.58-1.2-.25-2.81.49-4.11.2-1.19,1.1-1.39,2.1-1.63,2.17-.52,4.53-.21,6.56-1.4A.85.85,0,0,1,167.87,98.16Z"/><path class="cls-1" d="M167.87,98.16H167a17.72,17.72,0,0,1-8.25,1.12,1,1,0,0,1-.13-1.09c.37-.48,1,0,1.49-.48.26,0-.29-.22-.08,0a1.22,1.22,0,0,1-1.48-.14,2,2,0,0,1-.11-2c1.12-1.19,2.56-.41,3.79-.4,1.06,0,2.17.06,3.25.16a1.31,1.31,0,0,1,.71.08c.62.4.39.78-.07,1.09-.78.51-1.72.25-2.42.54.79-.61,2.52.62,2.82-1.37-.37,0,0-1-.71-.54a7.36,7.36,0,0,1-2.6.09c-.81-.2.57-1.18-.4-1.26-.76-.07-1.31.81-1.94.8a2.94,2.94,0,0,1-2.53-1,2.88,2.88,0,0,1,.42-2.94c1.83.29,3.59-1,5.48-.26.2,1.08-1.31.44-1.33,1.28,3.58,1.45,3.58,1.45,3.61-2,.32-.27.47-.67.76-1a.5.5,0,0,1,.57,0Q167.85,93.56,167.87,98.16Z"/><path class="cls-1" d="M157.8,105.44c.28.87-1.12.54-1,1.32a2.59,2.59,0,0,1-2.19-.39c2.32-.47,2.15-2,2.14-3.62-.05-7.89-.07-15.78,0-23.68,0-1.76.12-3.36-2.38-3.58,2.79-1.09,5.67.1,8.27-1h1.4c-1,2.39-3.54,1.89-5.32,2.83-.83.61-.1,1.84-1,2.43l.47,2.41q0,7.47,0,14.94c0,.28,0,.57,0,.86a10.62,10.62,0,0,0,.07,1.69q0,.42-.06.84C157.9,102.11,158.85,103.87,157.8,105.44Z"/><path class="cls-1" d="M167.85,88.94h-.36a.66.66,0,0,1-.06-.92V86c-.51-.11,0-1.24-.93-.93-.48,0-1,0-1.45,0-.89,0-1.69-.51-1.72-1.37,0-1,.86-1.52,1.83-1.49,1.44,0,2.65,0,2.28-2a1.42,1.42,0,0,1-.21-1.66,3,3,0,0,1,.25-.25h.38Q167.86,83.62,167.85,88.94Z"/><path class="cls-1" d="M168,105.86c-.19.28-.6.58-.76.33-1-1.51-2.61-1.22-4.48-1.28,1.33-.79,2.53,0,3.47-.77-.14-1-1.29-.31-1.81-1.13h3.43Z"/><path class="cls-1" d="M168.42,106.73l.06-.72c.46-.11,1.18-.3,1.2.24C169.72,107.08,169,106.82,168.42,106.73Z"/><path class="cls-1" d="M157.8,97.68c0-4.42,0-8.84,0-13.26,0-.77-.27-1.63.46-2.27.72.51.43,1.28.5,1.95-.15.64-.46,1.28,0,1.93v8.25c.46.49-.46,1,0,1.46v1.93A.64.64,0,0,1,157.8,97.68Z"/><path class="cls-1" d="M157.79,79.74c0-.71,0-1.42,0-2.13s.43-.79.93-.3c-.1,1.89,1.52,1.31,2.68,1.63C160.19,79.82,159.17,80.64,157.79,79.74Z"/><path class="cls-1" d="M166.52,78.28V74.69h.7c.51,1.13.16,2.38.27,3.57l-.05,0A.62.62,0,0,1,166.52,78.28Z"/><path class="cls-1" d="M166.51,85.07c.06-.58-.14-1.23.55-1.84.66,1,.33,1.89.38,2.77C166.79,86,166.54,85.66,166.51,85.07Z"/><path class="cls-1" d="M158.76,86a1.16,1.16,0,0,1,0-1.93c.44.79,1.38.23,2,.71C160.15,85.37,158.81,84.67,158.76,86Z"/><path class="cls-1" d="M166.52,78.28l.92,0c0,.62,0,1.25,0,1.87C166.12,80.05,166.65,79,166.52,78.28Z"/><path class="cls-1" d="M167.43,88l.06.92a.9.9,0,0,1-1,1C166.64,89.21,166.12,88.18,167.43,88Z"/><path class="cls-1" d="M157.79,100.11v-.5c.28-.26.42-.79,1-.48l8.24-1c.16.48.34.88-.47,1-2.14.27-4.25.71-6.39.92-1,.11-1.45.5-1.38,1.49C157.49,101.71,158.41,100.4,157.79,100.11Z"/><path class="cls-1" d="M157.79,100.11l1,1.45c.09.54-.53,1.08,0,1.61,1.36,1.45.12,1.81-.92,2.27C157.8,103.66,157.79,101.89,157.79,100.11Z"/><path class="cls-1" d="M158.76,95.74c-.78-.49-.12-1,0-1.46.17-.16.45-.5.51-.47,1.75,1,3.66-1.52,5.33.29-.26.43-1.17-.09-1.29,1l2.72-.28a.65.65,0,0,1,0,1Z"/><path class="cls-1" d="M166.52,95.74c.52.06,1,.22.89.87,0,.46-.39.91-.75.77-1.55-.59-3.09.53-4.83-.06,1.47-1.19,3.59,0,4.69-1.58Z"/><path class="cls-1" d="M157.8,97.68h1l1.52.11v.28l-1.52.11a.65.65,0,0,1-1,0A3.84,3.84,0,0,1,157.8,97.68Z"/><path class="cls-1" d="M157.8,98.16h1v1l-1,.48C157.79,99.13,157.79,98.65,157.8,98.16Z"/><path class="cls-1" d="M166,95.74v-1c.2-.7.41-1.55.53,0a6.17,6.17,0,0,1,0,1H166Z"/></g><path class="cls-1" d="M169.17,77v1.85a2.53,2.53,0,0,1,2.26-1.45,2.93,2.93,0,0,1,2.81,3.08,3.17,3.17,0,0,1-2.23,3.3c0,3.66,9.6,3.92,9.6-2.72,0-5.93-8.54-8.27-12.44-4.06"/><g class="cls-13"><path class="cls-1" d="M181.08,83.62A6.17,6.17,0,0,1,174.21,86c-2-.7-2-1.74,0-3.91a1.41,1.41,0,0,1,.55.84c.06.22.1.43.14.65,1.15,1.64,2.29.9,3.43,0a5.93,5.93,0,0,1,.43-.44c.44-.18.37-.46.15-.77a5.77,5.77,0,0,0-.15-2.11,5,5,0,0,1-.17-.94,6.26,6.26,0,0,1,0-1.3,3,3,0,0,1,.2-.64,1.1,1.1,0,0,1,.79-.56,1.55,1.55,0,0,1,1.05,1.44,5.46,5.46,0,0,1,1.05,2.87c-.18.42-.7.65-.71,1.17S181.06,83.17,181.08,83.62Z"/><path class="cls-1" d="M179.12,79.24v1c.24.65-.26,1-.69,1-.8.06-.62.67-.8,1.09a1,1,0,0,1-.4.21c-.55.11-1.39-.19-1.26.89a1.42,1.42,0,0,1-1.68-.3c0-.34-.05-.69-.07-1a.56.56,0,0,1,.1-.43c.38-.93,1.11-1.73.78-2.91-.16-.55.44-.77,1-.83a2,2,0,0,1,.63.14C177.36,78.74,178.6,78.26,179.12,79.24Z"/><path class="cls-1" d="M169.48,78.19l0-1.65c.5-1.4,1.67-1.55,2.91-1.57a.68.68,0,0,0,.42-.13.47.47,0,0,1,.6,0,1.73,1.73,0,0,1,.26.61c-.1.84.2,1.76-.44,2.5C172,77.5,170.77,78.58,169.48,78.19Z"/><path class="cls-1" d="M173.31,77.78a3.8,3.8,0,0,1,0-2.38c.74-.55,1.05,0,1.37.52.08.23.1.47.18.7s.49.35.73.53c-.11-.26-.64-.28-.43-.73,1.62-1,2.88-.54,3.92.9v.49a1.84,1.84,0,0,1-2.41.47h-.49c-.81-.72-1.6.55-2.4,0l-.4-.07C173.06,78.15,173,78,173.31,77.78Z"/><path class="cls-1" d="M174.3,76.36c0-.6-.31-1-1-1a3.17,3.17,0,0,1,0-.44,4.72,4.72,0,0,1,3.81,0c.28,1.37,2.07.61,2.5,1.78l-.52.54c-1.24-.53-2.41-1.74-3.88-.49C174.71,77.1,174.56,76.63,174.3,76.36Z"/><path class="cls-1" d="M173.81,78.3c.79-.39,1.59-.93,2.4,0l-.66.19c1.18,1.67-.41,2.27-1.22,3.17C174.27,80.51,174.46,79.34,173.81,78.3Z"/><path class="cls-1" d="M181.53,81.17c.06-1.08-1-1.84-.84-3,1.51,1,1.54,2.45,1,4L181.4,82A.73.73,0,0,1,181.53,81.17Z"/><path class="cls-1" d="M181.08,83.62c-.59-.34-.48-.92-.49-1.45a.56.56,0,0,1,.86,0l.22,0C181.56,82.72,181.61,83.29,181.08,83.62Z"/><path class="cls-1" d="M179.12,83.61c-.9,1.36-2.22,1.58-3.72,1.46-1-.08-1.13-.68-1.11-1.45C175.9,83.62,177.51,82.3,179.12,83.61Z"/><path class="cls-1" d="M177.68,82.16c-.19-.62-1.29-.26-1.22-1.24.83-.39,2,.47,2.67-.69.92.8.34,1.6,0,2.4C178.44,83.07,178.45,81.44,177.68,82.16Z"/><path class="cls-1" d="M177.68,82.16c.71-.54,1,.18,1.44.47s.32.36,0,.52a4,4,0,0,1-2.88,0,6.61,6.61,0,0,1-.5-.7C176.3,81.92,177,82.27,177.68,82.16Z"/><path class="cls-1" d="M176.7,78.28c.71-.66,1.67,0,2.41-.47,0,.48,0,1,0,1.43C178.49,78.48,176.9,80.12,176.7,78.28Z"/><path class="cls-1" d="M176.22,83.12l2.88,0c0,.15,0,.31,0,.46h-4.83c0-.17,0-.34,0-.51Z"/><path class="cls-1" d="M181.45,82.16h-.86c-.7-1.3.46-.83.94-1C181.5,81.5,181.48,81.83,181.45,82.16Z"/><path class="cls-1" d="M174.3,76.36l.94.47h1.35C175.76,77,174.7,78,174.3,76.36Z"/></g><path class="cls-1" d="M256.15,72.85s-3.22,2.33-9.24,2.33h-4.45v1h2.45V106h-2v1H258.1v-1h-2Z"/><g class="cls-14"><path class="cls-1" d="M256.29,79.26c0,8.14,0,16.27-.07,24.41,0,1.41.52,2.2,2.37,2.79-2.82.76-5,.42-7.22.48s-4.35,0-6.53,0c-.53,0-1.32.18-1.43-.51s.77-.67,1.18-1a.75.75,0,0,1,.65-.1c3.07.93,6.19.4,9.3.34.22,0,.1-.4.05-.62.51-1.29-.73-2.53-.09-3.81.4-1.06-.07-2.17.14-3.25.41-1.32-.9-2.56-.2-3.9.1-.29.75-.5.12-.89a1.08,1.08,0,0,1,0-.81c.43-.6-.2-1-.28-1.55a8.31,8.31,0,0,1,0-3.44,19.86,19.86,0,0,0,.15-6.66,2.28,2.28,0,0,1-.18-1A5.24,5.24,0,0,1,255,78c.17-.93-.49-1.58-.8-2.35-.11-.66-1.22-.83-.84-1.74,2.68-1.34,3.08-1.14,3.2,1.64A3.83,3.83,0,0,1,256.29,79.26Z"/><path class="cls-1" d="M254.77,75.37c.27,1,1.38,1.71.94,2.93a4.74,4.74,0,0,1-3.54.39c-.88-.71-1.75-1.47-3-1.14.55.13,1.22-.22,1.75.36-.24,1.08-1.13.42-1.69.61a4.31,4.31,0,0,1-1.88-.23c.64.39,1.27.18,1.86.24s1.64-.1,1.69.82-.95.84-1.6,1a4.19,4.19,0,0,0-1.36.29c-.45.77-1.49,1.21-1.24,2.35.3,2.35-.39,4.63-.36,7,0,.92-.37,1.69-1.46.73.17-4.62-.38-9.23-.22-13.85a2.8,2.8,0,0,1,3-1.92,16.77,16.77,0,0,0,2.65-.08,2.45,2.45,0,0,0,.7-.36l.88-.1.31.08C252.93,75.06,254.07,74.63,254.77,75.37Z"/><path class="cls-1" d="M245,105.37q.06-6.53.11-13a.79.79,0,0,1,1.14.14c.89,2.9.21,5.88.44,8.81.09,1.09-.35,2.26.5,3.22a4.13,4.13,0,0,0,1.74.24c1.41-.16,1.18-1.28,1.26-2.19.11-1.27-.18-2.57.41-3.78a1.08,1.08,0,0,1,1-.43c1.65.22,1,1.92,1.78,2.73.42,1.31-.73,3.2,1.43,3.87.66.06,1.07.41,1,1.08,0,.41-.45.38-.75.38-3.06,0-6.12,0-9.17,0C245.32,106.35,245.15,105.87,245,105.37Z"/><path class="cls-1" d="M249,78.29h1.54c-.61-.87-1.56-.15-2.27-1,1.4.43,2.88-.79,3.64,1a3.06,3.06,0,0,1,.7,1c.47.91,1.64.69,2.23,1.39.22.08.63.16.63.23,0,2-.1,4-.19,6,0,0-.29.07-.44.1a2.49,2.49,0,0,1-2.64.34c-.72-.91-.27-2.07-.6-3.07.3-.64.84-1.25.79-2,0-.52-.31.14-.51.09a2.55,2.55,0,0,1-1,.26,3.28,3.28,0,0,1-1.36-.19c-.52-.23-1.34-.66-1.26-1,.32-1.27-.93-.81-1.24-1.31,1-1,2.41-.09,3.52-.68-.29-1-1-.7-1.59-.78-.15-.11-.2-.21-.15-.32S248.9,78.29,249,78.29Z"/><path class="cls-1" d="M251.89,87h2.91c0,1.45,0,2.9,0,4.35a1.81,1.81,0,0,0,0,1v1a1.57,1.57,0,0,1-1.93.22c-1-1-.38-2.68-1.36-3.74A2.54,2.54,0,0,1,251.89,87Z"/><path class="cls-1" d="M254.79,93.8c.23,1-.54,2.06.75,2.92.67.45-.52.91-.75,1.43a1.28,1.28,0,0,1-1.1.34c-.78-.22-1.66-.22-2.16-1a4.11,4.11,0,0,1,.26-3.75A4.61,4.61,0,0,1,254.79,93.8Z"/><path class="cls-1" d="M254.8,104.94c-1.28.94-1.92.57-2-1,0-1,0-1.93,0-2.9a1.39,1.39,0,0,1,1.95,0C254.49,102.37,255.73,103.65,254.8,104.94Z"/><path class="cls-1" d="M254.79,101.08h-1.95c-.5-.73-.25-1.77-1-2.41.34-1.32,1.19-.67,1.92-.5h1Z"/><path class="cls-1" d="M251.87,79.74V78.29h3.84c-.27.5-1,.7-.94,1.42C253.81,80.48,252.84,80.12,251.87,79.74Z"/><path class="cls-1" d="M251.84,74.56l1.38-.22c.67.11,1.51,0,1.55,1C253.79,75.12,252.5,76,251.84,74.56Z"/><path class="cls-1" d="M251.87,79.74h2.9l0,1A3.18,3.18,0,0,1,251.87,79.74Z"/><path class="cls-1" d="M254.79,93.8h-2.91a.51.51,0,0,1,0-.6.74.74,0,0,1,.93.11h1.95c.26,0,.65-.39.74,0C255.66,93.78,255.13,93.74,254.79,93.8Z"/><path class="cls-1" d="M254.79,92.35c-.35-.07-.84-.06-.73-.6,0-.17.48-.25.73-.38.21.19.56.36.61.58C255.48,92.36,255.06,92.3,254.79,92.35Z"/><path class="cls-1" d="M245.2,91.86c0-.32,0-.64,0-1,1-1.6.43-3.46.84-5.18a16.87,16.87,0,0,0,.07-3.56.82.82,0,0,1,1.21.15,19.74,19.74,0,0,1,0,9.42C246.63,92.42,245.92,92.17,245.2,91.86Z"/><path class="cls-1" d="M245,76.33c-.6-.54-1.61-.13-2.52-1.45h8.37c-.59.76-1.46.58-2.16.46C247.26,75.09,246.19,75.84,245,76.33Z"/><path class="cls-1" d="M247,82.16h-.94c-.11-.86,1.4-.92,1-1.94,1.69-.46,1.6,1.32,2.43,1.93a1.3,1.3,0,0,1-.63.43A1.87,1.87,0,0,1,247,82.16Z"/><path class="cls-1" d="M249,78.29c0,.15,0,.31,0,.47h-3.37C246.9,77.16,248,78.65,249,78.29Z"/><path class="cls-1" d="M245.2,91.86H247a2.64,2.64,0,0,1,1.87-.63,3.18,3.18,0,0,1,2,.46.65.65,0,0,1,.1.74,2.86,2.86,0,0,1-1.89.55,11.77,11.77,0,0,1-2-.08,2.42,2.42,0,0,1-1-.54l-.89,0A.52.52,0,0,1,245.2,91.86Z"/><path class="cls-1" d="M249,92.36l1.94,0c1,1.62.27,3.41.47,5.11a1.77,1.77,0,0,1-.47,1.19c0,1.66-.08,3.32,0,5s-.58,2-2,1.83c-1.38-2.3-.53-4.82-.7-7.24C248.36,96.24,247.72,94.19,249,92.36Z"/><path class="cls-1" d="M249,98.16c0,2.43,0,4.85,0,7.28H247c-1-2.19-.32-4.47-.41-6.7C247.14,97.54,248,97.71,249,98.16Z"/><path class="cls-1" d="M247,98.17c0,2.42,0,4.84,0,7.27-1.34-.22-1-1.28-1-2.08,0-3.67,0-7.33,0-11h1A5.57,5.57,0,0,1,247,98.17Z"/><path class="cls-1" d="M250.9,98.64v-1a.66.66,0,0,1,1,0c.66.07,1.42-.23,1.92.48-.66.08-1.42-.22-1.92.5Z"/><path class="cls-1" d="M250.9,91.86H249a13.55,13.55,0,0,1,0-9.71h2A19.78,19.78,0,0,1,250.9,91.86Z"/><path class="cls-1" d="M250.9,91.86c0-3.23,0-6.47,0-9.7h1a1.38,1.38,0,0,1,0,1.94c-.08,1,.76,1.94,0,2.91,0,1,0,1.94,0,2.91a3.09,3.09,0,0,1,0,3.39c0,.16,0,.32,0,.48v3.89h-1V92.34A1.93,1.93,0,0,0,250.9,91.86Z"/><path class="cls-1" d="M251.88,84.1c0-.65,0-1.29,0-1.94s.48-1.15,1.11-.9c1,.39-.25.73-.16,1.23C253,83.16,253,84,251.88,84.1Z"/><path class="cls-1" d="M251.87,93.31c0-1.13,0-2.26,0-3.39,1.8.7.62,2.26,1,3.38Z"/><path class="cls-1" d="M249,82.16c0,3.24,0,6.47,0,9.71H247c0-3.23,0-6.46,0-9.7Z"/><path class="cls-1" d="M247,98.17V92.35H249c0,1.93,0,3.87,0,5.8C248.31,98.18,247.67,98.63,247,98.17Z"/></g><path class="cls-1" d="M257.62,77v1.85a2.53,2.53,0,0,1,2.26-1.45,2.93,2.93,0,0,1,2.81,3.08,3.17,3.17,0,0,1-2.24,3.3c0,3.66,9.6,3.92,9.6-2.72,0-5.93-8.53-8.27-12.43-4.06"/><g class="cls-15"><path class="cls-1" d="M267.43,76.33c2.91,1.85,3.32,3.53,1.9,7.77-2.23,2.55-3.74,3-6.8,2l0-.08a2.2,2.2,0,0,1-1.36-3c.33-.5.67-1,1.39-.84a1.89,1.89,0,0,1,.49.91c.6,1.26,2.43,1.82,3.32.93.2-.19-.45-.79-.29-1.31a.81.81,0,0,1,.72-.61c1,.38,1.41-.38,1.93-1-1.12-.72-.72-2.47-2.14-3-1.12-.45-2-1.09-.18-1.9A1.35,1.35,0,0,1,267.43,76.33Z"/><path class="cls-1" d="M267.43,76.33l-1,0a3.09,3.09,0,0,1-2.88,0c-1-.56-1.09,1.11-1.82,1.52-1.22.06-2.52-.33-3.59.61a.81.81,0,0,1-.63-.28,1.78,1.78,0,0,1,0-1.76,1.28,1.28,0,0,1,.85-.5c.34-.19.79.28,1.09-.19a.38.38,0,0,1,.16-.39C262.33,74.55,265,74.25,267.43,76.33Z"/><path class="cls-1" d="M260.58,83.58l1-.43c-.63,1.27.33,2,1,2.83A2,2,0,0,1,260.58,83.58Z"/><path class="cls-1" d="M261.66,78.19l-.09-.4c.61-2.12.78-2.17,2.69-1.5a7.17,7.17,0,0,0,2.13.07,3.91,3.91,0,0,0-.27.36c1,1,2.5,1.63,2.69,3.32.57-.74.49-.06.5.25A2.82,2.82,0,0,1,267.75,83c-.54.29-.77-.33-.84-.84-.45-.43-.89.06-1.34,0-.82-.07-1.83-.19-2-1-.2-1.14,1.09-.74,1.68-1.12a5.87,5.87,0,0,1-2.77-1.24Z"/><path class="cls-1" d="M262.51,78.78c1.66,0,3,1,4.95,1.24-1.19,1.12-2.41.41-3.49.83.73,1.19,2,.63,2.92.91.05,0,.11.12.11.18a.6.6,0,0,1-.09.22l-.49.48c-1,.41-2.36-.19-3.18,1-.11.15-.51-.24-.69-.5v-.93C262.54,81.06,262.52,79.92,262.51,78.78Z"/><path class="cls-1" d="M262.55,83.14c1.23-.63,2.41-1.65,3.87-.5,1,1.58-.23,1.93-1.28,2.28C263.56,85.45,262.52,85,262.55,83.14Z"/><path class="cls-1" d="M258.64,76.33l.88-.52c.35.11,1.05.17.81.58C259.89,77.12,259.23,76.16,258.64,76.33Z"/></g></g></svg>