<svg id="Layer_1" data-name="Layer 1" xmlns="http://www.w3.org/2000/svg" viewBox="0 0 288 107"><defs><style>.cls-1{fill:#342512;}.cls-2{fill:#e4d699;}</style></defs><title>Artboard 49 copy 8</title><path class="cls-1" d="M11.08,17.18V39.83a13.64,13.64,0,0,1,4.26-4,10.1,10.1,0,0,1,5.1-1.35,11.63,11.63,0,0,1,9,4.2q3.72,4.18,3.72,11,0,7.44-4,12a12.62,12.62,0,0,1-9.87,4.56,11.56,11.56,0,0,1-5.07-1.1,16.18,16.18,0,0,1-4.67-3.74A34.39,34.39,0,0,1,6,66.25l-1.3-.46A33.19,33.19,0,0,0,5.65,58V23.58a3,3,0,0,0-1.12-2.5,4.94,4.94,0,0,0-3.17-.9H0V17.74Zm8.19,20.15a7.08,7.08,0,0,0-6,3.19Q11,43.73,11,51.09q0,7,2.28,10a7.09,7.09,0,0,0,5.94,3,6.17,6.17,0,0,0,5.33-3q2.53-3.76,2.54-10.75t-2.23-10A6.63,6.63,0,0,0,19.27,37.33Z"/><path class="cls-1" d="M33.09,35.34,45.21,35v26.2a1.91,1.91,0,0,0,.52,1.52,2.75,2.75,0,0,0,1.88.65h3.45v2.43H33.74V63.36H37a2.8,2.8,0,0,0,2.1-.7,2.9,2.9,0,0,0,.66-2V41.45a3.51,3.51,0,0,0-1-2.74,4.55,4.55,0,0,0-3.08-.93H33.09Zm8.45-18.16a3.48,3.48,0,0,1,2.56,1.11,3.61,3.61,0,0,1-2.53,6.2,3.69,3.69,0,0,1-3.67-3.64,3.78,3.78,0,0,1,3.64-3.67Z"/><path class="cls-1" d="M116.62,63.36a3.61,3.61,0,0,1-2.5-.7,3.11,3.11,0,0,1-.74-2.36V45.49a13,13,0,0,0-1.25-5.75A8.26,8.26,0,0,0,108.85,36a9.92,9.92,0,0,0-5.06-1.19,12.08,12.08,0,0,0-6.29,1.65,14.42,14.42,0,0,0-4.82,5,51.07,51.07,0,0,0-.92-6.69l-10.1.61v2.12h1.56a4.2,4.2,0,0,1,3,1,3.91,3.91,0,0,1,1,3V61.08a2,2,0,0,1-.83,1.63,3.85,3.85,0,0,1-2.41.65H82.39l-.58-.91a4.52,4.52,0,0,1-2.67,1,2.15,2.15,0,0,1-1.85-1.06,5.93,5.93,0,0,1-.71-3.26V42.52a7.23,7.23,0,0,0-2.86-5.74q-2.86-2.36-8.29-2.35a15.68,15.68,0,0,0-9.5,2.67c-2.41,1.77-3.62,3.74-3.62,5.88a3.89,3.89,0,0,0,1.08,2.83,3.71,3.71,0,0,0,2.72,1.11A3.42,3.42,0,0,0,58.58,46a3.21,3.21,0,0,0,.94-2.39,4.11,4.11,0,0,0-.94-2.31,3.23,3.23,0,0,1-.78-1.53c0-.55.49-1.13,1.46-1.71a9.69,9.69,0,0,1,4.88-1.18,7.31,7.31,0,0,1,5,1.76,5.45,5.45,0,0,1,2,4.22v4.61C65,48.16,60,49.54,56.32,51.65s-5.57,4.7-5.57,7.88a6.38,6.38,0,0,0,2.43,5.15c1.63,1.35,4,2,7.12,2a13.65,13.65,0,0,0,5.62-1.06,19.93,19.93,0,0,0,5.42-4.35A9.76,9.76,0,0,0,74,65.5a5.83,5.83,0,0,0,3.73,1.19A6.76,6.76,0,0,0,82,65.17v.62H98.07V63.36H96a3.67,3.67,0,0,1-2.52-.7,3.07,3.07,0,0,1-.76-2.36V49a11.66,11.66,0,0,1,2.45-7.7,7.62,7.62,0,0,1,6.13-3,6.05,6.05,0,0,1,5.52,2.92c.87,1.37,1.3,3.48,1.3,6.3v13a2.44,2.44,0,0,1-.85,2,4.84,4.84,0,0,1-3,.69h-1.52v2.43h16V63.36ZM71.15,54a10.07,10.07,0,0,1-2.81,7.3,9,9,0,0,1-6.64,2.89,4.52,4.52,0,0,1-3.48-1.41,5.47,5.47,0,0,1-1.33-3.91,6.52,6.52,0,0,1,2.56-5.52q3.45-2.57,11.7-3.71Z"/><path class="cls-1" d="M140.58,56.76l2.12.62q-2.55,9.32-11.18,9.31a13.72,13.72,0,0,1-10.37-4.18q-4-4.18-4-11.14,0-8.07,4.42-12.5a14.25,14.25,0,0,1,10.4-4.44,11.12,11.12,0,0,1,7.41,2.47,7.15,7.15,0,0,1,2.92,5.51,4.26,4.26,0,0,1-1.08,3,3.47,3.47,0,0,1-5.06.18,3.3,3.3,0,0,1-1-2.43,4.2,4.2,0,0,1,1.1-2.72,1.75,1.75,0,0,0,.53-1,2.4,2.4,0,0,0-1.27-1.84,5.92,5.92,0,0,0-3.44-.88,6.89,6.89,0,0,0-6,2.88c-2,2.8-2.93,6.47-2.93,11,0,4.34.86,7.65,2.6,9.88a8,8,0,0,0,6.63,3.36Q137.88,63.91,140.58,56.76Z"/><path class="cls-1" d="M156.23,34.43a13.63,13.63,0,0,1,10.31,4.44q4.17,4.44,4.18,11.68a17.92,17.92,0,0,1-1.87,8.53,13.93,13.93,0,0,1-5.33,5.57,14.32,14.32,0,0,1-7.46,2,13.1,13.1,0,0,1-10-4.47q-4.09-4.5-4.1-11.63t4.13-11.67A13.28,13.28,0,0,1,156.23,34.43Zm0,2.32a7.06,7.06,0,0,0-6,3.3c-1.57,2.19-2.34,5.67-2.34,10.41s.77,8.35,2.32,10.59a7,7,0,0,0,6,3.34,7.22,7.22,0,0,0,6.16-3.34c1.56-2.24,2.35-5.88,2.35-10.95,0-4.71-.78-8.1-2.32-10.2A7.29,7.29,0,0,0,156.23,36.75Z"/><path class="cls-2" d="M181.65,17.18V61.31a1.77,1.77,0,0,0,.55,1.4,3.11,3.11,0,0,0,2,.65h3.21v2.43H170.15V63.36h3a3.11,3.11,0,0,0,2.23-.72,2.72,2.72,0,0,0,.73-2V23.58a2.94,2.94,0,0,0-.88-2.37,4.33,4.33,0,0,0-3-1h-2.73V17.74Z"/><path class="cls-2" d="M218.28,62.45l1.16,1.82a7.18,7.18,0,0,1-5.25,2.42,5.78,5.78,0,0,1-3.72-1.19,9.67,9.67,0,0,1-2.65-4.22,20.39,20.39,0,0,1-5.42,4.35,13.73,13.73,0,0,1-5.63,1.06c-3.12,0-5.49-.66-7.11-2a6.36,6.36,0,0,1-2.44-5.15c0-3.18,1.86-5.79,5.57-7.88s8.66-3.49,14.84-4.19V42.85a5.46,5.46,0,0,0-2-4.22,7.31,7.31,0,0,0-5-1.76,9.69,9.69,0,0,0-4.88,1.18c-1,.58-1.46,1.16-1.46,1.71a3.23,3.23,0,0,0,.78,1.53A4.11,4.11,0,0,1,196,43.6a3.21,3.21,0,0,1-.94,2.39,3.41,3.41,0,0,1-2.47.93,3.67,3.67,0,0,1-2.71-1.11A3.85,3.85,0,0,1,188.78,43c0-2.14,1.2-4.11,3.62-5.88a15.73,15.73,0,0,1,9.51-2.67q5.42,0,8.28,2.35a7.2,7.2,0,0,1,2.86,5.74V59.16a5.83,5.83,0,0,0,.72,3.26,2.13,2.13,0,0,0,1.85,1.06A4.52,4.52,0,0,0,218.28,62.45ZM207.63,49.61q-8.26,1.14-11.71,3.71a6.52,6.52,0,0,0-2.56,5.52,5.51,5.51,0,0,0,1.33,3.91,4.53,4.53,0,0,0,3.47,1.41,9,9,0,0,0,6.65-2.89,10.12,10.12,0,0,0,2.82-7.3Z"/><path class="cls-2" d="M285.89,56.56q-3.87,7.24-10.24,7.25a9,9,0,0,1-7.1-3.22c-1.64-1.9-2.5-5.17-2.61-9.8h21.8a22,22,0,0,0-1.21-7.55,13.65,13.65,0,0,0-4.83-6.53,12.93,12.93,0,0,0-7.64-2.28A13.13,13.13,0,0,0,263.94,39q-4.11,4.57-4.11,12a19.43,19.43,0,0,0,.27,3.3h-1.78c-.17,3.15-.78,5.41-1.81,6.77a4.63,4.63,0,0,1-3.78,2,3.92,3.92,0,0,1-3-1.35,5.61,5.61,0,0,1-1.2-3.87V38.33h9.84v-3h-9.84V22.94H246.3c-.15,4.32-1.16,7.7-3,10.1a7.18,7.18,0,0,1-5.09,2.3h-9.84V22.94h-2.18c-.15,4.32-1.17,7.7-3,10.1a8.55,8.55,0,0,1-5.52,3v2.27h5.31V58.78a7.19,7.19,0,0,0,2.12,5.4,8,8,0,0,0,5.9,2.07,8.43,8.43,0,0,0,6.66-3q2.57-2.92,2.76-9h-2.18c-.18,3.15-.78,5.41-1.82,6.77a4.6,4.6,0,0,1-3.77,2,4,4,0,0,1-3.06-1.35,5.65,5.65,0,0,1-1.19-3.87V38.33h14.71V58.78a7.19,7.19,0,0,0,2.13,5.4,8.06,8.06,0,0,0,5.9,2.07,8.4,8.4,0,0,0,6.66-3c1.5-1.71,2.38-4.22,2.67-7.53a14.74,14.74,0,0,0,3.6,6.51,13.54,13.54,0,0,0,10.28,4.41q9,0,13.71-9.21ZM268.4,39.41a7,7,0,0,1,5.72-3,6.84,6.84,0,0,1,5.26,2.49A8.92,8.92,0,0,1,281.6,45a4.35,4.35,0,0,1-.64,2.71,2.25,2.25,0,0,1-1.83.8H265.94C266,44.45,266.82,41.42,268.4,39.41Z"/><path class="cls-1" d="M62.32,84.71a4.49,4.49,0,0,1,4.43-4.47A4.4,4.4,0,0,1,70,81.64l-.26.26a4.08,4.08,0,1,0-3,6.9,4.09,4.09,0,0,0,2.83-1.16V85.5h-3v-.29h3.32v2.57a4.42,4.42,0,0,1-7.62-3.07Z"/><path class="cls-1" d="M66.75,89.82a5.1,5.1,0,0,1-5.1-5.11,5.18,5.18,0,0,1,5.1-5.14,5.08,5.08,0,0,1,3.69,1.59l.48.48L69.7,82.85l-.48-.48a3.41,3.41,0,1,0-.31,5V86.17H66V84.53h4.66v3.52l-.19.2A5.12,5.12,0,0,1,66.75,89.82Z"/><path class="cls-1" d="M75.6,89V80.32h5v.28H75.93v3.9h3.3v.28h-3.3v4h4.68V89Z"/><polygon class="cls-1" points="81.28 89.72 74.92 89.72 74.92 79.64 81.28 79.64 81.28 81.27 76.61 81.27 76.61 83.82 79.91 83.82 79.91 85.45 76.61 85.45 76.61 88.09 81.28 88.09 81.28 89.72"/><path class="cls-1" d="M86.53,89V80.32h.34v8.37h4.7V89Z"/><polygon class="cls-1" points="92.25 89.72 85.86 89.72 85.86 79.64 87.55 79.64 87.55 88.02 92.25 88.02 92.25 89.72"/><path class="cls-1" d="M100.3,80.32,103.21,89h-.35L102.19,87H98.35L97.68,89h-.35l2.9-8.72Zm0,.89-1.8,5.47h3.59Z"/><path class="cls-1" d="M104.15,89.72h-1.78l-.68-2.09H98.84l-.67,2.09H96.39l3.35-10.08h.34l.2-.61.19.61h.25l.23.46ZM99.41,86h1.72l-.86-2.63Z"/><path class="cls-1" d="M111.75,80.6V89h-.35V80.6h-2.73v-.28h5.82v.28Z"/><polygon class="cls-1" points="112.43 89.72 110.72 89.72 110.72 81.27 108 81.27 108 79.64 115.17 79.64 115.17 81.27 112.43 81.27 112.43 89.72"/><path class="cls-1" d="M119.91,84.71A4.13,4.13,0,1,1,124,89.15,4.21,4.21,0,0,1,119.91,84.71Zm.36,0A3.77,3.77,0,1,0,124,80.62,3.84,3.84,0,0,0,120.27,84.71Z"/><path class="cls-1" d="M124,89.82a5.14,5.14,0,1,1,4.8-5.11A4.84,4.84,0,0,1,124,89.82Zm0-8.52a3.43,3.43,0,1,0,3.08,3.41A3.19,3.19,0,0,0,124,81.3Z"/><path class="cls-1" d="M147,86.19a2.79,2.79,0,1,1-5.57,0,2.86,2.86,0,0,1,2-2.67,1.78,1.78,0,0,1-.94-1.54,1.72,1.72,0,1,1,3.43,0h-.28a1.49,1.49,0,0,0-1.44-1.44,1.43,1.43,0,1,0,0,2.85v.32a2.48,2.48,0,0,0,0,5,2.52,2.52,0,0,0,2.48-2.49h-1.61V85.9h2.25a1.91,1.91,0,0,0,1.37-.59l.21.25a2.26,2.26,0,0,1-1.58.63Z"/><path class="cls-1" d="M144.22,89.66a3.51,3.51,0,0,1-3.45-3.47,3.42,3.42,0,0,1,1.51-2.83,2.35,2.35,0,0,1-.45-1.38,2.4,2.4,0,1,1,4.79,0v.7H145V82a.82.82,0,0,0-.77-.76.75.75,0,0,0-.75.75.76.76,0,0,0,.76.74h.66v.83l.19.11-.19.07v.64l-.65,0a1.8,1.8,0,1,0,0,3.6,1.84,1.84,0,0,0,1.66-1.14h-1.47V85.23h2.93a1.25,1.25,0,0,0,.89-.39l.5-.51,1.14,1.27-.48.45a3,3,0,0,1-1.78.81A3.48,3.48,0,0,1,144.22,89.66Z"/><path class="cls-1" d="M168.67,88.54a5.91,5.91,0,0,1-2.26.61,4.46,4.46,0,1,1,0-8.91,5.08,5.08,0,0,1,2.27.62l.11.07-.19.26a5.89,5.89,0,0,0-2.19-.61,4.13,4.13,0,1,0,0,8.25,5.7,5.7,0,0,0,2.19-.61l.2.26Z"/><path class="cls-1" d="M166.4,89.82a5.13,5.13,0,1,1,0-10.25,5.58,5.58,0,0,1,2.58.69l.79.47L168.84,82l-.49-.2a5.37,5.37,0,0,0-1.95-.55,3.45,3.45,0,1,0,0,6.9,4.93,4.93,0,0,0,1.88-.54l.49-.21.57.67.51.69-.78.34A6.94,6.94,0,0,1,166.4,89.82Z"/><path class="cls-1" d="M177.17,80.32,180.06,89h-.35L179,87h-3.83L174.53,89h-.35l2.91-8.72Zm0,.89-1.8,5.47h3.59Z"/><path class="cls-1" d="M181,89.72h-1.78l-.67-2.09H175.7L175,89.72h-1.78l3.36-10.08h.34l.2-.6.19.6h.25l.23.46ZM176.27,86H178l-.86-2.63Z"/><path class="cls-1" d="M186.08,80.6v3.92h3.31v.28h-3.31V89h-.34V80.32h5v.28Z"/><polygon class="cls-1" points="186.76 89.72 185.06 89.72 185.06 79.64 191.45 79.64 191.45 81.27 186.76 81.27 186.76 83.85 190.07 83.85 190.07 85.48 186.76 85.48 186.76 89.72"/><path class="cls-1" d="M196.67,80.6v3.92H200v.28h-3.32V89h-.34V80.32h5v.28Z"/><polygon class="cls-1" points="197.35 89.72 195.65 89.72 195.65 79.64 202.04 79.64 202.04 81.27 197.35 81.27 197.35 83.85 200.66 83.85 200.66 85.48 197.35 85.48 197.35 89.72"/><path class="cls-1" d="M207,89V80.3h5v.28h-4.67V84.5h3.28v.27h-3.28v4H212V89Z"/><polygon class="cls-1" points="212.72 89.72 206.34 89.72 206.34 79.63 212.72 79.63 212.72 81.26 208.05 81.26 208.05 83.82 211.33 83.82 211.33 85.44 208.05 85.44 208.05 88.09 212.72 88.09 212.72 89.72"/><path class="cls-1" d="M209.16,78.46,209,78.3l.58-.89.49.32Z"/><polygon class="cls-1" points="209.11 79.36 208.13 78.39 209.38 76.48 211.22 77.66 209.11 79.36"/></svg>