<svg id="Layer_1" data-name="Layer 1" xmlns="http://www.w3.org/2000/svg" viewBox="0 0 288 107"><defs><style>.cls-1,.cls-2{fill:#c1c7d0;}.cls-2{fill-rule:evenodd;}</style></defs><title>Artboard 49 copy 4</title><path class="cls-1" d="M81.49,47.18a13.84,13.84,0,0,1,.89-5.34A7.47,7.47,0,0,1,85,38.53a10.17,10.17,0,0,1,4.13-1.66,30.28,30.28,0,0,1,5.5-.45h10.73a42.09,42.09,0,0,1,7.76.57,9.63,9.63,0,0,1,4.44,1.89,6.06,6.06,0,0,1,2,3.45,24.65,24.65,0,0,1,.41,5.31h-9.12v-.83a2.21,2.21,0,0,0-1.11-2.17,6.9,6.9,0,0,0-3.16-.58h-10a8.65,8.65,0,0,0-2.91.41,3.88,3.88,0,0,0-1.73,1.19,4.45,4.45,0,0,0-.84,1.87A12.42,12.42,0,0,0,90.86,50v3.2A15.66,15.66,0,0,0,91.07,56a3.87,3.87,0,0,0,.78,1.85,3.36,3.36,0,0,0,1.6,1,8.74,8.74,0,0,0,2.63.33h9.74a22.7,22.7,0,0,0,2.55-.12A3.53,3.53,0,0,0,110,58.5a2.26,2.26,0,0,0,.88-1.23,7.13,7.13,0,0,0,.27-2.2h9.12v2.8a13.5,13.5,0,0,1-.43,3.51,6.29,6.29,0,0,1-1.62,2.84,8.19,8.19,0,0,1-3.33,1.91,18.59,18.59,0,0,1-5.59.7H94.6a29.35,29.35,0,0,1-5.5-.46A10.17,10.17,0,0,1,85,64.71a7.46,7.46,0,0,1-2.59-3.29,13.78,13.78,0,0,1-.89-5.36Z"/><path class="cls-1" d="M139,36.75h11.88L167.22,66.5H157.06l-2.83-5.26H135.74l-2.67,5.26h-10.2Zm.17,18.08h11.67L144.9,43.65Z"/><path class="cls-1" d="M165.21,36.75H200v7.39H187.16V66.5H178V44.14H165.21Z"/><path class="cls-1" d="M203.43,56.76h9.12a5.51,5.51,0,0,0,.25,1.87,2,2,0,0,0,.74,1,2.58,2.58,0,0,0,1.23.44,17.22,17.22,0,0,0,1.73.08h11.18c.49,0,1,0,1.43-.06a3.54,3.54,0,0,0,1.26-.33,2.17,2.17,0,0,0,.88-.76,2.42,2.42,0,0,0,.33-1.36,2.8,2.8,0,0,0-.35-1.52,2.62,2.62,0,0,0-1.65-.82,21.61,21.61,0,0,0-3.86-.35q-2.57-.06-7-.06a70.31,70.31,0,0,1-8.18-.37A11.48,11.48,0,0,1,206,53.18a4.38,4.38,0,0,1-2-2.73,18.47,18.47,0,0,1-.45-4.5,26.17,26.17,0,0,1,.25-3.76,5.47,5.47,0,0,1,1.41-3,7.94,7.94,0,0,1,3.6-2,23.85,23.85,0,0,1,6.74-.74h12.74a24.3,24.3,0,0,1,6.22.63,7.78,7.78,0,0,1,3.46,1.81,5.4,5.4,0,0,1,1.5,2.77,17.81,17.81,0,0,1,.33,3.58v.95h-9.13a8,8,0,0,0-.1-1.4,1.61,1.61,0,0,0-.53-.95,3.05,3.05,0,0,0-1.34-.55,13.06,13.06,0,0,0-2.47-.19h-10.1a4.91,4.91,0,0,0-2.51.56,1.88,1.88,0,0,0-.95,1.75,2.87,2.87,0,0,0,.33,1.51,2.21,2.21,0,0,0,1.46.79,18,18,0,0,0,3.29.28c1.44,0,3.37,0,5.81,0,3.54,0,6.44.09,8.72.25a14.49,14.49,0,0,1,5.34,1.23,5.39,5.39,0,0,1,2.67,2.88A14.53,14.53,0,0,1,241,57.5a15.53,15.53,0,0,1-.62,4.83,5.12,5.12,0,0,1-2.26,2.83,11.1,11.1,0,0,1-4.52,1.34,67.82,67.82,0,0,1-7.44.33H215.06a34.86,34.86,0,0,1-5.32-.35,9.57,9.57,0,0,1-3.6-1.24,5.17,5.17,0,0,1-2-2.44,10.32,10.32,0,0,1-.66-4Z"/><path class="cls-1" d="M259.77,36.75h11.87L288,66.5H277.85L275,61.24H256.52l-2.67,5.26H243.66Zm.16,18.08H271.6l-5.91-11.18Z"/><path class="cls-1" d="M66.8,26.46c.78,1.34,1.57,2.68,2.22,4.08a35.85,35.85,0,0,1,3.5,15.05A29.48,29.48,0,0,1,70.1,57.67a18.1,18.1,0,0,1-3.31,5.14A4.18,4.18,0,0,1,65.1,64a.57.57,0,0,1-.74-.36,5.07,5.07,0,0,1,.11-2.19c.45-2.21,1-4.41,1.3-6.65A35,35,0,0,0,66,46.06,31.94,31.94,0,0,0,61.22,32.4,33.68,33.68,0,0,0,43.85,18.63a36.54,36.54,0,0,0-18-1.54A38.57,38.57,0,0,0,10,23.5c.39-.17.73-.4,1.09-.6a36.06,36.06,0,0,1,17.34-5,29.17,29.17,0,0,1,13.87,3,15.26,15.26,0,0,1,4.33,3.17,2.47,2.47,0,0,1,.78,1.54c-.07.48-.66.52-1,.52a24.68,24.68,0,0,1-3.73-.66,43.47,43.47,0,0,0-9.22-1.2,32.21,32.21,0,0,0-16.57,4.29,33.27,33.27,0,0,0-12.57,13A35.56,35.56,0,0,0,.12,55.58a38.32,38.32,0,0,0,7,25.18C6.39,79.48,5.63,78.2,5,76.86A35.75,35.75,0,0,1,1.3,62,29,29,0,0,1,4.43,47.85a15.12,15.12,0,0,1,3-4A2.74,2.74,0,0,1,8.93,43c.37,0,.55.38.56.69a9.36,9.36,0,0,1-.29,2.53c-.5,2.29-1,4.59-1.29,6.92A34.12,34.12,0,0,0,8,62.39,31.86,31.86,0,0,0,12.28,74.1a33,33,0,0,0,8.47,9.35,35.47,35.47,0,0,0,22.9,6.91,38.68,38.68,0,0,0,20.66-7.21,40.46,40.46,0,0,1-7.54,3.75,34.83,34.83,0,0,1-13.13,2.19A28.37,28.37,0,0,1,31.29,86a14.68,14.68,0,0,1-4.15-3.1,2.26,2.26,0,0,1-.71-1.5c0-.34.4-.46.68-.48a11.19,11.19,0,0,1,2.82.37,60.68,60.68,0,0,0,7.56,1.32A32.39,32.39,0,0,0,64.7,72.24a34.79,34.79,0,0,0,8.84-19.4A38.11,38.11,0,0,0,66.8,26.46Zm-5.68,26.6a23.05,23.05,0,0,1-5.84,12.82,21.39,21.39,0,0,1-18,6.84,38.59,38.59,0,0,1-5-.87,7.44,7.44,0,0,0-1.87-.24c-.18,0-.44.09-.45.31a1.56,1.56,0,0,0,.47,1,10.18,10.18,0,0,0,2.74,2,18.8,18.8,0,0,0,8.16,2A23.09,23.09,0,0,0,50,75.58a27.3,27.3,0,0,0,5-2.48,25.57,25.57,0,0,1-13.66,4.77,23.52,23.52,0,0,1-15.13-4.58,21.7,21.7,0,0,1-5.6-6.17,21.28,21.28,0,0,1-2.81-7.74,22.8,22.8,0,0,1-.08-6.12c.18-1.54.52-3.06.85-4.57a6.31,6.31,0,0,0,.2-1.67c0-.21-.13-.47-.37-.46a1.78,1.78,0,0,0-1,.55,9.94,9.94,0,0,0-2,2.66,19.1,19.1,0,0,0-2.06,9.34,23.68,23.68,0,0,0,2.43,9.83c.42.89.93,1.73,1.43,2.57a25.33,25.33,0,0,1-4.65-16.64,23.68,23.68,0,0,1,2.75-9.29A22,22,0,0,1,23.65,37a21.25,21.25,0,0,1,11-2.84,29,29,0,0,1,6.09.8,14.85,14.85,0,0,0,2.47.43c.25,0,.64,0,.69-.34a1.68,1.68,0,0,0-.52-1A10,10,0,0,0,40.47,32a19.13,19.13,0,0,0-9.17-2,23.89,23.89,0,0,0-11.46,3.3c-.24.13-.46.29-.71.4a25.42,25.42,0,0,1,10.44-4.24,24.15,24.15,0,0,1,11.92,1A22.24,22.24,0,0,1,53,39.55a21.14,21.14,0,0,1,3.12,9A22.75,22.75,0,0,1,56,54.35c-.2,1.48-.56,2.93-.86,4.4a3.51,3.51,0,0,0-.07,1.44.37.37,0,0,0,.49.24,2.74,2.74,0,0,0,1.12-.78,12,12,0,0,0,2.19-3.39,19.6,19.6,0,0,0,1.59-8,23.62,23.62,0,0,0-2.31-9.94c-.43-.93-1-1.81-1.46-2.7A25.26,25.26,0,0,1,61.12,53.06Z"/><path class="cls-2" d="M32.53,39.16a14.44,14.44,0,0,1,7.11.61,13.25,13.25,0,0,1,6.84,5.42,12.63,12.63,0,0,1,1.86,5.38A13.66,13.66,0,0,1,48.27,54c-.12.88-.34,1.74-.52,2.61a2.32,2.32,0,0,0,0,.87.23.23,0,0,0,.3.14,1.71,1.71,0,0,0,.66-.47,7,7,0,0,0,1.31-2,11.75,11.75,0,0,0,1-4.75,14.12,14.12,0,0,0-1.38-5.93c-.25-.55-.57-1.08-.87-1.61a15.06,15.06,0,0,1,2.65,10.39,13.76,13.76,0,0,1-3.48,7.64A12.72,12.72,0,0,1,37.14,65a22.92,22.92,0,0,1-3-.52,4.17,4.17,0,0,0-1.11-.14c-.11,0-.26,0-.27.19a.91.91,0,0,0,.28.59,6,6,0,0,0,1.63,1.22,11.11,11.11,0,0,0,4.87,1.22,13.56,13.56,0,0,0,5.16-.86,15.91,15.91,0,0,0,3-1.48A15.23,15.23,0,0,1,39.56,68a13.92,13.92,0,0,1-9-2.72,12.9,12.9,0,0,1-3.34-3.68A12.59,12.59,0,0,1,25.54,57a13.44,13.44,0,0,1-.05-3.64A25.69,25.69,0,0,1,26,50.63a3.67,3.67,0,0,0,.11-1c0-.13-.08-.28-.22-.27a1.07,1.07,0,0,0-.6.32,5.74,5.74,0,0,0-1.17,1.59,11.4,11.4,0,0,0-1.23,5.56,14,14,0,0,0,1.45,5.85,16.36,16.36,0,0,0,.85,1.54,15.12,15.12,0,0,1-2.77-9.91,14,14,0,0,1,1.64-5.54,13,13,0,0,1,5-5.1A12.55,12.55,0,0,1,35.53,42a17,17,0,0,1,3.63.47,9.24,9.24,0,0,0,1.47.26c.15,0,.38,0,.41-.2a.94.94,0,0,0-.3-.61A6.17,6.17,0,0,0,39,40.66a11.48,11.48,0,0,0-5.46-1.18,14.19,14.19,0,0,0-6.83,2,4.38,4.38,0,0,1-.43.24A15.2,15.2,0,0,1,32.53,39.16Z"/><path class="cls-1" d="M85.67,81.68h.92a4,4,0,0,1-.66,2.41,2.18,2.18,0,0,1-1.84.83,2,2,0,0,1-1.9-1.06,6.72,6.72,0,0,1-.61-3.27,6.78,6.78,0,0,1,.61-3.33,2.11,2.11,0,0,1,2-1,2.31,2.31,0,0,1,1.76.66,2.66,2.66,0,0,1,.61,1.88v.1h-.89a2,2,0,0,0-.4-1.33A1.33,1.33,0,0,0,84.15,77a1.28,1.28,0,0,0-1.22.82,7.37,7.37,0,0,0-.37,2.73A6.5,6.5,0,0,0,83,83.25,1.29,1.29,0,0,0,84.2,84a1.23,1.23,0,0,0,1.09-.57,3.05,3.05,0,0,0,.38-1.65Z"/><path class="cls-1" d="M87.81,80.57a6.61,6.61,0,0,1,.63-3.33,2.54,2.54,0,0,1,4.06,0,6.59,6.59,0,0,1,.62,3.34,6.72,6.72,0,0,1-.61,3.34,2.23,2.23,0,0,1-2,1,2.19,2.19,0,0,1-2-1A6.59,6.59,0,0,1,87.81,80.57Zm1,0a7,7,0,0,0,.38,2.76,1.53,1.53,0,0,0,2.64,0,7,7,0,0,0,.37-2.78,6.92,6.92,0,0,0-.37-2.77,1.53,1.53,0,0,0-2.64,0A6.86,6.86,0,0,0,88.77,80.57Z"/><path class="cls-1" d="M94.44,84.72v-8.3h1.24l2.87,7.12-.08-7.12h.89v8.3H98.18l-2.92-7.33.07,7.33Z"/><path class="cls-1" d="M104.76,81.68h.92a4,4,0,0,1-.65,2.41,2.2,2.2,0,0,1-1.84.83,2,2,0,0,1-1.9-1.06,6.71,6.71,0,0,1-.62-3.27,6.78,6.78,0,0,1,.61-3.33,2.13,2.13,0,0,1,2-1,2.28,2.28,0,0,1,1.75.66,2.66,2.66,0,0,1,.62,1.88v.1h-.9a2,2,0,0,0-.4-1.33,1.31,1.31,0,0,0-1.09-.49,1.26,1.26,0,0,0-1.21.82,7.16,7.16,0,0,0-.37,2.73,6.53,6.53,0,0,0,.38,2.66,1.29,1.29,0,0,0,1.26.78,1.22,1.22,0,0,0,1.08-.57,3,3,0,0,0,.38-1.65Z"/><path class="cls-1" d="M107.07,84.72v-8.3h2.33a2.92,2.92,0,0,1,1.91.53,2,2,0,0,1,.62,1.6,2.14,2.14,0,0,1-.37,1.33,2,2,0,0,1-1.17.7,1.51,1.51,0,0,1,1,.45,2.07,2.07,0,0,1,.42,1.2c0,.2,0,.48.06.83a2.64,2.64,0,0,0,.43,1.66H111.2a3.52,3.52,0,0,1-.23-1.35c0-.36,0-.64,0-.85a1.73,1.73,0,0,0-.44-1.17,2.1,2.1,0,0,0-1.33-.32H108v3.69Zm.9-4.49h1.13a2.22,2.22,0,0,0,1.43-.38,1.43,1.43,0,0,0,.46-1.16,1.38,1.38,0,0,0-.41-1.11,2,2,0,0,0-1.3-.34H108Z"/><path class="cls-1" d="M113.51,84.72v-8.3h4.12v.87h-3.2V80h3v.84h-3v3.06h3.23v.87Z"/><path class="cls-1" d="M120.45,84.72V77.27h-2.11v-.85h5v.85h-2v7.45Z"/><path class="cls-1" d="M124.11,80.57a6.61,6.61,0,0,1,.63-3.33,2.2,2.2,0,0,1,2-1,2.23,2.23,0,0,1,2,1,6.7,6.7,0,0,1,.62,3.34,6.7,6.7,0,0,1-.62,3.34,2.54,2.54,0,0,1-4.07,0A6.59,6.59,0,0,1,124.11,80.57Zm1,0a7,7,0,0,0,.37,2.76,1.37,1.37,0,0,0,1.32.77,1.35,1.35,0,0,0,1.32-.75,7,7,0,0,0,.37-2.78,6.92,6.92,0,0,0-.37-2.77,1.35,1.35,0,0,0-1.32-.75,1.37,1.37,0,0,0-1.32.77A6.91,6.91,0,0,0,125.08,80.57Z"/><path class="cls-1" d="M130.56,82.08h.89v.3a1.87,1.87,0,0,0,.39,1.28,1.46,1.46,0,0,0,1.15.43,1.44,1.44,0,0,0,1.09-.42,1.58,1.58,0,0,0,.39-1.14,1.46,1.46,0,0,0-.24-.9,2.52,2.52,0,0,0-1.08-.63l-.56-.21a5,5,0,0,1-1.22-.55,1.86,1.86,0,0,1-.51-.73,2.49,2.49,0,0,1-.17-1,2.3,2.3,0,0,1,.6-1.69,2.19,2.19,0,0,1,1.66-.62,2.16,2.16,0,0,1,1.59.57,2.11,2.11,0,0,1,.57,1.56.54.54,0,0,1,0,.11v.1h-.85v-.08a1.59,1.59,0,0,0-.34-1.08,1.22,1.22,0,0,0-1-.38,1.41,1.41,0,0,0-1,.36,1.3,1.3,0,0,0-.37,1,1.43,1.43,0,0,0,.25.91,2.56,2.56,0,0,0,1.11.64l.3.11a6.1,6.1,0,0,1,1.55.72,1.82,1.82,0,0,1,.46.69,3.17,3.17,0,0,1,.14,1,2.48,2.48,0,0,1-.65,1.84,2.43,2.43,0,0,1-1.81.66,2.26,2.26,0,0,1-1.75-.65,2.69,2.69,0,0,1-.6-1.9.82.82,0,0,1,0-.14Z"/><path class="cls-1" d="M139.4,84.72v-8.3h2.35a2.37,2.37,0,0,1,2.08,1,5.05,5.05,0,0,1,.67,2.93,9.71,9.71,0,0,1-.23,2.3,3.15,3.15,0,0,1-.72,1.44,1.91,1.91,0,0,1-.75.53,4,4,0,0,1-1.25.15Zm.93-.79h1.2a2.63,2.63,0,0,0,.9-.12,1.09,1.09,0,0,0,.51-.38,3.09,3.09,0,0,0,.42-1.06,10.1,10.1,0,0,0,.13-1.79,5.53,5.53,0,0,0-.43-2.68,1.68,1.68,0,0,0-1.56-.67h-1.17Z"/><path class="cls-1" d="M145.82,84.72v-8.3h4.12v.87h-3.2V80h3v.84h-3v3.06H150v.87Z"/><path class="cls-1" d="M153.41,84.72l2.26-8.3h1.18l2.29,8.3h-.93l-.63-2.39H155l-.6,2.39Zm1.75-3.23h2.21l-1.11-4.35Z"/><path class="cls-1" d="M160,84.72v-8.3H161v7.4h3.31v.9Z"/><path class="cls-1" d="M166.06,84.72V77.27h-2.12v-.85H169v.85h-2v7.45Z"/><path class="cls-1" d="M168.67,84.72l2.26-8.3h1.18l2.3,8.3h-.94l-.63-2.39h-2.63l-.6,2.39Zm1.75-3.23h2.21l-1.11-4.35Z"/><path class="cls-1" d="M179.59,84.72V77.27h-2.12v-.85h5.05v.85h-2v7.45Z"/><path class="cls-1" d="M183.41,84.72v-8.3h4.12v.87h-3.2V80h3v.84h-3v3.06h3.23v.87Z"/><path class="cls-1" d="M192.75,81.68h.91a4,4,0,0,1-.65,2.41,2.2,2.2,0,0,1-1.84.83,2,2,0,0,1-1.9-1.06,6.71,6.71,0,0,1-.62-3.27,6.9,6.9,0,0,1,.61-3.33,2.13,2.13,0,0,1,2-1,2.27,2.27,0,0,1,1.75.66,2.66,2.66,0,0,1,.62,1.88v.1h-.9a2.07,2.07,0,0,0-.39-1.33,1.33,1.33,0,0,0-1.09-.49,1.27,1.27,0,0,0-1.22.82,7.16,7.16,0,0,0-.37,2.73,6.71,6.71,0,0,0,.38,2.66,1.29,1.29,0,0,0,1.26.78,1.24,1.24,0,0,0,1.09-.57,3.05,3.05,0,0,0,.38-1.65Z"/><path class="cls-1" d="M195.05,84.72v-8.3h1.24l2.88,7.12-.09-7.12H200v8.3h-1.18l-2.92-7.33.08,7.33Z"/><path class="cls-1" d="M201.28,80.57a6.61,6.61,0,0,1,.63-3.33,2.55,2.55,0,0,1,4.07,0,6.7,6.7,0,0,1,.62,3.34,6.7,6.7,0,0,1-.62,3.34,2.54,2.54,0,0,1-4.07,0A6.59,6.59,0,0,1,201.28,80.57Zm1,0a6.77,6.77,0,0,0,.38,2.76,1.52,1.52,0,0,0,2.63,0,6.9,6.9,0,0,0,.38-2.78,6.88,6.88,0,0,0-.38-2.77,1.52,1.52,0,0,0-2.63,0A6.68,6.68,0,0,0,202.25,80.57Z"/><path class="cls-1" d="M207.91,84.72v-8.3h.93v7.4h3.31v.9Z"/><path class="cls-1" d="M212.73,80.57a6.61,6.61,0,0,1,.63-3.33,2.54,2.54,0,0,1,4.06,0,6.59,6.59,0,0,1,.62,3.34,6.72,6.72,0,0,1-.61,3.34,2.23,2.23,0,0,1-2,1,2.19,2.19,0,0,1-2-1A6.59,6.59,0,0,1,212.73,80.57Zm1,0a7,7,0,0,0,.38,2.76,1.53,1.53,0,0,0,2.64,0,7,7,0,0,0,.37-2.78,6.92,6.92,0,0,0-.37-2.77,1.53,1.53,0,0,0-2.64,0A6.86,6.86,0,0,0,213.69,80.57Z"/><path class="cls-1" d="M223.76,84.72l0-1.15a1.91,1.91,0,0,1-1.91,1.35,2.13,2.13,0,0,1-2-1.07,6.64,6.64,0,0,1-.64-3.33,6.11,6.11,0,0,1,.67-3.28,2.35,2.35,0,0,1,2.13-1,2.31,2.31,0,0,1,1.76.68,2.71,2.71,0,0,1,.64,1.89h-.92a2.05,2.05,0,0,0-.42-1.31,1.39,1.39,0,0,0-1.11-.46,1.41,1.41,0,0,0-1.37.84,7.2,7.2,0,0,0-.41,2.92,5.41,5.41,0,0,0,.43,2.47,1.43,1.43,0,0,0,1.34.79,1.41,1.41,0,0,0,1.24-.62,3.18,3.18,0,0,0,.43-1.82v-.22a.76.76,0,0,1,0-.15h-1.88v-.84h2.77v4.33Z"/><path class="cls-1" d="M225.72,75.64l.92-1.47h1l-1.33,1.47Zm.18,9.08v-8.3h.95v8.3Z"/><path class="cls-1" d="M227.76,84.72l2.26-8.3h1.18l2.29,8.3h-.93l-.64-2.39H229.3l-.61,2.39Zm1.75-3.23h2.2l-1.1-4.35Z"/><path class="cls-1" d="M237,82.08h.88v.3a1.87,1.87,0,0,0,.39,1.28,1.49,1.49,0,0,0,1.16.43,1.4,1.4,0,0,0,1.08-.42,1.58,1.58,0,0,0,.4-1.14,1.46,1.46,0,0,0-.24-.9,2.52,2.52,0,0,0-1.08-.63l-.56-.21a5,5,0,0,1-1.22-.55,2,2,0,0,1-.52-.73,2.68,2.68,0,0,1-.17-1,2.3,2.3,0,0,1,.6-1.69,2.23,2.23,0,0,1,1.67-.62,2.14,2.14,0,0,1,1.58.57,2.07,2.07,0,0,1,.58,1.56s0,.06,0,.11v.1h-.86v-.08a1.54,1.54,0,0,0-.34-1.08,1.21,1.21,0,0,0-1-.38,1.41,1.41,0,0,0-1,.36,1.3,1.3,0,0,0-.37,1,1.43,1.43,0,0,0,.25.91,2.58,2.58,0,0,0,1.1.64l.31.11a6.1,6.1,0,0,1,1.55.72,1.8,1.8,0,0,1,.45.69,2.88,2.88,0,0,1,.15,1,2.52,2.52,0,0,1-.65,1.84,2.45,2.45,0,0,1-1.82.66,2.27,2.27,0,0,1-1.75-.65,2.74,2.74,0,0,1-.59-1.9.82.82,0,0,1,0-.14Z"/><path class="cls-1" d="M243.2,84.72V83.58h1v1.14Z"/><path class="cls-1" d="M245.24,84.72l2.26-8.3h1.18l2.3,8.3H250l-.63-2.39h-2.63l-.6,2.39ZM247,81.49h2.21l-1.1-4.35Z"/><path class="cls-1" d="M252.8,84.72V83.58h1v1.14Z"/><path class="cls-1" d="M258.16,84.72v-8.3h2.35a2.35,2.35,0,0,1,2.07,1,5.05,5.05,0,0,1,.67,2.93,9.22,9.22,0,0,1-.23,2.3A3.15,3.15,0,0,1,262.3,84a1.91,1.91,0,0,1-.75.53,4,4,0,0,1-1.25.15Zm.92-.79h1.2a2.74,2.74,0,0,0,.91-.12,1.07,1.07,0,0,0,.5-.38,3.09,3.09,0,0,0,.42-1.06,9.23,9.23,0,0,0,.13-1.79,5.69,5.69,0,0,0-.42-2.68,1.7,1.7,0,0,0-1.57-.67h-1.17Z"/><path class="cls-1" d="M264.58,84.72v-8.3h4.11v.87h-3.2V80h3v.84h-3v3.06h3.23v.87Z"/><path class="cls-1" d="M276.66,81.68h.91a4,4,0,0,1-.65,2.41,2.18,2.18,0,0,1-1.84.83,2,2,0,0,1-1.9-1.06,6.72,6.72,0,0,1-.61-3.27,6.78,6.78,0,0,1,.61-3.33,2.11,2.11,0,0,1,2-1,2.27,2.27,0,0,1,1.75.66,2.66,2.66,0,0,1,.62,1.88v.1h-.89a2.07,2.07,0,0,0-.4-1.33,1.33,1.33,0,0,0-1.09-.49,1.28,1.28,0,0,0-1.22.82,7.37,7.37,0,0,0-.37,2.73,6.71,6.71,0,0,0,.38,2.66,1.31,1.31,0,0,0,1.26.78,1.23,1.23,0,0,0,1.09-.57,3.05,3.05,0,0,0,.38-1.65Z"/><path class="cls-1" d="M279.11,84.72V83.58h1v1.14Z"/><path class="cls-1" d="M283.33,84.72,281,76.42h1l1.87,7.15,1.91-7.15h.93l-2.28,8.3Z"/><path class="cls-1" d="M286.84,84.72V83.58h1v1.14Z"/></svg>