<svg id="Layer_1" data-name="Layer 1" xmlns="http://www.w3.org/2000/svg" viewBox="0 0 288 107"><defs><style>.cls-1{fill:#c1c7d0;}</style></defs><title>Artboard 49 copy 13</title><path class="cls-1" d="M163.64,72.14h8c-.58.94-1.11,1.84-1.68,2.71a51.8,51.8,0,0,1-7,8.72c-.1.1-.21.19-.32.28-.52.47-.81.48-1.29,0-.86-.91-1.7-1.84-2.55-2.76-1.21-1.33-2.42-2.67-3.64-4q-4.43-4.81-8.87-9.61a6.26,6.26,0,0,1-.45-.57.63.63,0,0,1,.12-1c1.79-1.49,3.59-3,5.37-4.48,2.17-1.84,4.41-3.62,6.45-5.6A11.09,11.09,0,0,0,161.22,49a9.81,9.81,0,0,0-2.2-7.49,14.24,14.24,0,0,0-8.8-5.15,22.5,22.5,0,0,0-10.5.7,15.63,15.63,0,0,0-5.58,2.81,9.53,9.53,0,0,0-3.73,7.2A12.61,12.61,0,0,0,131.75,53,30.81,30.81,0,0,0,137,60.65c1.23,1.38,2.52,2.71,3.75,4.08.49.54.42.88-.13,1.32-2.76,2.26-5.56,4.46-8.25,6.79A17.24,17.24,0,0,0,127,81.5a15.37,15.37,0,0,0-.33,7.1,12.29,12.29,0,0,0,5,7.82,17.51,17.51,0,0,0,7.42,3.13,18.82,18.82,0,0,0,8.44-.35,21.82,21.82,0,0,0,9.17-5.35c1.77-1.67,3.48-3.41,5.23-5.11.54-.52.81-.5,1.29.08,1.38,1.67,2.74,3.35,4.12,5s2.77,3.38,4.16,5.06l5.31,6.47a2.27,2.27,0,0,1,.3.46c.27.49.06.88-.51.92-.38,0-.77,0-1.16,0l-15.57,0c-1,0-1-.06-1-1,0-2.28,0-4.56,0-6.84a.89.89,0,0,0-.69-1,1.22,1.22,0,0,0-.88.42,22.08,22.08,0,0,1-7.54,5.36,21.67,21.67,0,0,1-10.31,1.44,20.31,20.31,0,0,1-11.29-4.66A34.18,34.18,0,0,1,123,95l-.12-.14c-.66-.86-1-.73-1.58-.12-1,.94-1.88,1.93-2.87,2.83-1.73,1.59-3.41,3.25-5.29,4.66a21.21,21.21,0,0,1-9.52,4,75.41,75.41,0,0,1-11.73.44c-4.25,0-8.51-.06-12.76-.09-3.42,0-6.84,0-10.26,0-3,0-6.1,0-9.16-.1-2.11,0-4.22-.13-6.33-.21-.63,0-.84-.31-.72-1,.24-1.31.52-2.61.78-3.92.47-2.41.94-4.83,1.42-7.24.4-2,.81-4,1.2-5.93.46-2.3.9-4.59,1.35-6.89s.9-4.59,1.38-6.87q.82-3.9,1.71-7.79,1.8-8,3.63-16c.9-3.91,1.86-7.81,2.79-11.72.77-3.25,1.55-6.51,2.31-9.76.36-1.53.69-3.07,1-4.6a2,2,0,0,1,2.31-1.84h10.2c3.15,0,6.31,0,9.47,0,6.08,0,12.16.09,18.24.1,2,0,4-.13,6-.09a12.9,12.9,0,0,1,8.08,3,30.58,30.58,0,0,1,5.08,5.87c.33.44.62.9,1,1.33.49.63.75.68,1.52.39l4.07-1.55a20.32,20.32,0,0,1,5.58-1.3c1.95-.15,3.9-.3,5.84-.26a22.4,22.4,0,0,1,11.44,3.51,17.57,17.57,0,0,1,7.17,7.92c.6,1.38,1,2.86,1.44,4.29,0,.12,0,.27.12.34s.46.5.7.5a.9.9,0,0,0,.67-.51c.33-1.2.59-2.43.86-3.65.58-2.68,1.15-5.36,1.73-8l1.95-9c.12-.55.24-1.1.38-1.65a1.93,1.93,0,0,1,2-1.55q18.24,0,36.47,0c3,0,6,.15,9,.05a10,10,0,0,1,5.89,1.75,17.16,17.16,0,0,1,6.17,6.46,13.84,13.84,0,0,1,1.56,5.18c.12,1.33.21,2.67.25,4a27.17,27.17,0,0,1-1.14,7.91,31.18,31.18,0,0,1-8.64,14.25c-.9.87-1.75,1.8-2.6,2.72a.89.89,0,0,0,.1,1.5,13.22,13.22,0,0,1,4.82,7.36,32,32,0,0,1,.64,9.61,27.71,27.71,0,0,1-1,5.79,24.42,24.42,0,0,1-2.91,6.44,22.37,22.37,0,0,1-6.35,6.54,27.69,27.69,0,0,1-7.46,3.56,33.41,33.41,0,0,1-10.8,1.33c-1.52,0-3.05,0-4.57-.11a5.22,5.22,0,0,1-1.24-.23,1.16,1.16,0,0,1-.85-1.14.63.63,0,0,1,.58-.77c1-.17,2.08-.35,3.12-.49,1.58-.23,3.17-.36,4.74-.65,2.12-.38,4.23-.79,6.32-1.33a19,19,0,0,0,5.72-2.42,33.85,33.85,0,0,0,4.28-3.14,22.52,22.52,0,0,0,6.27-10.37,24,24,0,0,0,1.19-6.6,12.84,12.84,0,0,0-1.77-6.6,17.91,17.91,0,0,0-6.35-6.36c-1.3-.81-1.35-1-.26-2,1.85-1.67,3.72-3.32,5.54-5a30,30,0,0,0,5.93-7.46,28.49,28.49,0,0,0,2.72-7,15.39,15.39,0,0,0,.23-6.27,15.69,15.69,0,0,0-2.46-6.31,12.28,12.28,0,0,0-6.7-5.17,15.85,15.85,0,0,0-4.56-.81c-11.69-.08-23.38-.05-35.06-.06-1.14,0-2.28,0-3.42,0a1.91,1.91,0,0,0-2.09,1.64c-.68,2.88-1.32,5.77-2,8.66-.62,2.66-1.26,5.32-1.88,8q-1.6,7-3.2,14c-.23,1-.43,2-.67,3a.54.54,0,0,1-.36.33c-1.85,0-3.7,0-5.6,0V55.63L152.09,67.09c3.84,3.81,7.7,7.66,11.55,11.5ZM104.87,64.9l1.56,1.46a28.87,28.87,0,0,1,4.33,4.58,13.19,13.19,0,0,1,2.45,7.68,17.13,17.13,0,0,1-1.07,5.76,24.6,24.6,0,0,1-7,10.47,17.19,17.19,0,0,1-5.71,3.22,24.65,24.65,0,0,1-7.24,1c-3.06.09-6.11,0-9.17,0-4.78,0-9.57,0-14.35,0a2.11,2.11,0,0,0-2.19,1.11,3.24,3.24,0,0,0,0,2.13c.21.89.28,1,1.17,1,1.62,0,3.25.08,4.88.08,2.07,0,4.14-.06,6.22-.08,4.73-.05,9.47-.08,14.21-.15a58.41,58.41,0,0,0,6.21-.28,30,30,0,0,0,5.54-1.18,26.59,26.59,0,0,0,10.46-6.25,20.54,20.54,0,0,0,5-7.56,21.74,21.74,0,0,0,.8-11.66,13.86,13.86,0,0,0-6.09-9.07c-.79-.55-1.64-1-2.44-1.57a.51.51,0,0,1-.06-.91c.33-.28.71-.52,1-.81,1.9-1.68,3.83-3.32,5.67-5.05a31.77,31.77,0,0,0,5.71-7,21.85,21.85,0,0,0,2.2-17.25,10.51,10.51,0,0,0-5.34-6.67,15.78,15.78,0,0,0-7.09-1.63c-3.17-.05-6.35.08-9.52.07-7.93,0-15.87-.06-23.81-.08-2.46,0-4.92,0-7.39,0-1.21,0-1.3.34-1.49,1.25-.91,4.28-1.78,8.57-2.68,12.85-.41,1.94-.84,3.87-1.25,5.8-.56,2.66-1.11,5.33-1.68,8s-1.17,5.31-1.73,8c-.85,4-1.67,8-2.51,12-.62,2.92-1.27,5.83-1.89,8.75-.89,4.2-1.76,8.4-2.65,12.6-.41,1.93-.84,3.86-1.25,5.79-.22,1,.07,1.38,1.13,1.4l2.62.09a2.4,2.4,0,0,0,2.22-1.13,5,5,0,0,0,.52-1.41C64.19,96.46,65.1,92.72,66,89q1.73-7,3.47-14c.64-2.56,1.29-5.12,1.93-7.68C72,65,72.58,62.7,73.15,60.41c.78-3.15,1.55-6.29,2.33-9.44l2.58-10.44q1.09-4.39,2.21-8.79a2.73,2.73,0,0,1,.4-.8,2.28,2.28,0,0,1,2.1-.71c2.2,0,4.4.07,6.59.08,5.17,0,10.34,0,15.51,0a23,23,0,0,1,5.85.56,11.21,11.21,0,0,1,8.42,8.19,13.56,13.56,0,0,1,.1,6.93,26.44,26.44,0,0,1-5.18,10.33,38.24,38.24,0,0,1-6.4,6.12C106.7,63.24,105.8,64.09,104.87,64.9ZM79.74,96v-.1h9.58a28.85,28.85,0,0,0,8.5-1.23,16.46,16.46,0,0,0,6.55-3.54A16.15,16.15,0,0,0,109.19,83a14.74,14.74,0,0,0,.24-6.44,15.31,15.31,0,0,0-4.2-8,10.77,10.77,0,0,0-4.59-2.82,13.73,13.73,0,0,0-4-.38q-9.3-.16-18.61-.3A3.12,3.12,0,0,0,75,67a6,6,0,0,0-.53,1.28c-.67,3-1.33,5.9-2,8.86s-1.17,5.73-1.76,8.59S69.57,91.32,69,94.15c-.24,1.15.25,1.75,1.42,1.8.75,0,1.5.08,2.25.08C75,96,77.38,96,79.74,96Zm12.6-62.2v.11H83.8A2.22,2.22,0,0,0,81.3,36q-.57,2.85-1.16,5.69c-.63,3-1.28,6-1.89,9.07-.46,2.29-.92,4.58-1.31,6.89-.24,1.37-.39,2.76-.52,4.14-.07.77.08.92.84,1.07a3,3,0,0,0,.67,0c1.64,0,3.29-.08,4.93-.08H95.75a11.84,11.84,0,0,0,5.06-.76,40.62,40.62,0,0,0,5.7-3.17,22.45,22.45,0,0,0,6.78-7.33c1.85-3.21,2.93-6.58,2.14-10.31A8.1,8.1,0,0,0,110,35a13.74,13.74,0,0,0-3.86-.74c-1.86-.14-3.71-.38-5.57-.43C97.84,33.77,95.09,33.83,92.34,33.83Zm34.48,39.85,9.08-8.76-8.77-9.1L118,64.61Z"/><path class="cls-1" d="M200.46,30.45c4.28,0,8.56.05,12.83,0a7.76,7.76,0,0,1,5.17,1.73,13.25,13.25,0,0,1,4.41,5.53,14.53,14.53,0,0,1,.93,6.67A21.13,21.13,0,0,1,220,54.75a27.27,27.27,0,0,1-4.75,5.2c-1.57,1.35-3.16,2.66-4.74,4-.59.5-.58.84-.06,1.48,1.55,1.89,3.19,3.72,4.59,5.71a14.06,14.06,0,0,1,2.53,9.32,16,16,0,0,1-1.36,5.31,27.76,27.76,0,0,1-4.93,7.59,15.89,15.89,0,0,1-8.77,5.26,35.06,35.06,0,0,1-5,.43c-2,.07-4,0-6,0h-3.53c-.71,0-1.07-.25-1.15-1a5.44,5.44,0,0,1,.05-1.8,1,1,0,0,1,.71-.61,19.91,19.91,0,0,1,2.78-.22c1.3,0,2.6.09,3.89.06s2.27-.11,3.4-.23a18.56,18.56,0,0,0,12.45-5.93,13,13,0,0,0,3.26-7.47,15.35,15.35,0,0,0-.41-6,13.1,13.1,0,0,0-4.59-7,11,11,0,0,0-6.67-2.37c-4.35-.1-8.71-.11-13.06-.16-.93,0-1.87-.08-2.8-.08a.61.61,0,0,1-.7-.65c0-.91,0-1.83,0-2.74,0-.56.43-.73.93-.73h4.83c2.81,0,5.62-.06,8.43,0,5.28.18,9.69-1.88,13.66-5.15a19.72,19.72,0,0,0,5.6-7.5,12.89,12.89,0,0,0,1.32-5.31,10.27,10.27,0,0,0-3.54-7.82,9,9,0,0,0-3.24-1.94,7,7,0,0,0-2-.33c-4.31-.08-8.63-.11-12.94-.19-2.68,0-5.37-.13-8-.19a18.58,18.58,0,0,0-2.36,0,1.71,1.71,0,0,0-1.58,1.38c-.38,1.59-.74,3.18-1.09,4.78-.82,3.8-1.62,7.61-2.45,11.41-.6,2.75-1.19,5.51-1.84,8.25a1.92,1.92,0,0,1-2.43,1.54c-.54-.08-.78-.41-.69-1.06.21-1.4.38-2.81.69-4.18q1.46-6.5,3-13c.82-3.42,1.69-6.84,2.54-10.26.44-1.74,1.12-2.27,2.91-2.27Z"/><path class="cls-1" d="M142.72,97.13a14.92,14.92,0,0,1-8.31-2.45,12.65,12.65,0,0,1-4.65-5.41,10,10,0,0,1,.08-7.85,23,23,0,0,1,5.91-8,34.69,34.69,0,0,1,6.06-4.6c1.35-.82,1.94-.58,2.94.52L149.86,75q3.31,3.7,6.61,7.43c.72.81,1.44,1.64,2.18,2.45a2.17,2.17,0,0,1,.19,3.11,23.61,23.61,0,0,1-11.24,8.31A18.38,18.38,0,0,1,142.72,97.13Zm1.91-5.33c.8-.14,2-.3,3.18-.58a7.2,7.2,0,0,0,3.38-1.65,1.36,1.36,0,0,0,.16-2c-.59-.75-1.2-1.48-1.82-2.2-1.66-2-3.34-4-5-5.92-1.16-1.37-2.31-2.75-3.47-4.13-.32-.38-.65-.52-1.08-.13a14.7,14.7,0,0,0-4.15,6,7.23,7.23,0,0,0,.38,6C138,90.34,140.78,91.61,144.63,91.8Z"/><path class="cls-1" d="M185.42,107.1c-.71,0-1.42,0-2.13,0a2.66,2.66,0,0,1-1.94-1c-1.86-2.1-3.73-4.21-5.61-6.29-2.08-2.3-4.17-4.58-6.24-6.87-1.41-1.56-2.83-3.12-4.2-4.71a2,2,0,0,1-.13-2.88c1.13-1.68,2.28-3.35,3.42-5,1.78-2.61,3.57-5.2,5.34-7.81,1-1.43,1.79-3,2.86-4.29a4.87,4.87,0,0,1,4.82-1.76c.74.12,1,.52.75,1.21-.45,1.32-1,2.62-1.51,3.9a78.81,78.81,0,0,1-5.85,11c-.58.91-1,1.86-.42,2.94.28.49.6,1,.92,1.43q3.47,5,6.92,10l5.94,8.5a4.43,4.43,0,0,1,.29.46c.33.78.18,1.12-.67,1.19s-1.7,0-2.56,0Z"/><path class="cls-1" d="M158.4,48.63a9.45,9.45,0,0,1-2.55,6.26A25.19,25.19,0,0,1,150,59.8C148,61,146,62.19,144.08,63.4a1,1,0,0,1-1.38-.07,34,34,0,0,1-7.27-7.86,14.13,14.13,0,0,1-2.18-6.41A8.52,8.52,0,0,1,136,41.69a11.26,11.26,0,0,1,5.72-2.56,18.48,18.48,0,0,1,7.26.14A13,13,0,0,1,156,43,8.69,8.69,0,0,1,158.4,48.63Zm-19,.38c.08.58.13,1.17.25,1.74a11,11,0,0,0,2.91,5.17,3.61,3.61,0,0,0,5.11.52,11,11,0,0,0,4.64-7.53,5,5,0,0,0-2.61-5.31,7,7,0,0,0-4.89-.78C142,43.41,139.33,45.93,139.41,49Z"/><path class="cls-1" d="M197.68,58c-2-.24-4-.48-6-.74a.84.84,0,0,1-.78-1c.18-1.16.39-2.31.62-3.46.68-3.27,1.38-6.54,2.08-9.81.21-1,.47-2,.72-2.93a1.3,1.3,0,0,1,1.45-1.17c2.62-.05,5.24-.13,7.87-.11a7.78,7.78,0,0,1,4.31,1,5.57,5.57,0,0,1,2.31,3.85,12,12,0,0,1-.22,5.94c-1.24,3.94-3.65,6.7-7.79,7.7-.76.18-1.53.36-2.3.47s-1.54.11-2.3.17ZM199,42H197.8c-1.08.05-1.3.25-1.51,1.25q-1,4.88-2,9.75c-.14.65,0,1,.63,1.15a16.87,16.87,0,0,0,3.21.56,12.17,12.17,0,0,0,3.05-.36,7.2,7.2,0,0,0,6-8A4.18,4.18,0,0,0,202.78,42C201.51,42,200.23,42,199,42Z"/><path class="cls-1" d="M194.05,70.9c1.79.12,3.58.13,5.35.37a5,5,0,0,1,4.31,4.32,15.27,15.27,0,0,1,.25,3.63A10.84,10.84,0,0,1,197.59,89a13.25,13.25,0,0,1-4.67,1.1,39.1,39.1,0,0,1-6.93-.28,3.47,3.47,0,0,1-1-.27c-.59-.27-.74-.81-.51-1.87,1-4.79,2.08-9.57,3.12-14.35.07-.34.1-.68.19-1a1.3,1.3,0,0,1,1.43-1.13c1.61,0,3.21,0,4.82,0Zm.79,3.17,0,.2h-3.71c-1,0-1.11.16-1.31,1.12-.5,2.4-1,4.81-1.54,7.21-.17.83-.37,1.65-.52,2.49-.09.5-.16,1.13.48,1.27a16.8,16.8,0,0,0,3.7.6,12.08,12.08,0,0,0,3.56-.6,6.82,6.82,0,0,0,4.62-4.22,8.47,8.47,0,0,0,.48-3.89,4,4,0,0,0-3.05-3.8A19.8,19.8,0,0,0,194.84,74.07Z"/><path class="cls-1" d="M232.84,11.22V3.13h2.51V14.76c-1,0-2.09,0-3.16,0-.13,0-.28-.2-.36-.35q-2.33-3.81-4.63-7.63a.71.71,0,0,1,0-.26l-.2.14v8.08h-2.54c0-.58-.08-1.17-.08-1.77,0-3.07,0-6.15,0-9.22,0-.5.13-.69.65-.66.79.05,1.59,0,2.38,0a1.13,1.13,0,0,1,.77.43c1.13,1.8,2.22,3.62,3.32,5.44C231.87,9.68,232.31,10.38,232.84,11.22Z"/><path class="cls-1" d="M119.68,14.77c-1,0-2.07,0-3.12,0-.12,0-.28-.18-.36-.31l-4.67-7.6a.39.39,0,0,0-.29-.19v8.09h-2.49V3.08c1.08,0,2.14,0,3.19,0,.2,0,.43.27.56.48,1.28,2.1,2.55,4.22,3.83,6.33.23.39.49.77.81,1.27V3.12h2.54Z"/><path class="cls-1" d="M215.46,2.81A5.89,5.89,0,0,1,221,5.71c1.87,3.26.63,8.07-3.57,9.1a6.81,6.81,0,0,1-5.89-1,5.65,5.65,0,0,1-2.29-5.08,5.51,5.51,0,0,1,3.31-5.29,18.55,18.55,0,0,1,2.88-.79ZM219.08,9a3.6,3.6,0,1,0-7.19-.41,3.59,3.59,0,0,0,3.43,4.14A3.49,3.49,0,0,0,219.08,9Z"/><path class="cls-1" d="M150.06,15a5.7,5.7,0,0,1-5.6-3.21c-1.65-3.43-.19-8.17,4.34-8.86a6.48,6.48,0,0,1,6,1.75,5.51,5.51,0,0,1,1.52,3.73,6.3,6.3,0,0,1-.93,4A5.84,5.84,0,0,1,150.61,15Zm0-2.29a3.5,3.5,0,0,0,3.67-3.8c-.09-2.58-1.44-3.74-3.69-3.76-2.07,0-3.55,1.3-3.62,3.71A3.6,3.6,0,0,0,150.09,12.72Z"/><path class="cls-1" d="M90.55,9.89l2.93,4.88c-1,0-2,0-2.91,0-.11,0-.25-.18-.32-.3-.62-1.18-1.25-2.36-1.84-3.55-.41-.82-.52-.89-1.72-.73v4.57H84.15V3.14c.18,0,.34-.06.49-.06,1.75,0,3.5,0,5.24.14a3,3,0,0,1,2.9,1.94c.63,1.69.22,4.07-2,4.6C90.71,9.77,90.67,9.82,90.55,9.89ZM86.71,8.06c1-.12,2-.19,3-.35.53-.08.73-.52.73-1a1.14,1.14,0,0,0-.7-1.17,7.89,7.89,0,0,0-3-.25Z"/><path class="cls-1" d="M161.57,10.16v4.57h-2.5V3.18c.06,0,.12-.08.17-.08,1.83,0,3.66,0,5.48.12a3.38,3.38,0,0,1,2.46,5.54,8.32,8.32,0,0,1-1.7,1.25l2.84,4.75c-1,0-2,0-2.9,0-.11,0-.22-.21-.29-.34q-.93-1.7-1.83-3.42C162.8,10,162.81,10,161.57,10.16Zm0-2.21h2.26a1.49,1.49,0,0,0,1.43-1.24,1.27,1.27,0,0,0-1.19-1.35c-.81-.12-1.64-.11-2.5-.16Z"/><path class="cls-1" d="M106.63,14.74H103.8l-1-2.44c-1.43,0-2.87,0-4.31,0-.14,0-.34.24-.42.4-.28.67-.53,1.35-.79,2h-2.8l2.25-5.24c.83-1.95,1.68-3.89,2.49-5.85a.91.91,0,0,1,.89-.61c1.13-.12,1.66.26,2.1,1.36,1.34,3.36,2.86,6.65,4.3,10A3.85,3.85,0,0,1,106.63,14.74Zm-4.7-4.6-1.46-3.68L99,10.14Z"/><path class="cls-1" d="M180.58,14.75h-2.79c.64-1.5,1.27-2.95,1.9-4.41.94-2.2,1.9-4.4,2.83-6.62a.88.88,0,0,1,1-.65c1.44,0,1.43,0,2,1.26q2.16,5,4.34,10c.05.12.09.26.16.46-.91,0-1.76,0-2.6,0a.54.54,0,0,1-.35-.3c-.26-.59-.46-1.21-.74-1.78a.78.78,0,0,0-.55-.37c-1.28,0-2.56-.05-3.84,0a.63.63,0,0,0-.46.33C181.12,13.3,180.86,14,180.58,14.75Zm3.3-8.07h-.18l-1.34,3.43h2.89Z"/><path class="cls-1" d="M135.81,10.23v4.5h-2.52V3.15s0,0,.05,0c2,.07,4.09.07,6.13.24a2.81,2.81,0,0,1,2.45,2.87,8.88,8.88,0,0,1-.12,1.63c-.29,1.4-1.45,2.08-2.94,2.28-.5.07-1,.09-1.51.11Zm0-2.09c.88-.07,1.68-.11,2.48-.19a1.24,1.24,0,0,0,1-1.12,1.2,1.2,0,0,0-.66-1.32,6.09,6.09,0,0,0-2.84-.24Z"/><path class="cls-1" d="M122.13,13.56l1.63-1.8a11.34,11.34,0,0,0,1.87.85,3.35,3.35,0,0,0,1.53-.13,1.07,1.07,0,0,0,.13-2c-.72-.32-1.46-.59-2.2-.84a3.55,3.55,0,0,1-2.32-1.7,3.52,3.52,0,0,1,1.68-4.59,5.68,5.68,0,0,1,5.76.45,1.55,1.55,0,0,1,.24.22l-1.71,1.89a2.72,2.72,0,0,0-2.42-.67,1.38,1.38,0,0,0-1.18.83.74.74,0,0,0,.32,1,24.81,24.81,0,0,0,2.62,1.07c1.59.57,2.37,1.42,2.39,2.85a3.35,3.35,0,0,1-2.31,3.61,5.78,5.78,0,0,1-5.92-.89A1,1,0,0,1,122.13,13.56Z"/><path class="cls-1" d="M199.73,11.43,201.81,13c-.94,1.67-3,2.33-5.28,2a5.48,5.48,0,0,1-5.06-5.08c-.37-3,.63-5.29,3.32-6.52,2.47-1.12,5.43-.59,6.81,1.15l-1.94,1.59a3.07,3.07,0,0,0-3.61-.62,3.37,3.37,0,0,0-2,3.15,4.13,4.13,0,0,0,.77,2.81,3,3,0,0,0,4.62.38A2.16,2.16,0,0,0,199.73,11.43Z"/><path class="cls-1" d="M178.29,5.36H175v9.37H172.5V5.37h-3.37V3.12h9.16Z"/><path class="cls-1" d="M82,3.11V5.36c-.92,0-1.81,0-2.69,0-.54,0-.69.13-.68.68,0,2.79,0,5.58,0,8.36a2.88,2.88,0,0,1,0,.35H76.12V5.37H72.83V3.11Z"/><path class="cls-1" d="M204.16,14.72V3.13h2.48V14.72Z"/><path class="cls-1" d="M218.84-.11c-.91.76-1.7,1.48-2.55,2.1a2.2,2.2,0,0,1-1.1.24,10,10,0,0,1-1.3-.07c.52-.74,1-1.44,1.52-2.13.07-.1.28-.13.43-.13C216.79-.12,217.74-.11,218.84-.11Z"/><path class="cls-1" d="M86.66,90.74c-2.21-.19-4-.31-5.76-.51-1.26-.14-1.62-.65-1.35-1.91C80.27,84.87,81,81.43,81.77,78c.36-1.65.71-3.31,1-5a1.48,1.48,0,0,1,1.61-1.4c2.62,0,5.24-.11,7.86-.08a8.22,8.22,0,0,1,3.56.62,5.46,5.46,0,0,1,3,4.26,12.44,12.44,0,0,1-.22,5.88c-1.19,3.88-3.58,6.63-7.58,7.69A42.76,42.76,0,0,1,86.66,90.74Zm9-11c0-.37,0-.73,0-1.1a4,4,0,0,0-2.48-3.45,18.17,18.17,0,0,0-3.34-.48c-1.28,0-2.55.17-3.83.18a.94.94,0,0,0-1.07.94c-.13.79-.33,1.58-.5,2.36-.55,2.52-1.1,5-1.63,7.56a.89.89,0,0,0,.74,1.23,11.17,11.17,0,0,0,4.67.46,10.05,10.05,0,0,0,4.57-1.62A6.81,6.81,0,0,0,95.65,79.69Z"/><path class="cls-1" d="M92.78,57.61c-1.79-.15-3.55-.28-5.31-.46-1-.1-1.44-.78-1.21-1.83Q87.6,49.05,89,42.79c.2-.92.4-1.85.58-2.78a1.59,1.59,0,0,1,1.74-1.5c2.21,0,4.43-.1,6.65,0a12.26,12.26,0,0,1,4.08.39,5.65,5.65,0,0,1,3.65,4.74,16.17,16.17,0,0,1,0,4.66,11.64,11.64,0,0,1-2.21,4.91,10.48,10.48,0,0,1-7.29,4.11C95,57.44,93.89,57.51,92.78,57.61Zm3.51-16-3.73.17a.81.81,0,0,0-.86.76q-1.07,5.05-2.15,10.1c-.16.75.06,1.09.79,1.3a11.39,11.39,0,0,0,5.88.22,7.91,7.91,0,0,0,4.54-2.56,7.61,7.61,0,0,0,1.56-6.33,3.71,3.71,0,0,0-3.16-3.36C98.05,41.68,96.92,41.63,96.29,41.57Z"/></svg>