<svg id="Layer_1" data-name="Layer 1" xmlns="http://www.w3.org/2000/svg" viewBox="0 0 288 107"><defs><style>.cls-1{fill:#d05b27;}.cls-2{fill:#59595c;}</style></defs><title>Artboard 49 copy 17</title><path class="cls-1" d="M187.77,67.44a8.18,8.18,0,0,0-2.51-6.06q-3.7-3.66-7.38-7.34l7.47-7.44a7.91,7.91,0,0,0,2.42-5.82c0-1.88,0-4.85,0-6.72V23.77c0-4.14-2.58-6.71-6.73-6.71h-7.84c-2.44,0-4.89,0-7.33,0a8.22,8.22,0,0,0-6,2.49c-2.66,2.69-5.34,5.36-8,8l-.06.05q-4-4-8.05-8.08a8.22,8.22,0,0,0-5.94-2.5h0c-2.45,0-4.89,0-7.33,0h-7.85c-1.55,0-3.24,1.34-3.94,2.05a7.25,7.25,0,0,0-5.1-2.09H97.76A7.23,7.23,0,0,0,93,18.82a7.22,7.22,0,0,0-4.74-1.76H72.46a7.28,7.28,0,0,0-6.7,4.44,7.28,7.28,0,0,0-6.7-4.44H43.27c-4,0-7.27,3.26-7.27,8.31V83.48c0,3,3.26,6.24,7.27,6.24H59.06a7.3,7.3,0,0,0,6.7-4.44,7.3,7.3,0,0,0,6.7,4.44H88.24A7.21,7.21,0,0,0,93,87.94a7.23,7.23,0,0,0,4.76,1.78h15.79a7.27,7.27,0,0,0,4.27-1.39,6.88,6.88,0,0,0,4.8,1.63h8.17c2.51,0,5,0,7.52,0h.07a8.3,8.3,0,0,0,6.11-2.57c2.39-2.41,4.85-4.86,7.22-7.22l.1-.1q3.72,3.7,7.42,7.42A8.07,8.07,0,0,0,165.15,90h.06c2.57,0,5.14,0,7.71,0H181c4.24,0,6.77-2.52,6.78-6.74v-4.5C187.75,75,187.75,71.2,187.77,67.44Zm-97.42,15a2.1,2.1,0,0,1-2.11,2.11H72.46a2.1,2.1,0,0,1-2.11-2.11v-14A1.4,1.4,0,0,0,69,67H62.58a1.41,1.41,0,0,0-1.41,1.37v14a2.11,2.11,0,0,1-2.11,2.11H43.27a2.75,2.75,0,0,1-2.1-1.07V25.37c0-2.2.94-3.14,2.1-3.14H59.06a2.11,2.11,0,0,1,2.11,2.1V37.22a1.42,1.42,0,0,0,1.41,1.38H69a1.41,1.41,0,0,0,1.4-1.35V24.33a2.1,2.1,0,0,1,2.11-2.1H88.24a2.1,2.1,0,0,1,2.11,2.1Zm25.31,0a2.11,2.11,0,0,1-2.11,2.11H97.76a2.11,2.11,0,0,1-2.11-2.11V24.29a2.12,2.12,0,0,1,2.11-2.11h15.79a2.12,2.12,0,0,1,2.11,2.11Zm66.93-.91c0,2.29-1.32,3.27-3.3,3.27h-6.37l-7.74,0h-.58c-.92,0-.76,0-1.4-.63-3.26-3.29-6.86-6.87-10.14-10.14a1.76,1.76,0,0,0-1.24-.57,1.79,1.79,0,0,0-1.27.58c-3.24,3.24-6.83,6.79-10.05,10-.7.7-.68.72-1.69.72h-.46q-3.78,0-7.56,0h-6.48c-2,0-3.28-.69-3.28-3.29,0-5.29,0-9.35,0-14.64,0-.91-.08-.76.56-1.39,3.3-3.26,7-6.91,10.23-10.19a1.67,1.67,0,0,0,0-2.51c-3.28-3.27-7-7-10.27-10.22-.64-.63-.52-.51-.52-1.41,0-5.32,0-10.37,0-15.69a2.91,2.91,0,0,1,3.26-3.24h14c.92,0,.85,0,1.49.63,3.49,3.53,7.34,7.37,10.84,10.88a1.71,1.71,0,0,0,1.2.57,1.75,1.75,0,0,0,1.23-.58c3.51-3.51,7.29-7.29,10.79-10.81.64-.65.6-.69,1.52-.69h14a3.06,3.06,0,0,1,3.25,3.24v6.37c0,2.65,0,6.72,0,9.38,0,.85.12.72-.47,1.31-3.3,3.26-7,6.95-10.26,10.22a1.64,1.64,0,0,0,0,2.61c3.24,3.24,6.76,6.77,10,10,.68.67.7.51.7,1.47C182.58,72.08,182.59,76.26,182.59,81.53Z"/><rect class="cls-2" x="146.06" y="47.61" width="11.5" height="11.5" rx="1.37" ry="1.37" transform="translate(82.2 -91.71) rotate(45)"/><path class="cls-2" d="M235.32,50.88v2.34a1.23,1.23,0,0,0,.64-.13c.13-.09.19-.36.19-.82v-.58A.88.88,0,0,0,236,51,1.05,1.05,0,0,0,235.32,50.88Z"/><path class="cls-2" d="M195.45,51a1.4,1.4,0,0,0-.61-.09V57.8c.39,0,.64-.08.73-.24a3.57,3.57,0,0,0,.13-1.29V52.18a5.69,5.69,0,0,0,0-.91A.42.42,0,0,0,195.45,51Z"/><path class="cls-2" d="M187.68,55.84h.94c-.14-1.19-.27-2.66-.41-4.42C187.93,53.44,187.75,54.91,187.68,55.84Z"/><path class="cls-2" d="M249.29,42.29H182.21a3.52,3.52,0,0,1-.49.64q-4.93,4.89-9.85,9.81a1.64,1.64,0,0,0,0,2.61c3.24,3.24,6.48,6.49,9.74,9.71a3.18,3.18,0,0,1,.58.77h67.08A2.71,2.71,0,0,0,252,63.12V45A2.71,2.71,0,0,0,249.29,42.29ZM188.84,59.6l-.15-1.89h-1l-.17,1.89h-2.83l1.4-10.52h3.95l1.57,10.52Zm9.6-3.13a8.59,8.59,0,0,1-.13,1.9,1.46,1.46,0,0,1-.47.74,1.89,1.89,0,0,1-.82.38,7.36,7.36,0,0,1-1.46.11H192.1V49.08h2.05a12.83,12.83,0,0,1,2.68.18,2.05,2.05,0,0,1,1.06.59,1.86,1.86,0,0,1,.46.93,14.2,14.2,0,0,1,.09,2Zm6.13,3.13h-4.15l-1.58-10.52h2.88c.34,2.89.58,5.35.72,7.35.14-2,.29-3.82.45-5.4l.19-2H206Zm6.6,0h-4.74V49.08H211v2.1h-1.83v2h1.71v2h-1.71v2.31h2Zm6.9,0h-2.4l-1.42-4.79V59.6H212V49.08h2.29l1.53,4.73V49.08h2.29Zm6.61-8.42h-1.63V59.6h-2.73V51.18H218.7v-2.1h6Zm6.84,4.93a11.06,11.06,0,0,1-.08,1.68,2.21,2.21,0,0,1-.46,1,2.3,2.3,0,0,1-1,.77,3.72,3.72,0,0,1-1.48.27,4.13,4.13,0,0,1-1.66-.31,2.5,2.5,0,0,1-1.08-.82,2.16,2.16,0,0,1-.42-1,22.85,22.85,0,0,1-.07-2.34V49.08H228V57a3.17,3.17,0,0,0,.07.88.3.3,0,0,0,.31.19.31.31,0,0,0,.33-.21,4.05,4.05,0,0,0,.07-1V49.08h2.74Zm6.75-1.46a1.46,1.46,0,0,1,.35.62,9,9,0,0,1,.07,1.55V59.6h-2.54V56.1a2.64,2.64,0,0,0-.13-1.05c-.09-.13-.33-.2-.7-.2V59.6h-2.74V49.08h1.94a16.18,16.18,0,0,1,2.62.14,1.86,1.86,0,0,1,1.12.77,3.45,3.45,0,0,1,.43,2,3,3,0,0,1-.31,1.65,1.61,1.61,0,0,1-1.2.51A2,2,0,0,1,238.27,54.65Zm6.23,5h-4.75V49.08h4.56v2.1h-1.82v2h1.71v2h-1.71v2.31h2Z"/></svg>